<svg id="Gradient" xmlns="http://www.w3.org/2000/svg" xmlns:xlink="http://www.w3.org/1999/xlink" viewBox="0 0 64 64"><defs><style>.cls-1{fill:url(#linear-gradient);}</style><linearGradient id="linear-gradient" x1="-188.53" y1="259.89" x2="229.15" y2="-157.79" gradientUnits="userSpaceOnUse"><stop offset="0" stop-color="#707de4"/><stop offset="0.5" stop-color="#00dbde"/><stop offset="1" stop-color="#8968e5"/></linearGradient></defs><path class="cls-1" d="M61.5,47.29a2.64,2.64,0,0,0-1.42-2l-1.75-.88.7-1.32a1.67,1.67,0,0,0-2.22-2.28l-1.55.78-6.59-5.48L45.24,25.4a9.54,9.54,0,0,0-7.41-7.06,3.21,3.21,0,0,0-.12-.33A8.2,8.2,0,0,0,40.34,12,8.28,8.28,0,1,0,26.41,18l-.12.35A9.37,9.37,0,0,0,19.4,24c-.11.24-.21.49-.33.81L15.33,36.33,8.74,41.8,7.19,41A1.66,1.66,0,0,0,5,43.29l.7,1.33-1.75.88A2.62,2.62,0,0,0,2.5,47.44a2.7,2.7,0,0,0,.77,2.31l.87.82a2.61,2.61,0,0,0,3.55.1l3.67-3.19,7.15-3.3a1,1,0,0,0,.43-.37l2-3.14v3.22L19,47.63l-1.48-.5a1.84,1.84,0,0,0-.45-.11c-3.46-.85-6.58,2.46-6.58,6.57,0,3.71,2.5,6.72,5.57,6.72h32c3.08,0,5.58-3,5.58-6.72v-.36a7.14,7.14,0,0,0-2.56-5.66,4.79,4.79,0,0,0-4.23-.9l-2,.55L43.21,44.1V40.68l1.86,3a1,1,0,0,0,.42.37l7.15,3.31,3.67,3.19a2.63,2.63,0,0,0,3.55-.1l.87-.84A2.56,2.56,0,0,0,61.5,47.29ZM32.06,34.55a4.1,4.1,0,0,1,0-8.19h.05a4.1,4.1,0,0,1,0,8.19Zm4.1,6.09a4.1,4.1,0,1,1-4.1-4.09A4.1,4.1,0,0,1,36.16,40.64ZM28.64,53.07a3.86,3.86,0,0,1-.53-1.23,3.92,3.92,0,0,1-.14-1,4.09,4.09,0,0,1,8.18,0s0,0,0,0a4.1,4.1,0,0,1-4.09,4.1l-.51,0A4.08,4.08,0,0,1,28.64,53.07Zm3.45-28.71H32A4.11,4.11,0,0,1,28,20.26a4.2,4.2,0,0,1,.08-.81,4.12,4.12,0,0,1,4-3.28,3.92,3.92,0,0,1,.59,0,4.11,4.11,0,0,1,3,2,3.92,3.92,0,0,1,.45,1.2h0a4,4,0,0,1,.07.8A4.1,4.1,0,0,1,32.09,24.36ZM25.78,12a6.28,6.28,0,0,1,12.56,0,6.2,6.2,0,0,1-1.69,4.3c0-.07-.12-.12-.17-.18l-.18-.18c-.13-.13-.26-.24-.4-.36l-.16-.12a4.89,4.89,0,0,0-.6-.41L35,15a5.28,5.28,0,0,0-.53-.27l-.23-.09-.47-.16-.25-.07-.5-.1-.23,0a5.58,5.58,0,0,0-1.49,0l-.23,0-.5.1-.26.07-.45.16-.25.1-.48.24L29,15a6,6,0,0,0-.58.4l-.21.17a3.17,3.17,0,0,0-.34.3c-.08.07-.15.15-.22.22l-.15.16A6.21,6.21,0,0,1,25.78,12Zm-3,32.63a.92.92,0,0,0,.11-.46V37.49l.77-1.22a1,1,0,0,0-.31-1.38A1,1,0,0,0,22,35.2l-.92,1.47h0l-3.66,5.82-7,3.24a.75.75,0,0,0-.24.15L6.38,49.16a.64.64,0,0,1-.86,0l-.86-.82a.63.63,0,0,1-.18-.56.62.62,0,0,1,.33-.46L7.48,46A1.06,1.06,0,0,0,8,45.36a1,1,0,0,0-.07-.77l-.7-1.32,1.21.61a1,1,0,0,0,1.08-.13l7.32-6.07a1,1,0,0,0,.32-.46L21,25.42c.08-.21.16-.41.26-.62A7.56,7.56,0,0,1,26,20.45c0,.07,0,.15,0,.22l0,.3c0,.1,0,.21.05.31s0,.19.05.29.05.2.07.29,0,.19.08.28.07.19.11.29a2,2,0,0,0,.1.26c0,.1.09.19.13.28s.09.17.13.25l.16.26.15.23.18.25.17.22.2.22.19.2.23.21.2.18.25.19.22.16,0,0a6.09,6.09,0,0,0,0,10.19,6.07,6.07,0,0,0,0,10.18l0,0-.22.16a2.27,2.27,0,0,0-.25.18l-.21.18-.22.2-.19.2-.2.22-.17.22-.18.24-.15.24a2.13,2.13,0,0,0-.16.25,2,2,0,0,0-.13.25l-.13.27c0,.08-.07.17-.11.26l-.1.28c0,.09-.06.19-.08.28s-.06.2-.08.29l-.06.29c0,.1,0,.2,0,.31a1.36,1.36,0,0,0,0,.29.88.88,0,0,0,0,.16l-5.11-2.17ZM16.05,58.31c-2,0-3.57-2.11-3.57-4.72s1.59-4.7,3.54-4.7a2.34,2.34,0,0,1,.63.09l.17,0,.09,0,2.18.73,7.23,3.07c0,.12.09.25.14.37a.36.36,0,0,1,0,.09s0,0,0,.05h0a3.78,3.78,0,0,0-.43.54l-.1.15a4.78,4.78,0,0,0-.32.64h0a4.91,4.91,0,0,0-.2.71l0,.18a3.84,3.84,0,0,0-.08.76,4.07,4.07,0,0,0,.07.71,1,1,0,0,0,0,.17,4.81,4.81,0,0,0,.18.65s0,0,0,0,.1.26.16.38ZM47.37,48.6a2.84,2.84,0,0,1,2.5.55,5.12,5.12,0,0,1,1.78,4.08v.36c0,2.61-1.6,4.72-3.58,4.72H28.75c-.74,0-1.4-.91-1.4-2a2.74,2.74,0,0,1,.09-.64l.06-.18c.05-.13.1-.26.16-.38l.05-.06.15.14.18.16.38.32a1.53,1.53,0,0,0,.16.11,5.72,5.72,0,0,0,.58.37l.1,0a4.9,4.9,0,0,0,.52.24l.21.08.45.15.23.06.48.09.21,0a5.58,5.58,0,0,0,.7,0,6.52,6.52,0,0,0,1.1-.1h.08a6.63,6.63,0,0,0,1-.29l.11,0a6.62,6.62,0,0,0,.88-.45l.12-.07a7.25,7.25,0,0,0,.76-.58l.12-.11a6,6,0,0,0,.64-.7l.09-.13a5.7,5.7,0,0,0,.52-.82l.06-.12a7.5,7.5,0,0,0,.37-.93s0-.06,0-.1a5,5,0,0,0,.2-1h0l6.46-2.07Zm12-.48h0l-.86.84a.64.64,0,0,1-.86,0l-3.77-3.28a1.43,1.43,0,0,0-.24-.16l-7-3.24-3.54-5.63s0,0,0,0L42,35a1,1,0,0,0-1.7,1.07l.9,1.43v6.83a.93.93,0,0,0,.12.46l1.54,3L38,49.37l0,0a6,6,0,0,0-.28-.85s0-.08,0-.12a6.26,6.26,0,0,0-.41-.77l-.09-.14a7,7,0,0,0-.53-.69l-.09-.1a5.42,5.42,0,0,0-.66-.61h0l-.44-.32a6.07,6.07,0,0,0,0-10.17,6.08,6.08,0,0,0,0-10.19l0,0,.22-.16.25-.19.2-.18.23-.21.18-.2.21-.22L36.9,24l.18-.25.15-.23.16-.26c0-.08.08-.17.13-.25s.09-.18.13-.28.07-.17.1-.26.07-.19.1-.29a2.29,2.29,0,0,0,.08-.28,2.45,2.45,0,0,0,.08-.29c0-.1,0-.2.05-.29s0-.21,0-.31,0-.2,0-.3a1.64,1.64,0,0,0,0-.22A7.75,7.75,0,0,1,43.33,26l3.52,11a1,1,0,0,0,.31.46l7.33,6.08a1,1,0,0,0,1.08.13l1.21-.61-.7,1.31a1.05,1.05,0,0,0-.07.78,1,1,0,0,0,.51.59l2.66,1.33a.62.62,0,0,1,.34.48A.6.6,0,0,1,59.34,48.12Z"/></svg>