<svg id="Gradient" xmlns="http://www.w3.org/2000/svg" xmlns:xlink="http://www.w3.org/1999/xlink" viewBox="0 0 64 64"><defs><style>.cls-1{fill:url(#linear-gradient);}</style><linearGradient id="linear-gradient" x1="-159.81" y1="225.85" x2="257.87" y2="-191.83" gradientUnits="userSpaceOnUse"><stop offset="0" stop-color="#707de4"/><stop offset="0.5" stop-color="#00dbde"/><stop offset="1" stop-color="#8968e5"/></linearGradient></defs><path class="cls-1" d="M61.93,27.6a15.19,15.19,0,0,0-5.49-1.5,31.32,31.32,0,0,0,.82-4.56,3,3,0,0,0-3.15-3.33,32.25,32.25,0,0,0-5,.66,31.11,31.11,0,0,0-.71-4.21,3,3,0,0,0-1.57-2,3,3,0,0,0-2.52-.1,31,31,0,0,0-6.05,3.29,31.82,31.82,0,0,0-3.88-5.71,3,3,0,0,0-4.6,0,31,31,0,0,0-3.88,5.7,30.64,30.64,0,0,0-6-3.29,3,3,0,0,0-2.53.1,3.09,3.09,0,0,0-1.57,2,32.58,32.58,0,0,0-.7,4.22,32,32,0,0,0-5.13-.68,3,3,0,0,0-3.16,3.35,33.24,33.24,0,0,0,.82,4.55,15.13,15.13,0,0,0-5.48,1.5,1.84,1.84,0,0,0,.26,3.44c2.32.71,6.48,2.45,8.19,6.15a7,7,0,0,0,3.28,3.26c-4.71,1.52-7.26,3.62-7.26,6,0,5.48,13.1,8.44,25.42,8.44s25.42-3,25.42-8.44c0-2.39-2.54-4.48-7.23-6a7.13,7.13,0,0,0,3.32-3.28c1.72-3.7,5.87-5.44,8.2-6.14a1.86,1.86,0,0,0,.26-3.46Zm-7.72-7.39a1,1,0,0,1,.79.32,1,1,0,0,1,.28.8h0a30.25,30.25,0,0,1-.93,4.85h-.09l-.3.06-.49.11-.32.09-.44.15-.31.13-.43.19-.29.15a3.38,3.38,0,0,0-.41.24l-.28.17-.4.3-.25.19-.42.37c-.06.07-.13.12-.19.19a6.85,6.85,0,0,0-.58.62c-4,4.7-5.84,6.87-9.09,9l-.8.49h0l-.22.13c-.6.35-1.3.73-2.13,1.16a.92.92,0,0,0-.32.27l0,0h-.2l-.41,0h-.22l-.34,0-.24,0h-.78l.52-.63a.18.18,0,0,1,.05-.07L35,39.5a1.59,1.59,0,0,1,.18-.22l0,0h0v0s.09-.11.14-.17l.1-.12h0l0,0c.47-.63,1-1.41,1.55-2.26.13-.19.25-.39.37-.59s.27-.45.4-.69.26-.47.39-.71.31-.6.46-.91c.25-.55.55-1.21.81-1.93.16-.43.31-.89.44-1.33.08-.24.14-.49.21-.74s.18-.72.24-1.08.12-.63.16-.95c0-.09,0-.18,0-.25.05-.35.09-.7.11-1s0-.77,0-1.17c0-.13,0-.25,0-.38l.1-.09a17.77,17.77,0,0,1,1.46-1.08l.17-.11c.53-.33,1.09-.65,1.67-.94l.17-.08a20,20,0,0,1,1.88-.8l.11,0c.68-.24,1.39-.46,2.13-.65A28.94,28.94,0,0,1,54.21,20.21ZM40.76,42.07h2l.91,0,.88-.07c-1.28.86-5.72,2-12.52,2C25.05,44,20.56,42.77,19.4,42l.87.08.91,0h2.09L24,42h.17l.62,0h0l.46,0,.15,0,.88.12.24,0,.93.1h.2l.71,0h.18l.72,0H31a1.15,1.15,0,0,0,.33-.09l.07,0,.06,0,0,0a.72.72,0,0,0,.2.09h0a.87.87,0,0,0,.28.05l.08,0a1.36,1.36,0,0,0,.29-.06l.08,0,.06,0h0a.89.89,0,0,0,.39.12h1.77l.72,0h.17l.72,0h.2l.93-.1.24,0,.9-.13.13,0,.41,0h.14l.49,0H40l.66,0Zm-23.6-.22C17.59,45.12,26.6,46,32,46s14.35-.88,14.83-4.12c2.65.85,3.4,1.7,3.4,2,0,1.31-6.45,3.88-18.27,3.88s-18.29-2.57-18.29-3.88C13.67,43.58,14.44,42.72,17.16,41.85ZM45,14.4a1,1,0,0,1,.85,0,1,1,0,0,1,.54.7,31,31,0,0,1,.68,4.23l-.19.07c-.55.16-1.08.33-1.6.53l-.19.07c-.46.18-.9.37-1.33.57l-.44.21c-.42.2-.82.41-1.21.63l-.21.12c-.43.26-.84.53-1.24.81l-.19.12a15.94,15.94,0,0,0-.34-1.61c0-.14-.07-.28-.11-.41-.14-.54-.31-1.08-.5-1.63a1.34,1.34,0,0,1-.07-.18c-.13-.32-.25-.65-.39-1A28.63,28.63,0,0,1,45,14.4Zm-13.77-3a1.05,1.05,0,0,1,1.56,0,28.25,28.25,0,0,1,4.12,6.34c.23.48.42,1,.61,1.45l.1.24a17.34,17.34,0,0,1,1.06,5c0,.25,0,.49,0,.74s0,.67,0,1-.06.61-.09.89c0,0,0,.06,0,.09a.5.5,0,0,0,0,.12c0,.3-.1.6-.15.91s-.13.62-.22.94-.11.43-.18.65c-.12.42-.27.84-.41,1.24-.23.64-.51,1.25-.74,1.75-.14.28-.28.57-.43.84s-.23.44-.35.66L35.7,35a5.26,5.26,0,0,1-.32.52c-.24.39-.48.76-.72,1.1h0c-.23.34-.46.66-.68,1l-.07.09-.17.22-.08.1-.19.24-.13.16-.08.1c-.33.42-.64.79-.93,1.09l-.28.3-.36-.39c-.26-.3-.57-.65-.88-1.05l-.06-.07h0c-.17-.21-.35-.44-.57-.75a4.49,4.49,0,0,1-.34-.47c-.18-.23-.34-.47-.52-.74A23.5,23.5,0,0,1,26.84,32l-.25-.59h0s0,0,0-.05a4.13,4.13,0,0,1-.17-.48,17.9,17.9,0,0,1-.54-1.77c-.06-.2-.1-.4-.14-.6l-.06-.23c-.06-.31-.11-.62-.16-.93s-.08-.7-.1-1.09,0-.67,0-1,0-.44,0-.71a14.69,14.69,0,0,1,.16-1.6v0c0-.2.09-.41.13-.61.07-.36.13-.72.22-1.08a2.46,2.46,0,0,0,.09-.29,20.31,20.31,0,0,1,1.16-3.14v0A28.3,28.3,0,0,1,31.26,11.44ZM17.67,15.13a1.07,1.07,0,0,1,.54-.7,1,1,0,0,1,.85,0A28.63,28.63,0,0,1,25,17.68q-.22.53-.42,1.05l-.06.15c-.2.57-.37,1.13-.52,1.69l-.09.35c-.13.55-.25,1.09-.34,1.63l-.08-.06a18.94,18.94,0,0,0-2.81-1.67l-.3-.14c-.5-.24-1-.47-1.56-.67h0c-.53-.21-1.09-.39-1.66-.56a1.27,1.27,0,0,0-.18-.06A29.54,29.54,0,0,1,17.67,15.13ZM9,20.53a1,1,0,0,1,.8-.32,30,30,0,0,1,5.88.88c.72.2,1.41.42,2.08.66l.21.07a19.08,19.08,0,0,1,1.78.77l.29.14a16.09,16.09,0,0,1,1.53.88,3.28,3.28,0,0,1,.31.2,13.21,13.21,0,0,1,1.31,1l.18.15v.3c0,.4,0,.78,0,1.14s.07.83.12,1.25.12.68.19,1.05l.05.25c.06.24.11.48.17.69a15.45,15.45,0,0,0,.57,1.86,4.39,4.39,0,0,0,.21.61l0,.07.26.62a26,26,0,0,0,2.65,4.78c.19.29.37.56.57.82l.34.46c.2.29.42.57.63.82l.09.11c.16.2.31.39.47.56H28.68l-.41,0h-.18l-.53,0h-.1l0,0a.92.92,0,0,0-.32-.27c-.85-.44-1.53-.81-2.14-1.17l-.09-.05-.13-.08-.1-.06-.52-.31L24,38.15l-.14-.08c-.37-.24-.72-.48-1-.71l-.26-.19-.45-.34-.51-.43a29,29,0,0,1-2.44-2.28c-.28-.3-.58-.62-.88-1L18,32.9c-.16-.19-.32-.37-.5-.56a.7.7,0,0,0-.06-.09s0,0,0,0l-.05,0-.34-.4c-.26-.3-.53-.6-.81-.95-.45-.51-.91-1.06-1.4-1.66-.19-.22-.38-.42-.58-.62l-.21-.2-.4-.36-.27-.2c-.12-.1-.25-.19-.38-.28l-.29-.19-.39-.22L12,26.92l-.39-.18-.35-.13-.39-.14-.37-.1-.42-.1-.37-.07H9.64a31.06,31.06,0,0,1-.93-4.85A1,1,0,0,1,9,20.53Zm3.35,15.83C10.39,32.15,6,30.13,3.27,29.25A11.54,11.54,0,0,1,8.8,28.11a6.27,6.27,0,0,1,4.51,2.34c.51.6,1,1.16,1.41,1.67l.83,1,.35.41.12.15c.13.14.26.28.38.43l.39.43a32.45,32.45,0,0,0,3.52,3.43c.18.16.38.32.57.47l.49.37.26.2c.38.27.79.54,1.21.82l.09.05h0l.13.09.22.14c-.42,0-.89,0-1.38,0h-.73l-.77,0L19.52,40c-.29,0-.58-.06-.89-.11l-.83-.14h-.06l-.26-.06-.1,0h-.09C14.73,39,13.07,37.92,12.34,36.36Zm43,10.12c0,2.69-8.91,6.44-23.42,6.44S8.54,49.17,8.54,46.48c0-.84.91-2,3.2-3.07a2.33,2.33,0,0,0-.07.53c0,4,10.52,5.88,20.29,5.88S52.23,48,52.23,43.94a2.42,2.42,0,0,0-.07-.54C54.46,44.5,55.38,45.64,55.38,46.48ZM51.65,36.36c-.73,1.58-2.43,2.67-5.08,3.26a3.32,3.32,0,0,1-.41.08l-.81.14c-.54.08-1.14.15-1.83.19-.51,0-1,0-1.48,0h0c-.46,0-.9,0-1.29,0h0l.43-.27c3.5-2.25,5.45-4.49,9.53-9.35.15-.18.31-.34.47-.5A6.33,6.33,0,0,1,55.2,28.1a11.81,11.81,0,0,1,5.53,1.15C58,30.12,53.61,32.14,51.65,36.36Z"/></svg>