<svg id="Gradient" xmlns="http://www.w3.org/2000/svg" xmlns:xlink="http://www.w3.org/1999/xlink" viewBox="0 0 64 64"><defs><style>.cls-1{fill:url(#linear-gradient);}</style><linearGradient id="linear-gradient" x1="-215.87" y1="278.57" x2="201.81" y2="-139.11" gradientUnits="userSpaceOnUse"><stop offset="0" stop-color="#707de4"/><stop offset="0.5" stop-color="#00dbde"/><stop offset="1" stop-color="#8968e5"/></linearGradient></defs><path class="cls-1" d="M48.91,31.2H47.36V18.06A5.21,5.21,0,0,0,38.94,14V7.65A5.15,5.15,0,0,0,37.41,4a5.21,5.21,0,0,0-8.9,3.83v8.74a5.17,5.17,0,0,0-6.43,0V14.46a5.18,5.18,0,0,0-1.53-3.69,5.22,5.22,0,0,0-8.9,3.86V36.78a41.84,41.84,0,0,0,1.23,10A19.48,19.48,0,0,0,50,49.07a35.63,35.63,0,0,0,2.38-12.83V34.63A3.44,3.44,0,0,0,48.91,31.2ZM25.3,17.41a3.24,3.24,0,0,1,3.2,2.89c0,.11,0,.22,0,.32v9.16A3.22,3.22,0,0,1,25.3,33a3.23,3.23,0,0,1-3.22-3.22V20.62c0-.1,0-.2,0-.31A3.2,3.2,0,0,1,25.3,17.41ZM50.35,36.24A33.64,33.64,0,0,1,48.1,48.35a17.48,17.48,0,0,1-33.28-2,39.72,39.72,0,0,1-1.17-9.53V14.63a3.3,3.3,0,0,1,3-3.37h.22a3.23,3.23,0,0,1,3.22,3.21V29.78A5.22,5.22,0,0,0,25.3,35a5.22,5.22,0,0,0,5.21-5.22v-22a3.34,3.34,0,0,1,2.61-3.31,3.24,3.24,0,0,1,2.88.9,3.18,3.18,0,0,1,.94,2.27V25.53a1,1,0,0,0,2,0V18.06a3.21,3.21,0,1,1,6.42,0V31.2H37.22a5,5,0,1,0,0,10h2.43a9.59,9.59,0,0,0-3.59,7.27A1,1,0,0,0,37,49.52h.05a1,1,0,0,0,1-1,7.84,7.84,0,0,1,5.87-7.39,1,1,0,0,0-.21-2h-6.5a3,3,0,1,1,0-6H48.91a1.44,1.44,0,0,1,1.44,1.43Z"/></svg>