<svg id="Gradient" xmlns="http://www.w3.org/2000/svg" xmlns:xlink="http://www.w3.org/1999/xlink" viewBox="0 0 64 64"><defs><style>.cls-1{fill:url(#linear-gradient);}</style><linearGradient id="linear-gradient" x1="-266.82" y1="333.84" x2="150.86" y2="-83.84" gradientUnits="userSpaceOnUse"><stop offset="0" stop-color="#707de4"/><stop offset="0.5" stop-color="#00dbde"/><stop offset="1" stop-color="#8968e5"/></linearGradient></defs><path class="cls-1" d="M57.31,23.27h-6.9l5-5.77a7.77,7.77,0,1,0-8.79-7.7c0,.24,0,.45,0,.66L34.82,23.27h-29a4,4,0,0,0-3.94,3.95v2.23A3.93,3.93,0,0,0,4.8,33.24v5.31A23.23,23.23,0,0,0,8.9,51.77s0,0,0,0h0A23.42,23.42,0,0,0,28.22,62h6.7A23.41,23.41,0,0,0,54.29,51.7l.06-.05s0,0,0-.07a23.34,23.34,0,0,0,3.15-6.89h0a23.43,23.43,0,0,0,.82-6.13V33.24a3.93,3.93,0,0,0,2.92-3.79V27.22A4,4,0,0,0,57.31,23.27Zm-8.92-11.8a1,1,0,0,0,.27-.69,1.1,1.1,0,0,0,0-.18,4.66,4.66,0,0,1-.06-.8,5.77,5.77,0,1,1,6.22,5.75,1,1,0,0,0-.68.34l-6.34,7.38H37.53Zm4.76,38.28a7,7,0,0,0-7.93,1.38,5,5,0,0,1-7.08,0l-.91-.91a7,7,0,0,0-9.91,0l-.92.92a5,5,0,0,1-7.08,0l-.6-.6a6.93,6.93,0,0,0-8.79-.9,21.18,21.18,0,0,1-2.21-4.89l2.51-2.51a5,5,0,0,1,7.07,0l.61.61a7,7,0,0,0,9.91,0l.92-.92a5,5,0,0,1,7.07,0l.91.9a7,7,0,0,0,9.91,0,5,5,0,0,1,7.07,0l1.76,1.75A21.42,21.42,0,0,1,53.15,49.75Zm2-8.32a7,7,0,0,0-9.91,0,5,5,0,0,1-7.08,0l-.9-.91a7,7,0,0,0-9.91,0l-.92.92a5,5,0,0,1-7.07,0l-.61-.6a7,7,0,0,0-9.91,0L7.17,42.48a22.09,22.09,0,0,1-.37-3.93V33.4H56.34v5.15A21.09,21.09,0,0,1,56,42.3ZM34.92,60h-6.7a21.38,21.38,0,0,1-17.17-8.67,5,5,0,0,1,6.26.65l.6.6a7,7,0,0,0,9.9,0l.92-.92a5,5,0,0,1,7.08,0l.91.91a7,7,0,0,0,9.91,0A4.93,4.93,0,0,1,52,51.44,21.38,21.38,0,0,1,34.92,60ZM59.26,29.45a1.94,1.94,0,0,1-1.95,1.94H5.82a1.94,1.94,0,0,1-1.94-1.94V27.22a2,2,0,0,1,1.94-1.95H57.31a2,2,0,0,1,1.95,1.95Z"/></svg>