<svg id="Gradient" xmlns="http://www.w3.org/2000/svg" xmlns:xlink="http://www.w3.org/1999/xlink" viewBox="0 0 64 64"><defs><style>.cls-1{fill:url(#linear-gradient);}</style><linearGradient id="linear-gradient" x1="-62.96" y1="133.51" x2="354.72" y2="-284.16" gradientUnits="userSpaceOnUse"><stop offset="0" stop-color="#707de4"/><stop offset="0.5" stop-color="#00dbde"/><stop offset="1" stop-color="#8968e5"/></linearGradient></defs><path class="cls-1" d="M60.69,43.93A4.08,4.08,0,0,0,58,42.34l-1.92-.27a4.1,4.1,0,0,0-4.2,2.17L48,42.08a6.19,6.19,0,0,1-2.9-3.64l-5.48-18.5a4.42,4.42,0,0,0-7.36-1.87c-.11.11-.19.24-.29.36-.1-.12-.18-.25-.29-.36a4.42,4.42,0,0,0-7.36,1.87l-5.48,18.5A6.21,6.21,0,0,1,16,42.08l-3.84,2.16a4.1,4.1,0,0,0-4.2-2.17L6,42.34A4.1,4.1,0,0,0,2.52,47L4.27,59.41A4.13,4.13,0,0,0,8.34,63a5.46,5.46,0,0,0,.57,0l1.92-.27A4.12,4.12,0,0,0,14.33,58l-.21-1.48,11.43-2.93a1,1,0,0,0,.45-.27l3.6-3.59A11.55,11.55,0,0,0,32,46.21a11.55,11.55,0,0,0,2.4,3.51L38,53.31a1,1,0,0,0,.45.27l11.43,2.93L49.67,58a4.12,4.12,0,0,0,3.5,4.65l1.92.27a5.46,5.46,0,0,0,.57,0,4.12,4.12,0,0,0,4.07-3.54L61.48,47A4.11,4.11,0,0,0,60.69,43.93ZM11.94,59.84a2.1,2.1,0,0,1-1.39.82h0l-1.92.27a2.12,2.12,0,0,1-2.38-1.8L4.5,46.7a2.12,2.12,0,0,1,.41-1.56,2.1,2.1,0,0,1,1.39-.82l1.92-.27a1.51,1.51,0,0,1,.3,0,2.11,2.11,0,0,1,2.08,1.81L12,55.9v0l.33,2.35A2.1,2.1,0,0,1,11.94,59.84ZM28.18,48.31l-3.4,3.4L13.84,54.52l-1.16-8.28L17,43.82A8.17,8.17,0,0,0,20.79,39l5.48-18.49a2.41,2.41,0,0,1,2.32-1.74A2.42,2.42,0,0,1,31,21.19v6.28a3.44,3.44,0,0,0-1.7-.34,3.55,3.55,0,0,0-3.24,3.6v7.66a1,1,0,0,0,2,0V30.73a1.58,1.58,0,0,1,1.37-1.61A1.47,1.47,0,0,1,31,30.58V41.49A9.57,9.57,0,0,1,28.18,48.31Zm11,3.4-3.4-3.4A9.57,9.57,0,0,1,33,41.49V30.58a1.47,1.47,0,0,1,1.57-1.46,1.58,1.58,0,0,1,1.36,1.61v7.66a1,1,0,0,0,2,0V30.73a3.54,3.54,0,0,0-3.23-3.6,3.44,3.44,0,0,0-1.7.34V21.19a2.42,2.42,0,0,1,2.41-2.41,2.41,2.41,0,0,1,2.32,1.73L43.21,39A8.17,8.17,0,0,0,47,43.82l4.28,2.42-1.16,8.28Zm20.28-5L57.75,59.13a2.12,2.12,0,0,1-2.38,1.8l-1.92-.27h0a2.12,2.12,0,0,1-1.8-2.39L52,55.92v0l1.34-9.59.07-.47A2.11,2.11,0,0,1,55.48,44a1.51,1.51,0,0,1,.3,0l1.92.27a2.1,2.1,0,0,1,1.39.82A2.12,2.12,0,0,1,59.5,46.7ZM47.2,29.85H58.83a1,1,0,0,1,0,2H47.2a1,1,0,0,1,0-2ZM43.31,19.13a1,1,0,0,1,0-1.42L51.53,9.5A1,1,0,0,1,53,9.5a1,1,0,0,1,0,1.41l-8.22,8.22a1,1,0,0,1-.71.29A1,1,0,0,1,43.31,19.13Zm-32-8.22a1,1,0,0,1,0-1.41,1,1,0,0,1,1.42,0L21,17.71a1,1,0,0,1,0,1.42,1,1,0,0,1-.71.29,1,1,0,0,1-.71-.29ZM31,13.67V2.05a1,1,0,1,1,2,0V13.67a1,1,0,1,1-2,0ZM4.17,30.85a1,1,0,0,1,1-1H16.8a1,1,0,1,1,0,2H5.17A1,1,0,0,1,4.17,30.85Z"/></svg>