<svg id="Gradient" xmlns="http://www.w3.org/2000/svg" xmlns:xlink="http://www.w3.org/1999/xlink" viewBox="0 0 64 64"><defs><style>.cls-1{fill:url(#linear-gradient);}</style><linearGradient id="linear-gradient" x1="-118.12" y1="183.56" x2="299.56" y2="-234.12" gradientUnits="userSpaceOnUse"><stop offset="0" stop-color="#707de4"/><stop offset="0.5" stop-color="#00dbde"/><stop offset="1" stop-color="#8968e5"/></linearGradient></defs><path class="cls-1" d="M47,16.73a4.75,4.75,0,0,0-2.75.87V13.18A4.75,4.75,0,0,0,39.5,8.43a4.65,4.65,0,0,0-2.75.88V8.21a4.75,4.75,0,0,0-9.5,0V9.3a4.76,4.76,0,0,0-7.5,3.88V17.6A4.68,4.68,0,0,0,17,16.73a4.75,4.75,0,0,0-4.74,4.75v.57a1,1,0,0,0,.51.87,2.74,2.74,0,0,1,1.39,2.39V42.7a17.84,17.84,0,0,0,35.68,0V25.31a2.74,2.74,0,0,1,1.39-2.39,1,1,0,0,0,.51-.87v-.57A4.75,4.75,0,0,0,47,16.73Zm2.74,4.78a4.36,4.36,0,0,0-.51.44,4.71,4.71,0,0,0-1.39,3.36V42.7a15.84,15.84,0,0,1-31.68,0V25.31A4.71,4.71,0,0,0,14.77,22a4.36,4.36,0,0,0-.51-.44v0a2.75,2.75,0,1,1,5.49,0v5.68a1,1,0,0,0,2,0v-14a2.75,2.75,0,0,1,2.75-2.75,2.75,2.75,0,0,1,2.75,2.75v9a1,1,0,0,0,2,0v-14a2.75,2.75,0,1,1,5.5,0v14a1,1,0,0,0,2,0v-9a2.75,2.75,0,1,1,5.5,0v14a1,1,0,0,0,2,0V21.48a2.73,2.73,0,0,1,.8-1.95,2.75,2.75,0,0,1,4.69,1.95ZM41,37.85A20.92,20.92,0,0,0,41.7,33a1,1,0,0,0-1-1,19.47,19.47,0,0,0-5.41.89,21.43,21.43,0,0,0-2.49-3.19,1,1,0,0,0-.72-.31h0a1,1,0,0,0-.72.31,22.07,22.07,0,0,0-2.53,3.27,19.34,19.34,0,0,0-5.62-1,1,1,0,0,0-.72.29,1,1,0,0,0-.29.72A20.57,20.57,0,0,0,23,38a21.21,21.21,0,0,0-3,2.36,1,1,0,0,0,0,1.43,21.53,21.53,0,0,0,3.37,2.6,8.5,8.5,0,0,0,.12,3.28,1,1,0,0,0,.73.73,9.07,9.07,0,0,0,2,.24,4.66,4.66,0,0,0,3.34-1.14,5.38,5.38,0,0,0,.54-.64,9.12,9.12,0,0,0,1.56.93,1,1,0,0,0,.82,0,9.26,9.26,0,0,0,1.68-1,6.44,6.44,0,0,0,.64.76,4.62,4.62,0,0,0,3.33,1.14,8.47,8.47,0,0,0,2-.24,1,1,0,0,0,.73-.72,8.63,8.63,0,0,0,.1-3.39,21.93,21.93,0,0,0,3.25-2.53,1,1,0,0,0,0-1.43A21.93,21.93,0,0,0,41,37.85ZM39.64,34a17.26,17.26,0,0,1-.47,2.88l-.59-.21-.09,0a5.06,5.06,0,0,0-.62-.15l-.18,0a4.87,4.87,0,0,0-.65,0H36.7l0-.15a4.8,4.8,0,0,0-.09-.5c0-.11,0-.22-.08-.33s-.13-.39-.2-.59l-.08-.23A17.19,17.19,0,0,1,39.64,34Zm-7.57-2.16A16.56,16.56,0,0,1,34,34.59a5.11,5.11,0,0,1,.75,2.27c0,.21,0,.42,0,.62h0a3.91,3.91,0,0,1-1.86,3.18l-.16.07a1.85,1.85,0,0,1-.54.1H32a1.1,1.1,0,0,1-.24,0l-.17,0-.11,0-.1,0-.2-.1a2.39,2.39,0,0,1-.34-.21,4.37,4.37,0,0,1-1.43-2.94,5.88,5.88,0,0,1,0-.6,5,5,0,0,1,.7-2.19A17.56,17.56,0,0,1,32.07,31.87Zm-4.18,2.85c0,.09-.05.17-.08.25s-.13.36-.18.54l-.08.32c0,.16-.06.32-.08.48l0,.14H27l-.39,0-.36,0c-.16,0-.33.08-.5.13l-.24.06c-.25.08-.5.18-.76.29a17.8,17.8,0,0,1-.5-3A16.21,16.21,0,0,1,27.89,34.72Zm-3.24,4.6a5.53,5.53,0,0,1,2.52-.87c.14,0,.29,0,.43,0q.07.33.18.66c0,.07,0,.13.07.2s.11.31.18.45a2.56,2.56,0,0,0,.11.24l.2.37.13.23.23.34.16.2.26.3c.06.06.11.12.17.17l.32.28.16.13a4,4,0,0,0,.52.32l.22.11a2.39,2.39,0,0,1-.23.22c-.05,0-.09.09-.15.13a4.06,4.06,0,0,1-.51.32,4.13,4.13,0,0,1-.56.26h0a5.6,5.6,0,0,1-1.89.32,3.15,3.15,0,0,1-.57-.07,4.85,4.85,0,0,1-1-.33l-.19-.09A4.39,4.39,0,0,1,25,43a16.93,16.93,0,0,1-2.8-1.95A18.69,18.69,0,0,1,24.65,39.32Zm3.49,6.79c-.62.62-2,.6-2.85.48a6.77,6.77,0,0,1-.06-1.24l.18,0a5.2,5.2,0,0,0,.61.18l.19.05a4.6,4.6,0,0,0,.71.09h.25l.47,0h.2c.23,0,.46-.06.69-.1h0A3.67,3.67,0,0,1,28.14,46.11Zm3.93-.33a6.36,6.36,0,0,1-1.31-1c.17-.1.32-.22.48-.33l.22-.15a5.39,5.39,0,0,0,.65-.61h0a.46.46,0,0,1,.07.07,5.48,5.48,0,0,0,.61.56l.26.18a3.07,3.07,0,0,0,.35.24A5.79,5.79,0,0,1,32.07,45.78Zm7,.84c-.88.12-2.23.14-2.85-.48a3.28,3.28,0,0,1-.42-.5l.21,0,.46,0H37l.28,0h.07a4.66,4.66,0,0,0,.72-.11l.18,0c.2-.05.41-.12.62-.19l.2-.07A7,7,0,0,1,39.06,46.62ZM39.33,43a5.21,5.21,0,0,1-2.29.75,5.27,5.27,0,0,1-1.95-.35,2.35,2.35,0,0,1-.4-.18,3.44,3.44,0,0,1-1-.74h0a4.29,4.29,0,0,0,.55-.31L34.4,42a3.92,3.92,0,0,0,.33-.27,1.62,1.62,0,0,0,.19-.18l.27-.29.18-.22a3.71,3.71,0,0,0,.23-.32c0-.08.11-.16.16-.25s.13-.24.19-.36l.13-.26c.06-.14.12-.28.17-.42s.07-.17.1-.26.1-.34.14-.52l.06-.2h0l.49,0a2.74,2.74,0,0,1,.48,0,6.48,6.48,0,0,1,1.79.69A17.8,17.8,0,0,1,42,41.09,16.88,16.88,0,0,1,39.33,43Z"/></svg>