<svg id="Gradient" xmlns="http://www.w3.org/2000/svg" xmlns:xlink="http://www.w3.org/1999/xlink" viewBox="0 0 64 64"><defs><style>.cls-1{fill:url(#linear-gradient);}</style><linearGradient id="linear-gradient" x1="-167.79" y1="242.68" x2="249.88" y2="-175" gradientUnits="userSpaceOnUse"><stop offset="0" stop-color="#707de4"/><stop offset="0.5" stop-color="#00dbde"/><stop offset="1" stop-color="#8968e5"/></linearGradient></defs><path class="cls-1" d="M58,52.17H51a11.28,11.28,0,0,0,4.91-9.32,1,1,0,0,0-1-1H44.73v-4a4.52,4.52,0,0,0,1.86-3.67V25.81a2.52,2.52,0,0,0,.3-.27,3.88,3.88,0,0,0-2.74-6.62h-11v-.7A6.28,6.28,0,0,0,38.41,12c0-3.22-5-8.77-5.54-9.4a1,1,0,0,0-1.48,0c-.57.63-5.54,6.18-5.54,9.4a6.28,6.28,0,0,0,5.28,6.19v.7h-11a3.87,3.87,0,0,0-.57,7.7V41.85H9.13a1,1,0,0,0-1,1A11.3,11.3,0,0,0,13,52.17H6a1,1,0,0,0-1,1,8.53,8.53,0,0,0,8.52,8.52h37A8.53,8.53,0,0,0,59,53.17,1,1,0,0,0,58,52.17ZM27.85,12c0-1.62,2.38-5,4.28-7.21C34,7.06,36.41,10.4,36.41,12a4.28,4.28,0,1,1-8.56,0Zm16.7,40.14H33.06a.88.88,0,0,0,0-.16c0-.24.07-.48.12-.71s0-.18,0-.27c.08-.3.16-.61.26-.91a9.35,9.35,0,0,1,8.81-6.27h11.5A9.32,9.32,0,0,1,44.55,52.17ZM18.23,22.8a1.88,1.88,0,0,1,1.87-1.88h24a1.89,1.89,0,0,1,1.33,3.21,1.8,1.8,0,0,1-.37.28,1,1,0,0,0-.52.87v8.91a2.53,2.53,0,0,1-1.34,2.24,2.43,2.43,0,0,1-1.19.31,2.55,2.55,0,0,1-2.54-2.55V25.67a1,1,0,0,0-1-1h-1a1,1,0,0,0-1,1v4.88a1.76,1.76,0,1,1-3.51,0V25.67a1,1,0,0,0-1-1H20.1A1.87,1.87,0,0,1,18.23,22.8Zm3.3,3.87H31v3.88a3.75,3.75,0,0,0,6.52,2.54v1.1a4.55,4.55,0,0,0,4.54,4.55,4.46,4.46,0,0,0,.63-.05h0v3.17h-.41c-.29,0-.57,0-.86,0l-.29,0-.56.07-.34.06-.5.1-.35.09-.46.13-.35.12-.44.16-.35.15L37.4,43l-.34.17-.4.22-.32.2c-.13.08-.26.16-.38.25l-.31.21c-.13.09-.25.19-.37.29l-.29.23-.35.31-.27.25-.33.36-.24.25-.35.42-.18.23q-.26.33-.48.69l-.09.15c-.12.19-.23.38-.34.58l-.15.29-.21.42a4.66,4.66,0,0,0-.22-.45l-.13-.26c-.13-.24-.26-.47-.41-.7l0,0q-.22-.36-.48-.69l-.16-.2-.37-.45L30,45.49l-.36-.37-.25-.24c-.12-.11-.24-.22-.37-.32l-.27-.23L28.36,44l-.3-.21-.39-.26-.32-.19-.41-.22L26.61,43l-.43-.19-.34-.15-.44-.16-.35-.12-.47-.13-.34-.09-.51-.1L23.4,42l-.57-.07-.28,0c-.29,0-.58,0-.87,0h-.15ZM10.19,43.85H21.68A9.15,9.15,0,0,1,30.75,51l.06.27c.05.23.08.47.11.7a1.11,1.11,0,0,1,0,.17H19.45A9.32,9.32,0,0,1,10.19,43.85ZM50.52,59.69h-37A6.51,6.51,0,0,1,7,54.17H57A6.51,6.51,0,0,1,50.52,59.69Z"/></svg>