<svg id="Gradient" xmlns="http://www.w3.org/2000/svg" xmlns:xlink="http://www.w3.org/1999/xlink" viewBox="0 0 64 64"><defs><style>.cls-1{fill:url(#linear-gradient);}</style><linearGradient id="linear-gradient" x1="-222.61" y1="294.07" x2="195.07" y2="-123.61" gradientUnits="userSpaceOnUse"><stop offset="0" stop-color="#707de4"/><stop offset="0.5" stop-color="#00dbde"/><stop offset="1" stop-color="#8968e5"/></linearGradient></defs><path class="cls-1" d="M52.92,39.56a8.35,8.35,0,0,0,1-3.23h0a8.32,8.32,0,0,0-7.17-8.92,5.42,5.42,0,0,0,2.08-4c0-2.63-2.42-5-6.55-6.52a15,15,0,0,0,1.35-2.18c.8-1.49.6-3.36-.54-5.26A12.6,12.6,0,0,0,32.67,3.68c-7.08,0-12.62,3.54-12.62,8.05a6.42,6.42,0,0,0,2.5,4.85c-4.63,1.48-7.43,4-7.43,6.83a4.5,4.5,0,0,0,.55,2.09,8.28,8.28,0,0,0-3.38,13.58C6,41.33,2.41,44.6,2.41,48.19,2.41,55,15.39,60.3,32,60.3H38.2c12.45,0,20.66-.76,23.28-11.9h0C62.23,45.23,59.12,42,52.92,39.56ZM32.67,5.68a10.67,10.67,0,0,1,8.67,4.8,3.47,3.47,0,0,1,.49,3.29h0a8.49,8.49,0,0,1-2,2.8c-1.26,1-3.13,1.21-7.13,1.21l-1,0a14.76,14.76,0,0,1-6.26-1.66c-2.13-1.15-3.34-2.74-3.34-4.37C22.05,8.45,26.91,5.68,32.67,5.68ZM24.77,18l.29.14.4.18.5.21.41.16.54.18.43.14.57.15.43.11.61.12.43.08.66.1.42.05c.24,0,.48.05.73.06s.24,0,.36,0c.37,0,.74,0,1.12,0h1.76l.86,0,.47,0,.67,0,.49-.06.56-.07.47-.08.49-.1.44-.12.43-.14.41-.17.39-.19.37-.21.15-.09c3.81,1.19,6.16,3.07,6.16,5,0,1.36-1.21,2.72-3.41,3.86A26.21,26.21,0,0,1,32,29.59a33.39,33.39,0,0,1-3.35-.17q-1-.11-2-.27l-.33-.06c-3.69-.66-6.74-2-8.25-3.62a3.08,3.08,0,0,1-.93-2.06C17.12,21.28,20.18,19.14,24.77,18ZM12,32.86a6.27,6.27,0,0,1,5-5.64l.08.06.26.23.33.27a3.15,3.15,0,0,0,.29.22l.36.25.33.21.39.24.36.2.43.22.38.18.46.21.41.17.48.19L22,30l.51.17.45.14.54.16.48.12.56.14.49.11.6.12.49.1.62.1.5.07.66.08.49.06.71.06.47,0,.8.05.41,0,1.22,0c.58,0,1.15,0,1.72,0l.57-.05c.38,0,.75,0,1.13-.08l.64-.08c.34,0,.68-.07,1-.12l.66-.12.93-.16.65-.15c.3-.07.59-.13.87-.21s.43-.12.64-.18l.8-.24.62-.22.72-.27.59-.26c.17-.08.36-.15.52-.24l2.1.18a6.32,6.32,0,0,1,5.76,6.81,6.25,6.25,0,0,1-1.26,3.29,6.34,6.34,0,0,1-5,2.5l-.56,0a.91.91,0,0,0-.23,0,63.57,63.57,0,0,1-19.44-.2c-8.6-1.56-9.53-2.29-10.13-2.78L15,38.75l-.15-.11h0A6.32,6.32,0,0,1,12,32.86ZM59.54,48C57.08,58.41,48.86,58.37,35.26,58.31H32c-16.48,0-27.55-5.23-27.55-10.11,0-2.84,3.6-5.66,9.67-7.61l0,0,.11.09.08.06.11.08.1.06.11.08.13.07.13.08.15.08.16.07.17.08.19.09.22.08.22.09.26.09.27.09.31.1.3.09.37.11.35.1.45.11.39.1.52.13.46.1.59.14.51.11.7.14.56.12.85.17.57.11,1.59.29c.84.15,1.67.27,2.49.38l.59.08c.8.09,1.59.18,2.37.24h.24c.72.06,1.42.1,2.12.12l.52,0,2.12,0h.09l1.18,0H37c.89,0,1.72-.05,2.49-.1h.17l1.09-.07h.13l1-.08h0l.88-.09h.12l.73-.09h0l.61-.08h.05l.44-.07h.06l.27,0a8,8,0,0,0,1,0l.31,0c.22,0,.45,0,.67-.08l.34-.08c.21,0,.41-.09.62-.15l.33-.11.6-.23.3-.14.6-.31.27-.17.56-.38.25-.19c.17-.14.33-.29.49-.45a2.83,2.83,0,0,0,.25-.24.68.68,0,0,0,.12-.12C57.06,43.29,60,45.84,59.54,48ZM39.05,12.73a1,1,0,0,1-1-.72,5.38,5.38,0,0,0-4.34-3.44,1,1,0,0,1,.36-2A7.35,7.35,0,0,1,40,11.46a1,1,0,0,1-.69,1.24A1.24,1.24,0,0,1,39.05,12.73Zm6.33,43.73a23.1,23.1,0,0,1-4.66-.5,1,1,0,0,1,.39-2c8.8,1.78,11.45-2.08,11.56-2.24a1,1,0,0,1,1.38-.3,1,1,0,0,1,.31,1.37C54.25,53,52,56.46,45.38,56.46Z"/></svg>