<svg id="Gradient" xmlns="http://www.w3.org/2000/svg" xmlns:xlink="http://www.w3.org/1999/xlink" viewBox="0 0 64 64"><defs><style>.cls-1{fill:url(#linear-gradient);}</style><linearGradient id="linear-gradient" x1="-20.62" y1="89.03" x2="397.06" y2="-328.65" gradientUnits="userSpaceOnUse"><stop offset="0" stop-color="#707de4"/><stop offset="0.5" stop-color="#00dbde"/><stop offset="1" stop-color="#8968e5"/></linearGradient></defs><path class="cls-1" d="M54.48,32.66A8,8,0,0,0,50.05,18H48.6V16.38c0-3.73-10.35-4.72-16.47-4.72s-16.47,1-16.47,4.72V27h0v0a16.28,16.28,0,0,0,.43,3.7C6.8,32.76,1.28,36.47,1.28,40.7c0,6.53,13.5,11.64,30.72,11.64S62.72,47.23,62.72,40.7C62.72,37.6,59.82,34.78,54.48,32.66ZM50.05,20a6,6,0,0,1,4.26,10.29,6,6,0,0,1-2.75,1.56,5.68,5.68,0,0,1-1.51.2H47.81l.06-.21c.16-.52.29-1.07.41-1.64h1.89a4.19,4.19,0,0,0,3-1.22,4.13,4.13,0,0,0,1.22-3,4.18,4.18,0,0,0-4.18-4.18H48.6V20ZM46.6,18.85v5.66c-3.31-1.73-10-2.26-14.47-2.26S21,22.78,17.66,24.51V18.85l.05,0a6.11,6.11,0,0,0,.58.27l.12.05.54.21.18.07.7.22.09,0,.66.18.23.05.73.17.06,0,.81.16.25,0c.23.05.47.09.71.12l.15,0,.85.12.25,0,.71.09.2,0,.86.09.23,0,.7.05.23,0,.85.06h.19l.7,0h.23l.83,0h3.56l.83,0H35l.7,0h.19l.85-.06.23,0,.7-.05.23,0,.87-.09.2,0,.7-.09.25,0,.85-.12.15,0c.24,0,.48-.07.71-.12l.25,0,.81-.16.07,0,.72-.16.23-.06.66-.18.1,0,.69-.22.18-.07.54-.21.12-.05a6.11,6.11,0,0,0,.58-.27ZM13.36,40.18a6,6,0,0,1,2,1.31,2.59,2.59,0,0,1,.31.35l.05,0a5.55,5.55,0,0,1,.45.63,3.92,3.92,0,0,1,.29.53c-2-1.57-2.47-1.61-2.69-1.63a1,1,0,0,0-.31,2,14.64,14.64,0,0,1,1.73,1.21H14a5.79,5.79,0,0,1-5.72-4.81h3A5.61,5.61,0,0,1,13.36,40.18Zm16.2-6.39H26.42a11.64,11.64,0,0,0-1.45.1l-.22,0a12,12,0,0,0-1.33.27l-.26.07c-.43.13-.86.27-1.28.44l-.21.1a11,11,0,0,0-1.19.6l-.06,0c-.13-.19-.28-.36-.41-.56-.23-.36-.44-.73-.64-1.1a13.46,13.46,0,0,1-.76-1.64q-.18-.48-.33-1h0a12.23,12.23,0,0,1-.37-1.59c3.38,1.63,9.87,2.14,14.22,2.14S43,31.19,46.36,29.56a15.26,15.26,0,0,1-.4,1.65,12.61,12.61,0,0,1-.52,1.41,13.13,13.13,0,0,1-1.22,2.25,14.38,14.38,0,0,1-12.09,6.55,15.11,15.11,0,0,1-1.51-.09l-.41,0c-.41-.05-.82-.13-1.23-.22l-.2,0c.06-.09.11-.19.16-.28s.11-.19.16-.28.22-.41.32-.62l.1-.21c.12-.28.24-.56.34-.85,0-.07,0-.13.07-.19l.21-.7c0-.1.05-.2.07-.3s.1-.41.14-.61,0-.22,0-.33.07-.42.09-.64l0-.29c0-.31,0-.62,0-.93A1,1,0,0,0,29.56,33.79Zm-10.79,2.8h0c-.26.22-.49.44-.72.66s-.32.34-.48.51-.32.37-.5.6l-.32.44q-.27.38-.51.78h0l0,0L16,39.36c-.12-.09-.24-.19-.37-.27l-.27-.17a1.18,1.18,0,0,1-.19-.11L15,38.73A8.3,8.3,0,0,1,18.77,36.59Zm.26,8a.36.36,0,0,1,0-.1c0-.19-.06-.37-.1-.55a53.29,53.29,0,0,1,4.65-3.18,1,1,0,1,0-1-1.71c-.34.21-2.72,1.7-4.32,2.92l0-.06a7.39,7.39,0,0,0-.47-.76l0-.06.09-.19.12-.21a7.15,7.15,0,0,1,.45-.71l.29-.4c.13-.17.27-.32.43-.5l.37-.4a8.27,8.27,0,0,1,.61-.56c.19-.16.4-.32.62-.48l.06-.06a9.87,9.87,0,0,1,5.66-1.78h2.09A9.59,9.59,0,0,1,26.36,41a8,8,0,0,1-.67.75,9.57,9.57,0,0,1-1.13,1,11.74,11.74,0,0,1-1.27.79,9.88,9.88,0,0,1-1.05.47l-.35.11c-.24.08-.49.17-.74.23s-.29.06-.44.09-.45.09-.68.12l-.49,0A4.36,4.36,0,0,1,19,44.58Zm8.07-1.44.37-.39.38.1.48.12.78.16.48.09.85.1.41,0c.43,0,.85.05,1.28.05l1,0,.34,0,.66-.07c.14,0,.27,0,.41-.06s.39,0,.58-.09l.44-.09.53-.12.46-.12c.16-.05.33-.09.49-.15l.47-.15.46-.17.48-.19L38.9,42l.48-.23.4-.2.48-.27.36-.21.48-.3.34-.23c.16-.11.32-.22.47-.34a3.81,3.81,0,0,0,.32-.24l.46-.37.3-.25.44-.41.28-.27.41-.42.28-.31c.13-.14.25-.29.37-.44s.19-.23.29-.35.22-.28.32-.43l.08-.1c3,1,4,2.11,4,2.79,0,1.87-6.78,4.59-17.4,4.59-1.93,0-3.81-.09-5.61-.27C26.7,43.53,26.9,43.33,27.1,43.14Zm5-13.44c-9,0-14.19-1.78-14.47-2.71h0c.27-.95,5.47-2.73,14.47-2.73S46.29,26,46.6,27C46.29,27.93,41.1,29.7,32.13,29.7ZM48.6,27V23.81h1.57A2.18,2.18,0,0,1,52.35,26a2.15,2.15,0,0,1-.62,1.53,2.25,2.25,0,0,1-1.56.64H48.56v0c0-.39,0-.76,0-1.14v0ZM32.13,13.66c9,0,14.15,1.76,14.47,2.72a.47.47,0,0,1-.06.09l0,.09a1.31,1.31,0,0,1-.12.11l-.11.1-.17.11-.16.1-.23.11a1.51,1.51,0,0,1-.22.11l-.27.12-.29.11-.33.12-.33.11-.41.12-.35.1L43,18l-.39.1-.54.11-.44.09-.63.11-.44.08-.75.11-.42.06-.73.09-.54.06-.72.06c-.21,0-.42.05-.64.06s-.63,0-1,.06-.33,0-.51,0c-.45,0-.91,0-1.39.06h-.16c-.53,0-1.08,0-1.64,0s-1.11,0-1.65,0c-8-.2-12.56-1.81-12.82-2.69C18,15.43,23.14,13.66,32.13,13.66ZM32,50.34c-17.18,0-28.72-5-28.72-9.64,0-3.16,5.22-6.3,13.38-8.09l0,.08c.19.5.41,1,.64,1.48l.17.33c.06.12.14.23.2.35-2.42.88-4,1.94-4.62,3.16a7.65,7.65,0,0,0-1.8-.22H7.17a1,1,0,0,0-1,1A7.82,7.82,0,0,0,14,46.6h4.77a11.59,11.59,0,0,0,5.15-1.2,56.63,56.63,0,0,0,8.2.58c9.64,0,19.4-2.26,19.4-6.59,0-1.79-1.71-3.34-4.94-4.52h0c.06-.12.12-.24.19-.36s.17-.32.25-.49h3A7.93,7.93,0,0,0,51,34l.33-.06c.15,0,.3,0,.45-.08,5.58,1.85,8.91,4.41,8.91,6.89C60.72,45.36,49.18,50.34,32,50.34Z"/></svg>