<svg id="Gradient" xmlns="http://www.w3.org/2000/svg" xmlns:xlink="http://www.w3.org/1999/xlink" viewBox="0 0 64 64"><defs><style>.cls-1{fill:url(#linear-gradient);}</style><linearGradient id="linear-gradient" x1="-76.88" y1="137.98" x2="340.8" y2="-279.7" gradientUnits="userSpaceOnUse"><stop offset="0" stop-color="#707de4"/><stop offset="0.5" stop-color="#00dbde"/><stop offset="1" stop-color="#8968e5"/></linearGradient></defs><path class="cls-1" d="M23,42.26a4.11,4.11,0,1,0,4.11,4.11A4.12,4.12,0,0,0,23,42.26Zm0,6.22a2.11,2.11,0,1,1,2.11-2.11A2.11,2.11,0,0,1,23,48.48Zm18.45-6.22a4.11,4.11,0,1,0,4.11,4.11A4.12,4.12,0,0,0,41.46,42.26Zm0,6.22a2.11,2.11,0,1,1,2.11-2.11A2.11,2.11,0,0,1,41.46,48.48Zm-9.22-6.22a4.11,4.11,0,1,0,4.11,4.11A4.12,4.12,0,0,0,32.24,42.26Zm0,6.22a2.11,2.11,0,1,1,2.11-2.11A2.1,2.1,0,0,1,32.24,48.48Zm18.43-3.34c0-3.71-2.08-7.16-5.77-9.66a3.94,3.94,0,0,0,2-3.17c0-2.59-3.24-4.39-7.48-5.34l.51-1.89A2.84,2.84,0,0,0,42.4,23L46.53,7.53,47.22,5h0a2.07,2.07,0,0,0-1.47-2.52L44.22,2a2.06,2.06,0,0,0-2.53,1.46L41,6.05,36.87,21.52a2.86,2.86,0,0,0,.29,2.16,2.92,2.92,0,0,0,.82.89l-.54,2a35.1,35.1,0,0,0-4.28-.37v-.89A2.84,2.84,0,0,0,35,22.68V4A2.07,2.07,0,0,0,32.94,2H31.37A2.07,2.07,0,0,0,29.3,4V22.68a2.85,2.85,0,0,0,1.86,2.66v.89a34.83,34.83,0,0,0-4.51.41L26,24.38a2.74,2.74,0,0,0,.78-.91A2.79,2.79,0,0,0,27,21.3L22.36,6,21.6,3.41h0A2.07,2.07,0,0,0,19,2l-1.51.45a2.07,2.07,0,0,0-1.22,1,2,2,0,0,0-.17,1.58l.77,2.55L21.5,22.94a2.86,2.86,0,0,0,2.55,2L24.67,27c-4.12,1-7.25,2.75-7.25,5.29a3.87,3.87,0,0,0,1.85,3.07c-3.79,2.5-5.94,6-5.94,9.76,0,3.93,2.46,7.68,6.62,10.18a3,3,0,0,0-.25,1.17c0,3.61,6.46,5.56,12.54,5.56s12.53-1.95,12.53-5.56a3.07,3.07,0,0,0-.36-1.4C48.4,52.58,50.67,49,50.67,45.14ZM45.23,4.36s.06,0,.05.07L44.85,6l-1.63-.43L43.71,4ZM38.81,22l3.87-14.5L44.34,8,40.46,22.47a.84.84,0,0,1-.4.52.8.8,0,0,1-.64.09h0a.89.89,0,0,1-.53-.4A.87.87,0,0,1,38.81,22ZM19.6,4h0a.08.08,0,0,1,.06,0l.48,1.59-.42.13-1.2.36-.45-1.66Zm3.82,18.42L19.09,8l.83-.24.82-.25,4.32,14.37a.86.86,0,0,1-.07.65.82.82,0,0,1-.5.41h0A.85.85,0,0,1,23.42,22.37Zm13.51,6.16-.25.94a32.81,32.81,0,0,0-3.52-.29v-.95A32.58,32.58,0,0,1,36.93,28.53Zm-1.27,4.74c-.79.09-1.63.15-2.5.17V31.19c1.13,0,2.14.11,3,.22Zm2.47-1.49a7.5,7.5,0,0,1,1.5.52,6.21,6.21,0,0,1-1.39.52l-.41.1Zm-9.49,1.49-.55-1.84a27.83,27.83,0,0,1,3.07-.24v2.25C30.28,33.42,29.43,33.36,28.64,33.27ZM26.11,31.8l.33,1.1L26,32.79a5.71,5.71,0,0,1-1.27-.49A7.06,7.06,0,0,1,26.11,31.8Zm5.19-9.12v-15H33v15a.85.85,0,0,1-.85.85h0A.85.85,0,0,1,31.3,22.68ZM31.37,4h1.57A.07.07,0,0,1,33,4V5.67H31.32Zm-.21,24.28v.95a33.34,33.34,0,0,0-3.66.31l-.28-.93A32.81,32.81,0,0,1,31.16,28.23Zm-5.91.69.28,1c-1.71.46-3.07,1.21-3.07,2.43,0,1.57,2.23,2.2,3,2.4a27,27,0,0,0,6.74.75,33.32,33.32,0,0,0,4.28-.28h0l.15,0a18.32,18.32,0,0,0,2.15-.41c1.33-.36,3.1-1,3.1-2.44,0-1.26-1.43-2-3.2-2.46l.25-1c3.81.84,6,2.28,6,3.43,0,.72-.86,1.54-2.37,2.25l-.73.32a28,28,0,0,1-9.63,1.54,27.13,27.13,0,0,1-9.86-1.63,5.89,5.89,0,0,1-.67-.3c-1.4-.7-2.21-1.49-2.21-2.18C19.42,31.18,21.54,29.76,25.25,28.92Zm7,31.13c-6.44,0-10.54-2.11-10.54-3.56a.78.78,0,0,1,0-.22l.22.09.52.23.71.29.55.2.73.25.57.17.75.2.58.14.8.16.57.11.85.12.55.07c.32,0,.64.06,1,.08l.46,0c.48,0,1,0,1.45,0s1,0,1.51,0l.5,0c.32,0,.65-.05,1-.09l.6-.08.85-.13c.21,0,.42-.08.62-.12s.53-.1.8-.17.41-.1.62-.15l.75-.21.62-.2.71-.25.6-.23.69-.3.57-.25.26-.13a.92.92,0,0,1,.1.42C42.77,57.94,38.67,60.05,32.24,60.05Zm10.23-6.13A21.6,21.6,0,0,1,32,56.46c-.47,0-.93,0-1.38,0s-1.09-.08-1.63-.15a20.71,20.71,0,0,1-7.17-2.19c-4.12-2.17-6.49-5.43-6.49-8.94,0-3.34,2.14-6.46,5.9-8.63l.32.14a29.41,29.41,0,0,0,10.61,1.77,29.39,29.39,0,0,0,10.38-1.69l.36-.15c3.68,2.16,5.77,5.26,5.77,8.56S46.41,51.75,42.47,53.92Z"/></svg>