<svg id="Gradient" xmlns="http://www.w3.org/2000/svg" xmlns:xlink="http://www.w3.org/1999/xlink" viewBox="0 0 64 64"><defs><style>.cls-1{fill:url(#linear-gradient);}</style><linearGradient id="linear-gradient" x1="-126.46" y1="197.19" x2="291.22" y2="-220.49" gradientUnits="userSpaceOnUse"><stop offset="0" stop-color="#707de4"/><stop offset="0.5" stop-color="#00dbde"/><stop offset="1" stop-color="#8968e5"/></linearGradient></defs><path class="cls-1" d="M55.19,16.72h-3V8a6.61,6.61,0,0,0-6.6-6.6h-.2A6.61,6.61,0,0,0,38.74,8v8.74H35.69a1,1,0,0,0-1,1v6.76a1,1,0,0,0,1,1h4.83V54.33a10,10,0,0,0,1.65,5.53l1,1.44a1,1,0,0,0,.83.45h2.95a1,1,0,0,0,.83-.45l1-1.44a10,10,0,0,0,1.66-5.53V25.48h4.83a1,1,0,0,0,1-1V17.72A1,1,0,0,0,55.19,16.72ZM48.36,54.33A8,8,0,0,1,47,58.75l-.67,1H44.5l-.66-1a8,8,0,0,1-1.32-4.42V25.48h5.84ZM40.74,8a4.6,4.6,0,0,1,4.6-4.6h.2A4.6,4.6,0,0,1,50.14,8v8.74h-9.4Zm13.45,15.5H36.69V18.72h2.85a.71.71,0,0,0,.2,0h11.4a.71.71,0,0,0,.2,0h2.85ZM32.85,25a8.09,8.09,0,0,1-2.44-4.79,1.85,1.85,0,0,0,.58-1.3c0-2.35-4.52-3.18-8.4-3.18s-8.39.83-8.39,3.18a1.86,1.86,0,0,0,.57,1.29,8.32,8.32,0,0,1-2.51,4.88A14.67,14.67,0,0,0,7.81,35.66V57.58a5,5,0,0,0,5,5H32.34a5,5,0,0,0,5-5V35.66A14.74,14.74,0,0,0,33.05,25.2ZM22.59,17.73c3.57,0,5.7.74,6.28,1.17a.28.28,0,0,1-.08.06c-.83.56-3.07,1.14-6.2,1.14s-5.37-.58-6.23-1.17l0,0C16.9,18.47,19,17.73,22.59,17.73ZM35.38,57.58a3,3,0,0,1-3,3H12.85a3,3,0,0,1-3-3V35.66a12.65,12.65,0,0,1,3.85-9.15,10.55,10.55,0,0,0,3-5.25l.66.2.18.05q.32.09.63.15l.27.06.74.13.15,0,.95.11.27,0,.76,0h.3q.53,0,1.05,0t1.05,0h.3l.76,0L25,22c.32,0,.64-.06.94-.11l.18,0,.7-.13.31-.06.53-.13.28-.07a6,6,0,0,0,.64-.2,10.12,10.12,0,0,0,2.9,5.17l.18.18a12.74,12.74,0,0,1,3.75,9ZM30.25,37.07a8.23,8.23,0,0,0-2.46.4c-.4-3.87-3.94-6.79-4.1-6.92a1,1,0,0,0-1.26,0c-.16.12-3.71,3.05-4.1,6.92a8.29,8.29,0,0,0-2.47-.4,1,1,0,0,0-1,1v3a8.2,8.2,0,0,0,16.39,0v-3A1,1,0,0,0,30.25,37.07Zm-7.19-4.38c1,1,2.77,3.11,2.77,5.48v.21l-.21.15c-.14.09-.28.2-.41.3l-.4.33-.37.36c-.12.12-.24.25-.35.38l-.32.39q-.16.21-.3.42c-.1.14-.18.29-.27.43s-.1.15-.14.22l-.13-.21c-.09-.15-.18-.3-.28-.44s-.19-.28-.29-.41L22,39.89l-.34-.37-.38-.36-.4-.33c-.13-.1-.27-.21-.42-.31s-.13-.1-.2-.15v-.2C20.29,35.8,22.08,33.68,23.06,32.69ZM16.86,41V39.15a6.22,6.22,0,0,1,2,.7A6.14,6.14,0,0,1,22,45c0,.06,0,.11,0,.17v1.94A6.21,6.21,0,0,1,16.86,41Zm12.39,0a6.2,6.2,0,0,1-5.19,6.11V45.2a.88.88,0,0,0,0-.17,7,7,0,0,1,.08-.8,6.19,6.19,0,0,1,2.43-3.95,5.87,5.87,0,0,1,.67-.43h0a6.39,6.39,0,0,1,2-.69Z"/></svg>