<svg id="Gradient" xmlns="http://www.w3.org/2000/svg" xmlns:xlink="http://www.w3.org/1999/xlink" viewBox="0 0 64 64"><defs><style>.cls-1{fill:url(#linear-gradient);}</style><linearGradient id="linear-gradient" x1="-240.83" y1="313.8" x2="176.85" y2="-103.88" gradientUnits="userSpaceOnUse"><stop offset="0" stop-color="#707de4"/><stop offset="0.5" stop-color="#00dbde"/><stop offset="1" stop-color="#8968e5"/></linearGradient></defs><path class="cls-1" d="M55.59,40.74a14.6,14.6,0,0,0-3.87-7.3h0A14.73,14.73,0,0,0,42,29h0a7.81,7.81,0,0,1-6-7.63V16.26a1,1,0,0,0-1-1H29.1a1,1,0,0,0-1,1v5.09a7.82,7.82,0,0,1-6,7.63,14.68,14.68,0,0,0-9.7,4.3,1.07,1.07,0,0,0-.18.19c-.17.17-.31.35-.47.53s-.32.34-.47.53-.29.4-.44.6-.27.36-.39.55-.26.43-.39.65-.22.37-.32.56-.23.49-.34.73-.18.36-.26.55-.18.53-.27.8-.14.35-.19.53-.14.55-.2.83-.1.36-.14.55-.09.63-.14.95c0,.15,0,.3-.06.46a13.62,13.62,0,0,0-.07,1.44,15.12,15.12,0,0,0,.14,2,14.78,14.78,0,0,0,2,5.68h0a14.66,14.66,0,0,0,11.21,7,3.17,3.17,0,0,0-.28,1.31A3.22,3.22,0,0,0,24.38,63h15.2a3.23,3.23,0,0,0,3.23-3.22,3.13,3.13,0,0,0-.28-1.3A14.78,14.78,0,0,0,55.9,43.73a13.62,13.62,0,0,0-.07-1.44A13.16,13.16,0,0,0,55.59,40.74ZM22.3,31l.16,0H41.78a12.69,12.69,0,0,1,6.47,2.17H15.7A12.55,12.55,0,0,1,22.3,31Zm7.8-9.63V17.26H34v4.09A9.85,9.85,0,0,0,37.56,29h-11A9.83,9.83,0,0,0,30.1,21.35ZM39.58,61H24.38a1.23,1.23,0,0,1,0-2.45h15.2a1.23,1.23,0,1,1,0,2.45Zm1.54-4.45H22.84A12.7,12.7,0,0,1,13,51.91H50.91c-.24.29-.49.58-.76.85A12.68,12.68,0,0,1,41.12,56.5ZM53.8,45.25a.66.66,0,0,1,0,.14,13.67,13.67,0,0,1-.27,1.42c0,.06,0,.13-.05.2A12.18,12.18,0,0,1,53,48.34a2,2,0,0,1-.08.22q-.27.64-.6,1.26a.41.41,0,0,0-.05.09H11.66l0-.09a10.48,10.48,0,0,1-.6-1.27l-.09-.22A12.13,12.13,0,0,1,10.5,47c0-.07,0-.14-.05-.21a13,13,0,0,1-.27-1.41.61.61,0,0,1,0-.14,12.76,12.76,0,0,1-.1-1.51c0-.41,0-.82.06-1.22,0-.14,0-.27,0-.41s.07-.53.12-.79.07-.31.11-.47.1-.47.17-.7l.16-.48c.07-.22.14-.44.23-.65s.14-.32.21-.48.18-.41.28-.61.17-.31.26-.46.22-.39.34-.57.2-.3.3-.45l.39-.54c.11-.14.24-.28.36-.42s.2-.23.3-.34H50.55l.3.34c.12.14.25.28.36.43s.26.35.39.53l.31.45c.12.19.22.38.33.57s.18.31.26.47.2.4.29.6L53,39c.08.21.15.43.23.65s.11.31.16.48.12.46.17.7.08.3.11.46.08.53.12.8,0,.26.05.4c0,.4.06.81.06,1.22A12.93,12.93,0,0,1,53.8,45.25Zm-21.33-9a1,1,0,0,0-.92,0c-.54.28-5.21,2.82-5.21,6.32S28.88,49,32,49s5.67-2.88,5.67-6.43S33,36.48,32.47,36.2ZM33,46.76V42.52a1,1,0,0,0-2,0v4.24a4.38,4.38,0,0,1-2.67-4.24c0-1.73,2.34-3.48,3.67-4.28,1.3.78,3.67,2.56,3.67,4.28A4.38,4.38,0,0,1,33,46.76Zm-.32-32H43.18a12.7,12.7,0,0,0,9-3.74,12.73,12.73,0,0,0,3.73-9,1,1,0,0,0-1-1H44.44A12.74,12.74,0,0,0,31.69,13.8,1,1,0,0,0,32.69,14.8ZM50.78,9.65a10.72,10.72,0,0,1-7.6,3.15H42a12.91,12.91,0,0,0,2.18-1.74,12.65,12.65,0,0,0,3.68-8h6A10.68,10.68,0,0,1,50.78,9.65ZM36.84,6.19a10.67,10.67,0,0,1,7.6-3.14h1.44a10.75,10.75,0,0,1-10.7,9.75H33.74A10.68,10.68,0,0,1,36.84,6.19Z"/></svg>