<svg id="Gradient" xmlns="http://www.w3.org/2000/svg" xmlns:xlink="http://www.w3.org/1999/xlink" viewBox="0 0 64 64"><defs><style>.cls-1{fill:url(#linear-gradient);}</style><linearGradient id="linear-gradient" x1="-181.22" y1="248.64" x2="236.46" y2="-169.03" gradientUnits="userSpaceOnUse"><stop offset="0" stop-color="#707de4"/><stop offset="0.5" stop-color="#00dbde"/><stop offset="1" stop-color="#8968e5"/></linearGradient></defs><path class="cls-1" d="M45.91,57.49a6.27,6.27,0,0,1-1.51-3v0a8.55,8.55,0,0,0-3-4.93l-1.23-1A6.8,6.8,0,0,1,38,45.33l-.31-1a2.12,2.12,0,0,0-2-1.52H32.92V41.58A4.58,4.58,0,0,0,36,39.15c2.66-.29,8.74-1.29,8.74-4.33a2.3,2.3,0,0,0-.41-1.26,3.48,3.48,0,0,1,0-2.82l0,0,.16-.17a16.92,16.92,0,1,0-25.32-.32,1.27,1.27,0,0,1,.14.17c.72,1,.18,2.89-.09,3.54v0a.14.14,0,0,0,0,.07h0a2,2,0,0,0-.16.79c0,3,6.08,4,8.75,4.33a4.58,4.58,0,0,0,3.12,2.43v1.18H28a2.12,2.12,0,0,0-2,2.72l.18.63a8.94,8.94,0,0,0,3,4.35l.81.65A6.65,6.65,0,0,1,32.49,55a8.28,8.28,0,0,0,2,4l1.89,2.08a2.13,2.13,0,0,0,1.57.7h7a2.12,2.12,0,0,0,1.58-3.54ZM36.52,37.08a4.23,4.23,0,0,0-.05-.5c0-.14,0-.28,0-.41a4,4,0,0,0-.15-.49c0-.12-.07-.25-.12-.37a2.34,2.34,0,0,0-.24-.44,2.71,2.71,0,0,0-.18-.34,3.89,3.89,0,0,0-.32-.39c-.08-.09-.15-.2-.24-.29s-.26-.21-.39-.32-.19-.17-.29-.24A5.2,5.2,0,0,0,34,33a2.48,2.48,0,0,0-.32-.17,3.65,3.65,0,0,0-.56-.18l-.23-.07v-.31a27.19,27.19,0,0,1,7.51,1.1,4.86,4.86,0,0,1,2.24,1.21.45.45,0,0,1,.11.2C42.78,35.29,41,36.51,36.52,37.08ZM17.08,19.16a14.92,14.92,0,1,1,26,10l-.22.24a.39.39,0,0,0-.08.1,3.81,3.81,0,0,0-.71,2.39c-.31-.13-.64-.26-1-.38a30.66,30.66,0,0,0-9.15-1.22,31.13,31.13,0,0,0-9,1.18,11.52,11.52,0,0,0-1.1.42l-.09,0A4.27,4.27,0,0,0,21,29.23a2.63,2.63,0,0,0-.3-.37A14.84,14.84,0,0,1,17.08,19.16Zm4,15.64,0-.08v0l0,0,0-.06,0-.06.08-.07.08-.07.11-.09.11-.08.17-.11.14-.08.24-.12.17-.09.34-.15.19-.07a5.85,5.85,0,0,1,.64-.23,28,28,0,0,1,7.43-1.07v.31l-.26.08a4.64,4.64,0,0,0-.53.16c-.13.06-.25.14-.38.21a4,4,0,0,0-.4.22,4.47,4.47,0,0,0-.35.29c-.11.09-.23.17-.33.27s-.19.23-.29.35-.19.21-.27.33-.14.26-.22.39-.15.25-.2.39-.09.28-.14.41-.1.29-.13.45,0,.28-.05.42a4.07,4.07,0,0,0-.05.49C22.88,36.51,21.05,35.29,21.06,34.8Zm8.38,3.11a2.74,2.74,0,0,1-.12-.81,2.6,2.6,0,1,1,5.2,0,2.74,2.74,0,0,1-.12.81,2.61,2.61,0,0,1-5,0ZM45.08,59.67a.11.11,0,0,1-.11.08H38l-2-2.13a6.13,6.13,0,0,1-1.55-3,8.6,8.6,0,0,0-3.21-5.07l-.82-.66a7,7,0,0,1-2.37-3.36l-.18-.62a.1.1,0,0,1,0-.11.1.1,0,0,1,.1-.05h7.63a.11.11,0,0,1,.12.09l.31,1a8.82,8.82,0,0,0,2.82,4.17l1.23,1a6.49,6.49,0,0,1,2.31,3.73v0a8.16,8.16,0,0,0,2,4l.64.72A.11.11,0,0,1,45.08,59.67ZM32,25.87a8.19,8.19,0,0,0,8.19-8.19V14.73a1,1,0,0,0-1-1,8.28,8.28,0,0,0-2.46.4c-.39-3.87-3.93-6.8-4.09-6.93a1,1,0,0,0-1.26,0c-.17.13-3.72,3.06-4.11,6.93a8.28,8.28,0,0,0-2.46-.4,1,1,0,0,0-1,1v2.95A8.19,8.19,0,0,0,32,25.87Zm6.19-8.19A6.19,6.19,0,0,1,33,23.79V21.86a.5.5,0,0,0,0-.17,7,7,0,0,1,.08-.8,6.21,6.21,0,0,1,3.11-4.39,5.92,5.92,0,0,1,2-.69ZM32,9.34c1,1,2.77,3.12,2.77,5.48V15l-.21.16c-.14.09-.27.19-.41.3l-.4.34-.37.34-.35.39-.32.39-.3.42-.27.43c0,.08-.09.14-.14.22,0-.08-.09-.15-.13-.22l-.27-.43c-.1-.15-.2-.28-.3-.42s-.21-.27-.33-.4-.23-.25-.35-.37-.24-.24-.37-.36-.26-.23-.4-.33-.27-.21-.41-.31-.13-.1-.21-.15v-.21C29.23,12.46,31,10.33,32,9.34Zm-6.19,6.47a6,6,0,0,1,2,.69h0A6.15,6.15,0,0,1,31,21.69v0a.76.76,0,0,0,0,.15v1.93a6.19,6.19,0,0,1-5.19-6.11Z"/></svg>