<svg id="Gradient" xmlns="http://www.w3.org/2000/svg" xmlns:xlink="http://www.w3.org/1999/xlink" viewBox="0 0 64 64"><defs><style>.cls-1{fill:url(#linear-gradient);}</style><linearGradient id="linear-gradient" x1="-298.64" y1="363.77" x2="119.04" y2="-53.91" gradientUnits="userSpaceOnUse"><stop offset="0" stop-color="#707de4"/><stop offset="0.5" stop-color="#00dbde"/><stop offset="1" stop-color="#8968e5"/></linearGradient></defs><path class="cls-1" d="M55.2,11.78H21.63a9.4,9.4,0,0,0-9-6.51,9.47,9.47,0,0,0-9.47,9.46V53.08c0,3.17,4.16,5.65,9.47,5.65H55.2a5.61,5.61,0,0,0,5.61-5.6V17.39A5.62,5.62,0,0,0,55.2,11.78ZM19.57,49.19l-.16-.11c-.23-.14-.48-.27-.73-.39l-.18-.08a6.65,6.65,0,0,0-.61-.27l-.31-.11L17,48.05l-.35-.1-.57-.15-.38-.08-.61-.1-.38-.06-.68-.07-.34,0c-.35,0-.7,0-1.06,0s-.72,0-1.07,0l-.33,0-.69.07-.38.06-.61.1-.38.08L8.64,48l-.36.1-.55.18-.3.11a5.63,5.63,0,0,0-.61.27l-.19.08q-.37.18-.72.39l-.16.11a4.2,4.2,0,0,0-.49.33l-.07,0V48.42c0-1.72,3.07-3.65,7.47-3.65s7.46,1.93,7.46,3.65v1.14l-.06,0A5.25,5.25,0,0,0,19.57,49.19ZM5.19,19.75a.19.19,0,0,0,0-.07,7.46,7.46,0,0,1,14.91-.3V44.92a12.47,12.47,0,0,0-7.46-2.15,12.48,12.48,0,0,0-7.47,2.15Zm16.93.93H58.81v29H22.12Zm33.08-6.9a3.61,3.61,0,0,1,3.61,3.61v1.29H22.12V14.73c0-.32,0-.64-.05-1ZM12.66,7.27a7.41,7.41,0,0,1,5.28,2.19,7.27,7.27,0,0,1,2,3.56,6.54,6.54,0,0,1,.13.75,9.43,9.43,0,0,0-14.8.05A7.48,7.48,0,0,1,12.66,7.27ZM5.19,53.08c0-1.73,3.07-3.66,7.47-3.66s7.46,1.93,7.46,3.66-3.07,3.65-7.46,3.65S5.19,54.81,5.19,53.08Zm50,3.65H19.93l0,0,.15-.11.36-.3.18-.16.28-.28.16-.18a3.15,3.15,0,0,0,.22-.29l.14-.19.18-.3a2.12,2.12,0,0,1,.11-.21c.05-.1.09-.21.13-.31s.05-.14.07-.21a2.11,2.11,0,0,0,.09-.36,1.16,1.16,0,0,0,0-.18,3.31,3.31,0,0,0,.05-.55V51.66H58.81v1.47A3.61,3.61,0,0,1,55.2,56.73Z"/></svg>