<svg id="Gradient" xmlns="http://www.w3.org/2000/svg" xmlns:xlink="http://www.w3.org/1999/xlink" viewBox="0 0 64 64"><defs><style>.cls-1{fill:url(#linear-gradient);}</style><linearGradient id="linear-gradient" x1="-348.68" y1="419.95" x2="68.99" y2="2.27" gradientUnits="userSpaceOnUse"><stop offset="0" stop-color="#707de4"/><stop offset="0.5" stop-color="#00dbde"/><stop offset="1" stop-color="#8968e5"/></linearGradient></defs><path class="cls-1" d="M50.93,47.49a4.77,4.77,0,0,0-4.2-.89l-2,.55-1.6-3.1V42.22l1.81,1.24a2.47,2.47,0,0,0,3.87-2V37.11h0a1,1,0,0,0,0-.17s0-.08,0-.12h0L45.13,25.43a9.47,9.47,0,0,0-7.81-7.09,8.25,8.25,0,1,0-10.63,0A9.15,9.15,0,0,0,19.39,24a7.39,7.39,0,0,0-.32.78l-4.1,12h0a.68.68,0,0,0,0,.14.8.8,0,0,0,0,.15v4.34a2.46,2.46,0,0,0,3.87,2L20.88,42v1.81L19,47.56l-1.46-.5a2.66,2.66,0,0,0-.44-.1,4,4,0,0,0-1-.14c-3.05,0-5.53,3-5.53,6.68s2.49,6.69,5.55,6.69H47.94c3.06,0,5.56-3,5.56-6.69v-.36A7.09,7.09,0,0,0,50.93,47.49Zm-4.4-5.65a.46.46,0,0,1-.49,0l-3.36-2.3,0,0-9.81-6.72v-4l1.9,3.65a1,1,0,0,0,.49.46l11.54,4.92v3.65A.45.45,0,0,1,46.53,41.84ZM25.75,12.05a6.25,6.25,0,1,1,6.42,6.24h-.35A6.25,6.25,0,0,1,25.75,12.05ZM21,25.45c.08-.21.16-.41.26-.62a7.07,7.07,0,0,1,6.31-4.54h8.94c3,0,5.75,2.29,6.75,5.72l3,9.33-9.81-4.19-3.62-7-.06-.08L32.59,24l0,0-.11-.1a.57.57,0,0,0-.13-.08l-.16-.07-.08,0h-.48l-.08,0-.16.07a.51.51,0,0,0-.13.09l-.11.09,0,0L31,24.1l-.06.08-3.62,7-9.75,4.16ZM17.66,41.81a.46.46,0,0,1-.49,0,.47.47,0,0,1-.25-.41V37.77l11.54-4.92a1,1,0,0,0,.5-.46l1.89-3.65v4L21.32,39.3h0Zm5.11,2.73a.92.92,0,0,0,.11-.46V40.66l8.81-6,.16-.11.61.42,8.64,5.92v3.44a.92.92,0,0,0,.11.46l1.54,3-9.47,3L29.52,52l-7.3-3.09-1.37-.58ZM16.05,58.19c-2,0-3.55-2.1-3.55-4.69s1.58-4.68,3.53-4.68a1.9,1.9,0,0,1,.58.09.58.58,0,0,0,.19,0l2.27.76h0L26.79,53s-.05.06-.08.08a3.92,3.92,0,0,0-.45.46c0,.05-.09.1-.13.16a4.54,4.54,0,0,0-.41.68.42.42,0,0,1,0,.1,4.78,4.78,0,0,0-.23.7c0,.07,0,.14,0,.22a4.14,4.14,0,0,0-.1.87,5.36,5.36,0,0,0,.06.71l0,.17a4.81,4.81,0,0,0,.18.65s0,0,0,0,.1.26.15.37ZM51.5,53.5c0,2.59-1.6,4.69-3.56,4.69H28.7c-.74,0-1.39-.91-1.39-1.95a1.93,1.93,0,0,1,1.14-1.92L29.72,54h.05l7.29-2.33,7.38-2.35,2.63-.71.17,0a2.53,2.53,0,0,1,.71-.1,2.93,2.93,0,0,1,1.76.64,5.08,5.08,0,0,1,1.79,4.06Z"/></svg>