<svg id="Gradient" xmlns="http://www.w3.org/2000/svg" xmlns:xlink="http://www.w3.org/1999/xlink" viewBox="0 0 64 64"><defs><style>.cls-1{fill:url(#linear-gradient);}</style><linearGradient id="linear-gradient" x1="-145.21" y1="219.21" x2="272.47" y2="-198.47" gradientUnits="userSpaceOnUse"><stop offset="0" stop-color="#707de4"/><stop offset="0.5" stop-color="#00dbde"/><stop offset="1" stop-color="#8968e5"/></linearGradient></defs><path class="cls-1" d="M31.73,19a7.93,7.93,0,1,0-7.93-7.93A7.93,7.93,0,0,0,31.73,19Zm0-13.86a5.93,5.93,0,1,1-5.93,5.93A5.93,5.93,0,0,1,31.73,5.18ZM61.48,59.55l-.1-.34a7.79,7.79,0,0,0-1.55-2.45,9.85,9.85,0,0,1-.79-1c-.2-.35-.36-.65-.5-.93a6,6,0,0,0-2.18-2.62L42,42.24a3.38,3.38,0,0,1-1.44-3L41,31.1A3.36,3.36,0,0,1,44,28l14.38-1.81A2.21,2.21,0,0,0,60.28,24v-.19a2.21,2.21,0,0,0-2-2.2l-26.44-2h-.16L5.21,21.78a2.21,2.21,0,0,0-.1,4.39L19.17,28a3.39,3.39,0,0,1,2.93,3.12l.38,6a3.35,3.35,0,0,1-3.35,3.58H13c-3.64,0-5,3.15-5.79,5.55L4.48,55.65,3,57.17A1.94,1.94,0,0,0,4.7,60.43l5.8-.82a1,1,0,0,0,.78-.6l4.08-9.57,16.18-1.13L52.83,58.42a3,3,0,0,1,1.54,1.73,1,1,0,0,0,1,.67h5.2a1,1,0,0,0,1-1.27ZM56,58.82a5,5,0,0,0-2.29-2.2L32.16,46.39a1,1,0,0,0-.5-.1l-17,1.2a1,1,0,0,0-.85.6l-4.1,9.62-5.07.72L6.1,56.86a1.14,1.14,0,0,0,.24-.41l2.8-9.67c.91-2.89,2.07-4.12,3.88-4.12h6.11A5.36,5.36,0,0,0,24.48,37l-.39-6a5.37,5.37,0,0,0-4.67-5L5.36,24.19A.22.22,0,0,1,5.18,24a.21.21,0,0,1,.19-.21l26.36-2.14,26.36,1.95a.21.21,0,0,1,.19.21V24a.2.2,0,0,1-.18.2L43.72,26A5.38,5.38,0,0,0,39,31l-.52,8.16a5.41,5.41,0,0,0,2.31,4.76L55.22,53.8a4.11,4.11,0,0,1,1.54,1.89c.16.31.33.64.55,1a11,11,0,0,0,1,1.3c.2.25.43.53.63.81Z"/></svg>