<svg id="Gradient" xmlns="http://www.w3.org/2000/svg" xmlns:xlink="http://www.w3.org/1999/xlink" viewBox="0 0 64 64"><defs><style>.cls-1{fill:url(#linear-gradient);}</style><linearGradient id="linear-gradient" x1="-205.2" y1="264.43" x2="212.48" y2="-153.25" gradientUnits="userSpaceOnUse"><stop offset="0" stop-color="#707de4"/><stop offset="0.5" stop-color="#00dbde"/><stop offset="1" stop-color="#8968e5"/></linearGradient></defs><path class="cls-1" d="M24.9,13.23A6.13,6.13,0,1,0,31,7.1,6.14,6.14,0,0,0,24.9,13.23ZM31,9.1a4.13,4.13,0,1,1-4.13,4.13A4.13,4.13,0,0,1,31,9.1ZM49,39.35h0c-.39-4.41-7-6.61-9.45-7.27v-6.5c1.42-1.35,6.8-6.8,6.94-11.59C46.64,8.56,36,2.52,34.54,1.7a1.32,1.32,0,0,0-1.74,2l.13.13c1.83,1.46,6.55,6,6.48,9.36S35.7,19,34.78,19.5L26,19.3c-.77-.56-3.38-2.66-3.38-5.64s4.5-8.24,6.23-10A.65.65,0,0,0,29,3.44a1.32,1.32,0,0,0-1.87-1.76C25.9,2.25,15,7.46,15,13.66c0,5.52,5.46,11,6.93,12.4a99.51,99.51,0,0,0,.47,14.39C23,44.94,24.29,53,26.07,57.93l-3.35,2.84a1,1,0,0,0,.65,1.76h6.22a1.37,1.37,0,0,0,1-.45c1.78-1.92,1-16.43.47-23.66,2.73,0,6.6.4,7.87,1.6a.91.91,0,0,1,.35.71c0,1.35-2.91,3.42-4.86,4.79-.49.35-1,.68-1.37,1a1.67,1.67,0,0,0-.63,1.82l0,6.31a1,1,0,0,0,.68,1,1,1,0,0,0,1.12-.35l3.53-4.73C42.85,49.23,49.44,44.5,49,39.35Zm-12.06,9.3a1,1,0,0,0-.59.37l-1.94,2.6V48.16a1,1,0,0,0,0-.17l1.16-.83c2.7-1.9,5.75-4.06,5.71-6.46a2.94,2.94,0,0,0-1-2.14c-2.52-2.38-9.57-2.15-10.36-2.12a1,1,0,0,0-.71.34,1,1,0,0,0-.25.74c.75,9.93,1,20.94.22,23H26.09L27.9,59a1,1,0,0,0,.28-1.13c-1.83-4.65-3.18-13.08-3.82-17.7a103,103,0,0,1-.43-14.5,1,1,0,0,0-.34-.79C23.52,24.82,17,19,17,13.66c0-3.15,4.37-6.46,7.89-8.53-1.94,2.41-4.26,5.85-4.26,8.53,0,4.59,4.35,7.36,4.53,7.48a.92.92,0,0,0,.51.15L35,21.5a.84.84,0,0,0,.49-.11c.23-.13,5.8-3.08,5.91-8.21.05-2.2-1.27-4.52-2.8-6.47,3.15,2.35,5.94,5.14,5.88,7.21-.13,4.55-6.55,10.41-6.61,10.47a1,1,0,0,0-.33.74v7.72a1,1,0,0,0,.78,1c2.32.52,8.4,2.58,8.68,5.69C47.33,43.27,41.76,47.58,36.94,48.65Z"/></svg>