<svg id="Gradient" xmlns="http://www.w3.org/2000/svg" xmlns:xlink="http://www.w3.org/1999/xlink" viewBox="0 0 64 64"><defs><style>.cls-1{fill:url(#linear-gradient);}</style><linearGradient id="linear-gradient" x1="-252.39" y1="326.02" x2="165.29" y2="-91.65" gradientUnits="userSpaceOnUse"><stop offset="0" stop-color="#707de4"/><stop offset="0.5" stop-color="#00dbde"/><stop offset="1" stop-color="#8968e5"/></linearGradient></defs><path class="cls-1" d="M32.87,42.23V41.1a3.21,3.21,0,0,0,2.21-3V9.36a2.53,2.53,0,0,0-2.53-2.53H31.18a2.54,2.54,0,0,0-2.53,2.53v28.7a3.19,3.19,0,0,0,2.22,3v1.14C19.38,42.38,8.13,44.84,8,49.4v.07a3,3,0,0,0,.52,1.63l1.63,4.57c.36,4,11.49,5.79,21.85,5.79s21.32-1.79,21.82-5.7l1.93-5.15h0A2.55,2.55,0,0,0,56,49.47C56,44.83,44.5,42.34,32.87,42.23ZM30.65,9.36a.53.53,0,0,1,.53-.53h1.37a.53.53,0,0,1,.53.53v2.05H30.65Zm0,4.05h2.43V38.06a1.21,1.21,0,0,1-1.2,1.21h0a1.22,1.22,0,0,1-1.21-1.21Zm.22,30.83v.93H30a1,1,0,0,0-1,1v.64a3.51,3.51,0,0,1-.05.59,3.23,3.23,0,0,1-1.63,2.23,1,1,0,0,0,.94,1.76,5.15,5.15,0,0,0,2.65-3.6,4,4,0,0,0,.08-.62h2a2.94,2.94,0,0,0,.09.59,5.1,5.1,0,0,0,1.43,2.74,5.17,5.17,0,0,0,1.21.89,1,1,0,1,0,.94-1.76,3.18,3.18,0,0,1-.73-.55,3.12,3.12,0,0,1-.9-1.72,2.79,2.79,0,0,1,0-.55v-.64a1,1,0,0,0-1-1H32.87v-.94C45.79,44.36,54,47.38,54,49.47a.59.59,0,0,1-.07.29l0,.1a.25.25,0,0,1,0,.07.41.41,0,0,1-.05.09s-.06.07-.08.11l-.09.11-.13.14-.12.12-.2.16-.16.13-.27.19-.21.14-.37.21-.26.14-.51.25-.27.13-1,.38c-4.23,1.55-11,2.48-18.17,2.48s-13.95-.93-18.17-2.48a13.35,13.35,0,0,1-2.12-1,5.86,5.86,0,0,1-1.12-.8,2.26,2.26,0,0,1-.27-.29L10,49.37C10.28,47.29,18.31,44.4,30.87,44.24ZM32,59.46c-12.85,0-19.86-2.64-19.86-4a1,1,0,0,0-.06-.34l-.61-1.73.07,0,.48.22.28.12.84.33c3.93,1.45,9.69,2.35,16.08,2.56.92,0,1.84,0,2.78,0,7.48,0,14.36-1,18.86-2.6l.91-.36.36-.17.45-.2-.68,1.8h0l-.19.52s0,.07,0,.11C50.66,57.22,43.76,59.46,32,59.46ZM51,7.7a1,1,0,0,1,1-1h3a1,1,0,1,1,0,2H52A1,1,0,0,1,51,7.7Zm-.71,0a1,1,0,0,1-1,1H48a1.94,1.94,0,0,0-1.25.42,1.07,1.07,0,0,0-.42.79,3.47,3.47,0,0,1-3.67,3.21H38.4a1,1,0,0,1,0-2h4.3c.9,0,1.67-.55,1.67-1.21a3,3,0,0,1,1.14-2.33A3.93,3.93,0,0,1,48,6.7h1.21A1,1,0,0,1,50.25,7.7ZM51,3.54a1,1,0,0,1,1-1h1.41a1,1,0,0,1,0,2H52A1,1,0,0,1,51,3.54ZM35.77,8a1,1,0,0,1,1-1h4.31c.9,0,1.66-.55,1.66-1.21a3,3,0,0,1,1.14-2.33,4,4,0,0,1,2.53-.88h2.84a1,1,0,0,1,0,2H46.41A2,2,0,0,0,45.15,5a1.09,1.09,0,0,0-.41.79A3.46,3.46,0,0,1,41.08,9H36.77A1,1,0,0,1,35.77,8Z"/></svg>