<svg id="Gradient" xmlns="http://www.w3.org/2000/svg" xmlns:xlink="http://www.w3.org/1999/xlink" viewBox="0 0 64 64"><defs><style>.cls-1{fill:url(#linear-gradient);}</style><linearGradient id="linear-gradient" x1="-308.51" y1="376.12" x2="109.17" y2="-41.56" gradientUnits="userSpaceOnUse"><stop offset="0" stop-color="#707de4"/><stop offset="0.5" stop-color="#00dbde"/><stop offset="1" stop-color="#8968e5"/></linearGradient></defs><path class="cls-1" d="M53,56.52h0l-1-11.1a20,20,0,0,0-6.45-12.94,20.4,20.4,0,0,0-5-3.31,11,11,0,0,0,10.71-11v-.3a1,1,0,0,0-1-1h-36a1,1,0,0,0-1,1v.3a11,11,0,0,0,10.34,11A19.91,19.91,0,0,0,12.08,45.42L11,56.52a5.18,5.18,0,0,0,5.15,5.66H47.82A5.17,5.17,0,0,0,53,56.52ZM15.2,18.86h34a9,9,0,0,1-9,8.33h-16A9,9,0,0,1,15.2,18.86Zm35,40.29a3.16,3.16,0,0,1-2.35,1H16.18a3.18,3.18,0,0,1-2.35-1A3.13,3.13,0,0,1,13,56.71l1.05-11.1a18,18,0,0,1,35.87,0l1,11.1A3.13,3.13,0,0,1,50.17,59.15Zm-18-26.8A10.18,10.18,0,0,0,22,42.53V56.11a1,1,0,0,0,1,1H41.38a1,1,0,0,0,1-1V42.53a10.19,10.19,0,0,0-10.2-10.18ZM29.35,55.11V45.44a.78.78,0,0,1,.78-.78h4a.78.78,0,0,1,.78.78v9.67Zm1-14.12A7.49,7.49,0,0,1,32,38.17,7.36,7.36,0,0,1,33.69,41a1.67,1.67,0,1,1-3.34,0Zm10,14.12H36.87V45.44a2.78,2.78,0,0,0-1.72-2.57A3.65,3.65,0,0,0,35.69,41c0-1.73-2.25-4.29-2.93-5a1,1,0,0,0-.74-.32,1,1,0,0,0-.73.32c-.69.74-2.94,3.3-2.94,5a3.6,3.6,0,0,0,.58,1.95,2.78,2.78,0,0,0-1.58,2.5v9.67H24V42.53a8.19,8.19,0,0,1,16.38,0ZM35.3,6V2.82a1,1,0,0,1,2,0V6a1.54,1.54,0,0,0,1.54,1.54A3.54,3.54,0,0,1,42.38,11v2.49a1,1,0,1,1-2,0V11a1.54,1.54,0,0,0-1.54-1.53A3.55,3.55,0,0,1,35.3,6ZM28.21,6V2.82a1,1,0,0,1,2,0V6a1.53,1.53,0,0,0,1.53,1.54A3.54,3.54,0,0,1,35.28,11v2.49a1,1,0,1,1-2,0V11a1.54,1.54,0,0,0-1.54-1.53A3.54,3.54,0,0,1,28.21,6ZM20.67,6V2.82a1,1,0,0,1,2,0V6A1.53,1.53,0,0,0,24.2,7.51,3.54,3.54,0,0,1,27.74,11v2.49a1,1,0,0,1-2,0V11A1.54,1.54,0,0,0,24.2,9.51,3.54,3.54,0,0,1,20.67,6Z"/></svg>