<svg id="Gradient" xmlns="http://www.w3.org/2000/svg" xmlns:xlink="http://www.w3.org/1999/xlink" viewBox="0 0 64 64"><defs><style>.cls-1{fill:url(#linear-gradient);}</style><linearGradient id="linear-gradient" x1="-108.22" y1="172.22" x2="309.46" y2="-245.46" gradientUnits="userSpaceOnUse"><stop offset="0" stop-color="#707de4"/><stop offset="0.5" stop-color="#00dbde"/><stop offset="1" stop-color="#8968e5"/></linearGradient></defs><path class="cls-1" d="M34.26,13.24h-.09a9.88,9.88,0,0,0-1.57-.13H32A19,19,0,0,0,13,32v.1A19,19,0,0,0,32,51a18.75,18.75,0,0,0,2.89-.22h0A19.08,19.08,0,0,0,51,32.07V32h0A19,19,0,0,0,34.26,13.24ZM15,32.07V32A17,17,0,0,1,32,15.1a14.92,14.92,0,0,1,1.93.12A8,8,0,0,1,40.53,23,8,8,0,0,1,32.6,31h-.2a10,10,0,0,0-9.94,9.93c0,.33,0,.66.05,1a3.06,3.06,0,0,0,0,.32c0,.21.05.43.09.63l.09.38c.05.18.09.37.15.55s.08.25.12.37.12.35.19.51.11.25.17.38.14.31.22.47.14.24.2.36l.27.44.24.34c.09.14.19.27.3.41l.26.32c.05,0,.09.11.14.17A17,17,0,0,1,15,32.07Zm33.94,0A17.08,17.08,0,0,1,34.66,48.84H32.4A7.94,7.94,0,0,1,31.61,33a6.85,6.85,0,0,1,.79,0h.2A10,10,0,0,0,42.53,23a9.36,9.36,0,0,0-.09-1.3,2.34,2.34,0,0,0,0-.26,9.47,9.47,0,0,0-.26-1.2c0-.08,0-.15-.07-.22a8.58,8.58,0,0,0-.39-1l-.08-.18a10.41,10.41,0,0,0-.56-1L41,17.66A17,17,0,0,1,49,32ZM32,27.61A4.64,4.64,0,1,0,27.36,23,4.64,4.64,0,0,0,32,27.61Zm0-7.28A2.64,2.64,0,1,1,29.36,23,2.64,2.64,0,0,1,32,20.33Zm0,15.89a4.64,4.64,0,1,0,4.64,4.64A4.64,4.64,0,0,0,32,36.22Zm0,7.28a2.64,2.64,0,1,1,2.64-2.64A2.64,2.64,0,0,1,32,43.5ZM32,9.43A22.57,22.57,0,1,0,54.57,32,22.59,22.59,0,0,0,32,9.43Zm0,43.14A20.57,20.57,0,1,1,52.57,32,20.6,20.6,0,0,1,32,52.57ZM62.33,31a6.86,6.86,0,0,1-5.19-3.5,8.13,8.13,0,0,0-1-5.57A8.18,8.18,0,0,0,53,17.4a6.82,6.82,0,0,1,1.19-6.14,1,1,0,0,0-.06-1.34,1,1,0,0,0-1.34-.07A6.81,6.81,0,0,1,46.6,11a8.18,8.18,0,0,0-4.54-3.2,8.13,8.13,0,0,0-5.57-1A6.84,6.84,0,0,1,33,1.68a1,1,0,0,0-1-.91h0a1,1,0,0,0-1,.9,6.86,6.86,0,0,1-3.5,5.19,8.13,8.13,0,0,0-5.57,1A8.18,8.18,0,0,0,17.4,11a6.78,6.78,0,0,1-6.13-1.19,1,1,0,0,0-1.35.06,1,1,0,0,0-.07,1.35A6.78,6.78,0,0,1,11,17.4a8.23,8.23,0,0,0-3.2,4.54,8.19,8.19,0,0,0-1,5.57A6.81,6.81,0,0,1,1.68,31a1,1,0,0,0,0,2,6.8,6.8,0,0,1,5.18,3.5,8.19,8.19,0,0,0,1,5.57A8.18,8.18,0,0,0,11,46.6a6.82,6.82,0,0,1-1.19,6.14,1,1,0,0,0,.06,1.34,1,1,0,0,0,1.35.07A6.78,6.78,0,0,1,17.4,53a8.23,8.23,0,0,0,4.54,3.2,8.13,8.13,0,0,0,5.57,1A6.84,6.84,0,0,1,31,62.32a1,1,0,0,0,1,.91h0a1,1,0,0,0,1-.9,6.86,6.86,0,0,1,3.5-5.19,8.13,8.13,0,0,0,5.57-1A8.23,8.23,0,0,0,46.6,53a6.78,6.78,0,0,1,6.13,1.19,1,1,0,0,0,1.35-.06,1,1,0,0,0,.07-1.35A6.78,6.78,0,0,1,53,46.6a8.18,8.18,0,0,0,3.2-4.54,8.13,8.13,0,0,0,1-5.57A6.84,6.84,0,0,1,62.33,33a1,1,0,0,0,0-2Zm-7.14,5a1,1,0,0,0-.07.58,6.29,6.29,0,0,1-.74,4.6,1.59,1.59,0,0,0-.12.27,6.32,6.32,0,0,1-2.69,3.71,1.08,1.08,0,0,0-.37.45,7.85,7.85,0,0,0-.15,5.47,7.85,7.85,0,0,0-5.47.15,1.08,1.08,0,0,0-.45.37,6.32,6.32,0,0,1-3.71,2.69,1.59,1.59,0,0,0-.27.12,6.29,6.29,0,0,1-4.6.74,1,1,0,0,0-.58.07,7.81,7.81,0,0,0-4,3.75,7.81,7.81,0,0,0-4-3.75.88.88,0,0,0-.39-.08h-.19a6.29,6.29,0,0,1-4.6-.74,1.59,1.59,0,0,0-.27-.12,6.32,6.32,0,0,1-3.71-2.69,1.08,1.08,0,0,0-.45-.37A7.85,7.85,0,0,0,13,51.05a7.85,7.85,0,0,0-.15-5.47,1.08,1.08,0,0,0-.37-.45,6.32,6.32,0,0,1-2.69-3.71,1.59,1.59,0,0,0-.12-.27,6.29,6.29,0,0,1-.74-4.6A1,1,0,0,0,8.81,36a7.81,7.81,0,0,0-3.75-4,7.81,7.81,0,0,0,3.75-4,1,1,0,0,0,.07-.58,6.29,6.29,0,0,1,.74-4.6,1.59,1.59,0,0,0,.12-.27,6.32,6.32,0,0,1,2.69-3.71,1,1,0,0,0,.37-.45A7.85,7.85,0,0,0,13,13a7.85,7.85,0,0,0,5.47-.15,1.08,1.08,0,0,0,.45-.37,6.32,6.32,0,0,1,3.71-2.69,1.59,1.59,0,0,0,.27-.12,6.29,6.29,0,0,1,4.6-.74A1,1,0,0,0,28,8.81a7.81,7.81,0,0,0,4-3.75,7.81,7.81,0,0,0,4,3.75,1,1,0,0,0,.58.07,6.29,6.29,0,0,1,4.6.74,1.07,1.07,0,0,0,.27.12,6.32,6.32,0,0,1,3.71,2.69,1.08,1.08,0,0,0,.45.37,7.85,7.85,0,0,0,5.47.15,7.85,7.85,0,0,0,.15,5.47,1.08,1.08,0,0,0,.37.45,6.32,6.32,0,0,1,2.69,3.71,1.59,1.59,0,0,0,.12.27,6.29,6.29,0,0,1,.74,4.6,1,1,0,0,0,.07.58,7.81,7.81,0,0,0,3.75,4A7.81,7.81,0,0,0,55.19,36Z"/></svg>