<svg id="Line" xmlns="http://www.w3.org/2000/svg" viewBox="0 0 64 64"><defs><style>.cls-1{fill:#231f20;}</style></defs><path class="cls-1" d="M36.48,18.74a.71.71,0,0,1-.2,0,1,1,0,0,1-.66-.48,4.09,4.09,0,0,0-7.11,0,1,1,0,0,1-.66.48,1,1,0,0,1-.81-.18A8.19,8.19,0,0,1,23.78,12a8.28,8.28,0,0,1,16.56,0,8.18,8.18,0,0,1-3.25,6.58A1,1,0,0,1,36.48,18.74Zm-4.42-4.57a6.09,6.09,0,0,1,4.59,2.09A6.2,6.2,0,0,0,38.34,12a6.28,6.28,0,0,0-12.56,0,6.21,6.21,0,0,0,1.7,4.3A6.09,6.09,0,0,1,32.06,14.17Z"/><path class="cls-1" d="M48.07,60.31H28.75a3.72,3.72,0,0,1-3.4-4,4.07,4.07,0,0,1,2-3.61,1,1,0,0,1,1.31.33,4.09,4.09,0,0,0,7.51-2.25,1,1,0,0,1,.69-1.09L44,47.44l2.86-.77a4.79,4.79,0,0,1,4.23.9,7.14,7.14,0,0,1,2.56,5.66v.36C53.65,57.3,51.15,60.31,48.07,60.31ZM27.7,55.08a2.41,2.41,0,0,0-.35,1.27c0,1,.66,2,1.4,2H48.07c2,0,3.58-2.11,3.58-4.72v-.36a5.12,5.12,0,0,0-1.78-4.08,2.84,2.84,0,0,0-2.5-.55l-2.8.76-6.44,2.06A6.1,6.1,0,0,1,27.7,55.08Z"/><path class="cls-1" d="M28.75,60.31H16.05c-3.07,0-5.57-3-5.57-6.72,0-4.11,3.12-7.42,6.58-6.57a1.84,1.84,0,0,1,.45.11l2.29.78,7.74,3.27a1,1,0,0,1,.58.69,3.89,3.89,0,0,0,.52,1.21,1,1,0,0,1-.36,1.42,2.09,2.09,0,0,0-.93,1.85c0,1,.66,2,1.4,2a1,1,0,0,1,0,2ZM16,48.89c-1.95,0-3.54,2.11-3.54,4.7s1.61,4.72,3.57,4.72H25.8a4.48,4.48,0,0,1-.45-2,4.32,4.32,0,0,1,1.17-3,5.38,5.38,0,0,1-.2-.51l-7.23-3.07L16.91,49l-.09,0-.17,0A2.34,2.34,0,0,0,16,48.89Zm.88.12Z"/><path class="cls-1" d="M27.14,53.1a.91.91,0,0,1-.39-.08l-7.66-3.25a1,1,0,0,1-.55-.58,1,1,0,0,1,.06-.8l2.31-4.5V40.67l-2,3.14a1,1,0,0,1-.43.37l-7.15,3.3L7.69,50.67a2.61,2.61,0,0,1-3.55-.1l-.87-.82a2.7,2.7,0,0,1-.77-2.31A2.62,2.62,0,0,1,3.92,45.5l1.75-.88L5,43.29A1.66,1.66,0,0,1,7.19,41l1.55.78,6.59-5.47,3.74-11.56c.12-.32.22-.57.33-.81A9.22,9.22,0,0,1,27,18.26a1,1,0,0,1,1,1.2,4,4,0,0,0-.08.8,4.09,4.09,0,1,0,8.18,0,4,4,0,0,0-.07-.8,1,1,0,0,1,.22-.86,1,1,0,0,1,.83-.34c3.73.26,6.92,3.07,8.11,7.14l3.43,10.74,6.59,5.48,1.55-.78A1.67,1.67,0,0,1,59,43.12l-.7,1.32,1.75.88a2.64,2.64,0,0,1,1.42,2,2.56,2.56,0,0,1-.77,2.27l-.87.84a2.63,2.63,0,0,1-3.55.1l-3.67-3.19L45.49,44a1,1,0,0,1-.42-.37l-1.86-3V44.1l2,3.83a1,1,0,0,1,0,.85,1,1,0,0,1-.62.57l-7.16,2.29a1,1,0,0,1-1.31-.93,4.05,4.05,0,0,0-4.08-4A4.1,4.1,0,0,0,28,50.82a3.92,3.92,0,0,0,.14,1,1,1,0,0,1-.31,1A1,1,0,0,1,27.14,53.1Zm-6.27-4.75L26,50.52a6.09,6.09,0,0,1,12-1.15l4.89-1.57-1.54-3a.93.93,0,0,1-.12-.46V37.21a1,1,0,0,1,.73-1,1,1,0,0,1,1.12.43l3.54,5.63,7,3.24a1.43,1.43,0,0,1,.24.16L57.62,49a.64.64,0,0,0,.86,0l.86-.84h0a.6.6,0,0,0,.18-.54.62.62,0,0,0-.34-.48l-2.66-1.33a1,1,0,0,1-.51-.59,1.05,1.05,0,0,1,.07-.78l.7-1.31-1.21.61a1,1,0,0,1-1.08-.13l-7.33-6.08a1,1,0,0,1-.31-.46L43.33,26a7.75,7.75,0,0,0-5.18-5.54,6.09,6.09,0,0,1-12.17,0,7.56,7.56,0,0,0-4.76,4.35c-.1.21-.18.41-.26.62l-3.81,11.8a1,1,0,0,1-.32.46L9.51,43.75a1,1,0,0,1-1.08.13l-1.21-.61.7,1.32a1,1,0,0,1,.07.77,1.06,1.06,0,0,1-.51.59L4.81,47.29a.62.62,0,0,0-.33.46.63.63,0,0,0,.18.56l.86.82a.64.64,0,0,0,.86,0l3.78-3.28a.75.75,0,0,1,.24-.15l7-3.24,3.66-5.82a1,1,0,0,1,1.84.53v6.93a.92.92,0,0,1-.11.46Zm-14.14-6h0Z"/><path class="cls-1" d="M21.91,38.2a1,1,0,0,1-.53-.15,1,1,0,0,1-.31-1.38L22,35.2a1,1,0,0,1,1.38-.31,1,1,0,0,1,.31,1.38l-.92,1.47A1,1,0,0,1,21.91,38.2Z"/><path class="cls-1" d="M42.21,38.22a1,1,0,0,1-.84-.47l-1.06-1.67A1,1,0,0,1,42,35l1.05,1.67a1,1,0,0,1-.32,1.38A.92.92,0,0,1,42.21,38.22Z"/><path class="cls-1" d="M32.06,26.36A6.1,6.1,0,0,1,26,20.26a5.22,5.22,0,0,1,.13-1.21,5.89,5.89,0,0,1,.68-1.81,6.08,6.08,0,0,1,10.57,0,5.56,5.56,0,0,1,.68,1.8,5.84,5.84,0,0,1,.12,1.21A6.1,6.1,0,0,1,32.06,26.36Zm0-10.19a4.12,4.12,0,0,0-4,3.28,4.2,4.2,0,0,0-.08.81,4.09,4.09,0,1,0,8.18,0,4,4,0,0,0-.07-.8h0a3.92,3.92,0,0,0-.45-1.2A4.09,4.09,0,0,0,32.06,16.17Z"/><path class="cls-1" d="M32.06,36.55a6.1,6.1,0,1,1,6.1-6.1A6.1,6.1,0,0,1,32.06,36.55Zm0-10.19a4.1,4.1,0,1,0,4.1,4.09A4.1,4.1,0,0,0,32.06,26.36Z"/><path class="cls-1" d="M32.06,46.73a6.09,6.09,0,1,1,6.1-6.09A6.09,6.09,0,0,1,32.06,46.73Zm0-10.18a4.09,4.09,0,1,0,4.1,4.09A4.09,4.09,0,0,0,32.06,36.55Z"/><path class="cls-1" d="M32.06,56.92A6.09,6.09,0,0,1,27,54.17a6.36,6.36,0,0,1-1-3.35,6.09,6.09,0,0,1,12.17-.23,1.77,1.77,0,0,1,0,.23A6.1,6.1,0,0,1,32.06,56.92Zm0-10.19A4.1,4.1,0,0,0,28,50.82a3.92,3.92,0,0,0,.14,1,4,4,0,0,0,.53,1.24,4.09,4.09,0,0,0,7.51-2.26h1l-1,0A4.08,4.08,0,0,0,32.06,46.73Z"/></svg>