<svg id="Line" xmlns="http://www.w3.org/2000/svg" viewBox="0 0 64 64"><defs><style>.cls-1{fill:#231f20;}</style></defs><path class="cls-1" d="M32,54.92c-12.32,0-25.42-3-25.42-8.44,0-2.89,3.68-5.33,10.36-6.88a1.29,1.29,0,0,1,.48,0l.1,0,.26.06h.06l.83.14c.31,0,.6.08.89.11l.88.08A31.06,31.06,0,0,0,25.2,40a1,1,0,0,1,.25,0,30.27,30.27,0,0,0,4.5.39s0-.07,0-.1a1,1,0,0,1,1.75-.73,4.74,4.74,0,0,0,.35.39l.28-.3a1,1,0,0,1,1.74.74A30.27,30.27,0,0,0,38.55,40a1,1,0,0,1,.25,0,30,30,0,0,0,4.72.08c.69,0,1.29-.11,1.83-.19l.81-.14a3.32,3.32,0,0,0,.41-.08,1.06,1.06,0,0,1,.47,0c6.67,1.55,10.34,4,10.34,6.87C57.38,52,44.28,54.92,32,54.92ZM17.14,41.6c-6.34,1.5-8.6,3.56-8.6,4.88,0,2.69,8.91,6.44,23.42,6.44s23.42-3.75,23.42-6.44c0-1.31-2.25-3.36-8.57-4.86l-.34.06-.83.14c-.58.09-1.24.16-2,.21a32.75,32.75,0,0,1-4.9-.08,29.84,29.84,0,0,1-5.78.38.93.93,0,0,1-.41-.12,1,1,0,0,1-1,0,1,1,0,0,1-.46.15A29.84,29.84,0,0,1,25.26,42a34,34,0,0,1-5,.08l-.95-.09c-.33,0-.66-.07-1-.13s-.56-.08-.87-.14l-.15,0Z"/><path class="cls-1" d="M32,49.82c-9.77,0-20.29-1.84-20.29-5.88,0-1.76,1.84-3.14,5.63-4.22a.94.94,0,0,1,.5,0l.83.14c.31,0,.6.08.89.11l.88.08A32.45,32.45,0,0,0,25.2,40a1,1,0,0,1,.25,0,30.27,30.27,0,0,0,4.5.39s0-.07,0-.1a1,1,0,0,1,1.75-.73,4.74,4.74,0,0,0,.35.39l.28-.3a1,1,0,0,1,1.74.74A30.27,30.27,0,0,0,38.55,40a1,1,0,0,1,.25,0,30,30,0,0,0,4.72.08c.69,0,1.29-.11,1.83-.19l.81-.14a1.13,1.13,0,0,1,.45,0c3.73,1.06,5.62,2.48,5.62,4.22C52.23,48,41.72,49.82,32,49.82ZM17.63,41.7c-3.13.92-4,1.86-4,2.24,0,1.31,6.46,3.88,18.29,3.88s18.27-2.57,18.27-3.88c0-.38-.83-1.32-3.94-2.23l-.65.11c-.58.09-1.24.16-2,.21a32.75,32.75,0,0,1-4.9-.08,29.84,29.84,0,0,1-5.78.38.93.93,0,0,1-.41-.12,1,1,0,0,1-1,0,1,1,0,0,1-.46.15A29.84,29.84,0,0,1,25.26,42a34,34,0,0,1-5,.08l-.95-.09c-.33,0-.66-.07-1-.13S17.87,41.75,17.63,41.7Z"/><path class="cls-1" d="M39.71,25.42a1,1,0,0,1-1-1,18.22,18.22,0,0,0-1.77-6.69,1,1,0,0,1,.3-1.21,30,30,0,0,1,7-4,3,3,0,0,1,2.52.1,3,3,0,0,1,1.57,2,30.65,30.65,0,0,1,.8,5.39,1,1,0,0,1-.75,1,18.91,18.91,0,0,0-8,4.09A1,1,0,0,1,39.71,25.42Zm-.62-7.74a20.64,20.64,0,0,1,1.41,4.81,21.57,21.57,0,0,1,6.6-3.13,31,31,0,0,0-.68-4.23,1,1,0,0,0-.54-.7,1,1,0,0,0-.85,0A28.63,28.63,0,0,0,39.09,17.68Z"/><path class="cls-1" d="M33.91,42.35c-.57,0-.91,0-.95,0a1,1,0,0,1-.94-1s0-.12,0-.36,0-.41,0-.75a1,1,0,0,1,.27-.62c.28-.29.59-.66.92-1.08l.08-.1.13-.16.21-.26c.06-.09.16-.21.27-.34.41-.56.93-1.29,1.44-2.11A5.26,5.26,0,0,0,35.7,35l.39-.66c.12-.22.24-.44.35-.66s.29-.56.43-.84c.23-.5.51-1.11.74-1.75.14-.4.29-.82.41-1.24.07-.22.13-.43.18-.65s.16-.62.22-.94.11-.61.15-.91a.5.5,0,0,1,0-.12s0-.08,0-.09c0-.28.07-.58.09-.89s0-.69,0-1,0-.49,0-.74a1.11,1.11,0,0,1,.33-.83,20.81,20.81,0,0,1,8.87-4.54,31.39,31.39,0,0,1,6.2-.93,3,3,0,0,1,3.15,3.33,30.26,30.26,0,0,1-1.18,5.86,1,1,0,0,1-.89.71,6.31,6.31,0,0,0-4.52,2.34c-4.08,4.86-6,7.1-9.53,9.35-.26.16-.52.33-.8.49a.57.57,0,0,1-.13.08l-.1.06-.44.25a.85.85,0,0,1,0,.23,1,1,0,0,1-.84,1A31.48,31.48,0,0,1,33.91,42.35Zm1-2.71a.18.18,0,0,0-.05.07l-.52.63c.57,0,1.32,0,2.19-.12a1,1,0,0,1,.35-.31c.83-.43,1.53-.81,2.13-1.16l.22-.13h0l.8-.49c3.25-2.09,5.13-4.26,9.09-9a8.24,8.24,0,0,1,5.2-3,30.25,30.25,0,0,0,.93-4.85h0a1,1,0,0,0-.28-.8,1,1,0,0,0-.79-.32,28.94,28.94,0,0,0-5.8.87,19.06,19.06,0,0,0-7.69,3.78c0,.13,0,.26,0,.39,0,.4,0,.78,0,1.17s-.06.68-.11,1c0,.07,0,.16,0,.25,0,.32-.1.63-.16.95s-.15.72-.24,1.08-.13.5-.21.74c-.13.44-.28.9-.44,1.33-.26.72-.56,1.38-.81,1.93-.15.31-.31.61-.46.91s-.25.47-.39.71-.27.46-.4.69-.24.4-.37.59c-.52.85-1.08,1.63-1.55,2.26l-.28.36a2.38,2.38,0,0,0-.2.25Zm20.2-12.53h0Z"/><path class="cls-1" d="M32,42.35a1,1,0,0,1-.8-.4c-.22-.21-.58-.57-1-1.1-.27-.3-.59-.66-.91-1.07l-.09-.11c-.21-.25-.43-.53-.63-.82l-.34-.46c-.2-.26-.38-.53-.57-.82A26,26,0,0,1,25,32.79l-.26-.62,0-.07a4.39,4.39,0,0,1-.21-.61,15.45,15.45,0,0,1-.57-1.86c-.06-.21-.11-.45-.17-.69l-.05-.25c-.07-.37-.14-.71-.19-1.05s-.1-.83-.12-1.25,0-.74,0-1.14,0-.49,0-.74a20,20,0,0,1,1.94-7.57,30.51,30.51,0,0,1,4.42-6.8,3,3,0,0,1,4.6,0,30.85,30.85,0,0,1,4.42,6.81,20.26,20.26,0,0,1,2,7.42c0,.35,0,.62,0,.89s0,.78,0,1.17-.06.68-.11,1c0,.07,0,.16,0,.25,0,.32-.1.63-.16.95s-.15.72-.24,1.08-.13.5-.21.74c-.13.44-.28.9-.44,1.33-.26.72-.56,1.38-.81,1.93-.15.31-.31.61-.46.91s-.25.47-.39.71-.27.46-.4.69-.24.4-.37.59c-.52.85-1.08,1.63-1.55,2.26a.39.39,0,0,1-.08.1l-.22.29a1.59,1.59,0,0,0-.18.22l-.11.14a.18.18,0,0,0-.05.07c-.38.48-.75.91-1.08,1.26-.16.18-.69.75-1,1A1,1,0,0,1,32,42.35Zm.74-1.67a1.48,1.48,0,0,1,.13.21h0A1.1,1.1,0,0,0,32.78,40.68Zm-2-2.28.06.07c.31.4.62.75.88,1.05l.36.39.28-.3c.29-.3.6-.67.93-1.09l.08-.1.13-.16.21-.26c.07-.08.15-.19.23-.3l.07-.09c.43-.58.93-1.28,1.41-2.06A5.26,5.26,0,0,0,35.7,35l.39-.66c.12-.22.24-.44.35-.66s.29-.56.43-.84c.23-.5.51-1.11.74-1.75.14-.4.29-.82.41-1.24.07-.22.13-.43.18-.65s.16-.62.22-.94.11-.61.15-.91a.5.5,0,0,1,0-.12s0-.08,0-.09c0-.28.07-.58.09-.89s0-.69,0-1,0-.49,0-.74a18.11,18.11,0,0,0-1.77-6.73,28.25,28.25,0,0,0-4.12-6.34,1.05,1.05,0,0,0-1.56,0,28.25,28.25,0,0,0-4.12,6.34,17.86,17.86,0,0,0-1.76,6.76c0,.27,0,.48,0,.71s0,.67,0,1,.05.75.1,1.09.1.62.16.93l.06.23c0,.2.08.4.14.6a17.9,17.9,0,0,0,.54,1.77,4.13,4.13,0,0,0,.17.48s0,0,0,.05h0l.25.59a23.5,23.5,0,0,0,2.46,4.43c.18.27.34.51.52.74a4.49,4.49,0,0,0,.34.47c.22.31.4.54.57.75Zm8.82-10.89h0Z"/><path class="cls-1" d="M30.09,42.35a31.48,31.48,0,0,1-5-.42,1,1,0,0,1-.84-1,.85.85,0,0,1,0-.23L24,40.5l-.06,0-.16-.09-.05,0-.14-.09-.55-.33-.13-.09h0l-.09-.05c-.42-.28-.83-.55-1.21-.82l-.26-.2-.49-.37c-.19-.15-.39-.31-.57-.47a32.45,32.45,0,0,1-3.52-3.43l-.25-.29L16,33.65a1,1,0,0,1-.13-.16l-.35-.41-.83-1c-.44-.51-.9-1.07-1.41-1.67A6.27,6.27,0,0,0,8.8,28.11a1,1,0,0,1-.89-.71,32,32,0,0,1-1.18-5.84,3,3,0,0,1,3.16-3.35,31.93,31.93,0,0,1,6.28.95,20.77,20.77,0,0,1,8.89,4.6,1,1,0,0,1,.32.78c0,.27,0,.48,0,.71s0,.67,0,1,.05.75.1,1.09.1.62.16.93l.06.23c0,.2.08.4.14.6a17.9,17.9,0,0,0,.54,1.77,4.13,4.13,0,0,0,.17.48s0,0,0,.05h0l.25.59a23.5,23.5,0,0,0,2.46,4.43c.18.27.34.51.52.74a4.49,4.49,0,0,0,.34.47c.22.31.4.54.57.75h0l.06.07c.31.4.62.75.88,1.05a1.05,1.05,0,0,1,.26.61c0,.35,0,.64,0,.85s0,.35,0,.35a1,1,0,0,1-.94,1S30.66,42.35,30.09,42.35Zm-2.63-2.13c.92.08,1.7.11,2.29.12l-.47-.56-.09-.11c-.21-.25-.43-.53-.63-.82l-.34-.46c-.2-.26-.38-.53-.57-.82A26,26,0,0,1,25,32.79l-.26-.62,0-.07a4.39,4.39,0,0,1-.21-.61,15.45,15.45,0,0,1-.57-1.86c-.06-.21-.11-.45-.17-.69l-.05-.25c-.07-.37-.14-.71-.19-1.05s-.1-.83-.12-1.25,0-.74,0-1.14v-.32a19,19,0,0,0-7.69-3.84,30,30,0,0,0-5.88-.88,1,1,0,0,0-.8.32,1,1,0,0,0-.28.81,31.06,31.06,0,0,0,.93,4.85,8.24,8.24,0,0,1,5.21,3c.49.6,1,1.15,1.4,1.66.28.35.55.65.81.95l.34.4a.57.57,0,0,1,.14.17c.18.19.34.37.5.56l.24.26A29.87,29.87,0,0,0,21.6,36.4l.51.43.45.34.26.19c.32.23.67.47,1,.71l.14.08.13.09.52.31.1.06.13.08.09.05c.61.36,1.29.73,2.14,1.17A1,1,0,0,1,27.46,40.22Zm-11.53-6.7,0,0Zm-.07-.11Z"/><path class="cls-1" d="M24.38,25.5a1,1,0,0,1-.68-.26,18.73,18.73,0,0,0-8-4.15,1,1,0,0,1-.74-1,31.7,31.7,0,0,1,.79-5.4,3.09,3.09,0,0,1,1.57-2,3,3,0,0,1,2.53-.1,30,30,0,0,1,7,4,1,1,0,0,1,.29,1.21,17.91,17.91,0,0,0-1.76,6.77,1,1,0,0,1-.62.88A1.06,1.06,0,0,1,24.38,25.5ZM17,19.39a21.23,21.23,0,0,1,6.59,3.16A20.49,20.49,0,0,1,25,17.68a28.63,28.63,0,0,0-5.94-3.28,1,1,0,0,0-.85,0,1.07,1.07,0,0,0-.54.7A29.54,29.54,0,0,0,17,19.39Z"/><path class="cls-1" d="M41.7,42.08c-1.33,0-2.44-.08-3.08-.14-.89-.07-1.43-.15-1.43-.15a1,1,0,0,1-.83-.83,1,1,0,0,1,.53-1.05c.83-.43,1.53-.81,2.13-1.16l.22-.13h0l.8-.49c3.25-2.09,5.13-4.26,9.09-9a8.26,8.26,0,0,1,5.9-3.05,14,14,0,0,1,6.88,1.49,1.86,1.86,0,0,1-.26,3.46c-2.33.7-6.48,2.44-8.2,6.14-1,2.17-3.18,3.64-6.44,4.36a5.59,5.59,0,0,1-.56.12l-.83.14c-.58.09-1.24.16-2,.21S42.31,42.08,41.7,42.08Zm-1-2c.82,0,1.78,0,2.81,0,.69,0,1.29-.11,1.83-.19l.81-.14a3.32,3.32,0,0,0,.41-.08c2.65-.59,4.35-1.68,5.08-3.26,2-4.22,6.38-6.24,9.08-7.11A11.81,11.81,0,0,0,55.2,28.1a6.36,6.36,0,0,0-4.53,2.35c-4.08,4.86-6,7.1-9.53,9.35Z"/><path class="cls-1" d="M22.25,42.09c-.62,0-1.29,0-2-.06l-.95-.09c-.33,0-.66-.07-1-.13s-.56-.08-.87-.14l-.15,0L17,41.58h0l-.08,0c-3.22-.71-5.37-2.18-6.39-4.35-1.71-3.7-5.87-5.44-8.19-6.15a1.84,1.84,0,0,1-.26-3.44A13.85,13.85,0,0,1,9,26.11a8.26,8.26,0,0,1,5.9,3.05c.49.6,1,1.15,1.4,1.66.28.35.55.65.81.95l.34.4a.92.92,0,0,1,.15.18c.12.13.24.26.35.4l.36.4A30.92,30.92,0,0,0,21.6,36.4l.51.43.45.34.26.19c.32.23.67.47,1,.71l.14.08.13.09.52.31.1.06.13.08.09.05c.61.36,1.29.73,2.14,1.17A1,1,0,0,1,27.64,41a1,1,0,0,1-.83.83s-.54.08-1.44.15C24.72,42,23.6,42.09,22.25,42.09Zm-4.51-2.4h.06l.83.14c.31,0,.6.08.89.11l.88.08c1.06.06,2.05.06,2.89,0l-.23-.14-.13-.09h0l-.09-.05c-.42-.28-.83-.55-1.21-.82l-.26-.2-.49-.37c-.19-.15-.39-.31-.57-.47a32.45,32.45,0,0,1-3.52-3.43l-.39-.43c-.12-.15-.25-.29-.38-.43l-.12-.15-.35-.41-.83-1c-.44-.51-.9-1.07-1.41-1.67A6.27,6.27,0,0,0,8.8,28.11a11.54,11.54,0,0,0-5.53,1.14c2.71.88,7.12,2.9,9.07,7.11.73,1.56,2.39,2.65,4.95,3.23h.09l.1,0Zm-1.81-6.17,0,0Zm-.07-.11Zm-13-4.27Z"/><path class="cls-1" d="M34.43,39.65a1,1,0,0,1-.62-.21,1,1,0,0,1-.18-1.39l.18-.23.09-.12a1,1,0,0,1,1.71.17,1,1,0,0,1-.13,1.07l-.1.12-.17.22A1,1,0,0,1,34.43,39.65Z"/><path class="cls-1" d="M32,46c-5.53,0-14.88-.93-14.88-4.39a2.12,2.12,0,0,1,.67-1.5,1,1,0,0,1,.88-.28c.27,0,.56.08.85.11l.88.08A31.06,31.06,0,0,0,25.2,40a1,1,0,0,1,.25,0,30.27,30.27,0,0,0,4.5.39s0-.07,0-.1a1,1,0,0,1,1.75-.73,4.74,4.74,0,0,0,.35.39l.28-.3a1,1,0,0,1,1.74.74A30.27,30.27,0,0,0,38.55,40a1,1,0,0,1,.25,0,30,30,0,0,0,4.72.08c.69,0,1.29-.11,1.83-.19a1,1,0,0,1,.86.28,2.12,2.12,0,0,1,.67,1.5C46.88,45.08,37.53,46,32,46ZM19.4,42C20.56,42.77,25.05,44,32,44c6.8,0,11.24-1.19,12.52-2l-.88.07a32.75,32.75,0,0,1-4.9-.08,29.84,29.84,0,0,1-5.78.38.93.93,0,0,1-.41-.12,1,1,0,0,1-1,0,1,1,0,0,1-.46.15A29.84,29.84,0,0,1,25.26,42a34,34,0,0,1-5,.08Z"/></svg>