<svg id="Line" xmlns="http://www.w3.org/2000/svg" viewBox="0 0 64 64"><defs><style>.cls-1{fill:#231f20;}</style></defs><path class="cls-1" d="M57.31,33.39H5.82a3.94,3.94,0,0,1-3.94-3.94V27.22a4,4,0,0,1,3.94-3.95H57.31a4,4,0,0,1,3.95,3.95v2.23A3.94,3.94,0,0,1,57.31,33.39ZM5.82,25.27a2,2,0,0,0-1.94,1.95v2.23a1.94,1.94,0,0,0,1.94,1.94H57.31a1.94,1.94,0,0,0,1.95-1.94V27.22a2,2,0,0,0-1.95-1.95Z"/><path class="cls-1" d="M34.92,62h-6.7A23.45,23.45,0,0,1,4.8,38.55V32.4a1,1,0,0,1,1-1H57.34a1,1,0,0,1,1,1v6.15A23.45,23.45,0,0,1,34.92,62ZM6.8,33.4v5.15A21.45,21.45,0,0,0,28.22,60h6.7A21.45,21.45,0,0,0,56.34,38.55V33.4Z"/><path class="cls-1" d="M48.24,25.27h-13a1,1,0,0,1-.73-1.67L46.6,10.46c0-.21,0-.42,0-.66a7.77,7.77,0,1,1,8.79,7.7L49,24.93A1,1,0,0,1,48.24,25.27Zm-10.71-2H47.78l6.34-7.38a1,1,0,0,1,.68-.34A5.77,5.77,0,1,0,48.58,9.8a4.66,4.66,0,0,0,.06.8,1.1,1.1,0,0,1,0,.18,1,1,0,0,1-.27.69Z"/><path class="cls-1" d="M6.59,45.47a1,1,0,0,1-.7-.29,1,1,0,0,1,0-1.41l2.92-2.93a7,7,0,0,1,9.91,0l.61.6a5,5,0,0,0,7.07,0l.92-.92a7,7,0,0,1,9.91,0l.9.91a5,5,0,0,0,7.08,0,7,7,0,0,1,9.91,0l2.18,2.18A1,1,0,0,1,55.89,45L53.7,42.84a5,5,0,0,0-7.07,0,7,7,0,0,1-9.91,0l-.91-.9a5,5,0,0,0-7.07,0l-.92.92a7,7,0,0,1-9.91,0l-.61-.61a5,5,0,0,0-7.07,0L7.3,45.18A1,1,0,0,1,6.59,45.47Z"/><path class="cls-1" d="M22.86,54.6a7,7,0,0,1-4.95-2l-.6-.6a5,5,0,0,0-7-.1A1,1,0,0,1,9,50.41a6.94,6.94,0,0,1,9.75.14l.6.6a5,5,0,0,0,7.08,0l.92-.92a7,7,0,0,1,9.91,0l.91.91a5,5,0,0,0,7.08,0,6.93,6.93,0,0,1,5-2.05,7,7,0,0,1,3.9,1.18A1,1,0,0,1,53,51.93a5,5,0,0,0-2.79-.85,4.94,4.94,0,0,0-3.54,1.47,7,7,0,0,1-9.91,0l-.91-.91a5,5,0,0,0-7.08,0l-.92.92A7,7,0,0,1,22.86,54.6Z"/></svg>