<svg id="Line" xmlns="http://www.w3.org/2000/svg" viewBox="0 0 64 64"><defs><style>.cls-1{fill:#231f20;}</style></defs><path class="cls-1" d="M13,56.77a1,1,0,0,1-.56-.17,1,1,0,0,1-.43-.7L10.6,45.84a1,1,0,0,1,.5-1L16,42.08a6.21,6.21,0,0,0,2.89-3.64l5.48-18.5A4.42,4.42,0,0,1,33,21.19v20.3a11.57,11.57,0,0,1-3.4,8.23L26,53.31a1,1,0,0,1-.45.27l-12.3,3.15A.73.73,0,0,1,13,56.77Zm-.32-10.53,1.16,8.28,10.94-2.81,3.4-3.4A9.57,9.57,0,0,0,31,41.49V21.19a2.42,2.42,0,0,0-2.41-2.41,2.41,2.41,0,0,0-2.32,1.74L20.79,39A8.17,8.17,0,0,1,17,43.82ZM25.3,52.61h0Z"/><path class="cls-1" d="M27.06,39.39a1,1,0,0,1-1-1V30.73a3.55,3.55,0,0,1,3.24-3.6A3.46,3.46,0,0,1,33,30.58a1,1,0,0,1-2,0,1.47,1.47,0,0,0-1.57-1.46,1.58,1.58,0,0,0-1.37,1.61v7.66A1,1,0,0,1,27.06,39.39Z"/><path class="cls-1" d="M8.34,63a4.13,4.13,0,0,1-4.07-3.54L2.52,47A4.1,4.1,0,0,1,6,42.34l1.92-.27a4.1,4.1,0,0,1,4.64,3.49L14.33,58a4.12,4.12,0,0,1-3.5,4.65l-1.92.27A5.46,5.46,0,0,1,8.34,63ZM8.52,44a1.51,1.51,0,0,0-.3,0l-1.92.27a2.1,2.1,0,0,0-1.39.82A2.12,2.12,0,0,0,4.5,46.7L6.25,59.13a2.12,2.12,0,0,0,2.38,1.8l1.92-.27h0a2.12,2.12,0,0,0,1.8-2.39L10.6,45.84A2.11,2.11,0,0,0,8.52,44Z"/><path class="cls-1" d="M51,56.77a.73.73,0,0,1-.25,0l-12.3-3.15a1,1,0,0,1-.45-.27l-3.6-3.59A11.57,11.57,0,0,1,31,41.49V21.19a4.42,4.42,0,0,1,8.65-1.25l5.48,18.5A6.19,6.19,0,0,0,48,42.08l4.87,2.75a1,1,0,0,1,.5,1L52,55.9a1,1,0,0,1-.43.7A1,1,0,0,1,51,56.77ZM39.22,51.71l10.94,2.81,1.16-8.28L47,43.82A8.17,8.17,0,0,1,43.21,39l-5.48-18.5a2.41,2.41,0,0,0-2.32-1.73A2.42,2.42,0,0,0,33,21.19v20.3a9.57,9.57,0,0,0,2.82,6.82Z"/><path class="cls-1" d="M36.93,39.39a1,1,0,0,1-1-1V30.73a1.58,1.58,0,0,0-1.36-1.61A1.47,1.47,0,0,0,33,30.58a1,1,0,0,1-2,0,3.46,3.46,0,0,1,3.7-3.45,3.54,3.54,0,0,1,3.23,3.6v7.66A1,1,0,0,1,36.93,39.39Z"/><path class="cls-1" d="M55.66,63a5.46,5.46,0,0,1-.57,0l-1.92-.27A4.12,4.12,0,0,1,49.67,58l1.75-12.43a4.1,4.1,0,0,1,4.64-3.49l1.92.27A4.1,4.1,0,0,1,61.48,47L59.73,59.41A4.12,4.12,0,0,1,55.66,63ZM55.48,44a2.11,2.11,0,0,0-2.08,1.81L51.65,58.27a2.12,2.12,0,0,0,1.8,2.39h0l1.92.27a2.12,2.12,0,0,0,2.38-1.8L59.5,46.7a2.12,2.12,0,0,0-.41-1.56,2.1,2.1,0,0,0-1.39-.82l-1.92-.27A1.51,1.51,0,0,0,55.48,44Z"/><path class="cls-1" d="M58.83,31.85H47.2a1,1,0,0,1,0-2H58.83a1,1,0,0,1,0,2Z"/><path class="cls-1" d="M44,19.42a1,1,0,0,1-.71-.29,1,1,0,0,1,0-1.42L51.53,9.5A1,1,0,0,1,53,9.5a1,1,0,0,1,0,1.41l-8.22,8.22A1,1,0,0,1,44,19.42Z"/><path class="cls-1" d="M20.24,19.42a1,1,0,0,1-.71-.29l-8.22-8.22a1,1,0,0,1,0-1.41,1,1,0,0,1,1.42,0L21,17.71a1,1,0,0,1,0,1.42A1,1,0,0,1,20.24,19.42Z"/><path class="cls-1" d="M32,14.67a1,1,0,0,1-1-1V2.05a1,1,0,1,1,2,0V13.67A1,1,0,0,1,32,14.67Z"/><path class="cls-1" d="M16.8,31.85H5.17a1,1,0,0,1,0-2H16.8a1,1,0,1,1,0,2Z"/></svg>