<svg id="Line" xmlns="http://www.w3.org/2000/svg" viewBox="0 0 64 64"><defs><style>.cls-1{fill:#231f20;}</style></defs><path class="cls-1" d="M32,60.54A17.82,17.82,0,0,1,14.16,42.7V25.31a2.74,2.74,0,0,0-1.39-2.39,1,1,0,0,1-.51-.87v-.57A4.75,4.75,0,0,1,17,16.73a4.68,4.68,0,0,1,2.75.87V13.18a4.76,4.76,0,0,1,7.5-3.88V8.21a4.75,4.75,0,1,1,9.5,0v1.1a4.65,4.65,0,0,1,2.75-.88,4.75,4.75,0,0,1,4.75,4.75V17.6a4.75,4.75,0,0,1,7.49,3.88v.57a1,1,0,0,1-.51.87,2.74,2.74,0,0,0-1.39,2.39V42.7A17.86,17.86,0,0,1,32,60.54Zm-17.74-39a4.36,4.36,0,0,1,.51.44,4.71,4.71,0,0,1,1.39,3.36V42.7a15.84,15.84,0,0,0,31.68,0V25.31A4.71,4.71,0,0,1,49.23,22a4.36,4.36,0,0,1,.51-.44v0a2.75,2.75,0,1,0-5.49,0,1,1,0,1,1-2,0v-8.3a2.75,2.75,0,0,0-5.5,0,1,1,0,0,1-2,0v-5a2.77,2.77,0,0,0-.81-2,2.75,2.75,0,0,0-4.69,2v5a1,1,0,0,1-2,0,2.75,2.75,0,0,0-2.75-2.75,2.75,2.75,0,0,0-2.75,2.75v8.3a1,1,0,1,1-2,0,2.73,2.73,0,0,0-.8-1.95,2.75,2.75,0,0,0-4.69,1.95Zm36.48.54h0Z"/><path class="cls-1" d="M43.25,28.16a1,1,0,0,1-1-1V18.67a1,1,0,0,1,2,0v8.49A1,1,0,0,1,43.25,28.16Z"/><path class="cls-1" d="M20.75,28.16a1,1,0,0,1-1-1V18.67a1,1,0,0,1,2,0v8.49A1,1,0,0,1,20.75,28.16Z"/><path class="cls-1" d="M35.75,23.18a1,1,0,0,1-1-1v-9a1,1,0,0,1,2,0v9A1,1,0,0,1,35.75,23.18Z"/><path class="cls-1" d="M28.25,23.18a1,1,0,0,1-1-1v-9a1,1,0,0,1,2,0v9A1,1,0,0,1,28.25,23.18Z"/><path class="cls-1" d="M32.07,42.83a3.2,3.2,0,0,1-.56,0,2.26,2.26,0,0,1-.39-.08l-.3-.09h0a2.94,2.94,0,0,1-.51-.23,5.93,5.93,0,0,1-2.82-4.71,6.91,6.91,0,0,1,0-.81,6.79,6.79,0,0,1,.94-3.13,20.71,20.71,0,0,1,3-4.06,1,1,0,0,1,.72-.31h0a1,1,0,0,1,.72.31,20.72,20.72,0,0,1,2.94,4,7,7,0,0,1,1,3.23,7.58,7.58,0,0,1,0,.84,5.8,5.8,0,0,1-3,4.77,1.79,1.79,0,0,1-.37.15,4.07,4.07,0,0,1-1.05.21Zm-.65-2.12.1,0,.11,0,.17,0a1.1,1.1,0,0,0,.24,0s0,0-.06,0l.15,0a1.85,1.85,0,0,0,.54-.1l.16-.07a3.91,3.91,0,0,0,1.86-3.18c0-.2,0-.41,0-.62A5.11,5.11,0,0,0,34,34.59a16.56,16.56,0,0,0-1.9-2.72,17.56,17.56,0,0,0-1.95,2.8,5,5,0,0,0-.7,2.19,5.88,5.88,0,0,0,0,.6,4,4,0,0,0,1.77,3.15Z"/><path class="cls-1" d="M37,45.74a7.34,7.34,0,0,1-2.66-.48,4,4,0,0,1-.6-.27,4.72,4.72,0,0,1-2.57-2.9,1,1,0,0,1,.15-.85,1,1,0,0,1,.77-.41,1.85,1.85,0,0,0,.54-.1l.16-.07a3.91,3.91,0,0,0,1.86-3.18,1,1,0,0,1,.77-.87A7.23,7.23,0,0,1,37,36.45a7,7,0,0,1,3.22,1,20.42,20.42,0,0,1,4,3,1,1,0,0,1,0,1.43,20.77,20.77,0,0,1-4,2.94A7,7,0,0,1,37,45.74Zm-3.37-3.27a3.44,3.44,0,0,0,1,.74,2.35,2.35,0,0,0,.4.18,5.27,5.27,0,0,0,1.95.35A5.21,5.21,0,0,0,39.33,43,16.88,16.88,0,0,0,42,41.09a17.8,17.8,0,0,0-2.73-1.91A5.13,5.13,0,0,0,37,38.45a3.93,3.93,0,0,0-.49,0,5.57,5.57,0,0,1-2.87,4Z"/><path class="cls-1" d="M39.78,39.3a1,1,0,0,1-.48-.12A5.06,5.06,0,0,0,37,38.45a5.8,5.8,0,0,0-1.14.11,1,1,0,0,1-.89-.22,1,1,0,0,1-.32-.86c0-.2,0-.41,0-.62A5.11,5.11,0,0,0,34,34.59a1,1,0,0,1,.46-1.39A18.2,18.2,0,0,1,40.69,32a1,1,0,0,1,1,1,19.14,19.14,0,0,1-1,5.68,1,1,0,0,1-.94.64ZM37,36.45a5.73,5.73,0,0,1,2.13.46A17.26,17.26,0,0,0,39.64,34a17.19,17.19,0,0,0-3.42.62,6.12,6.12,0,0,1,.48,1.8Z"/><path class="cls-1" d="M24.16,39.45a1,1,0,0,1-.33-.06,1,1,0,0,1-.6-.57,19.12,19.12,0,0,1-1-5.84,1,1,0,0,1,.29-.72A1,1,0,0,1,23.2,32a17.59,17.59,0,0,1,6.49,1.34,1,1,0,0,1,.5.6,1,1,0,0,1-.07.77,4.9,4.9,0,0,0-.7,2.18,5.88,5.88,0,0,0,0,.6,1,1,0,0,1-.31.84,1,1,0,0,1-.87.25,5.77,5.77,0,0,0-1.1-.1,5.53,5.53,0,0,0-2.52.87A1.05,1.05,0,0,1,24.16,39.45ZM24.25,34a17.8,17.8,0,0,0,.5,3,6,6,0,0,1,2.69-.58,6.16,6.16,0,0,1,.45-1.73A16.21,16.21,0,0,0,24.25,34Z"/><path class="cls-1" d="M27.17,45.74A6.9,6.9,0,0,1,24,44.81a20.22,20.22,0,0,1-4.06-3,1,1,0,0,1,0-1.43,21.17,21.17,0,0,1,3.69-2.8,7.38,7.38,0,0,1,3.51-1.13,7.42,7.42,0,0,1,1.48.14,1,1,0,0,1,.81.88,4,4,0,0,0,1.76,3.14l.2.1.1,0,.11,0,.17,0a1.1,1.1,0,0,0,.24,0,1,1,0,0,1,.79.4,1,1,0,0,1,.17.88,4.69,4.69,0,0,1-2.42,2.81,5.88,5.88,0,0,1-.83.37A7.41,7.41,0,0,1,27.17,45.74Zm-5-4.65A16.93,16.93,0,0,0,25,43a5.08,5.08,0,0,0,2.2.7,5.6,5.6,0,0,0,1.89-.32,4.13,4.13,0,0,0,.56-.26,3.5,3.5,0,0,0,.9-.66l-.23-.12a5.7,5.7,0,0,1-2.7-3.92h-.42a5.53,5.53,0,0,0-2.52.87A18.69,18.69,0,0,0,22.17,41.09Z"/><path class="cls-1" d="M32.07,47.9a1,1,0,0,1-.41-.09,8,8,0,0,1-2.58-1.87,2.8,2.8,0,0,1-.66-1.47,1,1,0,0,1,.64-1,4.13,4.13,0,0,0,.56-.26,2.72,2.72,0,0,0,1.45-1.6,1,1,0,0,1,1-.73s0,0-.06,0a1,1,0,0,1,1.16.71,2.81,2.81,0,0,0,1.55,1.65,2.35,2.35,0,0,0,.4.18,1,1,0,0,1,.64,1,2.71,2.71,0,0,1-.49,1.25,7.43,7.43,0,0,1-2.76,2.12A1,1,0,0,1,32.07,47.9Zm-1.31-3.08a6.36,6.36,0,0,0,1.31,1,5.79,5.79,0,0,0,1.34-1,5.28,5.28,0,0,1-1.3-1.06A5.42,5.42,0,0,1,30.76,44.82Z"/><path class="cls-1" d="M38.13,48.69a4.62,4.62,0,0,1-3.33-1.14,5.38,5.38,0,0,1-1.33-2.12,1,1,0,0,1,.13-.88,1,1,0,0,0,.15-.34,1,1,0,0,1,1.35-.81,5.38,5.38,0,0,0,1.94.34A5.21,5.21,0,0,0,39.33,43a1,1,0,0,1,.81-.06,1,1,0,0,1,.59.55,7.68,7.68,0,0,1,.16,4.25,1,1,0,0,1-.73.72A8.47,8.47,0,0,1,38.13,48.69Zm1.79-1.21h0Zm0,0h0Zm-4.13-1.84a3.28,3.28,0,0,0,.42.5c.62.62,2,.6,2.85.48a7,7,0,0,0,0-1.32A6,6,0,0,1,35.79,45.64Z"/><path class="cls-1" d="M26.22,48.66a9.07,9.07,0,0,1-2-.24,1,1,0,0,1-.73-.73,7.73,7.73,0,0,1,.11-4.12,1,1,0,0,1,.58-.58A1,1,0,0,1,25,43a5.08,5.08,0,0,0,2.2.7,5.6,5.6,0,0,0,1.89-.32,1,1,0,0,1,1.34.82,1.16,1.16,0,0,0,.23.44,1,1,0,0,1,.16,1,5.38,5.38,0,0,1-1.23,1.87A4.66,4.66,0,0,1,26.22,48.66Zm-.93-2.07c.88.12,2.23.14,2.85-.48a3.67,3.67,0,0,0,.41-.49,5.89,5.89,0,0,1-3.32-.27A6.77,6.77,0,0,0,25.29,46.59Z"/></svg>