<svg id="Line" xmlns="http://www.w3.org/2000/svg" viewBox="0 0 64 64"><defs><style>.cls-1{fill:#231f20;}</style></defs><path class="cls-1" d="M32,54.17H19.45A11.33,11.33,0,0,1,8.13,42.85a1,1,0,0,1,1-1H21.68A11.28,11.28,0,0,1,33,53.17,1,1,0,0,1,32,54.17ZM10.19,43.85a9.32,9.32,0,0,0,9.26,8.32H31a9.17,9.17,0,0,0-.45-2.05,9.35,9.35,0,0,0-8.82-6.27Z"/><path class="cls-1" d="M44.55,54.17H32a1,1,0,0,1-1-1A11.31,11.31,0,0,1,42.32,41.85H54.87a1,1,0,0,1,1,1A11.32,11.32,0,0,1,44.55,54.17Zm-11.49-2H44.55a9.32,9.32,0,0,0,9.27-8.32H42.32a9.35,9.35,0,0,0-8.81,6.27A9.17,9.17,0,0,0,33.06,52.17Z"/><path class="cls-1" d="M32,54.17a1,1,0,0,1-1-1,9.65,9.65,0,0,0-.5-3.05,9.35,9.35,0,0,0-8.82-6.27H20.53a1,1,0,0,1-1-1V25.67a1,1,0,0,1,1-1H32a1,1,0,0,1,1,1v4.88a1.76,1.76,0,1,0,3.51,0V25.67a1,1,0,0,1,1-1h1a1,1,0,0,1,1,1v8.52a2.55,2.55,0,0,0,2.54,2.55,2.43,2.43,0,0,0,1.19-.31,1,1,0,0,1,1.48.87v5.55a1,1,0,0,1-1,1H42.32A9.31,9.31,0,0,0,33,53.17,1,1,0,0,1,32,54.17ZM21.53,41.85h.15A11.35,11.35,0,0,1,32,48.51a11.37,11.37,0,0,1,10.32-6.66h.41V38.68a3.71,3.71,0,0,1-.67.06,4.55,4.55,0,0,1-4.54-4.55v-1.1A3.75,3.75,0,0,1,31,30.55V26.67H21.53Z"/><path class="cls-1" d="M42.06,38.74a4.55,4.55,0,0,1-4.54-4.55v-1.1A3.75,3.75,0,0,1,31,30.55V26.67H20.1a3.88,3.88,0,0,1,0-7.75h24a3.88,3.88,0,0,1,2.74,6.62,2.52,2.52,0,0,1-.3.27v8.38a4.51,4.51,0,0,1-2.39,4A4.45,4.45,0,0,1,42.06,38.74ZM37.51,24.67h1a1,1,0,0,1,1,1v8.52a2.55,2.55,0,0,0,2.54,2.55,2.43,2.43,0,0,0,1.19-.31,2.53,2.53,0,0,0,1.34-2.24V25.28a1,1,0,0,1,.52-.87,1.8,1.8,0,0,0,.37-.28,1.89,1.89,0,0,0-1.33-3.21h-24a1.88,1.88,0,0,0,0,3.75H32a1,1,0,0,1,1,1v4.88a1.76,1.76,0,1,0,3.51,0V25.67A1,1,0,0,1,37.51,24.67Z"/><path class="cls-1" d="M32.13,18.31A6.29,6.29,0,0,1,25.85,12c0-3.22,5-8.77,5.54-9.4a1,1,0,0,1,1.48,0c.57.63,5.54,6.18,5.54,9.4A6.29,6.29,0,0,1,32.13,18.31Zm0-13.49c-1.9,2.24-4.28,5.59-4.28,7.21a4.28,4.28,0,1,0,8.56,0C36.41,10.4,34,7.06,32.13,4.82Z"/><path class="cls-1" d="M32.13,20.92a1,1,0,0,1-1-1V17.31a1,1,0,0,1,2,0v2.61A1,1,0,0,1,32.13,20.92Z"/><path class="cls-1" d="M50.52,61.69h-37A8.53,8.53,0,0,1,5,53.17a1,1,0,0,1,1-1H58a1,1,0,0,1,1,1A8.53,8.53,0,0,1,50.52,61.69ZM7,54.17a6.51,6.51,0,0,0,6.44,5.52h37A6.51,6.51,0,0,0,57,54.17Z"/></svg>