<svg id="Line" xmlns="http://www.w3.org/2000/svg" viewBox="0 0 64 64"><defs><style>.cls-1{fill:#231f20;}</style></defs><path class="cls-1" d="M38.2,60.32H32C15.39,60.3,2.41,55,2.41,48.19c0-3.9,4.22-7.42,11.57-9.67a1,1,0,0,1,.85.12l.15.11.27.21c.6.49,1.53,1.22,10.13,2.78a63.57,63.57,0,0,0,19.44.2.91.91,0,0,1,.23,0l.56,0a6.34,6.34,0,0,0,5-2.5,1,1,0,0,1,1.13-.33c7,2.53,10.51,5.92,9.72,9.3h0C58.86,59.56,50.65,60.32,38.2,60.32ZM14.08,40.58c-6.07,2-9.67,4.77-9.67,7.61C4.41,53.07,15.48,58.3,32,58.3h3.3c13.6.06,21.82.1,24.28-10.35.49-2.12-2.48-4.67-7.81-6.72A8.5,8.5,0,0,1,45,43.93a64.88,64.88,0,0,1-20-.22C16.19,42.11,15,41.29,14.08,40.58Zm46.43,7.61h0Z"/><path class="cls-1" d="M35.57,44.61A59.61,59.61,0,0,1,25,43.71c-9.11-1.65-10.13-2.47-11-3.19l-.22-.17,0,0A8.36,8.36,0,0,1,10,32.69a8.26,8.26,0,0,1,7.16-7.54,1,1,0,0,1,.87.32c2.24,2.46,7.83,4.12,13.91,4.12a26.21,26.21,0,0,0,11.42-2.32.93.93,0,0,1,.54-.11l2.37.2a8.31,8.31,0,0,1,7.59,9h0a8.17,8.17,0,0,1-1.67,4.34A8.45,8.45,0,0,1,45,43.93,62.19,62.19,0,0,1,35.57,44.61ZM15,38.75l.27.21c.6.49,1.53,1.22,10.13,2.78a63.57,63.57,0,0,0,19.44.2.91.91,0,0,1,.23,0l.56,0a6.34,6.34,0,0,0,5-2.5,6.25,6.25,0,0,0,1.26-3.29,6.32,6.32,0,0,0-5.76-6.81L44,29.17A28.42,28.42,0,0,1,32,31.59c-6.4,0-12.18-1.7-15-4.37a6.3,6.3,0,0,0-2.14,11.42Zm37.91-2.5h0Z"/><path class="cls-1" d="M32,31.59c-6.71,0-12.75-1.88-15.39-4.77a5,5,0,0,1-1.45-3.41c0-3.24,3.67-6.08,9.57-7.4a1,1,0,0,1,.7.1,15.34,15.34,0,0,0,7.28,1.67c4,0,5.87-.17,7.13-1.21a1,1,0,0,1,.91-.19c5.06,1.46,8.08,4.09,8.08,7,0,2.14-1.6,4.14-4.49,5.63A28.14,28.14,0,0,1,32,31.59ZM24.77,18c-4.59,1.1-7.65,3.24-7.65,5.37a3.08,3.08,0,0,0,.93,2.06c2.24,2.46,7.83,4.12,13.91,4.12a26.21,26.21,0,0,0,11.42-2.32c2.2-1.14,3.41-2.5,3.41-3.86,0-1.89-2.35-3.77-6.16-5-1.83,1.24-4.29,1.33-8,1.33A17.54,17.54,0,0,1,24.77,18Z"/><path class="cls-1" d="M32.67,19.78a17.39,17.39,0,0,1-8.25-1.92c-2.77-1.52-4.37-3.75-4.37-6.13,0-4.51,5.54-8,12.62-8A12.6,12.6,0,0,1,43.05,9.45c1.14,1.9,1.34,3.77.54,5.26a10.24,10.24,0,0,1-2.53,3.41C39.2,19.67,36.65,19.78,32.67,19.78Zm0-14.1c-5.76,0-10.62,2.77-10.62,6.05,0,1.63,1.21,3.22,3.34,4.37a15.23,15.23,0,0,0,7.28,1.68c4,0,5.87-.17,7.13-1.21a8.49,8.49,0,0,0,2-2.8h0a3.47,3.47,0,0,0-.49-3.29A10.67,10.67,0,0,0,32.67,5.68Z"/><path class="cls-1" d="M39.05,12.73a1,1,0,0,1-1-.72,5.38,5.38,0,0,0-4.34-3.44,1,1,0,0,1,.36-2A7.35,7.35,0,0,1,40,11.46a1,1,0,0,1-.69,1.24A1.24,1.24,0,0,1,39.05,12.73Z"/><path class="cls-1" d="M45.38,56.46a23.1,23.1,0,0,1-4.66-.5,1,1,0,0,1,.39-2c8.8,1.78,11.45-2.08,11.56-2.24a1,1,0,0,1,1.38-.3,1,1,0,0,1,.31,1.37C54.25,53,52,56.46,45.38,56.46Z"/></svg>