<svg id="Line" xmlns="http://www.w3.org/2000/svg" viewBox="0 0 64 64"><defs><style>.cls-1{fill:#231f20;}</style></defs><path class="cls-1" d="M46.91,61.75H44a1,1,0,0,1-.83-.45l-1-1.44a10,10,0,0,1-1.65-5.53V24.48a1,1,0,0,1,1-1h7.84a1,1,0,0,1,1,1V54.33a10,10,0,0,1-1.66,5.53l-1,1.44A1,1,0,0,1,46.91,61.75Zm-2.41-2h1.87l.67-1a8,8,0,0,0,1.32-4.42V25.48H42.52V54.33a8,8,0,0,0,1.32,4.42Z"/><path class="cls-1" d="M55.19,25.48H35.69a1,1,0,0,1-1-1V17.72a1,1,0,0,1,1-1h19.5a1,1,0,0,1,1,1v6.76A1,1,0,0,1,55.19,25.48Zm-18.5-2h17.5V18.72H36.69Z"/><path class="cls-1" d="M51.14,18.76H39.74a1,1,0,0,1-1-1V8a6.61,6.61,0,0,1,6.6-6.6h.2A6.61,6.61,0,0,1,52.14,8v9.78A1,1,0,0,1,51.14,18.76Zm-10.4-2h9.4V8a4.6,4.6,0,0,0-4.6-4.6h-.2A4.6,4.6,0,0,0,40.74,8Z"/><path class="cls-1" d="M32.34,62.62H12.85a5,5,0,0,1-5-5V35.66a14.67,14.67,0,0,1,4.45-10.58,8.2,8.2,0,0,0,2.56-5.36,1,1,0,0,1,.56-.84,1,1,0,0,1,1,.07c.83.57,3.07,1.15,6.2,1.15S28,19.52,28.79,19a1,1,0,0,1,1-.07,1,1,0,0,1,.55.83A8.09,8.09,0,0,0,32.85,25l.2.2a14.74,14.74,0,0,1,4.33,10.46V57.58A5,5,0,0,1,32.34,62.62ZM16.63,21.26a10.55,10.55,0,0,1-3,5.25,12.65,12.65,0,0,0-3.85,9.15V57.58a3,3,0,0,0,3,3H32.34a3,3,0,0,0,3-3V35.66a12.74,12.74,0,0,0-3.75-9l-.18-.18a10.12,10.12,0,0,1-2.9-5.17,18.81,18.81,0,0,1-6,.84A18.81,18.81,0,0,1,16.63,21.26Z"/><path class="cls-1" d="M23.06,49.22a1,1,0,0,1-1-1V45.27a2.42,2.42,0,0,1,0-.38s0,0,0-.08a8.18,8.18,0,0,1,8.16-7.74,1,1,0,0,1,1,1v3A8.2,8.2,0,0,1,23.06,49.22Zm1-4v1.94A6.2,6.2,0,0,0,29.25,41V39.15a6.39,6.39,0,0,0-2,.69A6.19,6.19,0,0,0,24.08,45,.88.88,0,0,1,24.06,45.2Z"/><path class="cls-1" d="M23.06,49.22A8.21,8.21,0,0,1,14.86,41v-3a1,1,0,0,1,1-1A8.22,8.22,0,0,1,24,44.82a.2.2,0,0,0,0,.07c0,.13,0,.25,0,.38v2.95A1,1,0,0,1,23.06,49.22Zm-6.2-10.07V41a6.21,6.21,0,0,0,5.2,6.11V45.2c0-.06,0-.11,0-.17a6.14,6.14,0,0,0-3.19-5.18A6.22,6.22,0,0,0,16.86,39.15Z"/><path class="cls-1" d="M23.06,46a1,1,0,0,1-.59-.19A1,1,0,0,1,22,45a6.14,6.14,0,0,0-3.19-5.18,1,1,0,0,1-.51-.77,9.08,9.08,0,0,1-.05-.91c0-4.21,4-7.49,4.14-7.62a1,1,0,0,1,1.26,0c.17.13,4.14,3.41,4.14,7.62a6.84,6.84,0,0,1-.06.91,1,1,0,0,1-.51.77A6.18,6.18,0,0,0,24.08,45a1,1,0,0,1-.79.95Zm-2.77-7.63a8.27,8.27,0,0,1,2.77,3,8.16,8.16,0,0,1,2.77-3v-.21c0-2.37-1.78-4.49-2.77-5.48-1,1-2.77,3.11-2.77,5.48Zm6.49.6h0Z"/><path class="cls-1" d="M22.59,22.1c-3.18,0-6-.58-7.33-1.5a2.06,2.06,0,0,1-1.06-1.69c0-2.35,4.52-3.18,8.39-3.18s8.4.83,8.4,3.18a2,2,0,0,1-1.09,1.71C28.57,21.53,25.76,22.1,22.59,22.1Zm-6.27-3.2,0,0c.86.59,3.1,1.17,6.23,1.17S28,19.52,28.79,19a.28.28,0,0,0,.08-.06c-.58-.43-2.71-1.17-6.28-1.17S16.9,18.47,16.32,18.9ZM29,19h0Z"/></svg>