<svg id="Line" xmlns="http://www.w3.org/2000/svg" viewBox="0 0 64 64"><defs><style>.cls-1{fill:#231f20;}</style></defs><path class="cls-1" d="M39.58,63H24.38a3.23,3.23,0,0,1,0-6.45h15.2a3.23,3.23,0,1,1,0,6.45ZM24.38,58.5a1.23,1.23,0,0,0,0,2.45h15.2a1.23,1.23,0,1,0,0-2.45Z"/><path class="cls-1" d="M41.76,31H22.33a1,1,0,0,1-.23-2,7.82,7.82,0,0,0,6-7.63V16.26a1,1,0,0,1,1-1H35a1,1,0,0,1,1,1v5.09A7.81,7.81,0,0,0,42,29a1,1,0,0,1-.23,2ZM26.52,29h11A9.85,9.85,0,0,1,34,21.35V17.26H30.1v4.09A9.83,9.83,0,0,1,26.52,29Z"/><path class="cls-1" d="M41.12,58.5H22.84a14.7,14.7,0,0,1-12.61-7.07,14.87,14.87,0,0,1-2.16-7.7,14.6,14.6,0,0,1,4.15-10.26,1.07,1.07,0,0,1,.18-.19A14.63,14.63,0,0,1,22.1,29l.23,0H41.76L42,29a14.77,14.77,0,0,1-.87,29.52ZM22.46,31l-.16,0a12.63,12.63,0,0,0-8.49,3.71l-.13.14a12.67,12.67,0,0,0-3.61,8.9A12.74,12.74,0,0,0,22.84,56.5H41.12a12.68,12.68,0,0,0,9-3.74A13,13,0,0,0,52,50.38,12.78,12.78,0,0,0,41.78,31H22.46Z"/><path class="cls-1" d="M52.88,51.91H11.08a1,1,0,0,1-.85-.48,14.87,14.87,0,0,1-2.16-7.7,14.65,14.65,0,0,1,4.17-10.29,1,1,0,0,1,.72-.3H51a1,1,0,0,1,.72.3,14.75,14.75,0,0,1,2,18A1,1,0,0,1,52.88,51.91Zm-41.22-2H52.31a12.77,12.77,0,0,0-1.74-14.77H13.39a12.65,12.65,0,0,0-3.32,8.59A12.83,12.83,0,0,0,11.66,49.91Z"/><path class="cls-1" d="M32,49c-3.13,0-5.67-2.88-5.67-6.43s4.67-6,5.21-6.32a1,1,0,0,1,.92,0c.53.28,5.21,2.82,5.21,6.32S35.14,49,32,49Zm0-10.71c-1.33.8-3.67,2.55-3.67,4.28C28.34,45,30,47,32,47s3.67-2,3.67-4.43C35.68,40.8,33.31,39,32,38.24Z"/><path class="cls-1" d="M32,49a1,1,0,0,1-1-1V42.52a1,1,0,0,1,2,0V48A1,1,0,0,1,32,49Z"/><path class="cls-1" d="M43.18,14.8H32.69a1,1,0,0,1-1-1A12.74,12.74,0,0,1,44.44,1.05H54.93a1,1,0,0,1,1,1,12.73,12.73,0,0,1-3.73,9A12.7,12.7,0,0,1,43.18,14.8Zm-9.44-2h9.44a10.75,10.75,0,0,0,10.7-9.75H44.44a10.73,10.73,0,0,0-10.7,9.75Z"/><path class="cls-1" d="M35.18,14.8H32.69a1,1,0,0,1-1-1A12.74,12.74,0,0,1,44.44,1.05h2.49a1,1,0,0,1,1,1,12.73,12.73,0,0,1-3.73,9A12.7,12.7,0,0,1,35.18,14.8Zm-1.44-2h1.44a10.75,10.75,0,0,0,10.7-9.75H44.44a10.73,10.73,0,0,0-10.7,9.75Z"/></svg>