<svg id="Line" xmlns="http://www.w3.org/2000/svg" viewBox="0 0 64 64"><defs><style>.cls-1{fill:#231f20;}</style></defs><path class="cls-1" d="M32,20.3a8.25,8.25,0,1,1,8.25-8.25A8.26,8.26,0,0,1,32,20.3ZM32,5.81a6.25,6.25,0,1,0,6.25,6.24A6.25,6.25,0,0,0,32,5.81Z"/><path class="cls-1" d="M47.94,60.19H28.7a3.7,3.7,0,0,1-3.39-3.95,3.84,3.84,0,0,1,2.63-3.85l1.27-.34,14.67-4.68,2.85-.77a4.77,4.77,0,0,1,4.2.89,7.09,7.09,0,0,1,2.57,5.65v.36C53.5,57.19,51,60.19,47.94,60.19Zm0-11.75a2.53,2.53,0,0,0-.71.1l-.17,0-2.63.71L29.77,54l-1.32.35a1.93,1.93,0,0,0-1.14,1.92c0,1,.65,1.95,1.39,1.95H47.94c2,0,3.56-2.1,3.56-4.69v-.36a5.08,5.08,0,0,0-1.79-4.06A2.93,2.93,0,0,0,48,48.44Z"/><path class="cls-1" d="M28.7,60.19H16.05c-3.06,0-5.55-3-5.55-6.69S13,46.82,16,46.82a4,4,0,0,1,1,.14,2.66,2.66,0,0,1,.44.1l2.28.77L29.86,52.1A1,1,0,0,1,29.72,54l-1.27.34a1.93,1.93,0,0,0-1.14,1.92c0,1,.65,1.95,1.39,1.95a1,1,0,1,1,0,2ZM16,48.82c-2,0-3.53,2.1-3.53,4.68s1.59,4.69,3.55,4.69h9.7a4.44,4.44,0,0,1-.44-1.95A4.13,4.13,0,0,1,26.79,53L19.08,49.7l-2.28-.76a.58.58,0,0,1-.19,0A1.9,1.9,0,0,0,16,48.82Z"/><path class="cls-1" d="M29.46,54a.91.91,0,0,1-.39-.08l-10-4.24a1,1,0,0,1-.55-.58,1,1,0,0,1,.06-.8l2.3-4.48V40.13a1,1,0,0,1,.44-.83l10-6.83a1,1,0,0,1,1.13,0l10.24,7a1,1,0,0,1,.44.83v3.73l2,3.81a1,1,0,0,1,0,.84,1,1,0,0,1-.62.57L29.77,54A.84.84,0,0,1,29.46,54Zm-8.61-5.74L29.51,52l13.24-4.23-1.54-3a.92.92,0,0,1-.11-.46V40.85l-9.25-6.34-9,6.14v3.43a.92.92,0,0,1-.11.46Z"/><path class="cls-1" d="M15.92,38.11a1,1,0,0,1-.68-.27A1,1,0,0,1,15,36.79l4.1-12a7.39,7.39,0,0,1,.32-.78,9,9,0,0,1,8.13-5.71h8.94c3.93,0,7.41,2.87,8.67,7.14l3.61,11.38A1,1,0,0,1,47.39,38L35.24,32.85a1,1,0,0,1-.49-.46l-2.9-5.57L29,32.39a1,1,0,0,1-.5.46L16.31,38A1,1,0,0,1,15.92,38.11Zm20.44-7,9.81,4.19-3-9.33c-1-3.43-3.71-5.72-6.75-5.72H27.52a7.07,7.07,0,0,0-6.31,4.54c-.1.21-.18.41-.26.62l-3.36,9.86,9.75-4.16,3.62-7a1,1,0,0,1,1.78,0Z"/><path class="cls-1" d="M17.39,43.9a2.49,2.49,0,0,1-2.47-2.47V37.11a1,1,0,0,1,.61-.92l11.81-5,3.62-7a1,1,0,0,1,1.13-.51,1,1,0,0,1,.76,1V33.3a1,1,0,0,1-.43.82L18.79,43.46A2.47,2.47,0,0,1,17.39,43.9Zm-.47-6.13v3.66a.47.47,0,0,0,.25.41.46.46,0,0,0,.49,0l13.19-9v-4L29,32.39a1,1,0,0,1-.5.46Z"/><path class="cls-1" d="M46.31,43.9a2.47,2.47,0,0,1-1.4-.44L31.29,34.12a1,1,0,0,1-.44-.82V24.64a1,1,0,0,1,1.89-.46l3.62,7,11.81,5a1,1,0,0,1,.61.92v4.31a2.45,2.45,0,0,1-1.32,2.19A2.48,2.48,0,0,1,46.31,43.9ZM32.85,32.77l13.19,9a.47.47,0,0,0,.74-.39V37.77L35.24,32.85a1,1,0,0,1-.49-.46l-1.9-3.65Z"/></svg>