<svg id="Line" xmlns="http://www.w3.org/2000/svg" viewBox="0 0 64 64"><defs><style>.cls-1{fill:#231f20;}</style></defs><path class="cls-1" d="M31.73,19a7.93,7.93,0,1,1,7.92-7.93A7.94,7.94,0,0,1,31.73,19Zm0-13.86a5.93,5.93,0,1,0,5.92,5.93A5.94,5.94,0,0,0,31.73,5.18Z"/><path class="cls-1" d="M60.52,60.82h-5.2a1,1,0,0,1-1-.67,3,3,0,0,0-1.54-1.73L31.54,48.31,15.36,49.44,11.28,59a1,1,0,0,1-.78.6l-5.8.82A1.94,1.94,0,0,1,3,57.17l1.45-1.52,2.75-9.44C8,43.81,9.38,40.66,13,40.66h6.11a3.35,3.35,0,0,0,3.35-3.58l-.38-6A3.39,3.39,0,0,0,19.17,28L5.11,26.17a2.21,2.21,0,0,1,.1-4.39l26.43-2.15h.16l26.44,2a2.21,2.21,0,0,1,2,2.2V24a2.21,2.21,0,0,1-1.93,2.19L44,28A3.36,3.36,0,0,0,41,31.1l-.52,8.16a3.38,3.38,0,0,0,1.44,3l14.4,9.92a6,6,0,0,1,2.18,2.62c.14.28.3.58.5.93a9.85,9.85,0,0,0,.79,1,7.79,7.79,0,0,1,1.55,2.45l.1.34a1,1,0,0,1-1,1.27Zm-4.55-2H58.9c-.2-.28-.43-.56-.63-.81a11,11,0,0,1-1-1.3c-.22-.38-.39-.71-.55-1a4.11,4.11,0,0,0-1.54-1.89L40.83,43.89a5.41,5.41,0,0,1-2.31-4.76L39,31a5.38,5.38,0,0,1,4.68-5L58.1,24.18a.2.2,0,0,0,.18-.2v-.19a.21.21,0,0,0-.19-.21L31.73,21.63,5.37,23.77a.21.21,0,0,0-.19.21.22.22,0,0,0,.18.21L19.42,26a5.37,5.37,0,0,1,4.67,5l.39,6a5.36,5.36,0,0,1-5.35,5.71H13c-1.81,0-3,1.23-3.88,4.12l-2.8,9.67a1.14,1.14,0,0,1-.24.41L4.59,58.43l5.07-.72,4.1-9.62a1,1,0,0,1,.85-.6l17.05-1.2a1,1,0,0,1,.5.1L53.68,56.62A5,5,0,0,1,56,58.82Z"/></svg>