<svg id="Line" xmlns="http://www.w3.org/2000/svg" viewBox="0 0 64 64"><defs><style>.cls-1{fill:#231f20;}</style></defs><path class="cls-1" d="M47.82,62.18H16.18A5.18,5.18,0,0,1,11,56.52l1.05-11.1a20,20,0,0,1,39.85,0l1,11.1h0a5.17,5.17,0,0,1-5.15,5.66ZM32,29.28A17.93,17.93,0,0,0,14.07,45.61L13,56.71a3.13,3.13,0,0,0,.81,2.44,3.18,3.18,0,0,0,2.35,1H47.82a3.16,3.16,0,0,0,2.35-1A3.13,3.13,0,0,0,51,56.71l-1-11.1A18,18,0,0,0,32,29.28Z"/><path class="cls-1" d="M41.38,57.11H23a1,1,0,0,1-1-1V42.53a10.19,10.19,0,0,1,20.38,0V56.11A1,1,0,0,1,41.38,57.11ZM24,55.11H40.38V42.53a8.19,8.19,0,0,0-16.38,0Z"/><path class="cls-1" d="M40.17,29.19h-16a11,11,0,0,1-11-11v-.3a1,1,0,0,1,1-1h36a1,1,0,0,1,1,1v.3A11,11,0,0,1,40.17,29.19Zm-25-10.33a9,9,0,0,0,9,8.33h16a9,9,0,0,0,9-8.33Z"/><path class="cls-1" d="M35.87,57.11H28.35a1,1,0,0,1-1-1V45.44a2.78,2.78,0,0,1,2.78-2.78h4a2.79,2.79,0,0,1,2.78,2.78V56.11A1,1,0,0,1,35.87,57.11Zm-6.52-2h5.52V45.44a.78.78,0,0,0-.78-.78h-4a.78.78,0,0,0-.78.78Z"/><path class="cls-1" d="M32,44.66A3.67,3.67,0,0,1,28.35,41c0-1.73,2.25-4.29,2.94-5a1,1,0,0,1,.73-.32h0a1,1,0,0,1,.74.32c.68.74,2.93,3.3,2.93,5A3.67,3.67,0,0,1,32,44.66Zm0-6.49A7.49,7.49,0,0,0,30.35,41a1.67,1.67,0,1,0,3.34,0A7.36,7.36,0,0,0,32,38.17Z"/><path class="cls-1" d="M41.38,14.53a1,1,0,0,1-1-1V11a1.54,1.54,0,0,0-1.54-1.53A3.55,3.55,0,0,1,35.3,6V2.82a1,1,0,0,1,2,0V6a1.54,1.54,0,0,0,1.54,1.54A3.54,3.54,0,0,1,42.38,11v2.49A1,1,0,0,1,41.38,14.53Z"/><path class="cls-1" d="M34.28,14.53a1,1,0,0,1-1-1V11a1.54,1.54,0,0,0-1.54-1.53A3.54,3.54,0,0,1,28.21,6V2.82a1,1,0,0,1,2,0V6a1.53,1.53,0,0,0,1.53,1.54A3.54,3.54,0,0,1,35.28,11v2.49A1,1,0,0,1,34.28,14.53Z"/><path class="cls-1" d="M26.74,14.53a1,1,0,0,1-1-1V11A1.54,1.54,0,0,0,24.2,9.51,3.54,3.54,0,0,1,20.67,6V2.82a1,1,0,0,1,2,0V6A1.53,1.53,0,0,0,24.2,7.51,3.54,3.54,0,0,1,27.74,11v2.49A1,1,0,0,1,26.74,14.53Z"/></svg>