<svg id="Line" xmlns="http://www.w3.org/2000/svg" viewBox="0 0 64 64"><defs><style>.cls-1{fill:#231f20;}</style></defs><path class="cls-1" d="M32,51a19,19,0,0,1-19-19V32A19,19,0,0,1,32,13.1a17.31,17.31,0,0,1,2.2.14A9.93,9.93,0,0,1,32.6,33h-.2a7.94,7.94,0,1,0,0,15.87h2.34a1,1,0,0,1,.15,2A18.75,18.75,0,0,1,32,51ZM32,15.1A17,17,0,0,0,15,32v.1A17,17,0,0,0,25,47.53a9.9,9.9,0,0,1,.38-13.64h0a9.82,9.82,0,0,1,7-2.92h.2A8,8,0,0,0,40.53,23a8,8,0,0,0-6.62-7.82A16.12,16.12,0,0,0,32,15.1Z"/><path class="cls-1" d="M34.08,15.23H34a15.24,15.24,0,0,0-2-.12,1,1,0,0,1,0-2h.6a9.87,9.87,0,0,1,1.66.14,1,1,0,0,1-.18,2Z"/><path class="cls-1" d="M34.74,50.84H32.4a9.92,9.92,0,0,1-7-17,9.82,9.82,0,0,1,7-2.92h.2A8,8,0,0,0,40.53,23a8,8,0,0,0-6.62-7.82,1,1,0,0,1,.28-2A19,19,0,0,1,51,32h0v.1A19.08,19.08,0,0,1,34.89,50.82ZM32.4,33a7.94,7.94,0,1,0,0,15.87h2.26A17.08,17.08,0,0,0,49,32.07V32a17,17,0,0,0-8-14.31A9.95,9.95,0,0,1,32.6,33Z"/><path class="cls-1" d="M32,27.61A4.64,4.64,0,1,1,36.64,23,4.64,4.64,0,0,1,32,27.61Zm0-7.28A2.64,2.64,0,1,0,34.64,23,2.64,2.64,0,0,0,32,20.33Z"/><path class="cls-1" d="M32,45.5a4.64,4.64,0,1,1,4.64-4.64A4.64,4.64,0,0,1,32,45.5Zm0-7.28a2.64,2.64,0,1,0,2.64,2.64A2.64,2.64,0,0,0,32,38.22Z"/><path class="cls-1" d="M32,54.57A22.57,22.57,0,1,1,54.57,32,22.59,22.59,0,0,1,32,54.57Zm0-43.14A20.57,20.57,0,1,0,52.57,32,20.6,20.6,0,0,0,32,11.43Z"/><path class="cls-1" d="M32,63.23h0a1,1,0,0,1-1-.91,6.84,6.84,0,0,0-3.49-5.18,8.13,8.13,0,0,1-5.57-1A8.23,8.23,0,0,1,17.4,53a6.78,6.78,0,0,0-6.14,1.19,1,1,0,0,1-1.35-.07,1,1,0,0,1-.06-1.34A6.82,6.82,0,0,0,11,46.6a8.18,8.18,0,0,1-3.2-4.54,8.19,8.19,0,0,1-1-5.57A6.8,6.8,0,0,0,1.67,33a1,1,0,0,1,0-2,6.81,6.81,0,0,0,5.17-3.49,8.19,8.19,0,0,1,1-5.57A8.23,8.23,0,0,1,11,17.4a6.78,6.78,0,0,0-1.19-6.14,1,1,0,0,1,.07-1.35,1,1,0,0,1,1.35-.06A6.78,6.78,0,0,0,17.4,11a8.18,8.18,0,0,1,4.54-3.2,8.13,8.13,0,0,1,5.57-1A6.86,6.86,0,0,0,31,1.67a1,1,0,0,1,1-.9h0a1,1,0,0,1,1,.91,6.84,6.84,0,0,0,3.49,5.18,8.13,8.13,0,0,1,5.57,1A8.18,8.18,0,0,1,46.6,11a6.81,6.81,0,0,0,6.15-1.19,1,1,0,0,1,1.34.07,1,1,0,0,1,.06,1.34A6.82,6.82,0,0,0,53,17.4a8.18,8.18,0,0,1,3.2,4.54,8.13,8.13,0,0,1,1,5.57A6.86,6.86,0,0,0,62.33,31a1,1,0,0,1,0,2,6.84,6.84,0,0,0-5.19,3.49,8.13,8.13,0,0,1-1,5.57A8.18,8.18,0,0,1,53,46.6a6.78,6.78,0,0,0,1.19,6.14,1,1,0,0,1-.07,1.35,1,1,0,0,1-1.35.06A6.78,6.78,0,0,0,46.6,53a8.23,8.23,0,0,1-4.54,3.2,8.13,8.13,0,0,1-5.57,1A6.86,6.86,0,0,0,33,62.33,1,1,0,0,1,32,63.23Zm-4.36-8.12a.88.88,0,0,1,.39.08,7.81,7.81,0,0,1,4,3.75,7.81,7.81,0,0,1,4-3.75,1,1,0,0,1,.58-.07,6.29,6.29,0,0,0,4.6-.74,1.59,1.59,0,0,1,.27-.12,6.32,6.32,0,0,0,3.71-2.69,1.08,1.08,0,0,1,.45-.37,7.85,7.85,0,0,1,5.47-.15,7.85,7.85,0,0,1,.15-5.47,1.08,1.08,0,0,1,.37-.45,6.32,6.32,0,0,0,2.69-3.71,1.59,1.59,0,0,1,.12-.27,6.29,6.29,0,0,0,.74-4.6,1,1,0,0,1,.07-.58,7.81,7.81,0,0,1,3.75-4,7.81,7.81,0,0,1-3.75-4,1,1,0,0,1-.07-.58,6.29,6.29,0,0,0-.74-4.6,1.59,1.59,0,0,1-.12-.27,6.32,6.32,0,0,0-2.69-3.71,1.08,1.08,0,0,1-.37-.45A7.85,7.85,0,0,1,51.05,13a7.85,7.85,0,0,1-5.47-.15,1.08,1.08,0,0,1-.45-.37,6.32,6.32,0,0,0-3.71-2.69,1.07,1.07,0,0,1-.27-.12,6.29,6.29,0,0,0-4.6-.74A1,1,0,0,1,36,8.81a7.81,7.81,0,0,1-4-3.75,7.81,7.81,0,0,1-4,3.75,1,1,0,0,1-.58.07,6.29,6.29,0,0,0-4.6.74,1.59,1.59,0,0,1-.27.12,6.32,6.32,0,0,0-3.71,2.69,1.08,1.08,0,0,1-.45.37A7.85,7.85,0,0,1,13,13a7.85,7.85,0,0,1-.15,5.47,1,1,0,0,1-.37.45,6.32,6.32,0,0,0-2.69,3.71,1.59,1.59,0,0,1-.12.27,6.29,6.29,0,0,0-.74,4.6,1,1,0,0,1-.07.58,7.81,7.81,0,0,1-3.75,4,7.81,7.81,0,0,1,3.75,4,1,1,0,0,1,.07.58,6.29,6.29,0,0,0,.74,4.6,1.59,1.59,0,0,1,.12.27,6.32,6.32,0,0,0,2.69,3.71,1.08,1.08,0,0,1,.37.45A7.85,7.85,0,0,1,13,51.05a7.85,7.85,0,0,1,5.47.15,1.08,1.08,0,0,1,.45.37,6.32,6.32,0,0,0,3.71,2.69,1.59,1.59,0,0,1,.27.12,6.29,6.29,0,0,0,4.6.74Z"/></svg>