<svg xmlns="http://www.w3.org/2000/svg" width="64" height="64" viewBox="0 0 64 64">
  <g>
    <circle cx="32" cy="25.658" r="13.5" fill="#fce4cd"/>
    <g>
      <path d="M27.821,23.62V18.981a3.719,3.719,0,0,1,3.719-3.719h.92a3.719,3.719,0,0,1,3.719,3.719V23.62" fill="none" stroke="#e86a13" stroke-linecap="round" stroke-linejoin="round" stroke-width="2"/>
      <path d="M28.892,20.123V21.6A3.108,3.108,0,0,0,32,24.711h0A3.108,3.108,0,0,0,35.108,21.6V19.821" fill="none" stroke="#e86a13" stroke-linecap="round" stroke-linejoin="round" stroke-width="2"/>
      <path d="M30.766,24.455a3.481,3.481,0,0,1-2.66,3.277c-.81.184-1.648.405-2.375.608a3.384,3.384,0,0,0-2.44,2.7l-1.445,8.608a3,3,0,0,0,2.338,3.268l6.969,1.528h.009l.488.11" fill="none" stroke="#e86a13" stroke-linecap="round" stroke-linejoin="round" stroke-width="2"/>
      <path d="M38.076,33.606l.534,6.232-6.905,1.427a1.734,1.734,0,0,0-.552,3.176h.009a1.72,1.72,0,0,0,1.271.211l7.76-1.739a2.994,2.994,0,0,0,2.338-3.268l-1.445-8.608a3.382,3.382,0,0,0-2.439-2.7c-.728-.2-1.565-.424-2.385-.608-.1-.027-.2-.055-.294-.082A3.55,3.55,0,0,1,33.6,24.418v-.009" fill="none" stroke="#e86a13" stroke-linecap="round" stroke-linejoin="round" stroke-width="2"/>
      <path d="M35.969,37.765s3.313-4.352,2.674-9.427" fill="none" stroke="#e86a13" stroke-linecap="round" stroke-linejoin="round" stroke-width="2"/>
      <path d="M29.182,35.693s6.287-3.414,6.787-8.047" fill="none" stroke="#e86a13" stroke-linecap="round" stroke-linejoin="round" stroke-width="2"/>
      <polyline points="26.36 33.443 25.646 39.837 28.861 40.873" fill="none" stroke="#e86a13" stroke-linecap="round" stroke-linejoin="round" stroke-width="2"/>
      <path d="M44.745,41.854a4,4,0,0,1,4.119,3.868h0a4,4,0,0,1-4.119,3.868H19.255a4,4,0,0,1-4.119-3.868h0a4,4,0,0,1,4.119-3.868" fill="none" stroke="#e86a13" stroke-linecap="round" stroke-linejoin="round" stroke-width="2"/>
      <path d="M19.2,38.635a18.109,18.109,0,1,1,25.61,0" fill="none" stroke="#e86a13" stroke-linecap="round" stroke-linejoin="round" stroke-width="2"/>
      <path d="M29.942,15.262a2.058,2.058,0,0,1,4.116,0" fill="none" stroke="#e86a13" stroke-linecap="round" stroke-linejoin="round" stroke-width="2"/>
      <circle cx="32" cy="12.621" r="1.47" fill="none" stroke="#e86a13" stroke-linecap="round" stroke-linejoin="round" stroke-width="2"/>
      <path d="M10.594,53.323H53.406a3.45,3.45,0,0,1,3.45,3.45v.676a0,0,0,0,1,0,0H7.145a0,0,0,0,1,0,0v-.676A3.45,3.45,0,0,1,10.594,53.323Z" fill="none" stroke="#e86a13" stroke-linecap="round" stroke-linejoin="round" stroke-width="2"/>
      <path d="M15.519,49.59H48.481a3.45,3.45,0,0,1,3.45,3.45v.284a0,0,0,0,1,0,0H12.07a0,0,0,0,1,0,0V53.04A3.45,3.45,0,0,1,15.519,49.59Z" fill="none" stroke="#e86a13" stroke-linecap="round" stroke-linejoin="round" stroke-width="2"/>
    </g>
  </g>
</svg>
