<svg xmlns="http://www.w3.org/2000/svg" width="64" height="64" viewBox="0 0 64 64">
  <g>
    <circle cx="31.999" cy="42.367" r="13.5" fill="#fce4cd"/>
    <path d="M32.7,47.655a16.623,16.623,0,0,1-11.259,4.412c-.518,0-1.029-.023-1.544-.073h0A16.6,16.6,0,0,1,8.141,45.33a1.036,1.036,0,0,1,.13-1.378,16.539,16.539,0,0,1,17.95-2.995" fill="none" stroke="#e86a13" stroke-miterlimit="10" stroke-width="2"/>
    <path d="M27.68,29.939A22.785,22.785,0,0,0,10.961,19.1a1.028,1.028,0,0,0-1.14.79,22.7,22.7,0,0,0,4.948,20.217" fill="none" stroke="#e86a13" stroke-miterlimit="10" stroke-width="2"/>
    <path d="M38.44,40.683a16.543,16.543,0,0,1,17.289,3.269,1.036,1.036,0,0,1,.13,1.378A16.6,16.6,0,0,1,44.1,51.994h0c-.518.05-1.03.073-1.544.073A16.629,16.629,0,0,1,32.11,48.36" fill="none" stroke="#e86a13" stroke-miterlimit="10" stroke-width="2"/>
    <path d="M36.306,29.962A22.783,22.783,0,0,1,53.038,19.1a1.028,1.028,0,0,1,1.14.79,22.7,22.7,0,0,1-4.909,20.171" fill="none" stroke="#e86a13" stroke-miterlimit="10" stroke-width="2"/>
    <path d="M32,47.81a1.036,1.036,0,0,1-.691-.264,25.906,25.906,0,0,1,0-38.614,1.038,1.038,0,0,1,1.383,0,25.9,25.9,0,0,1,0,38.614A1.037,1.037,0,0,1,32,47.81Z" fill="none" stroke="#e86a13" stroke-miterlimit="10" stroke-width="2"/>
    <path d="M32,47.931a1.036,1.036,0,0,1-.692-.266,14.924,14.924,0,0,1,0-22.27,1.038,1.038,0,0,1,1.385,0,14.924,14.924,0,0,1,1.2,21.072,14.72,14.72,0,0,1-1.2,1.2A1.036,1.036,0,0,1,32,47.931Z" fill="none" stroke="#e86a13" stroke-miterlimit="10" stroke-width="2"/>
  </g>
</svg>
