<svg xmlns="http://www.w3.org/2000/svg" width="64" height="64" viewBox="0 0 64 64">
  <g>
    <circle cx="32" cy="36" r="13.5" fill="#fce4cd"/>
    <g>
      <line x1="32" y1="4.942" x2="32" y2="8.821" fill="none" stroke="#e86a13" stroke-linecap="round" stroke-linejoin="round" stroke-width="2"/>
      <line x1="47.084" y1="11.191" x2="44.342" y2="13.933" fill="none" stroke="#e86a13" stroke-linecap="round" stroke-linejoin="round" stroke-width="2"/>
      <line x1="53.332" y1="26.274" x2="49.453" y2="26.274" fill="none" stroke="#e86a13" stroke-linecap="round" stroke-linejoin="round" stroke-width="2"/>
      <line x1="10.668" y1="26.274" x2="14.547" y2="26.274" fill="none" stroke="#e86a13" stroke-linecap="round" stroke-linejoin="round" stroke-width="2"/>
      <line x1="16.916" y1="11.191" x2="19.658" y2="13.933" fill="none" stroke="#e86a13" stroke-linecap="round" stroke-linejoin="round" stroke-width="2"/>
    </g>
    <path d="M27.705,22.106v.008c.348,2.335,2.153,5.176,4.321,5.176,2.335,0,4.234-3.269,4.377-5.667" fill="none" stroke="#e86a13" stroke-linecap="round" stroke-linejoin="round" stroke-width="2"/>
    <path d="M27.211,38.745l-1.319,4.908s-4.066.985-5.386,1.109a13.063,13.063,0,0,0-3.421,1.188V40.028h5.3s1.877-5.421,2.3-7.081,1.544-2.479,3.936-3.03c1.456-.334,1.783-1.943,1.8-3.139" fill="none" stroke="#e86a13" stroke-linecap="round" stroke-linejoin="round" stroke-width="2"/>
    <path d="M17.085,45.952s-.983,2.907,1.2,3.547,12.735,1.878,16.453,2.9a9.087,9.087,0,0,1,4.421,2.7,2.955,2.955,0,0,0,2.2,1.011h.066s1.13-6.655-1.776-6.783S29.18,46.3,29.18,46.3" fill="none" stroke="#e86a13" stroke-linecap="round" stroke-linejoin="round" stroke-width="2"/>
    <path d="M17.085,40.027l-2.7-1.832a.718.718,0,0,0-.955.127,4.05,4.05,0,0,0-1,2.516c0,1.749,2.35,3.243,4.658,2.432" fill="none" stroke="#e86a13" stroke-linecap="round" stroke-linejoin="round" stroke-width="2"/>
    <path d="M36.786,38.745l1.327,4.908s4.059.985,5.385,1.109a13.084,13.084,0,0,1,3.414,1.188V40.028h-5.3s-1.878-5.421-2.3-7.081-1.537-2.479-3.936-3.03c-1.443-.334-1.776-1.907-1.8-3.1" fill="none" stroke="#e86a13" stroke-linecap="round" stroke-linejoin="round" stroke-width="2"/>
    <path d="M34.819,46.3A19.944,19.944,0,0,0,32,47.074" fill="none" stroke="#e86a13" stroke-linecap="round" stroke-linejoin="round" stroke-width="2"/>
    <path d="M46.912,45.95s.986,2.907-1.2,3.552c-.746.217-2.493.515-4.61.841H41.1" fill="none" stroke="#e86a13" stroke-linecap="round" stroke-linejoin="round" stroke-width="2"/>
    <path d="M32,51.807h-.007c-1.087.2-2.022.406-2.726.594a9.153,9.153,0,0,0-4.421,2.7,2.928,2.928,0,0,1-2.2,1.015h-.073s-.659-3.878.319-5.77" fill="none" stroke="#e86a13" stroke-linecap="round" stroke-linejoin="round" stroke-width="2"/>
    <path d="M46.915,40.027l2.7-1.832a.718.718,0,0,1,.955.127,4.05,4.05,0,0,1,1,2.516c0,1.749-2.35,3.243-4.658,2.432" fill="none" stroke="#e86a13" stroke-linecap="round" stroke-linejoin="round" stroke-width="2"/>
    <path d="M28.625,29.917c2.236,2.263,4.486,2.238,6.748,0" fill="none" stroke="#e86a13" stroke-linecap="round" stroke-linejoin="round" stroke-width="2"/>
    <path d="M36.42,16.028A10.031,10.031,0,0,0,27.7,22.117l-.712-4.523a3.678,3.678,0,0,1,3.633-4.249H32.94a8.362,8.362,0,0,1,1.258.087,2.624,2.624,0,0,1,2.222,2.6Z" fill="none" stroke="#e86a13" stroke-linecap="round" stroke-linejoin="round" stroke-width="2"/>
    <path d="M32.029,17.264s2.184-.3,4.378,4.371a18.084,18.084,0,0,0,.013-5.607" fill="none" stroke="#e86a13" stroke-linecap="round" stroke-linejoin="round" stroke-width="2"/>
  </g>
</svg>
