<svg xmlns="http://www.w3.org/2000/svg" width="64" height="64" viewBox="0 0 64 64">
  <g>
    <circle cx="17.633" cy="17.248" r="13.5" fill="#fce4cd"/>
    <g>
      <line x1="37.227" y1="28.639" x2="49.132" y2="28.639" fill="none" stroke="#e86a13" stroke-linecap="round" stroke-linejoin="round" stroke-width="2"/>
      <line x1="37.227" y1="24.76" x2="46.465" y2="24.76" fill="none" stroke="#e86a13" stroke-linecap="round" stroke-linejoin="round" stroke-width="2"/>
      <line x1="37.227" y1="20.881" x2="48.465" y2="20.881" fill="none" stroke="#e86a13" stroke-linecap="round" stroke-linejoin="round" stroke-width="2"/>
      <rect x="37.227" y="33.639" width="11.904" height="4.57" stroke-width="2" stroke="#e86a13" stroke-linecap="round" stroke-linejoin="round" fill="none"/>
    </g>
    <g>
      <circle cx="24.11" cy="22.216" r="2.464" fill="none" stroke="#e86a13" stroke-linecap="round" stroke-linejoin="round" stroke-width="2"/>
      <path d="M14.868,30.554h1.786a2.731,2.731,0,0,0,1.976-.847L20.7,27.534a1.916,1.916,0,0,1,1.385-.594h4.047a1.914,1.914,0,0,1,1.385.594l2.072,2.173a2.728,2.728,0,0,0,1.976.847h1.785" fill="none" stroke="#e86a13" stroke-linecap="round" stroke-linejoin="round" stroke-width="2"/>
      <g>
        <path d="M26.119,30.587l.375,1.584a1.193,1.193,0,0,0,1.184,1.053H30.39a1.622,1.622,0,0,1,1.622,1.622h0a1.624,1.624,0,0,1-1.257,1.581L18.974,38.248" fill="none" stroke="#e86a13" stroke-linecap="round" stroke-linejoin="round" stroke-width="2"/>
        <path d="M22.1,30.587l-.375,1.584a1.192,1.192,0,0,1-1.184,1.053H17.829a1.622,1.622,0,0,0-1.622,1.622h0a1.624,1.624,0,0,0,1.257,1.581l12.685,1.821" fill="none" stroke="#e86a13" stroke-linecap="round" stroke-linejoin="round" stroke-width="2"/>
      </g>
    </g>
    <path d="M13.18,11.123H50.82a3.064,3.064,0,0,1,3.064,3.064V43.167a0,0,0,0,1,0,0H10.116a0,0,0,0,1,0,0V14.188A3.064,3.064,0,0,1,13.18,11.123Z" fill="none" stroke="#e86a13" stroke-linecap="round" stroke-linejoin="round" stroke-width="2"/>
    <path d="M57.145,52.877H6.855a1.549,1.549,0,0,1-1.484-1.993l4.745-7.717H53.884l4.745,7.717A1.549,1.549,0,0,1,57.145,52.877Z" fill="none" stroke="#e86a13" stroke-linecap="round" stroke-linejoin="round" stroke-width="2"/>
    <line x1="11.082" y1="15.25" x2="53.307" y2="15.25" fill="none" stroke="#e86a13" stroke-linecap="round" stroke-linejoin="round" stroke-width="2"/>
    <line x1="14.034" y1="47.658" x2="50.416" y2="47.658" fill="none" stroke="#e86a13" stroke-linecap="round" stroke-linejoin="round" stroke-width="2"/>
  </g>
</svg>
