<svg xmlns="http://www.w3.org/2000/svg" width="64" height="64" viewBox="0 0 64 64">
  <g>
    <circle cx="43.394" cy="19.009" r="13.5" fill="#fce4cd"/>
    <g>
      <line x1="18.115" y1="13.463" x2="46.328" y2="13.463" fill="none" stroke="#e86a13" stroke-linecap="round" stroke-linejoin="round" stroke-width="2"/>
      <line x1="18.115" y1="48.713" x2="46.328" y2="48.713" fill="none" stroke="#e86a13" stroke-linecap="round" stroke-linejoin="round" stroke-width="2"/>
      <path d="M42.141,57.236H22.3a4.187,4.187,0,0,1-4.187-4.187v-41.1A4.187,4.187,0,0,1,22.3,7.764H42.141a4.188,4.188,0,0,1,4.187,4.187v41.1A4.188,4.188,0,0,1,42.141,57.236Z" fill="none" stroke="#e86a13" stroke-linecap="round" stroke-linejoin="round" stroke-width="2"/>
      <line x1="31.12" y1="52.794" x2="33.322" y2="52.794" fill="none" stroke="#e86a13" stroke-linecap="round" stroke-linejoin="round" stroke-width="2"/>
    </g>
    <g>
      <path d="M32.221,32.483a8.145,8.145,0,0,1-8.145-8.145c1.259,0,3.267,1.056,4.394,1.618" fill="none" stroke="#e86a13" stroke-linecap="round" stroke-linejoin="round" stroke-width="2"/>
      <path d="M32.221,32.483a8.145,8.145,0,0,0,8.146-8.145c-1.26,0-3.267,1.056-4.394,1.618" fill="none" stroke="#e86a13" stroke-linecap="round" stroke-linejoin="round" stroke-width="2"/>
      <path d="M32.221,32.483A9.644,9.644,0,0,0,32.6,18.849q-.185-.195-.379-.379A9.645,9.645,0,0,0,31.843,32.1q.185.2.378.378" fill="none" stroke="#e86a13" stroke-linecap="round" stroke-linejoin="round" stroke-width="2"/>
      <path d="M25.908,30.122a15.373,15.373,0,0,0-2.274,1.739,6.026,6.026,0,0,0,8.492.705l.095-.083" fill="none" stroke="#e86a13" stroke-linecap="round" stroke-linejoin="round" stroke-width="2"/>
      <path d="M38.535,30.122a15.365,15.365,0,0,1,2.273,1.739,6.025,6.025,0,0,1-8.492.705l-.1-.083" fill="none" stroke="#e86a13" stroke-linecap="round" stroke-linejoin="round" stroke-width="2"/>
    </g>
    <rect x="23.607" y="37.956" width="17.229" height="4.468" stroke-width="2" stroke="#e86a13" stroke-linecap="round" stroke-linejoin="round" fill="none"/>
  </g>
</svg>
