<svg xmlns="http://www.w3.org/2000/svg" width="64" height="64" viewBox="0 0 64 64">
  <g>
    <circle cx="45.891" cy="17.179" r="13.5" fill="#fce4cd"/>
    <path d="M45.544,55.785V40.953A18.2,18.2,0,1,0,15.2,27.411v1.517l-3.792,8.344L15.2,39.547v6.068a4.551,4.551,0,0,0,4.551,4.551h6.517v5.619Z" fill="none" stroke="#e86a13" stroke-linecap="round" stroke-linejoin="round" stroke-width="2"/>
    <g>
      <path d="M32.773,35.527A10.943,10.943,0,0,1,21.83,24.584c1.692,0,4.389,1.418,5.9,2.174" fill="none" stroke="#e86a13" stroke-linecap="round" stroke-linejoin="round" stroke-width="2"/>
      <path d="M32.773,35.527A10.943,10.943,0,0,0,43.717,24.584c-1.692,0-4.39,1.418-5.9,2.174" fill="none" stroke="#e86a13" stroke-linecap="round" stroke-linejoin="round" stroke-width="2"/>
      <path d="M32.773,35.527a12.959,12.959,0,0,0,.509-18.319q-.248-.261-.509-.508a12.959,12.959,0,0,0-.508,18.319c.164.174.334.343.508.508" fill="none" stroke="#e86a13" stroke-linecap="round" stroke-linejoin="round" stroke-width="2"/>
      <path d="M24.291,32.354a20.779,20.779,0,0,0-3.055,2.337,8.1,8.1,0,0,0,11.41.946c.043-.036.085-.073.127-.11" fill="none" stroke="#e86a13" stroke-linecap="round" stroke-linejoin="round" stroke-width="2"/>
      <path d="M41.256,32.354a20.824,20.824,0,0,1,3.054,2.337,8.094,8.094,0,0,1-11.409.946l-.128-.11" fill="none" stroke="#e86a13" stroke-linecap="round" stroke-linejoin="round" stroke-width="2"/>
    </g>
  </g>
</svg>
