<svg xmlns="http://www.w3.org/2000/svg" width="64" height="64" viewBox="0 0 64 64">
  <g>
    <circle cx="38.82" cy="26.127" r="13.5" fill="#fce4cd"/>
    <g>
      <line x1="15.489" y1="12.224" x2="15.489" y2="13.703" fill="none" stroke="#e86a13" stroke-linecap="round" stroke-linejoin="round" stroke-width="2"/>
      <line x1="21.242" y1="14.607" x2="20.196" y2="15.653" fill="none" stroke="#e86a13" stroke-linecap="round" stroke-linejoin="round" stroke-width="2"/>
      <line x1="23.625" y1="20.36" x2="22.146" y2="20.36" fill="none" stroke="#e86a13" stroke-linecap="round" stroke-linejoin="round" stroke-width="2"/>
      <line x1="21.242" y1="26.113" x2="20.196" y2="25.067" fill="none" stroke="#e86a13" stroke-linecap="round" stroke-linejoin="round" stroke-width="2"/>
      <line x1="15.489" y1="28.496" x2="15.489" y2="27.016" fill="none" stroke="#e86a13" stroke-linecap="round" stroke-linejoin="round" stroke-width="2"/>
      <line x1="9.737" y1="26.113" x2="10.782" y2="25.067" fill="none" stroke="#e86a13" stroke-linecap="round" stroke-linejoin="round" stroke-width="2"/>
      <line x1="7.354" y1="20.36" x2="8.833" y2="20.36" fill="none" stroke="#e86a13" stroke-linecap="round" stroke-linejoin="round" stroke-width="2"/>
      <line x1="9.737" y1="14.607" x2="10.782" y2="15.653" fill="none" stroke="#e86a13" stroke-linecap="round" stroke-linejoin="round" stroke-width="2"/>
      <circle cx="15.489" cy="20.36" r="3.698" fill="none" stroke="#e86a13" stroke-linecap="round" stroke-linejoin="round" stroke-width="2"/>
    </g>
    <g>
      <path d="M40.308,27.044a21.358,21.358,0,0,0,2.9,3.541c1.288,1.095,1.417,2.511.9,4.185s-1.758,7.715-1.758,7.715,3.367-2.436,10.256-.89c2,1.609-1.352,11.975-1.352,11.975s-1.094,2.64.644,3.09a9.409,9.409,0,0,1,3.541,2.382H48.569A1.305,1.305,0,0,1,47.3,57.431a6.41,6.41,0,0,1,.728-2.015c.585-.741-.7-7.448,1.17-9.437A11.672,11.672,0,0,1,39.646,48.2c-3.163,5.315-9.4,5.615-12.6,5.732s-10.919-.312-13.375-.2S11.3,54.987,11.3,54.987l.9,4.055H10.922a2.058,2.058,0,0,1-1.808-1.074l-.3-.556a2.058,2.058,0,0,1-.25-.989l.012-4.608a1.718,1.718,0,0,1,2.395-1.331,2.466,2.466,0,0,1,.406.214c.624.429,6.122-1.6,9.787-.741s7.542-3.578,11.09-3.578a7.844,7.844,0,0,1,3.419-4.349,3.788,3.788,0,0,0,1.659-4.2c-.751-2.762-2.447-6.261-1.857-9.084a39.186,39.186,0,0,0,.468-10.138,39.215,39.215,0,0,0-1.248-7.253c-.546-1.287-1.832-6.395,0-6.395S37.5,6.4,37.267,9.988c-.039,2.846.624,4.289,1.56,7.409A66.048,66.048,0,0,1,40.308,27.044Z" fill="none" stroke="#e86a13" stroke-linecap="round" stroke-linejoin="round" stroke-width="2"/>
      <path d="M38.827,17.4s2.051-.545,2.573,1.1.322,1.99.845,2.956,1.327,4.6-1.649,4.082" fill="none" stroke="#e86a13" stroke-linecap="round" stroke-linejoin="round" stroke-width="2"/>
      <path d="M35.941,18.606s-2.463-1.915-3.629-.869-1.166,3.405,0,3.713,2.232,3.123,3.629,3.123" fill="none" stroke="#e86a13" stroke-linecap="round" stroke-linejoin="round" stroke-width="2"/>
      <path d="M35.708,32.581s4.974,3.32,6.24-3.322" fill="none" stroke="#e86a13" stroke-linecap="round" stroke-linejoin="round" stroke-width="2"/>
    </g>
  </g>
</svg>
