<svg xmlns="http://www.w3.org/2000/svg" width="64" height="64" viewBox="0 0 64 64">
  <g>
    <circle cx="46.807" cy="16.56" r="13.5" fill="#fce4cd"/>
    <path d="M50.133,51.1v-.067a3.661,3.661,0,0,1-3.661,3.661H17.508a3.661,3.661,0,0,1-3.661-3.661V51.1" fill="none" stroke="#e86a13" stroke-linecap="round" stroke-linejoin="round" stroke-width="2"/>
    <g>
      <rect x="12.777" y="11.935" width="38.445" height="39.636" rx="3.661" stroke-width="2" stroke="#e86a13" stroke-linecap="round" stroke-linejoin="round" fill="none"/>
      <line x1="21.931" y1="14.506" x2="21.931" y2="9.2" fill="none" stroke="#e86a13" stroke-linecap="round" stroke-linejoin="round" stroke-width="2"/>
      <line x1="42.069" y1="14.506" x2="42.069" y2="9.2" fill="none" stroke="#e86a13" stroke-linecap="round" stroke-linejoin="round" stroke-width="2"/>
      <line x1="12.777" y1="19.099" x2="51.223" y2="19.099" fill="none" stroke="#e86a13" stroke-linecap="round" stroke-linejoin="round" stroke-width="2"/>
    </g>
    <circle cx="32" cy="26.857" r="2.958" fill="none" stroke="#e86a13" stroke-linecap="round" stroke-linejoin="round" stroke-width="2"/>
    <path d="M20.906,36.865h2.143a3.278,3.278,0,0,0,2.373-1.016l2.487-2.609a2.294,2.294,0,0,1,1.662-.712h4.858a2.294,2.294,0,0,1,1.662.712l2.487,2.609a3.278,3.278,0,0,0,2.373,1.016h2.143" fill="none" stroke="#e86a13" stroke-linecap="round" stroke-linejoin="round" stroke-width="2"/>
    <g>
      <path d="M34.412,36.906l.451,1.9a1.431,1.431,0,0,0,1.421,1.264h3.255a1.947,1.947,0,0,1,1.947,1.947h0a1.946,1.946,0,0,1-1.508,1.9L25.835,46.1" fill="none" stroke="#e86a13" stroke-linecap="round" stroke-linejoin="round" stroke-width="2"/>
      <path d="M29.588,36.906l-.451,1.9a1.431,1.431,0,0,1-1.421,1.264H24.461a1.947,1.947,0,0,0-1.947,1.947h0a1.946,1.946,0,0,0,1.508,1.9L39.249,46.1" fill="none" stroke="#e86a13" stroke-linecap="round" stroke-linejoin="round" stroke-width="2"/>
    </g>
  </g>
</svg>
