<svg xmlns="http://www.w3.org/2000/svg" width="64" height="64" viewBox="0 0 64 64">
  <g>
    <circle cx="44.468" cy="46.202" r="13.5" fill="#fce4cd"/>
    <path d="M41.146,23h-.018a14.016,14.016,0,0,1-12.735-8.212,2,2,0,0,1,3.642-1.652A10.012,10.012,0,0,0,41.132,19,10.211,10.211,0,0,0,48.2,16.073,2,2,0,1,1,51.032,18.9,14.053,14.053,0,0,1,41.146,23Z" fill="none" stroke="#e86a13" stroke-linecap="round" stroke-linejoin="round" stroke-width="2"/>
    <path d="M32.291,37.99c6.6.656,7.934-2.923,9.17-5.539C42.514,30.226,43.093,29,46.131,29c4.094,0,5.959,4.666,5.959,9,0,4.962-3.141,9-7,9-4.6,0-4.959-4.592-4.959-6a2,2,0,0,0-2.265-1.983,2.107,2.107,0,0,0-1.734,2.16C36.2,46.1,38.975,51,45.09,51c6.065,0,11-5.832,11-13,0-7.654-4.1-13-9.959-13-5.571,0-7.141,3.319-8.286,5.742-1.111,2.351-1.728,3.644-5.51,3.268l-.01,0-2.553-.685" fill="none" stroke="#e86a13" stroke-linecap="round" stroke-linejoin="round" stroke-width="2"/>
    <circle cx="39.131" cy="12" r="2" fill="none" stroke="#e86a13" stroke-linecap="round" stroke-linejoin="round" stroke-width="2"/>
    <path d="M22.131,55c-7.982,0-14-6.878-14-16a2,2,0,0,1,4,0c0,6.953,4.206,12,10,12,1.877,0,8-.433,8-6,0-4.86-3.141-8-8-8h-2a2,2,0,0,1,0-4c3.341,0,8-2.283,8-6,0-1.2-.487-4-5-4-4.083,0-7.556,3.384-7.59,3.418a2,2,0,0,1-2.824-2.832C12.9,23.4,17.369,19,23.131,19c6.217,0,9,4.018,9,8a9.181,9.181,0,0,1-4.025,7.392A11.5,11.5,0,0,1,34.131,45C34.131,51.075,29.421,55,22.131,55Z" fill="none" stroke="#e86a13" stroke-linecap="round" stroke-linejoin="round" stroke-width="2"/>
  </g>
</svg>
