<svg xmlns="http://www.w3.org/2000/svg" width="64" height="64" viewBox="0 0 64 64">
  <g>
    <circle cx="17.977" cy="17.977" r="13.5" fill="#fce4cd"/>
    <g>
      <path d="M32.977,6.966l1.68,1.743a3.548,3.548,0,0,0,4.222.669L41.016,8.24l1.059,2.176a3.547,3.547,0,0,0,3.809,1.941l2.384-.423.334,2.4a3.548,3.548,0,0,0,3.024,3.023l2.4.335L53.6,20.073a3.549,3.549,0,0,0,1.94,3.81l2.177,1.059-1.139,2.137a3.544,3.544,0,0,0,.67,4.222l1.739,1.676-1.743,1.68a3.548,3.548,0,0,0-.669,4.222l1.138,2.137-2.176,1.059a3.545,3.545,0,0,0-1.94,3.809l.422,2.384-2.4.334A3.548,3.548,0,0,0,48.6,51.626l-.335,2.4L45.881,53.6a3.549,3.549,0,0,0-3.81,1.94l-1.059,2.177-2.136-1.139a3.543,3.543,0,0,0-4.222.67l-1.677,1.739L31.3,57.245a3.548,3.548,0,0,0-4.222-.669l-2.136,1.138-1.06-2.176A3.545,3.545,0,0,0,20.07,53.6l-2.384.422-.334-2.4A3.548,3.548,0,0,0,14.329,48.6l-2.4-.335.422-2.383a3.548,3.548,0,0,0-1.94-3.81L8.236,41.012l1.139-2.136a3.545,3.545,0,0,0-.669-4.222l-1.74-1.677L8.709,31.3a3.548,3.548,0,0,0,.669-4.222L8.24,24.939l2.176-1.06a3.547,3.547,0,0,0,1.941-3.809l-.423-2.384,2.4-.334a3.548,3.548,0,0,0,3.023-3.023l.335-2.4,2.383.422a3.548,3.548,0,0,0,3.81-1.94l1.059-2.177,2.137,1.139A3.545,3.545,0,0,0,31.3,8.706Z" fill="none" stroke="#e86a13" stroke-linecap="round" stroke-linejoin="round" stroke-width="2"/>
      <path d="M32.977,14.1A18.875,18.875,0,1,0,51.852,32.977,18.873,18.873,0,0,0,32.977,14.1Z" fill="none" stroke="#e86a13" stroke-linecap="round" stroke-linejoin="round" stroke-width="2"/>
    </g>
    <g>
      <circle cx="32.977" cy="24.01" r="3.257" fill="none" stroke="#e86a13" stroke-linecap="round" stroke-linejoin="round" stroke-width="2"/>
      <path d="M20.761,35.031h2.36a3.611,3.611,0,0,0,2.612-1.119l2.739-2.873a2.527,2.527,0,0,1,1.83-.784h5.35a2.527,2.527,0,0,1,1.83.784l2.739,2.873a3.611,3.611,0,0,0,2.612,1.119h2.36" fill="none" stroke="#e86a13" stroke-linecap="round" stroke-linejoin="round" stroke-width="2"/>
      <g>
        <path d="M35.633,33.58l.5,3.589a1.576,1.576,0,0,0,1.565,1.392h3.585a2.144,2.144,0,0,1,2.144,2.144h0a2.145,2.145,0,0,1-1.662,2.089L27.684,45.2" fill="none" stroke="#e86a13" stroke-linecap="round" stroke-linejoin="round" stroke-width="2"/>
        <path d="M30.321,33.58l-.5,3.589a1.576,1.576,0,0,1-1.565,1.392H24.675a2.144,2.144,0,0,0-2.144,2.144h0a2.145,2.145,0,0,0,1.662,2.089L39.464,45.2" fill="none" stroke="#e86a13" stroke-linecap="round" stroke-linejoin="round" stroke-width="2"/>
      </g>
    </g>
  </g>
</svg>
