<svg xmlns="http://www.w3.org/2000/svg" width="64" height="64" viewBox="0 0 64 64">
  <g>
    <circle cx="42.358" cy="20.708" r="13.5" fill="#fce4cd"/>
    <g>
      <path d="M40.529,52.763V53.3a1.718,1.718,0,0,1-1.718,1.718H25.565A1.718,1.718,0,0,1,23.847,53.3V29.165a8.183,8.183,0,0,1,1.4-4.2h0a2.451,2.451,0,0,0,0-2.942l-.909-1.212a2.45,2.45,0,0,1-.49-1.47V15.156a2.5,2.5,0,0,1,2.5-2.5H38.027a2.5,2.5,0,0,1,2.5,2.5v4.189a2.45,2.45,0,0,1-.49,1.47l-.909,1.212a2.451,2.451,0,0,0,0,2.942l.732.975c.433.578.667,8.28.667,9V52.763" fill="none" stroke="#e86a13" stroke-linecap="round" stroke-linejoin="round" stroke-width="2"/>
      <path d="M36.027,12.654V9.986a1.668,1.668,0,0,0-1.669-1.668H33.69v-1.5a.834.834,0,0,0-.834-.834H30.52a.835.835,0,0,0-.835.834v1.5h-.668a1.668,1.668,0,0,0-1.668,1.668v2.668" fill="none" stroke="#e86a13" stroke-linecap="round" stroke-linejoin="round" stroke-width="2"/>
    </g>
    <path d="M28.917,33.082c0-1.965,3.271-4.991,3.271-4.991s3.271,3.026,3.271,4.991a3.272,3.272,0,0,1-6.542,0Z" fill="none" stroke="#e86a13" stroke-linecap="round" stroke-linejoin="round" stroke-width="2"/>
    <line x1="40.128" y1="47.341" x2="24.247" y2="47.341" fill="none" stroke="#e86a13" stroke-linecap="round" stroke-linejoin="round" stroke-width="2"/>
    <line x1="24.247" y1="41.561" x2="40.128" y2="41.561" fill="none" stroke="#e86a13" stroke-linecap="round" stroke-linejoin="round" stroke-width="2"/>
    <path d="M23.777,52.666c-4.893.339-8.235,1.021-8.235,1.806,0,.526,1.51,1,3.967,1.364-.553.211-.868.436-.868.672,0,1.124,6.846,2.035,15.292,2.035s15.292-.911,15.292-2.035c0-.526-1.509-1-3.967-1.365.553-.21.869-.435.869-.671,0-.625-2.116-1.184-5.446-1.558" fill="none" stroke="#e86a13" stroke-linecap="round" stroke-linejoin="round" stroke-width="2"/>
  </g>
</svg>
