<svg xmlns="http://www.w3.org/2000/svg" width="64" height="64" viewBox="0 0 64 64">
  <g>
    <circle cx="46.019" cy="21.23" r="13.5" fill="#fce4cd"/>
    <rect x="9.959" y="52.349" width="46.082" height="3.67" stroke-width="2" stroke="#e86a13" stroke-linecap="round" stroke-linejoin="round" fill="none"/>
    <path d="M17.784,51.861l4.4-7.616a1.323,1.323,0,0,1,2.291,0l4.4,7.616" fill="none" stroke="#e86a13" stroke-linecap="round" stroke-linejoin="round" stroke-width="2"/>
    <path d="M29.948,7.981v1.2a7.487,7.487,0,0,1-7.486,7.486H17.747A5.744,5.744,0,0,0,12,22.412h0a5.745,5.745,0,0,0,5.744,5.745H41.016a3.222,3.222,0,0,1,3.223,3.222h0A3.223,3.223,0,0,1,41.016,34.6H31.1a7.128,7.128,0,0,0-6.845,5.137h0" fill="none" stroke="#e86a13" stroke-linecap="round" stroke-linejoin="round" stroke-width="2"/>
    <path d="M20.7,47.865l1.055.641a2.5,2.5,0,0,0,2.939-.248l1.423-1.233" fill="none" stroke="#e86a13" stroke-linecap="round" stroke-linejoin="round" stroke-width="2"/>
    <rect x="28.625" y="20.168" width="3.545" height="22.745" rx="1.772" transform="translate(-13.4 30.733) rotate(-45)" stroke-width="2" stroke="#e86a13" stroke-linecap="round" stroke-linejoin="round" fill="none"/>
    <line x1="38.775" y1="39.918" x2="50.761" y2="51.904" fill="none" stroke="#e86a13" stroke-linecap="round" stroke-linejoin="round" stroke-width="2"/>
  </g>
</svg>
