<svg xmlns="http://www.w3.org/2000/svg" width="64" height="64" viewBox="0 0 64 64">
  <g>
    <circle cx="17.798" cy="44.129" r="13.5" fill="#fce4cd"/>
    <circle cx="32.758" cy="32.118" r="23.691" fill="none" stroke="#e86a13" stroke-linecap="round" stroke-linejoin="round" stroke-width="2"/>
    <path d="M5.4,23.318a2.487,2.487,0,0,0,2.475,2.5h8.084a3.109,3.109,0,0,0,.691-6.139,4.659,4.659,0,0,0-9.071,1.184A2.487,2.487,0,0,0,5.4,23.318Z" fill="#fff" stroke="#e86a13" stroke-linecap="round" stroke-linejoin="round" stroke-width="2"/>
    <path d="M41.145,14.772a2.486,2.486,0,0,0,2.475,2.5H51.7a3.109,3.109,0,0,0,.691-6.139,4.659,4.659,0,0,0-9.071,1.184A2.487,2.487,0,0,0,41.145,14.772Z" fill="#fff" stroke="#e86a13" stroke-linecap="round" stroke-linejoin="round" stroke-width="2"/>
    <g>
      <circle cx="32.882" cy="20.641" r="3.868" fill="none" stroke="#e86a13" stroke-linecap="round" stroke-linejoin="round" stroke-width="2"/>
      <path d="M18.374,33.729h2.8a4.284,4.284,0,0,0,3.1-1.329l3.253-3.412a3,3,0,0,1,2.174-.931h6.353a3,3,0,0,1,2.174.931L41.485,32.4a4.284,4.284,0,0,0,3.1,1.329h2.8" fill="none" stroke="#e86a13" stroke-linecap="round" stroke-linejoin="round" stroke-width="2"/>
      <g>
        <path d="M36.036,32.006l.59,4.262a1.87,1.87,0,0,0,1.858,1.653h4.257a2.547,2.547,0,0,1,2.547,2.547h0a2.547,2.547,0,0,1-1.973,2.481L26.6,45.808" fill="none" stroke="#e86a13" stroke-linecap="round" stroke-linejoin="round" stroke-width="2"/>
        <path d="M29.728,32.006l-.59,4.262a1.869,1.869,0,0,1-1.858,1.653H23.023a2.547,2.547,0,0,0-2.547,2.547h0a2.547,2.547,0,0,0,1.973,2.481l18.137,2.859" fill="none" stroke="#e86a13" stroke-linecap="round" stroke-linejoin="round" stroke-width="2"/>
      </g>
    </g>
  </g>
</svg>
