<svg xmlns="http://www.w3.org/2000/svg" width="64" height="64" viewBox="0 0 64 64">
  <g>
    <circle cx="17.358" cy="44.708" r="13.5" fill="#fce4cd"/>
    <g>
      <g>
        <polyline points="37.951 50.886 37.951 42.375 26.05 42.375 26.05 50.886" fill="none" stroke="#e86a13" stroke-linecap="round" stroke-linejoin="round" stroke-width="2"/>
        <line x1="32.106" y1="38.685" x2="32.098" y2="41.413" fill="none" stroke="#e86a13" stroke-linecap="round" stroke-linejoin="round" stroke-width="2"/>
        <path d="M32.182,26.175C29,27.849,24.088,38.37,32.123,38.68c6.208.241,5.462-8.216.059-12.5Z" fill="none" stroke="#e86a13" stroke-linecap="round" stroke-linejoin="round" stroke-width="2"/>
        <path d="M32.156,31.5c-1.823.961-4.648,7-.033,7.182,3.566.139,3.137-4.72.033-7.182Z" fill="none" stroke="#e86a13" stroke-linecap="round" stroke-linejoin="round" stroke-width="2"/>
      </g>
      <path d="M37.676,46.921a8.914,8.914,0,0,1-5.289-.487,8.919,8.919,0,0,0-6.338-.2" fill="none" stroke="#e86a13" stroke-linecap="round" stroke-linejoin="round" stroke-width="2"/>
    </g>
    <circle cx="32" cy="36.009" r="16.513" fill="none" stroke="#e86a13" stroke-linecap="round" stroke-linejoin="round" stroke-width="2"/>
    <path d="M41.806,15.084a23.1,23.1,0,1,1-19.522-.042l-.526-.733a12.589,12.589,0,0,1-2.4-7.421H44.647a12.593,12.593,0,0,1-2.839,7.985Z" fill="none" stroke="#e86a13" stroke-linecap="round" stroke-linejoin="round" stroke-width="2"/>
    <line x1="20.636" y1="10.318" x2="43.935" y2="10.318" fill="none" stroke="#e86a13" stroke-linecap="round" stroke-linejoin="round" stroke-width="2"/>
  </g>
</svg>
