<svg xmlns="http://www.w3.org/2000/svg" width="64" height="64" viewBox="0 0 64 64">
  <g>
    <circle cx="46.918" cy="20.597" r="13.5" fill="#fce4cd"/>
    <g>
      <path d="M32.116,8.332a.208.208,0,0,0-.232,0L10.97,22.162a2.507,2.507,0,0,0-1.124,2.092h0a2.508,2.508,0,0,0,2.508,2.508h.571a2.511,2.511,0,0,0,1.346-.392L32,15.092,49.729,26.37a2.511,2.511,0,0,0,1.346.392h.571a2.508,2.508,0,0,0,2.508-2.508h0a2.507,2.507,0,0,0-1.124-2.092Z" fill="none" stroke="#e86a13" stroke-linecap="round" stroke-linejoin="round" stroke-width="2"/>
      <line x1="13.351" y1="26.762" x2="13.351" y2="45.991" fill="none" stroke="#e86a13" stroke-linecap="round" stroke-linejoin="round" stroke-width="2"/>
      <rect x="7.805" y="51.38" width="48.389" height="4.323" stroke-width="2" stroke="#e86a13" stroke-linecap="round" stroke-linejoin="round" fill="none"/>
      <polyline points="14.494 19.732 14.494 12.039 19.485 12.039 19.485 16.531" fill="none" stroke="#e86a13" stroke-linecap="round" stroke-linejoin="round" stroke-width="2"/>
      <line x1="51.358" y1="46.481" x2="51.358" y2="27.968" fill="none" stroke="#e86a13" stroke-linecap="round" stroke-linejoin="round" stroke-width="2"/>
      <path d="M21.93,50.616a2.984,2.984,0,0,0-4.624-2.5,4.144,4.144,0,0,0-7.46,2.5" fill="none" stroke="#e86a13" stroke-linecap="round" stroke-linejoin="round" stroke-width="2"/>
      <path d="M41.628,50.616a2.984,2.984,0,0,1,4.624-2.5,4.144,4.144,0,0,1,7.46,2.5" fill="none" stroke="#e86a13" stroke-linecap="round" stroke-linejoin="round" stroke-width="2"/>
    </g>
    <g>
      <circle cx="32" cy="25.425" r="3.113" fill="none" stroke="#e86a13" stroke-linecap="round" stroke-linejoin="round" stroke-width="2"/>
      <path d="M20.324,35.958H22.58a3.448,3.448,0,0,0,2.5-1.069l2.618-2.746a2.415,2.415,0,0,1,1.75-.75h5.112a2.415,2.415,0,0,1,1.75.75l2.618,2.746a3.448,3.448,0,0,0,2.5,1.069h2.256" fill="none" stroke="#e86a13" stroke-linecap="round" stroke-linejoin="round" stroke-width="2"/>
      <g>
        <path d="M34.539,34.572,35.013,38a1.505,1.505,0,0,0,1.5,1.33h3.427a2.049,2.049,0,0,1,2.049,2.05h0a2.048,2.048,0,0,1-1.588,2l-13.455,2.3" fill="none" stroke="#e86a13" stroke-linecap="round" stroke-linejoin="round" stroke-width="2"/>
        <path d="M29.461,34.572,28.987,38a1.505,1.505,0,0,1-1.495,1.33H24.065a2.049,2.049,0,0,0-2.049,2.05h0a2.048,2.048,0,0,0,1.588,2l14.6,2.3" fill="none" stroke="#e86a13" stroke-linecap="round" stroke-linejoin="round" stroke-width="2"/>
      </g>
    </g>
  </g>
</svg>
