<svg xmlns="http://www.w3.org/2000/svg" width="64" height="64" viewBox="0 0 64 64">
  <g>
    <circle cx="32" cy="19" r="13.5" fill="#fce4cd"/>
    <g>
      <rect x="8.965" y="9.448" width="46.069" height="45.104" rx="1.783" stroke-width="2" stroke="#e86a13" stroke-linecap="round" stroke-linejoin="round" fill="none"/>
      <g>
        <line x1="14.365" y1="49.361" x2="49.162" y2="49.361" fill="none" stroke="#e86a13" stroke-linecap="round" stroke-linejoin="round" stroke-width="2"/>
        <line x1="21.739" y1="47.706" x2="21.739" y2="51.017" fill="none" stroke="#e86a13" stroke-linecap="round" stroke-linejoin="round" stroke-width="2"/>
      </g>
      <line x1="8.965" y1="43.985" x2="54.059" y2="43.985" fill="none" stroke="#e86a13" stroke-linecap="round" stroke-linejoin="round" stroke-width="2"/>
    </g>
    <g>
      <circle cx="32" cy="18.925" r="3.113" fill="none" stroke="#e86a13" stroke-linecap="round" stroke-linejoin="round" stroke-width="2"/>
      <path d="M20.324,29.458H22.58a3.448,3.448,0,0,0,2.5-1.069l2.618-2.746a2.415,2.415,0,0,1,1.75-.75h5.112a2.415,2.415,0,0,1,1.75.75l2.618,2.746a3.448,3.448,0,0,0,2.5,1.069h2.256" fill="none" stroke="#e86a13" stroke-linecap="round" stroke-linejoin="round" stroke-width="2"/>
      <g>
        <path d="M34.539,28.072l.474,3.43a1.505,1.505,0,0,0,1.5,1.33h3.427a2.049,2.049,0,0,1,2.049,2.05h0a2.048,2.048,0,0,1-1.588,2l-13.455,2.3" fill="none" stroke="#e86a13" stroke-linecap="round" stroke-linejoin="round" stroke-width="2"/>
        <path d="M29.461,28.072l-.474,3.43a1.505,1.505,0,0,1-1.495,1.33H24.065a2.049,2.049,0,0,0-2.049,2.05h0a2.048,2.048,0,0,0,1.588,2l14.6,2.3" fill="none" stroke="#e86a13" stroke-linecap="round" stroke-linejoin="round" stroke-width="2"/>
      </g>
    </g>
  </g>
</svg>
