<svg xmlns="http://www.w3.org/2000/svg" width="64" height="64" viewBox="0 0 64 64">
  <g>
    <circle cx="46" cy="22" r="13.5" fill="#fce4cd"/>
    <line x1="14.318" y1="54.199" x2="52.027" y2="54.199" fill="#fff" stroke="#e86a13" stroke-linecap="round" stroke-linejoin="round" stroke-width="2"/>
    <path d="M29.151,19.148c-4.411-.2-7.766-2.583-7.64-5.437S25.191,8.775,29.6,8.97s7.766,2.583,7.639,5.437S33.562,19.343,29.151,19.148Z" fill="none" stroke="#e86a13" stroke-linecap="round" stroke-linejoin="round" stroke-width="2"/>
    <path d="M34,29.5c-8.872-.314-11.94-3.055-11.853-5.516.067-1.9,1.643-5.04,11.436-4.693,6.167.218,16.49,1.245,16.333,5.675C49.764,29.176,41.175,29.756,34,29.5Z" fill="none" stroke="#e86a13" stroke-linecap="round" stroke-linejoin="round" stroke-width="2"/>
    <path d="M32.285,54.269c-14.368.417-17.486-3.02-17.572-5.977-.188-6.48,12.9-6.859,17.2-6.984,13.866-.4,21.566,1.634,21.685,5.731C53.716,51.239,45.949,53.873,32.285,54.269Z" fill="none" stroke="#e86a13" stroke-linecap="round" stroke-linejoin="round" stroke-width="2"/>
    <path d="M28.444,41.28c-10.533-.31-15.815-2.491-15.7-6.484s5.517-5.861,16.05-5.552c12.669.372,20.167,2.844,20.056,6.612S41.113,41.652,28.444,41.28Z" fill="none" stroke="#e86a13" stroke-linecap="round" stroke-linejoin="round" stroke-width="2"/>
  </g>
</svg>
