<svg xmlns="http://www.w3.org/2000/svg" width="64" height="64" viewBox="0 0 64 64">
  <g>
    <circle cx="45.507" cy="45.672" r="13.5" fill="#fce4cd"/>
    <path d="M54.347,24.615c2.525,1.513,2.09,4.756,4.487,6.783a.456.456,0,0,1,0,.7c-2.4,2.026-1.962,5.269-4.487,6.783a3.968,3.968,0,0,1-2.134.525.462.462,0,0,0-.328.791,3.967,3.967,0,0,1,1.138,1.881c.715,2.856-1.886,4.841-1.623,7.968a.457.457,0,0,1-.492.492c-3.128-.262-5.113,2.338-7.969,1.623a3.969,3.969,0,0,1-1.88-1.138.462.462,0,0,0-.791.328,3.975,3.975,0,0,1-.526,2.135c-1.513,2.525-4.756,2.089-6.782,4.486a.456.456,0,0,1-.7,0c-2.027-2.4-5.27-1.961-6.783-4.486a3.984,3.984,0,0,1-.526-2.135.462.462,0,0,0-.79-.328,3.977,3.977,0,0,1-1.881,1.138c-2.856.715-4.841-1.885-7.969-1.623a.456.456,0,0,1-.491-.492c.262-3.127-2.339-5.112-1.623-7.968a3.973,3.973,0,0,1,1.137-1.881.462.462,0,0,0-.327-.791,3.972,3.972,0,0,1-2.135-.525c-2.525-1.514-2.089-4.757-4.487-6.783a.456.456,0,0,1,0-.7c2.4-2.026,1.962-5.269,4.487-6.783a3.972,3.972,0,0,1,2.135-.525.462.462,0,0,0,.327-.791A3.978,3.978,0,0,1,12.2,21.418c-.716-2.856,1.885-4.841,1.623-7.969a.455.455,0,0,1,.491-.491c3.128.262,5.113-2.338,7.969-1.623a3.983,3.983,0,0,1,1.881,1.137.461.461,0,0,0,.79-.327,3.984,3.984,0,0,1,.526-2.135C27,7.485,30.238,7.921,32.265,5.524a.456.456,0,0,1,.7,0c2.026,2.4,5.269,1.961,6.782,4.486a3.975,3.975,0,0,1,.526,2.135.462.462,0,0,0,.791.327,3.975,3.975,0,0,1,1.88-1.137c2.856-.715,4.841,1.885,7.969,1.623a.457.457,0,0,1,.492.491c-.263,3.128,2.338,5.113,1.623,7.969A3.972,3.972,0,0,1,51.885,23.3a.462.462,0,0,0,.328.791A3.968,3.968,0,0,1,54.347,24.615Z" fill="none" stroke="#e86a13" stroke-linecap="round" stroke-linejoin="round" stroke-width="2"/>
    <circle cx="32.612" cy="31.745" r="18.975" fill="none" stroke="#e86a13" stroke-linecap="round" stroke-linejoin="round" stroke-width="2"/>
    <circle cx="32.612" cy="31.745" r="13.34" fill="none" stroke="#e86a13" stroke-linecap="round" stroke-linejoin="round" stroke-width="2"/>
    <path d="M32.6,18.482a6.379,6.379,0,1,1-6.379,6.378A6.378,6.378,0,0,1,32.6,18.482Z" fill="none" stroke="#e86a13" stroke-linecap="round" stroke-linejoin="round" stroke-width="2"/>
  </g>
</svg>
