<svg xmlns="http://www.w3.org/2000/svg" width="64" height="64" viewBox="0 0 64 64">
  <g>
    <circle cx="17.019" cy="46.541" r="13.5" fill="#fce4cd"/>
    <path d="M56.184,22.5c-1.217,1.978-.821,3.537-2.031,4.6a.572.572,0,0,0,.192.967c1.524.516,1.754,2.108,3.635,3.469a.575.575,0,0,1,0,.933c-1.881,1.362-2.111,2.953-3.635,3.469a.572.572,0,0,0-.192.967c1.21,1.06.814,2.619,2.031,4.6a.575.575,0,0,1-.357.862c-2.259.538-3.081,1.921-4.687,1.814a.572.572,0,0,0-.547.82c.713,1.442-.25,2.731.118,5.023a.576.576,0,0,1-.66.66c-2.293-.367-3.582.6-5.024-.117a.572.572,0,0,0-.82.547c.107,1.606-1.276,2.428-1.814,4.686a.575.575,0,0,1-.862.357c-1.977-1.217-3.536-.82-4.6-2.031a.572.572,0,0,0-.966.192c-.516,1.525-2.108,1.755-3.469,3.636a.576.576,0,0,1-.934,0c-1.361-1.881-2.953-2.111-3.469-3.636a.572.572,0,0,0-.966-.192c-1.06,1.211-2.619.814-4.6,2.031a.575.575,0,0,1-.862-.357c-.539-2.258-1.921-3.08-1.814-4.686a.572.572,0,0,0-.82-.547c-1.442.713-2.731-.25-5.024.117a.575.575,0,0,1-.66-.66c.368-2.292-.6-3.581.118-5.023a.572.572,0,0,0-.547-.82c-1.606.107-2.428-1.276-4.687-1.814a.576.576,0,0,1-.357-.862c1.217-1.977.821-3.536,2.031-4.6a.572.572,0,0,0-.192-.967C8.2,35.413,7.967,33.822,6.086,32.46a.575.575,0,0,1,0-.933c1.881-1.361,2.111-2.953,3.635-3.469a.572.572,0,0,0,.192-.967C8.7,26.032,9.1,24.473,7.882,22.5a.576.576,0,0,1,.357-.862c2.259-.538,3.081-1.92,4.687-1.814A.572.572,0,0,0,13.473,19c-.713-1.443.25-2.731-.118-5.024a.576.576,0,0,1,.66-.66c2.293.367,3.582-.6,5.024.118a.572.572,0,0,0,.82-.548c-.107-1.6,1.275-2.427,1.814-4.686a.575.575,0,0,1,.862-.357c1.977,1.217,3.536.82,4.6,2.031a.572.572,0,0,0,.966-.192c.516-1.525,2.108-1.754,3.469-3.635a.575.575,0,0,1,.934,0c1.361,1.881,2.953,2.11,3.469,3.635a.572.572,0,0,0,.966.192c1.06-1.211,2.619-.814,4.6-2.031a.575.575,0,0,1,.862.357c.538,2.259,1.921,3.081,1.814,4.686a.572.572,0,0,0,.82.548c1.442-.713,2.731.25,5.024-.118a.576.576,0,0,1,.66.66c-.368,2.293.595,3.581-.118,5.024a.572.572,0,0,0,.547.819c1.606-.106,2.428,1.276,4.687,1.814A.575.575,0,0,1,56.184,22.5Z" fill="none" stroke="#e86a13" stroke-linecap="round" stroke-linejoin="round" stroke-width="2"/>
    <circle cx="32.033" cy="31.994" r="20.585" fill="none" stroke="#e86a13" stroke-linecap="round" stroke-linejoin="round" stroke-width="2"/>
    <path d="M45.808,24.177,32.63,46.916a.69.69,0,0,1-1.194,0L18.258,24.177a.69.69,0,0,1,.6-1.036H45.211A.69.69,0,0,1,45.808,24.177Z" fill="none" stroke="#e86a13" stroke-linecap="round" stroke-linejoin="round" stroke-width="2"/>
    <circle cx="32.033" cy="31.454" r="7.935" fill="none" stroke="#e86a13" stroke-linecap="round" stroke-linejoin="round" stroke-width="2"/>
  </g>
</svg>
