<svg xmlns="http://www.w3.org/2000/svg" width="64" height="64" viewBox="0 0 64 64">
  <g>
    <circle cx="46.963" cy="16.156" r="13.5" fill="#fce4cd"/>
    <path d="M57.735,24.679a.462.462,0,0,1,.2.766c-1.643,1.667-.69,3.3-1.537,4.808a3.938,3.938,0,0,1-1.281,1.352.463.463,0,0,0,0,.777A3.935,3.935,0,0,1,56.4,33.733c.847,1.506-.106,3.142,1.537,4.809a.462.462,0,0,1-.2.766c-2.256.621-2.248,2.515-3.735,3.394a3.936,3.936,0,0,1-1.785.53.462.462,0,0,0-.388.673,3.931,3.931,0,0,1,.433,1.81c-.018,1.728-1.663,2.67-1.074,4.933a.461.461,0,0,1-.56.56c-2.263-.589-3.2,1.056-4.933,1.074a3.931,3.931,0,0,1-1.81-.433.462.462,0,0,0-.673.388,3.936,3.936,0,0,1-.53,1.785c-.879,1.486-2.773,1.479-3.394,3.735a.462.462,0,0,1-.766.205c-1.667-1.643-3.3-.69-4.808-1.537a3.938,3.938,0,0,1-1.352-1.281.462.462,0,0,0-.777,0,3.938,3.938,0,0,1-1.352,1.281c-1.505.847-3.141-.106-4.808,1.537a.462.462,0,0,1-.766-.205c-.621-2.256-2.516-2.249-3.395-3.735a3.935,3.935,0,0,1-.529-1.785.462.462,0,0,0-.673-.388,3.931,3.931,0,0,1-1.81.433c-1.728-.018-2.67-1.663-4.933-1.074a.461.461,0,0,1-.56-.56c.589-2.263-1.056-3.205-1.074-4.933a3.931,3.931,0,0,1,.433-1.81.462.462,0,0,0-.388-.673,3.936,3.936,0,0,1-1.785-.53c-1.486-.879-1.479-2.773-3.735-3.394A.462.462,0,0,1,6,38.542c1.643-1.667.69-3.3,1.537-4.809a3.932,3.932,0,0,1,1.28-1.351.463.463,0,0,0,0-.777,3.935,3.935,0,0,1-1.28-1.352c-.847-1.5.106-3.141-1.537-4.808a.462.462,0,0,1,.205-.766c2.256-.621,2.249-2.515,3.735-3.394a3.936,3.936,0,0,1,1.785-.53.462.462,0,0,0,.388-.673,3.931,3.931,0,0,1-.433-1.81c.018-1.728,1.663-2.67,1.074-4.933a.461.461,0,0,1,.56-.56c2.263.589,3.2-1.056,4.933-1.074a3.931,3.931,0,0,1,1.81.433.462.462,0,0,0,.673-.388,3.936,3.936,0,0,1,.53-1.785c.879-1.487,2.773-1.479,3.394-3.735a.462.462,0,0,1,.766-.205c1.667,1.643,3.3.69,4.808,1.537a3.926,3.926,0,0,1,1.352,1.28.463.463,0,0,0,.777,0,3.941,3.941,0,0,1,1.351-1.28c1.506-.847,3.142.106,4.809-1.537a.462.462,0,0,1,.766.205c.621,2.256,2.515,2.248,3.394,3.735a3.936,3.936,0,0,1,.53,1.785.462.462,0,0,0,.673.388,3.931,3.931,0,0,1,1.81-.433c1.728.018,2.67,1.663,4.933,1.074a.461.461,0,0,1,.56.56c-.589,2.263,1.056,3.205,1.074,4.933a3.931,3.931,0,0,1-.433,1.81.461.461,0,0,0,.388.672A3.96,3.96,0,0,1,54,21.283C55.487,22.163,55.479,24.058,57.735,24.679Z" fill="none" stroke="#e86a13" stroke-linecap="round" stroke-linejoin="round" stroke-width="2"/>
    <circle cx="31.971" cy="31.993" r="21.499" fill="none" stroke="#e86a13" stroke-linecap="round" stroke-linejoin="round" stroke-width="2"/>
    <circle cx="31.971" cy="31.993" r="16.847" fill="none" stroke="#e86a13" stroke-linecap="round" stroke-linejoin="round" stroke-width="2"/>
    <path d="M35.35,39.239l-2.856,4.929a.6.6,0,0,1-1.045,0l-2.856-4.929Z" fill="none" stroke="#e86a13" stroke-linecap="round" stroke-linejoin="round" stroke-width="2"/>
    <path d="M39.55,31.993l3.673,6.34a.6.6,0,0,1-.522.906H35.35Z" fill="none" stroke="#e86a13" stroke-linecap="round" stroke-linejoin="round" stroke-width="2"/>
    <path d="M43.223,25.654,39.55,31.993l-4.2-7.245H42.7A.6.6,0,0,1,43.223,25.654Z" fill="none" stroke="#e86a13" stroke-linecap="round" stroke-linejoin="round" stroke-width="2"/>
    <path d="M32.494,19.818l2.856,4.93H28.593l2.856-4.93A.6.6,0,0,1,32.494,19.818Z" fill="none" stroke="#e86a13" stroke-linecap="round" stroke-linejoin="round" stroke-width="2"/>
    <path d="M28.593,24.748l-4.2,7.245L20.72,25.654a.6.6,0,0,1,.522-.906Z" fill="none" stroke="#e86a13" stroke-linecap="round" stroke-linejoin="round" stroke-width="2"/>
    <path d="M28.593,39.239H21.242a.6.6,0,0,1-.522-.906l3.673-6.34Z" fill="none" stroke="#e86a13" stroke-linecap="round" stroke-linejoin="round" stroke-width="2"/>
  </g>
</svg>
