<svg xmlns="http://www.w3.org/2000/svg" width="64" height="64" viewBox="0 0 64 64">
  <g>
    <circle cx="19" cy="19" r="13.5" fill="#fce4cd"/>
    <path d="M58.1,20.78a.463.463,0,0,1,.273.66c-1.581,3.028.213,6.1-1.691,8.666a4.34,4.34,0,0,1-2,1.444.459.459,0,0,0,0,.86,4.331,4.331,0,0,1,2,1.443c1.9,2.567.11,5.639,1.691,8.666a.464.464,0,0,1-.273.661c-3.259,1.023-4.163,4.464-7.324,4.933a4.349,4.349,0,0,1-2.438-.4.458.458,0,0,0-.607.607,4.357,4.357,0,0,1,.4,2.438c-.469,3.161-3.911,4.065-4.933,7.324a.464.464,0,0,1-.661.273c-3.027-1.581-6.1.213-8.666-1.691a4.331,4.331,0,0,1-1.443-2,.459.459,0,0,0-.86,0,4.34,4.34,0,0,1-1.444,2c-2.567,1.9-5.638.11-8.666,1.691a.464.464,0,0,1-.661-.273c-1.022-3.259-4.463-4.163-4.932-7.324a4.357,4.357,0,0,1,.4-2.438.458.458,0,0,0-.607-.607,4.347,4.347,0,0,1-2.438.4c-3.161-.469-4.064-3.91-7.323-4.933a.465.465,0,0,1-.274-.661c1.581-3.027-.213-6.1,1.691-8.666a4.341,4.341,0,0,1,2-1.443.459.459,0,0,0,0-.86,4.35,4.35,0,0,1-2-1.444C5.4,27.54,7.2,24.468,5.613,21.44a.464.464,0,0,1,.274-.66c3.259-1.023,4.162-4.464,7.323-4.933a4.356,4.356,0,0,1,2.438.4.458.458,0,0,0,.607-.607,4.356,4.356,0,0,1-.4-2.438c.469-3.161,3.91-4.064,4.932-7.323a.465.465,0,0,1,.661-.274c3.028,1.581,6.1-.213,8.666,1.691a4.345,4.345,0,0,1,1.444,2,.459.459,0,0,0,.86,0,4.336,4.336,0,0,1,1.443-2c2.567-1.9,5.639-.109,8.666-1.691a.465.465,0,0,1,.661.274c1.022,3.259,4.464,4.162,4.933,7.323a4.356,4.356,0,0,1-.4,2.438.458.458,0,0,0,.607.607,4.357,4.357,0,0,1,2.438-.4C53.934,16.316,54.838,19.757,58.1,20.78Z" fill="none" stroke="#e86a13" stroke-linecap="round" stroke-linejoin="round" stroke-width="2"/>
    <circle cx="31.992" cy="31.98" r="20.537" fill="none" stroke="#e86a13" stroke-linecap="round" stroke-linejoin="round" stroke-width="2"/>
    <circle cx="31.992" cy="31.98" r="15.627" fill="none" stroke="#e86a13" stroke-linecap="round" stroke-linejoin="round" stroke-width="2"/>
    <path d="M19.047,25.233,30.808,45.6a1.367,1.367,0,0,0,2.368,0l11.76-20.369a1.367,1.367,0,0,0-1.184-2.051H20.231A1.367,1.367,0,0,0,19.047,25.233Z" fill="none" stroke="#e86a13" stroke-linecap="round" stroke-linejoin="round" stroke-width="2"/>
  </g>
</svg>
