<svg xmlns="http://www.w3.org/2000/svg" width="64" height="64" viewBox="0 0 64 64">
  <g>
    <circle cx="19.44" cy="45.22" r="13.5" fill="#fce4cd"/>
    <path d="M48.133,18.8c7.842.471,5.587,8.748,9.916,12.593a.691.691,0,0,1,0,1.035c-4.329,3.845-2.074,12.122-9.916,12.593a6.248,6.248,0,0,1-2.468-.365.692.692,0,0,0-.886.886,6.254,6.254,0,0,1,.364,2.469C44.672,55.856,36.4,53.6,32.551,57.93a.692.692,0,0,1-1.036,0c-3.844-4.328-12.121-2.074-12.592-9.915a6.254,6.254,0,0,1,.364-2.469.692.692,0,0,0-.886-.886,6.248,6.248,0,0,1-2.468.365c-7.842-.471-5.587-8.748-9.916-12.593a.691.691,0,0,1,0-1.035c4.329-3.845,2.074-12.122,9.916-12.593a6.248,6.248,0,0,1,2.468.365.692.692,0,0,0,.886-.887,6.246,6.246,0,0,1-.364-2.468c.471-7.841,8.748-5.587,12.592-9.915a.692.692,0,0,1,1.036,0c3.844,4.328,12.121,2.074,12.592,9.915a6.249,6.249,0,0,1-.364,2.468.692.692,0,0,0,.886.887A6.248,6.248,0,0,1,48.133,18.8Z" fill="none" stroke="#e86a13" stroke-linecap="round" stroke-linejoin="round" stroke-width="2"/>
    <circle cx="32.033" cy="31.914" r="16.675" fill="none" stroke="#e86a13" stroke-linecap="round" stroke-linejoin="round" stroke-width="2"/>
    <circle cx="32.033" cy="31.914" r="16.675" fill="none" stroke="#e86a13" stroke-linecap="round" stroke-linejoin="round" stroke-width="2"/>
    <path d="M43.878,21.909V41.92a1.84,1.84,0,0,1-1.84,1.84H22.028a1.84,1.84,0,0,1-1.84-1.84V21.909a1.84,1.84,0,0,1,1.84-1.84h20.01A1.84,1.84,0,0,1,43.878,21.909Z" fill="none" stroke="#e86a13" stroke-linecap="round" stroke-linejoin="round" stroke-width="2"/>
    <path d="M25.287,27.7l6.129,10.615a.712.712,0,0,0,1.234,0L38.779,27.7a.712.712,0,0,0-.617-1.068H25.9A.712.712,0,0,0,25.287,27.7Z" fill="none" stroke="#e86a13" stroke-linecap="round" stroke-linejoin="round" stroke-width="2"/>
  </g>
</svg>
