<svg xmlns="http://www.w3.org/2000/svg" width="64" height="64" viewBox="0 0 64 64">
  <g>
    <circle cx="15.917" cy="18.578" r="13.5" fill="#fce4cd"/>
    <path d="M21.313,51.853c-3.186.722-4.542-1.61-7.571-1.157a.461.461,0,0,1-.526-.525c.455-3.039-1.879-4.382-1.157-7.572,1.319,1.167,2.249,2.653,4.1,2.928a4.65,4.65,0,0,0,3.527-1.3,4.651,4.651,0,0,0-1.3,3.528C18.66,49.6,20.146,50.534,21.313,51.853Z" fill="none" stroke="#e86a13" stroke-linecap="round" stroke-linejoin="round" stroke-width="2"/>
    <path d="M50.674,50.171a.461.461,0,0,1-.525.525c-3.039-.455-4.382,1.88-7.572,1.157,1.167-1.319,2.653-2.249,2.928-4.1a4.651,4.651,0,0,0-1.3-3.528,4.65,4.65,0,0,0,3.527,1.3c1.851-.275,2.781-1.761,4.1-2.928C52.553,45.785,50.221,47.141,50.674,50.171Z" fill="none" stroke="#e86a13" stroke-linecap="round" stroke-linejoin="round" stroke-width="2"/>
    <path d="M38.489,53.547c-1.8,2.787-4.35,2.072-6.172,4.535a.461.461,0,0,1-.743,0C29.752,55.62,27.2,56.333,25.4,53.547c1.758-.108,3.466.286,4.969-.829a4.652,4.652,0,0,0,1.574-3.413,4.65,4.65,0,0,0,1.575,3.413C35.023,53.833,36.73,53.439,38.489,53.547Z" fill="none" stroke="#e86a13" stroke-linecap="round" stroke-linejoin="round" stroke-width="2"/>
    <path d="M11.194,30.393a4.654,4.654,0,0,0,3.413,1.574,4.652,4.652,0,0,0-3.413,1.575c-1.114,1.5-.721,3.21-.829,4.969-2.787-1.8-2.071-4.35-4.535-6.172a.461.461,0,0,1,0-.743c2.463-1.822,1.75-4.377,4.535-6.172C10.473,27.182,10.08,28.89,11.194,30.393Z" fill="none" stroke="#e86a13" stroke-linecap="round" stroke-linejoin="round" stroke-width="2"/>
    <path d="M21.313,12.081c-1.167,1.319-2.653,2.249-2.928,4.1a4.65,4.65,0,0,0,1.3,3.527,4.65,4.65,0,0,0-3.527-1.3c-1.851.275-2.781,1.761-4.1,2.928-.721-3.186,1.61-4.542,1.157-7.571a.462.462,0,0,1,.526-.526C16.78,13.693,18.123,11.359,21.313,12.081Z" fill="none" stroke="#e86a13" stroke-linecap="round" stroke-linejoin="round" stroke-width="2"/>
    <path d="M38.489,10.387c-1.759.108-3.466-.285-4.97.829a4.654,4.654,0,0,0-1.574,3.413,4.654,4.654,0,0,0-1.574-3.413c-1.5-1.114-3.211-.721-4.97-.829,1.8-2.787,4.35-2.071,6.173-4.535a.461.461,0,0,1,.743,0C34.138,8.315,36.694,7.6,38.489,10.387Z" fill="none" stroke="#e86a13" stroke-linecap="round" stroke-linejoin="round" stroke-width="2"/>
    <path d="M50.149,13.238a.461.461,0,0,1,.525.526c-.455,3.038,1.88,4.381,1.157,7.571-1.319-1.167-2.249-2.653-4.1-2.928a4.65,4.65,0,0,0-3.527,1.3,4.65,4.65,0,0,0,1.3-3.527c-.275-1.851-1.761-2.781-2.928-4.1C45.763,11.36,47.119,13.692,50.149,13.238Z" fill="none" stroke="#e86a13" stroke-linecap="round" stroke-linejoin="round" stroke-width="2"/>
    <path d="M58.06,31.6a.461.461,0,0,1,0,.743c-2.462,1.821-1.749,4.377-4.535,6.172-.108-1.759.285-3.466-.829-4.969a4.652,4.652,0,0,0-3.413-1.575A4.654,4.654,0,0,0,52.7,30.393c1.114-1.5.721-3.211.829-4.969C56.312,27.22,55.6,29.773,58.06,31.6Z" fill="none" stroke="#e86a13" stroke-linecap="round" stroke-linejoin="round" stroke-width="2"/>
    <path d="M53.822,22.532a.457.457,0,0,1,.264.638c-1.274,2.526.2,5.082-1.39,7.223a3.585,3.585,0,0,1-1.528,1.151.458.458,0,0,0,0,.846A3.585,3.585,0,0,1,52.7,33.541c1.587,2.14.117,4.7,1.39,7.223a.457.457,0,0,1-.264.638c-2.688.886-3.454,3.733-6.091,4.125a3.564,3.564,0,0,1-1.89-.265.459.459,0,0,0-.6.6,3.574,3.574,0,0,1,.264,1.89c-.392,2.637-3.239,3.4-4.125,6.09a.457.457,0,0,1-.638.265c-2.526-1.274-5.082.2-7.223-1.39a3.585,3.585,0,0,1-1.151-1.528.458.458,0,0,0-.846,0,3.585,3.585,0,0,1-1.151,1.528c-2.141,1.587-4.7.116-7.223,1.39a.457.457,0,0,1-.638-.265c-.885-2.687-3.733-3.453-4.125-6.09a3.584,3.584,0,0,1,.265-1.89.46.46,0,0,0-.6-.6,3.562,3.562,0,0,1-1.89.265c-2.637-.392-3.4-3.239-6.09-4.125a.457.457,0,0,1-.265-.638c1.274-2.526-.2-5.082,1.39-7.223a3.582,3.582,0,0,1,1.529-1.151.459.459,0,0,0,0-.846,3.582,3.582,0,0,1-1.529-1.151c-1.586-2.14-.117-4.7-1.39-7.223a.457.457,0,0,1,.265-.638c2.687-.885,3.453-3.733,6.09-4.125a3.582,3.582,0,0,1,1.89.265.46.46,0,0,0,.6-.6,3.584,3.584,0,0,1-.265-1.89c.392-2.637,3.24-3.4,4.125-6.09a.457.457,0,0,1,.638-.265c2.526,1.274,5.082-.2,7.223,1.39a3.574,3.574,0,0,1,1.151,1.529.459.459,0,0,0,.846,0,3.582,3.582,0,0,1,1.151-1.529c2.141-1.587,4.7-.116,7.223-1.39a.457.457,0,0,1,.638.265c.886,2.687,3.733,3.453,4.125,6.09a3.574,3.574,0,0,1-.264,1.89.459.459,0,0,0,.6.6,3.584,3.584,0,0,1,1.89-.265C50.368,18.8,51.134,21.647,53.822,22.532Z" fill="none" stroke="#e86a13" stroke-linecap="round" stroke-linejoin="round" stroke-width="2"/>
    <circle cx="31.945" cy="31.967" r="16.675" fill="none" stroke="#e86a13" stroke-linecap="round" stroke-linejoin="round" stroke-width="2"/>
    <path d="M31.945,48.642A16.675,16.675,0,1,1,48.62,31.967,16.675,16.675,0,0,1,31.945,48.642Z" fill="none" stroke="#e86a13" stroke-linecap="round" stroke-linejoin="round" stroke-width="2"/>
  </g>
</svg>
