<svg height="512pt" viewBox="-104 0 512 512.001" width="512pt" xmlns="http://www.w3.org/2000/svg"><path d="m265.839844 270.699219h-227.164063c-4.183593 0-7.574219-3.390625-7.574219-7.574219v-16.070312c0-4.183594 3.390626-7.574219 7.574219-7.574219h227.164063c4.183594 0 7.574218 3.390625 7.574218 7.574219v16.070312c0 4.183594-3.390624 7.574219-7.574218 7.574219zm0 0" fill="#ffc143"/><path d="m265.839844 270.699219h-23.640625v-31.214844h23.640625c4.183594 0 7.574218 3.386719 7.574218 7.570313v16.074218c0 4.179688-3.390624 7.570313-7.574218 7.570313zm0 0" fill="#ffb509"/><path d="m61.902344 270.496094h180.714844v31.21875h-180.714844zm0 0" fill="#ff4343"/><path d="m201.480469 270.496094h41.136719v31.21875h-41.136719zm0 0" fill="#f72c2c"/><path d="m238.417969 481.296875h-172.316407c-32.359374 0-58.589843-26.230469-58.589843-58.589844v-62.40625c0-32.359375 26.230469-58.589843 58.589843-58.589843h172.316407c32.355469 0 58.585937 26.230468 58.585937 58.589843v62.40625c0 32.359375-26.230468 58.589844-58.585937 58.589844zm0 0" fill="#ff4343"/><path d="m297.007812 360.304688v62.410156c0 32.347656-26.230468 58.582031-58.59375 58.582031h-36.9375c32.363282 0 58.59375-26.234375 58.59375-58.582031v-62.410156c0-32.359376-26.230468-58.589844-58.59375-58.589844h36.9375c32.363282 0 58.59375 26.230468 58.59375 58.589844zm0 0" fill="#f72c2c"/><g fill="#ff4343"><path d="m95.191406 89.71875c-7.988281 0-14.460937 6.472656-14.460937 14.457031v20.019531h28.917969v-20.019531c0-7.984375-6.476563-14.457031-14.457032-14.457031zm0 0"/><path d="m152.257812 89.71875c-7.984374 0-14.457031 6.472656-14.457031 14.457031v20.019531h28.914063v-20.019531c0-7.984375-6.472656-14.457031-14.457032-14.457031zm0 0"/><path d="m209.328125 89.71875c-7.984375 0-14.457031 6.472656-14.457031 14.457031v20.019531h28.914062v-20.019531c0-7.984375-6.472656-14.457031-14.457031-14.457031zm0 0"/></g><path d="m109.644531 104.179688v20.015624h-14.457031v-20.015624c0-5.355469-2.902344-10.023438-7.230469-12.515626 2.125-1.230468 4.597657-1.941406 7.230469-1.941406 7.988281 0 14.457031 6.464844 14.457031 14.457032zm0 0" fill="#f72c2c"/><path d="m166.714844 104.179688v20.015624h-14.457032v-20.015624c0-5.355469-2.902343-10.023438-7.226562-12.515626 2.121094-1.230468 4.59375-1.941406 7.226562-1.941406 7.980469 0 14.457032 6.464844 14.457032 14.457032zm0 0" fill="#f72c2c"/><path d="m223.789062 104.179688v20.015624h-14.460937v-20.015624c0-5.355469-2.914063-10.023438-7.226563-12.515626 2.121094-1.230468 4.59375-1.941406 7.226563-1.941406 7.980469 0 14.460937 6.464844 14.460937 14.457032zm0 0" fill="#f72c2c"/><path d="m80.730469 124.195312h28.917969v115.289063h-28.917969zm0 0" fill="#efe2dd"/><path d="m137.800781 124.195312h28.914063v115.289063h-28.914063zm0 0" fill="#efe2dd"/><path d="m194.871094 124.195312h28.914062v115.289063h-28.914062zm0 0" fill="#efe2dd"/><path d="m209.328125 124.195312h14.457031v115.289063h-14.457031zm0 0" fill="#e1d3ce"/><path d="m152.257812 124.195312h14.457032v115.289063h-14.457032zm0 0" fill="#e1d3ce"/><path d="m95.191406 124.195312h14.457032v115.289063h-14.457032zm0 0" fill="#e1d3ce"/><path d="m87.710938 504.492188h-20.261719c-3.21875 0-5.828125-2.609376-5.828125-5.828126v-17.367187h31.914062v17.367187c0 3.21875-2.605468 5.828126-5.824218 5.828126zm0 0" fill="#ffc143"/><path d="m237.070312 504.492188h-20.265624c-3.214844 0-5.824219-2.609376-5.824219-5.828126v-17.367187h31.914062v17.367187c0 3.21875-2.605469 5.828126-5.824219 5.828126zm0 0" fill="#ffc143"/><path d="m237.070312 504.492188h-8.496093v-23.195313h14.320312v17.367187c0 3.21875-2.605469 5.828126-5.824219 5.828126zm0 0" fill="#ffb509"/><path d="m87.710938 504.492188h-8.492188v-23.195313h14.316406v17.367187c0 3.21875-2.605468 5.828126-5.824218 5.828126zm0 0" fill="#ffb509"/><path d="m174.785156 71.988281c4.144532 0 7.507813-3.363281 7.507813-7.507812v-6.210938c0-6.933593 5.640625-12.574219 12.578125-12.574219 15.214844 0 27.59375-12.378906 27.59375-27.597656v-10.589844c0-4.144531-3.363282-7.507812-7.507813-7.507812-4.148437 0-7.507812 3.363281-7.507812 7.507812v10.59375c0 6.933594-5.644531 12.574219-12.578125 12.574219-15.214844 0-27.59375 12.378907-27.59375 27.59375v6.210938c0 4.144531 3.359375 7.507812 7.507812 7.507812zm0 0"/><path d="m212.988281 64.480469c0 4.144531 3.363281 7.507812 7.511719 7.507812 4.144531 0 7.507812-3.363281 7.507812-7.507812 0-1.347657 1.097657-2.445313 2.445313-2.445313 10.734375 0 19.464844-8.734375 19.464844-19.46875v-1.1875c0-4.148437-3.359375-7.511718-7.507813-7.511718-4.148437 0-7.507812 3.363281-7.507812 7.511718v1.1875c0 2.453125-1.996094 4.449219-4.449219 4.449219-9.628906 0-17.464844 7.832031-17.464844 17.464844zm0 0"/><path d="m250.125 295.261719v-17.054688h15.714844c8.316406 0 15.082031-6.765625 15.082031-15.082031v-16.070312c0-8.316407-6.765625-15.082032-15.082031-15.082032h-34.546875v-33.710937c0-4.148438-3.359375-7.507813-7.507813-7.507813-4.148437 0-7.507812 3.359375-7.507812 7.507813v33.710937h-13.898438v-100.269531h13.898438v20.5c0 4.148437 3.359375 7.511719 7.507812 7.511719 4.148438 0 7.507813-3.363282 7.507813-7.511719v-48.027344c0-12.113281-9.851563-21.96875-21.964844-21.96875s-21.96875 9.855469-21.96875 21.96875v127.796875h-13.136719v-127.796875c0-12.113281-9.851562-21.96875-21.964844-21.96875-12.113281 0-21.96875 9.855469-21.96875 21.96875v127.796875h-13.132812v-127.796875c0-12.113281-9.855469-21.96875-21.96875-21.96875s-21.96875 9.855469-21.96875 21.96875v127.796875h-34.542969c-8.316406 0-15.082031 6.765625-15.082031 15.082032v16.074218c0 8.3125 6.765625 15.082032 15.082031 15.082032h15.714844v17.054687c-30.878906 5.542969-54.390625 32.585937-54.390625 65.035156v62.410157c0 32.351562 23.371094 59.328124 54.109375 64.988281v10.96875c0 7.351562 5.984375 13.332031 13.335937 13.332031h20.261719c7.351563 0 13.335938-5.980469 13.335938-13.332031v-9.859375h15.667969c4.148437 0 7.511718-3.363282 7.511718-7.507813 0-4.148437-3.363281-7.511719-7.511718-7.511719h-50.613282c-28.164062 0-51.078125-22.914062-51.078125-51.078124v-62.40625c0-28.164063 22.914063-51.078126 51.078125-51.078126h172.316406c28.164063 0 51.078126 22.914063 51.078126 51.078126v62.40625c0 28.164062-22.914063 51.078124-51.078126 51.078124h-74.191406c-4.148437 0-7.507812 3.363282-7.507812 7.511719 0 4.144531 3.359375 7.507813 7.507812 7.507813h39.246094v9.859375c0 7.351562 5.980469 13.332031 13.332031 13.332031h20.265625c7.351563 0 13.335938-5.980469 13.335938-13.332031v-10.96875c30.738281-5.660157 54.109375-32.636719 54.109375-64.988281v-62.410157c.003906-32.449219-23.507813-59.492187-54.386719-65.039062zm-47.746094-191.085938c0-3.832031 3.117188-6.949219 6.949219-6.949219s6.949219 3.117188 6.949219 6.949219v12.507813h-13.898438zm-133.246094 384.632813h16.894532v8.171875h-16.894532zm76.175782-384.632813c0-3.832031 3.117187-6.949219 6.949218-6.949219 3.832032 0 6.949219 3.117188 6.949219 6.949219v12.507813h-13.898437zm0 27.527344h13.898437v100.269531h-13.898437zm-57.066406-27.527344c0-3.832031 3.117187-6.949219 6.949218-6.949219 3.832032 0 6.945313 3.117188 6.945313 6.949219v12.507813h-13.894531zm0 27.527344h13.894531v100.269531h-13.894531zm146.863281 162.5h-165.695313v-15.992187h165.695313zm-196.492188-31.078125.0625-16.132812 227.230469.0625v16.070312c0 .035156-.03125.066406-.066406.066406zm196.773438 233.855469h-16.894531v-8.175781h16.894531zm0 0"/></svg>