<svg height="512pt" viewBox="-9 0 511 512" width="512pt" xmlns="http://www.w3.org/2000/svg"><path d="m172.460938 328.863281s1.0625 24.519531-11.90625 42.519531c-2 2.773438.542968 6.546876 3.859374 5.714844 14.71875-3.683594 39.539063-12.933594 45.292969-34.140625zm0 0" fill="#efe2dd"/><path d="m321.222656 328.863281s-1.066406 24.519531 11.90625 42.519531c2 2.773438-.542968 6.546876-3.863281 5.714844-14.71875-3.683594-39.535156-12.933594-45.289063-34.140625zm0 0" fill="#efe2dd"/><path d="m373.007812 149.867188v.023437c11.78125-13.5625 29.144532-22.144531 48.519532-22.132813 35.566406.027344 64.632812 29.527344 64.148437 65.089844-.296875 21.894532-11.558593 41.128906-28.539062 52.488282-4.882813 3.269531-7.648438 8.796874-7.429688 14.667968.023438.667969.039063 1.34375.039063 2.019532 0 30.207031-24.492188 54.695312-54.699219 54.695312-28.789063 0-52.367187-22.246094-54.519531-50.484375h-.179688v-80.515625zm0 0" fill="#0066ed"/><path d="m485.675781 192.847656c-.300781 21.894532-11.5625 41.128906-28.535156 52.492188-4.882813 3.261718-7.652344 8.789062-7.433594 14.660156.019531.671875.042969 1.34375.042969 2.023438 0 30.203124-24.496094 54.699218-54.703125 54.699218-8.191406 0-15.960937-1.800781-22.933594-5.03125.820313.03125 1.640625.050782 2.472657.050782 30.203124 0 54.6875-24.496094 54.6875-54.699219 0-.683594-.007813-1.351563-.027344-2.023438-.222656-5.871093 2.539062-11.402343 7.429687-14.660156 16.972657-11.363281 28.234375-30.597656 28.535157-52.492187.359374-26.703126-15.933594-49.988282-39.136719-59.941407 33.457031 2.414063 60.0625 30.886719 59.601562 64.921875zm0 0" fill="#0055ca"/><path d="m120.675781 149.867188v.023437c-11.78125-13.5625-29.144531-22.144531-48.519531-22.132813-35.566406.027344-64.632812 29.527344-64.148438 65.089844.296876 21.894532 11.558594 41.128906 28.535157 52.488282 4.886719 3.269531 7.652343 8.796874 7.433593 14.667968-.027343.667969-.039062 1.34375-.039062 2.019532 0 30.207031 24.488281 54.695312 54.699219 54.695312 28.789062 0 52.367187-22.246094 54.519531-50.484375h.175781v-80.515625zm0 0" fill="#0066ed"/><path d="m367.730469 240.628906c0-61.683594-54.125-111.691406-120.890625-111.691406-66.761719 0-120.886719 50.007812-120.886719 111.691406 0 23.742188 8.339844 46.875 22.972656 65.511719 8.683594 11.066406 19.699219 19.828125 31.6875 27.066406 14.117188 8.523438 25.710938 15.585938 32.015625 31.476563 7.636719 19.25 4.589844 40.722656 4.589844 61.042968v21.371094c0 8.902344-7.214844 16.117188-16.117188 16.117188-8.902343 0-16.117187-7.214844-16.117187-16.117188v-12.898437c0-4.925781-3.996094-8.917969-8.921875-8.917969h-23.109375c-4.925781 0-8.917969 3.992188-8.917969 8.917969v6.886719c0 35.019531 28.390625 63.410156 63.414063 63.410156 40.523437 0 73.371093-32.847656 73.371093-73.371094v-.507812c0-23.511719-1.730468-49.171876 8.582032-71.027344 10.507812-22.269532 36.371094-31.324219 51.878906-49.230469 16.722656-19.316406 26.449219-44.113281 26.449219-69.730469zm0 0" fill="#0396fd"/><path d="m367.734375 240.628906c0 25.613282-9.734375 50.417969-26.457031 69.730469-15.5 17.90625-41.367188 26.957031-51.878906 49.230469-10.3125 21.855468-8.582032 47.519531-8.582032 71.023437v.511719c0 40.527344-32.84375 73.371094-73.371094 73.371094-7.171874 0-14.074218-1.191406-20.496093-3.390625 36.859375-5.652344 65.09375-37.507813 65.09375-75.945313v-.527344c0-24.625-1.820313-51.492187 8.980469-74.382812 11.011718-23.324219 38.097656-32.808594 54.332031-51.5625 17.511719-20.222656 27.703125-46.195312 27.703125-73.023438 0-32.015624-13.914063-61.011718-36.457032-82.132812 36.507813 19.203125 61.132813 55.5 61.132813 97.097656zm0 0" fill="#0077f0"/><path d="m298.3125 105.621094c-16.050781-47.484375-51.472656-47.921875-51.472656-47.921875s-35.417969.4375-51.46875 47.921875c0 0-51.609375 15.214844-51.472656 76.433594l92.238281 45.488281c6.75 3.328125 14.660156 3.328125 21.40625 0l92.242187-45.488281c.132813-61.21875-51.472656-76.433594-51.472656-76.433594zm0 0" fill="#ffc143"/><path d="m349.78125 182.058594-9.792969 4.828125c-3.667969-45.335938-34.53125-64.796875-48.777343-71.421875-4.511719-2.097656-8.074219-5.796875-9.992188-10.386719-14.023438-33.570313-37.359375-42.023437-47.941406-44.152344 7.863281-3.152343 13.5625-3.222656 13.5625-3.222656s35.417968.429687 51.46875 47.921875c0 0 51.613281 15.210938 51.472656 76.433594zm0 0" fill="#ffb509"/><path d="m206.59375 273.535156c-9.722656 0-18.449219-5.789062-22.238281-14.742187-1.613281-3.8125.171875-8.214844 3.984375-9.832031 3.816406-1.613282 8.21875.171874 9.832031 3.988281 1.433594 3.390625 4.738281 5.582031 8.421875 5.582031 3.5 0 6.738281-2.042969 8.25-5.207031 1.785156-3.738281 6.261719-5.320313 10.003906-3.535157 3.734375 1.789063 5.316406 6.265626 3.53125 10.003907-3.984375 8.347656-12.539062 13.742187-21.785156 13.742187zm0 0"/><path d="m287.398438 273.535156c-9.722657 0-18.449219-5.789062-22.238282-14.742187-1.613281-3.8125.171875-8.214844 3.988282-9.832031 3.808593-1.613282 8.214843.171874 9.828124 3.988281 1.4375 3.390625 4.742188 5.582031 8.421876 5.582031 3.5 0 6.742187-2.042969 8.25-5.207031 1.785156-3.738281 6.261718-5.320313 10.003906-3.535157 3.738281 1.789063 5.320312 6.265626 3.535156 10.003907-3.988281 8.347656-12.542969 13.742187-21.789062 13.742187zm0 0"/><path d="m271.941406 32.601562c0 13.863282-11.238281 25.097657-25.101562 25.097657-13.859375 0-25.097656-11.234375-25.097656-25.097657 0-13.863281 11.238281-25.101562 25.097656-25.101562 13.863281 0 25.101562 11.238281 25.101562 25.101562zm0 0" fill="#ffc143"/><path d="m271.945312 32.601562c0 13.859376-11.242187 25.101563-25.105468 25.101563-7.511719 0-14.25-3.300781-18.851563-8.53125 1.660157.351563 3.390625.53125 5.148438.53125 13.863281 0 25.105469-11.242187 25.105469-25.09375 0-6.351563-2.359376-12.144531-6.25-16.574219 11.390624 2.371094 19.953124 12.460938 19.953124 24.566406zm0 0" fill="#ffb509"/><path d="m267.21875 169.789062c0 11.253907-9.125 20.375-20.378906 20.375s-20.375-9.121093-20.375-20.375c0-11.257812 9.121094-20.378906 20.375-20.378906s20.378906 9.121094 20.378906 20.378906zm0 0" fill="#ff4343"/><path d="m267.214844 169.785156c0 11.253906-9.121094 20.382813-20.375 20.382813-4.089844 0-7.910156-1.210938-11.101563-3.289063.140625.007813.289063.007813.429688.007813 11.261719 0 20.386719-9.121094 20.386719-20.371094 0-7.164063-3.691407-13.464844-9.273438-17.09375 11.050781.230469 19.933594 9.261719 19.933594 20.363281zm0 0" fill="#f72c2c"/><path d="m260.542969 112.378906c0 7.566406-6.136719 13.703125-13.703125 13.703125s-13.699219-6.136719-13.699219-13.703125 6.132813-13.699218 13.699219-13.699218 13.703125 6.132812 13.703125 13.699218zm0 0" fill="#ff4343"/><path d="m260.542969 112.382812c0 7.5625-6.128907 13.695313-13.703125 13.695313-3.4375 0-6.589844-1.269531-9-3.382813 6.78125-.820312 12.03125-6.589843 12.03125-13.589843 0-4.121094-1.808594-7.8125-4.691406-10.324219.542968-.070312 1.101562-.097656 1.660156-.097656 7.574218 0 13.703125 6.128906 13.703125 13.699218zm0 0" fill="#f72c2c"/><path d="m255.152344 346.566406h-11.230469c-4.140625 0-7.5 3.359375-7.5 7.5 0 4.144532 3.359375 7.503906 7.5 7.503906h11.230469c4.140625 0 7.5-3.359374 7.5-7.503906 0-4.140625-3.359375-7.5-7.5-7.5zm0 0"/><path d="m255.152344 381.835938h-11.230469c-4.140625 0-7.5 3.355468-7.5 7.5 0 4.140624 3.359375 7.5 7.5 7.5h11.230469c4.140625 0 7.5-3.359376 7.5-7.5 0-4.144532-3.359375-7.5-7.5-7.5zm0 0"/><path d="m255.152344 417.101562h-11.230469c-4.140625 0-7.5 3.359376-7.5 7.503907 0 4.140625 3.359375 7.5 7.5 7.5h11.230469c4.140625 0 7.5-3.359375 7.5-7.5 0-4.144531-3.359375-7.503907-7.5-7.503907zm0 0"/><path d="m246.839844 133.582031c11.691406 0 21.203125-9.511719 21.203125-21.203125s-9.511719-21.199218-21.203125-21.199218-21.203125 9.507812-21.203125 21.199218 9.511719 21.203125 21.203125 21.203125zm0-27.402343c3.417968 0 6.199218 2.78125 6.199218 6.199218 0 3.417969-2.78125 6.199219-6.199218 6.199219-3.417969 0-6.199219-2.78125-6.199219-6.199219 0-3.417968 2.78125-6.199218 6.199219-6.199218zm0 0"/><path d="m472.453125 141.703125c-13.617187-13.816406-31.703125-21.433594-50.921875-21.445313h-.046875c-20.574219 0-40.136719 8.84375-53.765625 24.289063-.085938.085937-.171875.175781-.257812.269531l-12.738282 13.984375c-4.886718-20.96875-15.953125-34.910156-25.640625-43.523437-9.8125-8.726563-19.675781-13.417969-24.886719-15.503906-9.160156-24.582032-23.316406-36.972657-35.269531-43.21875 6.460938-5.960938 10.515625-14.488282 10.515625-23.953126 0-17.976562-14.625-32.601562-32.601562-32.601562-17.976563 0-32.601563 14.625-32.601563 32.601562 0 9.460938 4.058594 17.992188 10.515625 23.953126-11.949218 6.246093-26.105468 18.636718-35.265625 43.21875-5.210937 2.082031-15.078125 6.773437-24.890625 15.5-9.6875 8.617187-20.75 22.558593-25.636718 43.527343l-12.742188-13.988281c-.082031-.089844-.164062-.175781-.25-.261719-13.628906-15.449219-33.191406-24.292969-53.769531-24.292969h-.050781c-17.9375.011719-35.140626 6.777344-48.4375 19.042969-3.046876 2.808594-3.238282 7.554688-.429688 10.601563 2.8125 3.042968 7.558594 3.234375 10.601562.425781 10.523438-9.707031 24.117188-15.058594 38.277344-15.066406h.039063c16.417969 0 32.019531 7.125 42.8125 19.546875.152343.175781.3125.34375.476562.503906l20.984375 23.035156c-.015625.511719-.039062 1.023438-.050781 1.542969-11.402344 17.800781-17.96875 38.570313-17.96875 60.738281 0 18.773438 4.902344 37.46875 14.027344 54.15625-8.628907 8.898438-20.671875 14.429688-33.84375 14.429688-26.023438 0-47.195313-21.171875-47.195313-47.195313 0-.582031.007813-1.160156.03125-1.738281.316406-8.542969-3.703125-16.460938-10.757812-21.179688-15.53125-10.390624-24.953125-27.722656-25.207032-46.355468-.023437-1.808594.039063-3.636719.1875-5.433594.34375-4.125-2.726562-7.75-6.855468-8.09375-4.132813-.339844-7.753906 2.726562-8.097656 6.855469-.1875 2.273437-.265626 4.585937-.234376 6.875.320313 23.570312 12.230469 45.484375 31.867188 58.621093 2.691406 1.804688 4.226562 4.851563 4.105469 8.152344-.027344.761719-.042969 1.527344-.042969 2.296875 0 34.296875 27.902344 62.199219 62.199219 62.199219 16.097656 0 30.921875-6.273438 42.058593-16.542969.761719 1.042969 1.53125 2.082031 2.328126 3.097657 6.007812 7.648437 13.25 14.585937 21.941406 21-.160156 6.269531-1.472656 22.699218-10.496094 35.222656-2.773438 3.851562-2.847656 8.882812-.183594 12.8125 2.128906 3.132812 5.550782 4.910156 9.183594 4.910156.917969 0 1.84375-.113281 2.769531-.34375 10.777344-2.695312 26.910157-8.320312 38.390625-19.304688.359375.769532.703125 1.558594 1.027344 2.378907 5.375 13.546875 4.882812 28.550781 4.363281 44.433593-.148437 4.539063-.300781 9.234376-.300781 13.847657v21.367187c0 4.753906-3.867188 8.617188-8.617188 8.617188s-8.617187-3.863282-8.617187-8.617188v-12.898437c0-9.054688-7.367187-16.421875-16.421875-16.421875h-23.105469c-9.054687 0-16.421875 7.367187-16.421875 16.421875v6.886719c0 39.101562 31.8125 70.914062 70.914063 70.914062 32.65625 0 61.929687-19.453125 74.585937-49.554688 1.605469-3.820312-.191406-8.21875-4.011718-9.824218-3.8125-1.605469-8.214844.1875-9.820313 4.007812-10.308594 24.523438-34.15625 40.367188-60.753906 40.367188-30.828125 0-55.910157-25.082032-55.910157-55.910156v-6.886719c0-.78125.632813-1.417969 1.417969-1.417969h23.105469c.785156 0 1.417969.636719 1.417969 1.417969v12.898437c0 13.023438 10.597656 23.621094 23.621093 23.621094 13.023438 0 23.621094-10.597656 23.621094-23.621094v-21.371094c0-4.367187.140625-8.730468.292969-13.355468.546875-16.71875 1.113281-34.007813-5.414063-50.453125-7.269531-18.320313-20.792968-26.484375-35.109374-35.132813-12.566407-7.585937-22.273438-15.855468-29.667969-25.277344-13.78125-17.550781-21.367188-39.171874-21.367188-60.878906 0-17.632812 4.796875-34.253906 13.246094-48.828125l86.117187 42.46875c4.390626 2.164063 9.207032 3.25 14.023438 3.25 4.8125 0 9.628906-1.085937 14.019531-3.25l86.105469-42.460937c8.453125 14.574218 13.261719 31.1875 13.261719 48.820312 0 23.464844-8.746094 46.484375-24.621094 64.816406-5.671875 6.554688-13.019531 11.914063-20.796875 17.585938-12.335938 9-25.09375 18.308594-32.195312 33.359375-8.769532 18.589844-9.453126 39.507813-9.40625 57.660156.011718 4.132813 3.371093 7.480469 7.503906 7.480469h.019531c4.144531-.011719 7.492187-3.378906 7.480469-7.523438-.039063-15.042968.398437-30.773437 5.425781-45.003906 10.914063 8.429688 24.398437 13.015625 33.804687 15.371094.925782.230469 1.855469.34375 2.769532.34375 3.632812 0 7.054687-1.773438 9.179687-4.910156 2.667969-3.929688 2.597657-8.960938-.179687-12.8125-9.121094-12.65625-10.355469-29.546875-10.496094-35.570313 6.460938-4.8125 12.847656-9.941406 18.230469-16.15625 2.125-2.453125 4.136719-4.984375 6.035156-7.578125 11.136719 10.261719 25.964844 16.527344 42.0625 16.527344 34.296875 0 62.199219-27.898438 62.199219-62.199219 0-.765625-.015625-1.53125-.042969-2.296875-.121094-3.300781 1.410156-6.347656 4.105469-8.152344 19.632812-13.136718 31.546875-35.046874 31.867187-58.617187.261719-19.230469-7.097656-37.429687-20.722656-51.25zm-293.1875 199.457031c6.414063 3.890625 11.910156 7.398438 16.429687 11.648438-6.347656 6.839844-15.609374 11.363281-23.859374 14.253906 4.484374-9.132812 6.519531-18.621094 7.429687-25.902344zm67.574219-326.15625c9.703125 0 17.597656 7.894532 17.597656 17.597656 0 9.703126-7.894531 17.597657-17.597656 17.597657s-17.597656-7.894531-17.597656-17.597657c0-9.703124 7.894531-17.597656 17.597656-17.597656zm7.386718 205.8125c-4.621093 2.28125-10.144531 2.277344-14.769531 0l-87.960937-43.375c2.292968-50.804687 44.1875-64.078125 45.996094-64.628906 2.339843-.691406 4.203124-2.476562 4.984374-4.792969 13.722657-40.589843 42.0625-42.710937 44.347657-42.816406 2.492187.117187 30.703125 2.351563 44.382812 42.816406.773438 2.296875 2.636719 4.085938 4.957031 4.785157 1.835938.554687 43.730469 13.832031 46.019532 64.636718zm46.460938 134.609375c3.773438-5.003906 8.570312-9.316406 13.835938-13.445312.960937 7.164062 3.003906 16.289062 7.324218 25.082031-7.148437-2.503906-15.046875-6.242188-21.160156-11.636719zm152.28125-116.324219c-7.054688 4.71875-11.074219 12.636719-10.757812 21.175782.019531.578125.03125 1.160156.03125 1.742187 0 26.023438-21.171876 47.195313-47.195313 47.195313-13.175781 0-25.214844-5.542969-33.839844-14.445313 9.136719-16.667969 14.023438-35.265625 14.023438-54.140625 0-22.167968-6.566407-42.933594-17.972657-60.730468-.007812-.523438-.03125-1.035157-.046874-1.554688l20.976562-23.027344c.167969-.160156.332031-.328125.484375-.507812 10.792969-12.425782 26.394531-19.546875 42.8125-19.546875h.039063c15.171874.011719 29.464843 6.039062 40.246093 16.972656 10.785157 10.941406 16.609375 25.328125 16.40625 40.511719-.253906 18.636718-9.679687 35.964844-25.207031 46.355468zm0 0"/><path d="m246.839844 141.90625c-15.371094 0-27.878906 12.507812-27.878906 27.882812 0 15.371094 12.507812 27.878907 27.878906 27.878907 15.375 0 27.878906-12.507813 27.878906-27.878907 0-15.375-12.503906-27.882812-27.878906-27.882812zm0 40.757812c-7.097656 0-12.875-5.777343-12.875-12.875 0-7.101562 5.773437-12.878906 12.875-12.878906 7.101562 0 12.878906 5.777344 12.878906 12.878906 0 7.097657-5.777344 12.875-12.878906 12.875zm0 0"/></svg>