<svg height="512pt" viewBox="-114 0 512 512.00056" width="512pt" xmlns="http://www.w3.org/2000/svg"><path d="m175.605469 440.417969h-66.605469c-4.730469 6.636719-7.511719 14.753906-7.511719 23.523437 0 22.402344 18.15625 40.558594 40.558594 40.558594h.515625c22.402344 0 40.558594-18.15625 40.558594-40.558594 0-8.769531-2.78125-16.886718-7.515625-23.523437zm0 0" fill="#ffe1a8"/><path d="m183.117188 463.9375c0 22.402344-18.152344 40.5625-40.550782 40.5625h-.519531c-3.230469 0-6.371094-.378906-9.382813-1.089844 17.871094-4.230468 31.171876-20.300781 31.171876-39.472656 0-8.769531-2.78125-16.878906-7.507813-23.519531h19.277344c4.730469 6.640625 7.511719 14.75 7.511719 23.519531zm0 0" fill="#ffd98f"/><path d="m248.738281 356.957031c-13.859375-22.394531-21.203125-48.207031-21.203125-74.542969v-19.640624c0-27.339844-22.167968-49.507813-49.511718-49.507813h-71.957032c-27.34375 0-49.511718 22.167969-49.511718 49.507813v19.640624c0 26.335938-7.34375 52.148438-21.203126 74.542969l-15.984374 25.820313c-7.757813 12.53125-11.867188 26.976562-11.867188 41.714844 0 9.082031 7.363281 16.449218 16.445312 16.449218h236.199219c9.082031 0 16.445313-7.363281 16.445313-16.449218 0-14.738282-4.109375-29.183594-11.867188-41.714844zm0 0" fill="#ffc143"/><path d="m276.59375 424.496094c0 9.082031-7.363281 16.441406-16.453125 16.441406h-25.308594c9.089844 0 16.449219-7.359375 16.449219-16.441406 0-7.371094-1.03125-14.667969-3.03125-21.691406-1.988281-7.019532-4.960938-13.769532-8.839844-20.03125l-15.980468-25.820313c-13.859376-22.390625-21.199219-48.203125-21.199219-74.542969v-19.632812c0-27.339844-22.171875-49.511719-49.515625-49.511719h25.3125c27.339844 0 49.503906 22.171875 49.503906 49.511719v19.632812c0 26.339844 7.347656 52.152344 21.210938 74.542969l15.980468 25.820313c3.878906 6.261718 6.847656 13.011718 8.847656 20.03125 1.992188 7.023437 3.023438 14.320312 3.023438 21.691406zm0 0" fill="#ffb509"/><path d="m106.007812 141.371094h72.074219v71.644531h-72.074219zm0 0" fill="#efe2dd"/><path d="m155.59375 141.371094h22.488281v71.644531h-22.488281zm0 0" fill="#e1d3ce"/><path d="m92.738281 63.65625 13.460938 77.714844h71.691406l13.464844-77.714844c5.082031-29.34375-17.507813-56.179688-47.285157-56.179688h-4.046874c-29.78125 0-52.367188 26.835938-47.285157 56.179688zm0 0" fill="#8c6239"/><path d="m191.359375 63.660156-13.472656 77.710938h-22.300781l13.460937-77.710938c4.550781-26.253906-13.0625-50.503906-38.152344-55.3125 2.949219-.570312 6-.871094 9.128907-.871094h4.042968c29.78125 0 52.371094 26.839844 47.292969 56.183594zm0 0" fill="#7f522d"/><path d="m271.101562 378.828125-15.984374-25.820313c-13.136719-21.222656-20.082032-45.632812-20.082032-70.59375v-12.757812c0-4.144531-3.355468-7.5-7.5-7.5-4.144531 0-7.5 3.355469-7.5 7.5v12.757812c0 27.75 7.71875 54.894532 22.328125 78.488282l15.984375 25.820312c7.027344 11.355469 10.742188 24.414063 10.742188 37.769532 0 4.933593-4.015625 8.945312-8.945313 8.945312h-236.195312c-4.933594 0-8.949219-4.011719-8.949219-8.945312 0-13.355469 3.714844-26.414063 10.746094-37.769532l15.980468-25.820312c14.609376-23.59375 22.328126-50.738282 22.328126-78.492188v-19.636718c0-23.164063 18.847656-42.007813 42.011718-42.007813h71.960938c10.457031 0 20.476562 3.867187 28.214844 10.882813 3.066406 2.785156 7.808593 2.554687 10.59375-.511719 2.78125-3.070313 2.550781-7.8125-.515626-10.597657-8.621093-7.820312-19.328124-12.75-30.738281-14.265624v-64.90625c0-.117188 13.160157-76.433594 13.160157-76.433594 2.804687-16.167969-1.652344-32.644532-12.21875-45.203125-22.066407-26.214844-66.734376-26.402344-88.957032.003906-10.566406 12.554687-15.019531 29.03125-12.21875 45.199219 0 0 13.160156 76.316406 13.160156 76.433594v64.914062c-27.875 3.710938-49.453124 27.621094-49.453124 56.492188v19.636718c0 24.964844-6.941407 49.375-20.082032 70.597656l-15.984375 25.820313c-8.496093 13.726563-12.988281 29.515625-12.988281 45.664063 0 13.203124 10.742188 23.945312 23.949219 23.945312h72.597656c-1.683594 4.945312-2.558594 10.164062-2.558594 15.503906 0 4.140625 3.355469 7.5 7.5 7.5 4.140625 0 7.5-3.359375 7.5-7.5 0-5.472656 1.332031-10.753906 3.863281-15.503906h58.90625c2.53125 4.75 3.863282 10.03125 3.863282 15.503906 0 18.230469-14.828125 33.058594-33.058594 33.058594h-.519531c-4.410157 0-8.691407-.851562-12.722657-2.535156-3.820312-1.597656-8.214843.210937-9.808593 4.03125-1.597657 3.824218.207031 8.214844 4.03125 9.8125 5.867187 2.449218 12.09375 3.691406 18.5 3.691406h.519531c26.5 0 48.058594-21.558594 48.058594-48.058594 0-5.339844-.875-10.558594-2.558594-15.503906h72.078125c13.207031 0 23.949219-10.742188 23.949219-23.945312 0-16.144532-4.492188-31.9375-12.988282-45.664063zm-157.59375-229.957031h57.074219v56.644531h-57.074219zm-4.464843-119.476563c8.722656-10.363281 22.039062-14.417969 35.023437-14.417969 11.976563 0 23.265625 5.253907 30.980469 14.417969 7.710937 9.160157 10.960937 21.183594 8.914063 32.980469l-12.382813 71.496094h-59.066406l-12.382813-71.496094c-2.046875-11.796875 1.203125-23.820312 8.914063-32.980469zm0 0"/></svg>