<svg height="512pt" viewBox="-130 0 512 512" width="512pt" xmlns="http://www.w3.org/2000/svg"><path d="m191.730469 504.488281h-131.777344c-1.523437 0-2.761719-1.234375-2.761719-2.757812v-17.148438c0-6.421875 5.203125-11.625 11.625-11.625h114.046875c6.421875 0 11.628907 5.203125 11.628907 11.625v17.148438c0 1.523437-1.238282 2.757812-2.761719 2.757812zm0 0" fill="#ffc143"/><path d="m194.492188 484.585938v17.144531c0 1.523437-1.238282 2.757812-2.761719 2.757812h-18.175781v-19.902343c0-6.421876-5.207032-11.625-11.625-11.625h20.933593c6.421875 0 11.628907 5.203124 11.628907 11.625zm0 0" fill="#ffb509"/><path d="m104.902344 345.28125h41.878906v127.675781h-41.878906zm0 0" fill="#ffe1a8"/><path d="m129.558594 345.28125h17.222656v127.675781h-17.222656zm0 0" fill="#ffd98f"/><path d="m20.9375 126.554688v92.175781c0 57.9375 46.96875 104.902343 104.90625 104.902343 57.933594 0 104.902344-46.964843 104.902344-104.902343v-92.175781zm0 0" fill="#ffe1a8"/><path d="m230.746094 126.558594v92.167968c0 57.9375-46.96875 104.90625-104.90625 104.90625-3.535156 0-7.019532-.167968-10.460938-.519531 53.015625-5.257812 94.421875-49.984375 94.421875-104.386719v-92.167968zm0 0" fill="#ffd98f"/><path d="m20.9375 160.6875h209.804688v41.679688h-209.804688zm0 0" fill="#ffc143"/><path d="m209.617188 160.6875h21.125v41.679688h-21.125zm0 0" fill="#ffb509"/><path d="m234.390625 126.554688h-217.097656c-5.402344 0-9.78125-4.378907-9.78125-9.78125v-14.203126c0-5.402343 4.378906-9.78125 9.78125-9.78125h217.097656c5.402344 0 9.78125 4.378907 9.78125 9.78125v14.203126c0 5.402343-4.378906 9.78125-9.78125 9.78125zm0 0" fill="#ffc143"/><path d="m244.175781 102.578125v14.195313c0 5.398437-4.386719 9.785156-9.785156 9.785156h-14.207031v-33.765625h14.207031c5.398437 0 9.785156 4.375 9.785156 9.785156zm0 0" fill="#ffb509"/><path d="m155.019531 363.304688h-58.359375c-6.695312 0-12.125-5.429688-12.125-12.125v-17.605469c0-6.699219 5.429688-12.128907 12.125-12.128907h58.359375c6.699219 0 12.128907 5.429688 12.128907 12.128907v17.605469c0 6.695312-5.429688 12.125-12.128907 12.125zm0 0" fill="#ffc143"/><path d="m167.152344 333.574219v17.605469c0 6.691406-5.433594 12.121093-12.132813 12.121093h-16.429687c6.699218 0 12.128906-5.429687 12.128906-12.121093v-17.605469c0-6.703125-5.429688-12.132813-12.128906-12.132813h16.429687c6.699219 0 12.132813 5.429688 12.132813 12.132813zm0 0" fill="#ffb509"/><path d="m170.164062 92.792969h-88.644531c-6.296875-8.828125-10-19.632813-10-31.304688 0-29.8125 24.164063-53.976562 53.976563-53.976562h.6875c29.8125 0 53.976562 24.164062 53.976562 53.976562.003906 11.671875-3.699218 22.476563-9.996094 31.304688zm0 0" fill="#efe2dd"/><path d="m180.160156 61.488281c0 11.671875-3.699218 22.480469-10 31.304688h-16.25c6.300782-8.824219 10-19.632813 10-31.304688 0-27.167969-20.070312-49.648437-46.1875-53.417969 2.535156-.367187 5.136719-.554687 7.773438-.554687h.6875c29.8125-.003906 53.976562 24.164063 53.976562 53.972656zm0 0" fill="#e1d3ce"/><path d="m157.554688 416.535156c0 17.515625-14.199219 31.714844-31.714844 31.714844s-31.714844-14.199219-31.714844-31.714844 14.199219-31.714844 31.714844-31.714844 31.714844 14.199219 31.714844 31.714844zm0 0" fill="#ffc143"/><path d="m157.554688 416.535156c0 17.515625-14.199219 31.714844-31.714844 31.714844-5.867188 0-11.371094-1.597656-16.089844-4.386719 16.390625-1.234375 29.292969-14.917969 29.292969-31.621093 0-11.644532-6.273438-21.824219-15.628907-27.328126.796876-.0625 1.609376-.097656 2.425782-.097656 17.515625 0 31.714844 14.203125 31.714844 31.71875zm0 0" fill="#ffb509"/><path d="m113.875 57.113281h4.457031v11.800781c0 4.148438 3.363281 7.511719 7.511719 7.511719 4.144531 0 7.507812-3.363281 7.507812-7.511719v-11.800781h4.457032c4.148437 0 7.511718-3.363281 7.511718-7.507812 0-4.148438-3.363281-7.511719-7.511718-7.511719h-4.457032v-3.097656c0-4.148438-3.363281-7.511719-7.507812-7.511719-4.148438 0-7.511719 3.363281-7.511719 7.511719v3.097656h-4.457031c-4.148438 0-7.511719 3.363281-7.511719 7.511719 0 4.144531 3.363281 7.507812 7.511719 7.507812zm0 0"/><path d="m234.390625 85.277344h-52.296875c3.320312-7.609375 5.050781-15.84375 5.050781-24.316406 0-33.613282-27.347656-60.960938-60.960937-60.960938h-.683594c-33.613281 0-60.960938 27.347656-60.960938 60.960938 0 8.476562 1.730469 16.707031 5.046876 24.320312h-52.292969c-9.535157 0-17.292969 7.757812-17.292969 17.292969v14.199219c0 8.207031 5.75 15.082031 13.429688 16.84375v85.113281c0 6.617187.582031 13.25 1.722656 19.714843.722656 4.085938 4.617187 6.808594 8.703125 6.089844 4.085937-.722656 6.808593-4.621094 6.085937-8.703125-.988281-5.605469-1.492187-11.359375-1.492187-17.101562v-8.851563h194.785156v8.851563c0 46.65625-32.980469 85.746093-76.84375 95.207031h-41.007813c-23.5-5.074219-44.644531-18.753906-58.875-38.699219-2.410156-3.375-7.097656-4.160156-10.476562-1.75-3.375 2.40625-4.160156 7.097657-1.75 10.472657 12 16.816406 28.261719 29.765624 46.726562 37.804687-2.488281 3.289063-3.984374 7.375-3.984374 11.808594v17.605469c0 10.828124 8.808593 19.636718 19.636718 19.636718h.730469v18.757813c-6.667969 7.035156-10.773437 16.523437-10.773437 26.960937 0 10.433594 4.101562 19.925782 10.773437 26.957032v21.953124h-28.574219c-10.550781 0-19.132812 8.585938-19.132812 19.136719v17.148438c0 5.660156 4.605468 10.269531 10.269531 10.269531h57.878906c4.148438 0 7.511719-3.363281 7.511719-7.511719 0-4.144531-3.363281-7.507812-7.511719-7.507812h-53.128906v-12.398438c0-2.269531 1.84375-4.113281 4.113281-4.113281h114.046875c2.269531 0 4.117188 1.84375 4.117188 4.113281v12.398438h-23.421875c-4.148438 0-7.511719 3.363281-7.511719 7.507812 0 4.148438 3.363281 7.511719 7.511719 7.511719h28.167968c5.664063 0 10.273438-4.609375 10.273438-10.269531v-17.148438c0-10.550781-8.585938-19.136719-19.136719-19.136719h-28.570312v-21.953124c6.667969-7.035157 10.769531-16.523438 10.769531-26.957032 0-10.4375-4.101562-19.925781-10.769531-26.960937v-18.757813h.730469c10.828124 0 19.636718-8.8125 19.636718-19.640625v-17.605469c0-4.425781-1.492187-8.503906-3.976562-11.792968 39.726562-17.355469 67.570312-57 67.570312-103.046875v-85.117188c7.679688-1.761719 13.429688-8.636719 13.429688-16.839843v-14.203126c0-9.53125-7.757813-17.292968-17.292969-17.292968zm-95.117187 380.171875h-26.863282v-12.058594c4.191406 1.53125 8.714844 2.367187 13.429688 2.367187 4.71875 0 9.242187-.835937 13.433594-2.371093zm-13.433594-24.710938c-13.34375 0-24.203125-10.855469-24.203125-24.203125s10.859375-24.203125 24.203125-24.203125c13.347656 0 24.203125 10.855469 24.203125 24.203125s-10.855469 24.203125-24.203125 24.203125zm-13.429688-61.058593v-8.863282h26.859375v8.863282c-4.191406-1.53125-8.714843-2.371094-13.429687-2.371094s-9.238282.839844-13.429688 2.371094zm47.230469-28.5c0 2.546874-2.074219 4.617187-4.621094 4.617187h-58.359375c-2.542968 0-4.617187-2.070313-4.617187-4.617187v-17.605469c0-2.546875 2.074219-4.621094 4.617187-4.621094h58.359375c2.546875 0 4.621094 2.074219 4.621094 4.621094zm-34.140625-336.160157h.683594c25.332031 0 45.941406 20.609375 45.941406 45.941407 0 8.359374-2.21875 16.40625-6.449219 23.492187h-79.667969c-4.230468-7.085937-6.445312-15.132813-6.445312-23.492187-.003906-25.332032 20.605469-45.941407 45.9375-45.941407zm97.734375 179.839844h-194.785156v-26.664063h194.785156zm0-41.683594h-194.785156v-19.109375h194.785156zm13.429687-36.402343c0 1.253906-1.019531 2.273437-2.273437 2.273437h-217.097656c-1.253907 0-2.273438-1.019531-2.273438-2.273437v-14.199219c0-1.253907 1.019531-2.273438 2.273438-2.273438h217.097656c1.25 0 2.273437 1.019531 2.273437 2.273438zm0 0"/></svg>