<svg height="512pt" viewBox="-22 0 512 512.00139" width="512pt" xmlns="http://www.w3.org/2000/svg"><path d="m211.632812 8.476562c-13.742187-3.59375-28.109374 3.042969-34.28125 15.835938l-70.605468 146.257812c-4.839844 10.019532-6.648438 21.230469-5.207032 32.261719l16.390626 125.691407c1 7.640624-.851563 15.378906-5.195313 21.742187l-105.21875 154.21875h132.109375l38.980469-91.921875c2.433593-5.742188 5.875-11.003906 10.164062-15.535156 4.707031-4.972656 9.40625-9.933594 13.980469-15 3.980469-4.414063 7.269531-9.441406 9.710938-14.863282 4.777343-10.605468 6.21875-22.585937 4.089843-34.023437 0-.007813-4.398437-23.644531-4.398437-23.644531v-122.898438c0-12.480468-9.199219-22.804687-21.183594-24.578125l41.125-114.761719c5.886719-16.425781-3.578125-34.367187-20.460938-38.78125zm0 0" fill="#fed2a4"/><path d="m162.457031 309.492188v-122.335938c0-13.929688 11.402344-25.667969 25.332031-25.402344 13.5.253906 24.367188 11.28125 24.367188 24.84375v122.894532s4.394531 23.640624 4.398438 23.648437c2.128906 11.4375.6875 23.417969-4.09375 34.023437-2.441407 5.421876-5.726563 10.449219-9.710938 14.863282-4.476562 4.960937-9.078125 9.816406-13.6875 14.683594-9.890625 10.441406-23.636719 16.359374-38.019531 16.359374zm0 0" fill="#fed2a4"/><path d="m174.148438 457.609375-111.039063-48.078125 11.46875-26.480469c2.222656-5.136719 8.1875-7.496093 13.320313-5.273437l92.445312 40.027344c5.136719 2.222656 7.496094 8.1875 5.269531 13.324218zm0 0" fill="#efe2dd"/><path d="m63.109375 409.53125-55.59375 94.953125h143.527344l23.105469-46.875zm0 0" fill="#57bf93"/><path d="m256.0625 8.476562c13.742188-3.59375 28.105469 3.042969 34.28125 15.835938l70.605469 146.257812c4.835937 10.019532 6.644531 21.230469 5.207031 32.261719l-16.394531 125.691407c-.996094 7.640624.855469 15.378906 5.195312 21.742187l105.222657 154.21875h-132.113282l-38.980468-91.921875c-2.433594-5.742188-5.875-11.007812-10.164063-15.535156-4.707031-4.972656-9.40625-9.933594-13.980469-15-3.980468-4.414063-7.269531-9.441406-9.710937-14.863282-4.777344-10.605468-6.21875-22.585937-4.089844-34.023437 0-.011719 4.398437-23.648437 4.398437-23.648437v-122.894532c0-12.480468 9.199219-22.804687 21.183594-24.578125l-41.121094-114.761719c-5.886718-16.425781 3.578126-34.367187 20.460938-38.78125zm0 0" fill="#fed2a4"/><path d="m460.179688 504.484375h-24.046876l-105.226562-154.222656c-4.34375-6.363281-6.191406-14.105469-5.195312-21.742188l16.398437-125.6875c1.441406-11.03125-.371094-22.246093-5.210937-32.265625l-70.597657-146.253906c-3.167969-6.554688-8.46875-11.484375-14.738281-14.257812 1.429688-.644532 2.933594-1.164063 4.496094-1.574219 13.75-3.597657 28.105468 3.035156 34.289062 15.832031l70.597656 146.253906c4.839844 10.019532 6.652344 21.234375 5.210938 32.265625l-16.398438 125.6875c-.996093 7.636719.851563 15.378907 5.195313 21.742188zm0 0" fill="#ffbd86"/><path d="m305.234375 309.492188v-122.335938c0-13.929688-11.398437-25.667969-25.328125-25.402344-13.503906.253906-24.367188 11.28125-24.367188 24.84375v122.894532s-4.398437 23.640624-4.402343 23.648437c-2.125 11.4375-.683594 23.417969 4.09375 34.023437 2.441406 5.421876 5.730469 10.449219 9.710937 14.863282 4.476563 4.960937 9.078125 9.816406 13.691406 14.683594 9.890626 10.441406 23.636719 16.359374 38.015626 16.359374zm0 0" fill="#fed2a4"/><path d="m404.582031 409.53125 55.597657 94.953125h-143.527344l-23.109375-46.875zm0 0" fill="#57bf93"/><path d="m293.542969 457.609375 111.039062-48.078125-11.464843-26.480469c-2.222657-5.136719-8.1875-7.496093-13.324219-5.273437l-92.445313 40.027344c-5.132812 2.222656-7.492187 8.1875-5.269531 13.324218zm0 0" fill="#efe2dd"/><path d="m393.117188 383.054688c-2.222657-5.140626-8.183594-7.496094-13.324219-5.28125l-4.679688 2.023437-18.566406 8.046875 22.382813 32.792969 18.566406-8.035157 7.085937-3.066406zm0 0" fill="#e1d3ce"/><path d="m404.582031 409.535156-7.085937 3.066406-18.566406 8.035157 57.203124 83.847656h24.046876zm0 0" fill="#1fb480"/><path d="m466.664062 500.6875-55.367187-94.558594-11.285156-26.066406c-3.714844-8.582031-13.476563-12.699219-22.15625-9.570312l-16.691407-24.460938c-3.304687-4.84375-4.707031-10.71875-3.949218-16.535156l4.425781-33.933594c.539063-4.113281-2.363281-7.886719-6.480469-8.421875-4.117187-.535156-7.886718 2.363281-8.421875 6.476563l-4.425781 33.933593c-1.238281 9.480469 1.050781 19.054688 6.4375 26.949219l15.027344 22.023438s-69.214844 29.96875-69.214844 29.972656c.25-.109375-5.011719-8.382813-5.664062-9.257813-3.277344-4.390625-7.136719-8.132812-10.875-12.117187-3.972657-4.234375-8.128907-8.339844-11.433594-13.097656-7.679688-11.058594-10.601563-23.8125-8.058594-37.507813 0-.003906 4.398438-23.648437 4.398438-23.648437.082031-.453126.125-.914063.125-1.375v-122.894532c0-4.074218 1.394531-7.863281 3.992187-11.003906 3.15625-3.816406 8.039063-6.242188 13.003906-6.328125 4.527344-.078125 8.863281 1.675781 12.207031 4.957031 3.472657 3.40625 5.464844 8.121094 5.464844 12.933594v122.335938c0 4.152343 3.363282 7.515624 7.515625 7.515624 4.148438 0 7.511719-3.363281 7.511719-7.515624v-122.335938c0-8.824219-3.632812-17.445312-9.964844-23.660156-5.722656-5.613282-13.058594-8.847656-20.851562-9.21875l-39.257813-109.554688c-2.125-5.9375-1.675781-12.277344 1.265625-17.855468 2.941406-5.574219 7.921875-9.527344 14.023438-11.121094 10.238281-2.675782 21.011718 2.296875 25.613281 11.832031l70.605469 146.257813c4.214844 8.726562 5.777344 18.417968 4.523437 28.023437l-5.953125 45.628906c-.535156 4.117188 2.363282 7.890625 6.480469 8.425781 4.121094.535157 7.886719-2.363281 8.425781-6.480468l5.949219-45.628906c1.632813-12.515626-.402344-25.136719-5.890625-36.5l-70.605469-146.261719c-7.71875-15.984375-25.78125-24.324219-42.953125-19.835938-8.144531 2.128907-15.300781 6.976563-20.3125 13.621094-5.015625-6.644531-12.171875-11.492187-20.3125-13.621094-17.171875-4.488281-35.238281 3.851563-42.953125 19.835938l-13.941406 28.882812c-1.804687 3.738281-.238281 8.230469 3.5 10.035157 3.738281 1.804687 8.230469.238281 10.035156-3.5l13.941407-28.882813c4.601562-9.53125 15.371093-14.507813 25.613281-11.832031 6.101562 1.597656 11.082031 5.546875 14.023437 11.125 2.945313 5.574218 3.394532 11.917968 1.265625 17.851562l-39.257812 109.5625c-7.792969.386719-15.128907 3.597656-20.847657 9.210938-6.335937 6.214844-9.96875 14.839844-9.96875 23.660156v122.335938c0 4.152343 3.363282 7.515624 7.515626 7.515624 4.148437 0 7.515624-3.363281 7.515624-7.515624v-122.335938c0-4.8125 1.988282-9.527344 5.460938-12.933594 3.347656-3.28125 7.6875-5.039062 12.207031-4.957031 9.015625.167969 17.027344 8.59375 16.996094 17.386719-.039063 11.046875 0 22.113281 0 33.171875v76.1875 13.480469c0 .460937.042969.921874.125 1.375l4.402344 23.648437c2.816406 15.144531-1.671875 31.035156-11.996094 42.476563-8.433594 9.347656-18.429687 18.132812-24.039063 29.503906l-69.214843-29.96875 15.027343-22.023438c5.386719-7.898437 7.675782-17.46875 6.4375-26.953125l-16.394531-125.691406c-1.25-9.605469.3125-19.296875 4.523438-28.019531l36.59375-75.804688c1.800781-3.734375.234375-8.230468-3.5-10.035156-3.742188-1.804688-8.230469-.234375-10.035157 3.503906l-36.59375 75.800782c-5.484374 11.367187-7.523437 23.988281-5.890624 36.5l16.394531 125.691406c.757812 5.816406-.644531 11.691406-3.953125 16.535156l-16.6875 24.460938c-8.683594-3.128907-18.441406.988281-22.160156 9.574218l-11.28125 26.0625-55.367188 94.558594c-1.363281 2.324219-1.375 5.199219-.035156 7.535156 1.339844 2.339844 3.828125 3.777344 6.519531 3.777344h143.527344c2.859375 0 5.472656-1.625 6.738281-4.191406 0 0 23.152344-46.980469 23.175781-47.035156.03125-.058594 11.554688-26.65625 11.554688-26.65625 1.875-4.324219 1.949219-9.121094.214843-13.503907-1.242187-3.140625-3.316406-5.789062-5.980468-7.730469 1.460937-2.910156 3.21875-5.640624 5.265625-8.160156 5.03125-6.195312 10.96875-11.730468 16.320312-17.660156 4.519531-5.007812 8.214844-10.664062 10.980469-16.808594 5.382812-11.941406 7.027344-25.609375 4.636719-38.457031-.003907-.007813-3.558594-19.117187-4.28125-22.996094v-122.203125c0-10.667968-4.902344-20.398437-13.949219-26.445312-1.609375-1.078125-3.304688-2.03125-5.058594-3.027344 0-.007812.15625-.113281.121094-.203125-.394531-1.027344 15.613281-43.578125 19.996094-55.804687 4.359375-12.160157 8.714844-24.316407 13.070312-36.472657 7.902344 22.050781 33.148438 92.503907 33.148438 92.503907-1.675782.769531-3.347656 1.75-4.867188 2.796874-.066406.046876-.136718.09375-.203125.140626-4.472656 3.140624-8.53125 7.960937-10.84375 12.875-.023437.042968-.039062.089843-.0625.136718-2.777343 5.988282-2.992187 11.992188-2.992187 18.390625v20.164063 29.09375 30.722656 25.039062 12.054688c0 .074219.011718.164062 0 .238281-.722656 3.875-4.273438 22.964844-4.273438 22.964844-1.289062 6.929687-1.398437 14.085937-.394531 21.085937 1.390625 9.707032 4.878906 18.878907 10.371094 27.015626 5.414062 8.023437 12.75 14.960937 19.417969 21.988281l.320312.335937c.726562.769532 1.421875 1.566406 2.089844 2.378906.039062.050782.082031.097657.121094.144532 2.046874 2.519531 3.808593 5.253906 5.269531 8.164062-2.664063 1.945313-4.738281 4.589844-5.980469 7.730469-1.734375 4.382813-1.660156 9.179687.214844 13.503906 0 0 11.523437 26.597657 11.550781 26.660157.023437.050781.042969.105468.070313.15625l23.105468 46.875c1.265625 2.570312 3.878906 4.195312 6.742188 4.195312h143.527344c2.691406 0 5.179687-1.441406 6.519531-3.777344 1.339843-2.335937 1.324219-5.210937-.035157-7.535156zm-320.296874-3.71875h-125.742188l45.609375-77.894531 97.683594 42.292969zm32.351562-68.828125-8.480469 19.585937-88.949219-38.511718-8.296874-3.59375 8.480468-19.585938c.574219-1.324218 2.117188-1.933594 3.441406-1.359375l92.445313 40.027344c.863281.371094 1.242187 1.058594 1.394531 1.4375.144532.375.339844 1.136719-.035156 2zm110.253906 0c-.371094-.863281-.179687-1.625-.03125-2 .148438-.378906.527344-1.066406 1.394532-1.441406l92.445312-40.023438c.335938-.148437.6875-.21875 1.035156-.21875 1.011719 0 1.976563.59375 2.40625 1.578125l8.480469 19.585938-8.296875 3.59375-88.949219 38.511718zm32.351563 68.828125-17.550781-35.597656 97.6875-42.296875 45.609374 77.898437h-125.746093zm0 0"/></svg>