<svg height="511pt" viewBox="-48 0 511 511.998" width="511pt" xmlns="http://www.w3.org/2000/svg"><path d="m402.332031 198.074219c-5.042969-2.320313-10.054687-4.90625-15.222656-6.925781-15.582031-6.089844-31.640625-6.632813-46.476563 1.84375-13.949218 7.972656-24.707031 20.539062-37.300781 30.332031v-143.175781c0-16.175782-13.109375-29.285157-29.285156-29.285157h-5.015625c-16.175781 0-29.289062 13.109375-29.289062 29.285157v-43.355469c0-16.175781-13.109376-29.289063-29.285157-29.289063h-5.015625c-16.175781 0-29.289062 13.113282-29.289062 29.289063v43.355469c0-16.175782-13.109375-29.285157-29.285156-29.285157h-5.015626c-16.175781 0-29.289062 13.109375-29.289062 29.285157v143.175781c-.175781.15625-17.996094-15.597657-21.644531-18.742188-6.796875-5.859375-13.996094-11.5-22.378907-14.898437-19.097656-7.746094-37.496093.34375-54.96875 8.390625-5.570312 2.5625-7.316406 9.625-3.589843 14.488281l16.824219 21.976562c15.003906 19.597657 23.132812 43.589844 23.132812 68.265626v42.820312c0 84.820312 66.429688 155.039062 150.304688 158.871094h15.414062c83.875-3.832032 150.300781-74.050782 150.300781-158.871094v-42.820312c0-24.675782 8.128907-48.667969 23.132813-68.265626l16.828125-21.976562c3.722656-4.863281 1.976562-11.925781-3.585938-14.488281zm0 0" fill="#ffc143"/><path d="m405.917969 212.5625-16.832031 21.972656c-15 19.605469-23.125 43.589844-23.125 68.265625v42.816407c0 84.828124-66.433594 155.042968-150.308594 158.875h-15.410156c-3.710938-.167969-7.382813-.46875-11.015626-.890626 85.035157-9.59375 150.769532-82.742187 150.769532-170.351562v-46.148438c0-26.597656 8.765625-52.457031 24.933594-73.578124l18.132812-23.6875c.03125-.039063.050781-.070313.082031-.109376 1.320313.429688 2.640625.910157 3.960938 1.421876 5.175781 2.019531 10.1875 4.601562 15.21875 6.921874 5.574219 2.5625 7.316406 9.628907 3.59375 14.492188zm0 0" fill="#ffb509"/><path d="m349.449219 416.808594c-3.621094-2.015625-8.191407-.71875-10.210938 2.902344-12.296875 22.058593-30.007812 40.839843-51.21875 54.316406-21.757812 13.820312-46.835937 21.757812-72.539062 22.960937h-15.066407c-38.546874-1.804687-74.527343-18.390625-101.324218-46.714843-26.855469-28.386719-41.644532-65.554688-41.644532-104.652344v-42.816406c0-26.179688-8.765624-52.042969-24.679687-72.828126l-16.828125-21.976562c-.519531-.683594-.449219-1.382812-.363281-1.742188.109375-.433593.394531-1.027343 1.136719-1.371093 19.015624-8.753907 33.664062-14.472657 49.007812-8.25 7.453125 3.023437 14.160156 8.335937 20.296875 13.625 5.445313 4.695312 10.796875 9.472656 16.246094 14.199219 4.105469 3.5625 9.722656 9.292968 15.214843 4.535156 1.648438-1.425782 2.59375-3.496094 2.59375-5.671875v-70.644531c0-4.144532-3.359374-7.503907-7.503906-7.503907-4.144531 0-7.507812 3.359375-7.507812 7.503907v54.300781c-1.132813-.996094-2.199219-1.929688-3.117188-2.734375-2.730468-2.394532-5.042968-4.417969-6.121094-5.347656-7.113281-6.132813-14.996093-12.332032-24.460937-16.171876-22.546875-9.144531-43.828125.65625-60.925781 8.527344-4.738282 2.183594-8.171875 6.335938-9.429688 11.394532-1.253906 5.058593-.152344 10.335937 3.015625 14.472656l16.828125 21.980468c13.917969 18.179688 21.585938 40.804688 21.585938 63.703126v42.816406c0 42.949218 16.246094 83.777344 45.75 114.964844 29.523437 31.207031 69.199218 49.460937 111.714844 51.402343.113281.007813.226562.007813.34375.007813h15.414062c.113281 0 .226562 0 .34375-.007813 28.371094-1.292969 56.054688-10.042969 80.066406-25.292969 23.3125-14.808593 42.773438-35.445312 56.28125-59.679687 2.019532-3.617187.722656-8.1875-2.898437-10.207031zm0 0"/><path d="m414.890625 202.648438c-1.253906-5.058594-4.6875-9.210938-9.421875-11.390626-1.5-.6875-2.996094-1.402343-4.496094-2.121093-3.578125-1.707031-7.28125-3.472657-11.132812-4.980469-18.988282-7.417969-37.292969-6.617188-52.929688 2.320312-9.476562 5.417969-17.40625 12.625-25.074218 19.59375-.335938.304688-.667969.605469-.996094.90625v-126.828124c0-20.289063-16.507813-36.792969-36.792969-36.792969h-5.015625c-8.148438 0-15.679688 2.660156-21.785156 7.160156v-13.722656c.003906-20.289063-16.503906-36.792969-36.789063-36.792969h-5.015625c-20.289062 0-36.792968 16.503906-36.792968 36.792969v13.71875c-6.101563-4.496094-13.636719-7.15625-21.78125-7.15625h-5.015626c-20.289062 0-36.792968 16.503906-36.792968 36.792969v25.253906c0 4.144531 3.359375 7.503906 7.503906 7.503906s7.507812-3.359375 7.507812-7.503906v-25.253906c0-12.011719 9.769532-21.78125 21.78125-21.78125h5.015626c12.011718 0 21.78125 9.769531 21.78125 21.78125v144.140624c0 4.144532 3.359374 7.503907 7.503906 7.503907 4.144531 0 7.507812-3.359375 7.507812-7.503907v-187.496093c0-12.011719 9.769532-21.78125 21.78125-21.78125h5.015625c12.011719 0 21.78125 9.769531 21.78125 21.78125v187.496093c0 4.144532 3.359375 7.503907 7.503907 7.503907 4.148437 0 7.507812-3.359375 7.507812-7.503907v-144.140624c0-12.011719 9.769531-21.78125 21.78125-21.78125h5.015625c12.011719 0 21.78125 9.769531 21.78125 21.78125v143.175781c0 2.867187 1.632813 5.484375 4.207031 6.742187 2.578125 1.257813 5.644532.941406 7.90625-.816406 4.910156-3.820312 9.527344-8.015625 13.988282-12.074219 7.394531-6.71875 14.378906-13.070312 22.425781-17.664062 11.730469-6.707031 25.195312-7.167969 40.023437-1.375 3.339844 1.308593 6.640625 2.878906 10.128906 4.546875 1.5625.746094 3.121094 1.488281 4.683594 2.207031.738282.34375 1.023438.933594 1.132813 1.367187.085937.359376.15625 1.058594-.363281 1.742188l-16.828126 21.976562c-15.914062 20.785157-24.675781 46.648438-24.675781 72.828126v42.820312c0 10.570312-1.09375 21.136719-3.253906 31.410156-.851563 4.054688 1.746094 8.035156 5.804687 8.886719.519532.109375 1.035157.160156 1.550782.160156 3.472656 0 6.59375-2.425781 7.335937-5.964843 2.367188-11.28125 3.570313-22.886719 3.570313-34.492188v-42.820312c0-22.898438 7.667968-45.519532 21.585937-63.703126l16.828125-21.976562c3.167969-4.140625 4.265625-9.414062 3.011719-14.476562zm0 0"/><path d="m207.949219 294.605469c-.035157-.003907-64.199219-4.003907-101.980469 53.042969-.601562.90625-.601562 2.089843 0 2.996093 37.78125 57.046875 101.945312 53.046875 101.980469 53.042969.035156 0 64.199219 4.003906 101.980469-53.042969.597656-.90625.597656-2.09375 0-2.996093-37.78125-57.046876-101.945313-53.046876-101.980469-53.042969zm0 0" fill="#efe2dd"/><path d="m309.929688 350.648438c-37.78125 57.042968-101.945313 53.042968-101.980469 53.042968-.039063 0-54.679688 3.402344-92.796875-40.894531 37.746094 33.683594 84.085937 30.796875 84.117187 30.789063.035157.007812 65.691407 4.097656 104.359375-54.273438.042969-.0625.078125-.125.117188-.191406 2.121094 2.675781 4.1875 5.515625 6.183594 8.527344.601562.90625.601562 2.089843 0 3zm0 0" fill="#e1d3ce"/><path d="m262.492188 349.144531c0 30.125-24.421876 54.542969-54.542969 54.542969-30.125 0-54.542969-24.417969-54.542969-54.542969 0-30.121093 24.417969-54.539062 54.542969-54.539062 30.121093 0 54.542969 24.417969 54.542969 54.539062zm0 0" fill="#575f64"/><path d="m262.488281 349.144531c0 30.121094-24.417969 54.546875-54.539062 54.546875-2.40625 0-4.773438-.15625-7.09375-.457031 26.773437-3.484375 47.449219-26.371094 47.449219-54.089844 0-27.714843-20.675782-50.601562-47.449219-54.082031 2.320312-.300781 4.6875-.457031 7.09375-.457031 30.121093 0 54.539062 24.417969 54.539062 54.539062zm0 0" fill="#474f54"/><path d="m235.980469 322.574219c0 15.484375-12.550781 28.035156-28.03125 28.035156-15.484375 0-28.03125-12.550781-28.03125-28.035156 0-15.480469 12.546875-28.03125 28.03125-28.03125 15.480469 0 28.03125 12.550781 28.03125 28.03125zm0 0" fill="#efe2dd"/><path d="m235.980469 322.574219c0 15.484375-12.546875 28.035156-28.03125 28.035156-2.78125 0-5.46875-.40625-8-1.160156 11.582031-3.445313 20.027343-14.175781 20.027343-26.875s-8.445312-23.425781-20.027343-26.871094c2.53125-.753906 5.21875-1.160156 8-1.160156 15.484375 0 28.03125 12.550781 28.03125 28.03125zm0 0" fill="#e1d3ce"/><path d="m316.1875 343.503906c-19.78125-29.867187-51.308594-49.382812-86.558594-54.917968-49.550781-7.785157-101.882812 12.585937-129.917968 54.917968-2.269532 3.429688-2.269532 7.859375 0 11.285156 35.035156 52.894532 90.84375 56.472657 105.28125 56.472657 1.382812 0 2.386718-.03125 2.957031-.058594 6.507812.292969 69.851562 1.550781 108.238281-56.414063 2.269531-3.429687 2.269531-7.855468 0-11.285156zm-87.710938-20.929687c0 11.320312-9.207031 20.527343-20.527343 20.527343-11.320313 0-20.527344-9.207031-20.527344-20.523437-.003906-26.714844 41.054687-26.457031 41.054687-.003906zm-70.695312 63.023437c-17.710938-8.054687-32.386719-20.25-43.753906-36.453125 11.367187-16.195312 26.042968-28.394531 43.753906-36.449219-7.460938 10.242188-11.878906 22.835938-11.878906 36.449219 0 13.617188 4.417968 26.210938 11.878906 36.453125zm50.167969 10.585938c-25.9375 0-47.039063-21.101563-47.039063-47.039063 0-11.917969 4.464844-22.808593 11.800782-31.105469-.191407 1.488282-.300782 3-.300782 4.535157 0 19.597656 15.945313 35.539062 35.539063 35.539062s35.535156-15.941406 35.535156-35.539062c0-1.535157-.109375-3.050781-.296875-4.535157 7.332031 8.296876 11.796875 19.1875 11.796875 31.105469 0 25.9375-21.097656 47.039063-47.035156 47.039063zm50.167969-10.585938c7.460937-10.242187 11.878906-22.835937 11.878906-36.453125 0-13.613281-4.417969-26.207031-11.878906-36.449219 17.710937 8.054688 32.386718 20.253907 43.753906 36.449219-11.367188 16.199219-26.042969 28.398438-43.753906 36.453125zm0 0"/></svg>