<svg height="512pt" viewBox="0 0 512 512" width="512pt" xmlns="http://www.w3.org/2000/svg"><path d="m504.492188 256c0 137.238281-111.253907 248.492188-248.492188 248.492188s-248.492188-111.253907-248.492188-248.492188 111.253907-248.492188 248.492188-248.492188 248.492188 111.253907 248.492188 248.492188zm0 0" fill="#efe2dd"/><path d="m504.492188 256c0 137.238281-111.253907 248.492188-248.492188 248.492188-5.746094 0-11.445312-.191407-17.089844-.582032 129.265625-8.785156 231.390625-116.417968 231.390625-247.910156s-102.125-239.125-231.390625-247.910156c5.644532-.390625 11.34375-.582032 17.089844-.582032 137.238281 0 248.492188 111.253907 248.492188 248.492188zm0 0" fill="#e1d3ce"/><path d="m504.492188 256c0 81.644531-39.367188 154.089844-100.160157 199.375 9.601563-12.265625 16.5-26.71875 19.859375-41.914062 13.152344-59.355469-10.507812-112.253907-66.578125-136.265626-70.609375-30.242187-156.035156-9.351562-222.964843-52.699218-42.597657-27.59375-57.792969-77.621094-47.082032-125.957032 3.332032-15.015624 10.101563-29.316406 19.527344-41.484374 0-.019532.011719-.019532.011719-.019532 41.492187-31.101562 93.035156-49.527344 148.894531-49.527344 137.238281 0 248.492188 111.253907 248.492188 248.492188zm0 0" fill="#575f64"/><path d="m504.441406 256c.023438 13.277344-1.085937 26.558594-3.160156 39.667969-1.5625 9.894531-3.785156 19.6875-6.535156 29.324219-6.042969 21.167968-14.890625 41.273437-26.351563 60.054687-5.550781 9.09375-11.507812 17.726563-18.253906 26.066406-13.328125 16.472657-28.464844 31.308594-45.464844 44.011719-.113281.089844-.222656.179688-.34375.25 9.597657-12.265625 16.5-26.71875 19.859375-41.914062 1.296875-5.835938 2.226563-11.601563 2.820313-17.292969 27.3125-39.898438 43.289062-88.160157 43.289062-140.167969 0-131.492188-102.125-239.125-231.390625-247.910156 1.34375-.089844 2.6875-.171875 4.03125-.25.28125-.011719.550782-.019532.832032-.042969.933593-.039063 1.867187-.078125 2.796874-.109375.472657-.019531.945313-.039062 1.414063-.050781.0625-.007813.132813-.007813.191406-.007813 1.171875-.039062 2.347657-.058594 3.519531-.082031 1.4375-.027344 2.871094-.039063 4.304688-.039063 56.191406 0 111.421875 19.332032 155.277344 54.476563 43.222656 34.636719 74.203125 83.523437 86.757812 137.496094 4.253906 18.277343 6.367188 37.511719 6.40625 56.519531zm0 0" fill="#474f54"/><path d="m290.1875 134.605469c0 18.882812-15.304688 34.1875-34.1875 34.1875s-34.1875-15.304688-34.1875-34.1875c0-18.882813 15.304688-34.1875 34.1875-34.1875s34.1875 15.304687 34.1875 34.1875zm0 0" fill="#efe2dd"/><path d="m290.1875 377.394531c0 18.882813-15.304688 34.1875-34.1875 34.1875s-34.1875-15.304687-34.1875-34.1875c0-18.882812 15.304688-34.1875 34.1875-34.1875s34.1875 15.304688 34.1875 34.1875zm0 0" fill="#575f64"/><path d="m290.191406 134.609375c0 18.875-15.304687 34.179687-34.191406 34.179687-13.691406 0-25.496094-8.042968-30.964844-19.660156 4.234375 1.886719 8.929688 2.929688 13.875 2.929688 18.882813 0 34.191406-15.304688 34.191406-34.191406 0-5.195313-1.152343-10.109376-3.230468-14.523438 11.976562 5.328125 20.320312 17.3125 20.320312 31.265625zm0 0" fill="#e1d3ce"/><path d="m290.191406 377.394531c0 18.886719-15.304687 34.191407-34.191406 34.191407-13.691406 0-25.507812-8.042969-30.964844-19.667969 4.234375 1.882812 8.929688 2.925781 13.875 2.925781 18.882813 0 34.191406-15.304688 34.191406-34.179688 0-5.195312-1.152343-10.109374-3.230468-14.523437 11.976562 5.316406 20.320312 17.308594 20.320312 31.253906zm0 0" fill="#474f54"/><path d="m196.695312 489.632812c-51.03125-12.910156-97.199218-42.917968-130-84.492187-33.808593-42.855469-51.679687-94.425781-51.679687-149.140625 0-15.257812 1.433594-30.527344 4.265625-45.386719.777344-4.074219-1.894531-8.003906-5.96875-8.78125-4.074219-.78125-8.003906 1.898438-8.777344 5.96875-3.011718 15.785157-4.535156 32-4.535156 48.199219 0 58.121094 18.988281 112.910156 54.910156 158.441406 34.835938 44.15625 83.882813 76.03125 138.101563 89.75.617187.15625 1.234375.230469 1.847656.230469 3.355469 0 6.410156-2.265625 7.269531-5.667969 1.019532-4.019531-1.414062-8.101562-5.433594-9.121094zm0 0"/><path d="m437.019531 74.980469c-48.351562-48.351563-112.640625-74.980469-181.019531-74.980469-.3125 0-.621094.0078125-.933594.0078125-1.359375.0078125-2.71875.015625-4.078125.0429687-.890625.015625-1.777343.046875-2.664062.0742188-.765625.023438-1.535157.039062-2.300781.066406-1.132813.042969-2.261719.101563-3.390626.160156-.5.027344-1 .046876-1.5.074219-1.320312.074219-2.640624.164063-3.960937.261719-.285156.019531-.566406.035156-.851563.058594-1.503906.113281-3.003906.242187-4.503906.378906-.074218.007812-.148437.015625-.222656.019531-43.585938 4.085938-84.890625 19.121094-121.046875 44.164063-.027344.015625-.050781.035156-.074219.050781-2.648437 1.828125-5.238281 3.71875-7.824218 5.632813-.015626.011718-.027344.023437-.042969.035156-37.976563 28.429687-67.136719 66.476562-84.636719 110.582031-1.53125 3.851563.351562 8.214844 4.207031 9.746094s8.21875-.351563 9.746094-4.207031c11.644531-29.34375 28.777344-55.835938 50.441406-78.300782-.808593 2.664063-1.523437 5.355469-2.125 8.066406-5.71875 25.800782-4.402343 51.695313 3.800781 74.882813 8.667969 24.496094 24.757813 44.898437 46.527344 59 38.796875 25.125 83.429688 29.507813 126.59375 33.746094 33.070313 3.246093 67.269532 6.605469 97.5 19.550781 25.484375 10.914062 44.648438 28.621094 55.425782 51.210938 10.601562 22.226562 12.945312 48.6875 6.777343 76.535156-3.035156 13.71875-9.230469 26.917968-17.929687 38.234375-41.164063 30.453125-90.785156 46.910156-142.933594 46.910156-4.738281 0-9.539062-.140625-14.261719-.414063-4.152343-.253906-7.691406 2.917969-7.929687 7.058594-.242188 4.136719 2.917968 7.6875 7.054687 7.929688 5.015625.292968 10.109375.441406 15.136719.441406 68.378906 0 132.667969-26.628906 181.019531-74.980469 31.878907-31.882812 54.3125-70.691406 65.898438-113.035156.242187-.886719.464843-1.777344.699219-2.667969.320312-1.21875.640624-2.4375.941406-3.660156.324218-1.308594.628906-2.621094.933594-3.9375.179687-.777344.355468-1.558594.527343-2.339844.332031-1.523437.660157-3.046875.964844-4.578125.097656-.488281.1875-.976562.285156-1.460937 1.4375-7.398438 2.546875-14.875 3.328125-22.429688.074219-.722656.152344-1.449218.222656-2.175781.128907-1.382813.246094-2.765625.355469-4.152344.082031-1.023437.15625-2.046875.222657-3.070312.082031-1.207031.15625-2.414063.222656-3.625.070312-1.320313.121094-2.644531.171875-3.972657.035156-.96875.082031-1.9375.105469-2.910156.058593-2.183594.089843-4.371094.09375-6.566406 0-.144531.007812-.289062.007812-.433594 0-68.382812-26.628906-132.671875-74.980469-181.023437zm59.960938 181.457031c-.015625 9.367188-.542969 18.730469-1.636719 28.035156-3.347656 28.484375-11.695312 55.867188-24.8125 81.421875-10.777344 21-24.742188 40.4375-41.1875 57.480469.835938-2.738281 1.5625-5.503906 2.179688-8.292969 14.277343-64.453125-12.910157-119.933593-70.953126-144.789062-32.363281-13.863281-67.738281-17.332031-101.945312-20.691407-43.28125-4.25-84.164062-8.261718-119.894531-31.40625-37.753907-24.457031-54.546875-69.679687-43.832031-118.03125 3-13.53125 9.054687-26.554687 17.53125-37.726562.527343-.394531 1.058593-.78125 1.59375-1.167969 34.605468-25.253906 76.167968-41.28125 119.042968-45.179687.019532-.003906.039063-.003906.0625-.003906 7.839844-.761719 15.117188-1.070313 22.871094-1.070313 64.371094 0 124.886719 25.066406 170.402344 70.582031s70.582031 106.03125 70.582031 170.402344c0 .148438-.003906.292969-.003906.4375zm0 0"/><path d="m256 92.910156c-22.992188 0-41.695312 18.703125-41.695312 41.695313 0 22.992187 18.703124 41.695312 41.695312 41.695312s41.695312-18.703125 41.695312-41.695312c0-22.992188-18.703124-41.695313-41.695312-41.695313zm0 68.378906c-14.710938 0-26.679688-11.972656-26.679688-26.683593 0-14.710938 11.96875-26.679688 26.679688-26.679688s26.679688 11.96875 26.679688 26.679688c0 14.710937-11.96875 26.683593-26.679688 26.683593zm0 0"/><path d="m297.695312 377.394531c0-22.992187-18.703124-41.695312-41.695312-41.695312s-41.695312 18.703125-41.695312 41.695312c0 22.992188 18.703124 41.695313 41.695312 41.695313s41.695312-18.703125 41.695312-41.695313zm-68.375 0c0-14.710937 11.96875-26.679687 26.679688-26.679687s26.679688 11.96875 26.679688 26.679687c0 14.710938-11.96875 26.683594-26.679688 26.683594s-26.679688-11.972656-26.679688-26.683594zm0 0"/></svg>