<svg height="511pt" viewBox="1 -25 511.999 511" width="511pt" xmlns="http://www.w3.org/2000/svg"><path d="m504.492188 360.535156c0-51.980468-111.253907-94.121094-248.492188-94.121094s-248.492188 42.140626-248.492188 94.121094c0 51.984375 111.253907 94.125 248.492188 94.125s248.492188-42.140625 248.492188-94.125zm0 0" fill="#57bf93"/><path d="m504.496094 360.535156c0 51.984375-111.253906 94.125-248.496094 94.125-30.921875 0-60.523438-2.140625-87.828125-6.046875 6.785156.203125 13.640625.300781 20.558594.300781 151.746093 0 274.75-49.339843 274.75-110.210937 0-13.683594-6.214844-26.777344-17.566407-38.871094 36.558594 16.386719 58.582032 37.570313 58.582032 60.703125zm0 0" fill="#1fb480"/><path d="m149.851562 81.789062c-10.207031-5.179687-20.410156-10.355468-30.613281-15.535156-6.480469-3.285156-13.675781-.394531-16.078125 6.464844-3.488281 9.976562-8.296875 23.714844-11.335937 32.402344-13.804688 39.453125-29.691407 92.902344-9.742188 136.464844 22.023438 48.085937 75.847657 54.609374 114.097657 39.234374 38.246093-15.382812 72.570312-57.355468 55.171874-107.300781-15.761718-45.25-64.226562-72.820312-101.5-91.730469zm0 0" fill="#e32929"/><path d="m362.148438 81.789062c10.207031-5.179687 20.410156-10.355468 30.613281-15.535156 6.480469-3.285156 13.675781-.394531 16.078125 6.464844 3.488281 9.976562 8.296875 23.714844 11.335937 32.402344 13.804688 39.453125 29.691407 92.902344 9.742188 136.464844-22.023438 48.085937-75.847657 54.609374-114.097657 39.234374-38.246093-15.382812-72.570312-57.355468-55.171874-107.300781 15.761718-45.25 64.226562-72.820312 101.5-91.730469zm0 0" fill="#e32929"/><path d="m429.917969 241.582031c-21.453125 46.847657-73.09375 54.257813-111.105469 40.382813 32.113281 2.183594 66.167969-10.570313 82.578125-46.398438 19.949219-43.5625 4.0625-97.007812-9.742187-136.460937-2.5625-7.316407-6.367188-18.195313-9.597657-27.417969 3.570313-1.808594 7.136719-3.621094 10.710938-5.433594 6.484375-3.285156 13.683593-.390625 16.074219 6.464844 3.492187 9.980469 8.300781 23.714844 11.34375 32.40625 13.800781 39.449219 29.6875 92.894531 9.738281 136.457031zm0 0" fill="#cb2222"/><path d="m298.347656 48.542969c-10.207031-11.664063-20.410156-23.320313-30.613281-34.980469-6.480469-7.40625-16.984375-7.40625-23.464844-.003906-9.425781 10.773437-22.40625 25.601562-30.617187 34.984375-37.273438 42.589843-84.234375 101.710937-81.175782 166.523437 3.375 71.535156 67.699219 106.925782 123.523438 106.929688 55.824219-.003906 120.152344-35.394532 123.527344-106.929688 3.054687-64.8125-43.90625-123.933594-81.179688-166.523437zm0 0" fill="#ff9a9a"/><path d="m379.527344 215.066406c-3.375 71.53125-67.699219 106.929688-123.527344 106.929688-6.136719 0-12.371094-.429688-18.617188-1.28125 50.601563-6.9375 101.890626-41.984375 104.894532-105.648438 3.054687-64.804687-43.902344-123.9375-81.183594-166.519531-7.90625-9.039063-15.816406-18.070313-23.722656-27.109375 2.421875-2.761719 4.746094-5.425781 6.898437-7.878906 6.476563-7.40625 16.984375-7.394532 23.460938 0 10.203125 11.664062 20.414062 23.324218 30.613281 34.988281 37.277344 42.582031 84.234375 101.714844 81.183594 166.519531zm0 0" fill="#ff7a7a"/><path d="m464.554688 148.816406c-11.53125.789063-23.0625 1.578125-34.59375 2.363282-41.613282 2.84375-96.703126 9.25-129.375 43.976562 0 0-30.328126 22.65625-44.585938 73.75-14.257812-51.09375-44.582031-73.75-44.582031-73.75-32.675781-34.726562-87.765625-41.132812-129.375-43.976562-11.535157-.785157-23.066407-1.574219-34.59375-2.363282-7.324219-.496094-12.875 5.03125-12.398438 12.355469.691407 10.65625 1.640625 25.324219 2.242188 34.601563 3.382812 52.117187 15.5625 104.269531 55.742187 140.769531 43.074219 39.128906 105.144532 55.273437 162.167969 55.273437 50.320313 0 105.632813-10.804687 147.160156-42.214844 49.128907-37.15625 68.5-94.535156 72.347657-153.828124.601562-9.277344 1.550781-23.945313 2.242187-34.601563.472656-7.324219-5.078125-12.851563-12.398437-12.355469zm0 0" fill="#ff4343"/><path d="m476.957031 161.171875c-.691406 10.660156-1.640625 25.324219-2.253906 34.605469-3.84375 59.289062-23.214844 116.667968-72.34375 153.828125-40.53125 30.660156-94.207031 41.679687-143.546875 42.191406 39.449219-5.914063 78.421875-19.109375 110.164062-43.125 54.726563-41.382813 76.296876-105.285156 80.582032-171.324219.480468-7.417968 1.160156-17.910156 1.792968-27.628906 4.402344-.300781 8.796876-.601562 13.203126-.902344 7.328124-.5 12.871093 5.035156 12.402343 12.355469zm0 0" fill="#f72c2c"/><path d="m456.476562 296.527344c14.589844-28.019532 23.210938-61.515625 25.722657-100.265625l2.246093-34.605469c.363282-5.648438-1.628906-11.085938-5.46875-14.910156-3.839843-3.828125-9.292968-5.804688-14.933593-5.417969l-24.4375 1.667969c-3.441407-13.773438-7.789063-27.347656-12.339844-40.355469l-11.339844-32.402344c-1.859375-5.3125-5.792969-9.511719-10.792969-11.519531-5-2.011719-10.746093-1.703125-15.765624.839844l-30.613282 15.535156c-6.742187 3.417969-13.554687 7.007812-20.316406 10.792969-5.011719-6.808594-10.003906-13.175781-14.742188-19.019531-2.609374-3.21875-7.339843-3.714844-10.558593-1.101563-3.222657 2.613281-3.714844 7.339844-1.101563 10.558594 16.53125 20.382812 36.269532 47.253906 48.5 77.554687-24.777344 6.667969-47.691406 17.507813-65.007812 35.699219-3.8125 3.015625-24.773438 20.722656-39.527344 56.320313-14.753906-35.597657-35.714844-53.304688-39.527344-56.320313-17.324218-18.203125-40.253906-29.039063-65.042968-35.707031 3.527343-8.699219 7.867187-17.582032 13.039062-26.691406 15.730469-27.699219 36.546875-52.796876 54.832031-73.695313l30.617188-34.980469c1.6875-1.925781 3.847656-2.988281 6.082031-2.988281s4.394531 1.0625 6.082031 2.992187l19.238281 21.980469c2.730469 3.121094 7.476563 3.4375 10.59375.703125 3.121094-2.730468 3.4375-7.472656.707032-10.59375l-19.238282-21.980468c-4.582031-5.234376-10.753906-8.117188-17.382812-8.117188-6.625 0-12.800781 2.882812-17.378906 8.113281l-30.617188 34.984375c-11.085937 12.664063-23.082031 26.867188-34.425781 42.300782-6.765625-3.785157-13.585937-7.382813-20.328125-10.804688l-30.613281-15.535156c-5.023438-2.546875-10.769531-2.851563-15.769531-.839844-5 2.007812-8.933594 6.207031-10.792969 11.519531l-11.339844 32.40625c-4.550781 13.007813-8.902344 26.578125-12.34375 40.351563l-24.433594-1.667969c-5.648437-.382813-11.09375 1.589844-14.933593 5.417969-3.84375 3.824218-5.835938 9.261718-5.46875 14.910156l2.242187 34.605469c1.878906 28.914062 6.679687 66.59375 24.246094 101.003906-35.046875 17.640625-54.042969 39.640625-54.042969 63.269531 0 28.484375 27.570312 54.613282 77.628906 73.574219 47.765625 18.09375 111.109375 28.054687 178.371094 28.054687 88.980469 0 169.949219-17.386718 216.59375-46.515624 3.515625-2.199219 4.585938-6.828126 2.390625-10.34375-2.195313-3.519532-6.828125-4.589844-10.34375-2.394532-43.695313 27.289063-123.644531 44.238282-208.640625 44.238282-65.488281 0-126.945312-9.617188-173.050781-27.078126-43.171875-16.355468-67.933594-38.050781-67.933594-59.535156 0-17.613281 16.648437-35.375 46.449219-50.214844 7.109375 11.296876 15.808594 22.050782 26.519531 31.78125 40.03125 36.367188 100.980469 57.222657 167.21875 57.222657 42.820313 0 103.894531-7.585938 151.6875-43.730469 16.800781-12.707031 30.847656-28.074219 42.121094-46.011719 30.746093 14.984375 47.972656 33.042969 47.972656 50.953125 0 4.0625-.875 8.167969-2.601563 12.207032-1.628906 3.8125.140626 8.222656 3.953126 9.851562 3.8125 1.632812 8.222656-.136719 9.855468-3.953125 2.523438-5.910156 3.808594-12.003906 3.808594-18.105469 0-23.957031-19.53125-46.246094-55.523438-64.007812zm-109.3125-198.316406c6.117188-3.394532 12.28125-6.632813 18.382813-9.726563l30.613281-15.535156c1.191406-.601563 2.359375-.707031 3.371094-.300781s1.78125 1.289062 2.222656 2.550781l11.335938 32.402343c4.128906 11.792969 8.09375 24.058594 11.300781 36.457032-16.164063 1.21875-32.839844 3.054687-49.0625 6.347656-7.40625-18.953125-17.539063-36.53125-28.164063-52.195312zm-248.253906 9.390624 11.335938-32.402343c.441406-1.261719 1.210937-2.144531 2.222656-2.550781.40625-.164063.835938-.246094 1.28125-.246094.667969 0 1.375.183594 2.089844.546875l30.613281 15.535156c6.109375 3.097656 12.28125 6.335937 18.40625 9.738281-4.722656 6.96875-9.25 14.152344-13.445313 21.539063-5.929687 10.441406-10.832031 20.636719-14.761718 30.640625-16.214844-3.289063-32.882813-5.125-49.042969-6.34375 3.207031-12.398438 7.171875-24.664063 11.300781-36.457032zm298.921875 236.011719c-24.542969 18.566407-69.210937 40.695313-142.628906 40.695313-62.550781 0-119.816406-19.4375-157.121094-53.324219-32.257812-29.296875-49.191406-72.417969-53.296875-135.695313l-2.246094-34.601562c-.085937-1.371094.285157-2.511719 1.082032-3.308594.71875-.710937 1.714844-1.082031 2.902344-1.082031.136718 0 .273437.003906.410156.011719l34.597656 2.363281c45.046875 3.074219 95.058594 10.425781 124.417969 41.628906.285156.304688.621093.601563.953125.855469.074218.054688 7.21875 5.519531 15.914062 16.816406 8 10.398438 18.996094 28.023438 25.953125 52.953125.902344 3.242188 3.859375 5.488281 7.230469 5.488281s6.324219-2.246093 7.230469-5.488281c13.320312-47.730469 41.582031-69.550781 41.847656-69.753906.351563-.261719.675781-.550781.976563-.871094 16.472656-17.507812 44.140624-36.148437 124.417968-41.628906l34.59375-2.363281c1.371094-.089844 2.515625.277344 3.3125 1.070312.796875.796875 1.171875 1.9375 1.082032 3.308594l-2.242188 34.601562c-4.34375 66.882813-27.6875 116.789063-69.386719 148.324219zm0 0"/></svg>