<svg height="512pt" viewBox="-70 0 512 512" width="512pt" xmlns="http://www.w3.org/2000/svg"><path d="m261.601562 504.507812v-47.363281c0-15.8125-7.761718-30.945312-20.585937-40.195312-6.480469-4.675781-14.070313-7.738281-21.984375-8.851563-10.257812-1.445312-10.394531-1.132812-10.394531-11.878906 0-.027344 0-11.523438 0-11.523438h-44.636719v11.523438c0 10.746094-.136719 10.433594-10.398438 11.878906-7.914062 1.113282-15.503906 4.175782-21.984374 8.851563-12.824219 9.25-20.582032 24.382812-20.582032 40.195312v47.363281zm0 0" fill="#fed2a4"/><path d="m226.027344 384.695312h-79.417969c-56.917969 0-103.058594-46.140624-103.058594-103.058593v-163.898438h285.535157v163.898438c0 56.917969-46.140626 103.058593-103.058594 103.058593zm0 0" fill="#fed2a4"/><path d="m329.085938 117.738281v163.898438c0 56.914062-46.144532 103.058593-103.058594 103.058593h-24.9375c56.914062 0 103.058594-46.144531 103.058594-103.058593v-163.898438zm0 0" fill="#ffbd86"/><path d="m118.300781 309.550781c0 8.480469-6.875 15.355469-15.355469 15.355469-8.480468 0-15.355468-6.875-15.355468-15.355469s6.875-15.355469 15.355468-15.355469c8.480469 0 15.355469 6.875 15.355469 15.355469zm0 0" fill="#ff7a7a"/><path d="m285.046875 309.550781c0 8.480469-6.875 15.355469-15.355469 15.355469-8.480468 0-15.355468-6.875-15.355468-15.355469s6.875-15.355469 15.355468-15.355469c8.480469 0 15.355469 6.875 15.355469 15.355469zm0 0" fill="#ff7a7a"/><path d="m328.679688 217.503906h2.039062c19.011719 0 34.421875 15.410156 34.421875 34.421875s-15.410156 34.421875-34.421875 34.421875h-2.039062zm0 0" fill="#fed2a4"/><path d="m43.957031 217.503906h-2.042969c-19.007812 0-34.421874 15.410156-34.421874 34.421875s15.414062 34.421875 34.421874 34.421875h2.042969zm0 0" fill="#fed2a4"/><path d="m211.636719 7.492188h-51.484375c-64.546875 0-116.871094 52.328124-116.871094 116.875v149.609374s24.667969-31 32.332031-97.5c1.726563-14.96875 14.496094-26.214843 29.566407-26.214843h161.433593c15.070313 0 27.839844 11.246093 29.566407 26.214843 7.664062 66.5 32.332031 97.5 32.332031 97.5v-149.609374c0-64.546876-52.328125-116.875-116.875-116.875zm0 0" fill="#845f3f"/><path d="m328.511719 124.367188v149.605468s-13.8125-17.359375-23.980469-53.96875v-95.636718c0-64.550782-52.332031-116.871094-116.871094-116.871094h23.980469c64.539063-.003906 116.871094 52.320312 116.871094 116.871094zm0 0" fill="#795639"/><path d="m261.601562 457.144531v47.363281h-150.566406v-41.820312c73.472656 1.109375 123.222656-49.839844 123.222656-49.839844 2.363282 1.1875 4.628907 2.554688 6.757813 4.097656 12.824219 9.25 20.585937 24.378907 20.585937 40.199219zm0 0" fill="#ffc143"/><path d="m169.367188 308.550781c-4.136719 0-7.492188 3.355469-7.492188 7.496094v.773437c0 13.480469 10.964844 24.445313 24.441406 24.445313 13.480469 0 24.445313-10.964844 24.445313-24.445313v-.773437c0-4.140625-3.355469-7.496094-7.496094-7.496094-4.136719 0-7.492187 3.355469-7.492187 7.496094v.773437c0 5.214844-4.242188 9.457032-9.457032 9.457032s-9.457031-4.242188-9.457031-9.457032v-.773437c0-4.140625-3.351563-7.496094-7.492187-7.496094zm0 0"/><path d="m137.410156 244.441406v22.082032c0 4.140624 3.355469 7.496093 7.492188 7.496093 4.136718 0 7.492187-3.355469 7.492187-7.496093v-22.082032c0-4.140625-3.355469-7.496094-7.492187-7.496094-4.136719 0-7.492188 3.355469-7.492188 7.496094zm0 0"/><path d="m235.226562 266.523438v-22.082032c0-4.140625-3.355468-7.496094-7.492187-7.496094s-7.492187 3.355469-7.492187 7.496094v22.082032c0 4.140624 3.355468 7.496093 7.492187 7.496093s7.492187-3.355469 7.492187-7.496093zm0 0"/><path d="m336.003906 210.355469v-85.988281c0-2.339844-.066406-4.707032-.199218-7.035157-.230469-4.132812-3.765626-7.28125-7.898438-7.0625-4.132812.230469-7.292969 3.769531-7.0625 7.898438.117188 2.050781.175781 4.136719.175781 6.199219v120.226562c-6.59375-15.484375-13.871093-38.363281-17.398437-68.972656-2.15625-18.730469-18.066406-32.851563-37.007813-32.851563h-105.605469c-4.136718 0-7.492187 3.355469-7.492187 7.492188s3.355469 7.492187 7.492187 7.492187h105.605469c11.324219 0 20.835938 8.417969 22.121094 19.582032 6.835937 59.3125 26.820313 91.316406 32.453125 99.328124 0 0 .070312 10.804688.191406 11.339844-3.289062 49.738282-44.796875 89.199219-95.351562 89.199219h-79.417969c-50.554687 0-92.0625-39.460937-95.347656-89.199219.117187-.535156.1875-12.570312.1875-12.570312 6.550781-9.703125 25.078125-41.429688 31.609375-98.097656 1.285156-11.160157 10.796875-19.578126 22.121094-19.578126h9.542968c4.136719 0 7.492188-3.355468 7.492188-7.496093 0-4.136719-3.355469-7.492188-7.492188-7.492188h-9.542968c-18.941407 0-34.851563 14.125-37.007813 32.851563-3.523437 30.546875-10.765625 53.105468-16.722656 67.46875l-.675781-118.722656c0-60.3125 49.070312-109.378907 109.378906-109.378907h51.484375c20.960937 0 41.324219 5.941407 58.886719 17.1875 17.113281 10.953125 30.820312 26.390625 39.648437 44.640625 1.800781 3.722656 6.277344 5.28125 10.003906 3.480469 3.726563-1.800781 5.285157-6.28125 3.484375-10.007813-10.03125-20.742187-25.613281-38.289062-45.058594-50.738281-19.980468-12.789062-43.136718-19.550781-66.964843-19.550781h-51.484375c-68.574219 0-124.363282 55.789062-124.363282 124.367188v86.097656c-20.21875 2.972656-35.789062 20.429687-35.789062 41.460937 0 21.34375 16.039062 39 36.695312 41.578125 5.941407 55.398438 52.964844 98.683594 109.914063 98.683594h9.898437s0 6.746094-.039062 7.925781c-.902344.144531-1.992188.296875-3.011719.441407-9.097656 1.273437-18.765625 4.9375-26.222656 10.316406-14.835937 10.703125-23.691406 28-23.691406 46.273437v47.363281c0 4.136719 3.355469 7.492188 7.492187 7.492188h150.566406c4.136719 0 7.492188-3.355469 7.492188-7.492188v-47.363281c0-.988281-.035156-2.003906-.109375-3.03125-.652344-9.488281-4.234375-20.382812-9.238281-28.0625-4.242188-6.507812-9.804688-12.125-16.316406-16.367187-7.027344-4.578125-14.484376-6.914063-22.589844-8.566406-.457032-.089844-4.542969-.558594-4.671875-1.003907l-.039063-7.925781h9.898438c56.949218 0 103.972656-43.285156 109.914062-98.683594 20.65625-2.578125 36.695313-20.234375 36.695313-41.578125 0-21.324219-16.007813-38.964843-36.632813-41.570312zm-321.019531 41.570312c0-12.738281 8.902344-23.421875 20.804687-26.207031l.269532 52.476562c-12.039063-2.679687-21.074219-13.433593-21.074219-26.269531zm220.339844 170.214844c.4375.292969.882812.578125 1.308593.882813 5.515626 3.980468 10.023438 9.308593 13.050782 15.398437 5.53125 11.109375 4.421875 22.929687 4.421875 34.839844v23.753906h-135.578125v-26.898437c60.277344-1.84375 103.4375-35.976563 116.796875-47.976563zm-18.21875-6.746094.882812.125c.53125.074219 1.054688.175781 1.582031.269531-16.347656 13.132813-53.046874 37.625-100.980468 39.320313.621094-12.710937 7.023437-24.589844 17.414062-32.082031 5.5-3.96875 11.949219-6.566406 18.644532-7.507813l.882812-.125c5.785156-.808593 9.96875-1.394531 13.03125-5.132812 2.929688-3.582031 2.929688-7.742188 2.929688-14.039063v-4.035156h29.648437v4.035156c0 6.296875 0 10.457032 2.933594 14.039063 3.0625 3.738281 7.242187 4.324219 13.03125 5.132812zm119.472656-137.195312-.40625-52.648438c12.242187 2.527344 21.476563 13.394531 21.476563 26.375 0 12.835938-9.03125 23.589844-21.070313 26.273438zm0 0"/></svg>