<svg height="511pt" viewBox="-63 0 511 511.998" width="511pt" xmlns="http://www.w3.org/2000/svg"><path d="m211.335938 48.222656h-36.769532s-51.925781 47.089844-91.878906 47.558594c-2.667969.03125-4.007812 3.230469-2.179688 5.167969l17.046876 18.0625h190.789062l17.046875-18.0625c1.832031-1.941407.488281-5.136719-2.179687-5.167969-39.949219-.46875-91.875-47.558594-91.875-47.558594zm0 0" fill="#575f64"/><path d="m305.390625 100.949219-17.046875 18.066406h-23.207031c3.503906-3.214844 13.980469-8.238281 8.386719-14.308594-1.464844-1.585937-3.488282-2.683593-5.429688-3.558593-7.183594-3.242188-14.566406-5.824219-21.640625-9.253907-21.703125-10.527343-40.667969-26.339843-57.273437-43.671875h22.160156s51.921875 47.089844 91.871094 47.558594c2.667968.03125 4.011718 3.226562 2.179687 5.167969zm0 0" fill="#474f54"/><path d="m38.734375 421.621094h308.945313v82.886718h-308.945313zm0 0" fill="#ff4343"/><path d="m324.21875 421.621094h23.457031v82.886718h-23.457031zm0 0" fill="#f72c2c"/><path d="m60.921875 314.453125h264.570313v46.886719h-264.570313zm0 0" fill="#ff4343"/><path d="m302.03125 314.453125h23.460938v46.886719h-23.460938zm0 0" fill="#f72c2c"/><path d="m331.457031 366.238281-7.222656-4.898437h-262.058594l-7.21875 4.898437c-10.691406 7.257813-22.804687 12.160157-35.53125 14.386719l-8.953125 1.566406c-2.296875.402344-3.273437 3.160156-1.746094 4.921875l30.007813 34.507813h308.945313l30.007812-34.507813c1.527344-1.761719.550781-4.519531-1.746094-4.921875l-8.953125-1.566406c-12.730469-2.226562-24.839843-7.128906-35.53125-14.386719zm0 0" fill="#575f64"/><path d="m309.417969 265.710938-3.878907-2.632813h-224.667968l-3.875 2.632813c-10.691406 7.257812-22.804688 12.160156-35.53125 14.386718l-4.175782.730469c-2.296874.402344-3.273437 3.160156-1.746093 4.917969l25.230469 29.015625h264.867187l25.230469-29.015625c1.527344-1.757813.550781-4.515625-1.746094-4.917969l-4.175781-.730469c-12.730469-2.226562-24.839844-7.128906-35.53125-14.386718zm0 0" fill="#575f64"/><path d="m80.859375 216.496094h224.695313v46.886718h-224.695313zm0 0" fill="#ff4343"/><path d="m282.09375 216.496094h23.460938v46.886718h-23.460938zm0 0" fill="#f72c2c"/><path d="m288.8125 165.121094h-191.214844c-8.765625 6.992187-29.117187 14.429687-37.65625 17.363281-1.917968.660156-2.636718 2.988281-1.429687 4.617187l21.984375 29.703126h225.421875l21.984375-29.703126c1.203125-1.628906.484375-3.957031-1.429688-4.617187-8.539062-2.933594-28.890625-10.371094-37.660156-17.363281zm0 0" fill="#575f64"/><g fill="#474f54"><path d="m377.679688 387.109375-30.003907 34.507813s-23.300781 0-23.308593 0c1.542968.105468 8.113281-8.578126 9.277343-9.925782 10.523438-12.179687 7.09375-24.972656-5.679687-33.738281-8.746094-6.003906-18.269532-10.65625-27.042969-16.617187h23.316406l7.222657 4.90625c10.691406 7.253906 22.796874 12.15625 35.523437 14.386718l8.949219 1.5625c2.300781.402344 3.277344 3.160156 1.746094 4.917969zm0 0"/><path d="m350.867188 285.746094-25.230469 29.015625h-23.304688c4.769531-5.488281 11.304688-9.628907 15.21875-15.855469 4.132813-6.570312-1.308593-13.933594-6.820312-17.691406-3.984375-2.722656-8.386719-4.6875-12.605469-7-5.683594-3.121094-10.765625-7.21875-15.898438-11.148438 4.089844.050782 8.1875.015625 12.28125.015625 2.1875 0 9.183594-1.25 11.027344 0 .011719.007813 3.878906 2.628907 3.878906 2.628907 10.699219 7.253906 22.804688 12.15625 35.535157 14.386718l4.175781.730469c2.296875.402344 3.273438 3.160156 1.742188 4.917969zm0 0"/><path d="m327.898438 187.105469-21.980469 29.703125h-23.308594c6.398437-10.042969 19.652344-21.027344 9.238281-33.195313-2.554687-2.984375-5.695312-5.652343-9.074218-7.664062-3.121094-1.859375-6.320313-3.585938-9.429688-5.472657-1.582031-.964843-6.210938-5.359374-7.835938-5.359374h23.304688c8.773438 6.996093 29.121094 14.4375 37.660156 17.371093 1.914063.660157 2.632813 2.988281 1.425782 4.617188zm0 0"/></g><path d="m97.820312 118.539062h190.773438v46.886719h-190.773438zm0 0" fill="#ff4343"/><path d="m265.136719 118.539062h23.457031v46.886719h-23.457031zm0 0" fill="#f72c2c"/><path d="m106.398438 453.855469h-4.050782c-9.929687 0-17.980468 8.050781-17.980468 17.980469v32.253906h40.011718v-32.253906c0-9.929688-8.050781-17.980469-17.980468-17.980469zm0 0" fill="#efe2dd"/><path d="m195.230469 453.855469h-4.050781c-9.929688 0-17.980469 8.050781-17.980469 17.980469v32.253906h40.015625v-32.253906c0-9.929688-8.050782-17.980469-17.984375-17.980469zm0 0" fill="#efe2dd"/><path d="m284.066406 453.855469h-4.050781c-9.929687 0-17.980469 8.050781-17.980469 17.980469v32.253906h40.011719v-32.253906c0-9.929688-8.050781-17.980469-17.980469-17.980469zm0 0" fill="#efe2dd"/><path d="m285.492188 453.855469v50.234375h16.554687v-33.679688c0-9.144531-7.410156-16.554687-16.554687-16.554687zm0 0" fill="#e1d3ce"/><path d="m196.65625 453.855469v50.234375h16.558594v-33.679688c0-9.144531-7.414063-16.554687-16.558594-16.554687zm0 0" fill="#e1d3ce"/><path d="m107.824219 453.855469v50.234375h16.554687v-33.679688c0-9.144531-7.410156-16.554687-16.554687-16.554687zm0 0" fill="#e1d3ce"/><path d="m211.316406 48.222656h-36.21875v-35.214844c0-3.046874 2.46875-5.515624 5.515625-5.515624h25.1875c3.046875 0 5.515625 2.46875 5.515625 5.515624zm0 0" fill="#ff4343"/><path d="m211.316406 48.222656h-36.21875v-35.214844c0-3.046874 2.46875-5.515624 5.515625-5.515624h25.1875c3.046875 0 5.515625 2.46875 5.515625 5.515624zm0 0" fill="#f72c2c"/><path d="m385.308594 381.640625c-1.261719-3.5625-4.355469-6.175781-8.074219-6.828125l-8.953125-1.566406c-11.765625-2.058594-22.738281-6.503906-32.617188-13.207032l-2.679687-1.820312v-40.484375l23.539063-27.070313c2.476562-2.847656 3.234374-6.828124 1.96875-10.390624-1.261719-3.558594-4.355469-6.175782-8.078126-6.824219l-4.171874-.730469c-11.761719-2.058594-22.738282-6.503906-32.617188-13.207031l-.578125-.390625v-39.355469l20.875-28.207031c1.984375-2.675782 2.578125-6.175782 1.589844-9.355469s-3.457031-5.722656-6.601563-6.800781c-14.492187-4.984375-26.359375-10.175782-32.824218-14.304688v-39.371094l14.753906-15.636718c2.878906-3.050782 3.683594-7.515625 2.042968-11.375-1.636718-3.855469-5.398437-6.378906-9.582031-6.425782-31.984375-.375-74.023437-34.542968-84.492187-43.492187v-31.789063c0-7.171874-5.835938-13.007812-13.007813-13.007812h-25.1875c-7.171875 0-13.007812 5.835938-13.007812 13.007812v31.351563c-2.25 1.945313-6.363281 5.402344-11.753907 9.539063-3.28125 2.519531-3.902343 7.222656-1.382812 10.507812 2.523438 3.28125 7.226562 3.898438 10.507812 1.378906 5.675782-4.355468 9.988282-7.976562 12.414063-10.070312h31.113281c9.777344 8.46875 49.371094 41.105468 85.171875 46.734375l-8.113281 8.597656h-185.222656l-8.109375-8.597656c9.890625-1.546875 20.820312-5.265625 32.625-11.109375 3.707031-1.835938 5.222656-6.328125 3.386719-10.039063-1.835938-3.707031-6.328126-5.226562-10.039063-3.390625-13.667969 6.769532-25.648437 10.261719-35.605469 10.375-4.183594.050782-7.945312 2.574219-9.578125 6.425782-1.640625 3.863281-.839843 8.328124 2.039063 11.378906l15.265625 16.175781v38.828125c-6.464844 4.128906-18.332031 9.324219-32.820313 14.304688-3.144531 1.082031-5.617187 3.625-6.601562 6.800781-.988282 3.183593-.394532 6.679687 1.585937 9.355469l20.878907 28.210937v39.351563l-.578126.394531c-9.882812 6.703125-20.855468 11.144531-32.617187 13.203125l-4.175781.730468c-3.71875.652344-6.816406 3.265626-8.078125 6.828126-1.261719 3.558593-.507813 7.539062 1.972656 10.386718l23.539063 27.070313v40.488281l-2.683594 1.816406c-9.878906 6.707032-20.851563 11.148438-32.613282 13.207032l-8.957031 1.566406c-3.71875.652344-6.8125 3.269531-8.074219 6.828125-1.261718 3.558593-.507812 7.539062 1.96875 10.390625l28.171876 32.394531v80.082031c0 4.140625 3.351562 7.492188 7.492187 7.492188h308.941406c4.136719 0 7.492188-3.351563 7.492188-7.492188v-18.230468c0-4.140626-3.355469-7.496094-7.492188-7.496094s-7.492187 3.355468-7.492187 7.496094v10.738281h-30.644532v-25.175781c0-14.050782-11.429687-25.476563-25.476562-25.476563h-4.050781c-14.046875 0-25.472657 11.425781-25.472657 25.476563v25.175781h-33.832031v-25.175781c0-14.050782-11.429687-25.476563-25.476562-25.476563h-4.050781c-14.046876 0-25.472657 11.425781-25.472657 25.476563v25.175781h-33.835937v-25.175781c0-14.050782-11.425782-25.476563-25.472656-25.476563h-4.050782c-14.046875 0-25.476562 11.425781-25.476562 25.476563v25.175781h-30.640625v-67.902344h293.953125v11.042969c0 4.136718 3.355468 7.492187 7.496094 7.492187 4.136718 0 7.492187-3.355469 7.492187-7.492187v-15.730469l28.167969-32.394531c2.476562-2.847656 3.234375-6.828125 1.96875-10.386719zm-181.484375-340.914063h-21.234375v-25.742187h21.234375zm65.703125 431.109376c0-5.78125 4.703125-10.488282 10.488281-10.488282h4.050781c5.78125 0 10.488282 4.707032 10.488282 10.488282v24.761718h-25.027344zm-88.835938 0c0-5.78125 4.707032-10.488282 10.488282-10.488282h4.054687c5.78125 0 10.488281 4.707032 10.488281 10.488282v24.761718h-25.03125zm-88.832031 0c0-5.78125 4.703125-10.488282 10.488281-10.488282h4.050782c5.78125 0 10.488281 4.707032 10.488281 10.488282v24.761718h-25.027344zm13.453125-345.332032h175.789062v31.125h-175.789062zm-37.164062 61.023438c9.953124-3.632813 23.164062-9.015625 31.457031-14.609375h187.199219c8.296874 5.59375 21.503906 10.976562 31.457031 14.609375l-15.890625 21.476562h-218.328125zm229.914062 36.769531v31.292969h-209.710938v-31.292969zm-251.691406 62.480469c12.5-2.660156 24.203125-7.65625 34.832031-14.867188l1.527344-1.035156h220.949219l1.527343 1.035156c10.628907 7.210938 22.332031 12.203125 34.835938 14.867188l-17.550781 20.183594h-258.574219zm271.628906 35.476562v31.59375h-249.585938v-31.59375zm26.265625 91.875h-302.117187l-22.542969-25.929687 1.109375-.195313c13.867187-2.425781 26.800781-7.660156 38.449218-15.566406l5.316407-3.609375h257.453125l5.316406 3.609375c11.648438 7.902344 24.582031 13.140625 38.449219 15.566406l1.109375.195313zm0 0"/></svg>