<svg height="512pt" viewBox="-50 0 512 512.00025" width="512pt" xmlns="http://www.w3.org/2000/svg"><path d="m349.894531 150.351562h-287.878906c-4.980469 0-9.023437-4.039062-9.023437-9.023437v-22.125c0-4.984375 4.042968-9.023437 9.023437-9.023437h287.878906c4.984375 0 9.023438 4.039062 9.023438 9.023437v22.125c0 4.984375-4.039063 9.023437-9.023438 9.023437zm0 0" fill="#ffc143"/><path d="m358.921875 119.199219v22.125c0 4.984375-4.042969 9.027343-9.027344 9.027343h-28.746093c4.984374 0 9.023437-4.042968 9.023437-9.027343v-22.125c0-4.976563-4.039063-9.015625-9.023437-9.015625h28.746093c4.984375 0 9.027344 4.042968 9.027344 9.015625zm0 0" fill="#ffb509"/><path d="m308.949219 504.503906h-205.988281c-5.023438 0-9.09375-4.074218-9.09375-9.09375v-29.863281h224.179687v29.863281c0 5.019532-4.074219 9.09375-9.097656 9.09375zm0 0" fill="#ffc143"/><path d="m308.949219 504.503906h-26.339844v-38.957031h35.4375v29.863281c0 5.019532-4.074219 9.09375-9.097656 9.09375zm0 0" fill="#ffb509"/><path d="m341.644531 171.59375v-21.242188h-271.378906v21.242188c0 13.15625-5.109375 25.832031-14.363281 35.183594-30.078125 30.375-48.40625 70.683594-48.40625 114.917968 0 31.648438 9.378906 61.289063 25.730468 86.722657 14.820313 23.046875 35.371094 42.640625 59.855469 57.128906h225.75c24.484375-14.488281 45.03125-34.082031 59.851563-57.128906 16.351562-25.433594 25.730468-55.074219 25.730468-86.722657 0-44.234374-18.328124-84.542968-48.40625-114.917968-9.253906-9.351563-14.363281-22.027344-14.363281-35.183594zm0 0" fill="#57bf93"/><path d="m404.414062 321.691406c0 31.652344-9.375 61.292969-25.730468 86.722656-14.816406 23.046876-35.371094 42.640626-59.847656 57.132813h-36.226563c24.484375-14.492187 45.03125-34.085937 59.859375-57.132813 16.351562-25.429687 25.730469-55.070312 25.730469-86.722656 0-44.226562-18.335938-84.535156-48.410157-114.910156-9.253906-9.347656-14.363281-22.035156-14.363281-35.183594v-21.246094h36.21875v21.246094c0 13.148438 5.117188 25.835938 14.363281 35.183594 30.082032 30.375 48.40625 70.683594 48.40625 114.910156zm0 0" fill="#1fb480"/><path d="m194.730469 10.828125-101.863281 55.558594c-7.210938 3.933593-11.648438 11.160156-11.648438 18.976562v24.816407h253.492188v-24.816407c0-7.816406-4.4375-15.042969-11.652344-18.976562l-101.863282-55.558594c-8.175781-4.460937-18.285156-4.460937-26.464843 0zm0 0" fill="#ff4343"/><path d="m334.707031 85.367188v24.816406h-28.222656v-12.03125c0-7.820313-4.433594-15.046875-11.652344-18.976563l-101.863281-55.566406c-4.84375-2.644531-10.363281-3.71875-15.761719-3.226563l17.519531-9.558593c8.183594-4.453125 18.285157-4.453125 26.464844 0l101.863282 55.566406c7.21875 3.929687 11.652343 11.15625 11.652343 18.976563zm0 0" fill="#f72c2c"/><path d="m361.335938 201.5c-7.863282-7.941406-12.195313-18.5625-12.195313-29.90625v-13.746094h.753906c9.109375 0 16.519531-7.410156 16.519531-16.519531v-22.125c0-9.109375-7.410156-16.519531-16.519531-16.519531h-7.6875v-17.320313c0-10.53125-5.960937-20.324219-15.558593-25.558593l-20.683594-11.28125c-3.632813-1.980469-8.1875-.640626-10.167969 2.992187-1.984375 3.636719-.644531 8.1875 2.992187 10.171875l20.679688 11.28125c4.777344 2.605469 7.746094 7.355469 7.746094 12.398438v17.316406h-238.5v-17.320313c0-5.039062 2.96875-9.789062 7.742187-12.394531l101.863281-55.558594c5.949219-3.246094 13.339844-3.242187 19.285157 0l39.957031 21.792969c3.636719 1.984375 8.1875.644531 10.171875-2.992187 1.984375-3.632813.644531-8.1875-2.992187-10.167969l-39.957032-21.796875c-10.375-5.660156-23.265625-5.660156-33.644531 0l-101.863281 55.558594c-9.59375 5.234374-15.554688 15.027343-15.554688 25.558593v17.320313h-11.703125c-9.109375 0-16.523437 7.410156-16.523437 16.519531v22.125c0 9.109375 7.414062 16.519531 16.523437 16.519531h.75v13.746094c0 11.34375-4.328125 21.964844-12.195312 29.90625-15.921875 16.082031-28.386719 34.445312-37.039063 54.578125-1.636718 3.800781.121094 8.210937 3.925782 9.847656 3.804687 1.632813 8.210937-.121093 9.847656-3.925781 7.910156-18.402344 19.324218-35.207031 33.921875-49.949219 10.664062-10.769531 16.535156-25.136719 16.535156-40.457031v-13.746094h256.382813v13.746094c0 15.320312 5.875 29.6875 16.535156 40.457031 29.816406 30.113281 46.238281 69.050781 46.238281 109.644531 0 29.109376-8.488281 57.695313-24.542969 82.667969-13.761718 21.402344-32.964844 39.929688-55.621094 53.6875h-221.601562c-22.65625-13.757812-41.859375-32.285156-55.621094-53.6875-16.054687-24.96875-24.542968-53.558593-24.542968-82.667969 0-5.210937.273437-10.464843.808593-15.621093.425781-4.117188-2.566406-7.800781-6.683593-8.230469-4.117188-.425781-7.800782 2.566406-8.230469 6.683594-.585938 5.667968-.886719 11.445312-.886719 17.167968 0 31.992188 9.308594 63.382813 26.921875 90.777344 14.78125 22.984375 35.296875 42.886719 59.449219 57.757813v25.179687c0 9.148438 7.445312 16.589844 16.59375 16.589844h205.988281c9.148437 0 16.59375-7.441406 16.59375-16.589844v-25.179687c24.152344-14.871094 44.664063-34.773438 59.445313-57.757813 17.613281-27.394531 26.925781-58.785156 26.925781-90.777344-.003907-44.570312-17.964844-87.253906-50.582031-120.195312zm-299.316407-58.644531c-.84375 0-1.527343-.6875-1.527343-1.527344v-22.125c0-.839844.683593-1.527344 1.527343-1.527344h287.875c.84375 0 1.527344.6875 1.527344 1.527344v22.125c0 .84375-.683594 1.527344-1.527344 1.527344zm248.527344 352.554687c0 .878906-.714844 1.597656-1.597656 1.597656h-205.988281c-.878907 0-1.597657-.71875-1.597657-1.597656v-22.363281h209.183594zm0 0"/><path d="m304.40625 186.09375c4.140625 0 7.496094-3.359375 7.496094-7.5 0-4.136719-3.355469-7.496094-7.496094-7.496094h-196.898438c-4.140624 0-7.496093 3.359375-7.496093 7.496094 0 4.140625 3.355469 7.5 7.496093 7.5zm0 0"/></svg>