<svg height="512pt" viewBox="-19 0 512 512.00501" width="512pt" xmlns="http://www.w3.org/2000/svg"><path d="m284.242188 8.742188-27.238282 28.683593c-1.425781 1.496094-1.449218 3.839844-.054687 5.363281l27.242187 29.835938c1.558594 1.710938 4.253906 1.710938 5.8125 0l27.242188-29.835938c1.390625-1.523437 1.367187-3.867187-.054688-5.363281l-27.238281-28.683593c-1.554687-1.636719-4.160156-1.636719-5.710937 0zm0 0" fill="#0396fd"/><path d="m317.242188 42.792969-27.234376 29.832031c-1.5625 1.707031-4.253906 1.707031-5.8125 0l-5.097656-5.578125 18.914063-21.085937c1.992187-2.222657 1.941406-5.601563-.113281-7.761719l-20.835938-21.894531 7.183594-7.5625c1.550781-1.632813 4.15625-1.632813 5.710937 0l27.230469 28.6875c1.425781 1.496093 1.445312 3.839843.054688 5.363281zm0 0" fill="#0077f0"/><path d="m235.027344 90.972656c2.304687 1.847656 4.527344 4.546875 6.34375 5.882813 7.34375 5.398437 16.097656 8.613281 24.972656 10.417969 17.464844 3.554687 36.296875 2.125 53.371094-2.753907 0 0 20.269531-5.066406 46.375-27.769531 3.996094-3.476562 10.035156-3.136719 13.570312.808594l22.554688 25.171875c3.476562 3.878906 3.273437 9.835937-.507813 13.417969-2.453125 2.328124-5.058593 4.484374-7.753906 6.519531-23.835937 18.023437-60.820313 33.523437-90.511719 30.789062-35.089844-3.234375-65.953125-23.757812-78.589844-57.34375-1.773437-4.578125 2.535157-7.785156 6.675782-7.007812 1.15625.21875 2.335937.9375 3.5 1.867187zm0 0" fill="#0396fd"/><path d="m401.710938 116.152344c-2.457032 2.320312-5.058594 4.484375-7.753907 6.515625-23.84375 18.019531-60.832031 33.523437-90.515625 30.789062-35.085937-3.238281-65.957031-23.761719-78.585937-57.335937-.875-2.265625-.273438-4.195313 1.066406-5.460938 14.730469 27.007813 42.476563 43.410156 73.519531 46.265625 29.695313 2.738281 66.679688-12.757812 90.511719-30.78125 2.695313-2.039062 5.300781-4.191406 7.753906-6.523437.3125-.304688.601563-.613282.875-.945313l3.628907 4.050781c3.480468 3.882813 3.28125 9.84375-.5 13.425782zm0 0" fill="#0077f0"/><path d="m397.414062 455.300781c74.234376-36.613281 86.363282-156.769531 48.9375-222.015625-6.890624-12.007812-15.199218-23.285156-24.71875-33.34375-16.65625-17.601562-42.671874-26.886718-66.648437-22.117187-27.589844 5.488281-38.644531 27.652343-51.417969 49.941406-6.859375 11.96875-14.222656 23.761719-22.859375 34.539063-11.058593 13.800781-25.644531 23.800781-41.902343 30.515624-11.742188 4.847657-36.878907 15.863282-48.199219 7.128907-4.632813-3.574219-5.226563-10.183594-3.359375-15.578125 2.113281-6.09375 12.09375-9.269532 17.207031-11.925782 43.390625-22.53125 36.84375-82.144531 4.277344-112.679687-28.597657-26.816406-73.847657-26.132813-109.289063-16.210937-26.625 7.453124-54.355468 21.238281-44.316406 53.117187 2.015625 6.398437 5.722656 11.492187 12.324219 13.664063 4.960937 1.628906 10.21875-.929688 14.886719-3.265626 10.566406-5.285156 21.53125-9.773437 32.765624-13.417968 20.730469-6.726563 48.214844-9.222656 61.875 12.140625 11.683594 18.261719 1.5625 34.339843-14.003906 45.691406-11.222656 8.183594-25.457031 11.367187-36.6875 19.652344-10.015625 7.394531-11.871094 22.449219-10.808594 33.96875.601563 6.5.496094 13.878906 3.203126 19.953125 4.601562 10.332031 16.914062 9.464844 26.476562 12 14.453125 3.824218 27.230469 8.765625 37.175781 20.601562 14.699219 17.503906 17.3125 47.480469 3.363281 66.085938-14.679687 19.585937-61.304687 18.441406-82.398437 10.988281-19.335937-6.835937-33.125-18.871094-47.980469-32.417969-6.984375-6.371094-13.578125-13.152344-20.171875-19.9375-5.210937-5.359375-12.089843-19.785156-20.679687-20.027344-15.804688-.414062-.085938 36.496094 2.753906 43.515626 10.339844 25.558593 25.246094 50.730468 46.980469 68.15625 28.210937 22.625 65.695312 34.484374 101.753906 29.277343 16.167969-2.332031 31.785156-8.765625 44.460937-19.152343 20.105469-16.480469 29.164063-41.371094 32.601563-66.445313 1.757813-12.796875 2.347656-25.839844 1.691406-38.71875-1.429687-28.140625-4.011719-42.0625 25.519531-51.875 31.929688-10.605469 46.847657-32.949219 68.761719-57.152344 18.363281-20.28125 43.910157-39.761719 65.269531-11.515625 26.730469 35.351563 20.863282 93.761719-7.804687 126.277344-20.527344 23.277344-63.371094 22.144531-86.828125 2.777344-10.839844-8.953125-8.9375 14.179687-8.621094 19.078125 2.023438 31.222656 28.25 55.019531 59.246094 56.40625 13.765625.617187 26.160156-2.253907 37.164062-7.679688zm0 0" fill="#0396fd"/><path d="m397.414062 455.304688c-11 5.417968-23.394531 8.296874-37.164062 7.675781-1.773438-.082031-3.535156-.230469-5.28125-.460938 8.75-1.035156 16.855469-3.539062 24.320312-7.214843 74.238282-36.613282 86.363282-156.773438 48.9375-222.015626-6.882812-12.015624-15.199218-23.285156-24.71875-33.347656-11.625-12.292968-27.828124-20.53125-44.699218-22.753906 22.882812-3.117188 47.054687 6.082031 62.824218 22.753906 9.519532 10.0625 17.824219 21.332032 24.71875 33.347656 37.425782 65.242188 25.300782 185.402344-48.9375 222.015626zm0 0" fill="#0077f0"/><path d="m278.640625 77.691406c2.164063 2.371094 5.246094 3.730469 8.457031 3.730469 3.207032 0 6.289063-1.359375 8.457032-3.730469l27.238281-29.832031c4.03125-4.417969 3.964843-11.273437-.152344-15.609375l-27.238281-28.683594c-2.152344-2.265625-5.179688-3.566406-8.304688-3.566406s-6.152344 1.300781-8.304687 3.566406l-27.238281 28.683594c-4.117188 4.335938-4.1875 11.191406-.15625 15.609375zm8.457031-61.042968 22.351563 23.535156-22.351563 24.480468-22.351562-24.480468zm0 0"/><path d="m302.753906 160.941406c2.542969.234375 5.117188.34375 7.730469.34375 30.902344 0 65.761719-15.808594 88-32.621094 3.144531-2.378906 5.890625-4.6875 8.394531-7.058593 6.773438-6.421875 7.183594-16.914063.933594-23.890625l-22.554688-25.167969c-6.226562-6.953125-17.039062-7.605469-24.101562-1.464844-24.183594 21.03125-43.105469 26.109375-43.265625 26.148438-.078125.019531-.160156.042969-.238281.0625-16.8125 4.804687-34.503906 5.734375-49.808594 2.617187-8.832031-1.796875-16.242188-4.863281-22.023438-9.109375-.460937-.339843-1.40625-1.289062-2.167968-2.050781-1.15625-1.15625-2.464844-2.46875-3.921875-3.636719-2.3125-1.855469-4.542969-2.964843-6.820313-3.390625-4.921875-.925781-10.097656.859375-13.167968 4.550782-2.886719 3.472656-3.597657 8.164062-1.925782 12.488281 13.070313 34.730469 45.613282 58.554687 84.9375 62.179687zm-65.832031-58.03125c7.546875 5.546875 16.941406 9.492188 27.925781 11.730469 17.851563 3.632813 37.507813 2.640625 56.84375-2.867187 2.152344-.566407 23.0625-6.507813 49.328125-29.347657.914063-.796875 2.25-.730469 3.042969.152344l22.554688 25.167969c.769531.855468.730468 2.179687-.082032 2.949218-2.089844 1.984376-4.421875 3.941407-7.117187 5.980469-21.097657 15.949219-56.773438 31.921875-85.289063 29.296875-30.722656-2.828125-55.714844-19.089844-68.542968-44.140625.433593.378907.878906.742188 1.335937 1.078125zm0 0"/><path d="m473.664062 300.710938c-2.285156-26.828126-9.476562-51.433594-20.792968-71.164063-7.273438-12.683594-15.949219-24.378906-25.78125-34.769531-18.847656-19.914063-47.726563-29.460938-73.570313-24.324219-29.320312 5.832031-41.980469 28.09375-54.222656 49.625-.746094 1.3125-1.496094 2.632813-2.25 3.949219-8.175781 14.265625-15.023437 24.621094-22.203125 33.578125-9.695312 12.097656-22.789062 21.609375-38.910156 28.269531l-1.523438.628906c-8.703125 3.613282-31.8125 13.210938-39.214844 7.496094-1.707031-1.320312-1.710937-4.679688-.847656-7.167969.664063-1.804687 7.109375-4.71875 9.535156-5.8125 1.4375-.648437 2.796876-1.265625 4.03125-1.90625 18.941407-9.835937 31.007813-27.074219 33.972657-48.546875 3.710937-26.902344-7.285157-56.84375-28.015625-76.28125-2.511719-2.355468-5.207032-4.578125-8.019532-6.609375-3.363281-2.429687-8.0625-1.671875-10.492187 1.691407-2.429687 3.367187-1.671875 8.0625 1.691406 10.492187 2.292969 1.65625 4.492188 3.46875 6.539063 5.386719 17.019531 15.960937 26.425781 41.382812 23.40625 63.265625-1.613282 11.675781-7.433594 27.617187-26.011719 37.261719-.867187.453124-2.046875.984374-3.292969 1.546874-6.25 2.824219-14.804687 6.691407-17.546875 14.585938-3.183593 9.183594-.828125 18.824219 5.867188 23.992188 14.304687 11.035156 39.253906.675781 54.15625-5.511719l1.503906-.621094c18.492187-7.640625 33.597656-18.664063 44.898437-32.761719 7.6875-9.589844 14.9375-20.539062 23.515626-35.503906.761718-1.332031 1.519531-2.664062 2.273437-3.992188 11.542969-20.296874 21.511719-37.824218 44.089844-42.3125 20.898437-4.160156 44.34375 3.65625 59.722656 19.914063 9.015625 9.523437 16.976563 20.261719 23.65625 31.914063 20.882813 36.402343 25.511719 91.691406 11.519531 137.582031-7.480468 24.542969-23.488281 57.300781-57.257812 73.953125-10.378906 5.117187-21.648438 7.449218-33.507813 6.914062-27.945312-1.253906-50.335937-22.484375-52.078125-49.386718l-.039062-.558594c-.292969-4.363282-.3125-7.445313-.207032-9.613282 12.519532 8.957032 28.988282 13.914063 45.972657 13.695313 19.464843-.246094 36.910156-7.507813 47.859375-19.925781 2.742187-3.113282 2.445312-7.859375-.667969-10.605469s-7.863281-2.445313-10.605469.667969c-15.035156 17.046875-52.464844 21.722656-76.40625 1.949218-6.300781-5.199218-11.335937-3.875-13.777344-2.625-7.226562 3.707032-8.089843 13.660157-7.164062 27.464844l.035156.519532c2.238282 34.566406 30.789063 61.835937 66.40625 63.433593 1.335938.058594 2.667969.085938 3.992188.085938 12.960937 0 25.332031-2.863281 36.832031-8.535157 30.546875-15.066406 53.019531-43.785156 64.988281-83.054687 7.472656-24.492187 10.214844-51.558594 7.941406-78.273437zm0 0"/><path d="m334.273438 286.675781c11.042968-12.714843 27.449218-35.691406 46.640624-34.84375 6.214844.277344 11.890626 3.917969 17.347657 11.140625 15.085937 19.949219 19.683593 50.269532 12 79.132813-1.066407 4.007812 1.320312 8.125 5.332031 9.195312 4.011719 1.070313 8.125-1.316406 9.195312-5.328125 8.84375-33.234375 3.277344-68.507812-14.535156-92.066406-8.214844-10.859375-17.863281-16.609375-28.675781-17.085938-14.710937-.640624-30.457031 8.539063-48.160156 28.09375-3.667969 4.050782-7.136719 8.046876-10.492188 11.90625-16.292969 18.753907-30.363281 34.953126-55.070312 43.160157-12.460938 4.136719-24.792969 10.957031-29.222657 24.085937-1.804687 5.351563-2.160156 11.082032-2.195312 16.695313-.042969 7.417969 1.207031 14.578125.914062 21.996093-.457031 11.398438-.21875 22.558594-1.777343 33.921876-3.808594 27.757812-13.875 48.5-29.925781 61.65625-11.277344 9.246093-25.375 15.304687-40.769532 17.53125-32.605468 4.703124-68.480468-5.652344-95.976562-27.703126-18.046875-14.46875-33.089844-36.378906-44.71875-65.113281l-.402344-.992187c-8.648438-21.175782-9.054688-29.242188-8.714844-31.953125 2.628906 1.316406 7.199219 7.722656 9.035156 10.296875 1.929688 2.703125 3.753907 5.261718 5.65625 7.21875 6.558594 6.746094 13.34375 13.722656 20.496094 20.246094 16.3125 14.882812 30.394532 26.832031 50.542969 33.953124 12.179687 4.304688 30.5 6.289063 46.675781 5.054688 14.652344-1.117188 34.21875-5.257812 44.238282-18.621094 15.53125-20.71875 13.90625-54.554687-3.625-75.425781-11.5625-13.761719-26.539063-19.207031-41.003907-23.035156-2.589843-.683594-5.21875-1.132813-7.765625-1.5625-8.269531-1.398438-12.074218-2.414063-13.773437-6.230469-5.003907-11.230469-5.742188-36.734375 5.207031-44.8125 5.011719-3.699219 10.886719-6.335938 17.109375-9.125 6.558594-2.941406 13.339844-5.984375 19.542969-10.503906 22.363281-16.308594 28.160156-36.652344 15.90625-55.8125-12.835938-20.066406-38.539063-25.621094-70.527344-15.242188-11.5625 3.753906-22.9375 8.414063-33.804688 13.847656-2.984374 1.496094-7.074218 3.539063-9.183593 2.847657-2.457031-.808594-5.53125-2.539063-7.5-8.78125-2.605469-8.273438-2.320313-15.160157.867187-21.050781 5.089844-9.398438 17.621094-16.78125 38.304688-22.570313 13.367187-3.742187 33.84375-7.699219 55.492187-5.320313 4.128907.453126 7.835938-2.523437 8.289063-6.648437.457031-4.125-2.519532-7.839844-6.648438-8.292969-24.039062-2.644531-46.542968 1.6875-61.183594 5.785156-25.15625 7.042969-40.242187 16.539063-47.46875 29.890626-5.160156 9.523437-5.828124 20.53125-1.988281 32.722656 3.011719 9.558594 8.78125 15.796875 17.144531 18.542968 7.984376 2.625 15.574219-1.167968 20.597657-3.679687 10.199219-5.101563 20.871093-9.472656 31.722656-12.996094 14.671875-4.761719 41.097656-9.917969 53.226563 9.042969 7.738281 12.105469 3.667968 24.070312-12.101563 35.570312-4.933594 3.597657-10.714844 6.191407-16.839844 8.9375-6.671875 2.992188-13.570312 6.085938-19.878906 10.742188-5.464844 4.03125-9.234375 10.050781-11.449219 16.390625-2.046875 5.84375-2.777344 12.105469-2.707031 18.273437.101563 8.726563.566406 20.328126 4.140625 28.359376 5.15625 11.574218 16.621094 13.515624 24.996094 14.9375 14.550781 2.464843 30 7.816406 39.769531 19.441406 13.074219 15.566406 14.496094 41.550781 3.109375 56.746094-11.296875 15.0625-52.789062 15.863281-73.882812 8.40625-17.523438-6.191407-29.878907-16.707032-45.421876-30.882813-6.820312-6.222656-13.441406-13.03125-19.847656-19.621094-1.105468-1.136719-2.609375-3.242187-4.199218-5.472656-5.261719-7.375-11.8125-16.554687-21.671876-16.832031-4.941406-.125-9.132812 1.882812-11.746093 5.660156-5.433594 7.871094-3.359375 22 6.949219 47.238281l.386718.949219c12.601563 31.148438 29.171875 55.105469 49.246094 71.203125 25.773438 20.667969 58.257812 32.113281 89.710938 32.113281 5.996093 0 11.953124-.414062 17.820312-1.261718 18.101562-2.613282 34.753906-9.800782 48.148438-20.78125 19.078124-15.636719 30.949218-39.601563 35.289062-71.234376 2.039062-14.890624 2.3125-29.921874 1.496094-44.828124-1.355469-24.742188-1.761719-32.210938 20.632812-39.652344 28.613282-9.511719 44.671875-27.996094 61.675782-47.570313zm0 0"/></svg>