<svg height="511pt" viewBox="0 -19 511.99886 511" width="511pt" xmlns="http://www.w3.org/2000/svg"><path d="m118.796875 124.558594c0 .003906 0 0 .003906.003906-4.484375 8.199219-7.570312 17.53125-10.253906 26.117188-6.972656 22.292968-9.867187 45.558593-11.703125 68.679687-.097656 1.226563-.1875 2.464844-.273438 3.691406-30.363281 7.394531-60.523437-4.25-78.484374-13.726562-9.929688-5.242188-13.484376-17.765625-7.667969-27.367188 30.640625-50.566406 78.816406-57.734375 104.949219-57.472656 1.1875.011719 2.335937.03125 3.429687.074219zm0 0" fill="#a87a52"/><path d="m393.46875 124.558594c0 .003906 0 0-.003906.003906 4.484375 8.199219 7.570312 17.53125 10.253906 26.117188 6.972656 22.292968 9.867188 45.558593 11.703125 68.679687.097656 1.226563.1875 2.464844.273437 3.691406 30.363282 7.394531 60.523438-4.25 78.484376-13.726562 9.929687-5.242188 13.484374-17.765625 7.667968-27.367188-30.640625-50.566406-78.816406-57.734375-104.949218-57.472656-1.191407.011719-2.335938.03125-3.429688.074219zm0 0" fill="#a87a52"/><path d="m494.175781 209.320312c-2.746093 1.453126-5.78125 2.957032-9.066406 4.429688 5.214844-6.199219 6.269531-15.28125 1.800781-22.636719-25.089844-41.425781-61.957031-53.722656-88.835937-56.671875-1.363281-3.394531-2.886719-6.71875-4.609375-9.875 0-.007812 0-.007812.007812-.007812 1.085938-.042969 2.242188-.0625 3.425782-.070313 26.132812-.269531 74.3125 6.910157 104.945312 57.472657 5.824219 9.597656 2.269531 22.125-7.667969 27.359374zm0 0" fill="#906846"/><path d="m169.8125 72.46875c-7.066406 3.960938-13.777344 8.652344-20.070312 14.199219-10.808594 9.507812-19.722657 20.800781-27.667969 32.507812-1.167969 1.71875-2.261719 3.523438-3.277344 5.382813-.15625.289062-.316406.585937-.472656.886718-.90625-.269531-1.890625-.589843-2.960938-.960937-17.4375-6.074219-54.097656-26.707031-50.742187-92.183594 0 0 .402344-9 4.042968-16.734375 4.535157-9.632812 18.828126-10.230468 24.398438-1.082031 10.9375 17.910156 38.363281 55.644531 76.75 57.984375zm0 0" fill="#cdbfba"/><path d="m415.421875 219.355469c-1.839844-23.113281-4.730469-46.378907-11.703125-68.675781-3.292969-10.535157-7.191406-22.1875-13.523438-31.503907-7.953124-11.703125-16.867187-22.996093-27.671874-32.503906-53.554688-47.148437-159.488282-46.949219-212.816407.027344-10.789062 9.503906-19.691406 20.785156-27.636719 32.476562-6.332031 9.316407-10.230468 20.96875-13.523437 31.503907-6.972656 22.296874-9.863281 45.5625-11.703125 68.675781-1.546875 19.394531-1.234375 39.058593 4.878906 57.796875 3.882813 11.90625 10.0625 23.28125 19.484375 32.136718 8.734375 8.210938 13.882813 19.222657 15.019531 30.808594l4.390626 44.640625h231.03125l4.390624-44.640625c1.136719-11.585937 6.285157-22.597656 15.019532-30.808594 9.421875-8.855468 15.601562-20.230468 19.484375-32.136718 6.113281-18.734375 6.421875-38.402344 4.878906-57.796875zm0 0" fill="#a87a52"/><path d="m410.539062 277.152344c-3.882812 11.90625-10.054687 23.285156-19.484374 32.136718-8.730469 8.210938-13.878907 19.222657-15.011719 30.8125l-4.390625 44.632813h-30.984375l4.390625-44.632813c1.136718-11.589843 6.28125-22.601562 15.023437-30.8125 9.417969-8.851562 15.601563-20.230468 19.484375-32.136718 6.113282-18.738282 6.421875-38.402344 4.878906-57.796875-1.84375-23.117188-4.730468-46.371094-11.699218-68.675781-3.296875-10.53125-7.199219-22.191407-13.53125-31.507813-7.953125-11.699219-16.863282-22.988281-27.667969-32.496094-23.265625-20.488281-56.429687-32.039062-90.875-34.6875 44.722656-3.453125 91.625 8.074219 121.847656 34.6875 10.804688 9.507813 19.722657 20.796875 27.679688 32.496094 6.332031 9.316406 10.222656 20.976563 13.519531 31.507813 6.980469 22.304687 9.867188 45.558593 11.707031 68.675781 1.542969 19.394531 1.234375 39.058593-4.886719 57.796875zm0 0" fill="#906846"/><path d="m342.449219 72.46875c7.070312 3.960938 13.78125 8.652344 20.074219 14.199219 10.808593 9.507812 19.722656 20.800781 27.667968 32.507812 1.167969 1.71875 2.261719 3.523438 3.277344 5.382813.15625.289062.316406.585937.472656.886718.90625-.269531 1.890625-.589843 2.960938-.960937 17.4375-6.074219 54.097656-26.707031 50.742187-92.183594 0 0-.402343-9-4.042969-16.734375-4.535156-9.632812-18.828124-10.230468-24.398437-1.082031-10.9375 17.910156-38.367187 55.644531-76.753906 57.984375zm0 0" fill="#cdbfba"/><path d="m396.898438 124.488281c-1.066407.367188-2.050782.6875-2.957032.953125-.160156-.296875-.316406-.59375-.46875-.882812-1.023437-1.851563-2.109375-3.664063-3.285156-5.386719-.824219-1.226563-1.671875-2.441406-2.519531-3.644531 18.539062-9.667969 43.945312-33.035156 41.128906-88.011719 0 0-.40625-9.007813-4.042969-16.734375-.167968-.367188-.355468-.714844-.566406-1.054688 6.628906-3.644531 15.917969-1.582031 19.414062 5.832032 3.644532 7.738281 4.042969 16.746094 4.042969 16.746094 3.355469 65.472656-33.304687 86.109374-50.746093 92.183593zm0 0" fill="#b9acac"/><path d="m115.367188 124.488281c1.0625.367188 2.050781.6875 2.957031.953125.15625-.296875.316406-.59375.464843-.882812 1.027344-1.851563 2.113282-3.664063 3.285157-5.386719.828125-1.226563 1.675781-2.441406 2.519531-3.644531-18.535156-9.667969-43.945312-33.035156-41.125-88.011719 0 0 .40625-9.007813 4.039062-16.734375.171876-.367188.359376-.714844.570313-1.054688-6.632813-3.644531-15.921875-1.582031-19.414063 5.832032-3.644531 7.738281-4.042968 16.746094-4.042968 16.746094-3.355469 65.472656 33.300781 86.109374 50.746094 92.183593zm0 0" fill="#b9acac"/><path d="m180.890625 284.445312c0 9.382813-7.601563 16.988282-16.984375 16.988282-9.378906 0-16.984375-7.605469-16.984375-16.988282 0-9.378906 7.605469-16.984374 16.984375-16.984374 9.382812 0 16.984375 7.605468 16.984375 16.984374zm0 0" fill="#795639"/><path d="m365.34375 284.445312c0 9.382813-7.605469 16.988282-16.984375 16.988282-9.382813 0-16.984375-7.605469-16.984375-16.988282 0-9.378906 7.601562-16.984374 16.984375-16.984374 9.378906 0 16.984375 7.605468 16.984375 16.984374zm0 0" fill="#795639"/><path d="m195.335938 425.414062c10.015624 23.679688 33.464843 40.296876 60.796874 40.296876 27.578126 0 51.203126-16.917969 61.066407-40.941407l-31.992188-18.757812c-17.847656-10.46875-39.980469-10.382813-57.746093.222656zm0 0" fill="#cdbfba"/><path d="m317.203125 424.765625c-9.867187 24.023437-33.492187 40.949219-61.070313 40.949219-14.765624 0-28.402343-4.847656-39.394531-13.0625 7.375 3.316406 15.410157 5.128906 23.804688 5.128906 26.144531 0 48.734375-17.601562 59.40625-43.128906zm0 0" fill="#b9acac"/><path d="m370.890625 352.804688c-7.367187-12.390626-18.4375-22.761719-30.886719-28.726563-15.421875-7.386719-32.582031-10.867187-49.476562-12.796875-23.003906-2.628906-45.496094-2.648438-68.660156 0-22.835938 2.609375-47.050782 8.578125-65.5 22.960938-20.703126 16.140624-30.980469 46.941406-19.785157 71.789062 7.902344 17.535156 27.574219 26.691406 45.832031 28.546875 13.246094 1.347656 26.148438-2.023437 38.011719-7.761719 11.242188-5.4375 20.722657-13.941406 33.988281-14.089844 14.925782-.167968 24.960938 7.996094 37.554688 14.089844 11.867188 5.738282 24.765625 9.109375 38.011719 7.761719 18.261719-1.855469 37.933593-11.015625 45.832031-28.546875 7.964844-17.675781 4.636719-37.152344-4.921875-53.226562zm0 0" fill="#575f64"/><path d="m375.8125 406.027344c-7.894531 17.535156-27.566406 26.695312-45.828125 28.554687-13.160156 1.335938-25.984375-1.992187-37.78125-7.65625 5.914063 1.164063 11.964844 1.554688 18.097656.925781 18.261719-1.851562 37.933594-11.011718 45.828125-28.542968 7.964844-17.671875 4.640625-37.15625-4.917968-53.222656-7.367188-12.394532-18.4375-22.769532-30.882813-28.734376-.9375-.445312-1.871094-.875-2.828125-1.304687 7.746094 1.992187 15.3125 4.589844 22.5 8.035156 12.457031 5.964844 23.527344 16.328125 30.894531 28.722657 9.558594 16.078124 12.882813 35.554687 4.917969 53.222656zm0 0" fill="#474f54"/><path d="m235.628906 130.703125c-4.125 0-7.46875 3.34375-7.46875 7.46875v44.136719c0 15.347656 12.488282 27.835937 27.839844 27.835937 15.347656 0 27.839844-12.488281 27.839844-27.835937v-44.136719c0-4.125-3.34375-7.46875-7.46875-7.46875s-7.46875 3.34375-7.46875 7.46875v44.136719c0 7.113281-5.785156 12.902344-12.902344 12.902344s-12.90625-5.789063-12.90625-12.902344v-44.136719c0-4.125-3.339844-7.46875-7.464844-7.46875zm0 0"/><path d="m210.4375 258.757812c4.125 0 7.464844-3.34375 7.464844-7.464843v-28.710938c0-4.125-3.339844-7.46875-7.464844-7.46875s-7.46875 3.34375-7.46875 7.46875v28.710938c0 4.121093 3.34375 7.464843 7.46875 7.464843zm0 0"/><path d="m309.027344 251.292969v-28.710938c0-4.125-3.339844-7.46875-7.464844-7.46875s-7.46875 3.34375-7.46875 7.46875v28.710938c0 4.121093 3.34375 7.464843 7.46875 7.464843s7.464844-3.34375 7.464844-7.464843zm0 0"/><path d="m508.101562 178.085938c-24.171874-39.890626-58.585937-54.351563-86.015624-59.050782 17.453124-13.628906 35.332031-39.335937 32.886718-87.070312-.019531-.425782-.519531-10.597656-4.75-19.582032-3.242187-6.886718-10.144531-11.429687-18.011718-11.851562-7.984376-.421875-15.476563 3.429688-19.515626 10.058594-27.167968 44.496094-55.882812 52.886718-68.820312 54.257812-30.757812-16.726562-70.949219-24.125-111-19.636718-4.097656.457031-7.046875 4.152343-6.585938 8.25.457032 4.101562 4.167969 7.050781 8.25 6.589843 45.703126-5.117187 91.285157 6.28125 120.089844 29.828125.046875.039063.097656.082032.148438.121094 9.945312 8.164062 18.363281 18.175781 25.808594 28.632812 16.273437 22.851563 21.671874 51.5625 25.054687 79.023438 3.136719 25.433594 5.769531 52.359375-2.332031 77.179688-3.921875 12.023437-9.808594 21.785156-17.5 29.011718-9.324219 8.765625-15.332032 20.558594-17.078125 33.398438-7.234375-8.425782-16.027344-15.296875-25.632813-19.902344-9.949218-4.761719-21.109375-8.300781-34.125-10.808594-4.050781-.78125-7.964844 1.867188-8.746094 5.914063-.78125 4.050781 1.867188 7.964843 5.917969 8.746093 11.746094 2.265626 21.71875 5.414063 30.5 9.617188 10.976563 5.257812 21.070313 14.664062 27.695313 25.808594 9.1875 15.453125 10.839844 32.34375 4.53125 46.34375-7.011719 15.5625-25.148438 22.699218-39.777344 24.1875-10.640625 1.082031-22.085938-1.292969-34.003906-7.058594-2.847656-1.378906-5.664063-2.925781-8.386719-4.421875-9.4375-5.191406-19.238281-10.578125-32.503906-10.414063-11.539063.132813-20.574219 5.421876-28.546875 10.089844-2.949219 1.722656-5.734375 3.355469-8.609375 4.746094-11.921875 5.765625-23.363281 8.136719-34.003907 7.058594-14.632812-1.488282-32.769531-8.625-39.78125-24.1875-9.183593-20.390625-1.46875-47.988282 17.570313-62.832032 14.539063-11.335937 34.738281-18.347656 61.753906-21.433593 13.015625-1.488281 25.558594-2.109375 38.355469-1.886719 4.113281.058594 7.523438-3.214844 7.59375-7.339844.066406-4.125-3.21875-7.523437-7.339844-7.59375-13.457031-.226562-26.636718.421875-40.304687 1.984375-29.824219 3.40625-52.472657 11.417969-69.242188 24.492188-3.082031 2.402343-5.925781 5.050781-8.519531 7.890625-1.917969-12.449219-7.851562-23.859375-16.933594-32.398438-7.691406-7.226562-13.582031-16.988281-17.503906-29.011718-8.015625-24.5625-5.445312-51.59375-2.390625-76.6875.789063-6.46875 1.734375-12.914063 2.921875-19.324219 1.886719-10.214844 4.285156-20.566407 7.742188-30.375 3.742187-10.625 7.941406-20.695313 14.515624-29.910157 7.773438-10.894531 15.175782-19.316406 23.035157-26.238281 10.214843-9 22.746093-16.402343 37.253906-22.007812 3.847656-1.484375 5.761719-5.808594 4.273437-9.65625-1.484374-3.847657-5.808593-5.757813-9.65625-4.273438-6.457031 2.496094-12.570312 5.328125-18.332031 8.472657-12.96875-1.390626-41.628906-9.832032-68.742187-54.242188-4.042969-6.636719-11.519532-10.484375-19.519532-10.0625-7.867187.421875-14.769531 4.960938-18.015624 11.855469-4.222657 8.980469-4.726563 19.152343-4.742188 19.53125-2.449219 47.765625 15.429688 73.480469 32.882812 87.117187-27.429687 4.699219-61.84375 19.164063-86.015624 59.050782-3.8710942 6.390624-4.902344 13.886718-2.902344 21.105468 1.984375 7.167969 6.894531 13.265625 13.472656 16.734375 24.507812 12.933594 45.371094 16.933594 61.800781 16.933594 4.417969 0 8.507813-.292969 12.265625-.777344-.503906 18.472657 1.410156 33.453125 5.957032 47.386719 4.707031 14.429688 11.929687 26.296875 21.46875 35.261719 7.203124 6.769531 11.714843 16.039062 12.703124 26.097656l1.53125 15.5625c-7.265624 16.953125-7.945312 36.300781-.554687 52.707031 9.621094 21.351563 33.109375 31 51.886719 32.90625 2.179687.222656 4.375.335938 6.59375.335938 2.550781 0 5.125-.15625 7.71875-.449219 13.558594 19.375 35.835937 31.285156 60.160156 31.285156 24.402344 0 46.640625-11.898437 60.183594-31.300781 4.882812.558594 9.695312.613281 14.417968.128906 18.773438-1.90625 42.261719-11.554687 51.882813-32.90625 7.121094-15.800781 6.742187-34.085937-.8125-51.359375l1.660156-16.910156c.992188-10.058594 5.5-19.332031 12.703125-26.101563 9.539063-8.964843 16.761719-20.828124 21.472656-35.257812 4.542969-13.933594 6.460938-28.914062 5.953126-47.386719 3.761718.484375 7.851562.777344 12.265624.777344 16.429688 0 37.296876-4 61.804688-16.933594 6.574219-3.46875 11.484375-9.566406 13.46875-16.734375 2.003906-7.21875.972656-14.714844-2.898438-21.105468zm-420.136718-81.992188c-11.992188-15.476562-17.382813-36.8125-16.019532-63.457031.003907-.074219.421876-7.683594 3.339844-13.890625 1.351563-2.871094 4.402344-3.253906 5.304688-3.300782.097656-.003906.214844-.007812.355468-.007812 1.238282 0 4.015626.3125 5.613282 2.9375 5.980468 9.792969 15.933594 24.066406 29.402344 36.4375 11.132812 10.230469 22.707031 17.386719 34.574218 21.40625-.347656.269531-.6875.550781-1.03125.824219-.335937.265625-.667968.53125-.996094.800781-.464843.375-.925781.746094-1.378906 1.128906-.769531.640625-1.527344 1.285156-2.277344 1.941406-.058593.050782-.117187.101563-.175781.152344-.011719.007813-.019531.015625-.027343.023438-.003907.003906-.007813.007812-.011719.011718-.136719.117188-.273438.246094-.410157.367188-8.71875 7.738281-16.84375 17.03125-25.28125 28.929688-1.058593 1.488281-2.117187 3.011718-3.1875 4.582031-.125.1875-.242187.378906-.367187.5625-.183594.277343-.367187.546875-.546875.828125-7.976562-3.210938-18.304688-9.207032-26.878906-20.277344zm12.503906 56.160156c-2.265625 8.527344-4.710938 16.933594-6.273438 25.714844-2.117187 11.871094-3.460937 23.628906-4.503906 35.667969-.082031.9375-.160156 1.871093-.234375 2.796875-.011719.144531-.023437.289062-.039062.433594-15.367188 2.554687-38.433594 1.445312-67.980469-14.148438-2.996094-1.578125-5.144531-4.246094-6.046875-7.511719-.890625-3.214843-.4375-6.546875 1.28125-9.378906 25.769531-42.527344 64.824219-52.296875 90.253906-53.691406-1.757812 4.40625-3.671875 9.027343-4.796875 13.640625-.53125 2.171875-1.089844 4.328125-1.660156 6.476562zm155.53125 305.992188c-17.207031 0-33.113281-7.496094-44.03125-19.976563 3.832031-1.277343 7.691406-2.855469 11.574219-4.730469 3.40625-1.648437 6.582031-3.507812 9.652343-5.304687 7.292969-4.269531 13.589844-7.957031 21.167969-8.042969 9.398438-.125 16.683594 3.914063 25.144531 8.566406 2.890626 1.589844 5.878907 3.230469 9.078126 4.78125 3.859374 1.863282 7.695312 3.425782 11.503906 4.703126-10.902344 12.511718-26.8125 20.003906-44.089844 20.003906zm140.652344-342.636719c-.140625-.210937-.273438-.421875-.414063-.632813-1.109375-1.632812-2.214843-3.214843-3.308593-4.757812-8.425782-11.859375-16.542969-21.117188-25.246094-28.832031-.121094-.109375-.238282-.21875-.359375-.324219-.019531-.019531-.042969-.039062-.066407-.058594-1.878906-1.648437-3.808593-3.25-5.796874-4.789062 11.871093-4.015625 23.441406-11.171875 34.578124-21.40625 13.464844-12.371094 23.421876-26.644532 29.40625-36.445313 1.773438-2.914062 5.015626-2.96875 5.964844-2.921875.902344.046875 3.949219.429688 5.300782 3.296875 2.925781 6.222657 3.335937 13.835938 3.339843 13.941407 1.363281 26.597656-4.027343 47.933593-16.019531 63.410156-8.578125 11.074218-18.910156 17.070312-26.878906 20.273437-.167969-.253906-.335938-.5-.5-.753906zm99.957031 79.597656c-.902344 3.265625-3.050781 5.933594-6.046875 7.511719-29.546875 15.59375-52.613281 16.703125-67.984375 14.148438-.011719-.148438-.023437-.296876-.035156-.445313-1.445313-17.605469-3.574219-35.203125-7.597657-52.414063-1.222656-5.234374-2.628906-10.425781-4.230468-15.554687-1.6875-5.398437-3.488282-10.921875-5.640625-16.316406 25.421875 1.390625 64.484375 11.160156 90.253906 53.691406 1.714844 2.832031 2.171875 6.164063 1.28125 9.378906zm0 0"/><path d="m224.765625 387.101562c.113281.007813.226563.007813.339844.007813 3.96875 0 7.273437-3.125 7.453125-7.128906.550781-12.148438-2.601563-21.585938-9.367188-28.054688-9.644531-9.230469-22.546875-8.363281-23.980468-8.230469-4.109376.367188-7.171876 4-6.800782 8.105469.367188 4.109375 3.980469 7.144531 8.074219 6.773438.074219-.007813 7.621094-.496094 12.464844 4.21875 3.457031 3.363281 5.035156 8.921875 4.691406 16.515625-.183594 4.117187 3.003906 7.609375 7.125 7.792968zm0 0"/><path d="m279.703125 379.980469c.183594 4.003906 3.484375 7.132812 7.453125 7.128906.113281 0 .230469 0 .34375-.007813 4.121094-.183593 7.308594-3.675781 7.121094-7.792968-.339844-7.59375 1.238281-13.152344 4.695312-16.515625 4.789063-4.660157 12.21875-4.238281 12.460938-4.222657 4.085937.34375 7.679687-2.683593 8.046875-6.773437.371093-4.105469-2.660157-7.734375-6.769531-8.105469-1.4375-.128906-14.335938-.996094-23.984376 8.234375-6.761718 6.46875-9.914062 15.90625-9.367187 28.054688zm0 0"/></svg>