<svg height="512pt" viewBox="-33 0 512 512.002" width="512pt" xmlns="http://www.w3.org/2000/svg"><path d="m292.957031 504.488281h-166.277343c-6.722657 0-12.171876-5.449219-12.171876-12.175781v-24.089844h190.625v24.089844c0 6.726562-5.453124 12.175781-12.175781 12.175781zm0 0" fill="#575f64"/><path d="m305.136719 468.214844v24.097656c0 6.726562-5.460938 12.175781-12.179688 12.175781h-27.058593c6.71875 0 12.179687-5.449219 12.179687-12.175781v-24.097656zm0 0" fill="#474f54"/><path d="m241.570312 174.777344v-116.925782h-63.5v116.925782c0 17.925781-10.84375 33.921875-27.3125 41.007812-53.207031 22.898438-90.464843 75.792969-90.464843 137.398438 0 46.257812 21.007812 87.609375 54 115.039062h192.28125c32.285156-27.429687 52.769531-69.359375 52.769531-115.039062 0-61.605469-37.257812-114.5-90.464844-137.398438-16.46875-7.085937-27.308594-23.082031-27.308594-41.007812zm0 0" fill="#efe2dd"/><path d="m241.570312 174.777344v-116.925782h-63.5v116.925782c0 17.925781-10.84375 33.921875-27.3125 41.007812-53.207031 22.898438-90.464843 75.792969-90.464843 137.398438 0 46.257812 21.007812 87.609375 54 115.039062h192.28125c32.285156-27.429687 52.769531-69.359375 52.769531-115.039062 0-61.605469-37.257812-114.5-90.464844-137.398438-16.46875-7.085937-27.308594-23.082031-27.308594-41.007812zm0 0" fill="#efe2dd"/><path d="m359.34375 353.183594c0 45.683594-20.480469 87.613281-52.765625 115.03125h-28.769531c30.371094-26.9375 54.648437-67.195313 54.648437-110.957032 0-27.683593-6.28125-55.589843-20.101562-79.71875-13.714844-23.933593-37.402344-37.636718-60.273438-51.554687-15.472656-9.414063-28.152343-24.914063-28.152343-43.90625 0-.023437 0-124.226563 0-124.226563h17.636718v116.925782c0 17.925781 10.84375 33.917968 27.308594 41.007812 53.214844 22.894532 90.46875 75.789063 90.46875 137.398438zm0 0" fill="#e1d3ce"/><path d="m245.566406 57.851562h-71.496094c-4.742187 0-8.585937-3.847656-8.585937-8.589843v-33.160157c0-4.746093 3.84375-8.589843 8.585937-8.589843h71.496094c4.742188 0 8.589844 3.84375 8.589844 8.589843v33.160157c0 4.742187-3.847656 8.589843-8.589844 8.589843zm0 0" fill="#575f64"/><path d="m245.566406 57.851562h-14.429687v-50.339843h14.429687c4.742188 0 8.589844 3.84375 8.589844 8.585937v33.164063c0 4.742187-3.847656 8.589843-8.589844 8.589843zm0 0" fill="#474f54"/><path d="m292.613281 347.222656c0 45.726563-37.066406 82.796875-82.792969 82.796875-45.726562 0-82.796874-37.070312-82.796874-82.796875 0-45.726562 37.070312-82.792968 82.796874-82.792968 45.726563 0 82.792969 37.066406 82.792969 82.792968zm0 0" fill="#ffc143"/><path d="m292.617188 347.222656c0 45.726563-37.074219 82.800782-82.796876 82.800782-10.738281 0-21-2.042969-30.425781-5.78125.382813.019531.773438.019531 1.164063.019531 45.722656 0 82.785156-37.070313 82.785156-82.796875 0-34.96875-21.679688-64.882813-52.332031-77.019532 45.171875.628907 81.605469 37.453126 81.605469 82.777344zm0 0" fill="#ffb509"/><path d="m329.136719 124.042969c-4.058594 8.902343-15.472657 29.652343-36.042969 36.144531-1.746094.550781-1.746094 3.042969 0 3.59375 20.570312 6.488281 31.984375 27.238281 36.042969 36.144531.671875 1.476563 2.769531 1.476563 3.441406 0 4.058594-8.90625 15.46875-29.652343 36.042969-36.144531 1.746094-.550781 1.746094-3.042969 0-3.59375-20.574219-6.492188-31.984375-27.242188-36.042969-36.144531-.671875-1.476563-2.769531-1.476563-3.441406 0zm0 0" fill="#ffc143"/><path d="m368.617188 163.777344c-20.570313 6.492187-31.984376 27.238281-36.039063 36.144531-.671875 1.476563-2.765625 1.476563-3.4375 0-1.316406-2.890625-3.410156-7.019531-6.339844-11.511719 4.671875-9.558594 15.625-27.53125 34.246094-33.832031 3.480469 2.332031 7.335937 4.273437 11.570313 5.609375 1.75.550781 1.75 3.042969 0 3.589844zm0 0" fill="#ffb509"/><path d="m34.484375 197.957031c-2.929687 6.433594-11.171875 21.417969-26.027344 26.101563-1.261719.398437-1.261719 2.199218 0 2.597656 14.855469 4.6875 23.097657 19.671875 26.027344 26.101562.488281 1.066407 2 1.066407 2.484375 0 2.929688-6.429687 11.175781-21.414062 26.03125-26.101562 1.261719-.398438 1.261719-2.199219 0-2.597656-14.855469-4.6875-23.101562-19.667969-26.03125-26.101563-.484375-1.0625-2-1.0625-2.484375 0zm0 0" fill="#ffc143"/><path d="m62.996094 226.65625c-14.855469 4.6875-23.097656 19.667969-26.027344 26.101562-.484375 1.066407-1.996094 1.066407-2.484375 0-.949219-2.085937-2.460937-5.070312-4.578125-8.3125 3.375-6.902343 11.285156-19.882812 24.734375-24.433593 2.511719 1.683593 5.296875 3.085937 8.351563 4.050781 1.269531.398438 1.269531 2.195312.003906 2.59375zm0 0" fill="#ffb509"/><path d="m408.472656 223.1875c-2.929687 6.429688-11.171875 21.414062-26.027344 26.101562-1.261718.398438-1.261718 2.199219 0 2.597657 14.855469 4.6875 23.097657 19.671875 26.027344 26.101562.488282 1.066407 2 1.066407 2.484375 0 2.933594-6.429687 11.175781-21.414062 26.03125-26.101562 1.261719-.398438 1.261719-2.199219 0-2.597657-14.855469-4.6875-23.097656-19.671874-26.03125-26.101562-.484375-1.066406-1.996093-1.066406-2.484375 0zm0 0" fill="#ffc143"/><path d="m436.984375 251.886719c-14.851563 4.683593-23.097656 19.667969-26.027344 26.101562-.484375 1.066407-1.996093 1.066407-2.480469 0-.953124-2.089843-2.464843-5.070312-4.578124-8.316406 3.371093-6.902344 11.28125-19.878906 24.730468-24.429687 2.511719 1.683593 5.296875 3.085937 8.355469 4.050781 1.265625.394531 1.265625 2.195312 0 2.59375zm0 0" fill="#ffb509"/><path d="m119.511719 347.222656c0 49.796875 40.511719 90.308594 90.308593 90.308594 49.792969 0 90.304688-40.511719 90.304688-90.308594 0-49.792968-40.511719-90.304687-90.304688-90.304687-49.796874 0-90.308593 40.511719-90.308593 90.304687zm90.308593-75.28125c41.511719 0 75.285157 33.769532 75.285157 75.28125 0 41.515625-33.773438 75.285156-75.285157 75.285156-41.515624 0-75.285156-33.769531-75.285156-75.285156 0-41.511718 33.769532-75.28125 75.285156-75.28125zm0 0"/><path d="m67.804688 353.183594c0-56.8125 33.726562-108.039063 85.925781-130.5 19.347656-8.324219 31.847656-27.132813 31.847656-47.90625v-25.429688c0-4.148437-3.363281-7.511718-7.507813-7.511718-4.148437 0-7.511718 3.363281-7.511718 7.511718v25.429688c0 14.769531-8.9375 28.15625-22.769532 34.109375-57.714843 24.835937-95.007812 81.476562-95.007812 144.296875 0 20.59375 3.929688 40.621094 11.675781 59.519531 1.191407 2.90625 3.996094 4.664063 6.953125 4.664063.949219 0 1.914063-.179688 2.84375-.5625 3.839844-1.574219 5.675782-5.960938 4.101563-9.796876-7-17.085937-10.550781-35.191406-10.550781-53.824218zm0 0"/><path d="m271.847656 208.886719c-13.832031-5.953125-22.769531-19.339844-22.769531-34.109375v-109.816406c7.191406-1.605469 12.585937-8.03125 12.585937-15.699219v-33.160157c0-8.878906-7.222656-16.101562-16.097656-16.101562h-71.496094c-8.875 0-16.097656 7.222656-16.097656 16.101562v33.160157c0 7.667969 5.394532 14.09375 12.585938 15.699219v38.488281c0 4.148437 3.363281 7.511719 7.511718 7.511719 4.148438 0 7.511719-3.363282 7.511719-7.511719v-38.085938h48.476563v109.414063c0 20.777344 12.5 39.582031 31.851562 47.90625 52.195313 22.464844 85.925782 73.6875 85.925782 130.5 0 41.484375-17.484376 80.515625-48.0625 107.527344h-186.726563c-5.464844-4.722657-10.597656-9.882813-15.28125-15.363282-2.691406-3.15625-7.433594-3.53125-10.585937-.835937-3.15625 2.691406-3.53125 7.433593-.835938 10.589843 5.109375 5.980469 10.699219 11.613282 16.652344 16.777344v20.4375c0 10.855469 8.828125 19.6875 19.683594 19.6875h166.277343c10.855469 0 19.683594-8.832031 19.683594-19.6875v-19.421875c34.46875-29.894531 54.214844-73.425781 54.214844-119.710937 0-62.820313-37.292969-119.460938-95.007813-144.296875zm-25.203125-159.625c0 .59375-.484375 1.078125-1.078125 1.078125h-71.496094c-.59375 0-1.074218-.484375-1.074218-1.078125v-33.160157c0-.597656.480468-1.082031 1.074218-1.082031h71.496094c.59375 0 1.078125.484375 1.078125 1.082031zm50.976563 443.050781c0 2.574219-2.09375 4.667969-4.664063 4.667969h-166.277343c-2.570313 0-4.664063-2.09375-4.664063-4.667969v-16.582031h175.605469zm0 0"/><path d="m377.441406 161.984375c0-4.125-2.636718-7.722656-6.5625-8.960937-17.753906-5.601563-27.917968-24.3125-31.46875-32.097657-1.523437-3.34375-4.878906-5.5-8.554687-5.5-3.671875 0-7.027344 2.15625-8.550781 5.5-3.550782 7.785157-13.71875 26.496094-31.46875 32.097657-3.925782 1.234374-6.5625 4.835937-6.5625 8.960937 0 4.121094 2.636718 7.71875 6.558593 8.957031 17.753907 5.601563 27.921875 24.3125 31.472657 32.097656 1.519531 3.34375 4.878906 5.503907 8.550781 5.503907 3.675781 0 7.03125-2.160157 8.554687-5.503907 3.546875-7.785156 13.714844-26.496093 31.46875-32.097656 3.925782-1.234375 6.5625-4.835937 6.5625-8.957031zm-46.585937 25.054687c-7.714844-12.875-16.636719-20.539062-23.988281-25.054687 7.351562-4.519531 16.273437-12.183594 23.988281-25.058594 7.71875 12.875 16.636719 20.539063 23.988281 25.058594-7.347656 4.515625-16.269531 12.179687-23.988281 25.054687zm0 0"/><path d="m65.257812 233.820312c3.707032-1.167968 6.199219-4.570312 6.199219-8.460937 0-3.894531-2.492187-7.292969-6.199219-8.460937-12.019531-3.792969-19.007812-16.6875-21.453124-22.054688-1.4375-3.15625-4.609376-5.195312-8.074219-5.195312h-.003907c-3.464843 0-6.636718 2.039062-8.074218 5.195312-2.445313 5.367188-9.433594 18.261719-21.453125 22.054688-3.707031 1.167968-6.199219 4.570312-6.199219 8.460937s2.492188 7.292969 6.195312 8.460937c12.023438 3.792969 19.011719 16.6875 21.457032 22.054688 1.4375 3.15625 4.609375 5.195312 8.074218 5.195312h.003907c3.464843 0 6.636719-2.039062 8.074219-5.195312 2.445312-5.367188 9.433593-18.261719 21.453124-22.054688zm-29.53125 5.832032c-3.234374-4.824219-7.675781-10.113282-13.464843-14.292969 5.789062-4.179687 10.230469-9.472656 13.464843-14.292969 3.238282 4.820313 7.679688 10.113282 13.46875 14.292969-5.789062 4.179687-10.230468 9.46875-13.46875 14.292969zm0 0"/><path d="m439.246094 242.128906c-12.019532-3.796875-19.007813-16.6875-21.453125-22.058594-1.441407-3.152343-4.609375-5.191406-8.078125-5.191406s-6.636719 2.039063-8.074219 5.195313c-2.445313 5.367187-9.433594 18.261719-21.453125 22.054687-3.707031 1.167969-6.199219 4.566406-6.199219 8.460938 0 3.890625 2.492188 7.289062 6.199219 8.457031 12.019531 3.792969 19.007812 16.6875 21.453125 22.054687 1.4375 3.15625 4.605469 5.195313 8.074219 5.195313s6.640625-2.039063 8.078125-5.195313c2.445312-5.367187 9.433593-18.261718 21.453125-22.054687 3.707031-1.167969 6.199218-4.566406 6.199218-8.460937 0-3.890626-2.492187-7.289063-6.199218-8.457032zm-29.53125 22.75c-3.234375-4.820312-7.675782-10.113281-13.464844-14.292968 5.789062-4.175782 10.226562-9.46875 13.464844-14.289063 3.238281 4.820313 7.679687 10.113281 13.46875 14.289063-5.789063 4.179687-10.230469 9.472656-13.46875 14.292968zm0 0"/></svg>