<svg height="511pt" viewBox="-61 0 511 511.99804" width="511pt" xmlns="http://www.w3.org/2000/svg"><path d="m232.210938 384.6875h-79.292969c-56.832031 0-102.90625-46.070312-102.90625-102.902344v-163.644531h285.101562v163.644531c0 56.832032-46.070312 102.902344-102.902343 102.902344zm0 0" fill="#fed2a4"/><path d="m335.113281 117.699219v163.914062c0 56.921875-46.148437 103.074219-103.070312 103.074219h-24.941407c56.921876 0 103.070313-46.152344 103.070313-103.074219v-163.914062zm0 0" fill="#ffbd86"/><path d="m124.648438 264.328125c0 8.46875-6.863282 15.332031-15.328126 15.332031-8.46875 0-15.332031-6.863281-15.332031-15.332031s6.863281-15.332031 15.332031-15.332031c8.464844 0 15.328126 6.863281 15.328126 15.332031zm0 0" fill="#ff7a7a"/><path d="m291.140625 264.328125c0 8.46875-6.863281 15.332031-15.332031 15.332031-8.464844 0-15.332032-6.863281-15.332032-15.332031s6.867188-15.332031 15.332032-15.332031c8.46875 0 15.332031 6.863281 15.332031 15.332031zm0 0" fill="#ff7a7a"/><path d="m335.34375 214.570312h2.042969c19.011719 0 34.425781 15.414063 34.425781 34.425782 0 19.015625-15.414062 34.425781-34.425781 34.425781h-2.042969zm0 0" fill="#fed2a4"/><path d="m50.015625 212.125h-2.042969c-19.011718 0-34.425781 15.410156-34.425781 34.425781 0 19.011719 15.414063 34.425781 34.425781 34.425781h2.042969zm0 0" fill="#fed2a4"/><path d="m381.441406 90.472656c-.730468-10.066406-5.546875-19.542968-13.609375-25.617187-7.121093-5.367188-17.605469-8.945313-32.359375-4.703125-3.890625-29.144532-32.824218-44.214844-32.824218-44.214844-76.015626-36.6875-221.714844 57.929688-221.714844 57.929688-29.480469-21.191407-48.03125-17.15625-58.839844-9.011719-8.058594 6.078125-12.875 15.550781-13.609375 25.617187-5.765625 79.253906 41.53125 121.652344 41.53125 121.652344 23.269531-25.449219 32.171875-54.808594 34.792969-79.914062 123.746094 43.402343 192.171875 11.027343 219.613281-9.039063 1.347656 26.871094 9.363281 60.378906 35.492187 88.953125 0 0 47.292969-42.398438 41.527344-121.652344zm0 0" fill="#845f3f"/><path d="m339.917969 212.128906c-9.886719-10.8125-17.183594-22.347656-22.515625-33.949218 8.742187-19.8125 15.527344-46.410157 13.132812-79.378907-.734375-10.054687-5.550781-19.53125-13.609375-25.605469-6.125-4.613281-14.71875-7.902343-26.367187-6.058593-3.242188.515625-6.355469-1.515625-7.195313-4.691407-6.683593-25.175781-31.628906-38.171874-31.628906-38.171874-13.210937-6.371094-28.527344-8.792969-44.828125-8.421876 34.296875-9.539062 69.25-12.691406 95.742188.089844 0 0 28.929687 15.066406 32.832031 44.210938 14.75-4.25 25.230469-.667969 32.351562 4.699218 8.058594 6.078126 12.871094 15.550782 13.605469 25.617188 5.769531 79.253906-41.519531 121.660156-41.519531 121.660156zm0 0" fill="#795639"/><path d="m233.316406 384.6875h-76.703125s-64.828125 32.039062-84.625 119.820312h245.949219c-19.796875-87.78125-84.621094-119.820312-84.621094-119.820312zm0 0" fill="#575f64"/><path d="m317.769531 504.507812h-20.492187c-19.804688-87.785156-84.628906-119.816406-84.628906-119.816406h20.503906s64.824218 32.03125 84.617187 119.816406zm0 0" fill="#474f54"/><path d="m223.792969 412.664062h-57.65625c-1.539063 0-2.785157-1.25-2.785157-2.785156v-25.191406h63.226563v25.191406c0 1.535156-1.246094 2.785156-2.785156 2.785156zm0 0" fill="#efe2dd"/><path d="m226.578125 384.691406v25.1875c0 1.539063-1.25 2.785156-2.789063 2.785156h-15.136718v-27.972656zm0 0" fill="#e1d3ce"/><path d="m156.34375 186.535156c-1.488281-3.863281-5.824219-5.792968-9.683594-4.308594l-30.316406 11.648438c-3.863281 1.484375-5.792969 5.820312-4.308594 9.683594 1.144532 2.980468 3.984375 4.808594 6.996094 4.808594.894531 0 1.804688-.160157 2.6875-.5l30.316406-11.648438c3.863282-1.488281 5.792969-5.820312 4.308594-9.683594zm0 0"/><path d="m273.582031 193.875-30.316406-11.648438c-3.867187-1.484374-8.199219.445313-9.683594 4.308594-1.480469 3.863282.445313 8.195313 4.308594 9.683594l30.316406 11.648438c.886719.339843 1.792969.5 2.6875.5 3.011719 0 5.851563-1.828126 6.996094-4.808594 1.484375-3.863282-.445313-8.199219-4.308594-9.683594zm0 0"/><path d="m151.949219 222.972656c-4.140625 0-7.492188 3.351563-7.492188 7.492188v22.410156c0 4.136719 3.351563 7.492188 7.492188 7.492188 4.136719 0 7.492187-3.355469 7.492187-7.492188v-22.410156c0-4.140625-3.355468-7.492188-7.492187-7.492188zm0 0"/><path d="m237.976562 222.972656c-4.140624 0-7.492187 3.351563-7.492187 7.492188v22.410156c0 4.136719 3.351563 7.492188 7.492187 7.492188 4.140626 0 7.492188-3.355469 7.492188-7.492188v-22.410156c0-4.140625-3.351562-7.492188-7.492188-7.492188zm0 0"/><path d="m211.882812 283.34375c-3.734374-1.785156-8.207031-.203125-9.992187 3.53125-1.242187 2.601562-3.90625 4.28125-6.785156 4.28125-3.027344 0-5.746094-1.800781-6.925781-4.589844-1.613282-3.8125-6.007813-5.59375-9.820313-3.984375-3.8125 1.613281-5.59375 6.011719-3.984375 9.820313 3.53125 8.347656 11.667969 13.742187 20.730469 13.742187 8.617187 0 16.589843-5.027343 20.308593-12.804687 1.78125-3.734375.203126-8.210938-3.53125-9.996094zm0 0"/><path d="m352.351562 209.847656c13.746094-16.128906 41.164063-56.726562 36.5625-119.921875-.90625-12.480469-6.949218-23.800781-16.570312-31.054687-6.394531-4.820313-16.667969-9.605469-31.078125-7.609375-7.746094-27.402344-33.945313-41.339844-35.15625-41.96875-.066406-.035157-.136719-.070313-.203125-.105469-25.699219-12.402344-60.878906-12.246094-104.558594.460938-3.972656 1.15625-6.257812 5.316406-5.097656 9.289062 1.152344 3.972656 5.3125 6.257812 9.289062 5.101562 39.929688-11.621093 71.457032-12.097656 93.710938-1.421874 1.59375.875 25.578125 14.417968 28.792969 38.527343.289062 2.160157 1.503906 4.085938 3.328125 5.277344 1.824218 1.195313 4.078125 1.535156 6.171875.933594 10.160156-2.925781 18.835937-1.75 25.78125 3.484375 6.171875 4.652344 10.050781 12.003906 10.644531 20.175781 2.269531 31.167969-3.589844 60.054687-17.402344 85.851563-5.929687 11.066406-12.136718 19.160156-16.375 24.074218-17.25-21.445312-26.757812-47.695312-28.289062-78.148437-.136719-2.75-1.773438-5.203125-4.257813-6.386719-2.488281-1.183594-5.421875-.914062-7.648437.714844-13.078125 9.5625-35.894532 22-70.335938 26.949218-41.597656 5.984376-89.496094-.386718-142.371094-18.933593-2.164062-.757813-4.554687-.484375-6.488281.742187-1.9375 1.226563-3.207031 3.273438-3.445312 5.550782-2.800781 26.835937-12.082031 50.175781-27.617188 69.507812-4.246093-4.914062-10.449219-13.007812-16.375-24.070312-13.816406-25.800782-19.671875-54.683594-17.402343-85.855469.59375-8.167969 4.472656-15.523438 10.644531-20.171875 12.074219-9.101563 28.882812-6.035156 49.957031 9.109375 2.503906 1.800781 5.859375 1.882812 8.453125.203125.339844-.222656 34.460937-22.253906 77.429687-40.527344 3.808594-1.621094 5.582032-6.019531 3.964844-9.828125-1.621094-3.808594-6.023437-5.582031-9.832031-3.964844-35.734375 15.195313-64.839844 32.488281-75.453125 39.054688-31.28125-20.785157-51.738281-14.910157-63.542969-6.015625-9.621093 7.253906-15.660156 18.570312-16.570312 31.054687-4.324219 59.429688 19.664062 98.871094 33.96875 116.773438-16.773438 5.484375-28.925781 21.269531-28.925781 39.847656 0 21.332031 16.015624 38.980469 36.652343 41.578125 2.941407 51.625 41.511719 93.863281 91.445313 102.449219-5.332032 4.148437-11.414063 9.390625-17.769532 15.847656-17.726562 18.011719-41.089843 49.367187-51.703124 96.433594-.503907 2.222656.035156 4.550781 1.453124 6.328125 1.421876 1.78125 3.578126 2.8125 5.855469 2.8125h245.953125c2.277344 0 4.429688-1.03125 5.851563-2.8125 1.421875-1.777344 1.957031-4.105469 1.457031-6.328125-5.226562-23.167969-13.980469-44.65625-26.015625-63.871094-2.199219-3.507813-6.824219-4.566406-10.332031-2.371094-3.503906 2.199219-4.566406 6.824219-2.371094 10.328125 9.542969 15.230469 16.859375 32.035156 21.8125 50.070313h-48.9375v-38.46875c0-4.136719-3.351562-7.492188-7.492188-7.492188-4.140624 0-7.492187 3.355469-7.492187 7.492188v38.46875h-98.914063v-38.46875c0-4.136719-3.355468-7.492188-7.496093-7.492188-4.136719 0-7.492188 3.355469-7.492188 7.492188v38.46875h-48.933593c10.535156-38.277344 30-64.234375 45.023437-79.613281 12.253906-12.546876 23.476563-20.160157 29.246094-23.667969v16.144531c0 5.667969 4.609375 10.277344 10.277343 10.277344h57.65625c5.671876 0 10.28125-4.609375 10.28125-10.277344v-16.160156c5.101563 3.09375 14.488282 9.414062 25.1875 19.660156 2.988282 2.863281 7.730469 2.761719 10.59375-.230469 2.863282-2.988281 2.761719-7.730469-.226562-10.59375-5.300781-5.074219-10.332031-9.285156-14.796875-12.707031 47.253906-9.878906 83.492187-50.066406 87.410156-99.21875 20.835938-2.417969 37.066407-20.160156 37.066407-41.632812 0-17.839844-11.210938-33.105469-26.953126-39.144532zm-309.832031 63.082032c-12.242187-2.53125-21.476562-13.398438-21.476562-26.378907 0-12.984375 9.234375-23.851562 21.476562-26.378906zm176.5625 132.238281h-48.238281v-12.988281h48.238281zm108.539063-123.382813c0 52.605469-42.800782 95.40625-95.410156 95.40625h-79.292969c-52.609375 0-95.410157-42.800781-95.410157-95.40625v-66.832031c17.785157-20.277344 29.054688-44.679687 33.535157-72.707031 51.757812 17.046875 99.066406 22.652344 140.753906 16.660156 29.449219-4.234375 51.253906-13.613281 66.257813-22.5625 3.457031 27.546875 13.535156 52.367188 29.566406 72.832031zm15.21875-6.410156v-52.757812c12.242187 2.53125 21.476562 13.398437 21.476562 26.378906 0 12.984375-9.234375 23.851562-21.476562 26.378906zm0 0"/></svg>