<svg height="511pt" viewBox="-8 0 511 511.99997" width="511pt" xmlns="http://www.w3.org/2000/svg"><path d="m426.417969 121.601562h-357.535157c-2.800781 0-5.070312-2.269531-5.070312-5.070312v-52.117188h367.675781v52.117188c0 2.800781-2.269531 5.070312-5.070312 5.070312zm0 0" fill="#ff4343"/><path d="m426.417969 121.601562h-21.75v-57.1875h26.820312v52.117188c0 2.800781-2.269531 5.070312-5.070312 5.070312zm0 0" fill="#f72c2c"/><path d="m248.175781 52.046875c-20.601562-.4375-124.269531-4.589844-231.664062-44.125-4.113281-1.515625-8.476563 1.523437-8.476563 5.90625v46.398437c0 2.878907 1.949219 5.40625 4.738282 6.117188 39.136718 9.933594 79.058593 16.980469 118.882812 22.125 76.613281 9.890625 154.167969 9.992188 230.800781.285156 40.574219-5.140625 81.253907-12.289062 121.117188-22.410156 2.789062-.710938 4.742187-3.234375 4.742187-6.117188v-46.398437c0-4.382813-4.367187-7.421875-8.476562-5.90625-107.398438 39.535156-211.066406 43.6875-231.664063 44.125zm0 0" fill="#575f64"/><path d="m488.3125 13.828125v46.398437c0 2.878907-1.949219 5.40625-4.742188 6.113282-8.398437 2.132812-16.839843 4.136718-25.308593 6.003906v-56.921875c7.160156-2.34375 14.359375-4.84375 21.574219-7.5 4.113281-1.515625 8.476562 1.527344 8.476562 5.90625zm0 0" fill="#474f54"/><path d="m412.148438 504.464844h-50.378907c-2.453125 0-4.441406-1.988282-4.441406-4.441406v-50.082032c0-2.453125 1.988281-4.441406 4.441406-4.441406h50.378907c2.453124 0 4.441406 1.988281 4.441406 4.441406v50.082032c0 2.453124-1.988282 4.441406-4.441406 4.441406zm0 0" fill="#575f64"/><path d="m428.058594 225.503906h-361.035156c-1.773438 0-3.210938-1.4375-3.210938-3.210937v-29c0-1.773438 1.4375-3.210938 3.210938-3.210938h361.035156c1.773437 0 3.210937 1.4375 3.210937 3.210938v29c0 1.773437-1.441406 3.210937-3.210937 3.210937zm0 0" fill="#57bf93"/><path d="m428.058594 225.503906h-87.925782v-35.421875h87.925782c1.769531 0 3.207031 1.4375 3.207031 3.210938v29c.003906 1.773437-1.4375 3.210937-3.207031 3.210937zm0 0" fill="#1fb480"/><path d="m133.308594 504.464844h-50.378906c-2.453126 0-4.441407-1.988282-4.441407-4.441406v-50.082032c0-2.453125 1.988281-4.441406 4.441407-4.441406h50.378906c2.453125 0 4.441406 1.988281 4.441406 4.441406v50.082032c0 2.453124-1.988281 4.441406-4.441406 4.441406zm0 0" fill="#575f64"/><path d="m133.308594 504.464844h-14.796875v-58.964844h14.796875c2.453125 0 4.441406 1.988281 4.441406 4.441406v50.085938c0 2.449218-1.988281 4.4375-4.441406 4.4375zm0 0" fill="#474f54"/><path d="m412.148438 504.464844h-14.796876v-58.964844h14.796876c2.453124 0 4.441406 1.988281 4.441406 4.441406v50.085938c0 2.449218-1.988282 4.4375-4.441406 4.4375zm0 0" fill="#474f54"/><path d="m108.761719 257.1875h277.558593v35.421875h-277.558593zm0 0" fill="#e32929"/><path d="m340.132812 257.1875h46.183594v35.421875h-46.183594zm0 0" fill="#d11c1c"/><path d="m90.410156 121.1875h35.421875v324.3125h-35.421875zm0 0" fill="#ff4343"/><path d="m369.246094 121.1875h35.421875v324.3125h-35.421875zm0 0" fill="#ff4343"/><path d="m108.121094 121.1875h17.710937v324.3125h-17.710937zm0 0" fill="#f72c2c"/><path d="m386.960938 121.1875h17.710937v324.3125h-17.710937zm0 0" fill="#f72c2c"/><path d="m267.605469 121.1875h-40.132813l-9.984375 68.796875h60.105469zm0 0" fill="#575f64"/><path d="m277.59375 189.980469h-20.550781l-9.996094-68.792969h20.5625zm0 0" fill="#474f54"/><path d="m489.929688 2.488281c-3.707032-2.5859372-8.453126-3.199219-12.695313-1.636719-106.175781 39.085938-209.066406 43.222657-229.058594 43.65625-11.128906-.238281-50.605469-1.703124-102.140625-10.441406-4.105468-.695312-7.988281 2.066406-8.6875 6.167969-.695312 4.101563 2.066406 7.992187 6.167969 8.6875 52.800781 8.949219 93.332031 10.417969 104.5 10.652344.105469.003906.210937.003906.320313 0 19.917968-.421875 124.320312-4.519531 232.445312-43.976563v43.679688c-36.796875 9.296875-75.824219 16.496094-119.269531 22-75.921875 9.617187-152.929688 9.523437-228.890625-.285156-42.765625-5.519532-81.070313-12.625-117.054688-21.714844v-43.675782c25.777344 9.402344 53.332032 17.519532 81.925782 24.125 4.054687.9375 8.101562-1.589843 9.035156-5.644531.9375-4.054687-1.589844-8.101562-5.640625-9.035156-28.601563-6.609375-56.113281-14.746094-81.773438-24.195313-4.242187-1.5625-8.988281-.9492182-12.695312 1.636719-3.707031 2.582031-5.917969 6.824219-5.917969 11.339844v46.398437c0 6.339844 4.285156 11.859376 10.421875 13.417969 14.699219 3.730469 29.773437 7.128907 45.355469 10.230469v32.65625c0 6.949219 5.65625 12.605469 12.605468 12.605469h13.992188v53.410156h-15.851562c-5.925782 0-10.746094 4.820313-10.746094 10.746094v29c0 5.925781 4.820312 10.742187 10.746094 10.742187h15.851562v204.933594c-6.574219.03125-11.917969 5.386719-11.917969 11.972656v50.085938c0 6.601562 5.371094 11.972656 11.972657 11.972656h50.378906c6.605468 0 11.976562-5.371094 11.976562-11.972656v-50.085938c0-6.582031-5.34375-11.941406-11.921875-11.972656v-137.824219h228.351563v137.824219c-6.578125.03125-11.917969 5.390625-11.917969 11.972656v50.085938c0 6.601562 5.371094 11.972656 11.972656 11.972656h50.378907c6.601562 0 11.972656-5.371094 11.972656-11.972656v-50.085938c0-6.582031-5.34375-11.941406-11.917969-11.972656v-204.933594h15.855469c5.921875 0 10.742187-4.816406 10.742187-10.742187v-29c0-5.925781-4.820312-10.746094-10.742187-10.746094h-15.855469v-53.410156h14.214844c6.949219 0 12.605469-5.65625 12.605469-12.605469v-32.441406c15.917968-3.152344 31.34375-6.621094 46.40625-10.445313 6.132812-1.5625 10.417968-7.078125 10.417968-13.417969v-46.398437c0-4.515625-2.210937-8.757813-5.917968-11.339844zm-407.054688 215.480469h-11.53125v-20.355469h11.53125zm47.34375 278.964844h-44.195312v-43.898438h44.195312zm-32.273438-58.964844v-308.835938h20.351563v308.832032h-20.351563zm263.769532-188.316406h-44.230469c-4.160156 0-7.535156 3.375-7.535156 7.535156s3.375 7.535156 7.535156 7.535156h44.230469v20.351563h-228.351563v-20.351563h137.410157c4.164062 0 7.535156-3.375 7.535156-7.535156s-3.371094-7.535156-7.535156-7.535156h-137.410157v-16.617188h228.351563zm0-31.683594h-228.351563v-20.355469h228.351563zm-228.351563-35.421875v-53.410156h85.34375l-7.75 53.410156zm92.832031-.09375 7.738282-53.316406h27.214844l7.738281 53.316406zm135.519532.09375h-77.589844l-7.753906-53.410156h85.34375zm47.339844 314.386719h-44.191407v-43.898438h44.191407zm-32.273438-58.964844v-308.835938h20.355469v308.832032h-20.355469zm46.953125-240.355469v20.355469h-11.53125v-20.355469zm.21875-83.546875h-352.609375v-27.316406c18.921875 3.460938 38.617188 6.511719 59.347656 9.1875 38.992188 5.035156 78.253906 7.550781 117.507813 7.550781 38.496093 0 76.988281-2.421875 115.203125-7.261719 21.125-2.675781 41.222656-5.757812 60.550781-9.273437zm0 0"/></svg>