<svg height="511pt" viewBox="-7 0 511 511.99826" width="511pt" xmlns="http://www.w3.org/2000/svg"><path d="m359.414062 504.5h-219.792968v-233.191406c0-2.152344 1.746094-3.898438 3.902344-3.898438h211.988281c2.15625 0 3.902343 1.746094 3.902343 3.898438zm0 0" fill="#efe2dd"/><path d="m359.414062 504.5h-22.347656v-237.089844h18.445313c2.15625 0 3.902343 1.746094 3.902343 3.898438zm0 0" fill="#e1d3ce"/><path d="m254.042969 322.535156c-2.875-1.308594-6.175781-1.308594-9.046875 0l-51.113282 23.292969c-6.546874 2.980469-10.75 9.511719-10.75 16.707031v141.964844h132.765626v-141.964844c0-7.195312-4.199219-13.726562-10.746094-16.707031zm0 0" fill="#cdbfba"/><path d="m315.898438 362.539062v141.964844h-15.382813v-133.503906c0-7.050781-4.648437-13.449219-11.898437-16.378906l-56.582032-22.820313c-1.660156-.679687-3.460937-1-5.238281-.960937l18.199219-8.300782c2.871094-1.308593 6.171875-1.308593 9.050781 0l51.101563 23.292969c6.546874 2.980469 10.75 9.507813 10.75 16.707031zm0 0" fill="#b9acac"/><path d="m413.636719 138.089844h72.230469v366.410156h-72.230469zm0 0" fill="#efe2dd"/><path d="m467.339844 138.082031h18.527344v366.410157h-18.527344zm0 0" fill="#e1d3ce"/><path d="m475.675781 100.242188s-16.402343-8.984376-23.15625-17.378907c-1.414062-1.753906-4.121093-1.753906-5.535156 0-6.753906 8.394531-23.15625 17.378907-23.15625 17.378907-27.082031 18.21875-10.191406 37.847656-10.191406 37.847656h72.230469s16.890624-19.628906-10.191407-37.847656zm0 0" fill="#cdbfba"/><path d="m485.867188 138.089844h-18.527344c10.621094-12.347656 2.125-26.679688-9.105469-34.789063-1.941406-1.402343-16.289063-15.339843-17.746094-14.164062 2.5-2.019531 4.800781-4.167969 6.5-6.269531 1.410157-1.757813 4.121094-1.757813 5.53125 0 6.75 8.390624 23.160157 17.371093 23.160157 17.371093 27.078124 18.21875 10.1875 37.851563 10.1875 37.851563zm0 0" fill="#b9acac"/><path d="m359.449219 298.972656h53.910156v205.527344h-53.910156zm0 0" fill="#cdbfba"/><path d="m392.019531 298.972656h21.339844v205.527344h-21.339844zm0 0" fill="#b9acac"/><g fill="#575f64"><path d="m463.785156 255.347656h-28.066406v-21.085937c0-6.816407 5.527344-12.34375 12.34375-12.34375h3.378906c6.816406 0 12.34375 5.527343 12.34375 12.34375zm0 0"/><path d="m463.785156 345.457031h-28.066406v-21.082031c0-6.820312 5.527344-12.34375 12.34375-12.34375h3.378906c6.816406 0 12.34375 5.523438 12.34375 12.34375zm0 0"/><path d="m463.785156 435.566406h-28.066406v-21.085937c0-6.816407 5.527344-12.34375 12.34375-12.34375h3.378906c6.816406 0 12.34375 5.527343 12.34375 12.34375zm0 0"/></g><path d="m463.789062 234.257812v21.09375h-13.042968v-21.09375c0-5.097656-3.089844-9.476562-7.507813-11.359374 1.480469-.628907 3.121094-.980469 4.828125-.980469h3.371094c6.820312 0 12.351562 5.53125 12.351562 12.339843zm0 0" fill="#474f54"/><path d="m463.789062 324.371094v21.089844h-13.042968v-21.089844c0-5.101563-3.089844-9.480469-7.507813-11.359375 1.480469-.632813 3.121094-.980469 4.828125-.980469h3.371094c6.820312 0 12.351562 5.519531 12.351562 12.339844zm0 0" fill="#474f54"/><path d="m463.789062 414.480469v21.082031h-13.042968v-21.082031c0-5.097657-3.089844-9.480469-7.507813-11.359375 1.480469-.628906 3.121094-.980469 4.828125-.980469h3.371094c6.820312 0 12.351562 5.519531 12.351562 12.339844zm0 0" fill="#474f54"/><path d="m13.207031 138.089844h72.230469v366.410156h-72.230469zm0 0" fill="#efe2dd"/><path d="m66.910156 138.082031h18.527344v366.410157h-18.527344zm0 0" fill="#e1d3ce"/><path d="m23.398438 100.242188s16.402343-8.984376 23.15625-17.378907c1.414062-1.753906 4.121093-1.753906 5.53125 0 6.757812 8.394531 23.160156 17.378907 23.160156 17.378907 27.082031 18.21875 10.1875 37.847656 10.1875 37.847656h-72.226563s-16.890625-19.628906 10.191407-37.847656zm0 0" fill="#cdbfba"/><path d="m85.4375 138.089844h-18.53125c10.625-12.347656 2.128906-26.679688-9.101562-34.789063-1.945313-1.402343-16.289063-15.339843-17.75-14.164062 2.5-2.019531 4.800781-4.167969 6.5-6.269531 1.410156-1.757813 4.121093-1.757813 5.53125 0 6.75 8.390624 23.160156 17.371093 23.160156 17.371093 27.082031 18.21875 10.191406 37.851563 10.191406 37.851563zm0 0" fill="#b9acac"/><path d="m85.714844 298.972656h53.910156v205.527344h-53.910156zm0 0" fill="#cdbfba"/><path d="m118.285156 298.972656h21.339844v205.527344h-21.339844zm0 0" fill="#b9acac"/><path d="m63.351562 255.347656h-28.066406v-21.085937c0-6.816407 5.527344-12.34375 12.347656-12.34375h3.375c6.820313 0 12.34375 5.527343 12.34375 12.34375zm0 0" fill="#575f64"/><path d="m63.351562 345.457031h-28.066406v-21.082031c0-6.820312 5.527344-12.34375 12.347656-12.34375h3.375c6.820313 0 12.34375 5.523438 12.34375 12.34375zm0 0" fill="#575f64"/><path d="m63.351562 435.566406h-28.066406v-21.085937c0-6.816407 5.527344-12.34375 12.347656-12.34375h3.375c6.820313 0 12.34375 5.527343 12.34375 12.34375zm0 0" fill="#575f64"/><path d="m63.355469 234.257812v21.09375h-13.039063v-21.09375c0-5.097656-3.089844-9.476562-7.511718-11.359374 1.480468-.628907 3.121093-.980469 4.832031-.980469h3.371093c6.820313 0 12.347657 5.53125 12.347657 12.339843zm0 0" fill="#474f54"/><path d="m63.355469 324.371094v21.089844h-13.039063v-21.089844c0-5.101563-3.089844-9.480469-7.511718-11.359375 1.480468-.632813 3.121093-.980469 4.832031-.980469h3.371093c6.820313 0 12.347657 5.519531 12.347657 12.339844zm0 0" fill="#474f54"/><path d="m63.355469 414.480469v21.082031h-13.039063v-21.082031c0-5.097657-3.089844-9.480469-7.511718-11.359375 1.480468-.628906 3.121093-.980469 4.832031-.980469h3.371093c6.820313 0 12.347657 5.519531 12.347657 12.339844zm0 0" fill="#474f54"/><path d="m336.070312 156.613281s-13.445312-15.964843-54.621093-34.453125l-.453125-.191406c-3.46875-1.492188-26.507813-12.101562-31.480469-32.722656-4.96875 20.621094-28.007813 31.230468-31.476563 32.722656l-.453124.191406c-41.175782 18.488282-54.621094 34.453125-54.621094 34.453125-62.183594 58.820313 0 110.796875 0 110.796875h173.101562c.003906 0 62.1875-51.976562.003906-110.796875zm0 0" fill="#cdbfba"/><path d="m336.066406 267.410156h-21.851562c14.011718-15.359375 43.363281-57.859375-6.15625-104.703125 0 0-13.453125-15.96875-54.621094-34.457031l-.460938-.191406c-2.21875-.960938-12.519531-5.671875-20.910156-14.390625 7.160156-5.429688 14.828125-13.53125 17.449219-24.417969 4.96875 20.617188 28.011719 31.226562 31.480469 32.71875l.449218.191406c41.179688 18.488282 54.621094 34.449219 54.621094 34.449219 62.191406 58.828125 0 110.800781 0 110.800781zm0 0" fill="#b9acac"/><path d="m35.285156 262.847656h28.066406c4.144532 0 7.5-3.355468 7.5-7.5v-21.082031c0-10.941406-8.898437-19.847656-19.84375-19.847656h-3.378906c-10.941406 0-19.84375 8.902343-19.84375 19.847656v21.082031c0 4.144532 3.359375 7.5 7.5 7.5zm7.5-28.585937c0-2.667969 2.175782-4.84375 4.847656-4.84375h3.375c2.671876 0 4.847657 2.171875 4.847657 4.84375v13.585937h-13.070313zm0 0"/><path d="m35.285156 352.957031h28.066406c4.144532 0 7.5-3.359375 7.5-7.5v-21.085937c0-10.941406-8.898437-19.84375-19.84375-19.84375h-3.378906c-10.941406 0-19.84375 8.902344-19.84375 19.84375v21.085937c0 4.144531 3.359375 7.5 7.5 7.5zm7.5-28.585937c0-2.667969 2.175782-4.84375 4.847656-4.84375h3.375c2.671876 0 4.847657 2.175781 4.847657 4.84375v13.585937h-13.070313zm0 0"/><path d="m35.285156 443.066406h28.066406c4.144532 0 7.5-3.359375 7.5-7.5v-21.085937c0-10.941407-8.898437-19.84375-19.84375-19.84375h-3.378906c-10.941406 0-19.84375 8.902343-19.84375 19.84375v21.085937c0 4.140625 3.359375 7.5 7.5 7.5zm7.5-28.585937c0-2.671875 2.175782-4.84375 4.847656-4.84375h3.375c2.671876 0 4.847657 2.171875 4.847657 4.84375v13.585937h-13.070313zm0 0"/><path d="m463.785156 262.847656c4.144532 0 7.5-3.355468 7.5-7.5v-21.082031c0-10.941406-8.902344-19.847656-19.84375-19.847656h-3.378906c-10.941406 0-19.84375 8.902343-19.84375 19.847656v21.082031c0 4.144532 3.355469 7.5 7.5 7.5zm-20.566406-28.585937c0-2.667969 2.171875-4.84375 4.84375-4.84375h3.378906c2.671875 0 4.84375 2.171875 4.84375 4.84375v13.585937h-13.066406zm0 0"/><path d="m428.21875 345.457031c0 4.140625 3.355469 7.5 7.5 7.5h28.066406c4.144532 0 7.5-3.359375 7.5-7.5v-21.085937c0-10.941406-8.902344-19.84375-19.84375-19.84375h-3.378906c-10.941406 0-19.84375 8.902344-19.84375 19.84375zm15-21.085937c0-2.667969 2.171875-4.84375 4.84375-4.84375h3.378906c2.671875 0 4.84375 2.175781 4.84375 4.84375v13.585937h-13.066406zm0 0"/><path d="m428.21875 435.566406c0 4.140625 3.355469 7.5 7.5 7.5h28.066406c4.144532 0 7.5-3.359375 7.5-7.5v-21.085937c0-10.941407-8.902344-19.84375-19.84375-19.84375h-3.378906c-10.941406 0-19.84375 8.902343-19.84375 19.84375zm15-21.085937c0-2.671875 2.171875-4.84375 4.84375-4.84375h3.378906c2.671875 0 4.84375 2.171875 4.84375 4.84375v13.585937h-13.066406zm0 0"/><path d="m296.117188 64.242188c-5.144532 15.449218-17.976563 27.882812-34.992188 31.644531-25.671875 5.675781-51-10.425781-57-36.226563-4.828125-20.769531 4.464844-41.503906 21.582031-52 .824219-.503906 1.855469.234375 1.648438 1.1875-1.5 6.898438-1.507813 14.25.257812 21.601563 6.199219 25.800781 31.773438 41.722656 57.425781 35.757812 3.367188-.78125 6.5625-1.90625 9.566407-3.324219.875-.414062 1.820312.4375 1.511719 1.359376zm0 0" fill="#ffc143"/><path d="m296.117188 64.242188c-1.660157 4.976562-4.109376 9.632812-7.242188 13.785156-2.308594.878906-4.707031 1.617187-7.195312 2.195312-29.886719 6.949219-59.6875-11.605468-66.910157-41.667968-1.648437-6.84375-1.96875-13.695313-1.136719-20.277344 3.359376-4.15625 7.433594-7.761719 12.074219-10.613282.828125-.511718 1.859375.234376 1.652344 1.183594-1.503906 6.898438-1.511719 14.253906.257813 21.605469 6.199218 25.796875 31.773437 41.71875 57.429687 35.75 3.363281-.78125 6.558594-1.898437 9.554687-3.320313.878907-.414062 1.820313.4375 1.515626 1.359376zm0 0" fill="#ffb509"/><path d="m498.320312 119.785156c-1.316406-9.742187-7.523437-18.410156-18.457031-25.765625-.1875-.128906-.382812-.246093-.582031-.355469-4.207031-2.308593-16.164062-9.59375-20.921875-15.503906-2.101563-2.613281-5.238281-4.113281-8.605469-4.113281 0 0 0 0-.003906 0-3.363281 0-6.503906 1.5-8.605469 4.113281-4.757812 5.910156-16.714843 13.195313-20.917969 15.503906-.203124.109376-.398437.226563-.585937.355469-10.933594 7.351563-17.140625 16.023438-18.453125 25.765625-1.28125 9.480469 2.507812 17.003906 4.949219 20.726563v24.984375c0 4.144531 3.359375 7.5 7.5 7.5 4.144531 0 7.5-3.355469 7.5-7.5v-19.90625h57.230469v351.410156h-57.230469v-284c0-4.144531-3.355469-7.5-7.5-7.5-4.140625 0-7.5 3.355469-7.5 7.5v78.472656h-39.222657v-20.164062c0-6.285156-5.113281-11.398438-11.402343-11.398438h-2.292969c8.121094-10.519531 17.351562-26.695312 17.957031-46.398437.671875-21.84375-9.324219-42.742188-29.707031-62.113281-2.4375-2.707032-17.683594-18.449219-56.945312-36.078126-.054688-.023437-.105469-.046874-.160157-.070312l-.402343-.167969c-1.535157-.660156-10.921876-4.898437-18.386719-12.589843 17.78125-4.90625 31.746093-18.125 37.660156-35.878907 1.089844-3.277343.128906-6.875-2.457031-9.167969-2.582032-2.289062-6.261719-2.816406-9.378906-1.339843-2.554688 1.207031-5.265626 2.148437-8.054688 2.796875-21.503906 5-43.230469-8.550782-48.433594-30.203125-1.460937-6.078125-1.535156-12.21875-.222656-18.253907.734375-3.378906-.613281-6.855468-3.429688-8.855468-2.816406-1.996094-6.53125-2.121094-9.472656-.320313-20.378906 12.5-30.414062 36.648438-24.964844 60.09375 3.351563 14.402344 12.015626 26.671875 24.40625 34.542969 4.042969 2.574219 8.339844 4.578125 12.792969 6.007812-7.542969 8.054688-17.355469 12.484376-18.890625 13.144532l-.453125.191406c-.054687.023438-.105469.046875-.160156.070312-39.261719 17.628907-54.511719 33.371094-56.949219 36.078126-20.382812 19.371093-30.375 40.269531-29.707031 62.113281.605469 19.703125 9.835937 35.882812 17.960937 46.398437h-2.296874c-6.285157 0-11.398438 5.113282-11.398438 11.402344v20.160156h-39.1875v-150.957031c2.441406-3.726563 6.230469-11.25 4.949219-20.730469-1.3125-9.742187-7.519531-18.410156-18.453125-25.765625-.1875-.128906-.382813-.246093-.582032-.355469-4.207031-2.308593-16.164062-9.59375-20.921874-15.503906-2.101563-2.613281-5.238282-4.113281-8.609376-4.113281-3.363281 0-6.503906 1.5-8.605468 4.113281-4.757813 5.910156-16.714844 13.195313-20.921875 15.503906-.199219.109376-.394531.226563-.582031.355469-10.933594 7.355469-17.140626 16.023438-18.457032 25.765625-1.277344 9.480469 2.511719 17.003906 4.953125 20.730469v363.984375c0 4.140625 3.359375 7.5 7.5 7.5h472.660157c4.144531 0 7.5-3.359375 7.5-7.5v-363.984375c2.441406-3.726563 6.230468-11.25 4.953124-20.730469zm-420.382812 377.214844h-57.230469v-351.410156h57.230469zm3.421875-366.410156h-64.070313c-1.070312-2.128906-2.175781-5.34375-1.648437-8.941406.757813-5.195313 4.6875-10.242188 11.679687-15.003907 2.519532-1.398437 14.292969-8.121093 22-15.710937 7.710938 7.589844 19.484376 14.3125 22.003907 15.710937 6.992187 4.761719 10.921875 9.808594 11.679687 15.003907.523438 3.601562-.582031 6.824218-1.644531 8.941406zm50.761719 366.410156h-38.90625v-190.527344h38.90625zm79.3125-439.039062c-2.863282-12.308594.101562-24.878907 7.503906-34.363282.238281 2.875.699219 5.746094 1.386719 8.601563 6.121093 25.472656 28.980469 42.742187 54.015625 42.738281 2.628906 0 5.285156-.191406 7.945312-.582031-5.636718 7.125-13.574218 12.171875-22.78125 14.207031-2.871094.636719-5.738281.941406-8.574218.941406-18.371094 0-35.144532-12.808594-39.496094-31.542968zm-68.582032 154.976562c-.5-17.425781 8.003907-34.542969 25.269532-50.875.207031-.195312.367187-.363281.550781-.582031.128906-.148438 13.351563-15.121094 51.910156-32.445313l.421875-.175781c3.730469-1.605469 18.804688-8.699219 28.515625-22.222656 9.714844 13.523437 24.796875 20.621093 28.566407 22.242187l.371093.160156c38.359375 17.234376 51.644531 32.140626 51.90625 32.4375.175781.207032.359375.398438.554688.585938 17.265625 16.332031 25.765625 33.449219 25.269531 50.875-.664062 23.355469-17.335938 41.453125-23.035156 46.972656h-167.265625c-5.710938-5.535156-22.371094-23.628906-23.035157-46.972656zm209.0625 284.0625h-28.515624v-134.464844c0-10.105468-5.941407-19.34375-15.136719-23.535156l-51.109375-23.289062c-4.851563-2.210938-10.417969-2.210938-15.269532 0l-51.109374 23.289062c-9.195313 4.191406-15.140626 13.429688-15.140626 23.535156v26.464844c0 4.144531 3.359376 7.5 7.5 7.5 4.144532 0 7.5-3.355469 7.5-7.5v-26.464844c0-4.242187 2.496094-8.125 6.359376-9.882812l51.109374-23.292969c.902344-.40625 1.929688-.410156 2.828126 0l51.109374 23.292969c3.863282 1.757812 6.359376 5.640625 6.359376 9.882812v134.464844h-117.765626v-61.441406c0-4.140625-3.355468-7.5-7.5-7.5-4.140624 0-7.5 3.359375-7.5 7.5v61.441406h-28.507812v-222.089844h204.789062zm53.945313 0h-38.910156v-190.527344h38.910156zm75.929687-366.410156h-64.078124c-1.050782-2.089844-2.140626-5.25-1.660157-8.800782.707031-5.246093 4.644531-10.339843 11.699219-15.144531 2.519531-1.398437 14.296875-8.121093 22-15.710937 7.710938 7.589844 19.484375 14.3125 22.003906 15.710937 6.992188 4.761719 10.921875 9.808594 11.679688 15.003907.527344 3.601562-.582032 6.824218-1.644532 8.941406zm0 0"/></svg>