<svg height="511pt" viewBox="-70 1 511 511.999" width="511pt" xmlns="http://www.w3.org/2000/svg"><path d="m330.328125 139.542969c-19.234375 0-34.824219 15.589843-34.824219 34.824219l-.203125-68.597657c0-19.234375-15.589843-34.824219-34.820312-34.824219s-34.820313 15.589844-34.820313 34.824219l-.074218-63.425781c-.003907-19.230469-15.601563-34.816406-34.832032-34.8125-19.230468.003906-34.816406 15.601562-34.8125 34.832031l.011719 38.246094c-.503906-18.792969-15.882813-33.875-34.796875-33.875-19.234375 0-34.824219 15.589844-34.824219 34.820313v185.382812l-1.324219.003906c-1.832031-19.976562-5.234374-36.652344-8.921874-49.957031-5.855469-21.109375-29.625-31.515625-49.136719-21.558594-13.039063 6.652344-20.523438 20.777344-18.625 35.289063 5.527343 42.230468 6.320312 98.5 6.320312 98.5 0 96.816406 78.511719 175.300781 175.34375 175.253906 97.027344-.050781 175.164063-79.90625 175.164063-176.933594v-153.167968c-.003906-19.234376-15.59375-34.824219-34.824219-34.824219zm0 0" fill="#fed2a4"/><path d="m330.324219 139.546875c-5.703125 0-11.074219 1.367187-15.824219 3.796875 11.277344 5.753906 18.996094 17.480469 18.996094 31.015625v153.175781c0 91.742188-69.847656 168.128906-159.46875 176.222656 5.25.46875 10.574218.710938 15.957031.710938 97.03125-.050781 175.164063-79.902344 175.164063-176.933594v-153.171875c0-19.230469-15.59375-34.816406-34.824219-34.816406zm0 0" fill="#ffbd86"/><path d="m271.820312 383.386719c0 44.75-36.273437 81.023437-81.023437 81.023437-44.746094 0-81.019531-36.273437-81.019531-81.023437 0-44.746094 36.273437-81.019531 81.019531-81.019531 44.75 0 81.023437 36.273437 81.023437 81.019531zm0 0" fill="#efe2dd"/><path d="m271.824219 383.386719c0 44.746093-36.28125 81.027343-81.027344 81.027343-17.984375 0-34.601563-5.863281-48.039063-15.777343 7.582032 2.351562 15.644532 3.617187 24 3.617187 44.742188 0 81.023438-36.269531 81.023438-81.015625 0-26.773437-12.984375-50.511719-33.003906-65.261719 33.046875 10.222657 57.046875 41.011719 57.046875 77.410157zm0 0" fill="#e1d3ce"/><path d="m330.328125 132.011719c-10.488281 0-20.089844 3.839843-27.496094 10.175781v-36.417969c0-23.355469-19-42.355469-42.351562-42.355469-10.421875 0-19.96875 3.789063-27.355469 10.054688l-.007812-31.128906c-.007813-23.351563-19.003907-42.339844-42.355469-42.339844-.003907 0-.007813 0-.011719 0-11.3125.00390625-21.949219 4.410156-29.945312 12.414062-7.996094 8-12.398438 18.640626-12.394532 29.953126v6.804687c-7.371094-6.214844-16.882812-9.96875-27.257812-9.96875-23.355469 0-42.351563 19-42.351563 42.351563v26.835937c0 4.15625 3.371094 7.53125 7.53125 7.53125 4.15625 0 7.53125-3.375 7.53125-7.53125v-26.835937c0-15.046876 12.242188-27.289063 27.289063-27.289063 14.734375 0 26.769531 11.738281 27.265625 26.351563l.027343 75.460937v115.496094c0 4.160156 3.371094 7.53125 7.527344 7.53125 4.160156 0 7.53125-3.371094 7.53125-7.53125v-5.949219c.023438-.226562.035156-.453125.035156-.6875l-.035156-109.058594v-74.324218c0-.3125-.015625-.621094-.023437-.933594l-.011719-38.257813c0-7.289062 2.835938-14.144531 7.988281-19.300781 5.15625-5.15625 12.007813-7.996094 19.296875-8h.007813c15.042969 0 27.285156 12.238281 27.289062 27.285156l.074219 229.222656c0 4.15625 3.375 7.527344 7.53125 7.527344h.003906c4.15625 0 7.527344-3.375 7.527344-7.535156v-165.792969c0-15.050781 12.242188-27.292969 27.292969-27.292969 15.046875 0 27.289062 12.242188 27.289062 27.292969v165.804688c0 4.160156 3.371094 7.53125 7.53125 7.53125 4.160157 0 7.53125-3.371094 7.53125-7.53125l.203125-97.207031c0-15.050782 12.242188-27.292969 27.289063-27.292969 15.050781 0 27.292969 12.242187 27.292969 27.292969v153.171874c0 93.359376-75.203126 169.351563-167.636719 169.398438-.03125 0-.058594 0-.085938 0-44.785156 0-86.894531-17.433594-118.570312-49.09375-31.699219-31.683594-49.152344-73.8125-49.152344-118.628906 0-.035156 0-.070313 0-.105469-.007813-.566406-.863281-57.191406-6.382813-99.371094-1.480468-11.304687 4.378907-22.398437 14.578126-27.601562 7.292968-3.722657 15.773437-3.964844 23.269531-.671875 10.765625 4.734375 14.703125 15.699218 17.59375 26.175781 4.003906 14.519531 7.566406 28.75 7.566406 43.925781 0 4.160156 3.375 7.53125 7.53125 7.53125 4.160156 0 7.53125-3.371094 7.53125-7.53125v-117.035156c0-4.160156-3.371094-7.53125-7.53125-7.53125-4.15625 0-7.53125 3.371094-7.53125 7.53125v49.898438c-4.425781-7.339844-11.035156-13.210938-19.09375-16.753907-11.65625-5.125-24.84375-4.742187-36.183594 1.042969-15.863281 8.089844-24.972656 25.363281-22.664062 42.972656 5.332031 40.761719 6.222656 95.613282 6.253906 97.578125.011719 48.820313 19.035156 94.707031 53.566406 129.222657 34.523438 34.507812 80.40625 53.507812 129.21875 53.507812h.09375c100.734375-.050781 182.691407-82.800781 182.691407-184.464844v-153.167968c0-23.355469-19-42.355469-42.351563-42.355469zm0 0"/><path d="m127.828125 331.847656c-3.445313-2.328125-8.125-1.421875-10.457031 2.023438-9.894532 14.652344-15.125 31.773437-15.125 49.519531 0 48.828125 39.722656 88.550781 88.550781 88.550781s88.554687-39.722656 88.554687-88.550781-39.726562-88.554687-88.554687-88.554687c-12.089844 0-23.8125 2.394531-34.84375 7.121093-3.824219 1.636719-5.59375 6.066407-3.957031 9.890625 1.636718 3.820313 6.066406 5.59375 9.890625 3.957032 9.144531-3.917969 18.871093-5.90625 28.910156-5.90625 40.523437 0 73.492187 32.96875 73.492187 73.492187s-32.96875 73.492187-73.492187 73.492187-73.492187-32.96875-73.492187-73.492187c0-14.730469 4.339843-28.9375 12.550781-41.085937 2.328125-3.449219 1.421875-8.128907-2.027344-10.457032zm0 0"/><path d="m190.796875 349.515625c4.160156 0 7.53125-3.371094 7.53125-7.53125v-13.355469c0-4.160156-3.371094-7.53125-7.53125-7.53125-4.15625 0-7.53125 3.371094-7.53125 7.53125v13.355469c0 4.160156 3.371094 7.53125 7.53125 7.53125zm0 0"/><path d="m190.796875 417.261719c-4.15625 0-7.53125 3.371093-7.53125 7.53125v13.355469c0 4.160156 3.375 7.53125 7.53125 7.53125 4.160156 0 7.53125-3.371094 7.53125-7.53125v-13.355469c0-4.160157-3.371094-7.53125-7.53125-7.53125zm0 0"/><path d="m176.617188 343.765625-6.675782-11.566406c-2.082031-3.601563-6.6875-4.835938-10.289062-2.757813-3.601563 2.078125-4.835938 6.683594-2.757813 10.289063l6.679688 11.566406c1.394531 2.414063 3.925781 3.765625 6.527343 3.765625 1.277344 0 2.574219-.324219 3.757813-1.007812 3.605469-2.082032 4.839844-6.6875 2.757813-10.289063zm0 0"/><path d="m204.980469 423.011719 6.675781 11.566406c1.394531 2.417969 3.925781 3.769531 6.53125 3.769531 1.277344 0 2.570312-.328125 3.757812-1.011718 3.601563-2.078126 4.835938-6.683594 2.757813-10.289063l-6.679687-11.566406c-2.078126-3.601563-6.683594-4.835938-10.289063-2.757813-3.601563 2.082032-4.835937 6.6875-2.753906 10.289063zm0 0"/><path d="m136.851562 352.242188c-2.078124 3.601562-.847656 8.207031 2.757813 10.289062l11.566406 6.675781c1.1875.6875 2.480469 1.011719 3.757813 1.011719 2.605468 0 5.136718-1.351562 6.53125-3.769531 2.078125-3.601563.84375-8.207031-2.757813-10.285157l-11.566406-6.679687c-3.605469-2.078125-8.210937-.84375-10.289063 2.757813zm0 0"/><path d="m241.988281 404.246094-11.566406-6.679688c-3.601563-2.078125-8.207031-.84375-10.289063 2.757813-2.078124 3.601562-.84375 8.207031 2.757813 10.289062l11.566406 6.679688c1.1875.683593 2.480469 1.011719 3.757813 1.011719 2.605468 0 5.136718-1.351563 6.53125-3.769532 2.078125-3.601562.84375-8.207031-2.757813-10.289062zm0 0"/><path d="m128.503906 383.386719c0 4.160156 3.375 7.53125 7.53125 7.53125h13.359375c4.15625 0 7.53125-3.371094 7.53125-7.53125 0-4.15625-3.375-7.53125-7.53125-7.53125h-13.359375c-4.15625 0-7.53125 3.375-7.53125 7.53125zm0 0"/><path d="m253.089844 383.386719c0-4.15625-3.371094-7.53125-7.53125-7.53125h-13.355469c-4.160156 0-7.53125 3.375-7.53125 7.53125 0 4.160156 3.371094 7.53125 7.53125 7.53125h13.355469c4.160156.003906 7.53125-3.371094 7.53125-7.53125zm0 0"/><path d="m161.460938 400.324219c-2.078126-3.601563-6.6875-4.835938-10.285157-2.757813l-11.566406 6.679688c-3.605469 2.082031-4.835937 6.6875-2.757813 10.289062 1.394532 2.414063 3.925782 3.765625 6.527344 3.765625 1.277344 0 2.574219-.324219 3.757813-1.011719l11.570312-6.675781c3.601563-2.082031 4.835938-6.6875 2.753907-10.289062zm0 0"/><path d="m234.457031 349.484375-11.566406 6.679687c-3.601563 2.078126-4.835937 6.683594-2.757813 10.289063 1.394532 2.414063 3.925782 3.765625 6.53125 3.765625 1.277344 0 2.570313-.324219 3.757813-1.007812l11.566406-6.679688c3.601563-2.078125 4.835938-6.683594 2.757813-10.289062-2.082032-3.601563-6.6875-4.835938-10.289063-2.757813zm0 0"/><path d="m159.652344 437.335938c1.1875.683593 2.480468 1.007812 3.757812 1.007812 2.605469 0 5.136719-1.351562 6.53125-3.765625l6.675782-11.566406c2.082031-3.601563.847656-8.207031-2.753907-10.289063-3.605469-2.082031-8.210937-.84375-10.289062 2.757813l-6.679688 11.566406c-2.078125 3.601563-.84375 8.210937 2.757813 10.289063zm0 0"/><path d="m221.945312 329.441406c-3.605468-2.078125-8.207031-.84375-10.289062 2.757813l-6.675781 11.566406c-2.082031 3.601563-.847657 8.207031 2.753906 10.289063 1.1875.683593 2.480469 1.007812 3.761719 1.007812 2.601562 0 5.132812-1.347656 6.527344-3.765625l6.679687-11.566406c2.078125-3.601563.84375-8.210938-2.757813-10.289063zm0 0"/><path d="m200.386719 383.386719c0 5.296875-4.292969 9.589843-9.589844 9.589843-5.292969 0-9.585937-4.292968-9.585937-9.589843 0-5.292969 4.292968-9.585938 9.585937-9.585938 5.296875 0 9.589844 4.292969 9.589844 9.585938zm0 0"/></svg>