<svg height="512pt" viewBox="0 0 512 512.001" width="512pt" xmlns="http://www.w3.org/2000/svg"><g fill="#ffc143"><path d="m166.167969 149.085938c0 12.597656-10.210938 22.8125-22.8125 22.8125-12.601563 0-22.8125-10.214844-22.8125-22.8125 0-12.601563 10.210937-22.816407 22.8125-22.816407 12.601562 0 22.8125 10.214844 22.8125 22.816407zm0 0"/><path d="m391.460938 149.085938c0 12.597656-10.214844 22.8125-22.816407 22.8125-12.597656 0-22.8125-10.214844-22.8125-22.8125 0-12.601563 10.214844-22.816407 22.8125-22.816407 12.601563 0 22.816407 10.214844 22.816407 22.816407zm0 0"/><path d="m166.167969 362.914062c0 12.601563-10.210938 22.816407-22.8125 22.816407-12.601563 0-22.8125-10.214844-22.8125-22.816407 0-12.597656 10.210937-22.8125 22.8125-22.8125 12.601562 0 22.8125 10.214844 22.8125 22.8125zm0 0"/><path d="m391.460938 362.914062c0 12.601563-10.214844 22.816407-22.816407 22.816407-12.597656 0-22.8125-10.214844-22.8125-22.816407 0-12.597656 10.214844-22.8125 22.8125-22.8125 12.601563 0 22.816407 10.214844 22.816407 22.8125zm0 0"/></g><path d="m166.171875 149.082031c0 12.601563-10.21875 22.820313-22.820313 22.820313-7.492187 0-14.144531-3.617188-18.3125-9.207032.960938.128907 1.933594.191407 2.925782.191407 12.601562 0 22.820312-10.21875 22.820312-22.820313 0-5.101562-1.671875-9.808594-4.5-13.605468 11.222656 1.441406 19.886719 11.019531 19.886719 22.621093zm0 0" fill="#ffb509"/><path d="m391.460938 149.082031c0 12.601563-10.21875 22.820313-22.808594 22.820313-7.503906 0-14.15625-3.617188-18.324219-9.207032.960937.128907 1.945313.191407 2.933594.191407 12.59375 0 22.8125-10.21875 22.8125-22.820313 0-5.101562-1.671875-9.808594-4.5-13.605468 11.210937 1.433593 19.886719 11.019531 19.886719 22.621093zm0 0" fill="#ffb509"/><path d="m166.171875 362.917969c0 12.59375-10.21875 22.8125-22.820313 22.8125-7.492187 0-14.144531-3.617188-18.3125-9.207031.960938.128906 1.933594.191406 2.925782.191406 12.601562 0 22.820312-10.21875 22.820312-22.8125 0-5.097656-1.671875-9.816406-4.5-13.613282 11.222656 1.441407 19.886719 11.019532 19.886719 22.628907zm0 0" fill="#ffb509"/><path d="m391.460938 362.917969c0 12.59375-10.21875 22.8125-22.808594 22.8125-7.503906 0-14.15625-3.617188-18.324219-9.207031.960937.128906 1.945313.191406 2.933594.191406 12.59375 0 22.8125-10.21875 22.8125-22.8125 0-5.097656-1.671875-9.816406-4.5-13.613282 11.210937 1.433594 19.886719 11.019532 19.886719 22.628907zm0 0" fill="#ffb509"/><path d="m496.722656 223.71875h-208.441406v-134.652344c0-4.289062 3.476562-7.761718 7.765625-7.761718h199.378906c4.289063 0 7.765625-3.480469 7.765625-7.765626v-8.765624c0-31.625-25.636718-57.261719-57.257812-57.261719h-214.898438c-4.289062 0-7.765625 3.476562-7.765625 7.765625v208.441406h-134.199219c-4.289062 0-7.765624-3.476562-7.765624-7.765625v-200.675781c0-4.289063-3.476563-7.765625-7.765626-7.765625h-8.765624c-31.625 0-57.261719 25.636719-57.261719 57.261719v216.191406c0 4.289062 3.480469 7.765625 7.765625 7.765625h207.992187v140.898437c0 4.289063-3.476562 7.765625-7.765625 7.765625h-149.851562c-31.625 0-57.261719 25.636719-57.261719 57.261719v2.066406c0 4.289063 3.480469 7.765625 7.765625 7.765625h264.359375c4.289063 0 7.765625-3.476562 7.765625-7.765625v-207.992187h141.347656c4.289063 0 7.765625 3.476562 7.765625 7.765625v200.226562c0 4.289063 3.476563 7.761719 7.765625 7.761719h2.066406c31.625 0 57.261719-25.632813 57.261719-57.257813v-215.742187c0-4.289063-3.476562-7.765625-7.765625-7.765625zm0 0" fill="#ff4343"/><path d="m409.191406 7.511719h36.746094c31.613281 0 57.25 25.632812 57.25 57.261719v8.761718c0 4.289063-3.476562 7.765625-7.765625 7.765625h-32.367187c4.289062 0 7.765624-3.476562 7.765624-7.765625v-8.761718c0-31.628907-30.003906-57.261719-61.628906-57.261719zm0 0" fill="#f72c2c"/><path d="m504.492188 231.488281v215.742188c0 31.625-25.636719 57.257812-57.261719 57.257812h-2.066407c-3.265624 0-6.058593-2.011719-7.210937-4.855469 20.117187-8.867187 34.160156-28.992187 34.160156-52.402343v-215.742188c0-4.289062-3.476562-7.765625-7.765625-7.765625h32.378906c4.289063 0 7.765626 3.476563 7.765626 7.765625zm0 0" fill="#f72c2c"/><path d="m496.722656 216.207031h-200.929687v-127.140625c0-.136718.113281-.25.253906-.25h199.378906c8.425781 0 15.28125-6.855468 15.28125-15.28125v-8.761718c0-35.714844-29.058593-64.773438-64.773437-64.773438h-214.898438c-8.425781 0-15.277344 6.855469-15.277344 15.277344v58.734375c0 4.148437 3.363282 7.511719 7.511719 7.511719 4.148438 0 7.511719-3.363282 7.511719-7.511719v-58.734375c0-.136719.113281-.25.253906-.25h214.894532c27.433593 0 49.746093 22.316406 49.746093 49.746094v8.765624c0 .136719-.109375.25-.25.25h-199.378906c-8.425781 0-15.28125 6.855469-15.28125 15.28125v134.648438c0 4.148438 3.363281 7.515625 7.515625 7.515625h208.441406c.140625 0 .25.113281.25.25v215.742187c0 27.429688-22.316406 49.746094-49.746094 49.746094h-2.066406c-.136718 0-.25-.113281-.25-.25v-200.226562c0-8.425782-6.855468-15.28125-15.28125-15.28125h-25.363281c-4.152344 0-7.515625 3.363281-7.515625 7.515625 0 4.148437 3.367188 7.511719 7.515625 7.511719h25.363281c.140625 0 .253906.113281.253906.25v200.226562c0 8.425781 6.855469 15.28125 15.277344 15.28125h2.066406c35.71875 0 64.773438-29.058594 64.773438-64.773438v-215.742187c0-8.425781-6.851562-15.277344-15.277344-15.277344zm0 0"/><path d="m366.195312 288.730469c0-4.148438-3.363281-7.511719-7.511718-7.511719h-70.402344c-4.152344 0-7.515625 3.363281-7.515625 7.511719v207.992187c0 .136719-.109375.25-.25.25h-264.359375c-.136719 0-.25-.113281-.25-.25v-2.070312c0-27.429688 22.316406-49.746094 49.746094-49.746094h149.851562c8.425782 0 15.28125-6.851562 15.28125-15.277344v-140.898437c0-4.152344-3.367187-7.515625-7.515625-7.515625h-207.992187c-.136719 0-.25-.113282-.25-.25v-216.191406c0-27.429688 22.316406-49.746094 49.746094-49.746094h8.765624c.136719 0 .25.113281.25.25v200.675781c0 8.425781 6.855469 15.277344 15.28125 15.277344h134.199219c4.148438 0 7.515625-3.363281 7.515625-7.511719v-102.957031c0-4.148438-3.367187-7.515625-7.515625-7.515625-4.148437 0-7.511719 3.367187-7.511719 7.515625v95.445312h-126.6875c-.140624 0-.253906-.113281-.253906-.253906v-200.675781c0-8.421875-6.855468-15.277344-15.277344-15.277344h-8.765624c-35.714844 0-64.773438 29.058594-64.773438 64.773438v216.191406c0 8.425781 6.855469 15.277344 15.277344 15.277344h200.480468v133.386718c0 .140625-.113281.253906-.253906.253906h-149.851562c-35.714844 0-64.773438 29.054688-64.773438 64.773438v2.066406c0 8.425782 6.855469 15.277344 15.28125 15.277344h264.355469c8.425781 0 15.28125-6.851562 15.28125-15.277344v-200.480468h62.886719c4.148437 0 7.511718-3.363282 7.511718-7.511719zm0 0"/><path d="m143.355469 179.410156c16.722656 0 30.328125-13.601562 30.328125-30.324218 0-16.722657-13.605469-30.328126-30.328125-30.328126-16.722657 0-30.328125 13.605469-30.328125 30.328126 0 16.722656 13.605468 30.324218 30.328125 30.324218zm0-45.625c8.4375 0 15.300781 6.863282 15.300781 15.300782s-6.863281 15.300781-15.300781 15.300781-15.300781-6.867188-15.300781-15.300781c0-8.4375 6.863281-15.300782 15.300781-15.300782zm0 0"/><path d="m338.320312 149.085938c0 16.722656 13.601563 30.324218 30.324219 30.324218 16.722657 0 30.328125-13.601562 30.328125-30.324218 0-16.722657-13.605468-30.328126-30.328125-30.328126-16.722656 0-30.324219 13.605469-30.324219 30.328126zm45.625 0c0 8.4375-6.863281 15.300781-15.300781 15.300781-8.433593 0-15.300781-6.867188-15.300781-15.300781 0-8.4375 6.863281-15.300782 15.300781-15.300782s15.300781 6.863282 15.300781 15.300782zm0 0"/><path d="m173.683594 362.914062c0-16.722656-13.605469-30.324218-30.328125-30.324218-16.722657 0-30.328125 13.601562-30.328125 30.324218 0 16.722657 13.605468 30.328126 30.328125 30.328126 16.722656 0 30.328125-13.605469 30.328125-30.328126zm-45.628906 0c0-8.4375 6.863281-15.300781 15.300781-15.300781s15.300781 6.867188 15.300781 15.300781c0 8.4375-6.863281 15.300782-15.300781 15.300782s-15.300781-6.863282-15.300781-15.300782zm0 0"/><path d="m368.644531 332.589844c-16.722656 0-30.324219 13.601562-30.324219 30.324218 0 16.722657 13.601563 30.328126 30.324219 30.328126 16.722657 0 30.328125-13.605469 30.328125-30.328126 0-16.722656-13.605468-30.324218-30.328125-30.324218zm0 45.625c-8.4375 0-15.300781-6.863282-15.300781-15.300782 0-8.433593 6.863281-15.296874 15.300781-15.296874s15.300781 6.863281 15.300781 15.296874c0 8.4375-6.863281 15.300782-15.300781 15.300782zm0 0"/></svg>