<svg height="512pt" viewBox="-48 0 512 512" width="512pt" xmlns="http://www.w3.org/2000/svg"><path d="m67.707031 7.488281v430.214844h-26.8125c-9.222656 0-17.574219 3.742187-23.621093 9.789063-6.039063 6.050781-9.78125 14.398437-9.78125 23.617187v-447.257813c0-9.039062 7.328124-16.363281 16.363281-16.363281zm0 0" fill="#00915d"/><path d="m43.054688 7.488281h24.652343v430.214844h-24.652343zm0 0" fill="#006841"/><path d="m391.246094 504.511719h-350.355469c-18.445313 0-33.402344-14.957031-33.402344-33.402344 0-18.449219 14.957031-33.40625 33.402344-33.40625h366.714844v50.445313c.003906 9.039062-7.324219 16.363281-16.359375 16.363281zm0 0" fill="#efe2dd"/><path d="m407.605469 437.703125v50.445313c0 9.042968-7.320313 16.363281-16.363281 16.363281h-37.089844c9.042968 0 16.363281-7.320313 16.363281-16.363281v-50.445313zm0 0" fill="#e1d3ce"/><path d="m407.609375 437.707031h-339.902344v-430.21875h323.535157c9.039062 0 16.363281 7.324219 16.363281 16.363281v413.855469zm0 0" fill="#57bf93"/><path d="m407.605469 23.851562v413.851563h-37.089844v-413.851563c0-9.042968-7.332031-16.363281-16.363281-16.363281h37.089844c9.042968 0 16.363281 7.320313 16.363281 16.363281zm0 0" fill="#1fb480"/><path d="m351.011719 85.222656h-7.121094c-8.832031 0-15.992187-7.160156-15.992187-15.992187v-6.183594c0-2.757813-2.234376-4.992187-4.992188-4.992187h-171.082031c-2.753907 0-4.992188 2.234374-4.992188 4.992187v6.183594c0 8.832031-7.160156 15.992187-15.992187 15.992187h-7.121094c-2.757812 0-4.992188 2.234375-4.992188 4.992188v262.410156c0 2.757812 2.234376 4.992188 4.992188 4.992188h7.121094c8.832031 0 15.992187 7.160156 15.992187 15.996093v6.179688c0 2.757812 2.238281 4.992187 4.992188 4.992187h171.082031c2.753906 0 4.992188-2.234375 4.992188-4.992187v-6.179688c0-8.835937 7.160156-15.996093 15.992187-15.996093h7.121094c2.757812 0 4.992187-2.234376 4.992187-4.992188v-262.410156c0-2.757813-2.234375-4.992188-4.992187-4.992188zm0 0" fill="#efe2dd"/><path d="m351.011719 85.222656h-7.121094c-8.832031 0-15.992187-7.160156-15.992187-15.992187v-6.183594c0-2.757813-2.234376-4.992187-4.992188-4.992187h-171.082031c-2.753907 0-4.992188 2.234374-4.992188 4.992187v6.183594c0 8.832031-7.160156 15.992187-15.992187 15.992187h-7.121094c-2.757812 0-4.992188 2.234375-4.992188 4.992188v262.410156c0 2.757812 2.234376 4.992188 4.992188 4.992188h7.121094c8.832031 0 15.992187 7.160156 15.992187 15.996093v6.179688c0 2.757812 2.238281 4.992187 4.992188 4.992187h171.082031c2.753906 0 4.992188-2.234375 4.992188-4.992187v-6.179688c0-8.835937 7.160156-15.996093 15.992187-15.996093h7.121094c2.757812 0 4.992187-2.234376 4.992187-4.992188v-262.410156c0-2.757813-2.234375-4.992188-4.992187-4.992188zm0 0" fill="#efe2dd"/><path d="m356.007812 90.210938v262.410156c0 2.765625-2.238281 4.992187-4.992187 4.992187h-7.128906c-8.828125 0-15.984375 7.167969-15.984375 15.996094v6.1875c0 2.757813-2.238282 4.992187-4.992188 4.992187h-17.222656v-28.683593c0-7.847657 5.910156-14.683594 13.738281-15.234375.347657-.019532.707031-.027344 1.058594-.027344h6.796875c2.628906 0 4.765625-2.136719 4.765625-4.765625v-229.316406c0-2.625-2.136719-4.761719-4.765625-4.761719h-6.796875c-.351563 0-.710937-.007812-1.058594-.027344-7.828125-.550781-13.738281-7.390625-13.738281-15.238281v-28.683594h17.222656c2.753906 0 4.992188 2.238281 4.992188 4.992188v6.191406c0 8.824219 7.15625 15.984375 15.984375 15.984375h7.128906c2.753906 0 4.992187 2.234375 4.992187 4.992188zm0 0" fill="#e1d3ce"/><path d="m312.039062 269.863281c-14.785156 24.121094-41.390624 40.117188-71.671874 39.789063-45.675782-.492188-82.210938-37.710938-82.210938-83.730469 0-37.050781 23.886719-68.484375 56.980469-79.515625 1.597656-.53125 3.050781 1.128906 2.324219 2.65625-5.253907 11.089844-8.15625 23.527344-8.058594 36.660156.339844 46.105469 37.355468 83.109375 83.117187 83.109375 6.003907 0 11.855469-.640625 17.496094-1.863281 1.644531-.355469 2.90625 1.453125 2.023437 2.894531zm0 0" fill="#ffc143"/><path d="m312.039062 269.867188c-3.054687 4.992187-6.628906 9.632812-10.625 13.859374-4.652343.707032-9.414062 1.066407-14.265624 1.066407-53.304688 0-96.414063-43.101563-96.8125-96.800781-.078126-11.171876 1.695312-21.90625 5.050781-31.898438 6.070312-4.0625 12.699219-7.339844 19.75-9.683594 1.597656-.53125 3.054687 1.125 2.324219 2.652344-5.25 11.09375-8.15625 23.523438-8.054688 36.660156.339844 46.105469 37.359375 83.105469 83.113281 83.105469 6.011719 0 11.859375-.636719 17.5-1.855469 1.640625-.359375 2.90625 1.445313 2.019531 2.894532zm0 0" fill="#ffb509"/><path d="m282.648438 147.453125 8.496093 17.347656c.378907.769531 1.105469 1.304688 1.949219 1.425781l19.003906 2.78125c2.121094.3125 2.96875 2.941407 1.433594 4.449219l-13.75 13.503907c-.609375.597656-.890625 1.464843-.746094 2.308593l3.246094 19.066407c.363281 2.132812-1.855469 3.753906-3.753906 2.75l-16.996094-9.003907c-.753906-.398437-1.652344-.398437-2.410156 0l-16.992188 9.003907c-1.902344 1.003906-4.121094-.621094-3.757812-2.75l3.246094-19.066407c.144531-.84375-.132813-1.710937-.742188-2.308593l-13.75-13.503907c-1.539062-1.507812-.691406-4.136719 1.433594-4.449219l19-2.78125c.84375-.121093 1.574218-.65625 1.949218-1.425781l8.5-17.347656c.949219-1.9375 3.691407-1.9375 4.640626 0zm0 0" fill="#ffc143"/><path d="m299.777344 186.960938c-.609375.601562-.886719 1.460937-.738282 2.308593l3.246094 19.066407c.359375 2.128906-1.859375 3.753906-3.753906 2.746093l-10.554688-5.578125-3.773437-22.144531c-.179687-1.070313.167969-2.167969.949219-2.925781l13.617187-13.378906 13.328125 1.957031c2.117188.308593 2.964844 2.933593 1.4375 4.441406zm0 0" fill="#ffb509"/><path d="m391.246094 0h-82.863282c-4.136718 0-7.488281 3.351562-7.488281 7.488281s3.351563 7.488281 7.488281 7.488281h82.863282c4.890625 0 8.875 3.980469 8.875 8.875v406.367188h-324.921875v-415.242188h185.261719c4.136718 0 7.488281-3.351562 7.488281-7.488281s-3.351563-7.488281-7.488281-7.488281h-236.605469c-13.152344 0-23.85156275 10.699219-23.85156275 23.851562v447.066407c0 .0625-.00390625.125-.00390625.191406 0 22.546875 18.34375 40.890625 40.890625 40.890625h350.355469c13.148437 0 23.851562-10.699219 23.851562-23.851562v-464.296876c0-13.152343-10.703125-23.851562-23.851562-23.851562zm-376.265625 23.851562c0-4.894531 3.980469-8.875 8.875-8.875h36.367187v415.238282c-8.5625 0-17.21875-.816406-25.6875.5-7.183594 1.117187-13.898437 4.109375-19.554687 8.757812zm385.140625 439.769532h-348.445313c-4.136719 0-7.488281 3.351562-7.488281 7.488281 0 4.132813 3.351562 7.488281 7.488281 7.488281h348.445313v9.550782c0 4.894531-3.980469 8.875-8.875 8.875h-350.355469c-14.445313 0-27.832031-13.292969-25.8125-28.183594 1.796875-13.25 11.75-23.648438 25.8125-23.648438h26.816406 332.414063zm0 0"/><path d="m322.90625 50.566406h-171.082031c-6.878907 0-12.476563 5.597656-12.476563 12.480469v6.183594c0 4.6875-3.816406 8.503906-8.507812 8.503906h-7.121094c-6.882812 0-12.480469 5.597656-12.480469 12.480469v262.410156c0 6.882812 5.597657 12.480469 12.480469 12.480469h7.121094c4.6875 0 8.507812 3.816406 8.507812 8.507812v6.179688c0 6.882812 5.597656 12.480469 12.476563 12.480469h171.082031c6.878906 0 12.476562-5.597657 12.476562-12.480469v-6.179688c0-4.691406 3.816407-8.507812 8.507813-8.507812h7.121094c6.011719 0 12.480469-4.53125 12.480469-14.476563v-100.121094c0-4.136718-3.351563-7.488281-7.488282-7.488281-4.136718 0-7.488281 3.351563-7.488281 7.488281v99.621094h-4.625c-12.949219 0-23.480469 10.535156-23.480469 23.484375v3.683594h-166.089844v-3.683594c0-12.949219-10.53125-23.484375-23.480468-23.484375h-4.625v-257.417968h4.625c12.949218 0 23.480468-10.535157 23.480468-23.480469v-3.6875h166.089844v3.6875c0 12.945312 10.53125 23.480469 23.480469 23.480469h4.625v110.375c0 4.136718 3.351563 7.488281 7.488281 7.488281 4.136719 0 7.488282-3.351563 7.488282-7.488281v-112.871094c0-6.882813-5.597657-12.480469-12.480469-12.480469h-7.121094c-4.691406 0-8.507813-3.816406-8.507813-8.503906v-6.183594c.003907-6.878906-5.597656-12.480469-12.476562-12.480469zm0 0"/><path d="m222.769531 141.992188c-2.5-2.824219-6.421875-3.878907-10-2.6875-37.144531 12.375-62.101562 47.183593-62.101562 86.617187 0 24.230469 9.277343 47.027344 26.121093 64.183594 16.863282 17.175781 39.410157 26.773437 63.496094 27.035156.335938.003906.671875.003906 1.011719.003906 31.671875 0 60.449219-16.15625 77.125-43.367187 1.976563-3.222656 1.839844-7.296875-.347656-10.378906-2.183594-3.074219-5.96875-4.542969-9.644531-3.75-5.1875 1.125-10.539063 1.695312-15.90625 1.695312-20.136719 0-39.0625-7.839844-53.300782-22.070312-14.25-14.25-22.183594-33.285157-22.332031-53.605469-.085937-11.703125 2.382813-22.9375 7.339844-33.394531 1.617187-3.414063 1.046875-7.453126-1.460938-10.28125zm5.863281 107.871093c17.066407 17.0625 39.753907 26.457031 63.890626 26.457031 1.898437 0 3.800781-.058593 5.695312-.179687-14.425781 16.71875-35.21875 26.230469-57.769531 26.027344-20.097657-.21875-38.910157-8.226563-52.972657-22.554688-14.078124-14.339843-21.832031-33.40625-21.832031-53.691406 0-28.628906 15.714844-54.339844 40.152344-67.382813-2.648437 8.761719-3.953125 17.878907-3.882813 27.238282.179688 24.277344 9.671876 47.039062 26.71875 64.085937zm0 0"/><path d="m321.300781 168.449219c-1.199219-3.664063-4.308593-6.289063-8.121093-6.847657l-16.445313-2.40625-7.363281-15.035156c-1.707032-3.484375-5.171875-5.648437-9.042969-5.648437-3.875 0-7.339844 2.164062-9.046875 5.648437l-7.363281 15.035156-16.445313 2.40625c-3.8125.558594-6.925781 3.183594-8.121094 6.851563-1.199218 3.675781-.234374 7.640625 2.523438 10.347656l11.929688 11.71875-2.820313 16.566407c-.648437 3.824218.898437 7.609374 4.039063 9.878906 1.761718 1.273437 3.816406 1.917968 5.886718 1.917968 1.609375 0 3.226563-.390624 4.71875-1.179687l14.695313-7.78125 14.695312 7.78125c3.417969 1.808594 7.480469 1.523437 10.609375-.738281 3.136719-2.273438 4.683594-6.058594 4.03125-9.882813l-2.816406-16.5625 11.933594-11.71875c2.757812-2.710937 3.722656-6.675781 2.523437-10.351562zm-26.769531 13.171875c-2.355469 2.316406-3.433594 5.648437-2.875 8.90625l1.578125 9.28125-8.199219-4.34375c-1.472656-.78125-3.09375-1.171875-4.710937-1.171875-1.617188 0-3.234375.390625-4.707031 1.171875l-8.199219 4.34375 1.582031-9.289063c.554688-3.261719-.523438-6.589843-2.882812-8.902343l-6.742188-6.625 9.265625-1.355469c3.289063-.480469 6.125-2.550781 7.589844-5.542969l4.097656-8.355469 4.089844 8.351563c1.464843 2.992187 4.300781 5.066406 7.589843 5.546875l9.273438 1.355469zm0 0"/></svg>