<svg height="512pt" viewBox="0 -34 512.001 512" width="512pt" xmlns="http://www.w3.org/2000/svg"><path d="m121.171875 72.300781h268.707031v299.855469h-268.707031zm0 0" fill="#efe2dd"/><path d="m363.992188 72.300781h25.886718v299.855469h-25.886718zm0 0" fill="#e1d3ce"/><path d="m50.699219 19.402344h52.222656v40.996094h-52.222656zm0 0" fill="#a87a52"/><path d="m401.59375 72.300781h-292.136719c-3.609375 0-6.535156-2.925781-6.535156-6.535156v-51.730469c0-3.605468 2.925781-6.53125 6.535156-6.53125h292.136719c3.609375 0 6.535156 2.925782 6.535156 6.53125v51.730469c0 3.609375-2.925781 6.535156-6.535156 6.535156zm0 0" fill="#ffc143"/><path d="m401.59375 72.300781h-23.40625v-64.796875h23.40625c3.609375 0 6.535156 2.925782 6.535156 6.53125v51.730469c0 3.609375-2.925781 6.535156-6.535156 6.535156zm0 0" fill="#ffb509"/><path d="m409.078125 19.402344h52.222656v40.996094h-52.222656zm0 0" fill="#a87a52"/><path d="m504.5 39.902344c0 17.890625-14.507812 32.398437-32.398438 32.398437-17.894531 0-32.398437-14.507812-32.398437-32.398437 0-17.894532 14.503906-32.398438 32.398437-32.398438 17.890626 0 32.398438 14.503906 32.398438 32.398438zm0 0" fill="#a87a52"/><path d="m504.503906 39.90625c0 17.890625-14.511718 32.394531-32.40625 32.394531-6.429687 0-12.421875-1.871093-17.460937-5.101562 16.679687-1.328125 29.792969-15.28125 29.792969-32.292969 0-11.464844-5.960938-21.546875-14.941407-27.304688.859375-.0625 1.730469-.101562 2.609375-.101562 17.894532 0 32.40625 14.511719 32.40625 32.40625zm0 0" fill="#906846"/><path d="m72.296875 39.902344c0 17.890625-14.503906 32.398437-32.398437 32.398437-17.890626 0-32.398438-14.507812-32.398438-32.398437 0-17.894532 14.507812-32.398438 32.398438-32.398438 17.894531 0 32.398437 14.503906 32.398437 32.398438zm0 0" fill="#a87a52"/><path d="m72.296875 39.90625c0 17.890625-14.511719 32.394531-32.402344 32.394531-6.433593 0-12.421875-1.871093-17.464843-5.101562 16.683593-1.332031 29.796874-15.28125 29.796874-32.296875 0-11.460938-5.960937-21.542969-14.945312-27.304688.863281-.058594 1.730469-.097656 2.613281-.097656 17.890625 0 32.402344 14.511719 32.402344 32.40625zm0 0" fill="#906846"/><path d="m50.699219 384.28125h52.222656v40.996094h-52.222656zm0 0" fill="#a87a52"/><path d="m401.59375 437.175781h-292.136719c-3.609375 0-6.535156-2.925781-6.535156-6.535156v-51.726563c0-3.609374 2.925781-6.535156 6.535156-6.535156h292.136719c3.609375 0 6.535156 2.925782 6.535156 6.535156v51.726563c0 3.609375-2.925781 6.535156-6.535156 6.535156zm0 0" fill="#ffc143"/><path d="m401.59375 437.175781h-23.40625v-64.796875h23.40625c3.609375 0 6.535156 2.925782 6.535156 6.535156v51.726563c0 3.609375-2.925781 6.535156-6.535156 6.535156zm0 0" fill="#ffb509"/><path d="m409.078125 384.28125h52.222656v40.996094h-52.222656zm0 0" fill="#a87a52"/><path d="m504.5 404.777344c0 17.894531-14.507812 32.398437-32.398438 32.398437-17.894531 0-32.398437-14.503906-32.398437-32.398437 0-17.894532 14.503906-32.398438 32.398437-32.398438 17.890626 0 32.398438 14.503906 32.398438 32.398438zm0 0" fill="#a87a52"/><path d="m504.5 404.78125c0 17.890625-14.515625 32.394531-32.40625 32.394531-6.433594 0-12.421875-1.871093-17.464844-5.101562 16.683594-1.328125 29.796875-15.28125 29.796875-32.292969 0-11.464844-5.960937-21.546875-14.941406-27.304688.859375-.0625 1.726563-.101562 2.609375-.101562 17.890625 0 32.40625 14.511719 32.40625 32.40625zm0 0" fill="#906846"/><path d="m72.296875 404.777344c0 17.894531-14.503906 32.398437-32.398437 32.398437-17.890626 0-32.398438-14.503906-32.398438-32.398437 0-17.894532 14.507812-32.398438 32.398438-32.398438 17.894531 0 32.398437 14.503906 32.398437 32.398438zm0 0" fill="#a87a52"/><path d="m72.296875 404.78125c0 17.890625-14.511719 32.394531-32.402344 32.394531-6.433593 0-12.421875-1.871093-17.464843-5.101562 16.683593-1.328125 29.796874-15.28125 29.796874-32.292969 0-11.464844-5.960937-21.546875-14.945312-27.304688.863281-.0625 1.730469-.101562 2.613281-.101562 17.890625 0 32.402344 14.511719 32.402344 32.40625zm0 0" fill="#906846"/><path d="m472.101562 364.878906c-11.101562 0-21.152343 4.558594-28.394531 11.898438h-28.257812c-1.035157-6.726563-6.84375-11.898438-13.855469-11.898438h-4.214844v-68.527344c0-4.144531-3.359375-7.503906-7.5-7.503906-4.144531 0-7.5 3.359375-7.5 7.503906v68.300782h-253.707031v-284.851563h253.707031v170.496094c0 4.144531 3.359375 7.5 7.5 7.5 4.144532 0 7.5-3.355469 7.5-7.5v-170.496094h4.214844c7.011719 0 12.820312-5.171875 13.855469-11.898437h28.261719c7.238281 7.339844 17.289062 11.898437 28.390624 11.898437 22 0 39.898438-17.898437 39.898438-39.898437 0-22.003906-17.898438-39.902344-39.898438-39.902344-11.101562 0-21.152343 4.558594-28.390624 11.902344h-28.261719c-1.03125-6.730469-6.839844-11.902344-13.855469-11.902344h-292.136719c-7.011719 0-12.824219 5.175781-13.855469 11.902344h-27.308593c-7.242188-7.34375-17.292969-11.902344-28.394531-11.902344-22 0-39.898438 17.902344-39.898438 39.902344s17.898438 39.898437 39.898438 39.898437c11.101562 0 21.152343-4.558593 28.394531-11.898437h27.308593c1.035157 6.726562 6.84375 11.898437 13.855469 11.898437h4.210938v285.078125h-4.210938c-7.011719 0-12.824219 5.171875-13.855469 11.898438h-27.308593c-7.242188-7.339844-17.292969-11.898438-28.394531-11.898438-22 0-39.898438 17.898438-39.898438 39.898438s17.898438 39.898437 39.898438 39.898437c11.101562 0 21.152343-4.558593 28.394531-11.898437h27.308593c1.03125 6.726562 6.84375 11.898437 13.855469 11.898437h124.042969c4.140625 0 7.5-3.355469 7.5-7.5s-3.359375-7.5-7.5-7.5h-123.078125v-49.796875h290.207031v49.796875h-121.621094c-4.144531 0-7.503906 3.355469-7.503906 7.5s3.359375 7.5 7.503906 7.5h122.585938c7.011719 0 12.824219-5.171875 13.855469-11.898437h28.257812c7.242188 7.339844 17.292969 11.898437 28.394531 11.898437 22 0 39.898438-17.898437 39.898438-39.898437s-17.898438-39.898438-39.898438-39.898438zm0-349.875c13.726563 0 24.894532 11.167969 24.894532 24.898438 0 13.730468-11.167969 24.898437-24.894532 24.898437-13.730468 0-24.898437-11.167969-24.898437-24.898437 0-13.730469 11.167969-24.898438 24.898437-24.898438zm-55.523437 11.902344h17.808594c-1.410157 4.074219-2.1875 8.445312-2.1875 12.996094 0 4.550781.777343 8.917968 2.1875 12.996094h-17.808594zm-376.679687 37.894531c-13.726563 0-24.894532-11.171875-24.894532-24.898437 0-13.730469 11.167969-24.898438 24.894532-24.898438 13.730468 0 24.898437 11.167969 24.898437 24.898438 0 13.726562-11.167969 24.898437-24.898437 24.898437zm55.523437-11.902343h-17.808594c1.410157-4.078126 2.1875-8.445313 2.1875-12.996094 0-4.550782-.777343-8.921875-2.1875-12.996094h17.804688v25.992188zm-55.523437 376.777343c-13.726563 0-24.894532-11.167969-24.894532-24.898437 0-13.730469 11.167969-24.898438 24.894532-24.898438 13.730468 0 24.898437 11.167969 24.898437 24.898438 0 13.730468-11.167969 24.898437-24.898437 24.898437zm55.523437-11.902343h-17.804687c1.40625-4.078126 2.183593-8.445313 2.183593-12.996094 0-4.550782-.777343-8.921875-2.183593-12.996094h17.804687zm15-352.972657v-49.796875h290.207031v49.796875zm323.964844 352.972657h-17.808594v-25.992188h17.808594c-1.410157 4.078125-2.1875 8.445312-2.1875 12.996094 0 4.550781.777343 8.917968 2.1875 12.996094zm37.714843 11.902343c-13.730468 0-24.898437-11.167969-24.898437-24.898437 0-13.730469 11.167969-24.898438 24.898437-24.898438 13.726563 0 24.894532 11.167969 24.894532 24.898438 0 13.730468-11.167969 24.898437-24.894532 24.898437zm0 0"/><path d="m303.734375 117.863281h-95.46875c-4.144531 0-7.503906 3.359375-7.503906 7.503907 0 4.140624 3.359375 7.5 7.503906 7.5h95.46875c4.144531 0 7.503906-3.359376 7.503906-7.5 0-4.144532-3.359375-7.503907-7.503906-7.503907zm0 0"/><path d="m166.371094 329.316406h81.480468c4.144532 0 7.5-3.355468 7.5-7.5 0-4.144531-3.355468-7.5-7.5-7.5h-81.480468c-4.144532 0-7.503906 3.355469-7.503906 7.5 0 4.144532 3.359374 7.5 7.503906 7.5zm0 0"/><path d="m317.875 314.226562c-4.140625.0625-7.449219 3.46875-7.386719 7.613282.0625 4.101562 3.40625 7.386718 7.496094 7.386718h.117187l24.441407-.367187c4.140625-.0625 7.449219-3.46875 7.386719-7.613281-.0625-4.140625-3.492188-7.476563-7.613282-7.386719zm0 0"/><path d="m342.433594 162.414062c-.03125 0-.0625 0-.09375 0l-30.554688.367188c-4.144531.050781-7.460937 3.449219-7.414062 7.589844.050781 4.113281 3.398437 7.410156 7.5 7.410156h.09375l30.554687-.367188c4.144531-.046874 7.460938-3.445312 7.410157-7.589843-.046876-4.109375-3.398438-7.410157-7.496094-7.410157zm0 0"/><path d="m166.371094 293.257812h62.855468c4.144532 0 7.503907-3.355468 7.503907-7.5 0-4.144531-3.359375-7.5-7.503907-7.5h-62.855468c-4.144532 0-7.503906 3.355469-7.503906 7.5 0 4.144532 3.359374 7.5 7.503906 7.5zm0 0"/><path d="m166.371094 213.929688h47.722656c4.144531 0 7.503906-3.355469 7.503906-7.5 0-4.144532-3.359375-7.5-7.503906-7.5h-47.722656c-4.144532 0-7.503906 3.355468-7.503906 7.5 0 4.144531 3.359374 7.5 7.503906 7.5zm0 0"/><path d="m353.132812 284.773438c.023438-4.144532-3.3125-7.523438-7.457031-7.546876l-77.6875-.46875c-.015625 0-.03125 0-.046875 0-4.121094 0-7.476562 3.328126-7.5 7.453126-.027344 4.144531 3.3125 7.523437 7.457032 7.546874l77.6875.472657h.046874c4.121094 0 7.472657-3.332031 7.5-7.457031zm0 0"/><path d="m275.789062 314.316406c-4.144531 0-7.5 3.355469-7.5 7.5 0 4.144532 3.355469 7.5 7.5 7.5h12.804688c4.140625 0 7.5-3.355468 7.5-7.5 0-4.144531-3.359375-7.5-7.5-7.5zm0 0"/><path d="m342.429688 198.929688h-12.804688c-4.140625 0-7.5 3.355468-7.5 7.5 0 4.144531 3.359375 7.5 7.5 7.5h12.804688c4.144531 0 7.5-3.355469 7.5-7.5 0-4.144532-3.355469-7.5-7.5-7.5zm0 0"/><path d="m240.867188 198.929688c-4.140626 0-7.5 3.355468-7.5 7.5 0 4.144531 3.359374 7.5 7.5 7.5h60.53125c4.140624 0 7.5-3.355469 7.5-7.5 0-4.144532-3.359376-7.5-7.5-7.5zm0 0"/><path d="m166.371094 253.078125h12.800781c4.144531 0 7.503906-3.355469 7.503906-7.5s-3.359375-7.5-7.503906-7.5h-12.800781c-4.144532 0-7.503906 3.355469-7.503906 7.5s3.359374 7.5 7.503906 7.5zm0 0"/><path d="m275.140625 245.578125c0-4.144531-3.359375-7.5-7.5-7.5h-60.53125c-4.140625 0-7.5 3.355469-7.5 7.5s3.359375 7.5 7.5 7.5h60.53125c4.140625 0 7.5-3.355469 7.5-7.5zm0 0"/><path d="m345.628906 238.078125h-47.722656c-4.144531 0-7.503906 3.355469-7.503906 7.5s3.359375 7.5 7.503906 7.5h47.722656c4.144532 0 7.503906-3.355469 7.503906-7.5s-3.359374-7.5-7.503906-7.5zm0 0"/><path d="m158.867188 170.371094c0 4.144531 3.359374 7.5 7.503906 7.5h115.238281c4.140625 0 7.5-3.355469 7.5-7.5 0-4.144532-3.359375-7.5-7.5-7.5h-115.238281c-4.144532 0-7.503906 3.359375-7.503906 7.5zm0 0"/></svg>