<svg height="512pt" viewBox="-62 0 512 512.00097" width="512pt" xmlns="http://www.w3.org/2000/svg"><path d="m232.367188 384.84375h-76.609376s-64.742187 32-84.515624 119.671875h245.644531c-19.773438-87.671875-84.519531-119.671875-84.519531-119.671875zm0 0" fill="#00915d"/><path d="m316.882812 504.515625h-20.464843c-19.78125-87.675781-84.523438-119.667969-84.523438-119.667969h20.476563s64.742187 31.992188 84.511718 119.667969zm0 0" fill="#006841"/><path d="m235.226562 399.746094h-82.324218c-59.007813 0-106.84375-47.832032-106.84375-106.839844v-169.902344h296.007812v169.902344c0 59.007812-47.832031 106.839844-106.839844 106.839844zm0 0" fill="#fed2a4"/><path d="m342.070312 123.003906v169.898438c0 59.015625-47.839843 106.84375-106.84375 106.84375h-22.953124c59.007812 0 106.84375-47.828125 106.84375-106.84375v-169.898438zm0 0" fill="#ffbd86"/><path d="m123.550781 274.785156c0 8.789063-7.125 15.917969-15.917969 15.917969-8.789062 0-15.917968-7.128906-15.917968-15.917969 0-8.792968 7.128906-15.917968 15.917968-15.917968 8.792969 0 15.917969 7.125 15.917969 15.917968zm0 0" fill="#ff7a7a"/><path d="m296.414062 274.785156c0 8.789063-7.128906 15.917969-15.917968 15.917969-8.792969 0-15.917969-7.128906-15.917969-15.917969 0-8.792968 7.125-15.917968 15.917969-15.917968 8.789062 0 15.917968 7.125 15.917968 15.917968zm0 0" fill="#ff7a7a"/><path d="m46.6875 218.945312h-2.195312c-20.4375 0-37.007813 16.570313-37.007813 37.007813 0 20.441406 16.570313 37.011719 37.007813 37.011719h2.195312zm0 0" fill="#fed2a4"/><path d="m341.777344 218.945312h2.191406c20.441406 0 37.011719 16.570313 37.011719 37.007813 0 20.441406-16.570313 37.011719-37.011719 37.011719h-2.191406zm0 0" fill="#fed2a4"/><path d="m194.0625 284.621094c-33.882812 39.03125-147.6875 8.824218-147.6875 8.824218v10.839844c0 66.195313 53.527344 119.851563 119.554688 119.851563h56.265624c66.027344 0 119.554688-53.65625 119.554688-119.851563v-10.839844s-113.804688 30.207032-147.6875-8.824218zm0 0" fill="#845f3f"/><path d="m194.0625 284.621094c-33.882812 39.03125-147.6875 8.824218-147.6875 8.824218v10.839844c0 66.195313 53.527344 119.851563 119.554688 119.851563h56.265624c66.027344 0 119.554688-53.65625 119.554688-119.851563v-10.839844s-113.804688 30.207032-147.6875-8.824218zm0 0" fill="#a87a52"/><path d="m341.75 293.441406v10.847656c0 66.191407-53.527344 119.847657-119.554688 119.847657h-22.613281c66.019531 0 119.546875-53.65625 119.546875-119.847657v-5.90625c13.652344-2.566406 22.621094-4.941406 22.621094-4.941406zm0 0" fill="#906846"/><path d="m149.402344 232.140625c-4.132813 0-7.484375 3.347656-7.484375 7.484375v16.414062c0 4.136719 3.351562 7.484376 7.484375 7.484376 4.132812 0 7.484375-3.347657 7.484375-7.484376v-16.414062c0-4.136719-3.351563-7.484375-7.484375-7.484375zm0 0"/><path d="m238.722656 232.140625c-4.132812 0-7.484375 3.347656-7.484375 7.484375v16.414062c0 4.136719 3.351563 7.484376 7.484375 7.484376 4.132813 0 7.484375-3.347657 7.484375-7.484376v-16.414062c0-4.136719-3.351562-7.484375-7.484375-7.484375zm0 0"/><path d="m151.777344 195.179688c-9.457032.472656-18.140625 3.074218-25.109375 7.527343-5.410157 3.457031-8.039063 6.871094-8.507813 7.519531-2.433594 3.34375-1.695312 8.023438 1.648438 10.453126 1.328125.96875 2.871094 1.433593 4.398437 1.433593 2.3125 0 4.59375-1.070312 6.058594-3.085937.058594-.078125 6.324219-8.101563 22.261719-8.898438 4.128906-.207031 7.304687-3.722656 7.101562-7.851562-.207031-4.125-3.738281-7.320313-7.851562-7.097656zm0 0"/><path d="m269.96875 210.226562c-.472656-.648437-3.101562-4.0625-8.507812-7.519531-6.972657-4.449219-15.65625-7.054687-25.113282-7.527343-4.113281-.21875-7.640625 2.972656-7.847656 7.101562s2.972656 7.640625 7.101562 7.847656c15.9375.796875 22.203126 8.820313 22.261719 8.902344 1.464844 2.015625 3.746094 3.082031 6.058594 3.082031 1.527344 0 3.066406-.464843 4.394531-1.429687 3.34375-2.433594 4.085938-7.113282 1.652344-10.457032zm0 0"/><path d="m341.75 239.625h-11.035156c-11.082032 0-20.324219-8.480469-21.269532-19.523438l-7.609374-88.960937h39.917968v108.484375zm0 0" fill="#a87a52"/><path d="m341.75 131.136719v108.488281h-11.035156c-4.261719 0-8.246094-1.257812-11.597656-3.421875v-105.066406zm0 0" fill="#906846"/><path d="m46.375 239.625h11.035156c11.085938 0 20.328125-8.480469 21.273438-19.523438l7.605468-88.960937h-39.914062zm0 0" fill="#a87a52"/><path d="m341.789062 133.160156c.925782.0625-3.75-29.9375-4.492187-32.773437-2.496094-9.539063-6.105469-18.765625-10.90625-27.320313-8.398437-14.964844-20.304687-27.480468-34.191406-37.097656-41.410157-28.664062-96.804688-34.433594-144.195313-22.679688-57.710937 14.3125-99.964844 56.355469-101.785156 119.871094 18.238281-1.234375 36.488281-2.292968 54.738281-3.269531 16.015625-.855469 32.039063-1.625 48.070313-2.234375 64.050781-2.421875 128.511718 1.199219 192.71875 5.503906zm0 0" fill="#57bf93"/><path d="m341.789062 133.160156h-.046874c-7.546876-.507812-15.101563-1-22.652344-1.476562-.351563-6.046875-3.941406-28.851563-4.582032-31.304688-2.496093-9.53125-6.105468-18.761718-10.90625-27.3125-8.402343-14.96875-20.308593-27.480468-34.199218-37.101562-25.046875-17.34375-55.210938-26.292969-85.628906-28.0625 37.800781-2.195313 77.117187 6.386718 108.421874 28.0625 13.890626 9.621094 25.796876 22.132812 34.199219 37.101562 4.800781 8.550782 8.410157 17.78125 10.90625 27.3125.738281 2.84375 5.417969 32.839844 4.488281 32.78125zm0 0" fill="#1fb480"/><path d="m349.234375 211.78125v-77.140625c.476563-2.625-.089844-7.160156-1.71875-18.25-.898437-6.152344-2.421875-15.773437-2.976563-17.898437-2.722656-10.410157-6.632812-20.195313-11.621093-29.089844-8.613281-15.347656-21.222657-29.039063-36.460938-39.585938-40.660156-28.144531-96.828125-37.039062-150.253906-23.789062-30.808594 7.636718-56.964844 22.773437-75.644531 43.773437-19.898438 22.371094-30.902344 51.121094-31.820313 83.144531-.019531.582032.039063 1.15625.152344 1.714844v77.164063c-21.894531 2.765625-38.890625 21.492187-38.890625 44.128906s16.996094 41.363281 38.890625 44.128906v4.207031c0 48.625 27.339844 90.96875 67.417969 112.410157-3.011719 3.542969-6.027344 7.351562-9.007813 11.453125-2.429687 3.34375-1.6875 8.023437 1.660157 10.453125 3.34375 2.425781 8.023437 1.683593 10.453124-1.660157 3.660157-5.042968 7.398438-9.609374 11.097657-13.742187 14.109375 5.433594 29.421875 8.417969 45.417969 8.417969h56.265624c15.859376 0 31.203126-2.878906 45.464844-8.324219 14.945313 16.769531 30.605469 40.835937 39.640625 73.734375h-48.875v-27.023438c0-4.136718-3.351562-7.484374-7.484375-7.484374-4.132812 0-7.484375 3.347656-7.484375 7.484374v27.023438h-98.789062v-27.023438c0-4.136718-3.351563-7.484374-7.484375-7.484374-4.132813 0-7.484375 3.347656-7.484375 7.484374v27.023438h-48.875c1.972656-7.179688 4.324219-14.1875 7.023437-20.921875 1.535156-3.835937-.324218-8.195313-4.164062-9.730469-3.835938-1.539062-8.191406.324219-9.730469 4.160156-4.128906 10.296876-7.496094 21.175782-10.011719 32.328126-.5 2.222656.035156 4.546874 1.453125 6.324218 1.421875 1.777344 3.570313 2.808594 5.847657 2.808594h245.640624c2.277344 0 4.425782-1.03125 5.847657-2.808594s1.957031-4.101562 1.453125-6.324218c-8.8125-39.078126-26.421875-67.300782-42.285156-86.050782 16.246093-8.671875 30.625-20.957031 42.109374-36.363281 2.472657-3.3125 1.789063-8-1.523437-10.472656-3.3125-2.46875-8.003906-1.789063-10.472656 1.527343-21.398438 28.691407-54.132813 45.144532-89.816407 45.144532h-56.265624c-61.796876 0-112.070313-50.40625-112.070313-112.367188v-1.351562c11.179687 2.496094 31.070313 6.398437 53.042969 8.195312 40.910156 3.34375 70.167968-2.070312 87.160156-16.105468 16.988281 14.035156 46.246094 19.449218 87.160156 16.105468 21.972656-1.796875 41.867188-5.699218 53.042969-8.195312v1.351562c0 9.457032-1.171875 18.851563-3.484375 27.921875-1.019531 4.003907 1.398438 8.078125 5.40625 9.101563 4.003906 1.015625 8.078125-1.398438 9.101562-5.40625 2.617188-10.273438 3.945313-20.914063 3.945313-31.617188v-4.160156c22.0625-2.613281 39.230469-21.421875 39.230469-44.171875 0-22.753906-17.167969-41.558594-39.230469-44.171875zm-334.265625 44.171875c0-14.363281 10.3125-26.363281 23.921875-28.988281l.3125 58.039062c-13.765625-2.5-24.234375-14.574218-24.234375-29.050781zm134.835938-235.398437c14.75-3.65625 30.105468-5.503907 45.378906-5.503907 8.773437 0 17.515625.609375 26.105468 1.832031 24.871094 3.542969 47.917969 12.273438 66.652344 25.242188 13.375 9.261719 24.417969 21.226562 31.921875 34.605469 4.363281 7.777343 7.796875 16.375 10.183594 25.511719.519531 2.136718 2.460937 14.523437 3.578125 22.875-59.414062-3.917969-122.304688-7.304688-184.882812-4.9375-14.507813.550781-30.269532 1.28125-48.1875 2.238281-17.335938.925781-32.300782 1.800781-46.363282 2.714843 4.734375-51.996093 39.945313-90.773437 95.613282-104.578124zm184.460937 119.609374v91.976563h-3.550781c-7.253906 0-13.195313-5.453125-13.8125-12.679687l-6.917969-80.601563 3.605469-.027344c6.9375.433594 13.828125.875 20.675781 1.332031zm-280.40625-.011718c6.816406-.445313 13.835937-.878906 21.230469-1.316406l3.050781.023437-6.914063 80.601563c-.621093 7.226562-6.558593 12.679687-13.816406 12.679687h-3.238281zm280.433594 147.453125c-30.722657 7.34375-96.128907 17.382812-126.148438-.90625 2.882813-2.1875 5.273438-5.042969 6.882813-8.40625 1.78125-3.730469.203125-8.199219-3.527344-9.980469s-8.199219-.203125-9.976562 3.527344c-1.339844 2.800781-4.210938 4.613281-7.316407 4.613281-3.261719 0-6.191406-1.941406-7.460937-4.949219-1.609375-3.808594-6-5.589844-9.808594-3.976562-3.808594 1.609375-5.589844 6-3.976562 9.808594 1.582031 3.742187 4.070312 6.90625 7.148437 9.28125-29.855469 18.328124-95.03125 8.414062-125.9375 1.066406v-40.578125h3.242187c15.085938 0 27.4375-11.335938 28.726563-26.367188l7.117187-82.9375c2.644532-.144531 5.339844-.289062 8.097657-.4375 17.839843-.953125 33.523437-1.679687 47.953125-2.226562 48.832031-1.851563 98.011718-.144531 145.554687 2.570312l7.125 83.03125c1.289063 15.03125 13.640625 26.367188 28.726563 26.367188h3.578125zm14.96875-2.601563v-58.101562c13.765625 2.5 24.234375 14.574218 24.234375 29.050781s-10.46875 26.550781-24.234375 29.050781zm0 0"/></svg>