<svg height="512pt" viewBox="0 -25 512.00022 512" width="512pt" xmlns="http://www.w3.org/2000/svg"><path d="m249.304688 11.46875-240.777344 431.746094c-2.851563 5.109375.84375 11.402344 6.695312 11.402344h481.550782c5.855468 0 9.550781-6.292969 6.699218-11.402344l-240.777344-431.746094c-2.921874-5.242188-10.46875-5.242188-13.390624 0zm0 0" fill="#0396fd"/><path d="m496.777344 454.617188h-25.335938l-234.640625-420.738282 12.5-22.414062c2.921875-5.242188 10.476563-5.242188 13.398438 0l240.769531 431.75c2.855469 5.113281-.84375 11.402344-6.691406 11.402344zm0 0" fill="#0077f0"/><path d="m256 211.644531c-.058594-.003906-105.128906-6.558593-167 86.863281-.980469 1.480469-.980469 3.425782 0 4.90625 61.871094 93.421876 166.941406 86.867188 167 86.863282.058594.003906 105.128906 6.558594 167-86.863282.984375-1.480468.984375-3.425781 0-4.90625-61.871094-93.421874-166.941406-86.867187-167-86.863281zm0 0" fill="#efe2dd"/><path d="m423 303.417969c-61.867188 93.410156-166.9375 86.863281-167 86.863281-.058594 0-89.542969 5.574219-151.960938-66.96875 61.816407 55.164062 137.695313 50.429688 137.746094 50.421875.058594.007813 107.574219 6.710937 170.898438-88.878906.070312-.101563.128906-.203125.1875-.3125 3.476562 4.378906 6.863281 9.03125 10.128906 13.964843.984375 1.484376.984375 3.425782 0 4.910157zm0 0" fill="#e1d3ce"/><path d="m345.316406 300.960938c0 49.328124-39.988281 89.316406-89.316406 89.316406s-89.316406-39.988282-89.316406-89.316406c0-49.328126 39.988281-89.316407 89.316406-89.316407s89.316406 39.988281 89.316406 89.316407zm0 0" fill="#575f64"/><path d="m345.3125 300.960938c0 49.324218-39.984375 89.320312-89.3125 89.320312-3.9375 0-7.816406-.25-11.613281-.742188 43.84375-5.707031 77.699219-43.191406 77.699219-88.578124 0-45.390626-33.855469-82.863282-77.699219-88.570313 3.796875-.492187 7.675781-.742187 11.613281-.742187 49.328125 0 89.3125 39.984374 89.3125 89.3125zm0 0" fill="#474f54"/><path d="m301.90625 257.449219c0 25.351562-20.554688 45.90625-45.90625 45.90625s-45.90625-20.554688-45.90625-45.90625c0-25.351563 20.554688-45.90625 45.90625-45.90625s45.90625 20.554687 45.90625 45.90625zm0 0" fill="#efe2dd"/><path d="m301.902344 257.449219c0 25.355469-20.546875 45.910156-45.902344 45.910156-4.550781 0-8.949219-.664063-13.101562-1.898437 18.96875-5.644532 32.800781-23.21875 32.800781-44.011719 0-20.796875-13.832031-38.359375-32.800781-44.003907 4.152343-1.234374 8.550781-1.898437 13.101562-1.898437 25.355469 0 45.902344 20.554687 45.902344 45.902344zm0 0" fill="#e1d3ce"/><path d="m510.054688 439.542969-79.398438-142.371094c-.328125-.980469-.78125-1.933594-1.371094-2.824219-.375-.5625-.753906-1.101562-1.128906-1.65625l-88.566406-158.8125c-2.027344-3.636718-6.617188-4.9375-10.25-2.910156-3.636719 2.027344-4.9375 6.613281-2.910156 10.25l58.894531 105.609375c-23.378907-18.101563-47.5-28.292969-66.871094-34.011719-41.082031-12.128906-83.855469-12.117187-124.90625 0-19.367187 5.71875-43.492187 15.910156-66.871094 34.011719l129.238281-231.742187c.039063-.019532.132813-.019532.203126.054687l47.734374 85.59375c2.027344 3.632813 6.613282 4.933594 10.25 2.910156 3.632813-2.027343 4.9375-6.617187 2.910157-10.253906l-47.734375-85.589844c-2.683594-4.8125-7.769532-7.800781-13.277344-7.800781s-10.597656 2.988281-13.277344 7.800781l-158.875 284.886719c-.375.554688-.757812 1.09375-1.132812 1.65625-.589844.894531-1.042969 1.847656-1.371094 2.832031l-79.394531 142.367188c-2.65625 4.761719-2.59375 10.40625.164062 15.105469 2.761719 4.699218 7.660157 7.503906 13.109375 7.503906h481.554688c5.449218 0 10.347656-2.804688 13.109375-7.503906 2.757812-4.699219 2.820312-10.34375.167969-15.105469zm-94.8125-139.066407.300781.535157c-23.179688 34.210937-54.84375 58.191406-94.210938 71.382812 19.359375-17.722656 31.519531-43.183593 31.519531-71.433593s-12.160156-53.710938-31.519531-71.433594c39.199219 13.136718 70.757813 36.96875 93.910157 70.949218zm-207.820313-65.257812c-3.113281 6.773438-4.863281 14.300781-4.863281 22.230469 0 4.164062 3.375 7.535156 7.535156 7.535156 4.164062 0 7.535156-3.371094 7.535156-7.53125.015625-49.324219 76.742188-49.558594 76.742188-.003906 0 21.15625-17.210938 38.371093-38.371094 38.371093-7.0625 0-13.964844-1.933593-19.957031-5.589843-3.554688-2.171875-8.1875-1.046875-10.359375 2.503906-2.167969 3.550781-1.046875 8.1875 2.503906 10.355469 8.359375 5.101562 17.976562 7.800781 27.8125 7.800781 29.46875 0 53.441406-23.972656 53.441406-53.441406 0-7.929688-1.75-15.457031-4.863281-22.230469 20.128906 14.910156 33.203125 38.828125 33.203125 65.742188 0 45.097656-36.6875 81.78125-81.78125 81.78125s-81.78125-36.6875-81.78125-81.78125c0-26.917969 13.074219-50.832032 33.203125-65.742188zm-110.667969 65.265625c23.152344-33.980469 54.714844-57.820313 93.914063-70.957031-19.359375 17.722656-31.519531 43.183594-31.519531 71.433594 0 28.253906 12.160156 53.714843 31.519531 71.433593-39.363281-13.191406-71.03125-37.171875-94.210938-71.382812zm400.023438 146.597656h-481.613282c-.035156-.023437-.082031-.101562-.058593-.195312l73.214843-131.285157c32.582032 44.484376 74.777344 64.515626 105.226563 73.503907 32.597656 9.621093 58.566406 8.894531 62.453125 8.714843.730469.035157 2.238281.085938 4.417969.085938 9.449219 0 31.558593-.984375 58.035156-8.800781 30.449219-8.988281 72.644531-29.019531 105.222656-73.503907l73.246094 131.335938c-.003906.042969-.050781.121094-.144531.144531zm0 0"/></svg>