<svg height="511pt" viewBox="-69 0 511 511.99933" width="511pt" xmlns="http://www.w3.org/2000/svg"><path d="m225.386719 384.578125h-76.773438s-64.878906 32.066406-84.695312 119.921875h246.160156c-19.8125-87.855469-84.691406-119.921875-84.691406-119.921875zm0 0" fill="#efe2dd"/><path d="m155.359375 384.578125h63.28125v28h-63.28125zm0 0" fill="#575f64"/><path d="m197.449219 384.578125h21.191406v28h-21.191406zm0 0" fill="#474f54"/><path d="m155.359375 384.582031v119.917969h-40.238281v-94.339844c18.089844-17.957031 33.488281-25.578125 33.488281-25.578125zm0 0" fill="#ff4343"/><path d="m155.359375 384.582031v119.917969h-15.359375v-114.757812c5.320312-3.539063 8.609375-5.160157 8.609375-5.160157zm0 0" fill="#f72c2c"/><path d="m218.640625 384.582031v119.917969h40.238281v-94.339844c-18.089844-17.957031-33.488281-25.578125-33.488281-25.578125zm0 0" fill="#ff4343"/><path d="m258.878906 410.160156v94.339844h-14v-106.828125c4.289063 3.417969 9.050782 7.570313 14 12.488281zm0 0" fill="#f72c2c"/><path d="m226.632812 384.574219h-79.265624c-56.8125 0-102.867188-46.058594-102.867188-102.867188v-163.589843h285.003906v163.589843c-.003906 56.808594-46.058594 102.867188-102.871094 102.867188zm0 0" fill="#fed2a4"/><path d="m329.5 117.355469v164.058593c0 56.96875-46.1875 103.160157-103.15625 103.160157h-24.964844c56.972656 0 103.160156-46.191407 103.160156-103.160157v-164.058593zm0 0" fill="#ffbd86"/><path d="m329.5 217.214844h2.042969c19.03125 0 34.457031 15.429687 34.457031 34.457031 0 19.03125-15.429688 34.457031-34.457031 34.457031h-2.042969zm0 0" fill="#fed2a4"/><path d="m44.5 217.214844h-2.042969c-19.03125 0-34.457031 15.429687-34.457031 34.457031 0 19.03125 15.429688 34.457031 34.457031 34.457031h2.042969zm0 0" fill="#fed2a4"/><path d="m24.171875 198.238281v-70.972656c0-22.386719 18.148437-40.535156 40.535156-40.535156h2.015625c0-22.386719 18.148438-40.535157 40.539063-40.535157h103.53125c9.996093 0 19.945312-1.777343 29.1875-5.582031 12.542969-5.160156 26.605469-14.917969 30.238281-33.113281 0 0 28.601562 21.320312 28.375 57.996094v17.375h10.699219c22.390625 0 40.539062 18.148437 40.539062 40.535156v74.832031c0 10.480469-8.496093 18.976563-18.976562 18.976563s-18.976563-8.496094-18.976563-18.976563v-31.207031c0-10.417969-10.324218-17.742188-20.125-14.210938-17.199218 6.199219-45.058594 8.121094-82.183594-15.902343h-100.378906c-25.585937 0-46.328125 20.742187-46.328125 46.328125v14.992187c0 10.480469-8.496093 18.976563-18.976562 18.976563h-.738281c-10.480469 0-18.976563-8.496094-18.976563-18.976563zm0 0" fill="#8c6239"/><path d="m349.824219 123.390625v74.308594c0 10.425781-8.523438 19.511719-18.949219 19.523437-5.257812.007813-10.003906-2.117187-13.441406-5.558594-3.4375-3.4375-5.5625-8.183593-5.5625-13.421874v-31.210938c0-10.167969-9.84375-17.398438-19.417969-14.4375v-29.191406c0-22.386719-18.152344-40.539063-40.539063-40.539063h-4.273437c-3.554687 0-6.433594-2.878906-6.433594-6.433593v-10.9375c.050781-8.855469-1.570312-16.808594-4.082031-23.769532.964844-.351562 1.917969-.722656 2.859375-1.109375 12.535156-5.160156 26.597656-14.914062 30.230469-33.113281 0 0 28.609375 21.324219 28.375 57.992188v17.371093h10.707031c22.382813 0 40.527344 18.144531 40.527344 40.527344zm0 0" fill="#7f522d"/><path d="m118.277344 271.691406c0 8.570313-6.949219 15.515625-15.515625 15.515625-8.566407 0-15.515625-6.945312-15.515625-15.515625 0-8.566406 6.949218-15.511718 15.515625-15.511718 8.566406 0 15.515625 6.945312 15.515625 15.511718zm0 0" fill="#ff7a7a"/><path d="m286.753906 271.691406c0 8.570313-6.949218 15.515625-15.515625 15.515625-8.566406 0-15.511719-6.945312-15.511719-15.515625 0-8.566406 6.945313-15.511718 15.511719-15.511718 8.566407 0 15.515625 6.945312 15.515625 15.511718zm0 0" fill="#ff7a7a"/><path d="m186.207031 297.433594c.101563-.339844.199219-.683594.289063-1.03125 2.710937-10.398438-5.917969-20.175782-16.585938-19.699219-15.789062.703125-22.976562 13.574219-30.378906 25.410156-4.828125 7.71875-11.425781 14.207031-19.566406 18.128907-1.699219.820312-1.4375 3.320312.398437 3.753906 14.238281 3.363281 29.886719 3.78125 43.257813-2.601563 9.738281-4.648437 19.363281-13.324219 22.585937-23.960937zm0 0" fill="#8c6239"/><path d="m187.792969 297.433594c-.101563-.339844-.199219-.683594-.289063-1.03125-2.710937-10.398438 5.917969-20.175782 16.585938-19.699219 15.792968.703125 22.976562 13.574219 30.378906 25.410156 4.828125 7.71875 11.425781 14.207031 19.566406 18.128907 1.703125.820312 1.441406 3.320312-.398437 3.753906-14.238281 3.363281-29.886719 3.78125-43.253907-2.601563-9.742187-4.648437-19.367187-13.324219-22.589843-23.960937zm0 0" fill="#8c6239"/><path d="m144.964844 248.390625c4.144531 0 7.5-3.355469 7.5-7.5v-22.414063c0-4.144531-3.355469-7.5-7.5-7.5-4.140625 0-7.5 3.355469-7.5 7.5v22.414063c0 4.140625 3.359375 7.5 7.5 7.5zm0 0"/><path d="m229.035156 248.390625c4.140625 0 7.5-3.355469 7.5-7.5v-22.414063c0-4.144531-3.359375-7.5-7.5-7.5-4.144531 0-7.5 3.355469-7.5 7.5v22.414063c0 4.140625 3.355469 7.5 7.5 7.5zm0 0"/><path d="m351.507812 214.777344c3.636719-4.535156 5.820313-10.285156 5.820313-16.539063v-74.832031c0-26.488281-21.546875-48.039062-48.035156-48.039062h-3.199219v-9.824219c.246094-40.011719-30.101562-63.09375-31.394531-64.058594-2.0625-1.5351562-4.769531-1.910156-7.171875-.984375-2.402344.921875-4.160156 3.011719-4.664063 5.535156-2.460937 12.324219-11.117187 21.625-25.738281 27.644532-8.089844 3.328124-16.945312 5.015624-26.332031 5.015624h-103.53125c-24.023438 0-43.984375 17.726563-47.492188 40.789063-24.175781 2.476563-43.097656 22.960937-43.097656 47.78125v12.070313c0 4.140624 3.355469 7.5 7.5 7.5 4.140625 0 7.5-3.359376 7.5-7.5v-12.070313c0-18.214844 14.820313-33.035156 33.035156-33.035156h2.015625c4.144532 0 7.5-3.355469 7.5-7.5 0-18.214844 14.824219-33.035157 33.039063-33.035157h103.53125c11.351562 0 22.132812-2.070312 32.039062-6.144531 14.523438-5.980469 24.925781-15.023437 30.648438-26.527343 7.507812 8.503906 17.738281 23.886718 17.613281 44.472656v17.375c0 4.140625 3.355469 7.5 7.5 7.5h10.699219c18.21875 0 33.035156 14.820312 33.035156 33.035156v74.835938c0 6.328124-5.144531 11.476562-11.476563 11.476562-6.328124 0-11.476562-5.148438-11.476562-11.476562v-31.207032c0-7.355468-3.59375-14.273437-9.617188-18.503906-5.992187-4.210938-13.675781-5.242188-20.550781-2.765625-21.609375 7.789063-43.554687 1.332031-58.167969-5.453125-15.34375-7.125-32.8125-10.894531-50.515624-10.894531h-71.332032c-29.683594 0-53.828125 24.148437-53.828125 53.828125v14.992187c0 6.328125-5.148437 11.476563-11.480469 11.476563h-.738281c-6.328125 0-11.476562-5.144532-11.476562-11.476563v-11.238281c0-4.140625-3.355469-7.5-7.5-7.5-4.140625 0-7.5 3.359375-7.5 7.5v11.238281c0 6.253907 2.183593 12.003907 5.824219 16.539063-13.085938 7.109375-21.992188 20.984375-21.992188 36.894531 0 21.496094 16.25 39.257813 37.109375 41.667969 5.105469 48.503906 41.753906 87.738281 88.996094 96.765625-1.585938 1.226562-3.246094 2.554687-4.957031 3.980469-.035157.03125-.070313.058593-.105469.085937-21.808594 18.207031-39.375 41.800781-51.21875 67.746094-5.984375 13.117187-10.554688 26.867187-13.722657 40.929687-.5 2.226563.035157 4.554688 1.457032 6.335938 1.425781 1.78125 3.578125 2.816406 5.859375 2.816406h246.160156c2.277344 0 4.433594-1.035156 5.855469-2.816406 1.425781-1.78125 1.960937-4.109375 1.460937-6.335938-2.449219-10.859375-5.730469-21.539062-9.859375-31.882812-10.28125-25.757813-25.980468-49.457032-45.96875-68.617188-3.445312-3.304687-7.019531-6.472656-10.710937-9.492187-.023438-.019531-.046875-.039063-.070313-.054688-1.164062-.945312-2.296875-1.847656-3.394531-2.695312 47.238281-9.027344 83.886719-48.265625 88.996094-96.765625 20.855469-2.410156 37.109375-20.171875 37.109375-41.667969.003906-15.910156-8.902344-29.785156-21.988282-36.894531zm-314.507812 63.296875c-12.257812-2.53125-21.5-13.40625-21.5-26.402344 0-12.992187 9.242188-23.871094 21.5-26.398437zm70.621094 218.925781h-34.097656c8.109374-29.460938 21.503906-51.621094 34.097656-67.292969zm158.757812-67.25c13.167969 16.324219 26.175782 38.398438 34.101563 67.25h-34.101563zm-118.519531 67.25h-25.238281v-83.660156c.332031-.320313.664062-.644532.996094-.953125 7.402343-6.976563 15.457031-13.410157 24.1875-18.722657.019531-.011718.039062-.023437.054687-.03125v18.964844zm103.519531-83.617188v83.617188h-25.238281v-17.5c0-4.144531-3.355469-7.5-7.5-7.5s-7.5 3.355469-7.5 7.5v17.5h-48.277344v-76.921875h48.277344v13.421875c0 4.140625 3.355469 7.5 7.5 7.5s7.5-3.359375 7.5-7.5v-39.871094c1.242187.753906 2.734375 1.703125 4.433594 2.84375.171875.117188.347656.234375.527343.355469.140626.097656.289063.199219.4375.300781 5.234376 3.59375 12.214844 8.9375 19.839844 16.253906zm-88.519531-8.304687v-13h48.28125v13zm159.140625-181.21875v57.847656c0 52.585938-42.78125 95.367188-95.367188 95.367188h-79.265624c-52.585938 0-95.367188-42.78125-95.367188-95.367188v-58.265625c10.640625-3.433594 18.363281-13.429687 18.363281-25.199218v-14.996094c0-21.410156 17.417969-38.828125 38.828125-38.828125h71.335938c15.53125 0 30.816406 3.285156 44.195312 9.5 31.097656 14.445312 54.996094 11.214843 69.570313 5.960937 2.320312-.835937 4.8125-.5 6.84375.925782 2.058593 1.445312 3.238281 3.714843 3.238281 6.230468v31.207032c0 11.496093 7.367188 21.296874 17.625 24.949218zm15 54.214844v-52.800781c12.257812 2.527343 21.5 13.402343 21.5 26.398437 0 12.992187-9.242188 23.871094-21.5 26.402344zm0 0"/><path d="m257.292969 313.488281c-6.425781-3.097656-12.121094-8.40625-16.464844-15.351562l-1.105469-1.78125c-5.871094-9.441407-12.902344-20.738281-25.320312-25.214844.164062-.316406.339844-.625.496094-.945313 1.785156-3.738281.203124-8.214843-3.535157-10.003906-3.734375-1.785156-8.214843-.199218-10 3.535156-1.582031 3.308594-4.269531 5.898438-7.488281 7.417969-.207031.085938-.414062.175781-.617188.273438-1.886718.792969-3.933593 1.230469-6.039062 1.230469-6.3125 0-11.980469-3.757813-14.4375-9.570313-1.613281-3.8125-6.015625-5.597656-9.832031-3.984375-3.8125 1.613281-5.597657 6.015625-3.984375 9.828125.300781.714844.628906 1.410156.980468 2.09375-12.636718 4.386719-19.738281 15.8125-25.664062 25.339844l-1.109375 1.78125c-4.34375 6.945312-10.035156 12.253906-16.460937 15.351562-3.621094 1.742188-5.761719 5.597657-5.324219 9.59375.433593 3.988281 3.347656 7.289063 7.253906 8.210938 7.3125 1.730469 14.375 2.589843 21.074219 2.589843 9.988281 0 19.164062-1.917968 27.136718-5.71875 8.246094-3.9375 15.230469-9.628906 20.152344-16.207031 4.921875 6.578125 11.90625 12.269531 20.152344 16.207031 7.972656 3.804688 17.144531 5.71875 27.136719 5.71875 6.695312 0 13.761719-.859374 21.074219-2.589843 3.90625-.921875 6.820312-4.222657 7.253906-8.210938.433594-3.996093-1.707032-7.847656-5.328125-9.59375zm-78.054688-18.976562c-.0625.25-.132812.496093-.207031.742187 0 .003906-.003906.003906-.003906.007813-2.730469 9.019531-11.421875 15.917969-18.640625 19.363281-8.042969 3.839844-16.925781 4.648438-25 4.113281 3.953125-3.582031 7.488281-7.835937 10.5-12.648437l1.128906-1.8125c7.578125-12.1875 12.925781-19.625 23.230469-20.082032 2.847656-.132812 5.632812 1.121094 7.429687 3.339844.957031 1.179688 2.429688 3.65625 1.5625 6.976563zm34.375 20.113281c-7.222656-3.445312-15.910156-10.34375-18.644531-19.363281 0-.003907 0-.003907 0-.007813-.074219-.246094-.144531-.492187-.207031-.738281-.867188-3.324219.605469-5.800781 1.5625-6.980469 1.710937-2.113281 4.316406-3.351562 7.03125-3.351562.132812 0 .265625.003906.398437.011718 10.304688.457032 15.648438 7.894532 23.226563 20.082032l1.128906 1.8125c3.011719 4.8125 6.550781 9.066406 10.5 12.648437-8.0625.535157-16.957031-.277343-24.996094-4.113281zm0 0"/></svg>