<svg height="512pt" viewBox="-50 0 512 512.001" width="512pt" xmlns="http://www.w3.org/2000/svg"><path d="m245.054688 384.691406h-76.699219s-64.824219 32.035156-84.621094 119.816406h245.941406c-19.796875-87.78125-84.621093-119.816406-84.621093-119.816406zm0 0" fill="#ff9a9a"/><path d="m329.503906 504.507812h-20.492187c-19.800781-87.78125-84.621094-119.8125-84.621094-119.8125h20.5s64.824219 32.03125 84.613281 119.8125zm0 0" fill="#ff7a7a"/><path d="m288.65625 25.707031c-56.03125-24.464843-109.53125-24.214843-164.984375 0-87.507813 38.214844-119.4375 129.46875-115.914063 219.582031 1.425782 36.429688 9.121094 73.214844 26.667969 105.433594 28.832031 52.9375 93.527344 87.144532 153.214844 96.351563 12.28125 1.894531 24.765625 1.894531 37.046875 0 59.6875-9.207031 124.382812-43.417969 153.214844-96.351563 17.546875-32.222656 25.242187-69.003906 26.667968-105.433594 3.523438-90.113281-28.40625-181.367187-115.914062-219.582031zm0 0" fill="#ff4343"/><path d="m404.566406 245.289062c-1.425781 36.425782-9.121094 73.214844-26.664062 105.4375-28.835938 52.929688-93.527344 87.140626-153.214844 96.351563-12.277344 1.890625-24.765625 1.890625-37.046875 0-3.554687-.550781-7.121094-1.1875-10.699219-1.90625 1.917969-.191406 3.835938-.441406 5.753906-.730469 59.6875-9.0625 124.382813-42.722656 153.214844-94.804687 17.542969-31.703125 25.238282-67.890625 26.667969-103.738281 3.523437-88.660157-28.40625-178.449219-115.917969-216.046876-27.433594-11.789062-54.25-17.742187-80.996094-17.953124 40.832032-8.929688 81.207032-4.433594 122.988282 13.808593 87.511718 38.214844 119.441406 129.464844 115.914062 219.582031zm0 0" fill="#f72c2c"/><path d="m332.976562 185.808594c-9.949218-11.96875-20.382812-23.320313-31.425781-34.378906-7.730469-7.746094-17.96875-14.867188-27.03125-21.097657-28.226562-19.414062-70.359375-19.914062-102.144531-12.644531-11.585938 2.648438-24.101562 5.820312-34.027344 12.644531-9.058594 6.230469-19.296875 13.351563-27.03125 21.097657-11.042968 11.058593-21.476562 22.410156-31.421875 34.378906-24.371093 29.316406-17.386719 66.121094-17.375 101.761718.023438 56.90625 47.566407 104.390626 104.476563 104.390626h78.882812c56.910156 0 104.453125-47.484376 104.472656-104.390626.011719-35.640624 6.996094-72.449218-17.375-101.761718zm0 0" fill="#fed2a4"/><path d="m350.347656 287.570312c-.019531 56.90625-47.558594 104.386719-104.46875 104.386719h-24.648437c56.910156 0 104.457031-47.480469 104.476562-104.386719.011719-35.640624 6.996094-72.445312-17.375-101.761718-9.949219-11.96875-20.378906-23.316406-31.421875-34.378906-7.730468-7.742188-17.972656-14.867188-27.035156-21.101563-14.636719-10.070313-33.019531-15.042969-51.753906-16.484375 26.484375-1.957031 55.320312 1.988281 76.402344 16.484375 9.0625 6.234375 19.292968 13.359375 27.027343 21.101563 11.039063 11.0625 21.480469 22.410156 31.421875 34.378906 24.378906 29.316406 17.394532 66.121094 17.375 101.761718zm0 0" fill="#ffbd86"/><path d="m138.679688 316.808594c0 8.480468-6.875 15.355468-15.355469 15.355468s-15.355469-6.875-15.355469-15.355468c0-8.480469 6.875-15.355469 15.355469-15.355469s15.355469 6.875 15.355469 15.355469zm0 0" fill="#ff7a7a"/><path d="m305.441406 316.808594c0 8.480468-6.875 15.355468-15.355468 15.355468-8.480469 0-15.355469-6.875-15.355469-15.355468 0-8.480469 6.875-15.355469 15.355469-15.355469 8.480468 0 15.355468 6.875 15.355468 15.355469zm0 0" fill="#ff7a7a"/><path d="m350.484375 228.863281s-.066406 0-.199219 0c-1.777344-15.335937-6.414062-29.945312-17.3125-43.050781-9.941406-11.96875-20.382812-23.320312-31.421875-34.378906-7.734375-7.746094-17.964843-14.867188-27.027343-21.101563-28.234376-19.414062-70.367188-19.914062-102.148438-12.648437-11.589844 2.65625-24.097656 5.824218-34.027344 12.648437-9.0625 6.234375-19.292968 13.355469-27.027344 21.101563-11.050781 11.058594-21.480468 22.410156-31.433593 34.378906-10.808594 12.996094-15.445313 27.464844-17.261719 42.652344-.5625-3.117188.386719-23.460938.476562-24.699219 1.5-19.355469 5.578126-38.636719 12.8125-56.667969 22.339844-55.742187 75.359376-87.574218 131-87.542968 19.472657.007812 39.277344 3.914062 58.1875 12.078124 45.960938 19.8125 73.425782 62.425782 82.269532 110.53125 2.796875 15.15625 4.464844 31.261719 3.113281 46.699219zm0 0" fill="#ff9a9a"/><path d="m350.484375 228.863281s-.066406 0-.199219 0c-1.777344-15.335937-6.414062-29.941406-17.3125-43.050781-5.386718-6.484375-10.921875-12.789062-16.625-18.960938-.191406-1.121093-.390625-2.238281-.589844-3.347656-6.726562-36.589844-24.21875-69.996094-52.433593-92.617187.597656.238281 1.1875.488281 1.777343.75 45.957032 19.808593 73.421876 62.421875 82.265626 110.527343 2.800781 15.15625 4.46875 31.261719 3.117187 46.699219zm0 0" fill="#ff7a7a"/><path d="m387.515625 112.816406c-20.757813-43.644531-53.011719-75.265625-95.863281-93.976562-57.523438-25.121094-113.453125-25.121094-170.980469 0-20.992187 9.167968-39.714844 21.675781-55.648437 37.175781-2.96875 2.886719-3.03125 7.632813-.144532 10.597656 2.882813 2.96875 7.628906 3.03125 10.59375.144531 14.636719-14.238281 31.863282-25.742187 51.199219-34.183593 27.09375-11.832031 53.03125-17.597657 79.285156-17.628907h.207031c26.324219 0 52.332032 5.769532 79.492188 17.628907 39.445312 17.226562 69.164062 46.386719 88.328125 86.679687 16.933594 35.605469 24.921875 79.085938 23.097656 125.742188-1.535156 39.203125-10.199219 73.570312-25.761719 102.140625-12.902343 23.695312-34.449218 45.042969-62.304687 61.734375-25.535156 15.296875-55.886719 26.234375-85.46875 30.800781-11.535156 1.777344-23.230469 1.777344-34.761719 0-29.582031-4.5625-59.9375-15.503906-85.46875-30.800781-27.855468-16.691406-49.402344-38.039063-62.308594-61.734375-15.558593-28.570313-24.226562-62.9375-25.761718-102.140625-2.164063-55.320313 9.183594-105.023438 32.8125-143.726563 2.15625-3.53125 1.042968-8.144531-2.488282-10.300781-3.535156-2.15625-8.144531-1.042969-10.300781 2.492188-25.175781 41.234374-37.277343 93.835937-34.996093 152.121093 1.625 41.527344 10.902343 78.109375 27.574218 108.722657 16.453125 30.214843 45.570313 56.472656 81.1875 74.925781-12.902344 18.089843-25.566406 42.386719-32.609375 73.628906-.503906 2.222656.035157 4.550781 1.457031 6.328125 1.421876 1.777344 3.574219 2.8125 5.851563 2.8125h245.941406c2.277344 0 4.433594-1.035156 5.855469-2.8125 1.421875-1.78125 1.957031-4.109375 1.457031-6.328125-7.101562-31.480469-19.902343-55.898437-32.90625-74.027344 35.261719-18.433593 64.066407-44.53125 80.398438-74.523437 16.675781-30.617188 25.953125-67.195313 27.578125-108.722656 1.917968-49.070313-6.566406-94.980469-24.542969-132.769532zm-67.433594 384.195313h-48.933593v-27.058594c0-4.136719-3.355469-7.492187-7.496094-7.492187-4.136719 0-7.492188 3.355468-7.492188 7.492187v27.058594h-98.910156v-27.058594c0-4.136719-3.355469-7.492187-7.492188-7.492187-4.136718 0-7.492187 3.355468-7.492187 7.492187v27.058594h-48.933594c7.113281-25.839844 18.296875-46.054688 29.433594-61.203125 19.914063 8.804687 41.46875 15.238281 63.734375 18.671875 6.523438 1.007812 13.09375 1.507812 19.664062 1.507812 6.570313 0 13.140626-.503906 19.667969-1.507812 22.5625-3.480469 44.390625-10.042969 64.527344-19.027344 11.613281 15.652344 22.679687 35.917969 29.722656 61.558594zm0 0"/><path d="m165.285156 285.855469c4.136719 0 7.492188-3.355469 7.492188-7.492188v-22.089843c0-4.136719-3.355469-7.492188-7.492188-7.492188-4.136718 0-7.492187 3.355469-7.492187 7.492188v22.089843c0 4.136719 3.351562 7.492188 7.492187 7.492188zm0 0"/><path d="m240.632812 256.273438v22.089843c0 4.136719 3.351563 7.492188 7.492188 7.492188 4.136719 0 7.492188-3.355469 7.492188-7.492188v-22.089843c0-4.136719-3.355469-7.492188-7.492188-7.492188-4.140625 0-7.492188 3.355469-7.492188 7.492188zm0 0"/><path d="m171.289062 226.515625c-1.292968-3.929687-5.53125-6.066406-9.460937-4.773437l-26.601563 8.753906c-3.933593 1.292968-6.070312 5.527344-4.777343 9.460937 1.039062 3.152344 3.96875 5.152344 7.117187 5.152344.777344 0 1.566406-.121094 2.34375-.378906l26.601563-8.753907c3.933593-1.292968 6.070312-5.527343 4.777343-9.460937zm0 0"/><path d="m275.84375 245.109375c3.148438 0 6.078125-2 7.117188-5.152344 1.292968-3.933593-.84375-8.167969-4.777344-9.460937l-26.605469-8.753906c-3.929687-1.300782-8.164063.84375-9.457031 4.773437-1.296875 3.929687.84375 8.167969 4.773437 9.460937l26.605469 8.753907c.777344.257812 1.566406.378906 2.34375.378906zm0 0"/><path d="m189.753906 320.390625c-4.136718 0-7.492187 3.355469-7.492187 7.496094v.773437c0 13.480469 10.964843 24.445313 24.445312 24.445313 13.476563 0 24.441407-10.964844 24.441407-24.445313v-.773437c0-4.140625-3.355469-7.496094-7.492188-7.496094s-7.492188 3.355469-7.492188 7.496094v.773437c0 5.21875-4.242187 9.457032-9.457031 9.457032-5.214843 0-9.457031-4.238282-9.457031-9.457032v-.773437c-.003906-4.140625-3.359375-7.496094-7.496094-7.496094zm0 0"/><path d="m55.023438 287.570312c.011718 29.523438 11.769531 57.519532 33.105468 78.835938 21.328125 21.308594 49.339844 33.046875 78.867188 33.046875h78.878906c22.140625 0 43.675781-6.683594 62.269531-19.320313 18.101563-12.304687 32.191407-29.347656 40.757813-49.289062 1.632812-3.800781-.125-8.207031-3.925782-9.84375-3.804687-1.628906-8.210937.128906-9.84375 3.929688-7.4375 17.3125-19.679687 32.113281-35.410156 42.804687-16.101562 10.945313-34.722656 16.730469-53.847656 16.730469h-78.882812c-25.523438 0-49.773438-10.179688-68.273438-28.664063-11.179688-11.167969-19.707031-24.933593-24.414062-40.035156-4.90625-15.722656-4.1875-31.785156-4.769532-48.015625-.941406-26.292969-1.761718-55.644531 16.121094-77.15625 8.417969-10.125 17.023438-20.132812 26.414062-29.378906 9.003907-8.863282 18.726563-17.09375 29.644532-23.503906 19.652344-11.542969 42.898437-17.222657 65.582031-17.738282 11.929687-.273437 23.957031.933594 35.480469 4.078125 14.734375 4.019531 28.082031 12.402344 40.101562 21.386719 4.742188 3.546875 9.476563 7.390625 13.367188 11.285156 6.507812 6.519532 12.859375 13.191406 19.015625 20.046875 11.210937 12.484375 20.957031 23.730469 25.207031 40.476563 4.175781 16.453125 3.464844 33.691406 2.863281 50.5-.160156 4.4375-.324219 9.027344-.410156 13.5625-.082031 4.140625 3.210937 7.558594 7.347656 7.636718 4.113281.046876 7.554688-3.210937 7.632813-7.347656.085937-4.414062.246094-8.9375.402344-13.3125.457031-12.71875.839843-25.640625.679687-38.558594-.203125-16.457031-1.292969-32.90625-4.25-48.921874-9.980469-54.316407-41.570313-96.617188-86.664063-116.054688-19.492187-8.410156-40.066406-12.683594-61.152343-12.691406-.03125 0-.058594 0-.085938 0-61.296875 0-115.414062 36.203125-137.875 92.246094-7.210937 17.96875-11.691406 37.777343-13.328125 58.917968-1.546875 21.695313-1.855468 43.1875-1.070312 65.0625.230468 6.355469.464844 12.925782.464844 19.285156zm27.84375-137.6875c20.171874-50.328124 68.824218-82.835937 123.96875-82.835937h.074218c19.039063.011719 37.617188 3.867187 55.226563 11.46875 40.082031 17.277344 68.324219 55.054687 77.632812 103.773437-.214843-.265624-.433593-.53125-.648437-.796874-.128906-.15625-.25-.316407-.382813-.476563-9.855469-11.855469-20.285156-23.265625-31.882812-34.882813-8.402344-8.417968-18.339844-15.273437-28.085938-21.980468-4.707031-3.238282-11.019531-6.597656-16.375-8.765625-4.144531-1.675781-8.410156-3.039063-12.730469-4.191407-8.4375-2.246093-17.070312-3.640624-25.703124-4.878906-9.601563-1.378906-19.355469-1.644531-29.023438-.976562-26.175781 1.8125-49.617188 10.484375-70.683594 25.714844-6.214844 4.496093-12.8125 9.644531-18.238281 15.078124-5.578125 5.589844-10.882813 11.128907-15.988281 16.695313-.199219.21875-.402344.433594-.601563.652344-.289062.316406-.574219.636719-.863281.953125-4.976562 5.472656-9.769531 10.976562-14.433594 16.582031-.171875.210937-.34375.417969-.511718.625 2.152343-11.152344 5.246093-21.777344 9.25-31.757813zm0 0"/></svg>