<svg height="512pt" viewBox="-12 0 512 512.001" width="512pt" xmlns="http://www.w3.org/2000/svg"><path d="m474.808594 383.648438c-44.898438 73.25-125.6875 121.828124-217.65625 120.832031-138.703125-1.5-249.648438-114.519531-249.648438-254.277344 0-112.507813 72.535156-207.972656 173.03125-241.464844 4.851563-1.617187 9.269532 3.421875 7.066406 8.066407-15.957031 33.671874-24.777343 71.441406-24.480468 111.328124 1.035156 140.011719 113.445312 252.382813 252.417968 252.382813 18.230469 0 35.996094-1.949219 53.125-5.664063 4.988282-1.078124 8.824219 4.421876 6.144532 8.796876zm0 0" fill="#ffc143"/><path d="m474.789062 383.675781c-6.59375 10.753907-13.957031 20.96875-22.015624 30.574219-9.691407.996094-19.511719 1.503906-29.464844 1.503906-159.214844 0-288.296875-130.054687-288.296875-290.457031 0-37.582031 7.085937-73.492187 19.972656-106.441406 8.28125-3.828125 16.800781-7.207031 25.535156-10.117188 4.859375-1.621093 9.289063 3.40625 7.085938 8.058594-15.914063 33.582031-24.730469 71.234375-24.488281 110.996094.855468 140.109375 113.355468 252.71875 252.425781 252.714843 18.230469 0 35.996093-1.945312 53.121093-5.65625 5.003907-1.082031 8.8125 4.4375 6.125 8.824219zm0 0" fill="#ffb509"/><path d="m385.554688 11.917969 25.804687 52.679687c1.144531 2.339844 3.359375 3.957032 5.917969 4.332032l57.703125 8.449218c6.445312.941406 9.023437 8.925782 4.355469 13.507813l-41.753907 41.003906c-1.851562 1.820313-2.695312 4.441406-2.257812 7.011719l9.855469 57.902344c1.101562 6.46875-5.636719 11.402343-11.402344 8.347656l-51.613282-27.339844c-2.289062-1.210938-5.023437-1.210938-7.316406 0l-51.609375 27.339844c-5.765625 3.054687-12.503906-1.878906-11.40625-8.347656l9.859375-57.902344c.4375-2.570313-.410156-5.191406-2.261718-7.011719l-41.753907-41.003906c-4.664062-4.582031-2.089843-12.5625 4.355469-13.507813l57.703125-8.449218c2.5625-.375 4.773437-1.996094 5.917969-4.332032l25.808594-52.679687c2.878906-5.886719 11.207031-5.886719 14.09375 0zm0 0" fill="#ffc143"/><path d="m437.585938 131.894531c-1.851563 1.816407-2.703126 4.4375-2.261719 7.007813l9.847656 57.90625c1.101563 6.464844-5.632813 11.398437-11.402344 8.34375l-7.085937-3.753906-11.824219-69.476563c-.539063-3.136719.5-6.332031 2.765625-8.5625l48.191406-47.324219 9.160156 1.339844c6.445313.949219 9.019532 8.929688 4.355469 13.507812zm0 0" fill="#ffb509"/><path d="m467.074219 367.519531c-16.816407 3.644531-34.152344 5.492188-51.535157 5.492188-64.910156 0-126.015624-25.1875-172.058593-70.921875-46.039063-45.730469-71.90625-106.910156-72.835938-172.265625-.058593-4.109375-3.40625-7.398438-7.5-7.398438-.035156 0-.074219 0-.109375 0-4.144531.058594-7.453125 3.464844-7.394531 7.609375.984375 69.304688 28.425781 134.1875 77.265625 182.699219 48.871094 48.546875 113.734375 75.28125 182.632812 75.28125 17.113282 0 34.191407-1.6875 50.832032-5.023437-21.636719 34.09375-51.457032 62.527343-86.441406 82.386718-37.238282 21.136719-79.675782 32.066406-122.695313 31.597656-65.078125-.703124-126.007813-26.648437-171.5625-73.046874-45.566406-46.414063-70.660156-108.113282-70.660156-173.726563 0-52.941406 16.386719-103.410156 47.386719-145.945313 29.601562-40.613281 69.914062-70.671874 116.777343-87.125-9.449219 20.734376-16.148437 42.636719-19.921875 65.15625-.6875 4.089844 2.070313 7.957032 6.160156 8.644532 4.082032.683594 7.953126-2.074219 8.640626-6.160156 3.761718-22.445313 10.601562-44.230469 20.332031-64.757813 2.296875-4.847656 1.484375-10.578125-2.074219-14.59375-3.539062-3.996094-9.09375-5.4882812-14.144531-3.804687-51.441407 17.144531-95.667969 49.582031-127.898438 93.804687-32.886719 45.121094-50.269531 98.644531-50.269531 154.78125 0 69.574219 26.621094 135.007813 74.960938 184.242187 48.355468 49.257813 113.027343 76.792969 182.109374 77.539063.9375.011719 1.867188.015625 2.804688.015625 44.714844 0 88.734375-11.582031 127.460938-33.566406 38.300781-21.742188 70.761718-53.160156 93.871093-90.863282 2.804688-4.578124 2.605469-10.363281-.503906-14.746093-3.085937-4.347657-8.433594-6.433594-13.628906-5.304688zm0 0"/><path d="m488.449219 80.414062c-1.828125-5.601562-6.570313-9.609374-12.382813-10.460937l-57.703125-8.445313c-.109375-.015624-.210937-.097656-.265625-.207031l-25.804687-52.683593c-2.605469-5.316407-7.886719-8.617188-13.789063-8.617188-5.898437 0-11.179687 3.300781-13.785156 8.617188l-25.804688 52.679687c-.058593.113281-.15625.191406-.269531.210937l-57.703125 8.445313c-5.808594.851563-10.554687 4.859375-12.382812 10.457031-1.832032 5.625-.355469 11.691406 3.859375 15.828125l41.753906 41.007813c.097656.097656.144531.25.121094.394531l-9.855469 57.902344c-1 5.851562 1.363281 11.640625 6.164062 15.113281 2.679688 1.9375 5.8125 2.921875 8.964844 2.921875 2.449219 0 4.910156-.59375 7.183594-1.796875l51.609375-27.335938c.09375-.046874.203125-.050781.292969 0l51.613281 27.335938c5.195313 2.753906 11.382813 2.320312 16.148437-1.125 4.796876-3.472656 7.160157-9.261719 6.164063-15.113281l-9.855469-57.902344c-.027344-.144531.019532-.296875.117188-.394531l4.078125-4c2.957031-2.902344 3.003906-7.652344.101562-10.613282-2.90625-2.957031-7.65625-3-10.613281-.097656l-4.078125 4.003906c-3.605469 3.539063-5.25 8.628907-4.402344 13.621094l9.859375 57.902344c.023438.136719.046875.277344-.164062.429688-.160156.117187-.214844.089843-.332032.027343l-51.613281-27.339843c-4.488281-2.378907-9.847656-2.375-14.339843 0l-51.609376 27.339843c-.117187.0625-.171874.089844-.332031-.027343-.210937-.152344-.1875-.292969-.164062-.429688l9.859375-57.902344c.847656-4.992187-.796875-10.082031-4.402344-13.621094l-41.753906-41.007812c-.089844-.089844-.191406-.191406-.105469-.464844.078125-.230468.175781-.246094.289063-.265625l57.707031-8.445312c5.011719-.734375 9.335937-3.898438 11.570312-8.457031l25.804688-52.679688c.0625-.128906.101562-.210938.308593-.210938.207032 0 .246094.082032.308594.210938l25.804688 52.679688c2.234375 4.5625 6.558594 7.722656 11.570312 8.457031l57.703125 8.445312c.113281.019531.214844.03125.289063.265625.089844.273438-.011719.375-.101563.464844l-4.539062 4.457031c-2.957031 2.902344-3 7.65625-.097657 10.613281 2.90625 2.957032 7.65625 3 10.613282.09375l4.539062-4.457031c4.210938-4.136719 5.6875-10.203125 3.851563-15.824219zm0 0"/></svg>