<svg height="512pt" viewBox="0 -21 512.00055 512" width="512pt" xmlns="http://www.w3.org/2000/svg"><path d="m22.832031 159.289062c-8.804687 0-15.839843 7.414063-15.273437 16.199219 8.34375 129.945313 116.386718 232.761719 248.441406 232.761719s240.097656-102.816406 248.441406-232.761719c.566406-8.785156-6.46875-16.199219-15.273437-16.199219zm0 0" fill="#57bf93"/><path d="m489.175781 159.292969c8.800781 0 15.835938 7.414062 15.269531 16.199219-8.34375 129.9375-116.386718 232.753906-248.445312 232.753906-28.011719 0-54.941406-4.625-80.0625-13.148438 15.980469 3.222656 32.507812 4.910156 49.429688 4.910156 134.730468 0 244.46875-107.03125 248.816406-240.714843zm0 0" fill="#1fb480"/><path d="m495.582031 227.21875c-8.734375 30.871094-23.277343 59.292969-42.363281 84.035156-6.796875 2.546875-14.957031 4.265625-25.9375 4.265625-42.824219 0-42.824219-26.097656-85.640625-26.097656-42.824219 0-42.824219 26.097656-85.652344 26.097656-42.8125 0-42.8125-26.097656-85.640625-26.097656-42.816406 0-42.816406 26.097656-85.640625 26.097656-10.980469 0-19.140625-1.71875-25.925781-4.265625-19.089844-24.742187-33.632812-53.164062-42.363281-84.035156 26.527343 5.820312 32.207031 24.359375 68.289062 24.359375 42.824219 0 42.824219-26.097656 85.640625-26.097656 42.828125 0 42.828125 26.097656 85.640625 26.097656 42.828125 0 42.828125-26.097656 85.652344-26.097656 42.816406 0 42.816406 26.097656 85.640625 26.097656 36.09375 0 41.773438-18.539063 68.300781-24.359375zm0 0" fill="#ffc143"/><path d="m271.046875 21.933594c-3.625-4.144532-7.25-8.289063-10.878906-12.433594-2.300781-2.628906-6.035157-2.628906-8.335938 0-3.351562 3.828125-7.964843 9.097656-10.882812 12.433594-13.246094 15.132812-29.933594 36.144531-28.847657 59.175781 1.199219 25.421875 24.058594 38 43.898438 38s42.699219-12.578125 43.898438-38c1.085937-23.03125-15.605469-44.042969-28.851563-59.175781zm0 0" fill="#ff4343"/><path d="m263.535156 70.441406c-1.816406-2.074218-3.632812-4.152344-5.449218-6.226562-1.152344-1.316406-3.019532-1.316406-4.175782 0-1.675781 1.917968-3.988281 4.558594-5.449218 6.226562-6.632813 7.578125-14.988282 18.101563-14.445313 29.636719.597656 12.734375 12.046875 19.03125 21.984375 19.03125 9.933594 0 21.382812-6.296875 21.984375-19.03125.542969-11.535156-7.8125-22.054687-14.449219-29.636719zm0 0" fill="#ffc143"/><g fill="#ff4343"><path d="m93.859375 205.269531c0 8.53125-6.917969 15.449219-15.449219 15.449219s-15.449218-6.917969-15.449218-15.449219 6.917968-15.445312 15.449218-15.445312 15.449219 6.914062 15.449219 15.445312zm0 0"/><path d="m449.039062 205.269531c0 8.53125-6.917968 15.449219-15.449218 15.449219s-15.449219-6.917969-15.449219-15.449219 6.917969-15.445312 15.449219-15.445312 15.449218 6.914062 15.449218 15.445312zm0 0"/><path d="m271.449219 202.113281c0 8.53125-6.917969 15.445313-15.449219 15.445313s-15.449219-6.914063-15.449219-15.445313 6.917969-15.449219 15.449219-15.449219 15.449219 6.917969 15.449219 15.449219zm0 0"/><path d="m357.058594 339.375c0 8.53125-6.917969 15.449219-15.449219 15.449219s-15.449219-6.917969-15.449219-15.449219 6.917969-15.449219 15.449219-15.449219 15.449219 6.917969 15.449219 15.449219zm0 0"/><path d="m185.835938 339.375c0 8.53125-6.914063 15.449219-15.445313 15.449219s-15.449219-6.917969-15.449219-15.449219 6.917969-15.449219 15.449219-15.449219 15.445313 6.917969 15.445313 15.449219zm0 0"/></g><path d="m461.738281 243.40625c-.019531.011719-.039062.019531-.070312.042969l-6.28125 3c-10.371094 24.96875-24.679688 47.882812-42.164063 67.964843 4.144532.703126 8.769532 1.105469 14.058594 1.105469 10.980469 0 19.140625-1.714843 25.9375-4.265625 1.191406-1.546875 2.367188-3.109375 3.519531-4.6875 12.042969-16.136718 22.5625-35.101562 30.121094-53.90625 2.617187-6.515625 4.953125-13.035156 7.015625-19.679687.59375-1.90625 1.164062-3.835938 1.707031-5.761719-14.804687 3.242188-23.113281 10.449219-33.84375 16.1875zm0 0" fill="#ffb509"/><path d="m427.394531 462.671875h-342.789062c-14.890625 0-26.957031-12.070313-26.957031-26.957031v-24.398438c0-14.886718 12.066406-26.957031 26.957031-26.957031h342.792969c14.886718 0 26.957031 12.070313 26.957031 26.957031v24.398438c-.003907 14.886718-12.070313 26.957031-26.960938 26.957031zm0 0" fill="#ff4343"/><path d="m427.394531 462.671875h-9.253906v-78.3125h9.253906c14.890625 0 26.957031 12.070313 26.957031 26.957031v24.398438c0 14.886718-12.066406 26.957031-26.957031 26.957031zm0 0" fill="#f72c2c"/><path d="m55.433594 205.269531c0 12.671875 10.308594 22.976563 22.976562 22.976563 12.667969 0 22.976563-10.304688 22.976563-22.976563 0-12.667969-10.308594-22.972656-22.976563-22.972656-12.667968 0-22.976562 10.304687-22.976562 22.972656zm30.898437 0c0 4.367188-3.554687 7.921875-7.921875 7.921875-4.367187 0-7.921875-3.554687-7.921875-7.921875 0-4.367187 3.554688-7.917969 7.921875-7.917969 4.367188 0 7.921875 3.550782 7.921875 7.917969zm0 0"/><path d="m456.566406 205.269531c0-12.667969-10.308594-22.972656-22.976562-22.972656-12.667969 0-22.976563 10.304687-22.976563 22.972656 0 12.671875 10.308594 22.976563 22.976563 22.976563 12.667968 0 22.976562-10.304688 22.976562-22.976563zm-30.898437 0c0-4.367187 3.554687-7.917969 7.921875-7.917969 4.367187 0 7.921875 3.550782 7.921875 7.917969 0 4.367188-3.554688 7.921875-7.921875 7.921875-4.367188 0-7.921875-3.554687-7.921875-7.921875zm0 0"/><path d="m233.023438 202.113281c0 12.667969 10.308593 22.976563 22.976562 22.976563s22.976562-10.308594 22.976562-22.976563-10.308593-22.976562-22.976562-22.976562-22.976562 10.308593-22.976562 22.976562zm30.898437 0c0 4.367188-3.554687 7.921875-7.921875 7.921875s-7.921875-3.554687-7.921875-7.921875c0-4.367187 3.554687-7.921875 7.921875-7.921875s7.921875 3.554688 7.921875 7.921875zm0 0"/><path d="m341.609375 316.398438c-12.667969 0-22.976563 10.308593-22.976563 22.976562s10.308594 22.976562 22.976563 22.976562 22.976563-10.308593 22.976563-22.976562-10.308594-22.976562-22.976563-22.976562zm0 30.898437c-4.367187 0-7.921875-3.554687-7.921875-7.921875 0-4.371094 3.554688-7.921875 7.921875-7.921875s7.921875 3.550781 7.921875 7.921875c0 4.367188-3.554688 7.921875-7.921875 7.921875zm0 0"/><path d="m170.386719 316.398438c-12.667969 0-22.972657 10.308593-22.972657 22.976562s10.304688 22.976562 22.972657 22.976562 22.976562-10.308593 22.976562-22.976562-10.304687-22.976562-22.976562-22.976562zm0 30.898437c-4.367188 0-7.917969-3.554687-7.917969-7.921875 0-4.371094 3.554688-7.921875 7.917969-7.921875 4.367187 0 7.921875 3.550781 7.921875 7.921875 0 4.367188-3.550782 7.921875-7.921875 7.921875zm0 0"/><path d="m511.953125 175.96875c.402344-6.226562-1.824219-12.417969-6.105469-16.984375-4.308594-4.589844-10.386718-7.222656-16.679687-7.222656h-113.0625c-4.15625 0-7.527344 3.367187-7.527344 7.527343 0 4.15625 3.371094 7.527344 7.527344 7.527344h113.0625c2.183593 0 4.203125.875 5.699219 2.46875 1.464843 1.5625 2.199218 3.597656 2.0625 5.71875-1.003907 15.675782-3.527344 31.066406-7.457032 46-9.605468 2.769532-16.542968 6.992188-23.28125 11.097656-10.523437 6.410157-19.613281 11.945313-38.910156 11.945313-19.300781 0-28.386719-5.539063-38.90625-11.949219-10.882812-6.628906-23.214844-14.144531-46.734375-14.144531-23.523437 0-35.859375 7.515625-46.742187 14.148437-10.519532 6.410157-19.609376 11.945313-38.910157 11.945313-19.292969 0-28.378906-5.535156-38.898437-11.945313-10.882813-6.632812-23.214844-14.148437-46.742188-14.148437-23.519531 0-35.851562 7.515625-46.730468 14.144531-10.523438 6.414063-19.609376 11.949219-38.910157 11.949219-19.292969 0-28.375-5.535156-38.898437-11.945313-6.738282-4.105468-13.679688-8.328124-23.28125-11.097656-3.929688-14.933594-6.453125-30.324218-7.457032-46-.136718-2.121094.59375-4.15625 2.0625-5.71875 1.492188-1.59375 3.515626-2.46875 5.695313-2.46875h306.441406c4.15625 0 7.527344-3.371094 7.527344-7.527344 0-4.160156-3.371094-7.527343-7.527344-7.527343h-65.742187v-25.648438c21.554687-2.941406 42.648437-18.371093 43.886718-44.648437 1.160157-24.585938-14.867187-46.398438-30.699218-64.488282l-10.882813-12.433593c-2.527343-2.886719-6.109375-4.542969-9.832031-4.542969s-7.308594 1.65625-9.832031 4.542969l-10.882813 12.433593c-15.832031 18.089844-31.863281 39.898438-30.703125 64.488282 1.242188 26.277344 22.335938 41.707031 43.890625 44.648437v25.648438h-225.640625c-6.292969 0-12.371093 2.632812-16.679687 7.222656-4.28125 4.566406-6.507813 10.757813-6.105469 16.984375 4.171875 64.953125 32.644531 125.363281 80.183594 170.109375 12.359375 11.640625 25.714843 21.90625 39.847656 30.753906h-35.472656c-19.015625 0-34.484375 15.46875-34.484375 34.484375v24.398438c0 19.015625 15.46875 34.484375 34.484375 34.484375h59.238281c4.15625 0 7.527344-3.371094 7.527344-7.527344 0-4.160156-3.371094-7.527344-7.527344-7.527344h-59.238281c-10.714844 0-19.429688-8.71875-19.429688-19.429687v-24.398438c0-10.714844 8.714844-19.429687 19.429688-19.429687h342.792969c10.710937 0 19.425781 8.714843 19.425781 19.429687v24.398438c0 10.714844-8.714844 19.429687-19.425781 19.429687h-236.882813c-4.160156 0-7.527344 3.367188-7.527344 7.527344 0 4.15625 3.367188 7.527344 7.527344 7.527344h236.878906c19.015625 0 34.484375-15.46875 34.484375-34.484375v-24.398438c0-19.015625-15.46875-34.484375-34.484375-34.484375h-35.46875c14.132813-8.847656 27.484375-19.117187 39.84375-30.753906 47.539063-44.746094 76.011719-105.15625 80.183594-170.109375zm-292.332031-95.210938c-.507813-10.804687 2.300781-25.652343 26.996094-53.867187l9.382812-10.722656 9.386719 10.722656c13.855469 15.832031 27.898437 34.617187 26.992187 53.867187-.257812 5.460938-2.378906 12.09375-6.863281 17.808594-.171875-12.847656-8.28125-23.902344-16.316406-33.082031l-5.445313-6.226563c-1.980468-2.261718-4.804687-3.558593-7.753906-3.558593-2.945312 0-5.773438 1.296875-7.753906 3.558593l-5.449219 6.226563c-8.035156 9.179687-16.140625 20.234375-16.3125 33.078125-4.480469-5.710938-6.605469-12.34375-6.863281-17.804688zm21.914062 18.964844c-.390625-8.304687 6.144532-16.957031 12.59375-24.324218l1.871094-2.140626 1.871094 2.140626c6.449218 7.367187 12.988281 16.015624 12.59375 24.328124-.410156 8.699219-8.875 11.855469-14.464844 11.855469s-14.054688-3.15625-14.464844-11.859375zm-178.164062 205.160156c-15.125-19.960937-26.976563-42.054687-35.214844-65.527343 3.410156 1.703125 6.574219 3.628906 9.820312 5.605469 10.882813 6.628906 23.214844 14.144531 46.730469 14.144531 23.527344 0 35.859375-7.515625 46.742188-14.148438 10.519531-6.410156 19.605469-11.949219 38.898437-11.949219 19.300782 0 28.390625 5.539063 38.910156 11.949219 10.878907 6.632813 23.210938 14.148438 46.734376 14.148438 23.523437 0 35.859374-7.515625 46.742187-14.148438 10.519531-6.410156 19.609375-11.949219 38.910156-11.949219 19.292969 0 28.378907 5.539063 38.898438 11.949219 10.882812 6.628907 23.214843 14.148438 46.742187 14.148438 23.523438 0 35.855469-7.515625 46.738282-14.144531 3.246093-1.976563 6.410156-3.902344 9.820312-5.605469-8.238281 23.472656-20.085938 45.5625-35.210938 65.523437-6.339843 2.113282-13.183593 3.113282-21.347656 3.113282-19.300781 0-28.386718-5.539063-38.910156-11.949219-10.878906-6.628907-23.214844-14.144531-46.734375-14.144531-23.523437 0-35.859375 7.515624-46.742187 14.144531-10.519532 6.414062-19.605469 11.949219-38.90625 11.949219-19.296876 0-28.378907-5.535157-38.898438-11.945313-10.882812-6.632813-23.21875-14.148437-46.746094-14.148437-23.519531 0-35.851562 7.515624-46.730468 14.144531-10.519532 6.414062-19.609376 11.949219-38.910157 11.949219-8.167969 0-15.007812-1-21.335937-3.109376zm358.082031 30.234376c-18.1875 17.125-38.648437 31.105468-60.648437 41.714843h-209.621094c-21.996094-10.605469-42.453125-24.59375-60.636719-41.714843-4.214844-3.964844-8.265625-8.0625-12.15625-12.277344 2.058594.125 4.152344.207031 6.316406.207031 23.527344 0 35.859375-7.515625 46.742188-14.148437 10.519531-6.410157 19.605469-11.945313 38.898437-11.945313 19.300782 0 28.390625 5.535156 38.910156 11.945313 10.878907 6.632812 23.210938 14.148437 46.734376 14.148437 23.523437 0 35.859374-7.515625 46.742187-14.148437 10.519531-6.410157 19.609375-11.945313 38.910156-11.945313 19.292969 0 28.378907 5.535156 38.898438 11.945313 10.882812 6.628906 23.214843 14.148437 46.742187 14.148437 2.167969 0 4.265625-.082031 6.324219-.210937-3.890625 4.21875-7.945313 8.316406-12.15625 12.28125zm0 0"/></svg>