<svg height="512pt" viewBox="-1 0 512 512" width="512pt" xmlns="http://www.w3.org/2000/svg"><path d="m300.191406 38.324219h-29.679687v-26.511719c0-2.375-1.925781-4.300781-4.300781-4.300781h-22.621094c-2.375 0-4.300782 1.925781-4.300782 4.300781v26.511719h-29.675781c-2.375 0-4.300781 1.925781-4.300781 4.300781v18.316406c0 2.375 1.925781 4.300782 4.300781 4.300782h29.675781v64.433593h31.226563v-64.433593h29.675781c2.375 0 4.300782-1.925782 4.300782-4.300782v-18.316406c0-2.375-1.925782-4.300781-4.300782-4.300781zm0 0" fill="#575f64"/><path d="m304.488281 42.625v8.054688h-38.773437c-4.558594 0-8.25-3.691407-8.25-8.246094v-34.921875h8.746094c2.375 0 4.300781 1.925781 4.300781 4.300781v26.511719h29.675781c2.375 0 4.300781 1.925781 4.300781 4.300781zm0 0" fill="#474f54"/><path d="m254.910156 159.488281-133.363281 63.78125v281.222657h266.726563v-281.222657zm0 0" fill="#efe2dd"/><path d="m388.269531 223.269531v281.222657h-31.773437v-296.421876zm0 0" fill="#e1d3ce"/><path d="m250.640625 117.042969-157.9375 74.433593c-3.628906 1.710938-5.949219 5.363282-5.949219 9.378907v21.921875c0 7.503906 7.726563 12.523437 14.582032 9.476562l20.210937-8.984375 129.042969-61.714843c2.730468-1.308594 5.910156-1.308594 8.640625 0l129.042969 61.714843 20.210937 8.984375c6.855469 3.046875 14.582031-1.972656 14.582031-9.476562v-21.921875c0-4.015625-2.320312-7.667969-5.949218-9.378907l-157.9375-74.433593c-2.703126-1.273438-5.835938-1.273438-8.539063 0zm0 0" fill="#ff4343"/><path d="m423.066406 200.859375v21.917969c0 7.503906-7.722656 12.523437-14.578125 9.476562l-16.191406-7.191406v-45.28125l24.820313 11.695312c3.632812 1.710938 5.949218 5.367188 5.949218 9.382813zm0 0" fill="#f72c2c"/><path d="m121.546875 313.625-99.804687 47.730469v143.136719h99.804687zm0 0" fill="#cdbfba"/><path d="m22.355469 361.0625 99.191406-47.4375v-38.011719l-108.03125 50.097657c-3.660156 1.703124-6.003906 5.371093-6.003906 9.410156v16.589844c0 7.628906 7.960937 12.644531 14.84375 9.351562zm0 0" fill="#ff4343"/><path d="m388.699219 313.625 99.800781 47.730469v143.136719h-99.800781zm0 0" fill="#cdbfba"/><path d="m488.503906 361.351562v143.140626h-21.199218v-153.28125zm0 0" fill="#b9acac"/><path d="m487.890625 361.0625-99.191406-47.4375v-38.011719l108.027343 50.101563c3.664063 1.699218 6.007813 5.367187 6.007813 9.40625v16.589844c0 7.628906-7.960937 12.644531-14.84375 9.351562zm0 0" fill="#ff4343"/><path d="m502.734375 335.121094v16.582031c0 7.632813-7.964844 12.648437-14.847656 9.355469l-9.808594-4.691406v-39.304688l18.648437 8.652344c3.660157 1.699218 6.007813 5.367187 6.007813 9.40625zm0 0" fill="#f72c2c"/><path d="m323.03125 504.492188h-136.257812v-144.191407c0-37.625 30.503906-68.125 68.128906-68.125s68.125 30.5 68.125 68.125v144.191407zm0 0" fill="#ff4343"/><path d="m323.035156 360.300781v144.191407h-30.773437v-144.191407c0-18.8125-7.621094-35.847656-19.957031-48.171875-8.859376-8.863281-20.144532-15.292968-32.78125-18.214844 4.945312-1.140624 10.09375-1.742187 15.378906-1.742187 18.816406 0 35.847656 7.628906 48.175781 19.957031 12.324219 12.324219 19.957031 29.359375 19.957031 48.171875zm0 0" fill="#f72c2c"/><path d="m285.667969 230.855469c0 16.992187-13.773438 30.765625-30.765625 30.765625-16.992188 0-30.765625-13.773438-30.765625-30.765625 0-16.992188 13.773437-30.765625 30.765625-30.765625 16.992187 0 30.765625 13.773437 30.765625 30.765625zm0 0" fill="#ffc143"/><path d="m285.664062 230.847656c0 16.996094-13.769531 30.773438-30.761718 30.773438-6.507813 0-12.554688-2.023438-17.523438-5.488282 16.390625-.679687 29.46875-14.1875 29.46875-30.742187 0-10.472656-5.234375-19.726563-13.238281-25.273437.433594-.019532.863281-.027344 1.292969-.027344 16.992187 0 30.761718 13.777344 30.761718 30.757812zm0 0" fill="#ffb509"/><path d="m388.699219 420.855469h99.800781v83.636719h-99.800781zm0 0" fill="#575f64"/><path d="m467.304688 420.855469h21.195312v83.636719h-21.195312zm0 0" fill="#474f54"/><path d="m21.773438 420.855469h99.773437v83.636719h-99.773437zm0 0" fill="#575f64"/><path d="m216.625 230.855469c0 21.105469 17.171875 38.273437 38.277344 38.273437 21.105468 0 38.277344-17.167968 38.277344-38.273437s-17.171876-38.277344-38.277344-38.277344c-21.105469 0-38.277344 17.171875-38.277344 38.277344zm61.53125 0c0 12.820312-10.429688 23.253906-23.253906 23.253906-12.824219 0-23.257813-10.433594-23.257813-23.253906 0-12.824219 10.433594-23.257813 23.257813-23.257813 12.824218 0 23.253906 10.433594 23.253906 23.257813zm0 0"/><path d="m499.886719 318.902344-104.101563-48.28125v-35.792969l9.648438 4.289063c2.332031 1.035156 4.808594 1.546874 7.269531 1.546874 3.402344 0 6.78125-.976562 9.738281-2.894531 5.09375-3.3125 8.132813-8.917969 8.132813-14.992187v-21.921875c0-6.890625-4.023438-13.238281-10.257813-16.175781l-142.292968-67.054688v-44.875h22.167968c6.511719 0 11.808594-5.296875 11.808594-11.808594v-18.316406c0-6.511719-5.296875-11.808594-11.808594-11.808594h-22.167968v-19.003906c0-6.515625-5.296876-11.8125-11.8125-11.8125h-22.621094c-6.511719 0-11.808594 5.296875-11.808594 11.8125v19.003906h-22.167969c-6.511719 0-11.8125 5.296875-11.8125 11.808594v18.316406c0 6.511719 5.300781 11.808594 11.8125 11.808594h22.167969v44.878906l-64.277344 30.292969c-3.753906 1.769531-5.359375 6.242187-3.59375 9.996094 1.769532 3.75 6.246094 5.359375 9.996094 3.589843l79.9375-37.671874c.675781-.316407 1.453125-.316407 2.132812 0l157.9375 74.429687c.996094.472656 1.640626 1.488281 1.640626 2.589844v21.921875c0 1.347656-.816407 2.082031-1.300782 2.398437-.488281.3125-1.488281.761719-2.722656.214844l-20.113281-8.941406-133.265625-63.734375c-2.050782-.980469-4.433594-.980469-6.484375 0l-46.929688 22.445312-86.335937 41.289063-20.113282 8.941406c-1.238281.546875-2.234374.101563-2.722656-.214844-.484375-.316406-1.300781-1.050781-1.300781-2.398437v-21.921875c0-1.101563.644531-2.117188 1.640625-2.589844l35.757812-16.851563c3.75-1.765624 5.359376-6.242187 3.589844-9.992187-1.769531-3.753906-6.238281-5.363281-9.992187-3.59375l-35.757813 16.851563c-6.230468 2.9375-10.257812 9.285156-10.257812 16.175781v21.921875c0 6.074218 3.039062 11.679687 8.136718 14.992187 5.09375 3.3125 11.453126 3.8125 17.003907 1.347657l9.648437-4.289063v35.988281l-103.675781 48.085938c-6.292969 2.914062-10.359375 9.28125-10.359375 16.21875v16.585937c0 6.179688 3.121094 11.832031 8.347656 15.128907 1.839844 1.160156 3.832032 1.957031 5.886719 2.386718v135.265625c0 4.148438 3.359375 7.511719 7.507813 7.511719h366.53125c.074218 0 .140624-.007812.214843-.011719.070313.003907.136719.011719.210938.011719h99.800781c4.148438 0 7.511719-3.363281 7.511719-7.511719v-135.265625c2.050781-.429687 4.042969-1.226562 5.886719-2.386718 5.226562-3.296876 8.347656-8.949219 8.347656-15.128907v-16.585937c-.003906-6.9375-4.066406-13.304688-10.359375-16.21875zm-236.882813-253.660156v45.300781l-.625-.292969c-4.746094-2.234375-10.191406-2.234375-14.9375 0l-.640625.300781v-45.308593c0-4.148438-3.363281-7.511719-7.511719-7.511719h-26.464843v-11.894531h26.464843c4.148438 0 7.511719-3.363282 7.511719-7.511719v-23.304688h16.203125v23.304688c0 4.148437 3.359375 7.511719 7.507813 7.511719h26.46875v11.894531h-26.46875c-4.144531 0-7.507813 3.363281-7.507813 7.511719zm-148.96875 431.738281h-84.753906v-68.613281h84.753906zm0-83.636719h-84.78125v-47.253906l84.78125-40.546875zm0-104.453125-94.921875 45.398437c-1.234375.589844-2.257812.152344-2.757812-.160156-.5-.316406-1.335938-1.046875-1.335938-2.421875v-16.585937c0-1.109375.648438-2.128906 1.65625-2.59375l97.359375-45.152344zm266.730469 188.089844h-50.226563v-116.984375c0-4.148438-3.359374-7.511719-7.507812-7.511719s-7.511719 3.363281-7.511719 7.511719v116.984375h-121.234375v-136.679688c0-33.421875 27.191406-60.617187 60.617188-60.617187 24.417968 0 46.34375 14.535156 55.855468 37.027344 1.617188 3.820312 6.023438 5.605468 9.84375 3.988281 3.820313-1.613281 5.605469-6.019531 3.988282-9.839844-11.867188-28.0625-39.222656-46.195313-69.6875-46.195313-41.707032 0-75.640625 33.929688-75.640625 75.636719v136.679688h-50.207031v-268.976563l10.152343-4.855468 114.621094-54.816407c.6875-.332031 1.476563-.328125 2.160156-.003906l124.773438 59.675781v268.976563zm100.226563 0h-84.785157v-68.613281h84.785157zm0-83.636719h-84.785157v-87.804688l84.785157 40.550782zm14.230468-61.636719c0 1.375-.835937 2.105469-1.332031 2.421875-.503906.3125-1.523437.75-2.761719.160156l-94.921875-45.398437v-21.515625l97.359375 45.152344c1.007813.464844 1.65625 1.484375 1.65625 2.59375zm0 0"/></svg>