<svg height="511pt" viewBox="-103 1 511 511.999" width="511pt" xmlns="http://www.w3.org/2000/svg"><path d="m84.859375 504.480469h-43.117187c-2.316407 0-4.191407-1.878907-4.191407-4.195313v-64.699218h51.503907v64.699218c0 2.316406-1.878907 4.195313-4.195313 4.195313zm0 0" fill="#845f3f"/><path d="m269.316406 504.480469h-47.3125c-2.316406 0-4.191406-1.878907-4.191406-4.195313v-64.699218h51.503906zm0 0" fill="#845f3f"/><path d="m265.121094 504.480469h-19.398438v-68.894531h23.59375v64.699218c0 2.316406-1.878906 4.195313-4.195312 4.195313zm0 0" fill="#795639"/><path d="m84.859375 504.480469h-19.398437v-68.894531h23.59375v64.699218c0 2.316406-1.878907 4.195313-4.195313 4.195313zm0 0" fill="#795639"/><path d="m294.652344 434.863281h-282.441406c-2.3125 0-4.191407-1.878906-4.191407-4.195312v-47.808594c0-2.316406 1.878907-4.195313 4.191407-4.195313h282.441406c2.316406 0 4.191406 1.878907 4.191406 4.195313v47.808594c0 2.316406-1.875 4.195312-4.191406 4.195312zm0 0" fill="#845f3f"/><path d="m294.652344 434.863281h-23.75v-56.199219h23.75c2.316406 0 4.191406 1.878907 4.191406 4.195313v47.808594c0 2.316406-1.875 4.195312-4.191406 4.195312zm0 0" fill="#795639"/><path d="m166.773438 20.289062c-3.214844-3.671874-6.429688-7.347656-9.644532-11.019531-2.042968-2.332031-5.351562-2.332031-7.390625 0-2.972656 3.394531-7.0625 8.066407-9.648437 11.019531-11.742188 13.417969-26.535156 32.046876-25.574219 52.464844 1.0625 22.535156 21.328125 33.6875 38.917969 33.6875 17.585937-.003906 37.851562-11.152344 38.914062-33.6875.964844-20.417968-13.832031-39.046875-25.574218-52.464844zm0 0" fill="#ffc143"/><path d="m192.34375 72.757812c-1.0625 22.527344-21.324219 33.6875-38.910156 33.6875h-.089844c11.007812-5.074218 19.921875-14.9375 20.613281-29.675781.960938-20.425781-13.835937-39.054687-25.578125-52.46875-1.972656-2.246093-3.9375-4.5-5.90625-6.746093 2.347656-2.667969 5.105469-5.816407 7.261719-8.285157 2.042969-2.335937 5.351563-2.335937 7.398437 0 3.207032 3.671875 6.425782 7.351563 9.644532 11.019531 11.742187 13.414063 26.527344 32.042969 25.566406 52.46875zm0 0" fill="#ffb509"/><path d="m61.140625 177.09375h184.582031v201.570312h-184.582031zm0 0" fill="#efe2dd"/><path d="m216.421875 177.09375h29.300781v201.570312h-29.300781zm0 0" fill="#e1d3ce"/><path d="m35.964844 175.613281c0 17.632813 14.292968 31.929688 31.929687 31.929688h135.683594c3.4375 0 6.222656 2.785156 6.222656 6.222656v24.328125c0 16.871094 13.679688 30.546875 30.550781 30.546875 16.871094 0 30.550782-13.675781 30.550782-30.546875v-62.480469c0-17.636719-14.296875-31.933593-31.933594-31.933593h-171.074219c-17.632812 0-31.929687 14.296874-31.929687 31.933593zm0 0" fill="#cdbfba"/><path d="m270.898438 175.613281v62.476563c0 8.441406-3.417969 16.070312-8.941407 21.605468-5.535156 5.523438-13.175781 8.941407-21.605469 8.941407-4.140624 0-8.101562-.820313-11.699218-2.324219 3.726562-1.546875 7.085937-3.8125 9.894531-6.617188 5.535156-5.535156 8.953125-13.164062 8.953125-21.605468v-62.476563c0-17.632812-14.296875-31.929687-31.933594-31.929687h23.402344c17.632812 0 31.929688 14.296875 31.929688 31.929687zm0 0" fill="#b9acac"/><path d="m294.652344 371.144531h-41.410156v-97.234375c14.664062-5.296875 25.179687-19.351562 25.179687-35.816406v-8.164062c0-4.152344-3.367187-7.519532-7.519531-7.519532-4.15625 0-7.523438 3.367188-7.523438 7.519532v8.164062c0 12.695312-10.328125 23.027344-23.027344 23.027344-12.699218 0-23.03125-10.332032-23.03125-23.027344v-24.328125c0-7.578125-6.164062-13.742187-13.742187-13.742187h-135.683594c-13.460937 0-24.410156-10.949219-24.410156-24.410157 0-13.460937 10.949219-24.414062 24.410156-24.414062h171.074219c13.460938 0 24.414062 10.953125 24.414062 24.414062v7.695313c0 4.15625 3.363282 7.519531 7.519532 7.519531 4.152344 0 7.519531-3.363281 7.519531-7.519531v-7.695313c0-21.753906-17.699219-39.453125-39.453125-39.453125h-78.015625v-22.777344c19.207031-2.902343 37.800781-16.804687 38.90625-40.277343 1.042969-22.097657-13.28125-41.601563-27.425781-57.769531l-9.644532-11.019532c-2.402343-2.742187-5.8125-4.316406-9.355468-4.316406-3.542969 0-6.953125 1.574219-9.355469 4.316406l-9.644531 11.019532c-14.148438 16.167968-28.46875 35.671874-27.429688 57.769531 1.109375 23.472656 19.699219 37.375 38.910156 40.277343v22.777344h-78.019531c-21.753906 0-39.449219 17.699219-39.449219 39.453125 0 16.71875 10.460938 31.03125 25.175782 36.765625v158.765625h-41.410156c-6.457032 0-11.710938 5.253907-11.710938 11.714844v47.808594c0 6.460937 5.253906 11.714843 11.710938 11.714843h17.820312v57.902344c0 6.460938 5.253906 11.714844 11.710938 11.714844h43.117187c6.457031 0 11.710937-5.253906 11.710937-11.714844v-57.902344h13.078126c4.152343 0 7.519531-3.367187 7.519531-7.523437 0-4.152344-3.363281-7.519531-7.519531-7.519531h-94.109376v-41.15625h275.785157v41.15625h-133.546875c-4.152344 0-7.519532 3.367187-7.519532 7.519531 0 4.15625 3.363282 7.523437 7.519532 7.523437h52.515625v57.902344c0 6.460938 5.253906 11.714844 11.710937 11.714844h47.3125c4.152344 0 7.519532-3.367188 7.519532-7.519531v-62.101563h17.816406c6.457031 0 11.710937-5.253906 11.710937-11.710937v-47.8125c.003907-6.457031-5.253906-11.710938-11.710937-11.710938zm-172.625-298.746093c-.441406-9.40625 2.027344-22.367188 23.722656-47.15625l7.683594-8.777344 7.683594 8.777344c12.171874 13.910156 24.511718 30.390624 23.71875 47.15625-.5 10.660156-9.28125 26.523437-31.402344 26.523437-22.125 0-30.902344-15.863281-31.40625-26.523437zm-76.957032 370.707031h36.464844v53.855469h-36.464844zm193.132813-71.960938h-169.542969v-156.082031h133.621094v23.03125c0 20.269531 15.925781 36.886719 35.921875 38.003906zm23.59375 125.816407h-36.464844v-53.855469h36.464844zm0 0"/></svg>