<svg height="512pt" viewBox="0 -72 512 512" width="512pt" xmlns="http://www.w3.org/2000/svg"><path d="m256 359.992188h-232.257812c-8.984376 0-16.261719-7.28125-16.261719-16.261719v-215.066407c0-66.929687 54.253906-121.183593 121.179687-121.183593h6.15625c66.929688 0 121.183594 54.253906 121.183594 121.183593zm0 0" fill="#929298"/><path d="m488.257812 359.992188h-232.257812v-231.328126c0-66.929687 54.253906-121.183593 121.183594-121.183593h6.15625c66.925781 0 121.179687 54.253906 121.179687 121.183593v215.066407c0 8.980469-7.277343 16.261719-16.261719 16.261719zm0 0" fill="#929298"/><path d="m504.523438 128.671875v215.058594c0 8.980469-7.28125 16.261719-16.261719 16.261719h-11.160157v-231.332032c0-63.332031-48.605468-115.328125-110.550781-120.710937 3.5-.308594 7.050781-.46875 10.628907-.46875h6.15625c66.929687 0 121.1875 54.257812 121.1875 121.191406zm0 0" fill="#7c7c84"/><path d="m383.339844 0h-6.15625c-21.410156 0-42.613282 5.367188-61.3125 15.523438-3.632813 1.972656-4.976563 6.511718-3.003906 10.140624 1.96875 3.632813 6.511718 4.976563 10.140624 3.003907 16.515626-8.96875 35.25-13.707031 54.175782-13.707031h6.15625c62.695312 0 113.703125 51.003906 113.703125 113.703124v215.066407c0 4.84375-3.941407 8.785156-8.785157 8.785156h-224.777343v-223.851563c0-26.355468 9.222656-52.042968 25.964843-72.332031 2.632813-3.183593 2.179688-7.898437-1.003906-10.527343-3.1875-2.632813-7.902344-2.179688-10.53125 1.007812-9.542968 11.558594-16.921875 24.667969-21.902344 38.644531-17.792968-49.757812-65.398437-85.457031-121.191406-85.457031h-6.15625c-70.941406 0-128.660156 57.71875-128.660156 128.664062v59.558594c0 4.132813 3.347656 7.480469 7.480469 7.480469 4.128906 0 7.476562-3.347656 7.476562-7.480469v-59.558594c0-62.699218 51.007813-113.703124 113.703125-113.703124h6.15625c62.695313 0 113.703125 51.003906 113.703125 113.703124v223.851563h-224.777343c-4.84375 0-8.785157-3.941406-8.785157-8.785156v-108.140625c0-4.128906-3.347656-7.476563-7.476562-7.476563-4.132813 0-7.480469 3.347657-7.480469 7.476563v108.140625c0 13.089843 10.648438 23.742187 23.742188 23.742187h464.515624c13.09375 0 23.742188-10.652344 23.742188-23.742187v-215.066407c0-70.945312-57.71875-128.664062-128.660156-128.664062zm0 0"/><path d="m115.785156 82.699219h8.476563v18.269531c0 4.128906 3.347656 7.476562 7.476562 7.476562 4.132813 0 7.480469-3.347656 7.480469-7.476562v-18.269531h8.476562c4.128907 0 7.476563-3.347657 7.476563-7.476563 0-4.132812-3.347656-7.480468-7.476563-7.480468h-8.476562v-6.664063c0-4.128906-3.347656-7.476563-7.480469-7.476563-4.128906 0-7.476562 3.347657-7.476562 7.476563v6.664063h-8.476563c-4.132812 0-7.480468 3.347656-7.480468 7.480468 0 4.128906 3.347656 7.476563 7.480468 7.476563zm0 0"/><path d="m54.953125 160.800781h69.804687c4.132813 0 7.480469-3.347656 7.480469-7.480469 0-4.128906-3.347656-7.476562-7.480469-7.476562h-69.804687c-4.128906 0-7.476563 3.347656-7.476563 7.476562 0 4.132813 3.347657 7.480469 7.476563 7.480469zm0 0"/><path d="m184.71875 160.886719 20.9375.351562c.042969.003907.085938.003907.128906.003907 4.070313 0 7.40625-3.265626 7.476563-7.355469.066406-4.128907-3.222657-7.535157-7.351563-7.601563l-20.941406-.355468c-.042969 0-.085938 0-.128906 0-4.070313 0-7.40625 3.265624-7.472656 7.351562-.070313 4.128906 3.21875 7.535156 7.351562 7.605469zm0 0"/><path d="m205.882812 292.875-26.175781-.355469c-.035156 0-.070312 0-.105469 0-4.082031 0-7.417968 3.28125-7.476562 7.378907-.054688 4.128906 3.25 7.523437 7.378906 7.578124l26.175782.355469h.105468c4.082032 0 7.421875-3.28125 7.476563-7.378906.054687-4.128906-3.246094-7.523437-7.378907-7.578125zm0 0"/><path d="m54.953125 195.703125h53.851563c4.128906 0 7.476562-3.347656 7.476562-7.480469 0-4.128906-3.347656-7.476562-7.476562-7.476562h-53.851563c-4.128906 0-7.476563 3.347656-7.476563 7.476562 0 4.132813 3.347657 7.480469 7.476563 7.480469zm0 0"/><path d="m54.953125 272.488281h40.886719c4.128906 0 7.480468-3.347656 7.480468-7.480469 0-4.128906-3.351562-7.476562-7.480468-7.476562h-40.886719c-4.128906 0-7.476563 3.347656-7.476563 7.476562 0 4.132813 3.347657 7.480469 7.476563 7.480469zm0 0"/><path d="m208.523438 181.742188c-.015626 0-.03125 0-.050782 0l-66.554687.453124c-4.128907.03125-7.457031 3.402344-7.425781 7.53125.027343 4.113282 3.371093 7.429688 7.476562 7.429688h.050781l66.554688-.457031c4.132812-.027344 7.457031-3.398438 7.429687-7.527344-.027344-4.113281-3.371094-7.429687-7.480468-7.429687zm0 0"/><path d="m141.210938 153.320312c0 4.132813 3.351562 7.480469 7.480468 7.480469h10.96875c4.132813 0 7.480469-3.347656 7.480469-7.480469 0-4.128906-3.347656-7.476562-7.480469-7.476562h-10.96875c-4.128906 0-7.480468 3.347656-7.480468 7.476562zm0 0"/><path d="m205.78125 257.53125h-10.96875c-4.128906 0-7.480469 3.347656-7.480469 7.476562 0 4.132813 3.351563 7.480469 7.480469 7.480469h10.96875c4.132812 0 7.480469-3.347656 7.480469-7.480469 0-4.128906-3.347657-7.476562-7.480469-7.476562zm0 0"/><path d="m178.109375 265.007812c0-4.128906-3.347656-7.476562-7.480469-7.476562h-51.851562c-4.132813 0-7.480469 3.347656-7.480469 7.476562 0 4.132813 3.347656 7.480469 7.480469 7.480469h51.851562c4.132813 0 7.480469-3.347656 7.480469-7.480469zm0 0"/><path d="m54.953125 234.59375h10.96875c4.132813 0 7.480469-3.347656 7.480469-7.476562 0-4.132813-3.347656-7.480469-7.480469-7.480469h-10.96875c-4.128906 0-7.476563 3.347656-7.476563 7.480469 0 4.128906 3.347657 7.476562 7.476563 7.476562zm0 0"/><path d="m82.378906 227.117188c0 4.128906 3.347656 7.476562 7.476563 7.476562h51.855469c4.132812 0 7.480468-3.347656 7.480468-7.476562 0-4.132813-3.347656-7.480469-7.480468-7.480469h-51.855469c-4.128907 0-7.476563 3.347656-7.476563 7.480469zm0 0"/><path d="m208.523438 219.636719h-40.882813c-4.132813 0-7.480469 3.347656-7.480469 7.480469 0 4.128906 3.347656 7.476562 7.480469 7.476562h40.882813c4.132812 0 7.480468-3.347656 7.480468-7.476562 0-4.132813-3.347656-7.480469-7.480468-7.480469zm0 0"/><path d="m153.679688 292.433594h-98.726563c-4.128906 0-7.476563 3.347656-7.476563 7.476562 0 4.132813 3.347657 7.480469 7.476563 7.480469h98.726563c4.128906 0 7.476562-3.347656 7.476562-7.480469 0-4.128906-3.347656-7.476562-7.476562-7.476562zm0 0"/><path d="m364.304688 82.699219h8.476562v18.269531c0 4.128906 3.347656 7.476562 7.480469 7.476562 4.128906 0 7.476562-3.347656 7.476562-7.476562v-18.269531h8.476563c4.132812 0 7.480468-3.347657 7.480468-7.476563 0-4.132812-3.347656-7.480468-7.480468-7.480468h-8.476563v-6.664063c0-4.128906-3.347656-7.476563-7.476562-7.476563-4.132813 0-7.480469 3.347657-7.480469 7.476563v6.664063h-8.476562c-4.128907 0-7.476563 3.347656-7.476563 7.480468 0 4.128906 3.347656 7.476563 7.476563 7.476563zm0 0"/><path d="m373.28125 292.875h-69.804688c-4.132812 0-7.480468 3.347656-7.480468 7.476562 0 4.132813 3.347656 7.480469 7.480468 7.480469h69.804688c4.128906 0 7.476562-3.347656 7.476562-7.480469 0-4.128906-3.347656-7.476562-7.476562-7.476562zm0 0"/><path d="m454.175781 292.433594-20.9375.355468c-4.128906.066407-7.421875 3.472657-7.351562 7.601563.070312 4.089844 3.40625 7.355469 7.476562 7.355469.042969 0 .085938 0 .128907-.003906l20.9375-.351563c4.132812-.070313 7.421874-3.476563 7.351562-7.605469s-3.453125-7.417968-7.605469-7.351562zm0 0"/><path d="m428.125 161.15625c.035156 0 .070312 0 .101562-.003906l26.179688-.351563c4.128906-.058593 7.433594-3.449219 7.375-7.582031-.054688-4.09375-3.390625-7.375-7.476562-7.375-.03125 0-.066407 0-.101563 0l-26.179687.355469c-4.128907.054687-7.429688 3.449219-7.375 7.578125.054687 4.097656 3.394531 7.378906 7.476562 7.378906zm0 0"/><path d="m303.476562 272.929688h53.847657c4.132812 0 7.480469-3.347657 7.480469-7.480469 0-4.128907-3.347657-7.476563-7.480469-7.476563h-53.847657c-4.132812 0-7.480468 3.347656-7.480468 7.476563 0 4.132812 3.347656 7.480469 7.480468 7.480469zm0 0"/><path d="m303.476562 196.144531h40.882813c4.132813 0 7.480469-3.347656 7.480469-7.480469 0-4.128906-3.347656-7.476562-7.480469-7.476562h-40.882813c-4.132812 0-7.480468 3.347656-7.480468 7.476562 0 4.132813 3.347656 7.480469 7.480468 7.480469zm0 0"/><path d="m457.097656 256.972656-66.554687-.453125c-.019531 0-.035157 0-.050781 0-4.109376 0-7.453126 3.3125-7.480469 7.425781-.027344 4.132813 3.300781 7.503907 7.429687 7.53125l66.554688.457032h.050781c4.105469 0 7.449219-3.316406 7.476563-7.429688.03125-4.128906-3.296876-7.503906-7.425782-7.53125zm0 0"/><path d="m408.183594 292.875h-10.96875c-4.132813 0-7.480469 3.347656-7.480469 7.476562 0 4.132813 3.347656 7.480469 7.480469 7.480469h10.96875c4.128906 0 7.476562-3.347656 7.476562-7.480469 0-4.128906-3.347656-7.476562-7.476562-7.476562zm0 0"/><path d="m454.304688 181.1875h-10.96875c-4.132813 0-7.480469 3.347656-7.480469 7.476562 0 4.132813 3.347656 7.480469 7.480469 7.480469h10.96875c4.128906 0 7.476562-3.347656 7.476562-7.480469 0-4.128906-3.347656-7.476562-7.476562-7.476562zm0 0"/><path d="m359.816406 188.664062c0 4.132813 3.351563 7.480469 7.480469 7.480469h51.855469c4.128906 0 7.480468-3.347656 7.480468-7.480469 0-4.128906-3.351562-7.476562-7.480468-7.476562h-51.855469c-4.128906 0-7.480469 3.347656-7.480469 7.476562zm0 0"/><path d="m303.476562 234.039062h10.96875c4.128907 0 7.480469-3.347656 7.480469-7.480468 0-4.132813-3.351562-7.480469-7.480469-7.480469h-10.96875c-4.132812 0-7.480468 3.347656-7.480468 7.480469 0 4.132812 3.347656 7.480468 7.480468 7.480468zm0 0"/><path d="m338.378906 219.078125c-4.132812 0-7.480468 3.347656-7.480468 7.480469 0 4.132812 3.347656 7.480468 7.480468 7.480468h51.855469c4.128906 0 7.476563-3.347656 7.476563-7.480468 0-4.132813-3.347657-7.480469-7.476563-7.480469zm0 0"/><path d="m416.160156 219.078125c-4.128906 0-7.480468 3.347656-7.480468 7.480469 0 4.132812 3.351562 7.480468 7.480468 7.480468h40.886719c4.128906 0 7.476563-3.347656 7.476563-7.480468 0-4.132813-3.347657-7.480469-7.476563-7.480469zm0 0"/><path d="m303.476562 161.242188h98.722657c4.128906 0 7.480469-3.347657 7.480469-7.480469 0-4.128907-3.351563-7.476563-7.480469-7.476563h-98.722657c-4.132812 0-7.480468 3.347656-7.480468 7.476563 0 4.132812 3.347656 7.480469 7.480468 7.480469zm0 0"/></svg>