<svg height="512pt" viewBox="0 -101 512.00038 512" width="512pt" xmlns="http://www.w3.org/2000/svg"><path d="m446.308594 154.714844c-60.191406 100.722656-144.410156 153.113281-235.464844 147.289062-18.617188-1.191406-37.148438-5.554687-55.210938-12.5-55.550781-21.367187-105.6875-67.886718-146.5625-128.898437-1.019531-1.523438-1.589843-3.621094-1.589843-5.804688 0-2.183593.570312-4.285156 1.589843-5.808593 40.875-61.011719 91.011719-107.53125 146.5625-128.898438 64.707032-24.886719 141.027344-10.335938 196.738282 29.054688 30.429687 21.515624 53.3125 46.371093 74.914062 76.609374 4.808594 6.730469 9.957032 14.441407 14.535156 21.773438 1.484376 2.378906 2.8125 4.9375 4.488282 7.183594zm0 0" fill="#0396fd"/><path d="m446.3125 154.71875c-60.191406 100.714844-144.414062 153.109375-235.464844 147.285156-18.621094-1.1875-37.152344-5.554687-55.214844-12.496094-31.796874-12.238281-61.820312-32.714843-89.359374-59.425781 22.652343 18.710938 46.699218 33.363281 71.824218 43.027344 18.628906 7.160156 37.742188 11.660156 56.953125 12.886719 92.765625 5.941406 178.640625-46.699219 240.5625-148.105469 2.132813 3.210937 4.21875 6.453125 6.203125 9.636719 1.484375 2.382812 2.820313 4.945312 4.496094 7.191406zm0 0" fill="#0077f0"/><path d="m476.910156 197.175781c-6.886718-14.785156-14.214844-28.804687-21.960937-42.050781 7.746093-13.242188 15.074219-27.261719 21.960937-42.046875 15.605469-33.507813 27.003906-64.523437 34.847656-94.820313 1.035157-4-1.367187-8.082031-5.367187-9.117187s-8.082031 1.367187-9.117187 5.367187c-7.609376 29.40625-18.707032 59.582032-33.925782 92.253907-5.480468 11.769531-11.25 23.035156-17.292968 33.789062-60.78125-95.519531-144.375-145.941406-235.691407-140.09375-18.832031 1.203125-38.148437 5.574219-57.417969 12.984375-54.503906 20.964844-106.402343 66.511719-150.085937 131.714844-1.84375 2.75-2.859375 6.292969-2.859375 9.96875 0 3.679688 1.015625 7.222656 2.855469 9.972656 43.6875 65.203125 95.585937 110.75 150.089843 131.714844 19.269532 7.410156 38.585938 11.777344 57.417969 12.984375 4.773438.304687 9.503907.457031 14.230469.457031 85.75 0 163.855469-50.007812 221.464844-140.550781 6.039062 10.75 11.808594 22.015625 17.289062 33.789063 15.21875 32.671874 26.316406 62.847656 33.929688 92.253906 1.035156 4 5.117187 6.398437 9.117187 5.363281 3.996094-1.03125 6.402344-5.117187 5.367188-9.113281-7.847657-30.296875-19.246094-61.316406-34.851563-94.820313zm-265.589844 97.691407c-17.316406-1.109376-35.148437-5.152344-53.003906-12.019532-51.609375-19.851562-101.070312-63.449218-143.027344-126.078125-.105468-.167969-.328124-.789062-.328124-1.644531s.222656-1.476562.328124-1.640625c41.957032-62.632813 91.417969-106.230469 143.027344-126.078125 17.855469-6.867188 35.6875-10.910156 53.003906-12.019531 4.410157-.28125 8.796876-.421875 13.167969-.421875 82.488281 0 157.824219 49.953125 213.023438 140.164062-58.125 94.988282-138.578125 145.328125-226.191407 139.738282zm0 0"/></svg>