<svg height="511pt" viewBox="-51 0 511 511.99896" width="511pt" xmlns="http://www.w3.org/2000/svg"><path d="m319.445312 504.484375h-228.34375c-6.757812 0-12.230468-5.476563-12.230468-12.234375v-37.804688h252.808594v37.804688c0 6.757812-5.476563 12.234375-12.234376 12.234375zm0 0" fill="#cdbfba"/><path d="m319.445312 504.484375h-25.824218v-50.039063h38.054687v37.804688c.003907 6.757812-5.472656 12.234375-12.230469 12.234375zm0 0" fill="#b9acac"/><path d="m337.910156 454.445312h-265.273437c-35.6875 0-64.621094-28.933593-64.621094-64.625v-201.34375c0-5.347656 4.335937-9.683593 9.683594-9.683593h375.148437c5.347656 0 9.683594 4.335937 9.683594 9.683593v201.34375c0 35.691407-28.933594 64.625-64.621094 64.625zm0 0" fill="#efe2dd"/><path d="m402.535156 188.472656v201.351563c0 35.683593-28.933594 64.617187-64.628906 64.617187h-37.078125c36.777344 0 66.601563-29.8125 66.601563-66.601562v-209.046875h25.414062c5.351562 0 9.691406 4.339843 9.691406 9.679687zm0 0" fill="#e1d3ce"/><path d="m8.015625 239.722656h394.515625v114.257813h-394.515625zm0 0" fill="#ff4343"/><path d="m367.429688 239.722656h35.101562v114.257813h-35.101562zm0 0" fill="#f72c2c"/><path d="m207.792969 90.089844c2.617187 8.207031 3.097656 17.007812 1.386719 25.453125-1.777344 8.761719-7.25 17.097656-13.621094 20.746093-3.601563 2.0625-4.847656 6.65625-2.785156 10.257813 1.390624 2.421875 3.921874 3.78125 6.53125 3.78125 1.265624 0 2.550781-.320313 3.726562-.996094 10.214844-5.851562 18.214844-17.652343 20.878906-30.800781 2.21875-10.953125 1.597656-22.367188-1.796875-33.007812-2.699219-8.46875-6.890625-15.542969-10.945312-22.382813-5.683594-9.601563-10.597657-17.894531-10.796875-28.582031-.152344-8.179688 4.859375-16.5625 12.183594-20.375 3.679687-1.917969 5.109374-6.460938 3.191406-10.140625-1.917969-3.683594-6.460938-5.105469-10.140625-3.191407-12.378907 6.449219-20.519531 20.109376-20.261719 33.984376.269531 14.660156 6.6875 25.492187 12.894531 35.964843 3.789063 6.402344 7.371094 12.445313 9.554688 19.289063zm0 0"/><path d="m268.441406 99.765625c2.089844 6.550781 2.46875 13.574219 1.105469 20.3125-1.394531 6.867187-5.644531 13.378906-10.585937 16.210937-3.601563 2.0625-4.847657 6.65625-2.78125 10.257813 1.386718 2.421875 3.917968 3.78125 6.527343 3.78125 1.265625 0 2.550781-.320313 3.730469-.996094 8.734375-5.007812 15.570312-15.070312 17.84375-26.269531 1.871094-9.242188 1.347656-18.878906-1.519531-27.867188-2.269531-7.121093-5.761719-13.015624-9.140625-18.714843-4.589844-7.75-8.554688-14.445313-8.710938-22.90625-.117187-6.160157 3.808594-12.71875 9.324219-15.597657 3.683594-1.917968 5.109375-6.457031 3.191406-10.136718-1.917969-3.683594-6.457031-5.109375-10.140625-3.191406-10.632812 5.542968-17.628906 17.277343-17.40625 29.203124.230469 12.429688 5.609375 21.511719 10.808594 30.289063 3.085938 5.207031 6 10.128906 7.753906 15.625zm0 0"/><path d="m392.847656 171.277344h-375.148437c-9.484375 0-17.199219 7.714844-17.199219 17.199218v201.34375c0 39.347657 31.667969 71.414063 70.851562 72.105469v30.324219c0 10.890625 8.859376 19.75 19.75 19.75h228.34375c10.890626 0 19.75-8.859375 19.75-19.75v-30.316406c15.292969-.261719 29.796876-5.226563 42.023438-14.417969 3.316406-2.492187 3.984375-7.207031 1.492188-10.523437-2.496094-3.316407-7.207032-3.984376-10.527344-1.488282-9.941406 7.472656-21.792969 11.425782-34.273438 11.425782h-265.273437c-31.488281 0-57.105469-25.617188-57.105469-57.105469v-28.328125h379.484375v28.328125c0 3.878906-.390625 7.753906-1.160156 11.515625-.835938 4.066406 1.789062 8.039062 5.855469 8.871094 4.066406.824218 8.039062-1.789063 8.871093-5.855469.972657-4.753907 1.464844-9.640625 1.464844-14.53125v-201.347657c0-9.484374-7.714844-17.199218-17.199219-17.199218zm-306.464844 290.683594h237.78125v30.289062c0 2.601562-2.117187 4.71875-4.71875 4.71875h-228.34375c-2.601562 0-4.71875-2.117188-4.71875-4.71875zm308.632813-115.5h-379.484375v-63.867188h51.285156v28.511719h-25.429687v-6.742188h10.074219c4.152343 0 7.515624-3.363281 7.515624-7.515625 0-4.148437-3.363281-7.515625-7.515624-7.515625h-17.589844c-4.152344 0-7.515625 3.367188-7.515625 7.515625v21.773438c0 4.152344 3.363281 7.515625 7.515625 7.515625h40.460937c.371094 0 .734375-.035157 1.089844-.085938.355469.050781.714844.085938 1.085937.085938h64.199219c4.152344 0 7.515625-3.363281 7.515625-7.515625v-36.027344h49.507813v28.511719h-25.429688v-6.742188h10.074219c4.148438 0 7.515625-3.363281 7.515625-7.515625 0-4.148437-3.367187-7.515625-7.515625-7.515625h-17.589844c-4.152344 0-7.519531 3.367188-7.519531 7.515625v21.773438c0 4.152344 3.367187 7.515625 7.519531 7.515625h40.460938c.371094 0 .730468-.035157 1.085937-.085938.359375.050781.71875.085938 1.089844.085938h64.199219c4.148437 0 7.515625-3.363281 7.515625-7.515625v-36.027344h49.503906v28.511719h-25.429687v-6.742188h10.074218c4.148438 0 7.515625-3.363281 7.515625-7.515625 0-4.148437-3.367187-7.515625-7.515625-7.515625h-17.589844c-4.152343 0-7.515624 3.367188-7.515624 7.515625v21.773438c0 4.152344 3.363281 7.515625 7.515624 7.515625h40.460938c.371094 0 .734375-.035157 1.089844-.085938.355468.050781.714844.085938 1.085937.085938h56.683594zm0-114.253907h-269.410156c-4.152344 0-7.515625 3.363281-7.515625 7.515625 0 4.148438 3.363281 7.515625 7.515625 7.515625h269.410156v20.324219h-32.945313c-4.152343 0-7.515624 3.363281-7.515624 7.515625v21.773437c0 4.148438 3.363281 7.515626 7.515624 7.515626h17.589844c4.148438 0 7.515625-3.367188 7.515625-7.515626 0-4.152343-3.367187-7.519531-7.515625-7.519531h-10.074218v-6.738281h25.429687v28.511719h-51.34375v-36.027344c0-4.152344-3.363281-7.515625-7.515625-7.515625h-105c-4.152344 0-7.515625 3.363281-7.515625 7.515625v21.773437c0 4.148438 3.363281 7.515626 7.515625 7.515626h17.589844c4.152344 0 7.515625-3.367188 7.515625-7.515626 0-4.152343-3.363281-7.519531-7.515625-7.519531h-10.074219v-6.738281h25.429687v28.511719h-51.339843v-36.027344c0-4.152344-3.367188-7.515625-7.515625-7.515625h-105.003906c-4.152344 0-7.515626 3.363281-7.515626 7.515625v21.773437c0 4.148438 3.363282 7.515626 7.515626 7.515626h17.589843c4.152344 0 7.515625-3.367188 7.515625-7.515626 0-4.152343-3.363281-7.519531-7.515625-7.519531h-10.074219v-6.738281h25.429688v28.511719h-51.339844v-36.027344c0-4.152344-3.363281-7.515625-7.515625-7.515625h-58.800781v-20.324219h62.972656c4.152344 0 7.515625-3.367187 7.515625-7.515625 0-4.152344-3.363281-7.515625-7.515625-7.515625h-62.972656v-43.730469c0-1.195312.972656-2.167968 2.167969-2.167968h375.148437c1.195313 0 2.167969.972656 2.167969 2.167968zm0 0"/><path d="m143.738281 99.765625c2.089844 6.550781 2.472657 13.574219 1.105469 20.3125-1.390625 6.867187-5.644531 13.378906-10.585938 16.210937-3.601562 2.0625-4.847656 6.65625-2.785156 10.257813 1.390625 2.421875 3.921875 3.78125 6.53125 3.78125 1.265625 0 2.550782-.320313 3.730469-.996094 8.734375-5.007812 15.570313-15.070312 17.84375-26.269531 1.871094-9.242188 1.347656-18.878906-1.519531-27.867188-2.269532-7.121093-5.761719-13.015624-9.140625-18.714843-4.589844-7.75-8.554688-14.445313-8.714844-22.90625-.113281-6.160157 3.808594-12.71875 9.328125-15.597657 3.683594-1.917968 5.109375-6.457031 3.191406-10.136718-1.917968-3.683594-6.457031-5.109375-10.136718-3.191406-10.636719 5.542968-17.632813 17.277343-17.410157 29.203124.230469 12.429688 5.609375 21.511719 10.808594 30.289063 3.085937 5.207031 6 10.128906 7.753906 15.625zm0 0"/></svg>