<svg height="512pt" viewBox="0 0 512.001 512" width="512pt" xmlns="http://www.w3.org/2000/svg"><path d="m504.015625 504.203125v-424.925781l-247.773437-71.78125v496.707031zm0 0" fill="#575f64"/><path d="m504.019531 79.28125v424.925781h-36.492187v-435.503906zm0 0" fill="#474f54"/><path d="m7.496094 504.203125v-424.925781l247.777344-71.78125v496.707031zm0 0" fill="#575f64"/><path d="m7.496094 145.460938 248.746094-71.777344v83.0625l-248.746094 68.65625zm0 0" fill="#ffc143"/><path d="m504.503906 145.460938-248.746094-71.777344v83.0625l248.746094 68.65625zm0 0" fill="#ffc143"/><path d="m504.496094 145.457031v79.945313l-.476563-.128906-36.492187-10.078126v-80.40625l36.492187 10.53125zm0 0" fill="#ffb509"/><path d="m512 145.460938c0-.910157-.179688-1.789063-.484375-2.609376v-63.574218c0-3.335938-2.207031-6.273438-5.410156-7.203125l-247.777344-71.78125c-.84375-.2421878-1.714844-.3320315-2.570313-.277344-.855468-.0546875-1.726562.0351562-2.570312.277344l-247.777344 71.78125c-3.203125.929687-5.410156 3.867187-5.410156 7.203125v424.925781c0 4.140625 3.355469 7.496094 7.5 7.496094h247.773438c.164062 0 .324218-.011719.484374-.023438.160157.011719.320313.023438.484376.023438h147.332031c4.140625 0 7.5-3.355469 7.5-7.496094 0-4.144531-3.359375-7.5-7.5-7.5h-139.832031v-64.367187h20.597656c4.144531 0 7.5-3.355469 7.5-7.5 0-4.140626-3.355469-7.5-7.5-7.5h-20.597656v-17.101563h56.214843c4.140625 0 7.496094-3.359375 7.496094-7.5s-3.355469-7.496094-7.496094-7.496094h-56.214843v-218.507812l232.777343 64.246093v154.261719h-12.015625c-4.140625 0-7.496094 3.355469-7.496094 7.5 0 4.140625 3.355469 7.496094 7.496094 7.496094h12.015625v17.105469h-63.808593c-4.144532 0-7.5 3.355468-7.5 7.5 0 4.140625 3.355468 7.496094 7.5 7.496094h63.808593v17.105468h-23.226562c-4.140625 0-7.496094 3.355469-7.496094 7.5 0 4.140625 3.355469 7.5 7.496094 7.5h23.226562v32.265625h-47.558593c-4.140626 0-7.496094 3.355469-7.496094 7.496094 0 4.144531 3.355468 7.5 7.496094 7.5h55.058593c4.140625 0 7.496094-3.355469 7.496094-7.5v-276.164063c.3125-.835937.484375-1.726562.484375-2.636718zm-15.480469-60.546876v50.441407l-232.777343-67.171875v-50.707032zm-248.746093-67.4375v50.847657l-120.628907 34.808593c-3.980469 1.148438-6.273437 5.304688-5.125 9.28125 1.148438 3.980469 5.304688 6.273438 9.285157 5.125l116.46875-33.609374v67.375l-232.777344 64.246093v-64.445312l73.289062-21.152344c3.980469-1.148437 6.273438-5.304687 5.125-9.28125-1.148437-3.980469-5.304687-6.273437-9.28125-5.125l-69.132812 19.949219v-50.582032zm-22.292969 382.757813h22.292969v17.105469h-47.414063c-4.140625 0-7.496094 3.355468-7.496094 7.5 0 4.140625 3.355469 7.496094 7.496094 7.496094h47.414063v17.105468h-41.414063c-4.140625 0-7.496094 3.355469-7.496094 7.5 0 4.140625 3.355469 7.5 7.496094 7.5h41.414063v32.265625h-232.777344v-32.265625h41.402344c4.140624 0 7.496093-3.359375 7.496093-7.5 0-4.144531-3.355469-7.5-7.496093-7.5h-41.402344v-17.105468h75.894531c4.140625 0 7.496094-3.355469 7.496094-7.496094 0-4.144532-3.355469-7.5-7.496094-7.5h-75.894531v-17.105469h24.90625c4.140625 0 7.496094-3.355469 7.496094-7.496094 0-4.144531-3.355469-7.5-7.496094-7.5h-24.90625v-154.128906l232.777344-64.246094v218.375h-22.292969c-4.140625 0-7.5 3.355469-7.5 7.5 0 4.140625 3.359375 7.496094 7.5 7.496094zm38.261719-249.0625v-67.378906l232.777343 67.171875v64.453125zm0 0"/><path d="m191.203125 385.238281h-119.636719c-4.140625 0-7.5 3.355469-7.5 7.5 0 4.140625 3.359375 7.496094 7.5 7.496094h119.636719c4.144531 0 7.5-3.355469 7.5-7.496094 0-4.144531-3.355469-7.5-7.5-7.5zm0 0"/><path d="m368.652344 400.234375c4.144531 0 7.5-3.355469 7.5-7.496094 0-4.144531-3.355469-7.5-7.5-7.5h-22.949219c-4.140625 0-7.5 3.355469-7.5 7.5 0 4.140625 3.359375 7.496094 7.5 7.496094zm0 0"/><path d="m455.660156 400.234375c4.140625 0 7.5-3.355469 7.5-7.496094 0-4.144531-3.359375-7.5-7.5-7.5h-45.898437c-4.144531 0-7.5 3.355469-7.5 7.5 0 4.140625 3.355469 7.496094 7.5 7.496094zm0 0"/><path d="m156.792969 432.335938c4.140625 0 7.5-3.355469 7.5-7.5 0-4.140626-3.359375-7.496094-7.5-7.496094h-34.410157c-4.144531 0-7.5 3.355468-7.5 7.496094 0 4.144531 3.355469 7.5 7.5 7.5zm0 0"/><path d="m408.261719 424.839844c0-4.144532-3.359375-7.5-7.5-7.5h-87.925781c-4.144532 0-7.5 3.355468-7.5 7.5 0 4.140625 3.355468 7.496094 7.5 7.496094h87.925781c4.140625 0 7.5-3.355469 7.5-7.496094zm0 0"/><path d="m176.367188 449.441406h-92.976563c-4.140625 0-7.5 3.355469-7.5 7.5 0 4.140625 3.359375 7.496094 7.5 7.496094h92.976563c4.144531 0 7.5-3.355469 7.5-7.496094 0-4.144531-3.359376-7.5-7.5-7.5zm0 0"/><path d="m282.339844 449.441406c-4.140625 0-7.496094 3.355469-7.496094 7.5 0 4.140625 3.355469 7.496094 7.496094 7.496094h72.457031c4.140625 0 7.5-3.355469 7.5-7.496094 0-4.144531-3.359375-7.5-7.5-7.5zm0 0"/><path d="m380.128906 464.4375h23.445313c4.140625 0 7.5-3.355469 7.5-7.5 0-4.140625-3.359375-7.496094-7.5-7.496094h-23.445313c-4.140625 0-7.496094 3.355469-7.496094 7.496094 0 4.144531 3.355469 7.5 7.496094 7.5zm0 0"/><path d="m451.929688 456.941406c0-4.144531-3.355469-7.5-7.5-7.5h-11.71875c-4.144532 0-7.5 3.355469-7.5 7.5 0 4.140625 3.355468 7.496094 7.5 7.496094h11.71875c4.144531 0 7.5-3.355469 7.5-7.496094zm0 0"/></svg>