<svg height="512pt" viewBox="-81 0 512 512.00153" width="512pt" xmlns="http://www.w3.org/2000/svg"><path d="m220.234375 414.984375h-24.441406c-2.769531 0-5.015625-2.246094-5.015625-5.015625v-22.21875c0-2.769531-2.242188-5.011719-5.011719-5.011719h-21.722656c-2.769531 0-5.011719 2.242188-5.011719 5.011719v22.222656c0 2.765625-2.246094 5.011719-5.011719 5.011719h-24.445312c-2.765625 0-5.011719 2.246094-5.011719 5.011719v21.722656c0 2.769531 2.246094 5.015625 5.011719 5.015625h24.445312c2.765625 0 5.011719 2.242187 5.011719 5.011719v47.722656c0 2.769531 2.242188 5.011719 5.011719 5.011719h21.722656c2.769531 0 5.011719-2.242188 5.011719-5.011719v-47.722656c0-2.769532 2.246094-5.011719 5.011718-5.011719h24.445313c2.765625 0 5.011719-2.246094 5.011719-5.015625v-21.722656c0-2.765625-2.242188-5.011719-5.011719-5.011719zm0 0" fill="#a87a52"/><path d="m225.25 420v8.410156h-34.921875c-7.503906 0-13.589844-6.082031-13.589844-13.585937v-32.085938h9.023438c2.769531 0 5.011719 2.242188 5.011719 5.011719v22.222656c0 2.769532 2.246093 5.015625 5.015624 5.015625h24.449219c2.769531 0 5.011719 2.242188 5.011719 5.011719zm0 0" fill="#906846"/><g fill="#57bf93"><path d="m196.003906 28.621094c0 11.652344-9.445312 21.097656-21.097656 21.097656-11.65625 0-21.101562-9.445312-21.101562-21.097656 0-11.65625 9.445312-21.101563 21.101562-21.101563 11.652344 0 21.097656 9.445313 21.097656 21.101563zm0 0"/><path d="m196.003906 321.191406c0 11.652344-9.445312 21.097656-21.097656 21.097656-11.65625 0-21.101562-9.445312-21.101562-21.097656 0-11.65625 9.445312-21.101562 21.101562-21.101562 11.652344 0 21.097656 9.445312 21.097656 21.101562zm0 0"/><path d="m122.863281 48.21875c0 11.652344-9.445312 21.101562-21.101562 21.101562-11.652344 0-21.097657-9.449218-21.097657-21.101562s9.445313-21.101562 21.097657-21.101562c11.65625 0 21.101562 9.449218 21.101562 21.101562zm0 0"/><path d="m269.148438 301.589844c0 11.65625-9.449219 21.101562-21.101563 21.101562s-21.097656-9.445312-21.097656-21.101562c0-11.652344 9.445312-21.097656 21.097656-21.097656s21.101563 9.445312 21.101563 21.097656zm0 0"/><path d="m69.320312 101.761719c0 11.652343-9.449218 21.101562-21.101562 21.101562s-21.101562-9.449219-21.101562-21.101562c0-11.652344 9.449218-21.097657 21.101562-21.097657s21.101562 9.445313 21.101562 21.097657zm0 0"/><path d="m322.691406 248.046875c0 11.652344-9.445312 21.101563-21.097656 21.101563-11.65625 0-21.101562-9.449219-21.101562-21.101563s9.445312-21.097656 21.101562-21.097656c11.652344 0 21.097656 9.445312 21.097656 21.097656zm0 0"/><path d="m49.71875 174.90625c0 11.652344-9.445312 21.097656-21.097656 21.097656-11.65625 0-21.101563-9.445312-21.101563-21.097656 0-11.65625 9.445313-21.101562 21.101563-21.101562 11.652344 0 21.097656 9.445312 21.097656 21.101562zm0 0"/><path d="m342.289062 174.90625c0 11.652344-9.445312 21.097656-21.097656 21.097656-11.65625 0-21.101562-9.445312-21.101562-21.097656 0-11.65625 9.445312-21.101562 21.101562-21.101562 11.652344 0 21.097656 9.445312 21.097656 21.101562zm0 0"/><path d="m69.320312 248.046875c0 11.652344-9.449218 21.101563-21.101562 21.101563s-21.101562-9.449219-21.101562-21.101563 9.449218-21.097656 21.101562-21.097656 21.101562 9.445312 21.101562 21.097656zm0 0"/><path d="m322.691406 101.761719c0 11.652343-9.445312 21.101562-21.097656 21.101562-11.65625 0-21.101562-9.449219-21.101562-21.101562 0-11.652344 9.445312-21.097657 21.101562-21.097657 11.652344 0 21.097656 9.445313 21.097656 21.097657zm0 0"/><path d="m122.863281 301.589844c0 11.65625-9.445312 21.101562-21.101562 21.101562-11.652344 0-21.097657-9.445312-21.097657-21.101562 0-11.652344 9.445313-21.097656 21.097657-21.097656 11.65625 0 21.101562 9.445312 21.101562 21.097656zm0 0"/><path d="m269.148438 48.21875c0 11.652344-9.449219 21.101562-21.101563 21.101562s-21.097656-9.449218-21.097656-21.101562 9.445312-21.101562 21.097656-21.101562 21.101563 9.449218 21.101563 21.101562zm0 0"/></g><path d="m195.996094 28.191406c.242187 11.648438-9.011719 21.285156-20.660156 21.523438-2.824219.0625-5.53125-.441406-8.007813-1.414063 7.617187-4.039062 12.28125-12.539062 10.996094-21.582031-1.101563-7.847656-6.394531-14.074219-13.304688-16.742188 2.828125-1.503906 6.035157-2.386718 9.457031-2.457031 11.644532-.230469 21.289063 9.023438 21.519532 20.671875zm0 0" fill="#1fb480"/><path d="m184.78125 339.828125c-2.828125 1.503906-6.035156 2.386719-9.445312 2.457031-11.648438.242188-21.292969-9.011718-21.523438-20.671875-.242188-11.648437 9.011719-21.28125 20.660156-21.523437 2.828125-.058594 5.535156.453125 8.011719 1.414062-7.621094 4.039063-12.28125 12.542969-11 21.585938 1.105469 7.847656 6.398437 14.074218 13.296875 16.738281zm0 0" fill="#1fb480"/><path d="m112.679688 66.277344c-2.414063 1.464844-5.011719 2.386718-7.648438 2.796875 4.589844-7.316407 4.371094-17.011719-1.253906-24.210938-4.882813-6.246093-12.582032-8.992187-19.898438-7.847656 1.691406-2.71875 4.039063-5.082031 6.964844-6.847656 9.964844-6.035157 22.9375-2.835938 28.972656 7.128906 6.035156 9.972656 2.839844 22.945313-7.136718 28.980469zm0 0" fill="#1fb480"/><path d="m265.933594 312.792969c-1.695313 2.714843-4.042969 5.082031-6.96875 6.855469-9.964844 6.027343-22.9375 2.839843-28.972656-7.136719-6.035157-9.976563-2.835938-22.945313 7.140624-28.972657 2.414063-1.464843 5.011719-2.386718 7.648438-2.785156-4.59375 7.304688-4.371094 17 1.25 24.1875 4.882812 6.246094 12.582031 8.992188 19.902344 7.851563zm0 0" fill="#1fb480"/><path d="m66.703125 111.941406c-1.359375 2.476563-3.144531 4.570313-5.222656 6.234375.3125-8.621093-4.71875-16.910156-13.191407-20.328125-7.359374-2.96875-15.398437-1.492187-21.164062 3.15625.109375-3.195312.960938-6.425781 2.605469-9.421875 5.625-10.207031 18.457031-13.925781 28.664062-8.300781 10.207031 5.613281 13.925781 18.445312 8.308594 28.660156zm0 0" fill="#1fb480"/><path d="m322.683594 248.8125c-.121094 3.199219-.960938 6.417969-2.605469 9.414062-5.625 10.203126-18.457031 13.925782-28.664063 8.300782-10.203124-5.613282-13.925781-18.445313-8.308593-28.652344 1.363281-2.476562 3.144531-4.570312 5.222656-6.234375-.3125 8.621094 4.730469 16.902344 13.191406 20.320313 7.359375 2.96875 15.398438 1.492187 21.164063-3.148438zm0 0" fill="#1fb480"/><path d="m49.710938 174.476562c.0625 2.816407-.4375 5.523438-1.402344 8-4.050782-7.617187-12.550782-12.269531-21.582032-10.996093-7.851562 1.113281-14.078124 6.394531-16.753906 13.292969-1.503906-2.816407-2.375-6.023438-2.445312-9.441407-.242188-11.652343 9.011718-21.285156 20.660156-21.527343 11.648438-.230469 21.292969 9.023437 21.523438 20.671874zm0 0" fill="#1fb480"/><path d="m342.28125 174.476562c.242188 11.648438-9.011719 21.285157-20.660156 21.523438-11.648438.242188-21.292969-9.011719-21.523438-20.667969-.0625-2.820312.441406-5.527343 1.402344-8 4.050781 7.617188 12.550781 12.269531 21.585938 10.996094 7.847656-1.105469 14.074218-6.398437 16.75-13.292969 1.503906 2.816406 2.375 6.023438 2.445312 9.441406zm0 0" fill="#1fb480"/><path d="m69.0625 244.761719c-7.320312-4.582031-17.011719-4.351563-24.203125 1.273437-6.246094 4.882813-8.992187 12.582032-7.839844 19.898438-2.714843-1.691406-5.089843-4.039063-6.855469-6.964844-6.035156-9.976562-2.835937-22.945312 7.136719-28.972656 9.964844-6.035156 22.9375-2.835938 28.972657 7.128906 1.464843 2.414062 2.386718 5.011719 2.789062 7.636719zm0 0" fill="#1fb480"/><path d="m312.507812 119.820312c-9.964843 6.027344-22.9375 2.839844-28.972656-7.136718-1.464844-2.425782-2.386718-5.023438-2.785156-7.648438 7.308594 4.589844 17 4.371094 24.199219-1.253906 6.246093-4.882812 8.992187-12.589844 7.839843-19.910156 2.71875 1.695312 5.09375 4.039062 6.855469 6.96875 6.035157 9.972656 2.839844 22.945312-7.136719 28.980468zm0 0" fill="#1fb480"/><path d="m97.851562 301.523438c-2.964843 7.359374-1.492187 15.398437 3.148438 21.164062-3.195312-.121094-6.414062-.972656-9.414062-2.617188-10.203126-5.613281-13.921876-18.445312-8.308594-28.652343 5.625-10.214844 18.457031-13.933594 28.660156-8.308594 2.476562 1.363281 4.570312 3.15625 6.238281 5.222656-8.625-.3125-16.90625 4.722657-20.324219 13.191407zm0 0" fill="#1fb480"/><path d="m266.535156 58.398438c-5.625 10.207031-18.457031 13.925781-28.664062 8.300781-2.472656-1.363281-4.570313-3.148438-6.234375-5.222657 8.621093.3125 16.902343-4.722656 20.320312-13.191406 2.96875-7.359375 1.496094-15.398437-3.148437-21.164062 3.199218.121094 6.417968.972656 9.414062 2.617187 10.207032 5.613281 13.925782 18.445313 8.3125 28.660157zm0 0" fill="#1fb480"/><path d="m349.804688 174.324219c-.289063-14.25-11.003907-25.882813-24.699219-27.765625-1.4375-7.613282-3.4375-15.023438-5.960938-22.195313 5.085938-3.933593 8.675781-9.421875 10.234375-15.757812 1.828125-7.421875.65625-15.113281-3.296875-21.652344-3.957031-6.542969-10.222656-11.152344-17.648437-12.980469-5.984375-1.476562-12.136719-.996094-17.722656 1.316406-4.988282-5.792968-10.402344-11.207031-16.195313-16.191406 2.464844-5.972656 2.84375-12.550781 1.019531-18.847656-2.128906-7.34375-6.988281-13.414062-13.6875-17.101562-12.488281-6.875-27.921875-3.410157-36.402344 7.511718-7.167968-2.519531-14.582031-4.503906-22.195312-5.933594-.859375-6.375-3.816406-12.230468-8.523438-16.75-5.515624-5.292968-12.777343-8.144531-20.40625-7.9687495-7.640624.1562495-14.765624 3.2773435-20.0625 8.7929685-4.242187 4.417969-6.898437 9.953125-7.707031 15.914063-7.609375 1.433594-15.023437 3.425781-22.195312 5.949218-3.929688-5.082031-9.417969-8.671874-15.75-10.234374-7.421875-1.832032-15.113281-.652344-21.65625 3.300781-12.21875 7.390625-16.9375 22.535156-11.667969 35.355469-5.800781 4.996093-11.21875 10.421874-16.210938 16.222656-5.09375-2.085938-10.714843-2.695313-16.15625-1.671875-4.078124.773437-6.761718 4.703125-5.992187 8.785156.773437 4.082031 4.703125 6.765625 8.785156 5.996094 3.128907-.59375 6.261719-.089844 9.058594 1.449219 3.179687 1.75 5.484375 4.632812 6.496094 8.117187 2.085937 7.1875-1.785157 14.4375-8.945313 16.667969-3.546875 1.101562-7.46875.714844-10.726562-1.074219-2.175782-1.199219-4.15625-3.554687-6.667969-4.011719-2.460937-.445312-5.03125.386719-6.765625 2.1875-2.878906 2.992188-2.785156 7.753906.207031 10.632813.726563.699219 1.503907 1.347656 2.300781 1.96875-2.523437 7.175781-4.523437 14.589843-5.960937 22.207031-6.363281.867188-12.210937 3.820312-16.726563 8.523438-5.292968 5.515624-8.125 12.761718-7.9687495 20.40625.2890625 14.246093 10.9999995 25.878906 24.6914065 27.761718 1.433593 7.613282 3.445312 15.027344 5.964843 22.199219-5.082031 3.933594-8.675781 9.421875-10.234374 15.753906-1.828126 7.421875-.65625 15.113281 3.300781 21.65625 4.984375 8.246094 14.941406 13.816407 24.539062 13.816407 3.707031 0 7.375-.734376 10.824219-2.164063 4.988281 5.800781 10.398438 11.222656 16.195312 16.214844-5.457031 13.269531-.1875 28.855469 12.671876 35.9375 6.679687 3.675781 14.425781 4.542969 21.769531 2.414062 5.882812-1.703125 10.949219-5.167969 14.628906-9.921875 7.171875 2.523438 14.585937 4.527344 22.203125 5.960938.867188 6.359375 3.824219 12.203125 8.519531 16.714844 3.621094 3.480468 7.992188 5.886718 12.730469 7.089843v26.296875h-3.769531c-6.910157 0-12.53125 5.621094-12.53125 12.53125v19.714844h-21.9375c-6.910157 0-12.53125 5.621094-12.53125 12.53125v21.722656c0 6.910156 5.621093 12.53125 12.53125 12.53125h21.9375v45.214844c0 6.910156 5.621093 12.53125 12.53125 12.53125h21.722656c6.910156 0 12.53125-5.621094 12.53125-12.53125v-2.535156c0-4.152344-3.363281-7.519532-7.519531-7.519532-4.152344 0-7.515625 3.367188-7.515625 7.519532l-16.714844.03125v-45.21875c0-6.910156-5.621094-12.53125-12.53125-12.53125h-21.9375v-16.710938h21.9375c6.910156 0 12.53125-5.621094 12.53125-12.53125v-19.714844h16.714844v19.714844c0 6.910156 5.621093 12.53125 12.527343 12.53125h21.9375v16.710938h-21.9375c-6.90625 0-12.527343 5.625-12.527343 12.53125v1.414062c0 4.152344 3.363281 7.519532 7.515625 7.519532 3.78125 0 6.910156-2.792969 7.441406-6.425782h22.015625c6.910156 0 12.53125-5.621094 12.53125-12.53125v-21.722656c0-6.910156-5.621094-12.53125-12.53125-12.53125h-21.9375v-19.71875c0-6.910156-5.621094-12.53125-12.53125-12.53125h-2.917969v-26.535156c10.738282-3.105469 18.855469-12.328125 20.402344-23.570313 7.617188-1.433593 15.035156-3.4375 22.210938-5.957031 5.542968 7.132812 13.992187 11.050781 22.632812 11.046875 5.042969 0 10.144531-1.328125 14.765625-4.121094 8.765625-5.304687 14.058594-15.050781 13.808594-25.222656-.023438-1-2.074219-10.199219-2.144531-10.136719 5.792968-4.992187 11.207031-10.414062 16.199218-16.210937 3.511719 1.445312 7.183594 2.152343 10.820313 2.152343 10.101562 0 19.910156-5.355468 25.117187-14.8125 3.6875-6.695312 4.546875-14.425781 2.417969-21.769531-1.707031-5.882812-5.167969-10.949219-9.921875-14.628906 2.519531-7.171875 4.511719-14.589844 5.945312-22.203125 14.179688-1.949219 25-14.277344 24.703126-28.925781zm-61.367188-75.800781c1.441406-5.6875 6.476562-10.347657 13.128906-10.347657 13.761719 0 18.882813 18.050781 7.054688 25.207031-6.285156 3.804688-14.820313 1.738282-18.652344-4.59375-1.988281-3.292968-2.371094-6.953124-1.53125-10.265624zm-52.285156-56.855469c1.75-3.179688 4.628906-5.484375 8.113281-6.496094 7.175781-2.074219 14.730469 2.035156 16.828125 9.265625 1.007812 3.484375.601562 7.152344-1.148438 10.332031-3.613281 6.558594-11.886718 8.960938-18.449218 5.347657-6.558594-3.613282-8.957032-11.890626-5.34375-18.449219zm-71.042969-22.457031c8.3125-8.65625 23.375-2.890626 23.375 9.132812.074219 3.625-1.269531 7.066406-3.78125 9.683594-2.515625 2.617187-5.894531 4.097656-9.523437 4.171875-11.839844.269531-18.304688-14.410157-10.070313-22.988281zm-70.375 17.386718c2.191406-1.328125 4.613281-1.957031 7.003906-1.957031 4.601563 0 9.09375 2.332031 11.644531 6.550781 1.878907 3.101563 2.433594 6.753906 1.566407 10.277344-.867188 3.523438-3.054688 6.496094-6.160157 8.371094-6.40625 3.878906-14.773437 1.816406-18.648437-4.59375-3.875-6.40625-1.816406-14.773438 4.59375-18.648438zm-65.839844 151.886719c-.09375 0-.1875.003906-.277343.003906-7.363282 0-13.425782-5.914062-13.578126-13.308593-.070312-3.625 1.269532-7.0625 3.785157-9.683594 2.511719-2.617188 5.894531-4.097656 9.519531-4.171875s7.066406 1.269531 9.683594 3.785156c2.617187 2.511719 4.097656 5.894531 4.171875 9.519531.074219 3.628906-1.269531 7.066406-3.78125 9.683594s-5.894531 4.097656-9.523438 4.171875zm32.511719 62.808594c-.867188 3.523437-3.054688 6.5-6.160156 8.375-3.101563 1.878906-6.753906 2.4375-10.277344 1.566406-3.519531-.867187-6.496094-3.054687-8.371094-6.15625-1.878906-3.105469-2.433594-6.757813-1.566406-10.28125.867188-3.519531 3.054688-6.496094 6.160156-8.371094 2.191406-1.328125 4.613282-1.957031 7.003906-1.957031 4.601563 0 9.09375 2.332031 11.644532 6.546875 1.878906 3.105469 2.433594 6.757813 1.566406 10.277344zm52.195312 56.820312c-1.6875 3.0625-4.519531 5.496094-8.058593 6.523438-3.484375 1.011719-7.152344.605469-10.332031-1.148438-6.558594-3.609375-8.957032-11.886719-5.347657-18.445312 3.613281-6.558594 11.886719-8.960938 18.449219-5.347657 6.789062 3.738282 8.996094 11.6875 5.289062 18.417969zm74.882813 12.800781c.148437 7.328126-5.988281 13.707032-13.300781 13.855469-12.3125.253907-18.433594-14.277343-10.074219-22.984375 8.195313-8.546875 23.132813-2.6875 23.375 9.128906zm66.59375-7.703124c-6.410156 3.878906-14.777344 1.816406-18.652344-4.589844-1.875-3.105469-2.433593-6.753906-1.566406-10.277344 2.867187-11.640625 18.515625-14.191406 24.808594-3.78125 3.875 6.410156 1.816406 14.773438-4.589844 18.648438zm21.441406-78.964844c-3.6875 6.695312-4.542969 14.425781-2.414062 21.769531.992187 3.425781 2.585937 6.566406 4.675781 9.324219-4.167969 4.78125-8.660156 9.269531-13.441406 13.4375-3.066406-2.324219-6.597656-4.027344-10.449219-4.976563-7.425781-1.832031-15.113281-.65625-21.652344 3.300781-6.542969 3.957032-11.152343 10.222657-12.980469 17.644532-.859374 3.488281-1.046874 7.035156-.601562 10.496094-5.941406 2.042968-12.0625 3.691406-18.335938 4.914062-1.492187-3.578125-3.714843-6.84375-6.59375-9.613281-5.515624-5.292969-12.777343-8.164063-20.402343-7.964844-7.644531.152344-14.769531 3.277344-20.0625 8.789063-2.492188 2.59375-4.429688 5.574218-5.773438 8.796874-6.273437-1.222656-12.390625-2.882812-18.332031-4.929687.492188-3.839844.203125-7.777344-.90625-11.609375-2.128906-7.339844-6.988281-13.417969-13.683594-17.101562-10.203125-5.617188-22.371094-4.328126-31.105468 2.28125-4.785157-4.167969-9.261719-8.679688-13.429688-13.464844 2.328125-3.0625 4.027344-6.597656 4.976562-10.449219 3.835938-15.570313-5.605468-30.847656-20.945312-34.632813-3.488281-.859374-7.03125-1.046874-10.488281-.605468-2.046875-5.9375-3.683594-12.066406-4.90625-18.335938 3.570312-1.492187 6.832031-3.710937 9.597656-6.589844 5.292969-5.511718 8.125-12.757812 7.96875-20.402343-.15625-7.640625-3.28125-14.765625-8.792969-20.0625-2.589844-2.484375-5.566406-4.429688-8.78125-5.777344 1.222656-6.269531 2.863282-12.386719 4.90625-18.320313 1.199219.152344 2.402344.234376 3.613282.234376 2.675781 0 5.363281-.382813 8.007812-1.144532 7.339844-2.128906 13.414062-6.992187 17.101562-13.6875 3.6875-6.695312 4.546876-14.425781 2.417969-21.769531-.996093-3.425781-2.589843-6.574219-4.683593-9.335937 4.167968-4.777344 8.664062-9.261719 13.445312-13.429688 3.066406 2.328125 6.597656 4.027344 10.449219 4.976562 2.289062.566407 4.597656.84375 6.894531.84375 13.003906 0 24.640625-9.203124 27.738281-21.789062.859375-3.484375 1.046875-7.027344.605469-10.488281 5.9375-2.046875 12.058594-3.699219 18.332031-4.925781 1.492188 3.582031 3.714844 6.847656 6.59375 9.617187 5.371094 5.15625 12.382813 7.976563 19.808594 7.976563.195313 0 .394531-.003907.59375-.007813 11.660156-.238281 21.566406-7.457031 25.816406-17.574219 6.28125 1.222656 12.417969 2.871094 18.367188 4.917969-1.4375 11.308594 3.996093 22.886719 14.574219 28.710937 4.367187 2.40625 9.09375 3.542969 13.757812 3.542969 6.226562 0 12.335938-2.039062 17.328125-5.8125 4.785156 4.171875 9.285156 8.65625 13.457031 13.4375-2.328125 3.070313-4.035156 6.609375-4.980468 10.460938-1.832032 7.421875-.660157 15.113281 3.296874 21.65625 3.957032 6.539062 10.222657 11.148437 17.644532 12.976562 2.289062.566407 4.601562.84375 6.898437.84375 1.203125 0 2.402344-.085937 3.589844-.238281 2.046875 5.941406 3.703125 12.058594 4.925781 18.332031-3.578125 1.492188-6.847656 3.714844-9.613281 6.597657-5.292969 5.511718-8.125 12.757812-7.96875 20.402343.15625 7.640625 3.277344 14.765625 8.792969 20.0625 2.589844 2.488281 5.566406 4.421875 8.78125 5.769531-1.222656 6.269532-2.859375 12.398438-4.90625 18.335938-3.84375-.496094-7.785156-.207031-11.621094.90625-7.34375 2.125-13.417969 6.984375-17.105469 13.683594zm36.96875 20.351562c-3.613281 6.5625-11.886719 8.957032-18.449219 5.347656-10.246093-5.644531-8.453124-21.691406 2.773438-24.945312 11.4375-3.3125 21.371094 9.253906 15.675781 19.597656zm-1.707031-69.898437c-5.304688-5.097657-5.515625-13.863281-.386719-19.203125 2.511719-2.617188 5.890625-4.097656 9.519531-4.171875.09375 0 .1875-.003907.28125-.003907 11.726563 0 17.886719 14.558594 9.792969 22.988282-4.882812 5.085937-14.070312 5.324218-19.207031.390625zm0 0"/></svg>