<svg height="512pt" viewBox="0 0 512 512.002" width="512pt" xmlns="http://www.w3.org/2000/svg"><path d="m335.550781 95.445312s-12.464843-14.800781-50.636719-31.9375l-.421874-.179687c-3.214844-1.382813-24.574219-11.21875-29.179688-30.335937-4.609375 19.117187-25.964844 28.953124-29.183594 30.335937l-.417968.179687c-38.171876 17.136719-50.636719 31.9375-50.636719 31.9375-57.644531 54.53125 0 102.714844 0 102.714844h160.476562s57.644531-48.183594 0-102.714844zm0 0" fill="#efe2dd"/><path d="m335.542969 198.15625h-23.671875c.332031-.277344.65625-.574219.980468-.867188 11.992188-10.929687 21.414063-26.195312 23.953126-42.328124 3.132812-19.902344-5.347657-38.699219-19.035157-52.820313-14.378906-14.832031-34.527343-22.984375-51.765625-34.160156-2.117187-1.375-22.550781-15.960938-22.53125-15.980469 5.164063-4.78125 9.9375-11.105469 11.839844-19.011719 4.601562 19.121094 25.964844 28.960938 29.179688 30.339844l.417968.179687c38.175782 17.132813 50.632813 31.941407 50.632813 31.941407 57.648437 54.527343 0 102.707031 0 102.707031zm0 0" fill="#e1d3ce"/><path d="m165.265625 230.113281h180.089844v194.265625h-180.089844zm0 0" fill="#efe2dd"/><path d="m259.421875 271.171875c-2.417969-1.101563-5.199219-1.101563-7.617187 0l-43.035157 19.609375c-5.511719 2.511719-9.046875 8.011719-9.046875 14.070312v119.527344h111.78125v-119.527344c0-6.058593-3.535156-11.558593-9.050781-14.070312zm0 0" fill="#cdbfba"/><path d="m311.503906 304.851562v119.527344h-12.953125v-112.40625c0-5.933594-3.914062-11.324218-10.019531-13.789062l-47.636719-19.214844c-1.398437-.570312-2.914062-.839844-4.410156-.808594l15.324219-6.988281c2.414062-1.101563 5.195312-1.101563 7.617187 0l43.023438 19.609375c5.515625 2.511719 9.054687 8.007812 9.054687 14.070312zm0 0" fill="#b9acac"/><path d="m321.410156 230.113281h23.945313v194.265625h-23.945313zm0 0" fill="#e1d3ce"/><path d="m175.421875 198.160156h159.773437v31.953125h-159.773437zm0 0" fill="#cdbfba"/><path d="m311.503906 198.160156h23.691406v31.953125h-23.691406zm0 0" fill="#b9acac"/><path d="m455.945312 199.398438s-4.128906-4.90625-16.777343-10.585938l-.140625-.058594c-.273438-.117187-.945313-.417968-1.816406-.910156-4.882813-2.761719-10.820313-2.761719-15.707032 0-.871094.492188-1.542968.792969-1.816406.910156l-.136719.058594c-12.648437 5.679688-16.78125 10.585938-16.78125 10.585938-19.101562 18.066406 0 34.035156 0 34.035156h53.175781s19.101563-15.964844 0-34.035156zm0 0" fill="#efe2dd"/><path d="m455.945312 233.429688h-20.585937s19.105469-15.960938 0-34.03125c0 0-4.019531-4.773438-16.289063-10.367188.160157-.078125.320313-.148438.480469-.21875l.140625-.0625c.269532-.109375.941406-.417969 1.808594-.910156 4.894531-2.761719 10.828125-2.761719 15.710938 0 .871093.492187 1.542968.800781 1.820312.910156l.132812.0625c12.648438 5.683594 16.78125 10.585938 16.78125 10.585938 19.101563 18.070312 0 34.03125 0 34.03125zm0 0" fill="#e1d3ce"/><path d="m376.398438 341.179688h105.921874v83.199218h-105.921874zm0 0" fill="#efe2dd"/><path d="m482.320312 341.179688h-105.921874v-83.199219h100.820312c2.816406 0 5.097656 2.28125 5.097656 5.101562v78.097657zm0 0" fill="#efe2dd"/><path d="m459.414062 341.179688h22.90625v83.199218h-22.90625zm0 0" fill="#e1d3ce"/><path d="m482.320312 341.179688h-22.90625v-83.199219h17.804688c2.816406 0 5.101562 2.28125 5.101562 5.101562zm0 0" fill="#e1d3ce"/><g fill="#cdbfba"><path d="m345.355469 424.378906h31.042969v-189.164062c0-2.816406-2.285157-5.101563-5.101563-5.101563h-25.941406zm0 0"/><path d="m449.945312 341.179688h-41.175781v-28.539063c0-10.773437 8.734375-19.503906 19.503907-19.503906h2.167968c10.773438 0 19.503906 8.730469 19.503906 19.503906zm0 0"/><path d="m449.945312 424.378906h-41.175781v-28.542968c0-10.769532 8.734375-19.5 19.503907-19.5h2.167968c10.773438 0 19.503906 8.730468 19.503906 19.5zm0 0"/></g><path d="m449.949219 312.644531v28.535157h-20.59375v-28.535157c0-7.445312-4.160157-13.910156-10.285157-17.191406 2.742188-1.484375 5.875-2.3125 9.207032-2.3125h2.171875c10.765625 0 19.5 8.726563 19.5 19.503906zm0 0" fill="#b9acac"/><path d="m449.949219 395.835938v28.539062h-20.59375v-28.539062c0-7.433594-4.160157-13.898438-10.285157-17.191407 2.742188-1.480469 5.875-2.308593 9.207032-2.308593h2.171875c10.765625 0 19.5 8.734374 19.5 19.5zm0 0" fill="#b9acac"/><path d="m402.894531 233.433594h52.925781v24.546875h-52.925781zm0 0" fill="#cdbfba"/><path d="m435.480469 233.433594h20.339843v24.546875h-20.339843zm0 0" fill="#b9acac"/><path d="m54.675781 199.398438s4.132813-4.90625 16.78125-10.585938l.136719-.058594c.277344-.117187.945312-.417968 1.816406-.910156 4.886719-2.761719 10.824219-2.761719 15.707032 0 .871093.492188 1.542968.792969 1.816406.910156l.140625.058594c12.648437 5.679688 16.777343 10.585938 16.777343 10.585938 19.101563 18.066406 0 34.035156 0 34.035156h-53.175781s-19.101562-15.964844 0-34.035156zm0 0" fill="#efe2dd"/><path d="m107.851562 233.429688h-20.582031s19.101563-15.960938 0-34.03125c0 0-4.023437-4.773438-16.292969-10.367188.160157-.078125.320313-.148438.480469-.21875l.140625-.0625c.269532-.109375.941406-.417969 1.8125-.910156 4.890625-2.761719 10.828125-2.761719 15.710938 0 .867187.492187 1.539062.800781 1.820312.910156l.128906.0625c12.648438 5.683594 16.78125 10.585938 16.78125 10.585938 19.101563 18.070312 0 34.03125 0 34.03125zm0 0" fill="#e1d3ce"/><path d="m28.304688 341.179688h105.921874v83.199218h-105.921874zm0 0" fill="#efe2dd"/><path d="m28.304688 341.179688h105.921874v-83.199219h-100.820312c-2.816406 0-5.101562 2.28125-5.101562 5.101562zm0 0" fill="#efe2dd"/><path d="m111.316406 341.179688h22.90625v83.199218h-22.90625zm0 0" fill="#e1d3ce"/><path d="m111.316406 257.980469h22.90625v83.199219h-22.90625zm0 0" fill="#e1d3ce"/><path d="m165.265625 424.378906h-31.042969v-189.164062c0-2.816406 2.285156-5.101563 5.101563-5.101563h25.941406zm0 0" fill="#cdbfba"/><path d="m101.847656 341.179688h-41.175781v-28.539063c0-10.773437 8.734375-19.503906 19.503906-19.503906h2.167969c10.773438 0 19.503906 8.730469 19.503906 19.503906zm0 0" fill="#cdbfba"/><path d="m101.851562 312.644531v28.535157h-20.59375v-28.535157c0-7.445312-4.160156-13.910156-10.285156-17.191406 2.742188-1.484375 5.871094-2.3125 9.207032-2.3125h2.167968c10.769532 0 19.503906 8.726563 19.503906 19.503906zm0 0" fill="#b9acac"/><path d="m101.847656 424.378906h-41.175781v-28.542968c0-10.769532 8.734375-19.5 19.503906-19.5h2.167969c10.773438 0 19.503906 8.730468 19.503906 19.5zm0 0" fill="#cdbfba"/><path d="m101.851562 395.835938v28.539062h-20.59375v-28.539062c0-7.433594-4.160156-13.898438-10.285156-17.191407 2.742188-1.480469 5.871094-2.308593 9.207032-2.308593h2.167968c10.769532 0 19.503906 8.734374 19.503906 19.5zm0 0" fill="#b9acac"/><path d="m54.800781 233.433594h52.925781v24.546875h-52.925781zm0 0" fill="#cdbfba"/><path d="m87.386719 233.433594h20.339843v24.546875h-20.339843zm0 0" fill="#b9acac"/><path d="m367.242188 424.378906h-359.484376l-.25 80.117188h496.210938v-80.117188zm0 0" fill="#ffc143"/><path d="m474.757812 424.378906v79.117188h28.855469v-79.117188zm0 0" fill="#ffb509"/><path d="m503.71875 416.871094h-13.894531v-153.789063c0-6.953125-5.65625-12.605469-12.605469-12.605469h-13.894531v-13.785156c3.242187-3.519531 8.320312-10.457031 8.601562-19.65625.253907-8.199218-3.308593-15.890625-10.589843-22.867187-1.523438-1.65625-6.8125-6.6875-19.09375-12.203125-.058594-.023438-.113282-.046875-.171876-.070313l-.085937-.039062c-.046875-.019531-.472656-.203125-1.082031-.546875-7.230469-4.085938-15.863282-4.089844-23.089844 0-.605469.339844-1.027344.523437-1.027344.523437l-.140625.0625c-.058593.023438-.113281.046875-.171875.070313-12.28125 5.515625-17.570312 10.546875-19.09375 12.203125-7.28125 6.976562-10.84375 14.667969-10.589844 22.867187.28125 9.203125 5.359376 16.136719 8.601563 19.65625v13.785156h-11.488281v-15.261718c0-6.949219-5.65625-12.605469-12.605469-12.605469h-28.597656v-20.816406c6.65625-6.351563 25.109375-26.359375 25.945312-53.585938.625-20.410156-8.695312-39.917969-27.699219-57.988281-2.359374-2.605469-16.597656-17.234375-52.960937-33.558594-.050781-.023437-.101563-.046875-.148437-.066406l-.378907-.160156c-2.109375-.90625-20.433593-9.191406-24.640625-24.4375v-24.492188c0-4.144531-3.359375-7.503906-7.503906-7.503906s-7.507812 3.359375-7.507812 7.503906v24.496094c-4.207032 15.242188-22.53125 23.527344-24.597657 24.417969l-.421875.175781c-.050781.023438-.097656.042969-.148437.066406-10.929688 4.90625-20.867188 10.109375-29.527344 15.460938-3.523437 2.179687-4.617187 6.804687-2.4375 10.328125 2.179687 3.527343 6.804687 4.617187 10.328125 2.441406 8.085938-4.996094 17.40625-9.875 27.710938-14.503906l.382812-.164063c3.433594-1.476562 17.117188-7.910156 26.21875-20.171875 9.101562 12.261719 22.792969 18.699219 26.257812 20.191407l.34375.144531c35.59375 15.992187 47.808594 29.796875 47.894532 29.894531.183594.21875.378906.421875.582031.617188 15.886719 15.027343 23.707031 30.75 23.257813 46.738281-.605469 21.242187-15.65625 37.777343-21.03125 43.019531h-154.648438c-8.113281-7.773438-36.96875-39.675781-9.003906-77.226562 2.476562-3.324219 1.789062-8.027344-1.539063-10.5-3.320312-2.476563-8.023437-1.789063-10.5 1.535156-20.960937 28.148437-16.097656 53.894531-8.328125 70.539062 6.195313 13.277344 15.117188 22.761719 19.320313 26.785156v20.820313h-28.59375c-6.949219 0-12.605469 5.65625-12.605469 12.605469v15.261718h-11.488281v-13.785156c3.242187-3.519531 8.320312-10.453125 8.605469-19.65625.25-8.199218-3.3125-15.890625-10.59375-22.867187-1.523438-1.65625-6.8125-6.6875-19.09375-12.199219-.054688-.023438-.109376-.050781-.164063-.070312l-.09375-.039063c-.046875-.023437-.472656-.207031-1.082031-.550781-7.226563-4.085938-15.859375-4.082032-23.085938 0-.613281.34375-1.035156.527344-1.039062.53125l-.140625.058594c-.054688.019531-.109375.046874-.160157.070312-12.285156 5.515625-17.574218 10.542969-19.097656 12.199219-7.28125 6.976562-10.84375 14.667969-10.589844 22.867187.28125 9.203125 5.359376 16.136719 8.601563 19.65625v13.785156h-13.890625c-6.953125 0-12.605469 5.652344-12.605469 12.605469v153.792969h-13.042969c-4.144531 0-7.503906 3.359375-7.503906 7.503906v38.152344c-.160156.609375-.253906 1.246094-.253906 1.90625v40.058594c0 4.148437 3.359375 7.507812 7.507812 7.507812h179.238282c.128906 0 .253906-.015625.378906-.019531.125.003906.25.019531.375.019531h119.324219c.128906 0 .253906-.015625.378906-.019531.125.003906.25.019531.375.019531h119.324219c.128906 0 .253906-.015625.378906-.019531.125.003906.25.019531.375.019531h76.058594c4.144531 0 7.503906-3.359375 7.503906-7.507812v-80.117188c.003906-4.148437-3.355469-7.507812-7.5-7.507812zm-95.792969-212.019532c.265625-.25.335938-.304687.535157-.554687.496093-.503906 4.347656-4.21875 14.082031-8.601563l.101562-.042968c.453125-.191406 1.382813-.617188 2.550781-1.277344 2.605469-1.472656 5.71875-1.472656 8.324219 0 1.164063.660156 2.097657 1.085938 2.605469 1.300781l.050781.019531c9.730469 4.382813 13.582031 8.097657 14.078125 8.601563.199219.25.269532.304687.53125.554687 4.164063 3.933594 6.226563 7.851563 6.140625 11.640626-.089843 3.996093-2.445312 7.460937-4.121093 9.4375h-46.890626c-1.671874-1.964844-4.003906-5.402344-4.125-9.355469-.117187-3.816407 1.949219-7.761719 6.136719-11.722657zm40.390625 36.085938v9.539062h-37.917968v-9.539062zm-64.414062 24.546875h90.914062v68.191406h-17.367187v-21.035156c0-14.894531-12.113281-27.007813-27.007813-27.007813h-2.167968c-14.890626 0-27.007813 12.113282-27.007813 27.007813v21.035156h-17.363281zm58.539062 47.15625v21.03125h-26.164062v-21.03125c0-6.617187 5.382812-12 11.996094-12h2.167968c6.617188 0 12 5.382813 12 12zm-58.539062 36.042969h90.910156v68.1875h-17.363281v-21.035156c0-14.890626-12.113281-27.007813-27.007813-27.007813h-2.167968c-14.890626 0-27.007813 12.117187-27.007813 27.007813v21.035156h-17.363281zm58.539062 47.152344v21.035156h-26.164062v-21.035156c0-6.613282 5.382812-11.996094 11.996094-11.996094h2.167968c6.617188 0 12 5.382812 12 11.996094zm-89.582031-158.214844h16.035156v179.25h-16.035156zm-169.929687-31.957032h144.761718v16.945313h-144.761718zm-10.15625 31.957032h165.074218v179.25h-18.839844v-34.09375c0-4.144532-3.359374-7.503906-7.503906-7.503906-4.144531 0-7.503906 3.359374-7.503906 7.503906v34.09375h-96.773438v-112.019532c0-3.109374 1.828126-5.953124 4.65625-7.242187l43.035157-19.609375c.441406-.199219.949219-.199219 1.394531 0l43.03125 19.609375c2.828125 1.289063 4.65625 4.132813 4.65625 7.242187v32.207032c0 4.144531 3.359375 7.503906 7.503906 7.503906 4.144532 0 7.503906-3.359375 7.503906-7.503906v-32.207032c0-8.976562-5.273437-17.179687-13.441406-20.902343l-43.03125-19.609375c-4.398437-2-9.441406-2-13.84375 0l-43.035156 19.613281c-8.164062 3.71875-13.441406 11.921875-13.441406 20.898437v112.019532h-19.445313v-179.25zm-31.042969 103.558594v-103.5625h16.03125v179.253906h-16.03125zm-81.894531-136.328126c.261718-.25.332031-.304687.53125-.554687.496093-.503906 4.351562-4.222656 14.085937-8.601563l.09375-.039062c.453125-.195312 1.382813-.617188 2.558594-1.28125 2.605469-1.472656 5.714843-1.472656 8.320312 0 1.167969.660156 2.101563 1.085938 2.59375 1.296875l.058594.023437c9.734375 4.382813 13.585937 8.097657 14.082031 8.601563.199219.25.269532.304687.535156.554687 4.160157 3.933594 6.222657 7.851563 6.136719 11.640626-.089843 3.996093-2.441406 7.460937-4.121093 9.4375h-46.890626c-1.667968-1.964844-4.003906-5.402344-4.125-9.355469-.113281-3.816407 1.949219-7.761719 6.140626-11.722657zm40.386718 36.085938v9.539062h-37.914062v-9.539062zm-64.414062 24.546875h90.910156v68.191406h-17.367188v-21.035156c0-14.894531-12.117187-27.007813-27.007812-27.007813h-2.167969c-14.890625 0-27.007812 12.113282-27.007812 27.007813v21.035156h-17.359375zm58.535156 68.1875h-26.164062v-21.03125c0-6.617187 5.378906-12 11.996093-12h2.167969c6.617188 0 12 5.382813 12 12zm-58.535156 15.011719h90.910156v68.1875h-17.367188v-21.035156c0-14.890626-12.117187-27.007813-27.007812-27.007813h-2.167969c-14.890625 0-27.007812 12.117187-27.007812 27.007813v21.035156h-17.359375zm58.535156 68.1875h-26.164062v-21.035156c0-6.613282 5.378906-11.996094 11.996093-11.996094h2.167969c6.617188 0 12 5.382812 12 11.996094zm-34.425781 80.117187h-44.90625v-25.046875h44.90625zm7.503906-40.054687h-52.15625v-25.050782h104.3125v25.050782zm111.820313 40.054687h-104.195313v-25.046875h104.195313zm7.503906-40.054687h-51.402344v-25.050782h104.316406v25.050782zm112.574218 40.054687h-104.3125v-25.046875h104.3125zm7.507813-40.054687h-51.40625v-25.050782h104.316406v25.050782zm112.574219 40.054687h-104.316406v-25.046875h104.316406zm76.808594 0h-61.046876v-25.046875h61.046876zm0-40.054687h-121.460938v-25.050782h121.460938zm0 0"/></svg>