<svg height="511pt" viewBox="-55 1 511 511.99988" width="511pt" xmlns="http://www.w3.org/2000/svg"><path d="m390.894531 224.6875c-2.667969-27.5-7.238281-54.980469-15.558593-81.375-16.605469-52.683594-49.667969-98.046875-101.289063-120.589844-.246094-.105468-.492187-.210937-.738281-.320312-46.0625-19.9375-98.460938-19.9375-144.523438 0-.246094.105468-.492187.214844-.738281.320312-51.621094 22.542969-84.683594 67.90625-101.289063 120.589844-8.320312 26.394531-12.890624 53.875-15.558593 81.375-5.921875 61.027344-2.964844 122.601562 3.164062 183.457031 1.785157 17.699219 16.742188 31.144531 34.53125 31.144531h304.304688c17.789062 0 32.746093-13.445312 34.53125-31.144531 6.128906-60.855469 9.085937-122.429687 3.164062-183.457031zm0 0" fill="#575f64"/><path d="m387.730469 408.136719c-1.316407 13.074219-9.8125 23.816406-21.316407 28.546875.648438-2.242188 1.097657-4.570313 1.328126-6.976563 6.128906-64.125 9.085937-129.019531 3.160156-193.332031-2.667969-28.976562-7.238282-57.9375-15.550782-85.753906-16.613281-55.519532-49.671874-103.320313-101.292968-127.078125-.25-.109375-.492188-.21875-.742188-.328125-19.949218-9.117188-41.097656-14.265625-62.40625-15.472656 27.957032-1.570313 56.199219 3.328124 82.394532 14.660156.25.109375.492187.210937.742187.320312 51.621094 22.539063 84.679687 67.902344 101.292969 120.59375 8.316406 26.394532 12.882812 53.871094 15.550781 81.375 5.925781 61.023438 2.96875 122.601563-3.160156 183.445313zm0 0" fill="#474f54"/><path d="m322.933594 178.007812c-9.582032-11.527343-19.632813-22.460937-30.269532-33.113281-7.449218-7.460937-17.308593-14.320312-26.035156-20.320312-27.191406-18.703125-67.777344-19.183594-98.390625-12.183594-11.15625 2.550781-23.210937 5.609375-32.773437 12.183594-8.726563 6-18.585938 12.859375-26.035156 20.320312-10.636719 10.652344-20.6875 21.585938-30.269532 33.113281-23.476562 28.238282-16.75 63.6875-16.734375 98.019532.019531 54.808594 45.816407 100.546875 100.632813 100.546875h75.976562c54.816406 0 100.613282-45.738281 100.632813-100.546875.011719-34.332032 6.742187-69.78125-16.734375-98.019532zm0 0" fill="#fed2a4"/><path d="m339.664062 276.027344c-.019531 54.8125-45.808593 100.542968-100.621093 100.542968h-23.742188c54.816407 0 100.613281-45.730468 100.632813-100.542968.007812-34.328125 6.734375-69.78125-16.734375-98.015625-9.585938-11.53125-19.632813-22.460938-30.265625-33.117188-7.449219-7.457031-17.3125-14.320312-26.042969-20.324219-14.097656-9.699218-31.804687-14.492187-49.851563-15.878906 25.511719-1.886718 53.285157 1.914063 73.59375 15.878906 8.726563 6.003907 18.582032 12.867188 26.03125 20.324219 10.632813 10.65625 20.691407 21.585938 30.265626 33.117188 23.480468 28.234375 16.753906 63.6875 16.734374 98.015625zm0 0" fill="#ffbd86"/><path d="m135.785156 304.191406c0 8.167969-6.621094 14.792969-14.789062 14.792969-8.171875 0-14.792969-6.625-14.792969-14.792969 0-8.167968 6.621094-14.792968 14.792969-14.792968 8.167968 0 14.789062 6.625 14.789062 14.792968zm0 0" fill="#ff7a7a"/><path d="m296.414062 304.191406c0 8.167969-6.625 14.792969-14.792968 14.792969-8.171875 0-14.792969-6.625-14.792969-14.792969 0-8.167968 6.621094-14.792968 14.792969-14.792968 8.167968 0 14.792968 6.625 14.792968 14.792968zm0 0" fill="#ff7a7a"/><path d="m339.796875 219.476562s-.066406 0-.191406 0c-1.714844-14.769531-6.179688-28.839843-16.679688-41.464843-9.574219-11.53125-19.628906-22.460938-30.265625-33.117188-7.449218-7.457031-17.300781-14.320312-26.03125-20.324219-27.195312-18.699218-67.777344-19.179687-98.390625-12.183593-11.160156 2.5625-23.210937 5.613281-32.777343 12.183593-8.726563 6.003907-18.582032 12.867188-26.03125 20.324219-10.644532 10.65625-20.691407 21.585938-30.273438 33.117188-10.414062 12.519531-14.878906 26.453125-16.628906 41.082031-.539063-3.003906.375-22.597656.460937-23.789062 1.441407-18.640626 5.371094-37.214844 12.335938-54.585938 21.519531-53.6875 72.589843-84.347656 126.183593-84.320312 18.757813.011718 37.832032 3.773437 56.046876 11.632812 44.269531 19.085938 70.722656 60.128906 79.238281 106.464844 2.699219 14.601562 4.304687 30.113281 3.003906 44.980468zm0 0" fill="#efe2dd"/><path d="m281.429688 504.503906v-50.570312c0-16.886719-8.285157-33.042969-21.980469-42.917969-6.917969-4.992187-15.023438-8.261719-23.472657-9.449219-10.953124-1.542968-11.101562-1.210937-11.101562-12.683594 0-.03125 0-12.304687 0-12.304687h-47.660156v12.304687c0 11.472657-.144532 11.140626-11.101563 12.683594-8.449219 1.1875-16.550781 4.457032-23.472656 9.449219-13.691406 9.875-21.976563 26.035156-21.976563 42.917969v50.570312zm0 0" fill="#575f64"/><path d="m281.429688 453.933594v50.570312h-20.328126v-38.90625c0-16.890625-8.285156-33.042968-21.976562-42.929687-6.914062-4.984375-15.019531-8.253907-23.464844-9.441407-10.957031-1.539062-11.105468-1.210937-11.105468-12.683593v-23.96875h20.320312v12.304687c0 11.472656.148438 11.144532 11.101562 12.683594 8.445313 1.1875 16.550782 4.457031 23.476563 9.453125 13.691406 9.875 21.976563 26.035156 21.976563 42.917969zm0 0" fill="#474f54"/><path d="m270.988281 422.453125c-3.199219-4.351563-7.082031-8.222656-11.542969-11.433594-6.910156-4.992187-15.015624-8.265625-23.464843-9.449219-10.957031-1.550781-11.105469-1.21875-11.105469-12.683593 0-.03125 0-12.308594 0-12.308594s-23.824219 0-23.828125 0h-23.828125v12.308594c0 11.464843-.148438 11.136719-11.101562 12.683593-8.449219 1.183594-16.554688 4.457032-23.46875 9.449219-4.457032 3.210938-8.339844 7.082031-11.539063 11.433594-1.679687 2.28125 5.777344 14.414063 6.84375 16.199219 7.167969 11.984375 18 21.371094 30.738281 27.058594 21.613282 9.660156 45.394532 9.355468 66.671875-.90625 12.738281-6.140626 23.375-16.097657 30.140625-28.535157.835938-1.546875 6.863282-11.941406 5.484375-13.816406zm0 0" fill="#efe2dd"/><path d="m265.5 436.273438c-2.179688 3.988281-4.746094 7.722656-7.65625 11.164062-3.605469-9.824219-10.09375-18.542969-18.71875-24.769531-4.289062-3.09375-9.050781-5.53125-14.066406-7.21875-5.484375-1.84375-12.652344-1.496094-16.949219-6.015625-4.53125-4.761719-3.554687-13.257813-3.554687-19.230469 0-4.542969 0-9.085937 0-13.628906h20.316406v12.3125c0 8.238281.082031 10.386719 4.1875 11.515625.359375.101562.75.191406 1.167968.28125 4.5.964844 9.164063 1.265625 13.546876 2.597656 2.90625.882812 5.75 1.984375 8.472656 3.335938 5.609375 2.78125 10.773437 6.765624 15.03125 11.347656 1.25 1.34375 2.5625 2.9375 3.710937 4.484375 1.378907 1.878906-4.648437 12.273437-5.488281 13.824219zm0 0" fill="#e1d3ce"/><path d="m161.410156 238.386719c-4.140625 0-7.496094 3.355469-7.496094 7.496093v21.273438c0 4.140625 3.355469 7.496094 7.496094 7.496094s7.496094-3.355469 7.496094-7.496094v-21.273438c0-4.140624-3.355469-7.496093-7.496094-7.496093zm0 0"/><path d="m241.203125 274.652344c4.140625 0 7.496094-3.355469 7.496094-7.496094v-21.273438c0-4.140624-3.355469-7.496093-7.496094-7.496093s-7.496094 3.355469-7.496094 7.496093v21.273438c0 4.140625 3.355469 7.496094 7.496094 7.496094zm0 0"/><path d="m167.457031 217.132812c-1.292969-3.933593-5.53125-6.070312-9.460937-4.777343l-25.625 8.433593c-3.933594 1.292969-6.074219 5.53125-4.777344 9.464844 1.039062 3.152344 3.96875 5.152344 7.117188 5.152344.777343 0 1.566406-.121094 2.34375-.378906l25.628906-8.433594c3.929687-1.292969 6.070312-5.53125 4.773437-9.460938zm0 0"/><path d="m239.933594 226.59375 25.625 8.433594c.777344.257812 1.566406.378906 2.34375.378906 3.148437 0 6.082031-2 7.121094-5.152344 1.292968-3.933594-.847657-8.171875-4.777344-9.464844l-25.628906-8.433593c-3.929688-1.296875-8.167969.84375-9.460938 4.777343-1.296875 3.929688.84375 8.167969 4.777344 9.460938zm0 0"/><path d="m201.308594 339.429688c13.132812 0 23.820312-10.6875 23.820312-23.824219v-.746094c0-4.140625-3.355468-7.496094-7.496094-7.496094-4.136718 0-7.496093 3.355469-7.496093 7.496094v.746094c0 4.871093-3.960938 8.832031-8.828125 8.832031-4.871094 0-8.832032-3.960938-8.832032-8.832031v-.746094c0-4.140625-3.355468-7.496094-7.496093-7.496094s-7.496094 3.355469-7.496094 7.496094v.746094c0 13.136719 10.6875 23.824219 23.824219 23.824219zm0 0"/><path d="m401.023438 263.703125c-.160157-4.136719-3.632813-7.382813-7.78125-7.199219-4.136719.160156-7.359376 3.644532-7.199219 7.78125 1.640625 42.242188-.191407 87.714844-5.773438 143.105469-1.398437 13.914063-13.039062 24.402344-27.070312 24.402344h-68.570313c-.980468-2.476563-2.117187-4.890625-3.410156-7.222657-2.691406-4.855468-5.871094-9.136718-9.757812-13.078124-9.582032-9.710938-21.929688-15.597657-35.398438-17.484376-1.246094-.175781-2.59375-.359374-3.632812-.539062-.058594-1.328125-.058594-3.128906-.058594-4.585938v-4.808593h6.664062c28.515625 0 55.5625-11.335938 76.160156-31.914063 20.605469-20.585937 31.957032-47.621094 31.964844-76.128906.011719-25.039062 1.621094-49.964844.40625-74.992188-.453125-9.363281-1.699218-18.679687-3.398437-27.894531-9.632813-52.410156-40.121094-93.230469-83.640625-111.992187-18.808594-8.117188-38.664063-12.238282-59.015625-12.25-.027344 0-.050781 0-.078125 0-20.019532 0-39.425782 3.964844-57.667969 11.785156-3.808594 1.628906-5.570313 6.035156-3.9375 9.84375 1.628906 3.804688 6.039063 5.566406 9.84375 3.933594 16.367187-7.011719 33.78125-10.570313 51.761719-10.570313h.070312c18.300782.011719 36.160156 3.71875 53.085938 11.023438 38.21875 16.476562 65.238281 52.359375 74.398437 98.660156-.019531-.023437-.039062-.050781-.058593-.074219-.082032-.09375-.152344-.191406-.234376-.289062-9.496093-11.425782-19.546874-22.421875-30.726562-33.617188-3.875-3.878906-8.371094-7.609375-12.878906-11.046875-5.003906-3.816406-10.015625-7.265625-14.210938-10.152343-29.902344-20.5625-73.492187-20.359376-104.3125-13.3125-2.058594.46875-4.132812.960937-6.210937 1.480468-15.355469 3.835938-28.160157 10.714844-40.828125 20.085938-5.328125 3.945312-10.804688 8.339844-15.402344 12.949218-9.425781 9.441407-18.464844 19.171876-27.113281 29.324219-.152344.175781-.304688.359375-.453125.539063-.992188 1.167968-1.984375 2.335937-2.960938 3.511718 2.0625-10.335937 4.964844-20.1875 8.6875-29.464843 6.9375-17.308594 17.214844-32.445313 30.546875-44.980469 3.015625-2.835938 3.164063-7.582031.328125-10.597656-2.835937-3.015625-7.582031-3.160156-10.597656-.324219-14.933594 14.042969-26.4375 30.972656-34.191406 50.324219-6.953125 17.332031-11.277344 36.441406-12.859375 56.832031-1.417969 20.75-1.773438 41.910156-1.03125 62.703125.21875 6.113281.445312 12.441406.449219 18.5625.011718 28.511719 11.363281 55.546875 31.964843 76.132812 20.597657 20.578126 47.648438 31.914063 76.164063 31.914063h6.664062v4.808594c0 1.457031 0 3.257812-.058594 4.585937-.183593.605469-7.300781 1.097656-7.964843 1.230469-3.648438.722656-7.230469 1.820313-10.683594 3.207031-6.964844 2.804688-13.359375 6.902344-18.820313 12.054688-6.464843 6.105468-11.472656 13.621094-14.734374 21.832031h-68.566407c-14.035156 0-25.671875-10.492187-27.074219-24.402344-7.234374-71.820312-8.238281-129.648437-3.160156-181.980469 2.96875-30.601562 7.957032-56.71875 15.246094-79.84375 12.265625-38.914062 39.074219-90.617187 97.136719-115.972656l.71875-.3125c44.03125-19.0625 94.539062-19.058594 138.570312 0l.714844.3125c58.066406 25.355469 84.875 77.058594 97.140625 115.972656 6.703125 21.265626 11.429688 44.886719 14.453125 72.222657.457031 4.113281 4.15625 7.085937 8.273437 6.625 4.113282-.457031 7.082032-4.160157 6.625-8.273438-3.128906-28.316406-8.054687-52.875-15.054687-75.082031-8.9375-28.347656-22.003906-53.265625-38.839844-74.0625-18.332031-22.640625-40.738281-39.847656-66.601562-51.144531l-.757813-.328125c-47.816406-20.703125-102.664062-20.703125-150.476562-.003906l-.761719.332031c-25.863281 11.292969-48.269531 28.5-66.601563 51.140625-16.835937 20.796875-29.902343 45.714844-38.835937 74.0625-7.609375 24.132812-12.800781 51.25-15.871094 82.902344-5.175781 53.339843-4.167969 112.105468 3.167969 184.933593 2.175781 21.601563 20.226562 37.890625 41.988281 37.890625h64.730469c-.761719 0-.457031 52.648438-.457031 57.71875 0 4.140625 3.355469 7.496094 7.496093 7.496094h160.765626c4.136718 0 7.496093-3.355469 7.496093-7.496094v-50.570312c0-2.390625-.160156-4.777344-.453125-7.148438h64.726563c21.761719 0 39.8125-16.289062 41.988281-37.890625 5.648438-56.101562 7.503906-102.234375 5.835938-145.191406zm-237.964844 105.375c-24.515625 0-47.800782-9.773437-65.566406-27.527344-17.769532-17.75-27.5625-41.023437-27.570313-65.527343-.003906-6.390626-.234375-12.847657-.457031-19.097657-.910156-25.351562-1.699219-53.484375 15.460937-74.125 4.269531-5.140625 8.667969-10.191406 13.230469-15.214843 5.273438-5.804688 10.765625-11.570313 16.582031-17.390626 3.648438-3.660156 8.078125-7.269531 12.535157-10.617187 13.421874-10.070313 26.199218-16.121094 42.632812-19.878906 8.523438-1.945313 17.765625-3.335938 26.707031-3.84375.078125-.003907.152344-.007813.226563-.011719 8.652344-.472656 17.363281-.167969 25.949218.988281 10.074219 1.359375 19.875 4.230469 29.066407 8.570313 4.605469 2.175781 9.046875 4.695312 13.332031 7.449218 7.785156 5 15.613281 10.769532 22.171875 17.339844 5.859375 5.871094 11.589844 11.871094 17.152344 18.023438 5.398437 5.964844 11.050781 11.992187 15.664062 18.5.179688.257812.347657.519531.527344.777344 3.945313 5.769531 6.691406 11.875 8.566406 18.253906.03125.113281.066407.226562.101563.339844 4.710937 16.359374 4.054687 33.726562 3.347656 50.847656-.269531 6.417968-.542969 12.804687-.542969 19.089844-.011719 24.503906-9.800781 47.777343-27.570312 65.53125-17.769531 17.75-41.054688 27.527343-65.566407 27.527343h-75.980468zm-16.023438 48.015625c3.277344-2.359375 6.859375-4.28125 10.644532-5.695312 5.066406-1.890626 10.453124-2.304688 15.671874-3.382813 3.457032-.714844 6.191407-1.832031 8.34375-4.460937.898438-1.097657 1.523438-2.257813 1.96875-3.519532.019532-.0625.046876-.121094.074219-.203125.972657-2.929687.972657-6.410156.972657-10.949219v-4.808593h32.667968v4.808593c0 4.539063 0 8.019532.980469 10.96875.015625.054688.039063.105469.058594.160157 1.632812 4.667969 5.679687 7.042969 10.320312 8.003906 2.429688.5 4.890625.8125 7.335938 1.234375 6.882812 1.179688 13.289062 3.746094 18.988281 7.851562 2.976562 2.140626 5.667969 4.636719 8.027344 7.4375-.589844 1.394532-1.707032 3.714844-3.816406 7.5l-.359376.648438c-5.914062 10.871094-15.433593 19.878906-26.8125 25.367188-19.28125 9.300781-40.714843 9.589843-60.359374.8125-11.574219-5.171876-21.035157-13.492188-27.359376-24.0625l-.199218-.332032c-3.117188-5.179687-4.585938-8.191406-5.269532-9.832031 2.382813-2.84375 5.105469-5.375 8.121094-7.546875zm126.898438 79.914062h-145.773438v-43.074218c0-4.648438.730469-9.21875 2.09375-13.566406.355469.601562.707032 1.203124 1.089844 1.835937l.175781.292969c7.910157 13.230468 19.707031 23.625 34.109375 30.058594 11.503906 5.140624 23.515625 7.703124 35.5 7.703124 12.75 0 25.464844-2.902343 37.488282-8.703124 14.019531-6.761719 25.785156-17.84375 33.203124-31.238282 1.375 4.359375 2.113282 8.949219 2.113282 13.617188zm0 0"/></svg>