<svg height="512pt" viewBox="-31 0 512 512.001" width="512pt" xmlns="http://www.w3.org/2000/svg"><path d="m438.53125 128.464844h-426.78125c-3.265625 0-5.308594 3.546875-3.667969 6.371094l213.390625 367.535156c1.632813 2.824218 5.699219 2.824218 7.332032 0l213.390624-367.535156c1.644532-2.824219-.398437-6.371094-3.664062-6.371094zm-70.445312 48.824218-139.28125 239.878907c-1.632813 2.816406-5.699219 2.816406-7.332032 0l-139.277344-239.878907c-1.644531-2.832031.402344-6.371093 3.667969-6.371093h278.554688c3.265625 0 5.308593 3.539062 3.667969 6.371093zm0 0" fill="#ffc143"/><path d="m438.53125 128.472656h-18.152344l-208 358.246094 9.09375 15.660156c1.632813 2.8125 5.699219 2.8125 7.332032 0l213.390624-367.535156c1.644532-2.835938-.398437-6.371094-3.664062-6.371094zm0 0" fill="#ffb509"/><path d="m442.195312 377.15625-213.390624-367.535156c-1.632813-2.8125-5.699219-2.8125-7.332032 0l-213.390625 367.535156c-1.640625 2.835938.402344 6.371094 3.667969 6.371094h426.78125c3.265625 0 5.308594-3.535156 3.664062-6.371094zm-77.777343-36.074219h-278.554688c-3.265625 0-5.3125-3.546875-3.667969-6.371093l139.277344-239.886719c1.632813-2.816407 5.699219-2.816407 7.332032 0l139.28125 239.886719c1.640624 2.824218-.402344 6.371093-3.667969 6.371093zm0 0" fill="#ffc143"/><path d="m438.53125 383.527344h-18.152344l-208-358.246094 9.09375-15.660156c1.632813-2.8125 5.699219-2.8125 7.332032 0l213.390624 367.535156c1.644532 2.835938-.398437 6.371094-3.664062 6.371094zm0 0" fill="#ffb509"/><path d="m261.367188 446.292969c-3.585938-2.082031-8.1875-.863281-10.269532 2.726562l-25.957031 44.707031-66.171875-113.96875c-1.34375-2.316406-3.820312-3.738281-6.496094-3.738281h-135.039062l67.492187-116.246093c1.355469-2.332032 1.355469-5.214844 0-7.546876l-67.492187-116.246093h34.398437c4.148438 0 7.511719-3.363281 7.511719-7.511719 0-4.152344-3.363281-7.515625-7.511719-7.515625h-40.082031c-4.191406 0-8.09375 2.257813-10.1875 5.890625-2.089844 3.632812-2.082031 8.144531.023438 11.765625l68.152343 117.390625-68.152343 117.390625c-2.105469 3.621094-2.113282 8.132813-.023438 11.765625 2.09375 3.632812 5.996094 5.890625 10.1875 5.890625h136.398438l66.824218 115.101563c2.097656 3.609374 5.992188 5.851562 10.167969 5.851562 4.171875 0 8.070313-2.242188 10.164063-5.851562l28.789062-49.582032c2.082031-3.589844.863281-8.1875-2.726562-10.273437zm0 0"/><path d="m380.539062 256 68.15625-117.390625c2.105469-3.621094 2.113282-8.132813.019532-11.765625-2.089844-3.632812-5.996094-5.890625-10.1875-5.890625h-136.394532l-66.828124-115.097656c-2.09375-3.613281-5.992188-5.855469-10.164063-5.855469-4.175781 0-8.070313 2.242188-10.164063 5.851562l-66.828124 115.101563h-49.230469c-4.152344 0-7.515625 3.363281-7.515625 7.515625 0 4.148438 3.363281 7.511719 7.515625 7.511719h53.554687c2.679688 0 5.152344-1.425781 6.5-3.738281l66.167969-113.96875 66.171875 113.96875c1.34375 2.316406 3.816406 3.738281 6.496094 3.738281h135.039062l-67.492187 116.246093c-1.355469 2.332032-1.355469 5.214844 0 7.546876l67.492187 116.246093h-135.039062c-2.679688 0-5.15625 1.421875-6.5 3.738281l-16.441406 28.320313c-2.082032 3.589844-.859376 8.1875 2.726562 10.269531 1.1875.691406 2.484375 1.015625 3.765625 1.015625 2.589844 0 5.113281-1.339843 6.503906-3.738281l14.269531-24.578125h136.394532c4.195312 0 8.097656-2.257813 10.191406-5.890625 2.089844-3.632812 2.082031-8.144531-.023438-11.765625zm0 0"/><path d="m96.746094 217.3125v.003906l22.460937 38.683594-43.507812 74.933594c-2.105469 3.621094-2.117188 8.132812-.027344 11.765625 2.09375 3.636719 5.996094 5.898437 10.1875 5.898437h87.109375l42.003906 72.339844c2.09375 3.613281 5.988282 5.855469 10.167969 5.855469 4.175781 0 8.070313-2.242188 10.164063-5.851563l42.003906-72.34375h87.109375c4.191406 0 8.09375-2.261718 10.1875-5.898437 2.089843-3.636719 2.078125-8.144531-.023438-11.757813l-43.511719-74.941406 43.511719-74.9375v-.003906c2.105469-3.625 2.109375-8.136719.019531-11.765625-2.089843-3.632813-5.992187-5.886719-10.183593-5.886719h-87.105469l-42.007812-72.351562c-2.09375-3.609376-5.988282-5.855469-10.164063-5.855469s-8.070313 2.242187-10.164063 5.851562l-42.007812 72.355469h-87.105469c-4.191406 0-8.09375 2.253906-10.1875 5.886719-2.089843 3.628906-2.082031 8.136719.023438 11.769531zm-5.199219 116.257812 11.613281-20.003906 11.617188 20.003906zm40.609375 0-20.308594-34.96875 16.046875-27.640624 36.351563 62.609374zm92.984375 74.949219-10.460937-18.015625h20.917968zm19.183594-33.042969h-38.371094l-15.605469-26.878906h69.585938zm114.40625-41.90625h-22.152344l11.078125-19.078124zm-19.761719-34.039062-19.765625 34.039062h-33.167969l36.347656-62.605468zm19.761719-121.097656-11.074219 19.070312-11.074219-19.070312zm-39.523438 0 19.761719 34.035156-16.582031 28.566406-36.347657-62.601562zm-94.066406-74.960938 10.152344 17.484375h-20.304688zm-18.878906 32.511719h37.753906l15.921875 27.421875h-69.59375zm-24.644531 42.449219h87.046874l45.03125 77.566406-45.035156 77.566406h-87.039062l-45.035156-77.570312zm-17.375 0-36.347657 62.601562-16.046875-27.636718 20.300782-34.964844zm-49.46875 0-11.613282 20-11.613281-20zm0 0"/></svg>