<svg height="512pt" viewBox="-71 0 512 512.001" width="512pt" xmlns="http://www.w3.org/2000/svg"><g fill="#ff4343"><path d="m191 13.089844c-1.410156-1.609375-2.820312-3.222656-4.226562-4.828125-.894532-1.023438-2.347657-1.023438-3.242188 0-1.300781 1.484375-3.09375 3.535156-4.226562 4.828125-5.144532 5.878906-11.628907 14.042968-11.207032 22.988281.46875 9.878906 9.347656 14.765625 17.054688 14.765625 7.707031 0 16.589844-4.886719 17.054687-14.765625.421875-8.945313-6.0625-17.109375-11.207031-22.988281zm0 0"/><path d="m108.023438 13.089844c-1.40625-1.609375-2.816407-3.222656-4.222657-4.828125-.898437-1.023438-2.347656-1.023438-3.242187 0-1.300782 1.484375-3.09375 3.535156-4.226563 4.828125-5.144531 5.878906-11.628906 14.042968-11.207031 22.988281.46875 9.878906 9.347656 14.765625 17.054688 14.765625 7.707031 0 16.589843-4.886719 17.054687-14.765625.417969-8.945313-6.0625-17.109375-11.210937-22.988281zm0 0"/><path d="m273.972656 13.089844c-1.410156-1.609375-2.820312-3.222656-4.230468-4.828125-.894532-1.023438-2.34375-1.023438-3.238282 0-1.300781 1.484375-3.09375 3.535156-4.226562 4.828125-5.144532 5.878906-11.628906 14.042968-11.207032 22.988281.464844 9.878906 9.347657 14.765625 17.054688 14.765625s16.589844-4.886719 17.054688-14.765625c.421874-8.945313-6.0625-17.109375-11.207032-22.988281zm0 0"/><path d="m30.414062 13.089844c-1.410156-1.609375-2.816406-3.222656-4.226562-4.828125-.894531-1.023438-2.34375-1.023438-3.238281 0-1.300781 1.484375-3.09375 3.535156-4.226563 4.828125-5.148437 5.878906-11.628906 14.042968-11.207031 22.988281.464844 9.878906 9.347656 14.765625 17.054687 14.765625 7.707032 0 16.585938-4.886719 17.054688-14.765625.417969-8.945313-6.066406-17.109375-11.210938-22.988281zm0 0"/><path d="m351.582031 13.089844c-1.410156-1.609375-2.816406-3.222656-4.226562-4.828125-.894531-1.023438-2.34375-1.023438-3.238281 0-1.304688 1.484375-3.09375 3.535156-4.226563 4.828125-5.148437 5.878906-11.628906 14.042968-11.207031 22.988281.464844 9.878906 9.34375 14.765625 17.050781 14.765625s16.589844-4.886719 17.054687-14.765625c.421876-8.945313-6.0625-17.109375-11.207031-22.988281zm0 0"/></g><path d="m202.203125 36.074219c-.46875 9.878906-9.347656 14.765625-17.050781 14.765625-2.546875 0-5.214844-.527344-7.664063-1.597656 4.988281-2.167969 9.082031-6.542969 9.394531-13.167969.367188-7.910157-4.667968-15.214844-9.394531-20.867188.621094-.738281 1.230469-1.441406 1.820313-2.117187 1.128906-1.289063 2.925781-3.339844 4.226562-4.828125.886719-1.027344 2.347656-1.027344 3.234375 0 1.410157 1.609375 2.820313 3.21875 4.226563 4.828125 5.144531 5.882812 11.628906 14.042968 11.207031 22.984375zm0 0" fill="#f72c2c"/><path d="m119.234375 36.074219c-.46875 9.878906-9.347656 14.765625-17.050781 14.765625-2.539063 0-5.207032-.527344-7.664063-1.597656 4.988281-2.167969 9.074219-6.542969 9.382813-13.167969.371094-7.910157-4.65625-15.214844-9.390625-20.867188.617187-.738281 1.226562-1.441406 1.816406-2.117187 1.140625-1.289063 2.929687-3.339844 4.226563-4.828125.898437-1.027344 2.347656-1.027344 3.246093 0 1.410157 1.609375 2.816407 3.21875 4.226563 4.828125 5.144531 5.882812 11.628906 14.042968 11.207031 22.984375zm0 0" fill="#f72c2c"/><path d="m285.175781 36.074219c-.460937 9.878906-9.34375 14.765625-17.054687 14.765625-2.539063 0-5.214844-.527344-7.664063-1.597656 4.984375-2.167969 9.082031-6.542969 9.390625-13.167969.371094-7.910157-4.664062-15.214844-9.390625-20.867188.621094-.738281 1.230469-1.441406 1.820313-2.117187 1.136718-1.289063 2.925781-3.339844 4.226562-4.828125.898438-1.027344 2.347656-1.027344 3.246094 0 1.40625 1.609375 2.816406 3.21875 4.226562 4.828125 5.144532 5.882812 11.628907 14.042968 11.199219 22.984375zm0 0" fill="#f72c2c"/><path d="m41.621094 36.074219c-.46875 9.878906-9.351563 14.765625-17.050782 14.765625-2.550781 0-5.214843-.527344-7.664062-1.597656 4.984375-2.167969 9.082031-6.542969 9.390625-13.167969.371094-7.910157-4.664063-15.214844-9.390625-20.867188.621094-.738281 1.230469-1.441406 1.820312-2.117187 1.128907-1.289063 2.925782-3.339844 4.222657-4.828125.890625-1.027344 2.339843-1.027344 3.238281 0 1.410156 1.609375 2.816406 3.21875 4.226562 4.828125 5.144532 5.882812 11.628907 14.042968 11.207032 22.984375zm0 0" fill="#f72c2c"/><path d="m362.789062 36.074219c-.46875 9.878906-9.339843 14.765625-17.054687 14.765625-2.546875 0-5.214844-.527344-7.660156-1.597656 4.984375-2.167969 9.082031-6.542969 9.390625-13.167969.371094-7.910157-4.664063-15.214844-9.390625-20.867188.617187-.738281 1.230469-1.441406 1.816406-2.117187 1.128906-1.289063 2.929687-3.339844 4.226563-4.828125.898437-1.027344 2.347656-1.027344 3.238281 0 1.410156 1.609375 2.816406 3.21875 4.226562 4.828125 5.140625 5.882812 11.625 14.042968 11.207031 22.984375zm0 0" fill="#f72c2c"/><path d="m8.3125 77.191406v42.566406c0 97.441407 79.722656 178.527344 177.164062 178.351563 97.515626-.171875 176.511719-79.28125 176.511719-176.835937v-44.082032c0-1.808594-1.464843-3.277344-3.273437-3.277344h-27.210938c-1.808594 0-3.277344 1.46875-3.277344 3.277344v48.867188c0 76.234375-64.054687 138.035156-143.074218 138.035156-79.019532 0-143.078125-61.800781-143.078125-138.035156l.175781-48.855469c.007812-1.816406-1.464844-3.289063-3.277344-3.289063h-27.382812c-1.808594 0-3.277344 1.46875-3.277344 3.277344zm0 0" fill="#ffe1a8"/><path d="m361.988281 77.195312v44.078126c0 97.554687-78.992187 176.664062-176.515625 176.835937-2.648437 0-5.277344-.050781-7.894531-.171875 94.070313-4.054688 169.085937-81.597656 169.085937-176.664062v-44.078126c0-1.816406-1.46875-3.277343-3.277343-3.277343h15.324219c1.808593 0 3.277343 1.460937 3.277343 3.277343zm0 0" fill="#ffd98f"/><path d="m85.703125 77.191406v49.667969c0 54.964844 44.132813 100.335937 99.097656 100.527344 55.085938.191406 99.800781-44.40625 99.800781-99.449219v-50.746094c0-1.808594-1.464843-3.277344-3.277343-3.277344h-24.25c-1.808594 0-3.277344 1.46875-3.277344 3.277344v47.40625c0 36.574219-30.734375 66.226563-68.644531 66.226563-37.914063 0-68.644532-29.652344-68.644532-66.226563v-47.40625c0-1.808594-1.46875-3.277344-3.277343-3.277344h-24.253907c-1.808593 0-3.273437 1.46875-3.273437 3.277344zm0 0" fill="#ffe1a8"/><path d="m284.605469 77.195312v50.738282c0 55.046875-44.714844 99.644531-99.804688 99.453125-2.746093-.007813-5.472656-.128907-8.160156-.367188 50.917969-4.335937 90.890625-47.046875 90.890625-99.085937v-50.738282c0-1.816406-1.46875-3.277343-3.277344-3.277343h17.074219c1.808594 0 3.277344 1.460937 3.277344 3.277343zm0 0" fill="#ffd98f"/><path d="m251.402344 504.507812h-132.5v-19.210937c0-6.195313 5.023437-11.21875 11.21875-11.21875h110.0625c6.195312 0 11.21875 5.023437 11.21875 11.21875zm0 0" fill="#ffc143"/><path d="m251.398438 485.296875v19.210937h-19.871094v-19.210937c0-6.195313-5.015625-11.21875-11.21875-11.21875h19.871094c6.203124 0 11.21875 5.023437 11.21875 11.21875zm0 0" fill="#ffb509"/><path d="m200.480469 474.4375h-30.65625v-397.246094c0-1.808594 1.464843-3.277344 3.273437-3.277344h24.105469c1.808594 0 3.277344 1.46875 3.277344 3.277344zm0 0" fill="#ffe1a8"/><path d="m200.476562 77.195312v397.242188h-15.324218v-400.519531h12.046875c1.820312 0 3.277343 1.460937 3.277343 3.277343zm0 0" fill="#ffd98f"/><path d="m214.640625 419.011719c0 16.285156-13.203125 29.484375-29.488281 29.484375s-29.488282-13.199219-29.488282-29.484375c0-16.289063 13.203126-29.488281 29.488282-29.488281s29.488281 13.199218 29.488281 29.488281zm0 0" fill="#ffc143"/><path d="m214.644531 419.011719c0 16.285156-13.207031 29.492187-29.492187 29.492187-6.722656 0-12.917969-2.25-17.875-6.046875 15.125-1.257812 27.003906-13.933593 27.003906-29.378906 0-9.5625-4.554688-18.0625-11.605469-23.449219.816407-.078125 1.636719-.109375 2.476563-.109375 16.285156 0 29.492187 13.207031 29.492187 29.492188zm0 0" fill="#ffb509"/><path d="m211.355469 364.445312h-52.40625c-6.015625 0-10.890625-4.878906-10.890625-10.890624v-15.8125c0-6.015626 4.875-10.890626 10.890625-10.890626h52.40625c6.015625 0 10.890625 4.875 10.890625 10.890626v15.8125c0 6.011718-4.875 10.890624-10.890625 10.890624zm0 0" fill="#ffc143"/><path d="m222.246094 337.738281v15.816407c0 6.011718-4.875 10.886718-10.890625 10.886718h-17.070313c6.011719 0 10.886719-4.875 10.886719-10.886718v-15.816407c0-6.011719-4.875-10.886719-10.886719-10.886719h17.070313c6.015625 0 10.890625 4.875 10.890625 10.886719zm0 0" fill="#ffb509"/><path d="m370.273438 36.429688c.527343-11.171876-6.300782-20.5625-13.054688-28.277344l-4.222656-4.828125c-1.851563-2.113281-4.496094-3.324219-7.261719-3.324219-2.761719 0-5.40625 1.210938-7.257813 3.324219l-4.226562 4.828125c-6.75 7.714844-13.578125 17.109375-13.050781 28.277344.523437 11.117187 8.25 18.234374 17.042969 20.816406v9.175781h-6.738282c-5.9375 0-10.769531 4.832031-10.769531 10.769531v48.863282c0 64.496093-48.828125 118.210937-112.761719 128.6875v-22.3125c19.789063-4.277344 37.976563-14.101563 52.664063-28.742188 20.285156-20.210938 31.457031-47.113281 31.457031-75.75v-50.746094c0-5.9375-4.832031-10.769531-10.769531-10.769531h-5.707031v-9.175781c8.789062-2.582032 16.519531-9.699219 17.042968-20.8125.527344-11.171875-6.300781-20.566406-13.050781-28.28125l-4.226563-4.828125c-1.847656-2.113281-4.492187-3.324219-7.257812-3.324219-2.761719 0-5.40625 1.210938-7.253906 3.320312l-4.230469 4.832032c-6.75 7.714844-13.582031 17.109375-13.050781 28.277344.523437 11.117187 8.25 18.234374 17.042968 20.816406v9.175781h-3.558593c-5.9375 0-10.769531 4.832031-10.769531 10.769531v47.40625c0 24.636719-15.886719 45.753906-38.332032 54.460938v-28.40625c0-4.136719-3.355468-7.492188-7.492187-7.492188-4.140625 0-7.492188 3.355469-7.492188 7.492188v168.707031h-15.671875v-237.953125h15.671875v23.242188c0 4.136718 3.351563 7.492187 7.492188 7.492187 4.136719 0 7.492187-3.355469 7.492187-7.492187v-27.457032c0-5.9375-4.832031-10.769531-10.769531-10.769531h-4.558594v-9.175781c8.789063-2.582032 16.519531-9.699219 17.042969-20.816406.527344-11.171876-6.300781-20.5625-13.050781-28.277344l-4.226563-4.828125c-1.847656-2.113281-4.492187-3.324219-7.257812-3.324219s-5.410156 1.210938-7.257813 3.324219l-4.226562 4.828125c-6.75 7.714844-13.582031 17.105468-13.054688 28.28125.527344 11.113281 8.253907 18.230468 17.046875 20.8125v9.175781h-4.5625c-5.9375 0-10.769531 4.832031-10.769531 10.769531v101.886719c-22.445313-8.707031-38.328125-29.84375-38.328125-54.480469v-47.40625c0-5.9375-4.832031-10.769531-10.769531-10.769531h-3.558594v-9.175781c8.789063-2.582032 16.519531-9.699219 17.042969-20.8125.527344-11.171875-6.300782-20.566406-13.050782-28.28125h-.003906l-4.222656-4.828125c-1.847656-2.113281-4.496094-3.324219-7.257812-3.324219-2.765626 0-5.410157 1.210938-7.257813 3.324219l-4.230469 4.828125c-6.75 7.714844-13.578125 17.109375-13.050781 28.277344.523437 11.117187 8.253906 18.234374 17.042969 20.816406v9.175781h-5.707032c-5.9375 0-10.765624 4.832031-10.765624 10.769531v49.667969c0 51.582031 36.101562 94.917969 84.117187 105.527344v22.351562c-63.929687-10.476562-112.761719-64.183593-112.761719-128.65625l.175782-48.851562c.011718-2.886719-1.101563-5.597657-3.140626-7.640625-2.035156-2.042969-4.742187-3.167969-7.628906-3.167969h-6.914062v-9.179687c8.792968-2.578126 16.523437-9.695313 17.046875-20.8125.527343-11.171876-6.300781-20.5625-13.050781-28.277344h-.003907l-4.222656-4.828125c-1.851563-2.113281-4.496094-3.324219-7.261719-3.324219-2.761718 0-5.410156 1.210938-7.257812 3.324219l-4.226563 4.828125c-6.75 7.714844-13.578125 17.105468-13.0546872 28.28125.5273442 11.113281 8.2539062 18.230468 17.0468752 20.8125v9.175781h-5.484375c-5.9375 0-10.769532 4.832031-10.769532 10.769531v42.566406c0 45.863282 17.050782 90.078126 48.015626 124.492188 2.765624 3.074219 7.503906 3.328125 10.582031.558594 3.074219-2.769532 3.324219-7.503906.554687-10.582032-28.480468-31.660156-44.167968-72.3125-44.167968-114.46875v-38.351562h18.9375l-.160157 44.652344c0 72.746094 55.515625 133.199218 127.746094 143.859375v19.105469c-24.125-3.351563-47.324219-11.984376-68.09375-25.488282-3.46875-2.253906-8.109375-1.269531-10.367187 2.199219-2.253907 3.46875-1.269532 8.109375 2.199218 10.363281 23.21875 15.09375 49.226563 24.605469 76.261719 28.042969v15.21875h-3.378906c-10.140625 0-18.386719 8.246094-18.386719 18.382813v15.8125c0 10.136718 8.246094 18.382812 18.386719 18.382812h3.378906v18.007812c-8.609375 6.777344-14.15625 17.28125-14.15625 29.066407 0 11.78125 5.546875 22.289062 14.15625 29.066406v18.507813h-32.207031c-10.316406 0-18.710938 8.394531-18.710938 18.710937v19.210937c0 4.136719 3.355469 7.492188 7.492188 7.492188h132.5c4.140625 0 7.492187-3.351562 7.492187-7.492188v-19.210937c0-10.316406-8.390625-18.710937-18.710937-18.710937h-32.207032v-18.507813c8.609376-6.777344 14.15625-17.285156 14.15625-29.066406 0-11.785157-5.546874-22.289063-14.15625-29.066407v-18.007812h3.378907c10.140625 0 18.386719-8.246094 18.386719-18.382812v-15.8125c0-10.132813-8.246094-18.382813-18.386719-18.382813h-3.378907v-15.164063c40.644532-4.992187 78.242188-23.253906 107.628907-52.691406 34.742187-34.800781 53.878906-81.054687 53.878906-130.230468v-44.082032c0-5.9375-4.832031-10.769531-10.769531-10.769531h-5.484375v-9.175781c8.789062-2.582032 16.519531-9.699219 17.042969-20.816406zm-111.71875-.703126c-.273438-5.859374 4.578124-12.238281 9.363281-17.703124l.207031-.238282.207031.238282c4.785157 5.464843 9.640625 11.847656 9.363281 17.703124-.296874 6.253907-7.007812 7.621094-9.566406 7.621094-2.5625 0-9.277344-1.367187-9.574218-7.621094zm-50.582032 159.171876c30.863282-9.414063 53.316406-37.351563 53.316406-70.300782v-43.191406h15.820313v46.53125c0 24.625-9.605469 47.757812-27.046875 65.136719-11.835938 11.796875-26.3125 19.949219-42.089844 23.957031zm-32.390625-159.171876c-.273437-5.859374 4.578125-12.238281 9.363281-17.703124l.207032-.238282.207031.238282c4.785156 5.464843 9.636719 11.84375 9.363281 17.703124-.296875 6.25-7.007812 7.621094-9.570312 7.621094s-9.273438-1.367187-9.570313-7.621094zm-160.582031 0c-.277344-5.859374 4.574219-12.238281 9.359375-17.703124l.210937-.238282.207032.238282c4.78125 5.464843 9.636718 11.847656 9.359375 17.703124-.292969 6.253907-7.007813 7.621094-9.566407 7.621094-2.5625 0-9.277343-1.367187-9.570312-7.621094zm77.609375 0c-.277344-5.859374 4.578125-12.238281 9.359375-17.703124l.210938-.238282.207031.238282c4.785156 5.464843 9.636719 11.847656 9.363281 17.703124-.296875 6.253907-7.011719 7.621094-9.570312 7.621094-2.5625 0-9.277344-1.367187-9.570313-7.621094zm.585937 91.132813v-45.453125h15.820313v43.191406c0 32.949219 22.453125 60.894532 53.3125 70.308594v22.070312c-39.679687-10.3125-69.132813-46.84375-69.132813-90.117187zm146.988282 354.710937c2.054687 0 3.726562 1.671876 3.726562 3.726563v11.71875h-117.515625v-11.71875c0-2.054687 1.671875-3.726563 3.726563-3.726563zm-55.03125-84.554687c12.128906 0 21.996094 9.867187 21.996094 21.996094 0 12.125-9.867188 21.992187-21.996094 21.992187s-21.996094-9.867187-21.996094-21.992187c0-12.128907 9.867188-21.996094 21.996094-21.996094zm-7.835938-14.144531v-10.933594h15.671875v10.933594c-2.527343-.546875-5.148437-.84375-7.835937-.84375s-5.308594.296875-7.835938.84375zm15.671875 72.277344v11.4375h-15.671875v-11.4375c2.527344.546874 5.148438.84375 7.835938.84375s5.308594-.296876 7.835937-.84375zm21.765625-117.40625v15.8125c0 1.871093-1.523437 3.398437-3.398437 3.398437h-52.40625c-1.875 0-3.398438-1.527344-3.398438-3.398437v-15.8125c0-1.875 1.523438-3.398438 3.398438-3.398438h52.40625c1.875 0 3.398437 1.523438 3.398437 3.398438zm139.742188-256.335938v39.867188c0 45.179687-17.578125 87.667968-49.496094 119.644531-26.550781 26.59375-60.394531 43.269531-97.027344 48.175781v-19.195312c72.230469-10.660157 127.75-71.09375 127.75-143.84375v-44.648438zm-8.757813-38.058594c-2.5625 0-9.277343-1.371094-9.570312-7.621094-.277344-5.859374 4.574219-12.238281 9.359375-17.703124l.207031-.238282.210937.238282c4.78125 5.464843 9.636719 11.84375 9.359376 17.703124-.292969 6.253907-7.007813 7.621094-9.566407 7.621094zm0 0"/></svg>