<svg height="511pt" viewBox="-3 1 511 511.999" width="511pt" xmlns="http://www.w3.org/2000/svg"><path d="m53.324219 423.320312h165.378906v81.171876h-165.378906zm0 0" fill="#0396fd"/><path d="m195.988281 423.320312h22.714844v81.171876h-22.714844zm0 0" fill="#0077f0"/><path d="m234.394531 94.367188c-.160156-12.222657-10.128906-22.039063-22.351562-22.039063h-.847657c-12.347656 0-22.359374 10.007813-22.359374 22.355469v-50.046875c0-12.347657-10.007813-22.359375-22.359376-22.359375h-.683593c-12.34375 0-22.355469 10.011718-22.355469 22.359375v-14.769531c0-12.347657-10.007812-22.359376-22.359375-22.359376h-.683594c-12.34375 0-22.355469 10.007813-22.355469 22.355469v32.003907c0-12.347657-10.007812-22.359376-22.355468-22.359376s-22.359375 10.007813-22.359375 22.355469v84.40625c0-12.789062-10.59375-23.101562-23.480469-22.644531-12.28125.4375-21.832031 10.902344-21.832031 23.1875v46.980469c0 24.183593 6.078125 48.058593 18.152343 69.011719 11.53125 20.019531 24.933594 32.929687 34.289063 40.3125 7.449219 5.878906 11.742187 14.878906 11.742187 24.363281v43.539062h126.351563v-50.996093c0-7.335938 2.644531-14.390626 7.3125-20.046876 19.992187-24.230468 26.578125-58.523437 28.292969-89.007812 2.179687-38.742188.75-77.699219.242187-116.601562zm0 0" fill="#fed2a4"/><path d="m234.152344 210.96875c-1.71875 30.488281-8.300782 64.785156-28.296875 89.015625-4.671875 5.65625-7.316407 12.710937-7.316407 20.046875v50.992188h-21.113281v-54.824219c0-5.082031 1.855469-9.988281 5.226563-13.785157 21.621094-24.328124 28.609375-59.921874 30.382812-91.445312 2.171875-38.738281.753906-77.679688.242188-116.578125-.109375-8.589844-5.058594-15.988281-12.226563-19.632813 3.046875-1.558593 6.488281-2.429687 10.144531-2.429687h.851563c12.21875 0 22.183594 9.8125 22.34375 22.035156.511719 38.90625 1.945313 77.859375-.238281 116.605469zm0 0" fill="#ffbd86"/><path d="m218.703125 423.320312h-165.378906v-44.332031c0-4.398437 3.566406-7.964843 7.964843-7.964843h149.445313c4.402344 0 7.96875 3.566406 7.96875 7.964843zm0 0" fill="#ffc143"/><path d="m218.703125 423.320312h-22.714844v-52.296874h14.746094c4.402344 0 7.96875 3.566406 7.96875 7.964843zm0 0" fill="#ffb509"/><path d="m211.648438 304.757812c17.621093-21.355468 27.714843-52.769531 30-93.367187 1.753906-31.148437 1.1875-62.816406.640624-93.445313-.140624-7.890624-.285156-15.785156-.386718-23.675781-.214844-16.238281-13.609375-29.453125-29.859375-29.453125h-.847657c-5.40625 0-10.472656 1.453125-14.851562 3.972656v-24.152343c0-16.46875-13.394531-29.867188-29.867188-29.867188h-.683593c-6.132813 0-11.84375 1.863281-16.589844 5.046875-4.136719-11.539062-15.179687-19.816406-28.125-19.816406h-.683594c-16.464843 0-29.863281 13.398438-29.863281 29.867188v6.101562c-4.378906-2.519531-9.449219-3.96875-14.851562-3.96875-16.46875 0-29.863282 13.398438-29.863282 29.867188v58.300781c-4.867187-2.839844-10.445312-4.257813-16.246094-4.042969-16.027343.570312-29.070312 14.335938-29.070312 30.6875v46.984375c0 25.851563 6.625 51.011719 19.152344 72.757813 12.171875 21.117187 26.375 34.746093 36.148437 42.460937 5.644531 4.453125 8.882813 11.1875 8.882813 18.464844v36.03125h-3.394532c-8.53125 0-15.472656 6.945312-15.472656 15.476562v125.503907c0 4.144531 3.363282 7.507812 7.507813 7.507812h165.378906c4.144531 0 7.507813-3.363281 7.507813-7.507812v-16.558594c0-4.144532-3.363282-7.507813-7.507813-7.507813-4.148437 0-7.511719 3.363281-7.511719 7.507813v9.046875h-150.359375v-66.152344h150.359375v9.886719c0 4.148437 3.363282 7.507812 7.511719 7.507812 4.144531 0 7.507813-3.359375 7.507813-7.507812v-61.726563c0-8.53125-6.941407-15.472656-15.476563-15.472656h-4.679687v-43.488281c0-5.476563 1.984374-10.898438 5.59375-15.269532zm-.914063 73.773438c.253906 0 .457031.207031.457031.457031v36.824219h-150.359375v-36.824219c0-.25.207031-.457031.457031-.457031zm-10.667969-83.332031c-5.824218 7.058593-9.03125 15.871093-9.03125 24.824219v43.488281h-111.332031v-36.03125c0-11.90625-5.320313-22.933594-14.597656-30.253907-8.738281-6.898437-21.460938-19.121093-32.4375-38.167968-11.21875-19.46875-17.148438-42.035156-17.148438-65.261719v-46.984375c0-8.363281 6.542969-15.398438 14.589844-15.683594 4.15625-.152344 8.089844 1.359375 11.078125 4.238282 2.984375 2.882812 4.628906 6.753906 4.628906 10.902343v53.800781c0 9.277344 5.15625 17.667969 13.460938 21.894532 8.601562 4.386718 24.640625 13.785156 35.355468 27.476562 1.480469 1.894532 3.691407 2.882813 5.921876 2.882813 1.617187 0 3.25-.523438 4.621093-1.597657 3.265625-2.554687 3.839844-7.273437 1.285157-10.539062-11.875-15.171875-28.507813-25.558594-40.371094-31.601562-3.242188-1.652344-5.253906-4.914063-5.253906-8.515626v-138.203124c0-8.1875 6.660156-14.851563 14.847656-14.851563s14.847656 6.664063 14.847656 14.851563v99.886718c0 4.148438 3.363281 7.511719 7.507812 7.511719 4.148438 0 7.511719-3.363281 7.511719-7.511719v-131.886718c0-8.1875 6.660157-14.851563 14.847657-14.851563h.683593c8.1875 0 14.847657 6.664063 14.847657 14.851563v131.886718c0 4.148438 3.363281 7.511719 7.511718 7.511719 4.144532 0 7.507813-3.363281 7.507813-7.511719v-117.117187c0-8.1875 6.660156-14.847657 14.847656-14.847657h.683594c8.1875 0 14.851562 6.660157 14.851562 14.847657v117.117187c0 4.148438 3.359375 7.511719 7.507813 7.511719 4.144531 0 7.507812-3.363281 7.507812-7.511719v-67.070312c0-8.1875 6.660156-14.847656 14.847656-14.847656h.851563c8.078125 0 14.738281 6.5625 14.84375 14.632812.101563 7.914062.242187 15.828125.386719 23.746094.542968 30.351562 1.105468 61.738281-.617188 92.332031-2.105468 37.335937-11.050781 65.816406-26.59375 84.652344zm0 0"/><path d="m286.851562 423.320312h165.375v81.171876h-165.375zm0 0" fill="#0396fd"/><path d="m429.515625 423.320312h22.710937v81.171876h-22.710937zm0 0" fill="#0077f0"/><path d="m271.160156 94.367188c.160156-12.222657 10.125-22.039063 22.351563-22.039063h.847656c12.347656 0 22.359375 10.007813 22.359375 22.355469v-50.046875c0-12.347657 10.007812-22.359375 22.355469-22.359375h.683593c12.347657 0 22.359376 10.011718 22.359376 22.359375v-14.769531c0-12.347657 10.007812-22.359376 22.355468-22.359376h.683594c12.347656 0 22.359375 10.007813 22.359375 22.355469v32.003907c0-12.347657 10.007813-22.359376 22.355469-22.359376s22.355468 10.007813 22.355468 22.355469v84.40625c0-12.789062 10.59375-23.101562 23.484376-22.644531 12.277343.4375 21.832031 10.902344 21.832031 23.1875v46.980469c0 24.183593-6.078125 48.058593-18.152344 69.011719-11.535156 20.019531-24.933594 32.929687-34.292969 40.3125-7.445312 5.878906-11.742187 14.878906-11.742187 24.363281v43.539062h-126.347657v-50.996093c0-7.335938-2.644531-14.390626-7.3125-20.046876-19.992187-24.230468-26.578124-58.523437-28.292968-89.007812-2.183594-38.742188-.753906-77.699219-.242188-116.601562zm0 0" fill="#fed2a4"/><path d="m497.539062 146.8125v46.984375c0 24.179687-6.078124 48.058594-18.152343 69.011719-11.53125 20.011718-24.925781 32.925781-34.289063 40.316406-7.449218 5.867188-11.742187 14.867188-11.742187 24.359375v43.539063h-17.761719v-49.445313c0-9.488281 4.296875-22.136719 11.746094-28 9.347656-7.390625 22.753906-20.304687 34.289062-40.316406 12.074219-20.957031 18.148438-44.832031 18.148438-69.011719v-37.4375c0-9.441406-5.636719-17.800781-13.824219-21.363281 2.972656-1.292969 6.285156-1.941407 9.761719-1.824219 12.273437.441406 21.824218 10.90625 21.824218 23.1875zm0 0" fill="#ffbd86"/><path d="m286.851562 423.320312h165.375v-44.332031c0-4.398437-3.566406-7.964843-7.964843-7.964843h-149.445313c-4.398437 0-7.964844 3.566406-7.964844 7.964843zm0 0" fill="#ffc143"/><path d="m452.226562 423.320312h-22.710937v-52.296874h14.746094c4.398437 0 7.964843 3.566406 7.964843 7.964843zm0 0" fill="#ffb509"/><path d="m475.976562 116.125c-5.796874-.21875-11.375 1.203125-16.238281 4.042969v-58.300781c0-16.46875-13.398437-29.867188-29.867187-29.867188-5.402344 0-10.472656 1.449219-14.847656 3.96875v-6.101562c0-16.46875-13.398438-29.867188-29.867188-29.867188h-.683594c-12.945312 0-23.988281 8.277344-28.121094 19.816406-4.75-3.183594-10.457031-5.046875-16.59375-5.046875h-.683593c-16.46875 0-29.867188 13.398438-29.867188 29.867188v24.152343c-4.375-2.519531-9.445312-3.972656-14.847656-3.972656h-.851563c-16.25 0-29.644531 13.214844-29.859374 29.453125-.101563 7.890625-.242188 15.785157-.382813 23.675781-.550781 30.628907-1.117187 62.296876.636719 93.445313 2.285156 40.597656 12.378906 72.011719 30 93.367187 3.609375 4.371094 5.597656 9.792969 5.597656 15.265626v43.488281h-4.683594c-8.53125 0-15.472656 6.945312-15.472656 15.476562v125.503907c0 4.144531 3.359375 7.507812 7.507812 7.507812h165.375c4.148438 0 7.511719-3.363281 7.511719-7.507812v-125.503907c0-8.53125-6.945312-15.472656-15.476562-15.472656h-3.394531v-36.03125c0-7.28125 3.238281-14.015625 8.886718-18.472656.746094-.589844 1.511719-1.207031 2.300782-1.859375 3.195312-2.644532 3.644531-7.375 1-10.574219-2.644532-3.191406-7.375-3.640625-10.570313-.996094-.703125.578125-1.382813 1.128907-2.039063 1.644531-9.277343 7.320313-14.597656 18.347657-14.597656 30.257813v36.03125h-111.328125v-43.488281c0-8.953125-3.207031-17.769532-9.03125-24.824219-15.542969-18.835937-24.488281-47.320313-26.589843-84.652344-1.722657-30.59375-1.160157-61.980469-.617188-92.335937.140625-7.914063.28125-15.832032.386719-23.746094.105469-8.070312 6.765625-14.632812 14.84375-14.632812h.847656c8.1875 0 14.847656 6.660156 14.847656 14.847656v67.074218c0 4.144532 3.363281 7.507813 7.511719 7.507813 4.144531 0 7.507812-3.363281 7.507812-7.507813v-117.121093c0-8.1875 6.660157-14.847657 14.847657-14.847657h.683593c8.1875 0 14.851563 6.660157 14.851563 14.847657v117.117187c0 4.148438 3.359375 7.511719 7.507813 7.511719 4.144531 0 7.507812-3.363281 7.507812-7.511719v-131.886718c0-8.1875 6.660156-14.851563 14.847656-14.851563h.6875c8.1875 0 14.847656 6.664063 14.847656 14.851563v131.886718c0 4.148438 3.363282 7.511719 7.507813 7.511719 4.148437 0 7.507813-3.363281 7.507813-7.511719v-99.886718c0-8.1875 6.660156-14.851563 14.851562-14.851563 8.1875 0 14.847656 6.664063 14.847656 14.851563v138.207031c0 3.597656-2.015625 6.859375-5.257812 8.515625-11.863282 6.039062-28.496094 16.425781-40.371094 31.597656-2.554688 3.265625-1.980469 7.988281 1.289062 10.542969 1.371094 1.074219 3 1.59375 4.621094 1.59375 2.230469 0 4.4375-.988281 5.917969-2.878907 10.71875-13.695312 26.753906-23.09375 35.359375-27.476562 8.300781-4.226562 13.457031-12.617188 13.457031-21.894531v-53.804688c0-4.148437 1.644531-8.019531 4.632813-10.902343 2.980468-2.878907 6.902344-4.394532 11.078125-4.234376 8.042969.285157 14.585937 7.320313 14.585937 15.679688v46.984375c0 23.226563-5.929687 45.792969-17.144531 65.261719-.703125 1.21875-1.414063 2.410156-2.128906 3.578125-2.171875 3.53125-1.070313 8.15625 2.464843 10.328125 1.226563.753906 2.582032 1.109375 3.921876 1.109375 2.523437 0 4.988281-1.269531 6.40625-3.578125.789062-1.28125 1.570312-2.597656 2.347656-3.941406 12.527344-21.746094 19.152344-46.90625 19.152344-72.757813v-46.984375c-.003907-16.351562-13.042969-30.117188-29.078126-30.6875zm-31.257812 380.859375h-150.359375v-66.15625h150.359375zm-.457031-118.453125c.253906 0 .457031.207031.457031.457031v36.824219h-150.359375v-36.824219c0-.25.207031-.457031.457031-.457031zm0 0"/></svg>