<svg height="512pt" viewBox="-48 0 512 512.001" width="512pt" xmlns="http://www.w3.org/2000/svg"><path d="m67.710938 7.488281v430.214844h-26.8125c-9.226563 0-17.578126 3.742187-23.625 9.789063-6.035157 6.046874-9.78125 14.398437-9.78125 23.613281v-447.253907c0-9.039062 7.328124-16.363281 16.363281-16.363281zm0 0" fill="#575f64"/><path d="m43.054688 7.488281h24.652343v430.214844h-24.652343zm0 0" fill="#474f54"/><path d="m391.246094 504.511719h-350.351563c-18.449219 0-33.40625-14.953125-33.40625-33.402344s14.957031-33.402344 33.40625-33.402344h366.714844v50.441407c0 9.039062-7.328125 16.363281-16.363281 16.363281zm0 0" fill="#efe2dd"/><path d="m407.609375 437.703125v50.445313c0 9.042968-7.320313 16.363281-16.363281 16.363281h-37.09375c9.046875 0 16.367187-7.320313 16.367187-16.363281v-50.445313zm0 0" fill="#e1d3ce"/><path d="m407.609375 437.707031h-339.898437v-430.21875h323.535156c9.035156 0 16.363281 7.324219 16.363281 16.363281zm0 0" fill="#ff4343"/><path d="m407.609375 23.851562v413.851563h-37.089844v-413.851563c0-9.042968-7.332031-16.363281-16.367187-16.363281h37.09375c9.042968 0 16.363281 7.320313 16.363281 16.363281zm0 0" fill="#f72c2c"/><path d="m351.015625 85.222656h-7.125c-8.832031 0-15.992187-7.160156-15.992187-15.992187v-6.183594c0-2.753906-2.234376-4.992187-4.992188-4.992187h-171.078125c-2.757813 0-4.992187 2.238281-4.992187 4.992187v6.183594c0 8.832031-7.160157 15.992187-15.992188 15.992187h-7.125c-2.753906 0-4.992188 2.234375-4.992188 4.992188v262.414062c0 2.753906 2.238282 4.992188 4.992188 4.992188h7.125c8.832031 0 15.992188 7.160156 15.992188 15.992187v6.179688c0 2.757812 2.234374 4.992187 4.992187 4.992187h171.078125c2.757812 0 4.992188-2.234375 4.992188-4.992187v-6.179688c0-8.832031 7.160156-15.992187 15.992187-15.992187h7.125c2.753906 0 4.992187-2.238282 4.992187-4.992188v-262.414062c0-2.757813-2.234374-4.992188-4.992187-4.992188zm0 0" fill="#efe2dd"/><path d="m351.015625 85.222656h-7.125c-8.832031 0-15.992187-7.160156-15.992187-15.992187v-6.183594c0-2.753906-2.234376-4.992187-4.992188-4.992187h-171.078125c-2.757813 0-4.992187 2.238281-4.992187 4.992187v6.183594c0 8.832031-7.160157 15.992187-15.992188 15.992187h-7.125c-2.753906 0-4.992188 2.234375-4.992188 4.992188v262.414062c0 2.753906 2.238282 4.992188 4.992188 4.992188h7.125c8.832031 0 15.992188 7.160156 15.992188 15.992187v6.179688c0 2.757812 2.234374 4.992187 4.992187 4.992187h171.078125c2.757812 0 4.992188-2.234375 4.992188-4.992187v-6.179688c0-8.832031 7.160156-15.992187 15.992187-15.992187h7.125c2.753906 0 4.992187-2.238282 4.992187-4.992188v-262.414062c0-2.757813-2.234374-4.992188-4.992187-4.992188zm0 0" fill="#efe2dd"/><path d="m356.007812 90.210938v262.410156c0 2.765625-2.238281 4.992187-4.992187 4.992187h-7.128906c-8.824219 0-15.984375 7.167969-15.984375 15.996094v6.1875c0 2.757813-2.234375 4.992187-4.992188 4.992187h-17.222656v-28.683593c0-7.847657 5.914062-14.683594 13.738281-15.234375.351563-.019532.710938-.027344 1.058594-.027344h6.800781c2.625 0 4.761719-2.136719 4.761719-4.765625v-229.316406c0-2.625-2.136719-4.761719-4.761719-4.761719h-6.800781c-.347656 0-.707031-.007812-1.058594-.027344-7.824219-.550781-13.738281-7.390625-13.738281-15.238281v-28.683594h17.222656c2.757813 0 4.992188 2.238281 4.992188 4.992188v6.191406c0 8.824219 7.160156 15.984375 15.984375 15.984375h7.128906c2.753906 0 4.992187 2.234375 4.992187 4.992188zm0 0" fill="#e1d3ce"/><path d="m309.722656 206.265625h-57.203125v-33.050781h56.804688c4.21875 0 7.648437-3.433594 7.648437-7.652344v-2.679688c0-12.574218-10.226562-22.800781-22.800781-22.800781h-64.445313c-4.21875 0-7.652343 3.429688-7.652343 7.648438v58.539062h-31.578125v-58.539062c0-4.21875-3.429688-7.648438-7.648438-7.648438h-2.683594c-12.570312 0-22.796874 10.226563-22.796874 22.800781v66.179688c0 4.21875 3.429687 7.648438 7.648437 7.648438h57.0625v34.96875h-41.644531c-12.570313 0-22.796875 10.226562-22.796875 22.800781v.632812c0 4.214844 3.429687 7.648438 7.648437 7.648438h79.589844c4.214844 0 7.648438-3.433594 7.648438-7.648438v-58.402343h33.765624v58.402343c0 4.214844 3.433594 7.648438 7.652344 7.648438h.632813c12.570312 0 22.796875-10.230469 22.796875-22.800781v-66.042969c0-4.21875-3.433594-7.652344-7.648438-7.652344zm0 0" fill="#ff4343"/><path d="m279.191406 140.078125h14.976563c12.578125 0 22.804687 10.234375 22.804687 22.804687v2.683594c0 4.214844-3.425781 7.648438-7.648437 7.648438h-14.976563c4.222656 0 7.648438-3.433594 7.648438-7.648438v-2.683594c0-12.570312-10.222656-22.804687-22.804688-22.804687zm0 0" fill="#f72c2c"/><path d="m317.371094 213.917969v66.042969c0 12.570312-10.234375 22.804687-22.804688 22.804687h-.628906c-1.957031 0-3.753906-.75-5.109375-1.96875 7.984375-3.542969 13.566406-11.550781 13.566406-20.835937v-66.042969c0-4.222657-3.433593-7.648438-7.648437-7.648438h14.976562c4.214844 0 7.648438 3.425781 7.648438 7.648438zm0 0" fill="#f72c2c"/><path d="m391.246094 0h-367.390625c-13.148438 0-23.8476565 10.699219-23.8476565 23.851562v26.8125c0 4.136719 3.3515625 7.488282 7.4843755 7.488282 4.136718 0 7.488281-3.351563 7.488281-7.488282v-26.8125c0-4.894531 3.984375-8.875 8.875-8.875h36.367187v415.238282c-8.359375 0-17.128906-.78125-25.402344.457031-.089843.011719-.179687.027344-.269531.042969-7.191406 1.113281-13.910156 4.109375-19.570312 8.761718v-341.886718c0-4.136719-3.351563-7.484375-7.488281-7.484375-4.132813 0-7.48828175 3.351562-7.48828175 7.484375v373.328125c0 .0625-.00390625.125-.00390625.191406 0 22.546875 18.34375 40.890625 40.890625 40.890625h350.355469c13.148437 0 23.851562-10.699219 23.851562-23.851562v-464.296876c0-13.152343-10.699218-23.851562-23.851562-23.851562zm8.875 463.621094h-348.445313c-4.132812 0-7.488281 3.351562-7.488281 7.488281s3.355469 7.488281 7.488281 7.488281h348.445313v9.550782c0 4.894531-3.980469 8.875-8.875 8.875h-350.351563c-16.476562 0-26.203125-13.890626-25.535156-29.109376.550781-12.617187 12.640625-22.71875 25.535156-22.71875h26.816407 332.410156zm0-33.402344h-324.921875v-415.242188h316.046875c4.894531 0 8.875 3.980469 8.875 8.875zm0 0"/><path d="m351.015625 77.734375h-7.125c-4.6875 0-8.503906-3.816406-8.503906-8.503906v-6.183594c0-6.878906-5.597657-12.480469-12.480469-12.480469h-171.078125c-6.878906 0-12.480469 5.601563-12.480469 12.480469v6.183594c0 4.6875-3.8125 8.503906-8.503906 8.503906h-7.121094c-6.882812 0-12.480468 5.597656-12.480468 12.480469v262.410156c0 6.882812 5.597656 12.480469 12.480468 12.480469h7.121094c4.6875 0 8.503906 3.816406 8.503906 8.507812v6.183594c0 6.878906 5.601563 12.476563 12.480469 12.476563h36.085937c4.136719 0 7.488282-3.351563 7.488282-7.484376 0-4.136718-3.351563-7.488281-7.488282-7.488281h-33.589843v-3.6875c0-12.945312-10.535157-23.480469-23.480469-23.480469h-4.628906v-257.421874h4.628906c12.945312 0 23.480469-10.535157 23.480469-23.480469v-3.6875h166.085937v3.6875c0 12.945312 10.535156 23.480469 23.480469 23.480469h4.628906v257.421874h-4.628906c-12.945313 0-23.480469 10.53125-23.480469 23.480469v3.6875h-86.40625c-4.132812 0-7.484375 3.351563-7.484375 7.484375 0 4.136719 3.351563 7.488282 7.484375 7.488282h88.902344c6.882812 0 12.480469-5.597657 12.480469-12.480469v-6.179688c0-4.691406 3.8125-8.507812 8.503906-8.507812h7.121094c6.882812 0 12.480469-5.597657 12.480469-12.480469v-262.410156c.003906-6.882813-5.597657-12.480469-12.476563-12.480469zm0 0"/><path d="m180.433594 264.191406c-16.699219 0-30.289063 13.585938-30.289063 30.289063v.628906c0 8.347656 6.792969 15.140625 15.136719 15.140625h79.589844c8.347656 0 15.136718-6.792969 15.136718-15.140625v-50.910156h18.792969v50.910156c0 8.347656 6.789063 15.140625 15.136719 15.140625h.632812c16.699219 0 30.285157-13.589844 30.285157-30.289062v-66.046876c0-8.34375-6.789063-15.136718-15.136719-15.136718h-49.710938v-18.078125h49.316407c8.347656 0 15.136719-6.789063 15.136719-15.136719v-2.683594c0-16.699218-13.585938-30.285156-30.289063-30.285156h-64.449219c-8.347656 0-15.136718 6.789062-15.136718 15.132812v51.050782h-16.601563v-51.050782c0-8.34375-6.789063-15.132812-15.136719-15.132812h-2.683594c-16.699218 0-30.289062 13.585938-30.289062 30.285156v66.183594c0 8.347656 6.789062 15.136719 15.136719 15.136719h49.574219v19.988281h-34.152344zm41.640625-34.96875h-57.0625c-.078125 0-.160157-.078125-.160157-.160156v-66.179688c0-8.445312 6.871094-15.3125 15.3125-15.3125h2.683594c.085938 0 .164063.078126.164063.160157v58.539062c0 4.132813 3.351562 7.484375 7.488281 7.484375h31.578125c4.132813 0 7.484375-3.351562 7.484375-7.484375v-58.539062c0-.082031.078125-.160157.164062-.160157h64.445313c8.445313 0 15.316406 6.867188 15.316406 15.3125v2.679688c0 .085938-.078125.164062-.160156.164062h-56.804687c-4.136719 0-7.488282 3.351563-7.488282 7.488282v33.054687c0 4.132813 3.351563 7.484375 7.488282 7.484375h57.199218c.082032 0 .160156.082032.160156.160156v66.046876c0 8.441406-6.867187 15.3125-15.3125 15.3125h-.632812c-.082031 0-.160156-.078126-.160156-.160157v-58.402343c0-4.132813-3.351563-7.484376-7.488282-7.484376h-33.765624c-4.136719 0-7.488282 3.351563-7.488282 7.484376v58.402343c0 .082031-.078125.160157-.160156.160157h-79.589844c-.082031 0-.160156-.078126-.160156-.160157v-.632812c0-8.441407 6.867188-15.3125 15.3125-15.3125h41.640625c4.136719 0 7.488281-3.351563 7.488281-7.488281v-34.964844c-.003906-4.136719-3.355468-7.492188-7.492187-7.492188zm0 0"/></svg>