<svg height="512pt" viewBox="0 -1 512 512" width="512pt" xmlns="http://www.w3.org/2000/svg"><path d="m103.023438 28.253906s18.199218-9.964844 25.691406-19.277344c1.566406-1.949218 4.570312-1.949218 6.136718 0 7.496094 9.3125 25.695313 19.277344 25.695313 19.277344 30.042969 20.214844 11.304687 41.988282 11.304687 41.988282h-80.132812s-18.738281-21.773438 11.304688-41.988282zm0 0" fill="#575f64"/><path d="m171.855469 70.242188h-27.269531s18.738281-21.773438-11.304688-41.988282c0 0-7.6875-4.210937-15.125-9.710937 4.007812-2.96875 7.9375-6.304688 10.5625-9.5625 1.5625-1.953125 4.570312-1.953125 6.132812 0 7.496094 9.308593 25.699219 19.273437 25.699219 19.273437 30.035157 20.210938 11.304688 41.988282 11.304688 41.988282zm0 0" fill="#474f54"/><path d="m326.445312 321.816406h-267.769531v-186.195312c0-4.835938 3.917969-8.753906 8.753907-8.753906h250.261718c4.835938 0 8.753906 3.917968 8.753906 8.753906zm0 0" fill="#cdbfba"/><path d="m326.441406 135.625v186.195312h-28.273437v-194.953124h19.523437c4.832032 0 8.75 3.917968 8.75 8.757812zm0 0" fill="#b9acac"/><path d="m445.371094 211.054688v23.183593h-58.996094v-23.183593h-59.113281v110.761718h177.222656v-105.753906c0-2.765625-2.242187-5.011719-5.011719-5.011719h-54.101562zm0 0" fill="#efe2dd"/><path d="m504.488281 216.0625v105.757812h-28.902343v-110.769531h23.890624c2.769532 0 5.011719 2.242188 5.011719 5.011719zm0 0" fill="#e1d3ce"/><path d="m7.515625 321.816406v180.382813h496.96875v-180.382813zm0 0" fill="#ffc143"/><path d="m475.585938 321.816406v180.382813h28.898437v-180.382813zm0 0" fill="#ffb509"/><path d="m185.730469 321.816406h-178.214844v-62.660156c0-2.765625 2.242187-5.011719 5.011719-5.011719h168.191406c2.765625 0 5.011719 2.246094 5.011719 5.011719zm0 0" fill="#0396fd"/><path d="m83.4375 321.816406h-41.460938v-21.195312c0-10.707032 8.679688-19.382813 19.386719-19.382813h2.6875c10.707031 0 19.386719 8.675781 19.386719 19.382813zm0 0" fill="#575f64"/><path d="m151.265625 321.816406h-41.457031v-21.195312c0-10.707032 8.675781-19.382813 19.382812-19.382813h2.691406c10.707032 0 19.382813 8.675781 19.382813 19.382813zm0 0" fill="#575f64"/><g fill="#ffc143"><path d="m134.277344 211.25h-35.46875c-1.660156 0-3.007813-1.347656-3.007813-3.007812v-35.46875c0-1.660157 1.347657-3.007813 3.007813-3.007813h35.46875c1.660156 0 3.007812 1.34375 3.007812 3.007813v35.46875c0 1.660156-1.347656 3.007812-3.007812 3.007812zm0 0"/><path d="m210.296875 211.25h-35.472656c-1.660157 0-3.003907-1.347656-3.003907-3.007812v-35.46875c0-1.660157 1.34375-3.007813 3.003907-3.007813h35.472656c1.660156 0 3.007813 1.34375 3.007813 3.007813v35.46875c0 1.660156-1.347657 3.007812-3.007813 3.007812zm0 0"/><path d="m286.3125 211.25h-35.46875c-1.660156 0-3.007812-1.347656-3.007812-3.007812v-35.46875c0-1.660157 1.347656-3.007813 3.007812-3.007813h35.46875c1.660156 0 3.007812 1.34375 3.007812 3.007813v35.46875c0 1.660156-1.347656 3.007812-3.007812 3.007812zm0 0"/></g><path d="m137.289062 172.777344v35.464844c0 1.664062-1.355468 3.007812-3.007812 3.007812h-11.9375v-41.480469h11.9375c1.65625 0 3.007812 1.34375 3.007812 3.007813zm0 0" fill="#ffb509"/><path d="m213.304688 172.777344v35.464844c0 1.664062-1.34375 3.007812-3.007813 3.007812h-11.9375v-41.480469h11.9375c1.664063 0 3.007813 1.34375 3.007813 3.007813zm0 0" fill="#ffb509"/><path d="m289.320312 172.777344v35.464844c0 1.664062-1.34375 3.007812-3.007812 3.007812h-11.925781v-41.480469h11.925781c1.664062 0 3.007812 1.34375 3.007812 3.007813zm0 0" fill="#ffb509"/><path d="m91.75 70.265625h80.070312v56.605469h-80.070312zm0 0" fill="#efe2dd"/><path d="m144.621094 70.265625h27.199218v56.605469h-27.199218zm0 0" fill="#e1d3ce"/><path d="m98.808594 162.25c-5.800782 0-10.523438 4.71875-10.523438 10.523438v35.46875c0 5.804687 4.722656 10.523437 10.523438 10.523437h35.46875c5.800781 0 10.523437-4.71875 10.523437-10.523437v-35.46875c0-5.804688-4.722656-10.523438-10.523437-10.523438zm30.960937 41.484375h-26.453125v-26.453125h26.453125zm0 0"/><path d="m174.824219 162.25c-5.800781 0-10.519531 4.71875-10.519531 10.523438v35.46875c0 5.804687 4.71875 10.523437 10.519531 10.523437h35.472656c5.800781 0 10.519531-4.71875 10.519531-10.523437v-35.46875c0-5.804688-4.71875-10.523438-10.519531-10.523438zm30.960937 41.484375h-26.449218v-26.453125h26.449218zm0 0"/><path d="m250.84375 218.765625h35.46875c5.804688 0 10.523438-4.71875 10.523438-10.523437v-35.46875c0-5.804688-4.71875-10.523438-10.523438-10.523438h-35.46875c-5.800781 0-10.523438 4.71875-10.523438 10.523438v35.46875c0 5.804687 4.722657 10.523437 10.523438 10.523437zm4.511719-41.484375h26.449219v26.449219h-26.449219zm0 0"/><path d="m504.484375 247.730469c4.152344 0 7.515625-3.367188 7.515625-7.515625v-24.152344c0-6.90625-5.621094-12.527344-12.527344-12.527344h-54.101562c-4.152344 0-7.515625 3.367188-7.515625 7.515625v15.671875h-43.964844v-15.671875c0-4.148437-3.363281-7.515625-7.515625-7.515625h-52.414062v-67.914062c0-8.972656-7.296876-16.269532-16.265626-16.269532h-65.703124c-4.148438 0-7.515626 3.367188-7.515626 7.515626 0 4.152343 3.367188 7.515624 7.515626 7.515624h65.703124c.679688 0 1.234376.554688 1.234376 1.238282v178.679687h-125.683594v-55.144531c0-6.910156-5.621094-12.527344-12.527344-12.527344h-114.527344v-111.007812c0-.679688.554688-1.234375 1.238282-1.234375h138.402343c4.152344 0 7.515625-3.367188 7.515625-7.519531 0-4.148438-3.363281-7.515626-7.515625-7.515626h-26.496093v-46.648437c2.59375-3.941406 6.925781-12.3125 5.53125-22.660156-1.425782-10.570313-8.199219-19.996094-20.128907-28.023438-.1875-.125-.382812-.246093-.582031-.355469-4.703125-2.578124-18.085938-10.738281-23.449219-17.398437-2.179687-2.710937-5.433593-4.265625-8.925781-4.265625-3.488281 0-6.742188 1.554688-8.921875 4.265625-5.359375 6.660156-18.746094 14.820313-23.449219 17.398437-.199218.109376-.394531.230469-.582031.355469-11.929687 8.027344-18.703125 17.453125-20.128906 28.023438-1.394531 10.347656 2.9375 18.71875 5.53125 22.660156v46.648437h-16.800781c-8.96875 0-16.269532 7.300782-16.269532 16.269532v111.007812h-38.632812c-6.90625 0-12.527344 5.621094-12.527344 12.527344v122.789062c0 .660157.09375 1.296876.253906 1.910157v56.308593c-.160156.609376-.253906 1.246094-.253906 1.910157v60.125c0 4.152343 3.363281 7.519531 7.515625 7.519531h179.515625c.125 0 .25-.015625.375-.019531.128906.003906.25.019531.378906.019531h119.507813c.128906 0 .253906-.015625.378906-.019531.125.003906.25.019531.375.019531h119.507813c.125 0 .25-.015625.375-.019531.128906.003906.25.019531.378906.019531h76.171875c4.152343 0 7.515625-3.367188 7.515625-7.519531v-215.886719c0-4.152344-3.363282-7.515625-7.515625-7.515625-4.148438 0-7.515625 3.363281-7.515625 7.515625v27.988281h-162.1875v-95.730469h44.082031v15.667969c0 4.152344 3.363281 7.515625 7.515625 7.515625h58.996094c4.152344 0 7.515625-3.363281 7.515625-7.515625v-15.667969h44.078125v21.644532c.003906 4.148437 3.367187 7.515625 7.519531 7.515625zm-340.179687-128.378907h-65.039063v-41.570312h65.039063zm-70.703126-67.296874c.816407-6.0625 5.308594-11.910157 13.351563-17.378907 2.769531-1.539062 16.359375-9.28125 24.832031-17.878906 8.472656 8.597656 22.0625 16.339844 24.832032 17.878906 7.976562 5.425781 12.460937 11.222657 13.332031 17.230469.644531 4.449219-.839844 8.378906-2.136719 10.820312h-72.054688c-1.285156-2.417968-2.75-6.292968-2.15625-10.671874zm101.699219 277.277343h104.476563v45.097657h-104.476563zm-120.140625 0h105.109375v45.097657h-105.109375zm-25.664062-15.03125v-13.679687c0-6.542969 5.324218-11.867188 11.867187-11.867188h2.691407c6.542968 0 11.867187 5.324219 11.867187 11.867188v13.679687zm67.828125 0v-13.679687c0-6.542969 5.324219-11.867188 11.871093-11.867188h2.6875c6.542969 0 11.871094 5.324219 11.871094 11.867188v13.679687zm-102.292969-52.640625h163.183594v52.640625h-19.429688v-13.679687c0-14.832032-12.070312-26.902344-26.902344-26.902344h-2.6875c-14.835937 0-26.902343 12.070312-26.902343 26.902344v13.679687h-11.339844v-13.679687c0-14.832032-12.066406-26.902344-26.898437-26.902344h-2.691407c-14.832031 0-26.898437 12.070312-26.898437 26.902344v13.679687h-19.433594zm0 67.671875h45.097656v45.097657h-45.097656zm44.976562 165.351563h-44.976562v-45.09375h44.976562zm7.515626-60.128906h-52.238282v-45.09375h104.476563v45.09375zm111.992187 60.128906h-104.355469v-45.09375h104.355469zm7.515625-60.128906h-51.480469v-45.09375h104.472657v45.09375zm112.746094 60.128906h-104.476563v-45.09375h104.476563zm7.515625-60.128906h-51.484375v-45.09375h104.476562v45.09375zm112.746093 60.128906h-104.472656v-45.09375h104.472656zm76.929688 0h-61.144531v-45.09375h61.144531zm-61.144531-165.351563h61.144531v45.097657h-61.144531zm61.144531 60.128907v45.09375h-121.652344v-45.09375zm-76.175781-60.128907v45.097657h-105.984375v-45.097657zm0 0"/></svg>