<svg height="512pt" viewBox="-58 0 512 512" width="512pt" xmlns="http://www.w3.org/2000/svg"><path d="m7.515625 35.21875h380.121094v442.460938h-380.121094zm0 0" fill="#ff4343"/><path d="m359.703125 35.21875h27.933594v442.460938h-27.933594zm0 0" fill="#f72c2c"/><path d="m336.355469 102.839844h-6.882813c-9.960937 0-18.035156-8.074219-18.035156-18.039063v-5.820312c0-3.746094-3.039062-6.78125-6.785156-6.78125h-214.15625c-3.742188 0-6.78125 3.035156-6.78125 6.78125v5.820312c0 9.964844-8.074219 18.039063-18.035156 18.039063h-6.882813c-3.746094 0-6.78125 3.035156-6.78125 6.78125v293.65625c0 3.746094 3.035156 6.78125 6.78125 6.78125h6.882813c9.960937 0 18.035156 8.078125 18.035156 18.039062v5.820313c0 3.746093 3.039062 6.78125 6.78125 6.78125h214.15625c3.746094 0 6.785156-3.035157 6.785156-6.78125v-5.820313c0-9.960937 8.074219-18.039062 18.035156-18.039062h6.882813c3.746093 0 6.78125-3.035156 6.78125-6.78125v-293.65625c0-3.742188-3.035157-6.78125-6.78125-6.78125zm0 0" fill="#57bf93"/><path d="m267.460938 152.949219c-.113282-.105469-.21875-.214844-.320313-.328125-1.320313-1.476563-12.828125-13.699219-44.042969-27.714844l-.367187-.152344c-2.121094-.914062-13.300781-6.046875-20.363281-15.714844-2.53125-3.46875-7.652344-3.46875-10.1875 0-7.058594 9.667969-18.238282 14.800782-20.363282 15.714844l-.367187.152344c-31.210938 14.015625-42.71875 26.238281-44.039063 27.714844-.105468.113281-.207031.222656-.320312.328125-43.976563 41.796875-10.410156 79.28125-1.71875 87.675781 1.164062 1.128906 2.722656 1.75 4.34375 1.75h135.121094c1.621093 0 3.179687-.621094 4.34375-1.75 8.691406-8.394531 42.257812-45.878906-1.71875-87.675781zm0 0" fill="#efe2dd"/><path d="m267.269531 242.375h-20.65625c.292969-.246094.574219-.503906.855469-.761719 10.464844-9.535156 18.683594-22.851562 20.898438-36.925781 2.730468-17.359375-4.667969-33.757812-16.605469-46.074219-12.542969-12.941406-30.121094-20.050781-45.160157-29.800781-1.847656-1.199219-19.671874-13.921875-19.652343-13.941406 1.878906-1.742188 3.699219-3.71875 5.304687-5.929688 2.492188-3.4375 7.613282-3.328125 10.117188.101563 7.058594 9.667969 18.238281 14.800781 20.359375 15.710937l.367187.15625c33.300782 14.945313 44.171875 27.863282 44.171875 27.863282 50.289063 47.570312 0 89.601562 0 89.601562zm0 0" fill="#e1d3ce"/><path d="m118.722656 270.253906h157.105469v169.46875h-157.105469zm0 0" fill="#efe2dd"/><path d="m200.863281 306.070312c-2.113281-.964843-4.535156-.964843-6.644531 0l-37.542969 17.105469c-4.808593 2.191407-7.894531 6.988281-7.894531 12.273438v104.273437h97.515625v-104.273437c0-5.285157-3.085937-10.082031-7.894531-12.273438zm0 0" fill="#cdbfba"/><path d="m246.292969 335.449219v104.273437h-11.296875v-98.058594c0-5.179687-3.414063-9.878906-8.738282-12.03125l-41.558593-16.761718c-1.21875-.5-2.542969-.734375-3.851563-.703125l13.371094-6.097657c2.105469-.960937 4.53125-.960937 6.644531 0l37.535157 17.109376c4.8125 2.1875 7.894531 6.980468 7.894531 12.269531zm0 0" fill="#b9acac"/><path d="m254.9375 270.253906h20.886719v169.46875h-20.886719zm0 0" fill="#e1d3ce"/><path d="m127.582031 242.375h139.382813v27.878906h-139.382813zm0 0" fill="#cdbfba"/><path d="m246.296875 242.375h20.667969v27.878906h-20.667969zm0 0" fill="#b9acac"/><path d="m343.140625 109.625v293.652344c0 3.746094-3.039063 6.78125-6.785156 6.78125h-6.882813c-9.957031 0-18.035156 8.078125-18.035156 18.035156v5.820312c0 3.746094-3.035156 6.785157-6.78125 6.785157h-20.601562c1.984374-9.097657 3.316406-22.964844 3.316406-25.449219v-5.820312c0-9.960938 8.074218-18.035157 18.042968-18.035157h6.875c3.746094 0 6.78125-3.039062 6.78125-6.785156v-261.175781c0-3.75-3.035156-6.785156-6.78125-6.785156h-6.875c-9.96875 0-18.042968-8.074219-18.042968-18.035157v-26.410156h17.285156c3.746094 0 6.78125 3.035156 6.78125 6.78125v5.820313c0 9.960937 8.078125 18.035156 18.035156 18.035156h6.882813c3.746093.003906 6.785156 3.039062 6.785156 6.785156zm0 0" fill="#1fb480"/><path d="m304.652344 64.6875h-214.15625c-7.882813 0-14.292969 6.410156-14.292969 14.292969v5.824219c0 5.800781-4.722656 10.519531-10.523437 10.519531h-6.882813c-7.882813 0-14.292969 6.414062-14.292969 14.296875v293.65625c0 7.882812 6.410156 14.296875 14.292969 14.296875h6.882813c5.800781 0 10.523437 4.71875 10.523437 10.523437v5.816406c0 7.886719 6.410156 14.300782 14.292969 14.300782h214.160156c7.882812 0 14.292969-6.414063 14.292969-14.300782v-5.816406c0-5.804687 4.722656-10.523437 10.523437-10.523437h6.882813c7.882812 0 14.296875-6.414063 14.296875-14.296875v-197.699219c0-4.152344-3.367188-7.515625-7.515625-7.515625-4.152344 0-7.515625 3.363281-7.515625 7.515625v196.96875h-6.148438c-14.089844 0-25.550781 11.460937-25.550781 25.550781v5.085938h-20.582031v-162.929688c0-4.152344-3.363282-7.515625-7.515625-7.515625h-1.347657v-16.78125c6.136719-5.9375 21.90625-23.4375 22.632813-47.128906.558594-18.085937-7.664063-35.339844-24.441406-51.296875-2.21875-2.4375-14.824219-15.261719-46.492188-29.480469-.054687-.023437-.105469-.046875-.160156-.070312l-.316406-.132813c-1.386719-.597656-13.742188-6.132812-19.167969-16.257812-1.828125-3.414063-5.375-5.539063-9.253906-5.539063-3.882813 0-7.429688 2.125-9.257813 5.539063-5.425781 10.125-17.78125 15.660156-19.117187 16.238281l-.367188.15625c-.054687.019531-.109375.042969-.164062.070313-31.664063 14.214843-44.269532 27.039062-46.488282 29.476562-16.777343 15.957031-25 33.214844-24.445312 51.300781.730469 23.683594 16.492188 41.183594 22.632812 47.121094v16.785156h-1.347656c-4.148437 0-7.511718 3.363281-7.511718 7.515625v162.929688h-19.980469v-5.085938c0-14.089844-11.460938-25.550781-25.550781-25.550781h-6.148438v-292.191406h6.148438c14.089843 0 25.550781-11.464844 25.550781-25.554688v-5.085937h212.691406v5.085937c0 14.089844 11.464844 25.554688 25.550781 25.554688h6.148438v48.121093c0 4.152344 3.363281 7.515626 7.515625 7.515626 4.152343 0 7.515625-3.363282 7.515625-7.515626v-48.855468c0-7.882813-6.414063-14.296875-14.296875-14.296875h-6.878907c-5.804687 0-10.523437-4.71875-10.523437-10.519531v-5.824219c-.003906-7.882813-6.414063-14.292969-14.300781-14.292969zm-65.871094 367.519531h-82.488281v-96.757812c0-2.335938 1.371093-4.46875 3.496093-5.433594l37.542969-17.109375c.132813-.058594.28125-.058594.414063 0l37.539062 17.109375c2.125.96875 3.496094 3.101563 3.496094 5.433594zm29.53125 0h-14.5v-96.757812c0-8.207031-4.828125-15.710938-12.292969-19.109375l-37.542969-17.109375c-4.09375-1.867188-8.785156-1.863281-12.878906 0l-37.539062 17.109375c-7.46875 3.402344-12.292969 10.902344-12.292969 19.109375v96.757812h-15.027344v-154.441406h142.074219zm-133.214844-169.46875v-12.847656h124.351563v12.847656zm-22.636718-64.371093c-.421876-13.691407 6.300781-27.195313 19.980468-40.136719.207032-.195313.402344-.402344.582032-.621094.097656-.113281 10.617187-11.964844 41.425781-25.8125l.335937-.140625c2.609375-1.121094 14.308594-6.554688 22.488282-16.914062 8.179687 10.359374 19.890624 15.796874 22.539062 16.933593l.285156.121094c30.570313 13.738281 41.222656 25.582031 41.464844 25.855469.171875.203125.351562.394531.546875.574218 13.640625 12.90625 20.367187 26.375 19.984375 40.03125-.5 17.839844-12.964844 31.847657-17.773438 36.601563h-134.105468c-4.8125-4.71875-17.203125-18.574219-17.753906-36.492187zm0 0"/><path d="m395.152344 7.515625c0-4.152344-3.367188-7.515625-7.515625-7.515625-4.152344 0-7.515625 3.363281-7.515625 7.515625v20.191406h-22.980469v-20.191406c0-4.152344-3.367187-7.515625-7.515625-7.515625-4.152344 0-7.515625 3.363281-7.515625 7.515625v20.191406h-22.980469v-20.191406c0-4.152344-3.367187-7.515625-7.515625-7.515625-4.148437 0-7.515625 3.363281-7.515625 7.515625v20.191406h-22.984375v-20.191406c0-4.152344-3.363281-7.515625-7.511719-7.515625-4.152343 0-7.515624 3.363281-7.515624 7.515625v20.191406h-22.984376v-20.191406c0-4.152344-3.363281-7.515625-7.511718-7.515625-4.152344 0-7.515625 3.363281-7.515625 7.515625v20.191406h-22.984375v-20.191406c0-4.152344-3.363282-7.515625-7.515625-7.515625-4.148438 0-7.511719 3.363281-7.511719 7.515625v20.191406h-22.984375v-20.191406c0-4.152344-3.363281-7.515625-7.515625-7.515625s-7.515625 3.363281-7.515625 7.515625v20.191406h-22.980469v-20.191406c0-4.152344-3.363281-7.515625-7.515625-7.515625-4.152343 0-7.515625 3.363281-7.515625 7.515625v20.191406h-22.980468v-20.191406c0-4.152344-3.367188-7.515625-7.515626-7.515625-4.152343 0-7.515624 3.363281-7.515624 7.515625v20.191406h-22.984376v-20.191406c0-4.152344-3.363281-7.515625-7.511718-7.515625-4.152344 0-7.515625 3.363281-7.515625 7.515625v20.191406h-22.980469v-20.191406c0-4.152344-3.363281-7.515625-7.515625-7.515625s-7.515625 3.363281-7.515625 7.515625v26.804687c0 .152344.015625.300782.0234375.449219-.0078125.152344-.0234375.296875-.0234375.449219v215.832031c0 4.148438 3.363281 7.515625 7.515625 7.515625s7.515625-3.367187 7.515625-7.515625v-208.316406h365.089844v427.429687h-365.089844v-173.085937c0-4.152344-3.367188-7.515625-7.515625-7.515625-4.152344 0-7.515625 3.363281-7.515625 7.515625v207.40625c0 4.152344 3.363281 7.515625 7.515625 7.515625 4.148437 0 7.515625-3.363281 7.515625-7.515625v-19.289063h22.980469v19.289063c0 4.152344 3.367187 7.515625 7.515625 7.515625 4.152344 0 7.515625-3.363281 7.515625-7.515625v-19.289063h22.980469v19.289063c0 4.152344 3.367187 7.515625 7.515624 7.515625 4.152344 0 7.515626-3.363281 7.515626-7.515625v-19.289063h22.984374v19.289063c0 4.152344 3.363282 7.515625 7.515626 7.515625 4.148437 0 7.511718-3.363281 7.511718-7.515625v-19.289063h22.984375v19.289063c0 4.152344 3.363281 7.515625 7.515625 7.515625 4.148438 0 7.511719-3.363281 7.511719-7.515625v-19.289063h22.984375v19.289063c0 4.152344 3.363281 7.515625 7.515625 7.515625s7.515625-3.363281 7.515625-7.515625v-19.289063h22.980469v19.289063c0 4.152344 3.367187 7.515625 7.515625 7.515625 4.152344 0 7.515625-3.363281 7.515625-7.515625v-19.289063h22.984375v19.289063c0 4.152344 3.363281 7.515625 7.511718 7.515625 4.152344 0 7.515626-3.363281 7.515626-7.515625v-19.289063h22.984374v19.289063c0 4.152344 3.363282 7.515625 7.515626 7.515625 4.148437 0 7.511718-3.363281 7.511718-7.515625v-19.289063h22.984375v19.289063c0 4.152344 3.363281 7.515625 7.515625 7.515625 4.148438 0 7.511719-3.363281 7.511719-7.515625v-19.289063h22.984375v19.289063c0 4.152344 3.363281 7.515625 7.515625 7.515625 4.148437 0 7.511719-3.363281 7.511719-7.515625v-469.265625c0-.152344-.011719-.296875-.019532-.449219.007813-.148437.019532-.296875.019532-.449219zm0 0"/></svg>