<svg id="Color" xmlns="http://www.w3.org/2000/svg" viewBox="0 0 64 64"><defs><style>.cls-1{fill:#47b2f4;}.cls-2{fill:#231f20;}</style></defs><path class="cls-1" d="M51.35,34.63v1.61A34.94,34.94,0,0,1,49,48.71h0A18.47,18.47,0,0,1,31.78,60.57h0a18.48,18.48,0,0,1-17.93-14h0a40.71,40.71,0,0,1-1.2-9.77V14.63a4.32,4.32,0,0,1,3.93-4.37,4.22,4.22,0,0,1,4.5,4.2V29.78A4.23,4.23,0,0,0,25.3,34a4.22,4.22,0,0,0,4.21-4.22v-22A4.32,4.32,0,0,1,32.94,3.5,4.21,4.21,0,0,1,36.7,4.67a4.14,4.14,0,0,1,1.24,3V18.06a4.21,4.21,0,1,1,8.42,0V32.2h2.55A2.43,2.43,0,0,1,51.35,34.63Z"/><path class="cls-1" d="M21.1,20.23c0,.13,0,.26,0,.39v-.39Z"/><path class="cls-1" d="M29.51,20.23v.39c0-.13,0-.26,0-.39Z"/><path class="cls-1" d="M29.51,20.62v9.16A4.22,4.22,0,0,1,25.3,34a4.23,4.23,0,0,1-4.22-4.22V20.62c0-.13,0-.26,0-.39a4.21,4.21,0,0,1,8.39,0C29.5,20.36,29.51,20.49,29.51,20.62Z"/><path class="cls-1" d="M37.06,48.52a8.88,8.88,0,0,1,6.66-8.32H37.21A4.06,4.06,0,0,1,34.38,39a4,4,0,0,1,2.83-6.83h9.15"/><path class="cls-2" d="M31.78,61.57A19.45,19.45,0,0,1,12.88,46.8a41.84,41.84,0,0,1-1.23-10V14.63a5.22,5.22,0,0,1,8.9-3.86,5.18,5.18,0,0,1,1.53,3.69V29.78A3.23,3.23,0,0,0,25.3,33a3.22,3.22,0,0,0,3.21-3.22v-22A5.21,5.21,0,0,1,37.41,4a5.15,5.15,0,0,1,1.53,3.69V14a5.21,5.21,0,0,1,8.42,4.11V31.2h1.55a3.44,3.44,0,0,1,3.44,3.43v1.61A35.63,35.63,0,0,1,50,49.07,19.59,19.59,0,0,1,31.78,61.57ZM16.86,11.25h-.22a3.3,3.3,0,0,0-3,3.37V36.78a39.72,39.72,0,0,0,1.17,9.53,17.48,17.48,0,0,0,33.28,2,33.64,33.64,0,0,0,2.25-12.11V34.63a1.44,1.44,0,0,0-1.44-1.43H46.36a1,1,0,0,1-1-1V18.06a3.21,3.21,0,1,0-6.42,0,1,1,0,1,1-2,0V7.65A3.18,3.18,0,0,0,36,5.38a3.24,3.24,0,0,0-2.88-.9,3.34,3.34,0,0,0-2.61,3.31v22A5.22,5.22,0,0,1,25.3,35a5.22,5.22,0,0,1-5.22-5.22V14.46a3.23,3.23,0,0,0-3.22-3.21Z"/><path class="cls-2" d="M21.08,21.62a1,1,0,0,1-1-1v-.39a1,1,0,0,1,1-1,1,1,0,0,1,.74.32,1,1,0,0,1,.27.75c0,.11,0,.22,0,.32A1,1,0,0,1,21.08,21.62Z"/><path class="cls-2" d="M29.51,21.62a1,1,0,0,1-1-1c0-.1,0-.21,0-.32a1,1,0,0,1,.26-.75,1,1,0,0,1,.73-.32,1,1,0,0,1,1,1v.39A1,1,0,0,1,29.51,21.62Z"/><path class="cls-2" d="M25.3,35a5.22,5.22,0,0,1-5.22-5.22V20.62c0-.15,0-.31,0-.46a5.22,5.22,0,0,1,10.39,0c0,.17,0,.33,0,.48v9.16A5.22,5.22,0,0,1,25.3,35Zm0-17.59a3.2,3.2,0,0,0-3.21,2.91c0,.09,0,.2,0,.3v9.16A3.23,3.23,0,0,0,25.3,33a3.22,3.22,0,0,0,3.21-3.22V20.62c0-.1,0-.21,0-.32A3.24,3.24,0,0,0,25.3,17.41Z"/><path class="cls-2" d="M37.06,49.52H37a1,1,0,0,1-.95-1.05,9.59,9.59,0,0,1,3.59-7.27H37.22a5,5,0,1,1,0-10h9.14a1,1,0,0,1,0,2H37.22a3,3,0,1,0,0,6h6.5a1,1,0,0,1,.21,2,7.84,7.84,0,0,0-5.87,7.39A1,1,0,0,1,37.06,49.52Z"/><path class="cls-2" d="M37.94,26.53a1,1,0,0,1-1-1V18.06a1,1,0,0,1,2,0v7.47A1,1,0,0,1,37.94,26.53Z"/></svg>