<svg id="Color" xmlns="http://www.w3.org/2000/svg" viewBox="0 0 64 64"><defs><style>.cls-1{fill:#ffcd50;}.cls-2{fill:#11eac0;}.cls-3{fill:#ff83be;}.cls-4{fill:#231f20;}</style></defs><path class="cls-1" d="M60.26,27.22v2.23a3,3,0,0,1-2.95,2.94H5.82a3,3,0,0,1-2.95-2.94V27.22a3,3,0,0,1,3-2.95H57.31A3,3,0,0,1,60.26,27.22Z"/><path class="cls-2" d="M56.59,44.31a22.31,22.31,0,0,1-3.08,6.78,6.05,6.05,0,0,0-3.34-1,6,6,0,0,0-4.25,1.76,6,6,0,0,1-8.5,0l-.9-.91a6,6,0,0,0-8.5,0l-.92.92a6,6,0,0,1-8.49,0l-.6-.6a6,6,0,0,0-8.35-.12A21.77,21.77,0,0,1,6.6,44.46l2.92-2.91a6,6,0,0,1,8.49,0l.61.6a6,6,0,0,0,8.49,0l.92-.92a6,6,0,0,1,8.49,0l.91.91a6,6,0,0,0,8.49,0,6,6,0,0,1,8.49,0Z"/><path class="cls-3" d="M50.17,50.08a6.05,6.05,0,0,1,3.34,1A22.38,22.38,0,0,1,34.92,61h-6.7A22.37,22.37,0,0,1,9.66,51.13a6,6,0,0,1,8.35.12l.6.6a6,6,0,0,0,8.49,0l.92-.92a6,6,0,0,1,8.5,0l.9.91a6,6,0,0,0,8.5,0A6,6,0,0,1,50.17,50.08Z"/><path class="cls-3" d="M57.34,32.4v6.15a22.35,22.35,0,0,1-.75,5.76l-2.18-2.18a6,6,0,0,0-8.49,0,6,6,0,0,1-8.49,0l-.91-.91a6,6,0,0,0-8.49,0l-.92.92a6,6,0,0,1-8.49,0l-.61-.6a6,6,0,0,0-8.49,0L6.6,44.46a21.73,21.73,0,0,1-.8-5.91V32.4Z"/><path class="cls-2" d="M61.13,9.8a6.77,6.77,0,0,1-6.25,6.74l-6.64,7.73h-13l12.4-13.48h0a5.33,5.33,0,0,1-.08-1,6.78,6.78,0,1,1,13.55,0Z"/><path class="cls-4" d="M6.59,45.47a1,1,0,0,1-.71-.29A1,1,0,0,1,7.3,43.76a1,1,0,0,1,0,1.41h0A1,1,0,0,1,6.59,45.47Z"/><path class="cls-4" d="M9.66,52.13h0a1,1,0,1,1,1-1A1,1,0,0,1,9.65,52.13Z"/><path class="cls-4" d="M57.31,33.39H5.82a3.94,3.94,0,0,1-3.94-3.94V27.22a4,4,0,0,1,3.94-3.95H57.31a4,4,0,0,1,3.95,3.95v2.23A3.94,3.94,0,0,1,57.31,33.39ZM5.82,25.27a2,2,0,0,0-1.94,1.95v2.23a1.94,1.94,0,0,0,1.94,1.94H57.31a1.94,1.94,0,0,0,1.95-1.94V27.22a2,2,0,0,0-1.95-1.95Z"/><path class="cls-4" d="M34.92,62h-6.7A23.45,23.45,0,0,1,4.8,38.55V32.4a1,1,0,0,1,1-1H57.34a1,1,0,0,1,1,1v6.15A23.45,23.45,0,0,1,34.92,62ZM6.8,33.4v5.15A21.45,21.45,0,0,0,28.22,60h6.7A21.45,21.45,0,0,0,56.34,38.55V33.4Z"/><path class="cls-4" d="M48.24,25.27h-13a1,1,0,0,1-.73-1.67L46.6,10.46c0-.21,0-.42,0-.66a7.77,7.77,0,1,1,8.79,7.7L49,24.93A1,1,0,0,1,48.24,25.27Zm-10.71-2H47.78l6.34-7.38a1,1,0,0,1,.68-.34A5.77,5.77,0,1,0,48.58,9.8a4.66,4.66,0,0,0,.06.8l0,.18a1,1,0,0,1-.27.69Z"/><path class="cls-4" d="M6.59,45.47a1,1,0,0,1-.7-.29,1,1,0,0,1,0-1.41l2.92-2.93a7,7,0,0,1,9.91,0l.61.6a5,5,0,0,0,7.07,0l.92-.92a7,7,0,0,1,9.91,0l.9.91a5,5,0,0,0,7.08,0,7,7,0,0,1,9.91,0l2.18,2.18A1,1,0,0,1,55.89,45L53.7,42.84a5,5,0,0,0-7.07,0,7,7,0,0,1-9.91,0l-.91-.9a5,5,0,0,0-7.07,0l-.92.92a7,7,0,0,1-9.91,0l-.61-.61a5,5,0,0,0-7.07,0L7.3,45.18A1,1,0,0,1,6.59,45.47Z"/><path class="cls-4" d="M22.86,54.6a7,7,0,0,1-4.95-2l-.6-.6a5,5,0,0,0-7-.1A1,1,0,0,1,9,50.41a6.94,6.94,0,0,1,9.75.14l.6.6a5,5,0,0,0,7.08,0l.92-.92a7,7,0,0,1,9.91,0l.91.91a5,5,0,0,0,7.08,0,6.93,6.93,0,0,1,5-2.05,7,7,0,0,1,3.9,1.18A1,1,0,0,1,53,51.93a5,5,0,0,0-2.79-.85,4.94,4.94,0,0,0-3.54,1.47,7,7,0,0,1-9.91,0l-.91-.91a5,5,0,0,0-7.08,0l-.92.92A7,7,0,0,1,22.86,54.6Z"/></svg>