<svg id="Color" xmlns="http://www.w3.org/2000/svg" viewBox="0 0 64 64"><defs><style>.cls-1{fill:#47b2f4;}.cls-2{fill:#ffcd50;}.cls-3{fill:#231f20;}</style></defs><path class="cls-1" d="M47.6,16.37V27c0,2.06-7,3.71-15.47,3.71S16.68,29,16.66,27V16.37c0,2.06,6.92,3.73,15.47,3.73S47.6,18.43,47.6,16.37Z"/><path class="cls-1" d="M47.6,16.38c0,2.06-6.93,3.72-15.47,3.72s-15.47-1.66-15.47-3.72,6.92-3.72,15.47-3.72S47.6,14.32,47.6,16.38Z"/><path class="cls-2" d="M47.6,27v0c0,2.06-7,3.72-15.47,3.72S16.68,29,16.66,27v0c.07-2.06,7-3.69,15.47-3.69S47.53,24.89,47.6,27Z"/><path class="cls-1" d="M57.07,26A7,7,0,0,1,55,31a6.81,6.81,0,0,1-3.18,1.82A6.61,6.61,0,0,1,50,33H46.36c.13-.31.24-.61.35-.91s.14-.41.2-.62a14.29,14.29,0,0,0,.53-2.33h2.73a3.2,3.2,0,0,0,2.25-.93,3.18,3.18,0,0,0-2.25-5.43H47.6V19H50A7,7,0,0,1,57.07,26Z"/><path class="cls-3" d="M16.51,42.25a1,1,0,0,1-.79-.39,3.8,3.8,0,0,0-.33-.37,6,6,0,0,0-2-1.31,1,1,0,0,1-.65-1c.17-1.93,2.24-3.51,6.17-4.71a1,1,0,0,1,1.13.41,13.22,13.22,0,0,0,.93,1.26,1,1,0,0,1,.23.76,1,1,0,0,1-.4.69,12.11,12.11,0,0,0-1.3,1.1l-.37.4c-.16.18-.3.33-.43.5l-.29.4a8.74,8.74,0,0,0-.95,1.68,1,1,0,0,1-.8.59ZM15,38.73a7.61,7.61,0,0,1,1.27.85q.24-.4.51-.78l.32-.44c.18-.23.34-.41.5-.6s.32-.35.48-.51.46-.44.72-.66h0A8.3,8.3,0,0,0,15,38.73Z"/><path class="cls-2" d="M50.5,39.39c0,3.09-8.24,5.59-18.4,5.59a54.67,54.67,0,0,1-8.34-.61,11.17,11.17,0,0,0,2.64-1.94,9.74,9.74,0,0,0,.74-.83,15.58,15.58,0,0,0,5,.82,15.42,15.42,0,0,0,12.93-7C48.42,36.43,50.5,37.85,50.5,39.39Z"/><path class="cls-2" d="M47.6,27a15.53,15.53,0,0,1-.16,2.18,14.29,14.29,0,0,1-.53,2.33A13.24,13.24,0,0,1,46.36,33a13.88,13.88,0,0,1-1.31,2.39,15.35,15.35,0,0,1-12.92,7,15.54,15.54,0,0,1-5-.82,10.72,10.72,0,0,0,2.41-6.81H26.41a10.7,10.7,0,0,0-6.23,2,12.4,12.4,0,0,1-1-1.37A15.29,15.29,0,0,1,16.66,27c0,2.06,6.93,3.72,15.47,3.72S47.58,29,47.6,27Z"/><path class="cls-1" d="M61.72,40.7c0,5.88-13.31,10.64-29.72,10.64S2.28,46.58,2.28,40.7c0-4,6.06-7.43,15.05-9.26a15.13,15.13,0,0,0,1.84,4,13.17,13.17,0,0,0,1,1.35A12.57,12.57,0,0,0,18.77,38c-.15.15-.29.3-.43.46s-.31.34-.45.53l-.32.43a10.13,10.13,0,0,0-1.06,1.87,4.6,4.6,0,0,0-.41-.47,7,7,0,0,0-2.39-1.53,6.56,6.56,0,0,0-2.43-.46H7.17A6.81,6.81,0,0,0,14,45.6h4.77a10.7,10.7,0,0,0,5-1.23,11.17,11.17,0,0,0,2.64-1.94,9.74,9.74,0,0,0,.74-.83,15.58,15.58,0,0,0,5,.82,15.42,15.42,0,0,0,12.93-7A14,14,0,0,0,46.36,33h3.69a6.61,6.61,0,0,0,1.79-.24C57.9,34.72,61.72,37.55,61.72,40.7Z"/><path class="cls-2" d="M29.56,34.79a10.72,10.72,0,0,1-2.42,6.81,9.74,9.74,0,0,1-.74.83,11.17,11.17,0,0,1-2.64,1.94,10.7,10.7,0,0,1-5,1.23h-.66a6.73,6.73,0,0,0-1.58-4.35,10.13,10.13,0,0,1,1.06-1.87l.32-.43c.14-.19.3-.36.45-.53s.28-.31.43-.46a12.57,12.57,0,0,1,1.41-1.2,10.81,10.81,0,0,1,6.24-2Z"/><path class="cls-2" d="M18.09,45.6H14a6.81,6.81,0,0,1-6.81-6.81h4.11a6.56,6.56,0,0,1,2.43.46,7,7,0,0,1,2.39,1.53,4.6,4.6,0,0,1,.41.47A6.73,6.73,0,0,1,18.09,45.6Z"/><path class="cls-3" d="M17.79,44.6a1,1,0,0,1-.7-.29,1,1,0,0,1,0-1.41A43.92,43.92,0,0,1,22.51,39a1,1,0,1,1,1,1.71A42.63,42.63,0,0,0,18.5,44.3,1,1,0,0,1,17.79,44.6Z"/><path class="cls-3" d="M18.09,46.6a1,1,0,0,1-.64-.23,38.33,38.33,0,0,0-4-3,1,1,0,0,1,.31-2c.29,0,.89.08,4.93,3.41a1,1,0,0,1,.13,1.41A1,1,0,0,1,18.09,46.6Zm-4.47-3.19h0Z"/><path class="cls-3" d="M32.13,21.1c-6.12,0-16.47-1-16.47-4.72S26,11.66,32.13,11.66s16.47,1,16.47,4.72S38.25,21.1,32.13,21.1Zm0-7.44c-9,0-14.22,1.78-14.47,2.73.25.93,5.45,2.71,14.47,2.71s14.16-1.76,14.47-2.72C46.29,15.42,41.1,13.66,32.13,13.66ZM46.6,16.39h0Z"/><path class="cls-3" d="M32.13,31.7c-6.12,0-16.47-1-16.47-4.73S26,22.25,32.13,22.25,48.6,23.25,48.6,27,38.25,31.7,32.13,31.7Zm0-7.45c-9,0-14.22,1.78-14.47,2.74.25.92,5.45,2.71,14.47,2.71S46.29,27.93,46.6,27C46.29,26,41.1,24.25,32.13,24.25ZM46.6,27h0Z"/><path class="cls-3" d="M50.05,34H46.36a1,1,0,0,1-.92-1.39q.18-.42.33-.84c.07-.2.13-.37.18-.55A13.64,13.64,0,0,0,46.46,29,16.87,16.87,0,0,0,46.6,27V19a1,1,0,0,1,1-1h2.45a8,8,0,0,1,8,8,7.93,7.93,0,0,1-2.36,5.67,7.84,7.84,0,0,1-3.64,2.08A7.27,7.27,0,0,1,50.05,34Zm-2.24-2h2.24a5.68,5.68,0,0,0,1.51-.2A6,6,0,0,0,56.08,26a6,6,0,0,0-6-6H48.6v7a17.48,17.48,0,0,1-.16,2.34,15.64,15.64,0,0,1-.57,2.51Z"/><path class="cls-3" d="M50.17,30.16H47.45a1,1,0,0,1-.76-.34,1,1,0,0,1-.23-.79A17.16,17.16,0,0,0,46.6,27V22.81a1,1,0,0,1,1-1h2.57A4.18,4.18,0,0,1,54.35,26a4.13,4.13,0,0,1-1.22,3A4.19,4.19,0,0,1,50.17,30.16Zm-1.61-2h1.61a2.25,2.25,0,0,0,1.56-.64A2.15,2.15,0,0,0,52.35,26a2.18,2.18,0,0,0-2.18-2.18H48.6V27C48.6,27.35,48.59,27.75,48.56,28.16Z"/><path class="cls-3" d="M16.51,42.25a1,1,0,0,1-.79-.39,3.8,3.8,0,0,0-.33-.37,6,6,0,0,0-2-1.31,1,1,0,0,1-.65-1c.17-1.93,2.24-3.51,6.17-4.71a1,1,0,0,1,1.13.41,13.22,13.22,0,0,0,.93,1.26,1,1,0,0,1,.23.76,1,1,0,0,1-.4.69,12.11,12.11,0,0,0-1.3,1.1l-.37.4c-.16.18-.3.33-.43.5l-.29.4a8.74,8.74,0,0,0-.95,1.68,1,1,0,0,1-.8.59ZM15,38.73a7.61,7.61,0,0,1,1.27.85q.24-.4.51-.78l.32-.44c.18-.23.34-.41.5-.6s.32-.35.48-.51.46-.44.72-.66h0A8.3,8.3,0,0,0,15,38.73Z"/><path class="cls-3" d="M32.1,46a56.26,56.26,0,0,1-8.5-.62,1,1,0,0,1-.31-1.87,10.14,10.14,0,0,0,2.4-1.77,8,8,0,0,0,.67-.75,1,1,0,0,1,1.1-.32,14.56,14.56,0,0,0,4.67.77,14.38,14.38,0,0,0,12.09-6.55,1,1,0,0,1,1.13-.41c4,1.22,6.15,2.92,6.15,4.93C51.5,43.72,41.74,46,32.1,46Zm-5.61-2.27c1.8.18,3.68.27,5.61.27,10.62,0,17.4-2.72,17.4-4.59,0-.68-1.07-1.79-4-2.79a16.38,16.38,0,0,1-13.33,6.82,16.67,16.67,0,0,1-4.66-.67l-.37.39C26.9,43.33,26.7,43.53,26.49,43.71Z"/><path class="cls-3" d="M32.13,43.42a16.52,16.52,0,0,1-5.31-.88,1,1,0,0,1-.64-.67,1,1,0,0,1,.19-.91,9.59,9.59,0,0,0,2.14-5.17H26.42a9.83,9.83,0,0,0-5.67,1.79,1,1,0,0,1-1.34-.17A17.51,17.51,0,0,1,18.34,36a16.1,16.1,0,0,1-2-4.23A16.32,16.32,0,0,1,15.66,27V16.38a1,1,0,0,1,2,0c.25.94,5.45,2.72,14.47,2.72s14.2-1.77,14.47-2.73v-.1a1,1,0,0,1,1-.9,1,1,0,0,1,1,1V27a17.48,17.48,0,0,1-.16,2.34,15.64,15.64,0,0,1-.57,2.51,13.68,13.68,0,0,1-.59,1.61A15.42,15.42,0,0,1,45.89,36,16.37,16.37,0,0,1,32.13,43.42ZM28.78,41a14.46,14.46,0,0,0,15.44-6.16,13.13,13.13,0,0,0,1.22-2.25A12.61,12.61,0,0,0,46,31.21a14,14,0,0,0,.5-2.19A16.87,16.87,0,0,0,46.6,27v-8.1c-3.31,1.72-10,2.25-14.47,2.25S21,20.57,17.66,18.85V27a14.43,14.43,0,0,0,.62,4.2A14.23,14.23,0,0,0,20,34.86q.19.3.39.57a11.73,11.73,0,0,1,6-1.64h3.14a1,1,0,0,1,1,1A11.9,11.9,0,0,1,28.78,41Z"/><path class="cls-3" d="M32,52.34c-17.22,0-30.72-5.11-30.72-11.64,0-4.39,5.93-8.22,15.85-10.24a1,1,0,0,1,1.15.7A14.32,14.32,0,0,0,20,34.86a13.22,13.22,0,0,0,.93,1.26,1,1,0,0,1,.23.76,1,1,0,0,1-.4.69,12.11,12.11,0,0,0-1.3,1.1l-.37.4c-.16.18-.3.33-.43.5l-.29.4a8.74,8.74,0,0,0-.95,1.68,1,1,0,0,1-1.71.21,3.8,3.8,0,0,0-.33-.37,6,6,0,0,0-2-1.31,5.61,5.61,0,0,0-2.08-.39h-3A5.79,5.79,0,0,0,14,44.6h4.77a9.67,9.67,0,0,0,4.54-1.11,10.14,10.14,0,0,0,2.4-1.77,8,8,0,0,0,.67-.75,1,1,0,0,1,1.1-.32,14.56,14.56,0,0,0,4.67.77,14.38,14.38,0,0,0,12.09-6.55,13.13,13.13,0,0,0,1.22-2.25,1,1,0,0,1,.92-.61h3.69a5.68,5.68,0,0,0,1.51-.2.89.89,0,0,1,.58,0C59,34,62.72,37.17,62.72,40.7,62.72,47.23,49.23,52.34,32,52.34ZM16.66,32.61C8.5,34.4,3.28,37.54,3.28,40.7c0,4.66,11.54,9.64,28.72,9.64s28.72-5,28.72-9.64c0-2.48-3.33-5-8.91-6.89a7.78,7.78,0,0,1-1.76.2H47a15,15,0,0,1-1.12,2,16.37,16.37,0,0,1-13.76,7.44,16.67,16.67,0,0,1-4.66-.67l-.37.39a12,12,0,0,1-2.88,2.12,11.67,11.67,0,0,1-5.47,1.34H14a7.82,7.82,0,0,1-7.81-7.81,1,1,0,0,1,1-1h4.11a7.54,7.54,0,0,1,2.8.53,7.78,7.78,0,0,1,2.17,1.26q.24-.4.51-.78l.32-.44c.18-.23.34-.41.5-.6s.32-.35.48-.51.46-.44.72-.66c-.15-.2-.3-.41-.44-.63A16.16,16.16,0,0,1,16.66,32.61Z"/><path class="cls-3" d="M18.75,46.6h-.66a1,1,0,0,1-1-1,5.7,5.7,0,0,0-1.34-3.71,1,1,0,0,1-.15-1,11.51,11.51,0,0,1,1.16-2l.32-.44c.18-.23.34-.41.5-.6s.32-.35.48-.51A13.17,13.17,0,0,1,19.59,36a11.72,11.72,0,0,1,6.83-2.17h3.14a1,1,0,0,1,1,1,11.75,11.75,0,0,1-2.65,7.44,9.78,9.78,0,0,1-.81.91,12,12,0,0,1-2.88,2.12A11.67,11.67,0,0,1,18.75,46.6Zm-1.07-5.48A7.72,7.72,0,0,1,19,44.6a9.74,9.74,0,0,0,4.26-1.11,10.14,10.14,0,0,0,2.4-1.77,8,8,0,0,0,.67-.75,9.59,9.59,0,0,0,2.15-5.18H26.42a9.83,9.83,0,0,0-5.67,1.79,12.62,12.62,0,0,0-1.28,1.09l-.37.4c-.16.18-.3.33-.43.5l-.29.4A9.25,9.25,0,0,0,17.68,41.12Z"/><path class="cls-3" d="M18.09,46.6H14a7.82,7.82,0,0,1-7.81-7.81,1,1,0,0,1,1-1h4.11a7.54,7.54,0,0,1,2.8.53,7.83,7.83,0,0,1,2.72,1.75,5.47,5.47,0,0,1,.51.57,7.64,7.64,0,0,1,1.78,5A1,1,0,0,1,18.09,46.6ZM8.26,39.79A5.79,5.79,0,0,0,14,44.6h3a5.69,5.69,0,0,0-1.26-2.71,5,5,0,0,0-.36-.4,6,6,0,0,0-2-1.31,5.61,5.61,0,0,0-2.08-.39Z"/><path class="cls-3" d="M17.79,44.6a1,1,0,0,1-.7-.29,1,1,0,0,1,0-1.41A43.92,43.92,0,0,1,22.51,39a1,1,0,1,1,1,1.71A42.63,42.63,0,0,0,18.5,44.3,1,1,0,0,1,17.79,44.6Z"/><path class="cls-3" d="M18.09,46.6a1,1,0,0,1-.64-.23,38.33,38.33,0,0,0-4-3,1,1,0,0,1,.31-2c.29,0,.89.08,4.93,3.41a1,1,0,0,1,.13,1.41A1,1,0,0,1,18.09,46.6Zm-4.47-3.19h0Z"/></svg>