<svg id="Color" xmlns="http://www.w3.org/2000/svg" viewBox="0 0 64 64"><defs><style>.cls-1{fill:#231f20;}.cls-2{fill:#af732c;}.cls-3{fill:#ffcd50;}.cls-4{fill:#ff83be;}.cls-5{fill:#47b2f4;}</style></defs><path class="cls-1" d="M32.16,35.46a27,27,0,0,1-6.74-.75c-.73-.2-3-.83-3-2.4,0-3,8.08-3.14,9.7-3.14s9.69.15,9.69,3.14c0,1.44-1.77,2.08-3.1,2.44A27.05,27.05,0,0,1,32.16,35.46ZM24.69,32.3a5.71,5.71,0,0,0,1.27.49,25.57,25.57,0,0,0,6.2.67,26,26,0,0,0,6.08-.64,6.21,6.21,0,0,0,1.39-.52c-.87-.47-3.44-1.13-7.47-1.13S25.55,31.83,24.69,32.3Zm15.22.22h0Z"/><path class="cls-2" d="M32.16,27.21c-7.58,0-13.74,2.28-13.74,5.1,0,1.15,1,2.21,2.77,3.08a7.37,7.37,0,0,0,.75.33,28,28,0,0,0,10.22,1.69,28.62,28.62,0,0,0,10-1.6l.79-.35c1.85-.87,2.94-2,2.94-3.15C45.89,29.49,39.73,27.21,32.16,27.21Zm0,7.25a26.23,26.23,0,0,1-6.47-.71c-1.38-.39-2.23-.89-2.23-1.44,0-1.19,3.9-2.14,8.7-2.14s8.69.95,8.69,2.14c0,.57-.89,1.08-2.36,1.48A26.64,26.64,0,0,1,32.16,34.46Z"/><path class="cls-3" d="M40.85,32.31c0,.57-.89,1.08-2.36,1.48a26.64,26.64,0,0,1-6.33.67,26.23,26.23,0,0,1-6.47-.71c-1.38-.39-2.23-.89-2.23-1.44,0-1.19,3.9-2.14,8.7-2.14S40.85,31.12,40.85,32.31Z"/><path class="cls-1" d="M32.16,35.46a1,1,0,0,1-1-1V24.53a1,1,0,0,1,2,0v9.93A1,1,0,0,1,32.16,35.46Z"/><path class="cls-2" d="M34,6.67v16a1.86,1.86,0,0,1-3.71,0v-16Z"/><path class="cls-4" d="M34,4V6.67H30.3V4A1.06,1.06,0,0,1,31.37,3H33A1.06,1.06,0,0,1,34,4Z"/><path class="cls-1" d="M36.45,35.18l-.26,0a1,1,0,0,1-.7-1.23l2.7-10.13a1,1,0,0,1,1.94.51L37.42,34.44A1,1,0,0,1,36.45,35.18Z"/><path class="cls-2" d="M45.56,7.27,41.43,22.73a1.86,1.86,0,0,1-3.59-1L42,6.31Z"/><path class="cls-4" d="M46.25,4.69l-.69,2.58L42,6.31l.69-2.58A1.07,1.07,0,0,1,44,3l1.52.4A1.07,1.07,0,0,1,46.25,4.69Z"/><path class="cls-1" d="M27.87,35.18a1,1,0,0,1-1-.71L23.82,24.18a1,1,0,0,1,.67-1.25,1,1,0,0,1,1.24.67l3.1,10.29a1,1,0,0,1-.67,1.25A1,1,0,0,1,27.87,35.18Z"/><path class="cls-2" d="M21.41,6.25,26,21.58a1.86,1.86,0,0,1-3.56,1.07L17.85,7.32Z"/><path class="cls-4" d="M20.64,3.7l.77,2.55L17.85,7.32l-.77-2.55a1.07,1.07,0,0,1,.72-1.32L19.31,3A1.06,1.06,0,0,1,20.64,3.7Z"/><path class="cls-5" d="M49.67,45.14c0,3.92-2.63,7.4-6.72,9.65a22.54,22.54,0,0,1-11,2.67A22.83,22.83,0,0,1,21.36,55c-4.27-2.24-7-5.81-7-9.82s2.68-7.5,6.86-9.75a7.37,7.37,0,0,0,.75.33,28,28,0,0,0,10.22,1.69,28.62,28.62,0,0,0,10-1.6l.79-.35C47.05,37.72,49.67,41.21,49.67,45.14Z"/><path class="cls-3" d="M43.77,56.49c0,2.52-5.16,4.56-11.53,4.56S20.7,59,20.7,56.49A2.3,2.3,0,0,1,21.36,55,22.83,22.83,0,0,0,32,57.46a22.54,22.54,0,0,0,11-2.67A2.42,2.42,0,0,1,43.77,56.49Z"/><circle class="cls-3" cx="23.01" cy="46.37" r="3.11"/><circle class="cls-3" cx="41.46" cy="46.37" r="3.11"/><circle class="cls-3" cx="32.24" cy="46.37" r="3.11"/><path class="cls-1" d="M32.16,35.46a27,27,0,0,1-6.74-.75c-.73-.2-3-.83-3-2.4,0-3,8.08-3.14,9.7-3.14s9.69.15,9.69,3.14c0,1.44-1.77,2.08-3.1,2.44A27.05,27.05,0,0,1,32.16,35.46ZM24.69,32.3a5.71,5.71,0,0,0,1.27.49,25.57,25.57,0,0,0,6.2.67,26,26,0,0,0,6.08-.64,6.21,6.21,0,0,0,1.39-.52c-.87-.47-3.44-1.13-7.47-1.13S25.55,31.83,24.69,32.3Zm15.22.22h0Z"/><path class="cls-1" d="M32.16,38.42a29.41,29.41,0,0,1-10.61-1.77c-.27-.11-.54-.23-.79-.36-2.76-1.38-3.34-2.92-3.34-4,0-4,7.59-6.1,14.74-6.1s14.73,2.14,14.73,6.1c0,1.09-.61,2.68-3.51,4-.27.13-.55.25-.84.37A29.39,29.39,0,0,1,32.16,38.42Zm0-10.21c-7.89,0-12.74,2.39-12.74,4.1,0,.69.81,1.48,2.22,2.19.2.09.42.2.66.29a27.13,27.13,0,0,0,9.86,1.63,28,28,0,0,0,9.63-1.54l.73-.32c1.51-.71,2.37-1.53,2.37-2.25C44.89,30.6,40.05,28.21,32.16,28.21Zm0,7.25a27,27,0,0,1-6.74-.75c-.73-.2-3-.83-3-2.4,0-3,8.08-3.14,9.7-3.14s9.69.15,9.69,3.14c0,1.44-1.77,2.08-3.1,2.44A27.05,27.05,0,0,1,32.16,35.46ZM24.69,32.3a5.71,5.71,0,0,0,1.27.49,25.57,25.57,0,0,0,6.2.67,26,26,0,0,0,6.08-.64,6.21,6.21,0,0,0,1.39-.52c-.87-.47-3.44-1.13-7.47-1.13S25.55,31.83,24.69,32.3Z"/><path class="cls-1" d="M32.16,35.46a27,27,0,0,1-6.74-.75c-.73-.2-3-.83-3-2.4,0-3,8.08-3.14,9.7-3.14s9.69.15,9.69,3.14c0,1.44-1.77,2.08-3.1,2.44A27.05,27.05,0,0,1,32.16,35.46ZM24.69,32.3a5.71,5.71,0,0,0,1.27.49,25.57,25.57,0,0,0,6.2.67,26,26,0,0,0,6.08-.64,6.21,6.21,0,0,0,1.39-.52c-.87-.47-3.44-1.13-7.47-1.13S25.55,31.83,24.69,32.3Zm15.22.22h0Z"/><path class="cls-1" d="M32.16,35.46a1,1,0,0,1-1-1V24.53a1,1,0,0,1,2,0v9.93A1,1,0,0,1,32.16,35.46Z"/><path class="cls-1" d="M32.16,25.53a2.86,2.86,0,0,1-2.86-2.85v-16a1,1,0,0,1,1-1H34a1,1,0,0,1,1,1v16A2.86,2.86,0,0,1,32.16,25.53ZM31.3,7.67v15a.86.86,0,0,0,.86.85.85.85,0,0,0,.85-.85v-15Z"/><path class="cls-1" d="M34,7.67H30.3a1,1,0,0,1-1-1V4A2.07,2.07,0,0,1,31.37,2h1.57A2.07,2.07,0,0,1,35,4V6.67A1,1,0,0,1,34,7.67Zm-2.69-2H33V4L32.94,4H31.37Z"/><path class="cls-1" d="M36.45,35.18l-.26,0a1,1,0,0,1-.7-1.23l2.7-10.13a1,1,0,0,1,1.94.51L37.42,34.44A1,1,0,0,1,36.45,35.18Z"/><path class="cls-1" d="M39.64,25.11a2.74,2.74,0,0,1-.74-.1,2.9,2.9,0,0,1-1.74-1.33,2.86,2.86,0,0,1-.29-2.16L41,6.05a1,1,0,0,1,1.22-.71l3.59,1a1,1,0,0,1,.71,1.23L42.4,23A2.88,2.88,0,0,1,39.64,25.11Zm3-17.58L38.81,22a.87.87,0,0,0,.08.65.89.89,0,0,0,.53.4.8.8,0,0,0,.64-.09.84.84,0,0,0,.4-.52L44.34,8Z"/><path class="cls-1" d="M45.56,8.27l-.26,0-3.59-1A1,1,0,0,1,41,6.05l.68-2.57A2.06,2.06,0,0,1,44.22,2l1.53.41A2.07,2.07,0,0,1,47.22,5h0l-.69,2.58a1,1,0,0,1-.47.6A1,1,0,0,1,45.56,8.27ZM43.22,5.61,44.85,6l.43-1.61-.05-.07L43.71,4Zm3-.92h0Z"/><path class="cls-1" d="M27.87,35.18a1,1,0,0,1-1-.71L23.82,24.18a1,1,0,0,1,.67-1.25,1,1,0,0,1,1.24.67l3.1,10.29a1,1,0,0,1-.67,1.25A1,1,0,0,1,27.87,35.18Z"/><path class="cls-1" d="M24.24,25a2.86,2.86,0,0,1-2.74-2L16.89,7.61A1,1,0,0,1,17,6.85a1,1,0,0,1,.59-.48L21.12,5.3A1,1,0,0,1,22.36,6L27,21.3a2.79,2.79,0,0,1-.22,2.17,2.83,2.83,0,0,1-1.69,1.38A2.91,2.91,0,0,1,24.24,25ZM19.09,8l4.33,14.38a.85.85,0,0,0,1.07.56.82.82,0,0,0,.5-.41.86.86,0,0,0,.07-.65L20.74,7.5Z"/><path class="cls-1" d="M17.85,8.32a1,1,0,0,1-1-.71l-.77-2.55a2,2,0,0,1,.17-1.58,2.07,2.07,0,0,1,1.22-1L19,2A2.07,2.07,0,0,1,21.6,3.41h0L22.36,6a1,1,0,0,1-.67,1.24L18.14,8.28A1,1,0,0,1,17.85,8.32ZM19.62,4h0l-1.51.46.45,1.66,1.62-.49L19.68,4Z"/><path class="cls-1" d="M23,50.48a4.11,4.11,0,1,1,4.11-4.11A4.11,4.11,0,0,1,23,50.48Zm0-6.22a2.11,2.11,0,1,0,2.11,2.11A2.12,2.12,0,0,0,23,44.26Z"/><path class="cls-1" d="M41.46,50.48a4.11,4.11,0,1,1,4.11-4.11A4.12,4.12,0,0,1,41.46,50.48Zm0-6.22a2.11,2.11,0,1,0,2.11,2.11A2.12,2.12,0,0,0,41.46,44.26Z"/><path class="cls-1" d="M32.24,50.48a4.11,4.11,0,1,1,4.11-4.11A4.11,4.11,0,0,1,32.24,50.48Zm0-6.22a2.11,2.11,0,1,0,2.11,2.11A2.11,2.11,0,0,0,32.24,44.26Z"/><path class="cls-1" d="M32,58.46a23.74,23.74,0,0,1-11.11-2.61c-4.73-2.48-7.56-6.49-7.56-10.71S16,37,20.71,34.51a1,1,0,0,1,.91,0c.22.1.44.21.68.3a27.13,27.13,0,0,0,9.86,1.63,28,28,0,0,0,9.63-1.54l.73-.32a1,1,0,0,1,.92,0C48,37.12,50.67,41,50.67,45.14s-2.64,8-7.24,10.53A23.56,23.56,0,0,1,32,58.46Zm-10.77-22c-3.76,2.17-5.9,5.29-5.9,8.63,0,3.51,2.37,6.77,6.49,8.94A21.77,21.77,0,0,0,32,56.46a21.6,21.6,0,0,0,10.47-2.54c3.94-2.17,6.2-5.37,6.2-8.78s-2.09-6.4-5.77-8.56l-.36.15a29.39,29.39,0,0,1-10.38,1.69,29.41,29.41,0,0,1-10.61-1.77Z"/><path class="cls-1" d="M32.24,62.05c-6.08,0-12.54-1.95-12.54-5.56a3.31,3.31,0,0,1,.92-2.2,1,1,0,0,1,1.21-.21A21.7,21.7,0,0,0,32,56.46a21.6,21.6,0,0,0,10.47-2.54,1,1,0,0,1,1.19.17,3.35,3.35,0,0,1,1.11,2.4C44.77,60.1,38.31,62.05,32.24,62.05ZM21.73,56.27l0,.22c0,1.45,4.1,3.56,10.54,3.56s10.53-2.11,10.53-3.56a.92.92,0,0,0-.1-.42A23.77,23.77,0,0,1,32,58.46,24.2,24.2,0,0,1,21.73,56.27Z"/></svg>