<svg id="Color" xmlns="http://www.w3.org/2000/svg" viewBox="0 0 64 64"><defs><style>.cls-1{fill:#11eac0;}.cls-2{fill:#ff83be;}.cls-3{fill:#47b2f4;}.cls-4{fill:#ffcd50;}.cls-5{fill:#231f20;}</style></defs><path class="cls-1" d="M49.36,24.48V54.32a9,9,0,0,1-1.49,5l-1,1.45H44L43,59.3a9,9,0,0,1-1.48-5V24.48Z"/><rect class="cls-2" x="35.69" y="17.72" width="19.5" height="6.75"/><path class="cls-3" d="M45.54,2.38h-.2A5.6,5.6,0,0,0,39.74,8v9.78h11.4V8A5.6,5.6,0,0,0,45.54,2.38Z"/><path class="cls-3" d="M36.38,35.66V57.57a4.05,4.05,0,0,1-4,4H12.85a4.05,4.05,0,0,1-4-4V35.66A13.73,13.73,0,0,1,13,25.79a9.2,9.2,0,0,0,2.86-6c1.14.79,3.74,1.33,6.77,1.33s5.63-.54,6.77-1.32a9.06,9.06,0,0,0,2.8,5.94l.18.18A13.77,13.77,0,0,1,36.38,35.66Z"/><path class="cls-1" d="M30.25,38.07v3a7.19,7.19,0,0,1-7.19,7.19V45.27a2.44,2.44,0,0,1,0-.27h0a7.19,7.19,0,0,1,7.17-6.93Z"/><path class="cls-1" d="M23.06,45.27v2.95A7.19,7.19,0,0,1,15.86,41v-3A7.19,7.19,0,0,1,23,45h0A2.44,2.44,0,0,1,23.06,45.27Z"/><path class="cls-1" d="M26.83,38.17a7.16,7.16,0,0,1,0,.8,7.14,7.14,0,0,0-3.7,6h0a7.14,7.14,0,0,0-3.7-6,7.18,7.18,0,0,1-.06-.8c0-3.78,3.78-6.85,3.78-6.85S26.83,34.39,26.83,38.17Z"/><path class="cls-4" d="M30,18.91a1.14,1.14,0,0,1-.63.87c-1.14.78-3.74,1.32-6.77,1.32s-5.63-.54-6.77-1.33a1.13,1.13,0,0,1-.62-.86c0-1.2,3.31-2.18,7.39-2.18S30,17.71,30,18.91Z"/><path class="cls-5" d="M46.91,61.75H44a1,1,0,0,1-.83-.45l-1-1.44a10,10,0,0,1-1.65-5.53V24.48a1,1,0,0,1,1-1h7.84a1,1,0,0,1,1,1V54.33a10,10,0,0,1-1.66,5.53l-1,1.44A1,1,0,0,1,46.91,61.75Zm-2.41-2h1.87l.67-1a8,8,0,0,0,1.32-4.42V25.48H42.52V54.33a8,8,0,0,0,1.32,4.42Z"/><path class="cls-5" d="M55.19,25.48H35.69a1,1,0,0,1-1-1V17.72a1,1,0,0,1,1-1h19.5a1,1,0,0,1,1,1v6.76A1,1,0,0,1,55.19,25.48Zm-18.5-2h17.5V18.72H36.69Z"/><path class="cls-5" d="M51.14,18.76H39.74a1,1,0,0,1-1-1V8a6.61,6.61,0,0,1,6.6-6.6h.2A6.61,6.61,0,0,1,52.14,8v9.78A1,1,0,0,1,51.14,18.76Zm-10.4-2h9.4V8a4.6,4.6,0,0,0-4.6-4.6h-.2A4.6,4.6,0,0,0,40.74,8Z"/><path class="cls-5" d="M32.34,62.62H12.85a5,5,0,0,1-5-5V35.66a14.67,14.67,0,0,1,4.45-10.58,8.2,8.2,0,0,0,2.56-5.36,1,1,0,0,1,.56-.84,1,1,0,0,1,1,.07c.83.57,3.07,1.15,6.2,1.15S28,19.52,28.79,19a1,1,0,0,1,1-.07,1,1,0,0,1,.55.83A8.09,8.09,0,0,0,32.85,25l.2.2a14.74,14.74,0,0,1,4.33,10.46V57.58A5,5,0,0,1,32.34,62.62ZM16.63,21.26a10.55,10.55,0,0,1-3,5.25,12.65,12.65,0,0,0-3.85,9.15V57.58a3,3,0,0,0,3,3H32.34a3,3,0,0,0,3-3V35.66a12.74,12.74,0,0,0-3.75-9l-.18-.18a10.12,10.12,0,0,1-2.9-5.17,18.81,18.81,0,0,1-6,.84A18.81,18.81,0,0,1,16.63,21.26Z"/><path class="cls-5" d="M23.06,49.22a1,1,0,0,1-1-1V45.27a2.42,2.42,0,0,1,0-.38v-.08a8.18,8.18,0,0,1,8.16-7.74,1,1,0,0,1,1,1v3A8.2,8.2,0,0,1,23.06,49.22Zm1-4v1.94A6.2,6.2,0,0,0,29.25,41V39.15a6.39,6.39,0,0,0-2,.69A6.19,6.19,0,0,0,24.08,45Z"/><path class="cls-5" d="M23.06,49.22A8.21,8.21,0,0,1,14.86,41v-3a1,1,0,0,1,1-1A8.22,8.22,0,0,1,24,44.82v.07c0,.13,0,.25,0,.38v2.95A1,1,0,0,1,23.06,49.22Zm-6.2-10.07V41a6.21,6.21,0,0,0,5.2,6.11V45.2L22,45a6.14,6.14,0,0,0-3.19-5.18A6.22,6.22,0,0,0,16.86,39.15Z"/><path class="cls-5" d="M23.06,46a1,1,0,0,1-.59-.19A1,1,0,0,1,22,45a6.14,6.14,0,0,0-3.19-5.18,1,1,0,0,1-.51-.77,9.08,9.08,0,0,1-.05-.91c0-4.21,4-7.49,4.14-7.62a1,1,0,0,1,1.26,0c.17.13,4.14,3.41,4.14,7.62a6.84,6.84,0,0,1-.06.91,1,1,0,0,1-.51.77A6.18,6.18,0,0,0,24.08,45a1,1,0,0,1-.79.95Zm-2.77-7.63a8.27,8.27,0,0,1,2.77,3,8.16,8.16,0,0,1,2.77-3v-.21c0-2.37-1.78-4.49-2.77-5.48-1,1-2.77,3.11-2.77,5.48Zm6.49.6h0Z"/><path class="cls-5" d="M22.59,22.1c-3.18,0-6-.58-7.33-1.5a2.06,2.06,0,0,1-1.06-1.69c0-2.35,4.52-3.18,8.39-3.18s8.4.83,8.4,3.18a2,2,0,0,1-1.09,1.71C28.57,21.53,25.76,22.1,22.59,22.1Zm-6.27-3.2,0,0c.86.59,3.1,1.17,6.23,1.17S28,19.52,28.79,19l.08-.06c-.58-.43-2.71-1.17-6.28-1.17S16.9,18.47,16.32,18.9ZM29,19h0Z"/></svg>