<svg id="Color" xmlns="http://www.w3.org/2000/svg" viewBox="0 0 64 64"><defs><style>.cls-1{fill:#ffcd50;}.cls-2{fill:#af732c;}.cls-3{fill:#231f20;}.cls-4{fill:#47b2f4;}</style></defs><path class="cls-1" d="M47.92,19.16a15.79,15.79,0,0,1-4.14,10.7l-.19.21,0,0c-.85,1.14-.47,2.88-.12,3.9a5.91,5.91,0,0,0-2.7-1.53,29.57,29.57,0,0,0-8.83-1.17,30.29,30.29,0,0,0-8.73,1.13c-1.58.51-2.67,1.16-3,1.89.17-.41,1.11-3,0-4.51a2.17,2.17,0,0,0-.24-.29,15.92,15.92,0,1,1,28-10.35Z"/><path class="cls-2" d="M43.78,34.82c0,1.6-3.55,3-8.43,3.39a3.68,3.68,0,0,0,.17-1.11,3.6,3.6,0,1,0-7.2,0,3.68,3.68,0,0,0,.17,1.11c-4.89-.44-8.44-1.79-8.44-3.39a1,1,0,0,1,.1-.45l0-.06c.35-.73,1.44-1.38,3-1.89a30.29,30.29,0,0,1,8.73-1.13,29.57,29.57,0,0,1,8.83,1.17A5.91,5.91,0,0,1,43.45,34,1.29,1.29,0,0,1,43.78,34.82Z"/><path class="cls-3" d="M20.15,35.37a1,1,0,0,1-.44-.1,1,1,0,1,1,1.43-.72l-.09.26A1,1,0,0,1,20.15,35.37Z"/><path class="cls-4" d="M35.52,37.1a3.68,3.68,0,0,1-.17,1.11,3.61,3.61,0,0,1-6.86,0,3.68,3.68,0,0,1-.17-1.11,3.6,3.6,0,1,1,7.2,0Z"/><path class="cls-3" d="M31.92,34.5a1,1,0,0,1-1-1V31.29a1,1,0,0,1,2,0V33.5A1,1,0,0,1,31.92,34.5Z"/><path class="cls-1" d="M45,60.75H38a1.14,1.14,0,0,1-.83-.37l-1.89-2.09a7.17,7.17,0,0,1-1.8-3.48,7.56,7.56,0,0,0-2.85-4.47l-.81-.66a8,8,0,0,1-2.71-3.85l-.18-.63A1.12,1.12,0,0,1,28,43.76h7.63a1.13,1.13,0,0,1,1.08.8l.31,1a7.82,7.82,0,0,0,2.5,3.69l1.23,1.05a7.51,7.51,0,0,1,2.66,4.34h0a7.25,7.25,0,0,0,1.76,3.46l.64.71A1.13,1.13,0,0,1,45,60.75Z"/><path class="cls-3" d="M31.92,44.76a1,1,0,0,1-1-1V40.7a1,1,0,0,1,2,0v3.06A1,1,0,0,1,31.92,44.76Z"/><path class="cls-4" d="M39.19,14.73v2.95A7.18,7.18,0,0,1,32,24.87V21.93a2.44,2.44,0,0,1,0-.27h0a7.17,7.17,0,0,1,7.16-6.93Z"/><path class="cls-4" d="M32,21.93v2.94a7.18,7.18,0,0,1-7.2-7.19V14.73A7.19,7.19,0,0,1,32,21.66h0A1.23,1.23,0,0,1,32,21.93Z"/><path class="cls-4" d="M35.77,14.82a7.19,7.19,0,0,1-.05.81,7.14,7.14,0,0,0-3.69,6H32a7.12,7.12,0,0,0-3.7-6,7.19,7.19,0,0,1-.05-.81C28.23,11,32,8,32,8S35.77,11,35.77,14.82Z"/><path class="cls-3" d="M20.17,35.31a1,1,0,0,1-.41-.08,1,1,0,0,1-.51-1.3c.27-.65.81-2.55.09-3.54l-.14-.17a16.92,16.92,0,1,1,25.32.32l-.16.17,0,0a3.52,3.52,0,0,0,.06,2.93,1,1,0,0,1-1.73.95,4.86,4.86,0,0,0-2.24-1.21,28.77,28.77,0,0,0-8.51-1.12,29.51,29.51,0,0,0-8.43,1.09c-2,.64-2.36,1.25-2.42,1.37A1,1,0,0,1,20.17,35.31ZM32,4.25A14.91,14.91,0,0,0,20.67,28.86a2.63,2.63,0,0,1,.3.37,4.27,4.27,0,0,1,.72,2.69,12.41,12.41,0,0,1,1.19-.45,31.13,31.13,0,0,1,9-1.18,30.66,30.66,0,0,1,9.15,1.22c.35.12.68.25,1,.38a3.81,3.81,0,0,1,.71-2.39l.08-.1.22-.24A14.91,14.91,0,0,0,32,4.25ZM43.58,30.09h0Z"/><path class="cls-3" d="M28.49,39.21H28.4c-2.19-.2-9.35-1.1-9.35-4.39a2,2,0,0,1,.17-.8l.05-.14c.47-1,1.68-1.78,3.61-2.41a31.13,31.13,0,0,1,9-1.18,30.66,30.66,0,0,1,9.15,1.22,6.75,6.75,0,0,1,3.16,1.86,2.28,2.28,0,0,1,.55,1.45c0,3.29-7.15,4.19-9.34,4.39a1,1,0,0,1-.87-.37,1,1,0,0,1-.17-.93,2.74,2.74,0,0,0,.12-.81,2.6,2.6,0,1,0-5.2,0,2.74,2.74,0,0,0,.12.81,1,1,0,0,1-.17.93A1,1,0,0,1,28.49,39.21Zm-7.4-4.5,0,.09c0,.49,1.82,1.71,6.26,2.28a4.6,4.6,0,0,1,9.2,0c4.44-.57,6.26-1.79,6.26-2.26l-.11-.2a4.86,4.86,0,0,0-2.24-1.21,28.77,28.77,0,0,0-8.51-1.12,29.51,29.51,0,0,0-8.43,1.09C21.67,34,21.2,34.53,21.09,34.71Z"/><path class="cls-3" d="M20.15,35.37a1,1,0,0,1-.44-.1,1,1,0,1,1,1.43-.72l-.09.26A1,1,0,0,1,20.15,35.37Z"/><path class="cls-3" d="M31.92,41.7a4.6,4.6,0,1,1,4.6-4.6,4.47,4.47,0,0,1-.22,1.41A4.6,4.6,0,0,1,31.92,41.7Zm0-7.2a2.61,2.61,0,0,0-2.6,2.6,2.74,2.74,0,0,0,.12.81,2.61,2.61,0,0,0,5,0,2.74,2.74,0,0,0,.12-.81A2.61,2.61,0,0,0,31.92,34.5Z"/><path class="cls-3" d="M31.92,34.5a1,1,0,0,1-1-1V31.29a1,1,0,0,1,2,0V33.5A1,1,0,0,1,31.92,34.5Z"/><path class="cls-3" d="M45,61.75H38a2.13,2.13,0,0,1-1.57-.7L34.53,59a8.28,8.28,0,0,1-2-4A6.65,6.65,0,0,0,30,51.11l-.81-.65a8.94,8.94,0,0,1-3-4.35L26,45.48a2.12,2.12,0,0,1,2-2.72h7.63a2.12,2.12,0,0,1,2,1.52l.31,1a6.8,6.8,0,0,0,2.19,3.21l1.23,1a8.55,8.55,0,0,1,3,4.93v0a6.27,6.27,0,0,0,1.51,3l.64.72A2.12,2.12,0,0,1,45,61.75Zm-17-17-.1.05,0,.11.18.62a7,7,0,0,0,2.37,3.36l.82.66a8.6,8.6,0,0,1,3.21,5.07,6.13,6.13,0,0,0,1.55,3l2,2.13h7l.11-.08,0-.13-.64-.72a8.16,8.16,0,0,1-2-4v0a6.49,6.49,0,0,0-2.31-3.73l-1.23-1a8.82,8.82,0,0,1-2.82-4.17l-.31-1-.12-.09Z"/><path class="cls-3" d="M31.92,44.76a1,1,0,0,1-1-1V40.7a1,1,0,0,1,2,0v3.06A1,1,0,0,1,31.92,44.76Z"/><path class="cls-3" d="M32,25.87a1,1,0,0,1-1-1V21.93c0-.13,0-.26,0-.39v-.06a8.18,8.18,0,0,1,8.16-7.75,1,1,0,0,1,1,1v2.95A8.19,8.19,0,0,1,32,25.87Zm1-4v1.93a6.19,6.19,0,0,0,5.19-6.11V15.81a5.92,5.92,0,0,0-2,.69A6.19,6.19,0,0,0,33,21.69Z"/><path class="cls-3" d="M32,25.87a8.19,8.19,0,0,1-8.19-8.19V14.73a1,1,0,0,1,1-1A8.19,8.19,0,0,1,33,21.47v.08c0,.13,0,.25,0,.38v2.94A1,1,0,0,1,32,25.87ZM25.81,15.81v1.87A6.19,6.19,0,0,0,31,23.79v-2.1A6.18,6.18,0,0,0,27.8,16.5,6,6,0,0,0,25.81,15.81Z"/><path class="cls-3" d="M32,22.66h0a1,1,0,0,1-.53-.16,1,1,0,0,1-.48-.81A6.15,6.15,0,0,0,27.8,16.5a1,1,0,0,1-.51-.76,6.88,6.88,0,0,1-.06-.92c0-4.2,4-7.48,4.15-7.62a1,1,0,0,1,1.26,0c.16.14,4.13,3.42,4.13,7.62a6.88,6.88,0,0,1-.06.92,1,1,0,0,1-.5.76A6.19,6.19,0,0,0,33,21.69a1,1,0,0,1-.76.94ZM29.23,15A8.1,8.1,0,0,1,32,18a8.27,8.27,0,0,1,2.77-3v-.21c0-2.36-1.78-4.49-2.77-5.48-1,1-2.77,3.12-2.77,5.48Zm6.49.6h0Z"/></svg>