<svg id="Color" xmlns="http://www.w3.org/2000/svg" viewBox="0 0 64 64"><defs><style>.cls-1{fill:#ffcd50;}.cls-2{fill:#47b2f4;}.cls-3{fill:#231f20;}</style></defs><path class="cls-1" d="M21.11,17.05V48.42c0-2.57-3.79-4.65-8.46-4.65s-8.46,2.08-8.46,4.65V17.13a9,9,0,0,1,16.92-.08Z"/><path class="cls-2" d="M21.11,14.73v2.32a9.09,9.09,0,0,0-2.06-3.19A9,9,0,0,0,4.19,17.13v-2.4a8.46,8.46,0,1,1,16.92,0Z"/><path class="cls-2" d="M21.11,48.42v4.66c0-2.58-3.79-4.66-8.46-4.66S4.19,50.5,4.19,53.08V48.42c0-2.57,3.78-4.65,8.46-4.65S21.11,45.85,21.11,48.42Z"/><path class="cls-2" d="M21.11,53.08c0,2.57-3.79,4.65-8.46,4.65s-8.46-2.08-8.46-4.65S8,48.42,12.65,48.42,21.11,50.5,21.11,53.08Z"/><path class="cls-2" d="M59.8,50.66v2.46a4.6,4.6,0,0,1-4.6,4.61H12.65c4.67,0,8.46-2.08,8.46-4.65V50.66Z"/><path class="cls-1" d="M59.8,19.67v31H21.11V19.09c0,.19,0,.39,0,.58Z"/><path class="cls-2" d="M59.8,17.39v2.28H21.13c0-.19,0-.39,0-.58V14.73a8.39,8.39,0,0,0-.22-2H55.2A4.6,4.6,0,0,1,59.8,17.39Z"/><path class="cls-3" d="M21.12,54.08a1,1,0,0,1-1-1c0-1.73-3.07-3.66-7.46-3.66s-7.47,1.93-7.47,3.66a1,1,0,0,1-2,0V14.73A9.47,9.47,0,0,1,19.35,8a9.3,9.3,0,0,1,2.51,4.52,8.9,8.9,0,0,1,.26,2.17V53.08A1,1,0,0,1,21.12,54.08Zm-8.46-6.66a12.54,12.54,0,0,1,7.46,2.14V14.73a7.48,7.48,0,0,0-2.18-5.27A7.47,7.47,0,0,0,5.19,14.73V49.56A12.55,12.55,0,0,1,12.66,47.42Z"/><path class="cls-3" d="M12.66,58.73c-5.31,0-9.47-2.48-9.47-5.65s4.16-5.66,9.47-5.66,9.46,2.49,9.46,5.66S18,58.73,12.66,58.73Zm0-9.31c-4.4,0-7.47,1.93-7.47,3.66s3.07,3.65,7.47,3.65,7.46-1.92,7.46-3.65S17.05,49.42,12.66,49.42Z"/><path class="cls-3" d="M21.12,49.42a1,1,0,0,1-1-1c0-1.72-3.07-3.65-7.46-3.65S5.19,46.7,5.19,48.42a1,1,0,0,1-2,0c0-3.17,4.16-5.65,9.47-5.65s9.46,2.48,9.46,5.65A1,1,0,0,1,21.12,49.42Z"/><path class="cls-3" d="M55.2,58.73H12.66a1,1,0,0,1,0-2c4.39,0,7.46-1.92,7.46-3.65V14.73a7.28,7.28,0,0,0-.2-1.71,1,1,0,0,1,.18-.85,1,1,0,0,1,.79-.39H55.2a5.62,5.62,0,0,1,5.61,5.61V53.13A5.61,5.61,0,0,1,55.2,58.73Zm-35.27-2H55.2a3.61,3.61,0,0,0,3.61-3.6V17.39a3.61,3.61,0,0,0-3.61-3.61H22.07c0,.31.05.63.05,1V53.08A4.59,4.59,0,0,1,19.93,56.73Z"/><path class="cls-3" d="M59.81,20.68H21.13a1,1,0,0,1-1-1,7.46,7.46,0,1,0-14.92,0,1,1,0,0,1-2,0,9.46,9.46,0,0,1,18.87-1H59.81a1,1,0,0,1,0,2Z"/><path class="cls-3" d="M59.81,51.66H21.13a1,1,0,1,1,0-2H59.81a1,1,0,0,1,0,2Z"/></svg>