<svg id="Color" xmlns="http://www.w3.org/2000/svg" viewBox="0 0 64 64"><defs><style>.cls-1{fill:#47b2f4;}.cls-2{fill:#231f20;}</style></defs><circle class="cls-1" cx="31.99" cy="12.05" r="7.25"/><path class="cls-1" d="M52.5,53.14v.36c0,3.15-2,5.69-4.56,5.69H28.7a2.73,2.73,0,0,1-2.39-2.95,2.87,2.87,0,0,1,1.88-2.88L29.47,53l14.71-4.69,2.65-.72.15,0C49.81,46.81,52.5,49.51,52.5,53.14Z"/><path class="cls-1" d="M28.7,59.19H16.05c-2.52,0-4.55-2.54-4.55-5.69s2.11-5.68,4.53-5.68a2.91,2.91,0,0,1,.87.13,1.23,1.23,0,0,1,.32.07l2.25.76,10,4.24-1.28.34a2.87,2.87,0,0,0-1.88,2.88A2.73,2.73,0,0,0,28.7,59.19Z"/><polygon class="cls-1" points="42.1 44.29 44.18 48.32 29.46 53.02 19.46 48.78 21.88 44.08 21.88 40.13 31.85 33.3 41.82 40.13 42.1 40.32 42.1 44.29"/><path class="cls-1" d="M47.78,37.11,35.63,31.93l-3.78-7.29-3.78,7.29L15.92,37.11,20,25.1a7.13,7.13,0,0,1,.28-.67,8.1,8.1,0,0,1,7.23-5.14h8.94c3.58,0,6.61,2.69,7.71,6.42Z"/><path class="cls-1" d="M31.85,24.64V33.3l-10,6.83-3.66,2.51a1.47,1.47,0,0,1-2.3-1.21V37.11l12.15-5.18Z"/><path class="cls-1" d="M47.78,37.11v4.31a1.47,1.47,0,0,1-2.3,1.22L42.1,40.32l-.28-.19-10-6.83V24.64l3.78,7.29Z"/><path class="cls-2" d="M32,20.3a8.25,8.25,0,1,1,8.25-8.25A8.26,8.26,0,0,1,32,20.3ZM32,5.81a6.25,6.25,0,1,0,6.25,6.24A6.25,6.25,0,0,0,32,5.81Z"/><path class="cls-2" d="M47.94,60.19H28.7a3.7,3.7,0,0,1-3.39-3.95,3.84,3.84,0,0,1,2.63-3.85l1.27-.34,14.67-4.68,2.85-.77a4.77,4.77,0,0,1,4.2.89,7.09,7.09,0,0,1,2.57,5.65v.36C53.5,57.19,51,60.19,47.94,60.19Zm0-11.75a2.53,2.53,0,0,0-.71.1l-.17,0-2.63.71L29.77,54l-1.32.35a1.93,1.93,0,0,0-1.14,1.92c0,1,.65,1.95,1.39,1.95H47.94c2,0,3.56-2.1,3.56-4.69v-.36a5.08,5.08,0,0,0-1.79-4.06A2.93,2.93,0,0,0,48,48.44Z"/><path class="cls-2" d="M28.7,60.19H16.05c-3.06,0-5.55-3-5.55-6.69S13,46.82,16,46.82a4,4,0,0,1,1,.14,2.66,2.66,0,0,1,.44.1l2.28.77L29.86,52.1A1,1,0,0,1,29.72,54l-1.27.34a1.93,1.93,0,0,0-1.14,1.92c0,1,.65,1.95,1.39,1.95a1,1,0,1,1,0,2ZM16,48.82c-2,0-3.53,2.1-3.53,4.68s1.59,4.69,3.55,4.69h9.7a4.44,4.44,0,0,1-.44-1.95A4.13,4.13,0,0,1,26.79,53L19.08,49.7l-2.28-.76a.58.58,0,0,1-.19,0A1.9,1.9,0,0,0,16,48.82Z"/><path class="cls-2" d="M29.46,54a.91.91,0,0,1-.39-.08l-10-4.24a1,1,0,0,1-.55-.58,1,1,0,0,1,.06-.8l2.3-4.48V40.13a1,1,0,0,1,.44-.83l10-6.83a1,1,0,0,1,1.13,0l10.24,7a1,1,0,0,1,.44.83v3.73l2,3.81a1,1,0,0,1,0,.84,1,1,0,0,1-.62.57L29.77,54A.84.84,0,0,1,29.46,54Zm-8.61-5.74L29.51,52l13.24-4.23-1.54-3a.92.92,0,0,1-.11-.46V40.85l-9.25-6.34-9,6.14v3.43a.92.92,0,0,1-.11.46Z"/><path class="cls-2" d="M15.92,38.11a1,1,0,0,1-.68-.27A1,1,0,0,1,15,36.79l4.1-12a7.39,7.39,0,0,1,.32-.78,9,9,0,0,1,8.13-5.71h8.94c3.93,0,7.41,2.87,8.67,7.14l3.61,11.38A1,1,0,0,1,47.39,38L35.24,32.85a1,1,0,0,1-.49-.46l-2.9-5.57L29,32.39a1,1,0,0,1-.5.46L16.31,38A1,1,0,0,1,15.92,38.11Zm20.44-7,9.81,4.19-3-9.33c-1-3.43-3.71-5.72-6.75-5.72H27.52a7.07,7.07,0,0,0-6.31,4.54c-.1.21-.18.41-.26.62l-3.36,9.86,9.75-4.16,3.62-7a1,1,0,0,1,1.78,0Z"/><path class="cls-2" d="M17.39,43.9a2.49,2.49,0,0,1-2.47-2.47V37.11a1,1,0,0,1,.61-.92l11.81-5,3.62-7a1,1,0,0,1,1.13-.51,1,1,0,0,1,.76,1V33.3a1,1,0,0,1-.43.82L18.79,43.46A2.47,2.47,0,0,1,17.39,43.9Zm-.47-6.13v3.66a.47.47,0,0,0,.25.41.46.46,0,0,0,.49,0l13.19-9v-4L29,32.39a1,1,0,0,1-.5.46Z"/><path class="cls-2" d="M46.31,43.9a2.47,2.47,0,0,1-1.4-.44L31.29,34.12a1,1,0,0,1-.44-.82V24.64a1,1,0,0,1,1.89-.46l3.62,7,11.81,5a1,1,0,0,1,.61.92v4.31a2.45,2.45,0,0,1-1.32,2.19A2.48,2.48,0,0,1,46.31,43.9ZM32.85,32.77l13.19,9a.47.47,0,0,0,.74-.39V37.77L35.24,32.85a1,1,0,0,1-.49-.46l-1.9-3.65Z"/></svg>