<svg id="Color" xmlns="http://www.w3.org/2000/svg" viewBox="0 0 64 64"><defs><style>.cls-1{fill:#ff83be;}.cls-2{fill:#231f20;}</style></defs><circle class="cls-1" cx="31.03" cy="13.23" r="5.13"/><line class="cls-1" x1="33.42" y1="48.16" x2="33.41" y2="48.1"/><path class="cls-1" d="M48,39.43c.39,4.53-5.92,9.1-10.85,10.19l-3.75,5,0-6.48a.69.69,0,0,1,.22-.85c2.45-1.82,6.68-4.34,6.64-6.6C40.22,37,30,37.44,30,37.44s1.8,24.09-.39,24.09H23.37l3.88-3.29c-2-5-3.34-14.05-3.88-17.93a103.18,103.18,0,0,1-.44-14.68S16,19.53,16,13.66,27.64,2.55,27.64,2.55a.32.32,0,0,1,.49.4s-6.52,6.63-6.52,10.71,4.06,6.63,4.06,6.63L35,20.5s5.28-2.75,5.38-7.34S33.56,3,33.56,3A.32.32,0,0,1,34,2.55S45.63,8.91,45.49,14s-6.94,11.18-6.94,11.18v7.72S47.6,34.91,48,39.43Z"/><path class="cls-2" d="M31,19.36a6.13,6.13,0,1,1,6.13-6.13A6.14,6.14,0,0,1,31,19.36ZM31,9.1a4.13,4.13,0,1,0,4.13,4.13A4.13,4.13,0,0,0,31,9.1Z"/><path class="cls-2" d="M33.4,49.13a1,1,0,0,1-1-.8v-.06a1,1,0,0,1,.82-1.16,1,1,0,0,1,1.15.82,1,1,0,0,1-.81,1.18Z"/><path class="cls-2" d="M29.59,62.53H23.37a1,1,0,0,1-.65-1.76l3.35-2.84C24.29,53,23,44.94,22.38,40.45a99.51,99.51,0,0,1-.47-14.39C20.44,24.67,15,19.18,15,13.66c0-6.2,10.92-11.41,12.15-12A1.32,1.32,0,0,1,29,3.44l-.16.21c-1.73,1.77-6.23,7-6.23,10S25.22,18.74,26,19.3l8.79.2c.92-.55,4.56-2.91,4.63-6.36s-4.65-7.9-6.48-9.36l-.13-.13A1.32,1.32,0,0,1,34.54,1.7c1.49.82,12.1,6.86,12,12.28-.14,4.79-5.52,10.24-6.94,11.59v6.5c2.42.66,9.06,2.86,9.45,7.27h0c.44,5.15-6.15,9.88-11.27,11.16L34.2,55.24a1,1,0,0,1-1.12.35,1,1,0,0,1-.68-1l0-6.31a1.67,1.67,0,0,1,.63-1.82c.41-.31.88-.64,1.37-1,1.95-1.37,4.89-3.44,4.86-4.79a.91.91,0,0,0-.35-.71c-1.27-1.2-5.14-1.6-7.87-1.6.51,7.23,1.31,21.74-.47,23.66A1.37,1.37,0,0,1,29.59,62.53Zm-3.5-2H29.2c.79-2.07.53-13.08-.22-23a1,1,0,0,1,.25-.74,1,1,0,0,1,.71-.34c.79,0,7.84-.26,10.36,2.12a2.94,2.94,0,0,1,1,2.14c0,2.4-3,4.56-5.71,6.46L34.41,48v3.63L36.35,49a1,1,0,0,1,.59-.37c4.82-1.07,10.39-5.38,10.07-9.13-.28-3.11-6.36-5.17-8.68-5.69a1,1,0,0,1-.78-1V25.13a1,1,0,0,1,.33-.74c.06-.06,6.48-5.92,6.61-10.47.06-2.07-2.73-4.86-5.88-7.21,1.53,2,2.85,4.27,2.8,6.47-.11,5.13-5.68,8.08-5.91,8.21a.84.84,0,0,1-.49.11l-9.36-.21a.92.92,0,0,1-.51-.15c-.18-.12-4.53-2.89-4.53-7.48,0-2.68,2.32-6.12,4.26-8.53C21.35,7.2,17,10.51,17,13.66c0,5.35,6.54,11.16,6.61,11.22a1,1,0,0,1,.34.79,103,103,0,0,0,.43,14.5c.64,4.62,2,13,3.82,17.7A1,1,0,0,1,27.9,59Zm8.15-12.42Zm-.88-44.8h0Z"/></svg>