<svg id="Color" xmlns="http://www.w3.org/2000/svg" viewBox="0 0 64 64"><defs><style>.cls-1{fill:#ffcd50;}.cls-2{fill:#47b2f4;}.cls-3{fill:#231f20;}.cls-4{fill:#af732c;}.cls-5{fill:#ff83be;}</style></defs><path class="cls-1" d="M54.81,50.26l-2,5.27c-.12,2.72-9.4,4.93-20.84,4.93s-20.86-2.24-20.86-5l-1.71-4.8a8.77,8.77,0,0,0,4.05,2.5C17.67,54.71,24.4,55.71,32,55.71s14.32-1,18.51-2.54C52.79,52.33,54.31,51.34,54.81,50.26Z"/><path class="cls-2" d="M55,49.47a1.59,1.59,0,0,1-.17.73l0,.06c-.5,1.08-2,2.07-4.3,2.91C46.32,54.71,39.59,55.71,32,55.71s-14.33-1-18.52-2.54a8.77,8.77,0,0,1-4.05-2.5A2.05,2.05,0,0,1,9,49.47C9,46,19.29,43.22,32,43.22S55,46,55,49.47Z"/><line class="cls-1" x1="52.84" y1="55.53" x2="52.65" y2="56.05"/><path class="cls-3" d="M9.43,51.67A1,1,0,0,1,8.49,51l-.43-1.2a1,1,0,0,1,1.88-.68l.43,1.2a1,1,0,0,1-.6,1.28A1,1,0,0,1,9.43,51.67Z"/><path class="cls-3" d="M31.87,47.17a1,1,0,0,1-1-1v-5.9a1,1,0,1,1,2,0v5.9A1,1,0,0,1,31.87,47.17Z"/><path class="cls-4" d="M34.08,12.41V38.06a2.22,2.22,0,0,1-4.43,0V12.41Z"/><path class="cls-5" d="M34.08,9.36v3.05H29.65V9.36a1.53,1.53,0,0,1,1.53-1.53h1.37A1.53,1.53,0,0,1,34.08,9.36Z"/><path class="cls-3" d="M32,61.46c-10.36,0-21.49-1.81-21.85-5.79L8.49,51A1,1,0,0,1,9,49.78a1,1,0,0,1,1.27.31c.3.42,1.17,1.25,3.59,2.14,4.22,1.55,11,2.48,18.17,2.48s13.94-.93,18.17-2.48c2.86-1,3.56-2,3.73-2.39a1,1,0,0,1,1.85.77l-1.93,5.15C53.32,59.67,42.24,61.46,32,61.46ZM11.47,53.4l.61,1.73a1,1,0,0,1,.06.34c0,1.35,7,4,19.86,4s19.78-2.63,19.84-4a1.55,1.55,0,0,1,.06-.31l.68-1.8c-.52.25-1.09.5-1.72.73-4.5,1.65-11.38,2.6-18.86,2.6s-14.37-1-18.86-2.6A17.85,17.85,0,0,1,11.47,53.4Z"/><path class="cls-3" d="M32,56.71c-7.49,0-14.37-1-18.86-2.6a9.5,9.5,0,0,1-4.52-2.86A3,3,0,0,1,8,49.47c0-4.76,12.07-7.25,24-7.25s24,2.49,24,7.25a2.55,2.55,0,0,1-.25,1.12l0,.09c-.61,1.31-2.24,2.46-4.86,3.43C46.36,55.76,39.48,56.71,32,56.71Zm0-12.49c-13.43,0-22,3.11-22,5.25a1.11,1.11,0,0,0,.24.62c.3.42,1.17,1.25,3.59,2.14,4.22,1.55,11,2.48,18.17,2.48s13.94-.93,18.17-2.48c2.78-1,3.52-2,3.72-2.36l0-.11a.59.59,0,0,0,.07-.29C54,47.33,45.43,44.22,32,44.22Zm22.81,6h0Z"/><path class="cls-3" d="M52.65,57.05a1,1,0,0,1-.34-.06,1,1,0,0,1-.6-1.28l.19-.52a1,1,0,0,1,1.88.68l-.19.52A1,1,0,0,1,52.65,57.05Z"/><path class="cls-3" d="M9.43,51.67A1,1,0,0,1,8.49,51l-.43-1.2a1,1,0,0,1,1.88-.68l.43,1.2a1,1,0,0,1-.6,1.28A1,1,0,0,1,9.43,51.67Z"/><path class="cls-3" d="M36.21,51.51a1,1,0,0,1-.47-.12,5.17,5.17,0,0,1-1.21-.89,5.1,5.1,0,0,1-1.43-2.74,2.94,2.94,0,0,1-.09-.59H31a4,4,0,0,1-.08.62,5.15,5.15,0,0,1-2.65,3.6,1,1,0,0,1-.94-1.76A3.23,3.23,0,0,0,29,47.4a3.51,3.51,0,0,0,.05-.59v-.64a1,1,0,0,1,1-1h4a1,1,0,0,1,1,1v.64a2.79,2.79,0,0,0,0,.55,3.12,3.12,0,0,0,.9,1.72,3.18,3.18,0,0,0,.73.55,1,1,0,0,1-.47,1.88Z"/><path class="cls-3" d="M31.87,47.17a1,1,0,0,1-1-1v-5.9a1,1,0,1,1,2,0v5.9A1,1,0,0,1,31.87,47.17Z"/><path class="cls-3" d="M31.87,41.27a3.22,3.22,0,0,1-3.22-3.21V9.36a2.54,2.54,0,0,1,2.53-2.53h1.37a2.53,2.53,0,0,1,2.53,2.53v28.7A3.21,3.21,0,0,1,31.87,41.27ZM31.18,8.83a.53.53,0,0,0-.53.53v28.7a1.22,1.22,0,0,0,2.43,0V9.36a.53.53,0,0,0-.53-.53Z"/><path class="cls-3" d="M34.08,13.41H29.65a1,1,0,0,1-1-1V9.36a2.54,2.54,0,0,1,2.53-2.53h1.37a2.53,2.53,0,0,1,2.53,2.53v3.05A1,1,0,0,1,34.08,13.41Zm-3.43-2h2.43V9.36a.53.53,0,0,0-.53-.53H31.18a.53.53,0,0,0-.53.53Z"/><path class="cls-3" d="M55,8.7H52a1,1,0,0,1,0-2h3a1,1,0,1,1,0,2Z"/><path class="cls-3" d="M42.7,13.12H38.4a1,1,0,0,1,0-2h4.3c.9,0,1.67-.55,1.67-1.21a3,3,0,0,1,1.14-2.33A3.93,3.93,0,0,1,48,6.7h1.21a1,1,0,1,1,0,2H48a1.94,1.94,0,0,0-1.25.42,1.07,1.07,0,0,0-.42.79A3.47,3.47,0,0,1,42.7,13.12Z"/><path class="cls-3" d="M53.37,4.54H52a1,1,0,0,1,0-2h1.41a1,1,0,0,1,0,2Z"/><path class="cls-3" d="M41.08,9H36.77a1,1,0,1,1,0-2h4.31c.9,0,1.66-.55,1.66-1.21a3,3,0,0,1,1.14-2.33,4,4,0,0,1,2.53-.88h2.84a1,1,0,0,1,0,2H46.41A2,2,0,0,0,45.15,5a1.09,1.09,0,0,0-.41.79A3.46,3.46,0,0,1,41.08,9Z"/></svg>