<svg id="Color" xmlns="http://www.w3.org/2000/svg" viewBox="0 0 64 64"><defs><style>.cls-1{fill:#ffcd50;}.cls-2{fill:#47b2f4;}.cls-3{fill:#606060;}.cls-4{fill:#231f20;}.cls-5{fill:#e8e8e8;}.cls-6{fill:#fff;}</style></defs><path class="cls-1" d="M62.23,32s-4.47-.42-6.12-4.36a7.33,7.33,0,0,0-.88-5.31A7.39,7.39,0,0,0,52.13,18c-1.62-3.95,1.25-7.41,1.25-7.41S49.91,13.49,46,11.87a7.36,7.36,0,0,0-4.29-3.1,7.33,7.33,0,0,0-5.31-.88C32.43,6.24,32,1.77,32,1.77s-.42,4.47-4.36,6.12a7.33,7.33,0,0,0-5.31.88A7.39,7.39,0,0,0,18,11.87c-3.95,1.62-7.41-1.25-7.41-1.25s2.86,3.46,1.24,7.42a7.36,7.36,0,0,0-3.1,4.29,7.33,7.33,0,0,0-.88,5.31C6.24,31.57,1.77,32,1.77,32s4.47.42,6.12,4.36a7.33,7.33,0,0,0,.88,5.31A7.39,7.39,0,0,0,11.87,46c1.62,3.95-1.25,7.41-1.25,7.41s3.46-2.86,7.42-1.24a7.36,7.36,0,0,0,4.29,3.1,7.33,7.33,0,0,0,5.31.88C31.57,57.76,32,62.23,32,62.23s.42-4.47,4.36-6.12a7.33,7.33,0,0,0,5.31-.88A7.39,7.39,0,0,0,46,52.13c3.95-1.62,7.41,1.25,7.41,1.25S50.51,49.92,52.13,46a7.36,7.36,0,0,0,3.1-4.29,7.33,7.33,0,0,0,.88-5.31C57.76,32.43,62.23,32,62.23,32Z"/><circle class="cls-2" cx="32" cy="32" r="21.57"/><path class="cls-3" d="M26.09,34.59A8.92,8.92,0,0,0,32.4,49.84h2.34A19,19,0,0,1,32,50a18,18,0,0,1-18-18V32A18,18,0,0,1,32,14.1a16,16,0,0,1,2.08.13A8.93,8.93,0,0,1,32.6,32h-.2A8.9,8.9,0,0,0,26.09,34.59Z"/><path class="cls-4" d="M34.08,15.23H34a15.24,15.24,0,0,0-2-.12,1,1,0,0,1,0-2h.6a9.87,9.87,0,0,1,1.66.14,1,1,0,0,1-.18,2Z"/><path class="cls-5" d="M50,32v.1A18,18,0,0,1,34.74,49.84H32.4A8.94,8.94,0,0,1,32.4,32h.2a8.93,8.93,0,0,0,1.48-17.74A18,18,0,0,1,50,32Z"/><circle class="cls-6" cx="32" cy="22.97" r="3.64"/><circle class="cls-3" cx="32" cy="40.86" r="3.64"/><path class="cls-4" d="M32,51a19,19,0,0,1-19-19V32A19,19,0,0,1,32,13.1a17.31,17.31,0,0,1,2.2.14A9.93,9.93,0,0,1,32.6,33h-.2a7.94,7.94,0,1,0,0,15.87h2.34a1,1,0,0,1,.15,2A18.75,18.75,0,0,1,32,51ZM32,15.1A17,17,0,0,0,15,32v.1A17,17,0,0,0,25,47.53,9.94,9.94,0,0,1,32.4,31h.2A8,8,0,0,0,40.53,23a8,8,0,0,0-6.62-7.82A16.12,16.12,0,0,0,32,15.1Z"/><path class="cls-4" d="M34.08,15.23H34a15.24,15.24,0,0,0-2-.12,1,1,0,0,1,0-2h.6a9.87,9.87,0,0,1,1.66.14,1,1,0,0,1-.18,2Z"/><path class="cls-4" d="M34.74,50.84H32.4a9.92,9.92,0,0,1-7-17,9.82,9.82,0,0,1,7-2.92h.2A8,8,0,0,0,40.53,23a8,8,0,0,0-6.62-7.82,1,1,0,0,1,.28-2A19,19,0,0,1,51,32h0v.1A19.08,19.08,0,0,1,34.89,50.82ZM32.4,33a7.94,7.94,0,1,0,0,15.87h2.26A17.08,17.08,0,0,0,49,32.07V32a17,17,0,0,0-8-14.31A9.95,9.95,0,0,1,32.6,33Z"/><path class="cls-4" d="M32,27.61A4.64,4.64,0,1,1,36.64,23,4.64,4.64,0,0,1,32,27.61Zm0-7.28A2.64,2.64,0,1,0,34.64,23,2.64,2.64,0,0,0,32,20.33Z"/><path class="cls-4" d="M32,45.5a4.64,4.64,0,1,1,4.64-4.64A4.64,4.64,0,0,1,32,45.5Zm0-7.28a2.64,2.64,0,1,0,2.64,2.64A2.64,2.64,0,0,0,32,38.22Z"/><path class="cls-4" d="M32,54.57A22.57,22.57,0,1,1,54.57,32,22.59,22.59,0,0,1,32,54.57Zm0-43.14A20.57,20.57,0,1,0,52.57,32,20.6,20.6,0,0,0,32,11.43Z"/><path class="cls-4" d="M32,63.23h0a1,1,0,0,1-1-.91,6.84,6.84,0,0,0-3.49-5.18,8.13,8.13,0,0,1-5.57-1A8.23,8.23,0,0,1,17.4,53a6.78,6.78,0,0,0-6.14,1.19,1,1,0,0,1-1.35-.07,1,1,0,0,1-.06-1.34A6.82,6.82,0,0,0,11,46.6a8.18,8.18,0,0,1-3.2-4.54,8.19,8.19,0,0,1-1-5.57A6.8,6.8,0,0,0,1.67,33a1,1,0,0,1,0-2,6.81,6.81,0,0,0,5.17-3.49,8.19,8.19,0,0,1,1-5.57A8.23,8.23,0,0,1,11,17.4a6.78,6.78,0,0,0-1.19-6.14,1,1,0,0,1,.07-1.35,1,1,0,0,1,1.35-.06A6.78,6.78,0,0,0,17.4,11a8.18,8.18,0,0,1,4.54-3.2,8.13,8.13,0,0,1,5.57-1A6.86,6.86,0,0,0,31,1.67a1,1,0,0,1,1-.9h0a1,1,0,0,1,1,.91,6.84,6.84,0,0,0,3.49,5.18,8.13,8.13,0,0,1,5.57,1A8.18,8.18,0,0,1,46.6,11a6.81,6.81,0,0,0,6.15-1.19,1,1,0,0,1,1.34.07,1,1,0,0,1,.06,1.34A6.82,6.82,0,0,0,53,17.4a8.18,8.18,0,0,1,3.2,4.54,8.13,8.13,0,0,1,1,5.57A6.86,6.86,0,0,0,62.33,31a1,1,0,0,1,0,2,6.84,6.84,0,0,0-5.19,3.49,8.13,8.13,0,0,1-1,5.57A8.18,8.18,0,0,1,53,46.6a6.78,6.78,0,0,0,1.19,6.14,1,1,0,0,1-.07,1.35,1,1,0,0,1-1.35.06A6.78,6.78,0,0,0,46.6,53a8.23,8.23,0,0,1-4.54,3.2,8.13,8.13,0,0,1-5.57,1A6.86,6.86,0,0,0,33,62.33,1,1,0,0,1,32,63.23Zm-4.36-8.12a.88.88,0,0,1,.39.08,7.81,7.81,0,0,1,4,3.75,7.81,7.81,0,0,1,4-3.75,1,1,0,0,1,.58-.07,6.29,6.29,0,0,0,4.6-.74,1.59,1.59,0,0,1,.27-.12,6.32,6.32,0,0,0,3.71-2.69,1.08,1.08,0,0,1,.45-.37,7.85,7.85,0,0,1,5.47-.15,7.85,7.85,0,0,1,.15-5.47,1.08,1.08,0,0,1,.37-.45,6.32,6.32,0,0,0,2.69-3.71,1.59,1.59,0,0,1,.12-.27,6.29,6.29,0,0,0,.74-4.6,1,1,0,0,1,.07-.58,7.81,7.81,0,0,1,3.75-4,7.81,7.81,0,0,1-3.75-4,1,1,0,0,1-.07-.58,6.29,6.29,0,0,0-.74-4.6,1.59,1.59,0,0,1-.12-.27,6.32,6.32,0,0,0-2.69-3.71,1.08,1.08,0,0,1-.37-.45A7.85,7.85,0,0,1,51.05,13a7.85,7.85,0,0,1-5.47-.15,1.08,1.08,0,0,1-.45-.37,6.32,6.32,0,0,0-3.71-2.69,1.07,1.07,0,0,1-.27-.12,6.29,6.29,0,0,0-4.6-.74A1,1,0,0,1,36,8.81a7.81,7.81,0,0,1-4-3.75,7.81,7.81,0,0,1-4,3.75,1,1,0,0,1-.58.07,6.29,6.29,0,0,0-4.6.74,1.59,1.59,0,0,1-.27.12,6.32,6.32,0,0,0-3.71,2.69,1.08,1.08,0,0,1-.45.37A7.85,7.85,0,0,1,13,13a7.85,7.85,0,0,1-.15,5.47,1,1,0,0,1-.37.45,6.32,6.32,0,0,0-2.69,3.71,1.59,1.59,0,0,1-.12.27,6.29,6.29,0,0,0-.74,4.6,1,1,0,0,1-.07.58,7.81,7.81,0,0,1-3.75,4,7.81,7.81,0,0,1,3.75,4,1,1,0,0,1,.07.58,6.29,6.29,0,0,0,.74,4.6,1.59,1.59,0,0,1,.12.27,6.32,6.32,0,0,0,2.69,3.71,1.08,1.08,0,0,1,.37.45A7.85,7.85,0,0,1,13,51.05a7.85,7.85,0,0,1,5.47.15,1.08,1.08,0,0,1,.45.37,6.32,6.32,0,0,0,3.71,2.69,1.59,1.59,0,0,1,.27.12,6.29,6.29,0,0,0,4.6.74Z"/></svg>