<svg id="Gradient_2" data-name="Gradient 2" xmlns="http://www.w3.org/2000/svg" xmlns:xlink="http://www.w3.org/1999/xlink" viewBox="0 0 64 64"><defs><style>.cls-1{fill:url(#linear-gradient);}</style><linearGradient id="linear-gradient" x1="-194.21" y1="265.58" x2="254.6" y2="-183.23" gradientUnits="userSpaceOnUse"><stop offset="0" stop-color="#707de4"/><stop offset="0.5" stop-color="#00dbde"/><stop offset="1" stop-color="#6884e4"/></linearGradient></defs><path class="cls-1" d="M28.21,53.33A4.62,4.62,0,0,1,27.64,52V52a4.43,4.43,0,0,1-.16-1.15,4.6,4.6,0,0,1,4.59-4.59,4.55,4.55,0,0,1,4.58,4.47h0s0,.08,0,.11h0a4.59,4.59,0,0,1-8.43,2.53h0Zm3.71-28.47h.29a4.6,4.6,0,0,0,4.44-4.6,4.22,4.22,0,0,0-.09-.9h0A4.2,4.2,0,0,0,36.05,18h0v0a4.58,4.58,0,0,0-8,0h0a4.39,4.39,0,0,0-.51,1.35h0a4.61,4.61,0,0,0-.09.85v0A4.6,4.6,0,0,0,31.92,24.86ZM59.69,48.48a1.13,1.13,0,0,0,.33-1,1.15,1.15,0,0,0-.61-.85l-2.67-1.34a.5.5,0,0,1-.25-.3.5.5,0,0,1,0-.38l1.18-2.22a.17.17,0,0,0,0-.21.16.16,0,0,0-.2,0l-2.13,1.07a.5.5,0,0,1-.54-.06l-7.33-6.08a.49.49,0,0,1-.15-.24l-3.52-11a8.11,8.11,0,0,0-6.17-6c0,.12,0,.26,0,.39v0a5.61,5.61,0,0,1-3.27,5.1,5.6,5.6,0,0,1,0,10.19,5.59,5.59,0,0,1,0,10.18A5.55,5.55,0,0,1,37.59,50l6-1.92-1.82-3.53a.46.46,0,0,1-.06-.23v-7l-1-1.55a.5.5,0,0,1,.15-.69.51.51,0,0,1,.69.16l1,1.62,0,.05,3.62,5.75L53.4,46a.25.25,0,0,1,.12.08l3.77,3.28a1.14,1.14,0,0,0,1.53,0ZM10.6,46.18l7.15-3.3,3.74-5.94,0,0,.91-1.44a.49.49,0,0,1,.68-.16.49.49,0,0,1,.16.69l-.85,1.35v6.78a.46.46,0,0,1-.05.23L20.18,48.6l6.31,2.68c0-.14,0-.29,0-.43v0a5.6,5.6,0,0,1,3.28-5.09,5.59,5.59,0,0,1,0-10.18,5.6,5.6,0,0,1,0-10.19,5.62,5.62,0,0,1-3.28-5.1c0-.15,0-.29,0-.44a7.93,7.93,0,0,0-5.73,4.78c-.1.2-.18.42-.27.65L16.67,37.07a.46.46,0,0,1-.16.23L9.19,43.37a.48.48,0,0,1-.54.06L6.52,42.36a.15.15,0,0,0-.2,0,.14.14,0,0,0,0,.18l1.19,2.24a.53.53,0,0,1,0,.39.51.51,0,0,1-.25.29L4.59,46.84a1.12,1.12,0,0,0-.61.83,1.17,1.17,0,0,0,.33,1l.87.83a1.11,1.11,0,0,0,1.52,0l3.79-3.28A.28.28,0,0,1,10.6,46.18Zm21.46-1a4.59,4.59,0,1,0-4.59-4.59A4.6,4.6,0,0,0,32.06,45.23Zm-16,13.58H26.72a3.76,3.76,0,0,1-.87-2.46,3.7,3.7,0,0,1,1.28-2.88,5.39,5.39,0,0,1-.41-1l-7.43-3.16-2.22-.74-.17-.06h-.12a2.91,2.91,0,0,0-.76-.11c-2.22,0-4,2.34-4,5.2S13.81,58.81,16.05,58.81ZM27.47,30.45a4.6,4.6,0,1,0,4.74-4.59h-.29A4.61,4.61,0,0,0,27.47,30.45Zm20.6,28.36c2.25,0,4.08-2.34,4.08-5.22v-.36a5.6,5.6,0,0,0-2-4.47,3.31,3.31,0,0,0-2.93-.64l-2.79.75-6.8,2.18a5.59,5.59,0,0,1-10,3.26,2.72,2.72,0,0,0-.84,2,2.26,2.26,0,0,0,1.9,2.46Zm-16-53.63A6.79,6.79,0,0,0,25.28,12a6.71,6.71,0,0,0,2.25,5,5.58,5.58,0,0,1,9.07,0,6.7,6.7,0,0,0,2.24-5A6.79,6.79,0,0,0,32.06,5.18Z"/></svg>