<svg id="Gradient_2" data-name="Gradient 2" xmlns="http://www.w3.org/2000/svg" xmlns:xlink="http://www.w3.org/1999/xlink" viewBox="0 0 64 64"><defs><style>.cls-1{fill:url(#linear-gradient);}</style><linearGradient id="linear-gradient" x1="-165.5" y1="231.53" x2="283.31" y2="-217.28" gradientUnits="userSpaceOnUse"><stop offset="0" stop-color="#707de4"/><stop offset="0.5" stop-color="#00dbde"/><stop offset="1" stop-color="#6884e4"/></linearGradient></defs><path class="cls-1" d="M48.29,20.59a29.84,29.84,0,0,1,5.89-.88,1.5,1.5,0,0,1,1.59,1.67h0a29.73,29.73,0,0,1-1,5.25l-.24,0c-.13,0-.25,0-.37.06a2.88,2.88,0,0,0-.4.09,3.58,3.58,0,0,0-.35.09l-.39.13a3.4,3.4,0,0,0-.34.12l-.37.17-.32.15-.37.22-.29.17-.36.27-.26.2-.39.34-.2.19a6.53,6.53,0,0,0-.56.61c-4,4.73-5.89,6.92-9.2,9.05l-.81.49,0,0a2.34,2.34,0,0,0-.22.13c-.62.36-1.32.75-2.16,1.17a.52.52,0,0,0-.19.2l0,.06s0,0,0,.08l-.21,0-.68,0-.32,0-.75,0H33.53c0-.09,0-.22,0-.35a3.74,3.74,0,0,0,.25-.29A1.37,1.37,0,0,0,34,40c.17-.2.34-.4.51-.62l0,0,.13-.16.18-.23,0,0c.06-.09.14-.18.22-.29s0,0,0,0l0,0c.47-.62,1-1.38,1.54-2.23.12-.19.24-.38.35-.58l.4-.68c.13-.23.25-.46.37-.69s.31-.59.45-.89a19.58,19.58,0,0,0,.8-1.89c.15-.42.31-.87.44-1.31.07-.23.13-.47.19-.71a10.52,10.52,0,0,0,.24-1.05c.06-.33.12-.66.14-.89a2.47,2.47,0,0,0,.06-.29c0-.33.08-.67.1-1s0-.75,0-1.13c0-.18,0-.37,0-.56v-.05l.08-.07a17.34,17.34,0,0,1,1.58-1.21l.1-.06a18,18,0,0,1,1.82-1.05l.09,0a20.09,20.09,0,0,1,2-.89l.06,0C46.73,21,47.49,20.8,48.29,20.59Zm-21.6-3a20.81,20.81,0,0,0-1.2,3.26c0,.09-.06.18-.08.26a10.16,10.16,0,0,0-.22,1.07c-.05.22-.11.45-.14.67a.09.09,0,0,0,0,.05,15.42,15.42,0,0,0-.16,1.64c0,.28,0,.49,0,.73s0,.7,0,1.05.06.76.11,1.12.1.64.16,1l.06.24q.06.31.15.63c.17.66.35,1.25.55,1.81.06.19.12.34.18.49v0s0,0,0,0l.25.6a24,24,0,0,0,2.51,4.53c.18.27.34.51.53.76s.24.34.36.48a8.81,8.81,0,0,0,.58.76h0l0,0c.33.41.64.77.91,1.07l.25.28.48.51c.16-.16.38-.39.65-.69s.63-.7,1-1.14l.05-.07.14-.17a2.11,2.11,0,0,1,.19-.23l0-.06L34.3,38l.05-.06c.22-.29.45-.62.69-1s.51-.74.76-1.15c.13-.19.23-.36.34-.54s.26-.44.38-.67.25-.44.37-.66.29-.57.43-.86c.24-.52.52-1.14.76-1.8.15-.4.29-.83.42-1.26.07-.22.13-.44.19-.67s.16-.65.22-1,.12-.62.15-.93l0-.12c0-.38.08-.7.1-1s0-.71,0-1.06,0-.5,0-.75a17.51,17.51,0,0,0-.94-4.7c-.12-.37-.26-.74-.41-1.11s-.29-.75-.46-1.12a29,29,0,0,0-4.2-6.46,1.59,1.59,0,0,0-2.32,0,29,29,0,0,0-4.19,6.44ZM51,42.35a2.24,2.24,0,0,1,.75,1.59c0,3.49-10.19,5.38-19.77,5.38s-19.79-1.89-19.79-5.38a2.2,2.2,0,0,1,.75-1.58C9.85,43.56,8,45,8,46.48c0,3.35,9.61,6.94,23.92,6.94s23.92-3.59,23.92-6.94C55.88,45,54.1,43.55,51,42.35ZM32,45.51c-7.15,0-14.38-1.34-14.38-3.89a1.54,1.54,0,0,1,.07-.42H17.6c-2.77.8-4.43,1.83-4.43,2.75,0,2.07,7.72,4.38,18.79,4.38S50.73,46,50.73,43.94c0-.46-.41-.94-1.17-1.42a13.87,13.87,0,0,0-3.25-1.32,1.54,1.54,0,0,1,.07.42C46.38,44.17,39.15,45.51,32,45.51ZM8.22,21.4a31.16,31.16,0,0,0,1,5.24l.25,0,.36.06a3,3,0,0,1,.41.09l.35.09.39.13c.11,0,.22.07.33.12l.38.17.31.15.38.22.28.17.38.28c.08.07.17.12.24.19s.28.24.41.36l.19.17a8.18,8.18,0,0,1,.55.61c.5.6,1,1.14,1.41,1.66.28.34.55.65.81,1l.34.39.13.16c.18.19.35.39.52.58l.23.26.91,1a24.66,24.66,0,0,0,2.48,2.32,5.15,5.15,0,0,0,.52.43l.46.35.25.19c.34.25.71.49,1.09.74h0l.1.07.13.08c.18.11.36.23.55.33l.06,0h0l.17.11.07,0c.61.37,1.3.74,2.16,1.18a.52.52,0,0,1,.19.2l0,.06s0,0,0,.08l.19,0,.72.06h.27l.81,0h1.34c0-.12,0-.29,0-.45l-.21-.25a.93.93,0,0,1-.13-.15l-.46-.55-.06-.07a9.9,9.9,0,0,1-.61-.8c-.11-.13-.23-.3-.35-.47s-.38-.53-.57-.8a25.53,25.53,0,0,1-2.6-4.71L25.2,32s0,0,0,0h0a4.18,4.18,0,0,1-.2-.56,16.38,16.38,0,0,1-.56-1.85c-.07-.21-.12-.45-.17-.67l-.06-.26c-.06-.35-.12-.68-.17-1a11.61,11.61,0,0,1-.12-1.2c0-.36,0-.73,0-1.11,0-.18,0-.35,0-.52-.19-.17-.38-.34-.58-.5l-.09-.08c-.24-.19-.5-.38-.75-.56l-.13-.09c-.26-.18-.53-.35-.81-.52a.57.57,0,0,0-.13-.08c-.29-.17-.58-.34-.88-.49l-.12-.07-1-.47-.07,0c-.35-.15-.7-.3-1.07-.44l-.05,0L17.14,21,17,21l-.75-.22-.49-.14a30.42,30.42,0,0,0-6-.9,1.52,1.52,0,0,0-1.19.47A1.55,1.55,0,0,0,8.22,21.4ZM46.11,14a1.56,1.56,0,0,0-1.27-.06,29.41,29.41,0,0,0-6.37,3.58c.19.44.37.87.53,1.31,0,.06,0,.11.07.17.2.55.37,1.1.52,1.65,0,.18.08.37.13.55.09.38.17.75.24,1.13l.09.61c0,.16.06.32.08.48l.06-.05c.44-.34.9-.67,1.38-1l.34-.22c.49-.29,1-.58,1.52-.84l.32-.15c.55-.26,1.12-.51,1.71-.73l.06,0c.61-.23,1.24-.42,1.89-.61l.23-.07A31.39,31.39,0,0,0,46.9,15,1.52,1.52,0,0,0,46.11,14ZM44.87,41.41l-.29,0-1,.08-.91,0H41.61c-.6,0-1.15,0-1.63,0h-.13l-.58,0H39.2l-.47,0h-.09l-.93.14-.28,0-.88.09-.27,0-.58,0-.3,0-.62,0H33a.57.57,0,0,1-.23-.08l0,0a.51.51,0,0,1-.13-.16l0,0-.13.12a.49.49,0,0,1-.39.2.52.52,0,0,1-.41-.22s0,0,0,0l-.16-.15h0a.55.55,0,0,1-.14.22l0,0a.59.59,0,0,1-.26.1H29.22l-.62,0-.29,0-.59,0-.27,0-.88-.09-.28,0-.92-.13-.1,0-.45,0h-.16l-.48,0H24l-.74,0h-2l-.91,0-.93-.08-.67-.08a.53.53,0,0,0-.08.25c0,1.18,5.21,2.89,13.38,2.89s13.38-1.71,13.38-2.89a.51.51,0,0,0-.09-.26ZM61.28,29a12.51,12.51,0,0,0-6.12-1.35,6.7,6.7,0,0,0-4.1,1.74,9.48,9.48,0,0,0-.77.78c-4,4.82-6,7-9.42,9.25-.26.16-.52.33-.8.49a.19.19,0,0,1-.09.05l-.13.08c-.27.16-.54.32-.83.47h.22l.28,0h.17l.35,0h.15l.43,0H42.8l.75,0c.71-.05,1.32-.11,1.87-.2l.83-.13.44-.1c2.79-.62,4.61-1.8,5.42-3.53,2-4.23,6.56-6.17,9.12-6.95h0a.32.32,0,0,0,.25-.3A.34.34,0,0,0,61.28,29Zm-58.52.66c2.57.78,7.17,2.72,9.12,7,.81,1.71,2.59,2.9,5.32,3.51h.06l.1,0,.29.07h.05c.29.06.58.1.87.14s.6.09.9.12l.89.08.76,0h.94c.16,0,.32,0,.47,0h.83l.41,0h.17l.36,0h.17l.27,0H25l-.73-.41-.05,0-.17-.1,0,0a.3.3,0,0,1-.1-.07c-.2-.11-.38-.22-.56-.34l-.14-.08-.07,0c-.42-.28-.82-.54-1.2-.82l-.25-.19L21.19,38c-.19-.14-.37-.3-.55-.46a31.73,31.73,0,0,1-3.48-3.39c-.13-.13-.25-.28-.38-.42s-.26-.3-.4-.44l-.08-.12-.37-.42c-.27-.31-.54-.62-.82-1-.45-.52-.91-1.07-1.41-1.67a6.75,6.75,0,0,0-4.87-2.52A12.56,12.56,0,0,0,2.71,29a.34.34,0,0,0-.2.36A.32.32,0,0,0,2.76,29.62ZM18,14a1.58,1.58,0,0,0-.8,1,30.86,30.86,0,0,0-.73,4.74l.22.07a24,24,0,0,1,3.77,1.44l.18.09a17.33,17.33,0,0,1,1.64.92l.19.12A18.47,18.47,0,0,1,24,23.47c0-.17.06-.34.08-.51s0-.33.07-.49c.07-.42.16-.84.26-1.27,0-.15.07-.31.12-.47q.21-.81.51-1.65a.88.88,0,0,1,.05-.15c.18-.47.36-.94.57-1.42a29.37,29.37,0,0,0-6.36-3.58A1.56,1.56,0,0,0,18,14Z"/></svg>