<svg id="Gradient_2" data-name="Gradient 2" xmlns="http://www.w3.org/2000/svg" xmlns:xlink="http://www.w3.org/1999/xlink" viewBox="0 0 64 64"><defs><style>.cls-1{fill:url(#linear-gradient);}</style><linearGradient id="linear-gradient" x1="-221.56" y1="284.25" x2="227.25" y2="-164.55" gradientUnits="userSpaceOnUse"><stop offset="0" stop-color="#707de4"/><stop offset="0.5" stop-color="#00dbde"/><stop offset="1" stop-color="#6884e4"/></linearGradient></defs><path class="cls-1" d="M21.1,20.23c0,.13,0,.26,0,.39v-.39Zm8.39,0c0,.13,0,.26,0,.39v-.39ZM25.3,33.5A3.72,3.72,0,0,0,29,29.78V20.62c0-.12,0-.24,0-.35a3.72,3.72,0,0,0-7.4,0c0,.1,0,.22,0,.34v9.16A3.74,3.74,0,0,0,25.3,33.5Zm23.27,15a34.2,34.2,0,0,0,2.28-12.29V34.63a1.94,1.94,0,0,0-1.94-1.93H37.22a3.5,3.5,0,1,0,0,7h6.5a.5.5,0,0,1,.49.44.51.51,0,0,1-.38.55,8.31,8.31,0,0,0-6.27,7.86.51.51,0,0,1-.5.47h0a.5.5,0,0,1-.47-.53,9.11,9.11,0,0,1,4.7-7.79h-4a4.5,4.5,0,1,1,0-9h8.64V18.06a3.71,3.71,0,1,0-7.42,0v7.47a.51.51,0,0,1-.5.5.5.5,0,0,1-.5-.5V7.65A3.67,3.67,0,0,0,36.35,5,3.74,3.74,0,0,0,33,4a3.85,3.85,0,0,0-3,3.8v22A4.72,4.72,0,0,1,25.3,34.5a4.73,4.73,0,0,1-4.72-4.72V14.46a3.7,3.7,0,0,0-3.71-3.71h-.26a3.8,3.8,0,0,0-3.46,3.87V36.78a39.72,39.72,0,0,0,1.19,9.65,18,18,0,0,0,34.23,2.1Z"/></svg>