<svg id="Gradient_2" data-name="Gradient 2" xmlns="http://www.w3.org/2000/svg" xmlns:xlink="http://www.w3.org/1999/xlink" viewBox="0 0 64 64"><defs><style>.cls-1{fill:url(#linear-gradient);}</style><linearGradient id="linear-gradient" x1="-272.5" y1="339.52" x2="176.3" y2="-109.28" gradientUnits="userSpaceOnUse"><stop offset="0" stop-color="#707de4"/><stop offset="0.5" stop-color="#00dbde"/><stop offset="1" stop-color="#6884e4"/></linearGradient></defs><path class="cls-1" d="M53.34,50.42a6.5,6.5,0,0,0-3.17-.84,6.43,6.43,0,0,0-4.6,1.91,5.53,5.53,0,0,1-7.79,0l-.9-.91a6.52,6.52,0,0,0-9.21,0l-.92.92a5.52,5.52,0,0,1-7.78,0l-.6-.6a6.47,6.47,0,0,0-8.6-.53,21.7,21.7,0,0,1-2.61-5.75L9.87,41.9a5.52,5.52,0,0,1,7.79,0l.6.61a6.52,6.52,0,0,0,9.2,0l.92-.92a5.52,5.52,0,0,1,7.79,0l.9.91a6.49,6.49,0,0,0,9.2,0,5.52,5.52,0,0,1,7.79,0l2,2A21.77,21.77,0,0,1,53.34,50.42Zm3.5-11.87V32.9H6.3v5.65a21.69,21.69,0,0,0,.57,4.94l2.3-2.3a6.52,6.52,0,0,1,9.2,0l.6.61a5.53,5.53,0,0,0,7.79,0l.91-.92a6.51,6.51,0,0,1,9.21,0l.9.9a5.49,5.49,0,0,0,7.79,0,6.51,6.51,0,0,1,9.19,0l1.55,1.54A21.39,21.39,0,0,0,56.84,38.55ZM46.28,52.2a6.56,6.56,0,0,1-9.21,0l-.9-.92a5.52,5.52,0,0,0-7.79,0l-.92.92a6.54,6.54,0,0,1-9.2,0l-.6-.6a5.44,5.44,0,0,0-7.31-.39,21.88,21.88,0,0,0,17.87,9.26h6.7a21.88,21.88,0,0,0,17.85-9.23,5.44,5.44,0,0,0-6.49,1ZM59.76,29.45V27.22a2.45,2.45,0,0,0-2.45-2.45H5.82a2.45,2.45,0,0,0-2.44,2.45v2.23a2.44,2.44,0,0,0,2.44,2.44H57.31A2.44,2.44,0,0,0,59.76,29.45ZM54.5,16.22a.45.45,0,0,1,.34-.17A6.27,6.27,0,1,0,48.08,9.8a4.73,4.73,0,0,0,.07.89s0,.07,0,.1a.48.48,0,0,1-.14.34L36.39,23.77H48Z"/></svg>