<svg id="Gradient_2" data-name="Gradient 2" xmlns="http://www.w3.org/2000/svg" xmlns:xlink="http://www.w3.org/1999/xlink" viewBox="0 0 64 64"><defs><style>.cls-1{fill:url(#linear-gradient);}</style><linearGradient id="linear-gradient" x1="-68.99" y1="138.84" x2="379.81" y2="-309.96" gradientUnits="userSpaceOnUse"><stop offset="0" stop-color="#707de4"/><stop offset="0.5" stop-color="#00dbde"/><stop offset="1" stop-color="#6884e4"/></linearGradient></defs><path class="cls-1" d="M47.2,30.85H58.83M44,18.42l8.22-8.22m-32,8.22L12,10.2M32,2.05V13.67M5.17,30.85H16.8m36.58,30.3,1.92.27a2.61,2.61,0,0,0,2.94-2.22L60,46.77a2.6,2.6,0,0,0-.5-1.94,2.63,2.63,0,0,0-1.72-1l-1.92-.27a2.3,2.3,0,0,0-.37,0,2.62,2.62,0,0,0-2.58,2.24l0,.23-1.38,9.83v0l-.33,2.35a2.6,2.6,0,0,0,.5,1.94A2.63,2.63,0,0,0,53.38,61.15ZM47.29,43.38a7.63,7.63,0,0,1-3.6-4.52L38.21,20.37a2.91,2.91,0,0,0-5.71.82v7.19a2.91,2.91,0,0,1,2.17-.75,3,3,0,0,1,2.76,3.1v7.66a.5.5,0,0,1-.5.5.51.51,0,0,1-.5-.5V30.73a2.08,2.08,0,0,0-1.83-2.11,1.92,1.92,0,0,0-1.52.58,2,2,0,0,0-.58,1.38V41.49a10.07,10.07,0,0,0,3,7.17l3.5,3.5,11.62,3L51.87,46ZM12.51,55.83,11.1,45.77a2.62,2.62,0,0,0-2.58-2.24,2.3,2.3,0,0,0-.37,0l-1.92.27a2.63,2.63,0,0,0-1.72,1A2.6,2.6,0,0,0,4,46.77L5.76,59.2A2.6,2.6,0,0,0,8.7,61.42l1.92-.27a2.63,2.63,0,0,0,1.72-1,2.6,2.6,0,0,0,.5-1.94l-.33-2.35Zm16.82-28.2a2.92,2.92,0,0,1,2.17.75V21.19a2.91,2.91,0,0,0-5.71-.82L20.31,38.86a7.63,7.63,0,0,1-3.6,4.52L12.13,46l1.29,9.17,11.62-3,3.5-3.5a10.07,10.07,0,0,0,3-7.17V30.58a2,2,0,0,0-2.1-2,2.09,2.09,0,0,0-1.84,2.11v7.66a.5.5,0,0,1-.5.5.51.51,0,0,1-.5-.5V30.73A3,3,0,0,1,29.33,27.63ZM46.7,30.85a.51.51,0,0,0,.5.5H58.83a.51.51,0,0,0,.5-.5.5.5,0,0,0-.5-.5H47.2A.5.5,0,0,0,46.7,30.85ZM44,18.92a.47.47,0,0,0,.35-.15l8.22-8.21a.5.5,0,0,0,0-.71.48.48,0,0,0-.7,0l-8.22,8.22a.5.5,0,0,0,.35.85Zm-24.13-.15a.47.47,0,0,0,.35.15.5.5,0,0,0,.35-.85L12.37,9.85a.48.48,0,0,0-.7,0,.5.5,0,0,0,0,.71ZM32,14.17a.5.5,0,0,0,.5-.5V2.05a.5.5,0,0,0-.5-.5.51.51,0,0,0-.5.5V13.67A.5.5,0,0,0,32,14.17ZM5.17,31.35H16.8a.51.51,0,0,0,.5-.5.5.5,0,0,0-.5-.5H5.17a.5.5,0,0,0-.5.5A.51.51,0,0,0,5.17,31.35Z"/></svg>