<svg id="Gradient_2" data-name="Gradient 2" xmlns="http://www.w3.org/2000/svg" xmlns:xlink="http://www.w3.org/1999/xlink" viewBox="0 0 64 64"><defs><style>.cls-1{fill:url(#linear-gradient);}</style><linearGradient id="linear-gradient" x1="-123.81" y1="189.25" x2="325" y2="-259.56" gradientUnits="userSpaceOnUse"><stop offset="0" stop-color="#707de4"/><stop offset="0.5" stop-color="#00dbde"/><stop offset="1" stop-color="#6884e4"/></linearGradient></defs><path class="cls-1" d="M29.1,45.05a3.58,3.58,0,0,0,.18.32,4,4,0,0,1-.78,1.09c-.87.87-2.71.74-3.65.57a6.81,6.81,0,0,1,0-2.39l.14,0a1.88,1.88,0,0,0,.3.12l.34.13.42.13h0a4.57,4.57,0,0,0,1.11.16h.07A6.42,6.42,0,0,0,29.07,45v0A.05.05,0,0,1,29.1,45.05Zm-4.44-7.42.32-.15c.17-.07.34-.14.5-.19a2,2,0,0,1,.29-.1,3.36,3.36,0,0,1,.5-.13L26.5,37a4,4,0,0,1,.67-.06l.72,0h0v-.13a4.42,4.42,0,0,1,0-.61A1.6,1.6,0,0,1,28,36a3.93,3.93,0,0,1,.1-.44,2.58,2.58,0,0,1,.08-.26c.05-.14.1-.29.16-.44l.12-.28.08-.18a16.5,16.5,0,0,0-4.85-.95,17.93,17.93,0,0,0,.73,4.24ZM31,41.05a1.85,1.85,0,0,0,.29.13l.06,0a.76.76,0,0,0,.16.06l.25.05.3,0h.11a2.49,2.49,0,0,0,.69-.13l.19-.08a4.43,4.43,0,0,0,2.15-3.58h0a4.83,4.83,0,0,0,0-.67,5.45,5.45,0,0,0-.81-2.51,18.4,18.4,0,0,0-2.34-3.25,18.73,18.73,0,0,0-2.39,3.34,5.41,5.41,0,0,0-.76,2.42,4.63,4.63,0,0,0,0,.65A4.43,4.43,0,0,0,31,41.05Zm-.43,2.08a2.35,2.35,0,0,0,.33-.3l.12-.12a2.72,2.72,0,0,0,.32-.46h0l-.07,0h0L31,42.15h0a3.49,3.49,0,0,1-.44-.2,3.88,3.88,0,0,1-.48-.3l-.15-.13a3.47,3.47,0,0,1-.29-.25l-.16-.18a3.08,3.08,0,0,1-.24-.27l-.15-.21a3.13,3.13,0,0,1-.2-.3c-.05-.07-.09-.16-.14-.24l-.16-.32-.12-.26c0-.12-.09-.23-.13-.35l-.09-.28c0-.12-.07-.24-.1-.37l-.06-.3A1,1,0,0,1,28,38h-.1a6.3,6.3,0,0,0-.75,0,6,6,0,0,0-2.76.93,19.6,19.6,0,0,0-3,2.21,18.23,18.23,0,0,0,3.33,2.39l.32.16.36.17a6.14,6.14,0,0,0,1.23.39,3.2,3.2,0,0,0,.52,0,5.93,5.93,0,0,0,2.07-.36,4.46,4.46,0,0,0,.63-.28c.19-.11.37-.23.54-.35Zm5.2-8.29c.06.15.12.3.17.45l.09.27c0,.16.08.31.11.46s0,.14,0,.21a3.52,3.52,0,0,1,.06.63V37h0A6.74,6.74,0,0,1,37,37a4.44,4.44,0,0,1,.62,0l.21,0,.47.11.25.09a4.43,4.43,0,0,1,.47.17l.27.11.17.08a18.79,18.79,0,0,0,.68-4.11,17.3,17.3,0,0,0-4.64.87c0,.06.05.12.08.19S35.71,34.74,35.75,34.84ZM50.24,21.48v.29a4.94,4.94,0,0,0-.66.53,4.23,4.23,0,0,0-1.24,3V42.7a16.34,16.34,0,1,1-32.68,0V25.31a4.23,4.23,0,0,0-1.24-3,4.94,4.94,0,0,0-.66-.53v-.29a3.25,3.25,0,1,1,6.49,0v5.68a.5.5,0,0,0,1,0v-14A3.26,3.26,0,0,1,24.5,9.93a3.2,3.2,0,0,1,2.3,1,3.24,3.24,0,0,1,.95,2.3v9a.51.51,0,0,0,.5.5.5.5,0,0,0,.5-.5v-14a3.25,3.25,0,1,1,6.5,0v14a.5.5,0,0,0,.5.5.51.51,0,0,0,.5-.5v-9a3.25,3.25,0,0,1,5.54-2.3,3.21,3.21,0,0,1,1,2.3v14a.5.5,0,0,0,1,0V21.48a3.25,3.25,0,1,1,6.49,0ZM44,41.09a.47.47,0,0,0-.15-.35,20.47,20.47,0,0,0-3.5-2.66A19.48,19.48,0,0,0,41.2,33a.5.5,0,0,0-.14-.36.46.46,0,0,0-.36-.14,18.38,18.38,0,0,0-5.64,1A20.4,20.4,0,0,0,32.43,30a.5.5,0,0,0-.36-.16h0a.48.48,0,0,0-.36.16A20.75,20.75,0,0,0,29,33.56a17.91,17.91,0,0,0-5.83-1.09.45.45,0,0,0-.36.14.51.51,0,0,0-.15.36,19.17,19.17,0,0,0,.86,5.27,20,20,0,0,0-3.23,2.5.47.47,0,0,0-.15.35.48.48,0,0,0,.15.36,20.75,20.75,0,0,0,3.59,2.71,7.94,7.94,0,0,0,0,3.41.53.53,0,0,0,.37.37,9,9,0,0,0,1.91.22,4.2,4.2,0,0,0,3-1,4.74,4.74,0,0,0,.79-1,8.4,8.4,0,0,0,1.87,1.2.47.47,0,0,0,.42,0,8.21,8.21,0,0,0,2-1.32,5.08,5.08,0,0,0,.87,1.17,4.15,4.15,0,0,0,3,1A9.13,9.13,0,0,0,40,48a.5.5,0,0,0,.36-.37,7.53,7.53,0,0,0,0-3.5,20.57,20.57,0,0,0,3.48-2.65A.48.48,0,0,0,44,41.09Zm-10.77,3L33.09,44a4.51,4.51,0,0,1-.51-.47l-.09-.08a4.6,4.6,0,0,1-.38-.52,4.29,4.29,0,0,1-.36.48l-.06.06a3.71,3.71,0,0,1-.5.47L31,44a5.86,5.86,0,0,1-.69.45l-.32.16a2,2,0,0,0,.22.35,6.43,6.43,0,0,0,1.83,1.35A5.65,5.65,0,0,0,34,44.84h0a1.27,1.27,0,0,0,.12-.23L34,44.55A5.39,5.39,0,0,1,33.27,44.1ZM37.58,38A2.59,2.59,0,0,0,37,38a6.91,6.91,0,0,0-.81,0l-.11,0,0,.19c0,.11-.05.21-.07.32l-.1.37-.1.3c0,.12-.09.23-.14.35l-.12.27-.18.33-.14.25-.21.29-.16.22a3.31,3.31,0,0,1-.26.27l-.17.18a2.34,2.34,0,0,1-.31.24l-.16.13a3.2,3.2,0,0,1-.51.29,1.34,1.34,0,0,1-.3.12,2.29,2.29,0,0,1-.28.09v0l.06.08a2.7,2.7,0,0,0,.29.4,1.85,1.85,0,0,0,.14.14,3.39,3.39,0,0,0,.34.31l.16.12a4.74,4.74,0,0,0,.58.36,4.43,4.43,0,0,0,.45.2,6,6,0,0,0,2.13.38,5.56,5.56,0,0,0,2.53-.81,18.12,18.12,0,0,0,3.23-2.34,19.18,19.18,0,0,0-3.26-2.35A6.49,6.49,0,0,0,37.58,38Zm1.77,6.65-.31.13-.34.13-.45.15h0a4.78,4.78,0,0,1-1.19.18H37A6.49,6.49,0,0,1,35.07,45a2,2,0,0,1-.1.21,3.86,3.86,0,0,0,.89,1.31c.86.87,2.7.74,3.64.57a6.69,6.69,0,0,0,0-2.47Z"/></svg>