<svg id="Gradient_2" data-name="Gradient 2" xmlns="http://www.w3.org/2000/svg" xmlns:xlink="http://www.w3.org/1999/xlink" viewBox="0 0 64 64"><defs><style>.cls-1{fill:url(#linear-gradient);}</style><linearGradient id="linear-gradient" x1="-173.66" y1="248.18" x2="275.15" y2="-200.62" gradientUnits="userSpaceOnUse"><stop offset="0" stop-color="#707de4"/><stop offset="0.5" stop-color="#00dbde"/><stop offset="1" stop-color="#6884e4"/></linearGradient></defs><path class="cls-1" d="M26.85,12c0-2.92,5.28-8.72,5.28-8.72s5.28,5.8,5.28,8.72a5.28,5.28,0,1,1-10.56,0ZM42.32,43.35A9.85,9.85,0,0,0,33,50a8.63,8.63,0,0,0-.32,1.21c0,.07,0,.14,0,.21a9.81,9.81,0,0,0-.14,1.2.28.28,0,0,1,0,.09h12a9.83,9.83,0,0,0,9.81-9.32h-12ZM31.48,52.58a9.81,9.81,0,0,0-.14-1.2c0-.07,0-.14-.05-.21A8.28,8.28,0,0,0,31,50a9.86,9.86,0,0,0-9.29-6.61h-12a9.82,9.82,0,0,0,9.8,9.32h12ZM44.15,20.42h-24a2.39,2.39,0,0,0-2.37,2.38,2.38,2.38,0,0,0,2.37,2.37H32a.5.5,0,0,1,.5.5v4.88a2.26,2.26,0,1,0,4.51,0V25.67a.51.51,0,0,1,.5-.5h1a.5.5,0,0,1,.5.5v8.52a3.05,3.05,0,0,0,3,3.05,2.9,2.9,0,0,0,1.43-.37,3,3,0,0,0,1.6-2.68V25.28a.48.48,0,0,1,.26-.43,2.29,2.29,0,0,0,.48-.37,2.34,2.34,0,0,0,.69-1.68A2.38,2.38,0,0,0,44.15,20.42ZM21,26.17V42.35h.65a10.86,10.86,0,0,1,10.24,7.28,2.76,2.76,0,0,1,.08.27l.09-.27a10.86,10.86,0,0,1,10.23-7.28h.91V38.06l-.07,0-.38.08-.16,0a3.43,3.43,0,0,1-.56.05,4.06,4.06,0,0,1-4-4.05V30.55a3.26,3.26,0,1,1-6.51,0V26.17ZM6.48,53.67a7,7,0,0,0,7,6.52h37a7,7,0,0,0,7-6.52h-51Z"/></svg>