<svg id="Gradient_2" data-name="Gradient 2" xmlns="http://www.w3.org/2000/svg" xmlns:xlink="http://www.w3.org/1999/xlink" viewBox="0 0 64 64"><defs><style>.cls-1{fill:url(#linear-gradient);}</style><linearGradient id="linear-gradient" x1="-228.31" y1="299.75" x2="220.5" y2="-149.06" gradientUnits="userSpaceOnUse"><stop offset="0" stop-color="#707de4"/><stop offset="0.5" stop-color="#00dbde"/><stop offset="1" stop-color="#6884e4"/></linearGradient></defs><path class="cls-1" d="M16.62,23.41c0-2.44,3.22-4.74,8.22-5.9l.35.17.41.2.46.19.43.17.49.17.46.15.51.13c.15,0,.31.09.47.12l.55.11.47.1.61.08c.15,0,.29,0,.44.06s.46,0,.7.06.25,0,.38,0c.36,0,.73,0,1.1,0H34.6l.89,0,.48,0,.68-.05.45-.06.56-.07c.14,0,.28-.06.42-.09l.46-.1c.13,0,.26-.08.39-.12l.39-.14a2.72,2.72,0,0,0,.35-.16l.34-.17.31-.2.22-.14c4.17,1.25,6.75,3.35,6.75,5.51,0,1.55-1.31,3.08-3.68,4.3A26.64,26.64,0,0,1,32,30.09c-.78,0-1.55,0-2.3-.08s-1.5-.13-2.22-.23c-.44-.06-.86-.13-1.28-.21a23.9,23.9,0,0,1-3.71-1l-.18-.06a17.47,17.47,0,0,1-2.25-1,9,9,0,0,1-2.34-1.75h0A3.6,3.6,0,0,1,16.62,23.41ZM14.55,39.06h0l.16.12a2.76,2.76,0,0,1,.22.17c.69.55,1.63,1.3,10.36,2.89a64.19,64.19,0,0,0,19.62.19H45l.59,0a6.81,6.81,0,0,0,.56-13.6l-2.23-.18c-.2.1-.43.19-.64.28s-.33.16-.51.23l-.76.29-.56.2-.82.25-.6.17c-.29.08-.58.14-.88.21l-.63.14c-.3.07-.62.12-.93.17l-.64.11-1,.13-.63.07c-.37,0-.75.06-1.13.09l-.54,0c-.57,0-1.14,0-1.71,0l-1.21,0-.39,0-.8,0-.45,0-.72-.06-.47-.06-.67-.08-.48-.08-.63-.1-.48-.09-.6-.12-.46-.11L24,30.14,23.57,30,23,29.86l-.43-.14-.52-.17-.41-.16-.49-.18L20.79,29l-.46-.2L20,28.65l-.43-.21-.33-.2L18.82,28l-.32-.21-.35-.24-.28-.23-.31-.25-.26-.24-.17-.16a6.75,6.75,0,0,0-5.61,6.14A6.82,6.82,0,0,0,14.55,39.06ZM41.77,10.22a3.87,3.87,0,0,1,.5,3.78h0a9.31,9.31,0,0,1-2.15,3c-1.38,1.14-3.33,1.32-7.45,1.32q-.54,0-1.05,0c-.41,0-.8-.06-1.19-.1a14.73,14.73,0,0,1-5.21-1.57l-.07,0h0c-2.29-1.24-3.6-3-3.6-4.81,0-3.61,5-6.55,11.12-6.55A11.07,11.07,0,0,1,41.77,10.22ZM39.53,11.6A6.82,6.82,0,0,0,34,7.09a.5.5,0,0,0-.58.4.49.49,0,0,0,.4.58,5.86,5.86,0,0,1,4.73,3.8.49.49,0,0,0,.48.36.3.3,0,0,0,.13,0A.5.5,0,0,0,39.53,11.6ZM3.91,48.19C3.91,45.08,7.74,42,14.18,40l.13.1c.81.65,1.82,1.46,10.81,3.09.82.15,1.64.27,2.45.37l.64.08c.7.08,1.4.16,2.08.21l.32,0c.78.06,1.54.1,2.29.13l.54,0,1.82,0h.84l1.14,0h.24l1.21,0,.37,0c.36,0,.71,0,1-.06h.26l.85-.07.32,0,.83-.08.26,0,.55-.06.24,0,.55-.07.21,0,.29,0,.17,0,.23,0H45l.6,0a8.49,8.49,0,0,0,.88-.05l.29,0,.57-.1.34-.1.5-.15.35-.14.45-.19.35-.19.41-.23.33-.23c.13-.09.26-.18.38-.28a4,4,0,0,0,.31-.27l.34-.31.29-.31.19-.2c5.86,2.19,9,5,8.43,7.43-2.55,10.83-10.91,10.8-24.76,10.73H32C16.75,58.8,3.91,53.94,3.91,48.19Zm36.52,6.69a.49.49,0,0,0,.39.59,23.18,23.18,0,0,0,4.58.5c6.31,0,8.43-3.24,8.54-3.41a.5.5,0,0,0-.85-.53S50.2,56.34,41,54.49A.5.5,0,0,0,40.43,54.88Z"/></svg>