<svg id="Gradient_2" data-name="Gradient 2" xmlns="http://www.w3.org/2000/svg" xmlns:xlink="http://www.w3.org/1999/xlink" viewBox="0 0 64 64"><defs><style>.cls-1{fill:url(#linear-gradient);}</style><linearGradient id="linear-gradient" x1="-26.3" y1="94.72" x2="422.51" y2="-354.09" gradientUnits="userSpaceOnUse"><stop offset="0" stop-color="#707de4"/><stop offset="0.5" stop-color="#00dbde"/><stop offset="1" stop-color="#6884e4"/></linearGradient></defs><path class="cls-1" d="M13.19,42.37a.48.48,0,0,0,.44.54,21.34,21.34,0,0,1,3,2.19H14a6.32,6.32,0,0,1-6.29-5.81h3.59a6,6,0,0,1,2.25.42,6.41,6.41,0,0,1,2.22,1.43,5.52,5.52,0,0,1,.38.43,6.9,6.9,0,0,1,.6.85c.06.1.1.21.15.31a5,5,0,0,1,.29.62c0,.12.08.25.12.38a6.06,6.06,0,0,1,.16.61s0,.07,0,.11c-1.56-1.26-3.21-2.49-3.72-2.53A.52.52,0,0,0,13.19,42.37Zm1.6-3.16c.15.08.3.15.44.24l.11.08.14.1c.12.09.25.17.36.26l.26.22.28.25.08-.12a10.64,10.64,0,0,1,.7-1.15l.32-.44c.16-.2.32-.38.48-.55s.3-.34.45-.49.61-.56.94-.83a1.27,1.27,0,0,1,.12-.1l-.11-.15-.24-.32L19,36c-2.65.85-4.31,1.9-4.68,2.94l.08.05.2.09ZM50,39.39C50,38.21,48.24,37,45.27,36l-.2.27-.28.38c-.1.13-.2.26-.31.38a4.16,4.16,0,0,1-.32.39l-.31.35-.36.38-.31.31c-.13.12-.26.25-.39.36l-.33.29-.41.34-.34.26-.43.32-.37.24-.44.29-.38.22-.45.26-.41.2-.46.23-.43.18-.46.19-.46.16-.45.16-.49.14-.44.13-.53.11c-.14,0-.28.07-.43.09a5.62,5.62,0,0,1-.57.09l-.4.07-.65.06-.33,0c-.33,0-.67,0-1,0s-.85,0-1.27-.05l-.42,0-.84-.1-.49-.1c-.25,0-.5-.09-.75-.15l-.52-.15-.53-.14c-.18.21-.37.41-.56.6a10.5,10.5,0,0,1-1.19,1l-.19.15-.16.12a56.46,56.46,0,0,0,6.89.41C42.65,44.48,50,41.8,50,39.39Zm-26.7.93a51.21,51.21,0,0,0-5,3.44c0,.15.08.29.11.44s0,.28.06.42,0,.32.06.48h.18a10.25,10.25,0,0,0,7.29-3,7.68,7.68,0,0,0,.71-.79,10.19,10.19,0,0,0,2.2-5c0-.32.08-.65.1-1H26.42a10.28,10.28,0,0,0-6,1.88,12.07,12.07,0,0,0-1.35,1.14c-.14.14-.27.29-.4.43l-.44.52-.31.42c-.17.24-.34.51-.5.78l-.14.28c-.08.14-.15.29-.23.45.14.18.25.37.37.56s.13.18.19.28.23.47.34.71c1.55-1.27,4.62-3.18,4.77-3.27a.5.5,0,0,1,.53.85Zm23.88-8h0a1.72,1.72,0,0,1-.07.21h2.95a5.87,5.87,0,0,0,1.65-.22A6.52,6.52,0,0,0,56.58,26a6.54,6.54,0,0,0-6.53-6.53H48.1v2.85h2.07a3.68,3.68,0,1,1,0,7.35H47.86a14.85,14.85,0,0,1-.47,2C47.33,31.85,47.26,32.07,47.18,32.29Zm-1.28.53h0a11.57,11.57,0,0,0,.52-1.46A13.31,13.31,0,0,0,47,29.09c0-.16,0-.32,0-.48-2.45,1.7-8.68,2.59-14.87,2.59s-12.42-.89-14.87-2.59a15.45,15.45,0,0,0,.54,2.69l.21.6c0,.13.08.26.13.39a15.29,15.29,0,0,0,1.45,2.85h0q.28.43.6.84a.39.39,0,0,1,.08.1l.19-.11.31-.19.43-.23.32-.16.44-.2.33-.14.46-.16.34-.11.47-.13.34-.09.49-.1.33,0,.56-.07.28,0c.28,0,.56,0,.85,0h3.14a.5.5,0,0,1,.5.5c0,.31,0,.62,0,.93,0,.1,0,.2,0,.3a6,6,0,0,1-.08.61c0,.12,0,.24-.07.36s-.07.36-.11.54l-.11.38-.15.51c-.05.12-.09.25-.14.37s-.13.32-.2.48-.1.25-.16.37l-.24.46a3.9,3.9,0,0,1-.19.35c-.09.16-.18.31-.28.46l-.21.32-.06.09.28.09.44.11.7.14.44.08c.25,0,.51.07.77.09l.37,0c.38,0,.76.05,1.15.05a14.87,14.87,0,0,0,12.51-6.77,14.06,14.06,0,0,0,1.26-2.33ZM47.1,27c0-1.34-5.7-3.22-15-3.22s-15,1.88-15,3.22h0c0,1.34,5.7,3.22,15,3.22s15-1.88,15-3.22ZM32,50.84c15.84,0,29.22-4.64,29.22-10.14,0-2.76-3.42-5.46-9.4-7.41l-.51.1-.31.06a7.46,7.46,0,0,1-1,.06H46.69c-.1.22-.22.44-.33.65s-.13.28-.2.41-.23.38-.35.57C49.15,36.26,51,37.75,51,39.39c0,4-9.74,6.09-18.9,6.09a56,56,0,0,1-8.27-.59,11.18,11.18,0,0,1-5.08,1.21H14a7.31,7.31,0,0,1-7.31-7.31.51.51,0,0,1,.5-.5h4.11a7.1,7.1,0,0,1,2.07.31c.49-1.34,2.23-2.52,5.07-3.47l-.23-.38L18,34.42c-.11-.21-.22-.42-.32-.63l-.18-.39-.25-.6-.15-.42c0-.12-.09-.23-.13-.35C8.21,33.88,2.78,37.19,2.78,40.7,2.78,46.2,16.16,50.84,32,50.84ZM17.16,25.41c2.38-1.75,8.7-2.66,15-2.66s12.59.91,15,2.66V18l-.27.17-.16.11c-.2.11-.42.23-.66.34l-.17.07c-.18.08-.37.16-.58.23l-.41.15-.38.12-.6.18-.1,0A47.74,47.74,0,0,1,32.13,20.6a47.77,47.77,0,0,1-11.65-1.25l-.08,0-.61-.18L19.42,19,19,18.88l-.56-.23-.19-.07c-.23-.11-.45-.23-.65-.34l-.16-.11L17.16,18Zm0-9c0,1.35,5.69,3.22,15,3.22s15-1.87,15-3.22-5.69-3.22-15-3.22S17.16,15,17.16,16.38Z"/></svg>