<svg id="Gradient_2" data-name="Gradient 2" xmlns="http://www.w3.org/2000/svg" xmlns:xlink="http://www.w3.org/1999/xlink" viewBox="0 0 64 64"><defs><style>.cls-1{fill:url(#linear-gradient);}</style><linearGradient id="linear-gradient" x1="-82.56" y1="143.67" x2="366.24" y2="-305.14" gradientUnits="userSpaceOnUse"><stop offset="0" stop-color="#707de4"/><stop offset="0.5" stop-color="#00dbde"/><stop offset="1" stop-color="#6884e4"/></linearGradient></defs><path class="cls-1" d="M33.51,4V6.17H30.8V4a.56.56,0,0,1,.57-.56h1.57A.56.56,0,0,1,33.51,4ZM30.8,22.68a1.36,1.36,0,0,0,2.71,0V7.17H30.8Zm7.52-.78a1.34,1.34,0,0,0,.14,1,1.42,1.42,0,0,0,.83.65,1.38,1.38,0,0,0,1.66-1l4-15-2.62-.7Zm7-18-1.52-.41a.64.64,0,0,0-.43.06.57.57,0,0,0-.27.34L42.59,6l2.62.7.56-2.08A.58.58,0,0,0,45.36,3.87Zm-24.58,2-.62-2.07a.56.56,0,0,0-.54-.39.52.52,0,0,0-.17,0l-1.51.45a.72.72,0,0,0-.34.28.56.56,0,0,0,0,.42l.62,2.08,1.3-.4Zm4.76,15.81L21.07,6.87l-1.3.4-1.3.38,4.47,14.86a1.35,1.35,0,0,0,1.3,1,1.37,1.37,0,0,0,1.19-.71A1.39,1.39,0,0,0,25.54,21.72ZM41.46,43.77a2.61,2.61,0,1,0,2.61,2.6A2.6,2.6,0,0,0,41.46,43.77Zm1.39,11.65-.46.22-.6.29-.65.28c-.21.08-.41.18-.61.25l-.71.24-.62.21-.75.21-.61.16-.8.17-.61.13-.87.12a5.4,5.4,0,0,1-.58.08c-.32,0-.65.06-1,.09l-.5,0c-.49,0-1,0-1.5,0s-1,0-1.45,0l-.48,0c-.32,0-.63,0-.94-.08l-.57-.07-.83-.12-.6-.12-.77-.15-.59-.16L25,57l-.6-.19-.69-.22-.58-.24-.67-.26L22,55.8c-.15-.07-.31-.13-.45-.21a1.63,1.63,0,0,0-.3.89c0,2,4.43,4.06,11,4.06s11-2.09,11-4.06A1.73,1.73,0,0,0,42.85,55.42Zm-.14-1.07A22.07,22.07,0,0,1,32,57c-.48,0-.95,0-1.42,0s-1.08-.08-1.61-.14a23.15,23.15,0,0,1-5-1.19,20.93,20.93,0,0,1-2.36-1.06,14.18,14.18,0,0,1-5-4.15,8.86,8.86,0,0,1-1.77-5.23c0-3.6,2.32-6.93,6.38-9.19.17.08.35.16.54.23a28.7,28.7,0,0,0,10.41,1.73,29,29,0,0,0,10.19-1.64l.58-.25c4,2.25,6.24,5.56,6.24,9.12S46.82,52.09,42.71,54.35Zm-16.09-8A3.61,3.61,0,1,0,23,50,3.61,3.61,0,0,0,26.62,46.37Zm9.23,0A3.61,3.61,0,1,0,32.24,50,3.61,3.61,0,0,0,35.85,46.37Zm9.22,0A3.61,3.61,0,1,0,41.46,50,3.61,3.61,0,0,0,45.07,46.37ZM23,43.77a2.61,2.61,0,1,0,2.61,2.6A2.6,2.6,0,0,0,23,43.77Zm9.23,0a2.61,2.61,0,1,0,2.61,2.6A2.6,2.6,0,0,0,32.24,43.77ZM31.66,34V30.67a29.07,29.07,0,0,0-4.22.35l.82,2.7A32.28,32.28,0,0,0,31.66,34Zm8.69-1.63c0-.29-.87-.77-2.58-1.14l-.64,2.39c.45-.09.86-.17,1.24-.27C40,32.85,40.35,32.4,40.35,32.32Zm-7.69-2.65A33.5,33.5,0,0,1,37,30l.52-1.92a34.33,34.33,0,0,0-4.9-.4Zm0,4.28a32.47,32.47,0,0,0,3.4-.23L36.78,31a29.42,29.42,0,0,0-4.12-.34ZM24,32.32c0,.08.31.51,1.86,1l1.34.3-.71-2.37C24.8,31.58,24,32,24,32.32Zm-1.84,2.94a27.67,27.67,0,0,0,10,1.65A28.39,28.39,0,0,0,42,35.34l.76-.33c1.71-.81,2.65-1.77,2.65-2.69,0-1.55-2.59-3.18-6.85-4L38,30.22c1.86.4,3.32,1.06,3.32,2.1,0,.82-.89,1.45-2.73,2a16.6,16.6,0,0,1-2.13.39l0,0h0a31.09,31.09,0,0,1-4.26.28,26.38,26.38,0,0,1-6.6-.72c-1.75-.5-2.6-1.12-2.6-1.91,0-1,1.4-1.67,3.21-2.06l-.58-1.93c-4.15.84-6.67,2.45-6.67,4,0,.88.88,1.82,2.49,2.63Zm9.54-7.55a35,35,0,0,0-5.08.43l.57,1.91a33.86,33.86,0,0,1,4.51-.38Z"/></svg>