<svg id="Gradient_2" data-name="Gradient 2" xmlns="http://www.w3.org/2000/svg" xmlns:xlink="http://www.w3.org/1999/xlink" viewBox="0 0 64 64"><defs><style>.cls-1{fill:url(#linear-gradient);}</style><linearGradient id="linear-gradient" x1="-132.16" y1="202.85" x2="316.64" y2="-245.95" gradientUnits="userSpaceOnUse"><stop offset="0" stop-color="#707de4"/><stop offset="0.5" stop-color="#00dbde"/><stop offset="1" stop-color="#6884e4"/></linearGradient></defs><path class="cls-1" d="M54.69,24H36.19V18.22h3.36a.41.41,0,0,0,.19,0h11.4a.45.45,0,0,0,.2,0h3.35ZM48.86,54.33V25H42V54.33a8.53,8.53,0,0,0,1.4,4.7l.81,1.22h2.41L47.45,59A8.45,8.45,0,0,0,48.86,54.33ZM45.54,2.88h-.2A5.11,5.11,0,0,0,40.24,8v9.24h10.4V8A5.11,5.11,0,0,0,45.54,2.88Zm-29.84,16c0,.09.12.27.39.44,1.09.75,3.7,1.25,6.5,1.25s5.4-.5,6.49-1.23c.26-.17.41-.34.41-.46,0-.57-2.44-1.68-6.9-1.68S15.7,18.34,15.7,18.91Zm8.16,24.41A6.79,6.79,0,0,0,23.58,45a.27.27,0,0,1,0,.13V47.7A6.7,6.7,0,0,0,29.75,41V38.59a6.61,6.61,0,0,0-2.73.82A6.74,6.74,0,0,0,23.86,43.32Zm.47-2.94.12-.13a6.6,6.6,0,0,1,.69-.71,3.11,3.11,0,0,1,.28-.23,7,7,0,0,1,.7-.51c.07,0,.12-.1.19-.14s0-.33,0-.49c0-2.87-2.39-5.36-3.27-6.18-.87.82-3.27,3.31-3.27,6.18a4,4,0,0,0,0,.49l.18.14a5.11,5.11,0,0,1,.71.51,3.11,3.11,0,0,1,.28.23,7.82,7.82,0,0,1,.7.71l.11.12a7.76,7.76,0,0,1,.67,1c.05.09.09.19.14.28a7,7,0,0,1,.38.78c0,.06.06.12.08.18l.09-.18a7,7,0,0,1,.37-.78c.05-.09.09-.19.15-.28A6.89,6.89,0,0,1,24.33,40.38ZM22.54,45a6.69,6.69,0,0,0-6.18-6.42V41a6.71,6.71,0,0,0,6.2,6.67V45.13A.5.5,0,0,1,22.54,45Zm13.34-9.35V57.58a3.55,3.55,0,0,1-3.54,3.54H12.85a3.55,3.55,0,0,1-3.54-3.54V35.66a13.19,13.19,0,0,1,4-9.51,9.8,9.8,0,0,0,2.93-5.58l.36.15.18.07c.22.08.46.15.72.22l.16,0,.64.15.31.06.58.09.35,0,.61.07.37,0,.69,0h.33c.34,0,.7,0,1.05,0s.71,0,1.06,0H24l.68,0,.37,0,.6-.06.37-.05.55-.1.33-.06.56-.13.25-.06.69-.21.23-.09.33-.13a9.65,9.65,0,0,0,2.86,5.5l.19.18A13.24,13.24,0,0,1,35.88,35.66Zm-5.13,2.41a.5.5,0,0,0-.5-.5,7.69,7.69,0,0,0-2.92.59c0-4-3.79-7.1-3.95-7.23a.5.5,0,0,0-.63,0c-.16.13-4,3.26-4,7.23a7.74,7.74,0,0,0-2.93-.59.51.51,0,0,0-.5.5v3a7.7,7.7,0,0,0,15.39,0Z"/></svg>