<svg id="Gradient_2" data-name="Gradient 2" xmlns="http://www.w3.org/2000/svg" xmlns:xlink="http://www.w3.org/1999/xlink" viewBox="0 0 64 64"><defs><style>.cls-1{fill:url(#linear-gradient);}</style><linearGradient id="linear-gradient" x1="-246.51" y1="319.48" x2="202.29" y2="-129.32" gradientUnits="userSpaceOnUse"><stop offset="0" stop-color="#707de4"/><stop offset="0.5" stop-color="#00dbde"/><stop offset="1" stop-color="#6884e4"/></linearGradient></defs><path class="cls-1" d="M41.81,59.73A2.22,2.22,0,0,1,39.58,62H24.38a2.23,2.23,0,0,1,0-4.45h15.2A2.23,2.23,0,0,1,41.81,59.73ZM22.84,57H41.12a13.18,13.18,0,0,0,9.39-3.89,13.53,13.53,0,0,0,1.41-1.7H12A13.18,13.18,0,0,0,22.84,57ZM29.6,16.76v4.59a9.33,9.33,0,0,1-4.68,8.11H39.16a9.32,9.32,0,0,1-4.67-8.11V16.76ZM49.74,33.64a13.11,13.11,0,0,0-7.93-3.16l-.12,0H22.39l-.09,0h0a13.08,13.08,0,0,0-8,3.16ZM54.4,43.73q0,.45,0,.9l0,.3-.06.59-.06.36-.09.52-.09.37c0,.17-.07.33-.12.5s-.08.24-.11.37-.1.32-.16.48-.09.24-.14.37-.11.3-.18.45-.11.25-.17.37a3.55,3.55,0,0,1-.21.44c-.06.12-.12.24-.19.36l-.17.3H11.37c0-.1-.11-.2-.17-.3s-.13-.24-.19-.37l-.21-.43-.17-.38-.18-.45c0-.12-.09-.25-.14-.38l-.15-.47c0-.12-.08-.25-.11-.38s-.08-.32-.12-.49l-.09-.37c0-.18-.06-.35-.09-.53l-.06-.35c0-.19,0-.39-.06-.59l0-.3c0-.3,0-.59,0-.89s0-.86.06-1.29c0-.12,0-.25,0-.37,0-.3.08-.6.13-.89l.09-.37c.07-.29.13-.58.21-.86,0-.11.08-.21.11-.32.1-.29.19-.59.31-.88l.12-.26c.13-.3.26-.6.41-.89l.15-.25c.15-.28.31-.56.49-.84l.21-.29c.17-.25.34-.49.52-.72s.25-.29.37-.43l.38-.43h37.6c.13.14.26.29.38.44s.27.29.39.45.27.36.4.54.23.32.34.49.23.38.34.57.2.34.29.51.19.41.29.62.17.34.24.52l.23.66c.06.18.13.35.18.53s.12.48.18.72l.12.5c.05.27.08.55.12.83l.06.43C54.38,42.87,54.4,43.3,54.4,43.73ZM37.18,42.52c0-3.26-4.74-5.77-4.94-5.87a.47.47,0,0,0-.46,0c-.2.1-4.94,2.61-4.94,5.87s2.32,5.93,5.17,5.93S37.18,45.79,37.18,42.52ZM32,37.66c-.9.52-4.17,2.56-4.17,4.86a4.7,4.7,0,0,0,3.67,4.87V42.52a.5.5,0,0,1,1,0v4.87a4.7,4.7,0,0,0,3.67-4.87C36.18,40.44,33.36,38.42,32,37.66ZM44.44,2.55A11.23,11.23,0,0,0,33.2,13.3h2a11.21,11.21,0,0,0,8-3.3,11.19,11.19,0,0,0,3.28-7.45ZM51.14,10a11.19,11.19,0,0,0,3.28-7.45h-7a12.2,12.2,0,0,1-3.57,8.16A12.42,12.42,0,0,1,40,13.3h3.16A11.21,11.21,0,0,0,51.14,10Z"/></svg>