<svg id="Gradient_2" data-name="Gradient 2" xmlns="http://www.w3.org/2000/svg" xmlns:xlink="http://www.w3.org/1999/xlink" viewBox="0 0 64 64"><defs><style>.cls-1{fill:url(#linear-gradient);}</style><linearGradient id="linear-gradient" x1="-186.9" y1="254.33" x2="261.9" y2="-194.48" gradientUnits="userSpaceOnUse"><stop offset="0" stop-color="#707de4"/><stop offset="0.5" stop-color="#00dbde"/><stop offset="1" stop-color="#6884e4"/></linearGradient></defs><path class="cls-1" d="M36,37.64a3.27,3.27,0,0,0,0-.54,4.1,4.1,0,0,0-3.6-4.05V31.8a28.67,28.67,0,0,1,8.17,1.13,5.74,5.74,0,0,1,2.47,1.37.77.77,0,0,1,.22.53C43.28,35.84,40.57,37.14,36,37.64Zm-4.56-4.59V31.8a29.36,29.36,0,0,0-8.08,1.1c-.18.05-.35.12-.52.18l-.21.08-.26.11-.21.09-.22.1a1.74,1.74,0,0,1-.18.11l-.19.1-.15.1a.66.66,0,0,0-.17.12,1.25,1.25,0,0,0-.12.08l-.14.12a.76.76,0,0,0-.09.09l-.11.12a.61.61,0,0,0-.07.1,1.27,1.27,0,0,1-.07.12h0a.11.11,0,0,1,0,.06.7.7,0,0,0-.05.25c0,1,2.72,2.31,7.31,2.81a3.27,3.27,0,0,1,0-.54A4.1,4.1,0,0,1,31.42,33.05ZM28,16.07a6.67,6.67,0,0,0-2.73-.83v2.44a6.7,6.7,0,0,0,6.19,6.67V21.79s0-.08,0-.12A6.65,6.65,0,0,0,28,16.07Zm5.23,1a1.27,1.27,0,0,0,.11-.13,6.7,6.7,0,0,1,.71-.7,2.1,2.1,0,0,1,.27-.24,7.55,7.55,0,0,1,.71-.51.94.94,0,0,1,.18-.12c0-.18,0-.34,0-.5,0-2.88-2.39-5.37-3.27-6.19-.87.82-3.27,3.31-3.27,6.19,0,.16,0,.32,0,.5a1,1,0,0,1,.19.12c.24.16.48.33.7.51a2.09,2.09,0,0,1,.28.24,6.61,6.61,0,0,1,.7.7l.12.13a8.81,8.81,0,0,1,.66.94l.15.29a7.92,7.92,0,0,1,.37.78c0,.06.06.11.08.18s.07-.12.09-.18a7.92,7.92,0,0,1,.37-.78l.15-.28A8.94,8.94,0,0,1,33.27,17Zm14.15,2.13a15.34,15.34,0,0,1-4,10.36,1.11,1.11,0,0,0-.21.22s0,0,0,.05a3.9,3.9,0,0,0-.55,2.92l-.49-.23-.26-.13c-.3-.13-.62-.25-1-.37a30.35,30.35,0,0,0-9-1.19A30.76,30.76,0,0,0,23,32c-.35.12-.66.22-1,.35l-.15.06a7.49,7.49,0,0,0-.75.37l-.07,0a4.34,4.34,0,0,0-.55-3.25,2.52,2.52,0,0,0-.27-.34,15.41,15.41,0,1,1,27.13-10Zm-7.73-4.43a.5.5,0,0,0-.5-.5,7.54,7.54,0,0,0-2.92.59c0-4-3.79-7.1-4-7.23a.53.53,0,0,0-.63,0c-.16.13-4,3.25-4,7.23a7.54,7.54,0,0,0-2.92-.59.5.5,0,0,0-.5.5v2.95a7.69,7.69,0,1,0,15.38,0Zm-7.16,6.94s0,.09,0,.12a.66.66,0,0,0,0,.14v2.42a6.7,6.7,0,0,0,6.19-6.67V15.24a6.71,6.71,0,0,0-6.16,6.43ZM45.43,59.2l-.64-.71a7.71,7.71,0,0,1-1.87-3.71,7.06,7.06,0,0,0-2.49-4.06l-1.23-1a8.28,8.28,0,0,1-2.66-3.91l-.31-1.06a.64.64,0,0,0-.6-.44H32.51V40.14a3.07,3.07,0,0,0,2.36-2.09A3,3,0,0,0,35,37.1a3.1,3.1,0,0,0-6.2,0,3.17,3.17,0,0,0,.15,1,3.08,3.08,0,0,0,2.54,2.1v4.09H28a.59.59,0,0,0-.5.25.58.58,0,0,0-.1.54l.18.63a7.34,7.34,0,0,0,2.54,3.6l.82.67a8.11,8.11,0,0,1,3,4.76A6.65,6.65,0,0,0,35.64,58L37.53,60a.63.63,0,0,0,.46.2h7a.62.62,0,0,0,.57-.37A.61.61,0,0,0,45.43,59.2Z"/></svg>