<svg id="Gradient_2" data-name="Gradient 2" xmlns="http://www.w3.org/2000/svg" xmlns:xlink="http://www.w3.org/1999/xlink" viewBox="0 0 64 64"><defs><style>.cls-1{fill:url(#linear-gradient);}</style><linearGradient id="linear-gradient" x1="-304.33" y1="369.46" x2="144.48" y2="-79.35" gradientUnits="userSpaceOnUse"><stop offset="0" stop-color="#707de4"/><stop offset="0.5" stop-color="#00dbde"/><stop offset="1" stop-color="#6884e4"/></linearGradient></defs><path class="cls-1" d="M4.69,15.61v-.88A8,8,0,0,1,18.29,9.1a7.84,7.84,0,0,1,2.11,3.8,7.28,7.28,0,0,1,.22,1.83v.83a8.94,8.94,0,0,0-15.93,0ZM4.69,46c1.48-1.65,4.45-2.76,8-2.76s6.48,1.11,8,2.76V19.38a8,8,0,0,0-15.91.3.19.19,0,0,1,0,.07Zm8,11.2c4.31,0,8-1.9,8-4.15s-3.65-4.16-8-4.16-8,1.91-8,4.16S8.34,57.23,12.66,57.23Zm-8-6.55,0,0a4.72,4.72,0,0,1,.56-.53L5.43,50A5.49,5.49,0,0,1,6,49.63l.2-.13a8,8,0,0,1,.77-.42H7a8.51,8.51,0,0,1,.83-.34l.26-.09c.25-.09.51-.16.77-.23l.22-.06q.5-.12,1-.21l.25,0c.28,0,.57-.08.87-.1l.31,0c.38,0,.76,0,1.16,0s.77,0,1.15,0l.31,0c.3,0,.59.06.87.1l.25,0c.35.06.7.13,1,.21l.21.06c.26.07.52.14.77.23l.26.09a6.86,6.86,0,0,1,.83.34h0q.4.2.78.42l.19.13a5.49,5.49,0,0,1,.53.37l.16.12a5.53,5.53,0,0,1,.55.53l0,0V48.42c0-2.25-3.65-4.15-8-4.15s-8,1.9-8,4.15ZM59.31,17.39a4.12,4.12,0,0,0-4.11-4.11H21.5a2.3,2.3,0,0,1,0,.26,1.07,1.07,0,0,1,0,.25,7.3,7.3,0,0,1,.06.94v4.45H59.31Zm0,2.79H21.62v30H59.31Zm0,33v-2H21.62v1.92a2.88,2.88,0,0,1-.06.59,1.21,1.21,0,0,1,0,.18,2.91,2.91,0,0,1-.12.39,1.21,1.21,0,0,1-.09.2,2.31,2.31,0,0,1-.18.35L21,55c-.08.12-.17.23-.26.34l-.14.17a5.44,5.44,0,0,1-.42.41l-.06.06c-.18.15-.37.3-.57.44l-.19.11c-.15.1-.3.2-.46.29l-.26.13-.47.22-.15.07H55.2A4.11,4.11,0,0,0,59.31,53.13Z"/></svg>