<svg id="Gradient_2" data-name="Gradient 2" xmlns="http://www.w3.org/2000/svg" xmlns:xlink="http://www.w3.org/1999/xlink" viewBox="0 0 64 64"><defs><style>.cls-1{fill:url(#linear-gradient);}</style><linearGradient id="linear-gradient" x1="-354.54" y1="425.46" x2="94.26" y2="-23.35" gradientUnits="userSpaceOnUse"><stop offset="0" stop-color="#707de4"/><stop offset="0.5" stop-color="#00dbde"/><stop offset="1" stop-color="#6884e4"/></linearGradient></defs><path class="cls-1" d="M39.24,12.05A7.25,7.25,0,1,1,32,4.81,7.25,7.25,0,0,1,39.24,12.05ZM29.49,52.48,34,51l9.42-3-1.81-3.51a.59.59,0,0,1,0-.23V40.58L31.85,33.9l-9.47,6.49v3.69a.46.46,0,0,1-.05.23l-2.17,4.22.75.32Zm-9-27.2L16.75,36.21l11-4.67,3.7-7.13s0,0,0,0l.06-.07a.12.12,0,0,1,.05,0l.07-.05.08,0,0,0H32l0,0,.08,0,.07.05a.12.12,0,0,1,.05,0,.2.2,0,0,1,.06.07s0,0,0,0L36,31.54l11,4.68L43.69,25.86c-1.07-3.64-4-6.07-7.23-6.07H27.52a7.56,7.56,0,0,0-6.77,4.84A6.32,6.32,0,0,0,20.48,25.28Zm5.41,30.19c0-.13.05-.25.08-.37s.06-.14.08-.21a2.85,2.85,0,0,1,.12-.31c0-.07.07-.14.1-.2a2.4,2.4,0,0,1,.16-.27c0-.07.09-.12.13-.18l.18-.23a1.29,1.29,0,0,1,.17-.16c.07-.06.13-.13.21-.19l.18-.12.24-.15.21-.09.18-.08-8.66-3.67h0l-2.21-.74-.16,0-.15,0a2.46,2.46,0,0,0-.72-.11c-2.22,0-4,2.32-4,5.18s1.82,5.19,4.05,5.19H26.66l-.18-.27-.17-.24a2.55,2.55,0,0,1-.13-.29,2.75,2.75,0,0,1-.14-.3c0-.12-.06-.24-.09-.36s-.06-.19-.08-.29a4,4,0,0,1-.06-.7,3.92,3.92,0,0,1,.05-.59A1.13,1.13,0,0,1,25.89,55.47Zm-9.47-14a1,1,0,0,0,1.52.8l3.66-2.51h0l8.56-5.87L31.35,33V26.69l-2.84,5.47a.43.43,0,0,1-.25.23l-11.84,5Zm18.77-9.27-2.84-5.47V33l.67.46,9.36,6.41h0l3.37,2.32a1,1,0,0,0,1.52-.81v-4l-11.84-5A.43.43,0,0,1,35.19,32.16ZM28.7,58.69H47.94c2.24,0,4.06-2.33,4.06-5.19v-.36a5.59,5.59,0,0,0-2-4.46,3.48,3.48,0,0,0-2.08-.74,3.32,3.32,0,0,0-.83.11l-2.8.76-8.79,2.8L29.61,53.5h0l-1.27.34a2.39,2.39,0,0,0-1.51,2.4A2.26,2.26,0,0,0,28.7,58.69Z"/></svg>