<svg id="Gradient_2" data-name="Gradient 2" xmlns="http://www.w3.org/2000/svg" xmlns:xlink="http://www.w3.org/1999/xlink" viewBox="0 0 64 64"><defs><style>.cls-1{fill:url(#linear-gradient);}</style><linearGradient id="linear-gradient" x1="-150.89" y1="224.89" x2="297.91" y2="-223.92" gradientUnits="userSpaceOnUse"><stop offset="0" stop-color="#707de4"/><stop offset="0.5" stop-color="#00dbde"/><stop offset="1" stop-color="#6884e4"/></linearGradient></defs><path class="cls-1" d="M38.65,11.11a6.93,6.93,0,1,1-6.93-6.93A6.93,6.93,0,0,1,38.65,11.11ZM60.42,59.48c-.27-1-1.76-2.42-2.25-3.27-.86-1.49-.94-2.24-2.38-3.23L41.4,43.06a4.34,4.34,0,0,1-1.88-3.87L40,31A4.36,4.36,0,0,1,43.85,27l14.37-1.81A1.21,1.21,0,0,0,59.28,24v-.19a1.22,1.22,0,0,0-1.12-1.21L31.72,20.63,5.29,22.77A1.21,1.21,0,0,0,4.18,24h0a1.21,1.21,0,0,0,1.05,1.2L19.3,27A4.37,4.37,0,0,1,23.1,31l.38,6a4.37,4.37,0,0,1-4.35,4.64H13c-2.67,0-4,2.08-4.83,4.83L5.38,56.17,3.75,57.86a.94.94,0,0,0,.81,1.58l5.8-.82,4.32-10.13,17.05-1.2L53.25,57.52a4,4,0,0,1,2.07,2.3h5.2Z"/></svg>