<svg id="Gradient_2" data-name="Gradient 2" xmlns="http://www.w3.org/2000/svg" xmlns:xlink="http://www.w3.org/1999/xlink" viewBox="0 0 64 64"><defs><style>.cls-1{fill:url(#linear-gradient);}</style><linearGradient id="linear-gradient" x1="-210.89" y1="270.11" x2="237.91" y2="-178.7" gradientUnits="userSpaceOnUse"><stop offset="0" stop-color="#707de4"/><stop offset="0.5" stop-color="#00dbde"/><stop offset="1" stop-color="#6884e4"/></linearGradient></defs><path class="cls-1" d="M36.16,13.23A5.13,5.13,0,1,1,31,8.1,5.12,5.12,0,0,1,36.16,13.23ZM33.42,48.16V48.1m5.14-15.25V25.13S45.34,19,45.49,14,34,2.55,34,2.55a.32.32,0,0,0-.44.45s6.95,5.57,6.85,10.16S35,20.5,35,20.5l-9.36-.21s-4.06-2.54-4.06-6.63S28.13,3,28.13,3a.32.32,0,0,0-.49-.4S16,7.8,16,13.66s7,12,7,12a103.18,103.18,0,0,0,.44,14.68c.54,3.88,1.92,12.95,3.88,17.93l-3.88,3.29h6.22c2.19,0,.39-24.09.39-24.09s10.24-.43,10.3,3.27c0,2.26-4.19,4.78-6.64,6.6a.69.69,0,0,0-.22.85l0,6.48,3.75-5C42.08,48.53,48.39,44,48,39.43S38.55,32.85,38.55,32.85Z"/></svg>