<svg id="Gradient_2" data-name="Gradient 2" xmlns="http://www.w3.org/2000/svg" xmlns:xlink="http://www.w3.org/1999/xlink" viewBox="0 0 64 64"><defs><style>.cls-1{fill:url(#linear-gradient);}</style><linearGradient id="linear-gradient" x1="-258.06" y1="331.72" x2="190.74" y2="-117.09" gradientUnits="userSpaceOnUse"><stop offset="0" stop-color="#707de4"/><stop offset="0.5" stop-color="#00dbde"/><stop offset="1" stop-color="#6884e4"/></linearGradient></defs><path class="cls-1" d="M55,8.2H52a.5.5,0,0,1,0-1h3a.5.5,0,1,1,0,1ZM45.87,9.91a1.54,1.54,0,0,1,.6-1.18A2.48,2.48,0,0,1,48,8.2h1.21a.5.5,0,1,0,0-1H48A3.41,3.41,0,0,0,45.83,8a2.5,2.5,0,0,0-1,1.94,2,2,0,0,1-2.17,1.71H38.4a.5.5,0,0,0,0,1h4.3A3,3,0,0,0,45.87,9.91Zm8-6.37a.5.5,0,0,0-.5-.5H52a.5.5,0,0,0,0,1h1.41A.5.5,0,0,0,53.87,3.54ZM44.24,5.75a1.51,1.51,0,0,1,.6-1.17A2.45,2.45,0,0,1,46.41,4h2.84a.5.5,0,0,0,0-1H46.41a3.47,3.47,0,0,0-2.21.77,2.5,2.5,0,0,0-1,1.94,2,2,0,0,1-2.16,1.71H36.77a.5.5,0,1,0,0,1h4.31A3,3,0,0,0,44.24,5.75Zm8.95,46.73-.16.09c-.15.09-.32.18-.49.26l-.22.12-.53.24-.25.11c-.27.12-.56.23-.86.34C46.24,55.27,39.43,56.21,32,56.21s-14.25-.94-18.69-2.57c-.27-.1-.53-.2-.78-.31l-.23-.1L11.81,53l-.25-.13-.39-.2-.25-.15-.33-.19,0,0,1.06,3a.51.51,0,0,1,0,.17C11.64,57.59,20,60,32,60s20.25-2.35,20.34-4.45a.45.45,0,0,1,0-.16l1.15-3.07ZM32.37,43.73v2.44a.5.5,0,0,1-.5.5.5.5,0,0,1-.5-.5V43.73c-12.92.1-21.87,3.06-21.87,5.74a1.54,1.54,0,0,0,.34.91,8.32,8.32,0,0,0,3.81,2.32c4.28,1.57,11.14,2.51,18.35,2.51s14.06-.94,18.34-2.51c2.78-1,3.72-2,4-2.65a1.39,1.39,0,0,0,.14-.58C54.5,46.78,45.43,43.78,32.37,43.73Zm-.5-4a1.72,1.72,0,0,0,1.71-1.71V12.91H30.15V38.06A1.72,1.72,0,0,0,31.87,39.77ZM33.58,9.36a1,1,0,0,0-1-1H31.18a1,1,0,0,0-1,1v2.55h3.43Z"/></svg>