<svg id="Gradient_2" data-name="Gradient 2" xmlns="http://www.w3.org/2000/svg" xmlns:xlink="http://www.w3.org/1999/xlink" viewBox="0 0 64 64"><defs><style>.cls-1{fill:url(#linear-gradient);}</style><linearGradient id="linear-gradient" x1="-314.55" y1="381.45" x2="134.26" y2="-67.36" gradientUnits="userSpaceOnUse"><stop offset="0" stop-color="#707de4"/><stop offset="0.5" stop-color="#00dbde"/><stop offset="1" stop-color="#6884e4"/></linearGradient></defs><path class="cls-1" d="M41.38,14a.5.5,0,0,1-.5-.5V11a2,2,0,0,0-2-2,3,3,0,0,1-3-3V2.82a.5.5,0,0,1,.5-.5.5.5,0,0,1,.5.5V6a2,2,0,0,0,2,2,3,3,0,0,1,3,3v2.49A.5.5,0,0,1,41.38,14Zm-6.6-.5V11a3,3,0,0,0-3-3,2,2,0,0,1-2-2V2.82a.5.5,0,0,0-.5-.5.5.5,0,0,0-.5.5V6a3,3,0,0,0,3,3,2,2,0,0,1,2,2v2.49a.5.5,0,0,0,.5.5A.5.5,0,0,0,34.78,13.53Zm-7.54,0V11a3,3,0,0,0-3-3,2,2,0,0,1-2-2V2.82a.5.5,0,0,0-.5-.5.5.5,0,0,0-.5.5V6a3,3,0,0,0,3,3,2,2,0,0,1,2,2v2.49a.5.5,0,0,0,.5.5A.5.5,0,0,0,27.24,13.53Zm-3,14.16h16a9.53,9.53,0,0,0,9.52-9.33h-35A9.53,9.53,0,0,0,24.2,27.69Zm9.89,16.47h-4a1.28,1.28,0,0,0-1.28,1.28V55.61h6.52V45.44A1.28,1.28,0,0,0,34.09,44.16Zm17.39,12.5a3.72,3.72,0,0,1-.94,2.83,3.65,3.65,0,0,1-2.72,1.19H16.18a3.67,3.67,0,0,1-3.66-4l1.05-11.1a18.52,18.52,0,0,1,36.87,0Zm-9.6-14.13a9.69,9.69,0,0,0-19.38,0V56.11a.5.5,0,0,0,.5.5H41.38a.5.5,0,0,0,.5-.5ZM32,43.16A2.17,2.17,0,0,0,34.19,41c0-.81-1.21-2.49-2.17-3.6-1,1.11-2.17,2.79-2.17,3.6A2.17,2.17,0,0,0,32,43.16Zm.16-9.31a8.68,8.68,0,0,0-8.68,8.68V55.61h4.35V45.44a2.28,2.28,0,0,1,1.91-2.24A3.15,3.15,0,0,1,28.85,41c0-1.62,2.52-4.38,2.8-4.69a.51.51,0,0,1,.74,0c.28.31,2.8,3.07,2.8,4.69a3.14,3.14,0,0,1-.89,2.19,2.27,2.27,0,0,1,2.07,2.26V55.61h4.51V42.53a8.71,8.71,0,0,0-8.7-8.68Z"/></svg>