<svg id="Gradient_2" data-name="Gradient 2" xmlns="http://www.w3.org/2000/svg" xmlns:xlink="http://www.w3.org/1999/xlink" viewBox="0 0 64 64"><defs><style>.cls-1{fill:url(#linear-gradient);}</style><linearGradient id="linear-gradient" x1="-113.91" y1="177.91" x2="334.9" y2="-270.9" gradientUnits="userSpaceOnUse"><stop offset="0" stop-color="#707de4"/><stop offset="0.5" stop-color="#00dbde"/><stop offset="1" stop-color="#6884e4"/></linearGradient></defs><path class="cls-1" d="M62.23,32s-4.47-.42-6.12-4.36a7.33,7.33,0,0,0-.88-5.31A7.36,7.36,0,0,0,52.13,18c-1.62-3.95,1.25-7.41,1.25-7.41S49.91,13.49,46,11.87a7.36,7.36,0,0,0-4.29-3.1,7.33,7.33,0,0,0-5.31-.88C32.43,6.24,32,1.77,32,1.77s-.42,4.47-4.36,6.12a7.33,7.33,0,0,0-5.31.88A7.39,7.39,0,0,0,18,11.87c-3.95,1.62-7.41-1.25-7.41-1.25s2.86,3.46,1.24,7.42a7.36,7.36,0,0,0-3.1,4.29,7.33,7.33,0,0,0-.88,5.31C6.24,31.57,1.77,32,1.77,32s4.47.42,6.12,4.36a7.33,7.33,0,0,0,.88,5.31A7.39,7.39,0,0,0,11.87,46c1.62,3.95-1.25,7.41-1.25,7.41s3.46-2.86,7.42-1.24a7.36,7.36,0,0,0,4.29,3.1,7.33,7.33,0,0,0,5.31.88C31.57,57.76,32,62.23,32,62.23s.42-4.47,4.36-6.12a7.33,7.33,0,0,0,5.31-.88A7.39,7.39,0,0,0,46,52.13c3.95-1.62,7.41,1.25,7.41,1.25S50.51,49.92,52.13,46a7.36,7.36,0,0,0,3.1-4.29,7.33,7.33,0,0,0,.88-5.31C57.76,32.43,62.23,32,62.23,32ZM32,54.07A22.07,22.07,0,1,1,54.07,32,22.09,22.09,0,0,1,32,54.07Zm0-43.14A21.07,21.07,0,1,0,53.07,32,21.09,21.09,0,0,0,32,10.93ZM50.47,32.07A18.59,18.59,0,0,1,34.81,50.33h0a18.78,18.78,0,0,1-2.81.21A18.5,18.5,0,0,1,13.53,32.07V32A18.42,18.42,0,0,1,34.14,13.73h0A18.46,18.46,0,0,1,50.47,32h0ZM35.14,23A3.14,3.14,0,1,1,32,19.83,3.15,3.15,0,0,1,35.14,23ZM34,14.72a15.65,15.65,0,0,0-2-.12A17.51,17.51,0,0,0,14.53,32v.1A17.51,17.51,0,0,0,27.47,48.94l-.14-.09c-.23-.15-.46-.31-.68-.48l-.19-.15a8.88,8.88,0,0,1-.79-.71l-.18-.2c-.18-.2-.36-.4-.53-.62l-.21-.28c-.15-.21-.29-.43-.43-.66s-.11-.17-.16-.25c-.17-.32-.33-.64-.47-1l-.06-.17q-.16-.42-.3-.87c0-.11-.06-.22-.08-.33a6.91,6.91,0,0,1-.16-.79c0-.11,0-.22-.05-.33A8.62,8.62,0,0,1,23,40.9a9.46,9.46,0,0,1,9.44-9.43h.2A8.45,8.45,0,0,0,41,23,8.51,8.51,0,0,0,34,14.72ZM32,27.11A4.14,4.14,0,1,1,36.14,23,4.15,4.15,0,0,1,32,27.11Zm3.14,13.75A3.14,3.14,0,1,1,32,37.72,3.15,3.15,0,0,1,35.14,40.86ZM38.93,16c.06,0,.11.11.17.17l.33.33a4.12,4.12,0,0,1,.28.31c.12.13.23.27.33.4l.23.29c.17.24.33.48.48.73a1.51,1.51,0,0,0,.09.18c.11.2.22.41.32.63s.09.2.13.3a5.2,5.2,0,0,1,.21.55,3.38,3.38,0,0,1,.11.34,5.12,5.12,0,0,1,.15.56,3.38,3.38,0,0,1,.08.34c0,.21.08.41.1.62s0,.2,0,.31c0,.31.05.62.05.94a9.46,9.46,0,0,1-9.43,9.44h-.2A8.47,8.47,0,0,0,24,40.9a8.45,8.45,0,0,0,8.44,8.44h2.34A17.58,17.58,0,0,0,49.47,32.07V32A17.49,17.49,0,0,0,38.93,16ZM32,45a4.14,4.14,0,1,1,4.14-4.14A4.15,4.15,0,0,1,32,45Z"/></svg>